<?xml version="1.0" encoding="utf-8"?>
<!-- Generator: Adobe Illustrator 18.0.0, SVG Export Plug-In . SVG Version: 6.00 Build 0)  -->
<!DOCTYPE svg PUBLIC "-//W3C//DTD SVG 1.1//EN" "http://www.w3.org/Graphics/SVG/1.1/DTD/svg11.dtd">
<svg version="1.1" id="Layer_1" xmlns="http://www.w3.org/2000/svg" xmlns:xlink="http://www.w3.org/1999/xlink" x="0px" y="0px"
	 width="33px" height="33px" viewBox="-3.5 0 33 33" enable-background="new -3.5 0 33 33" xml:space="preserve">
<g id="Page-1">
	<g id="Propuesta-3-SELECCION" transform="translate(-850.000000, -3030.000000)">
		<g id="LOCATION" transform="translate(2.000000, 2938.000000)">
			<g id="LOCACION" transform="translate(848.000000, 92.000000)">
				<g id="Group-2">
					<path id="Shape" fill="#B11B1B" d="M13.1,8.1c-2.3,0-4.2,1.7-4.2,3.8s1.9,3.8,4.2,3.8s4.2-1.7,4.2-3.8S15.4,8.1,13.1,8.1z
						 M13.1,14.6c-1.7,0-3-1.2-3-2.7s1.3-2.7,3-2.7s3,1.2,3,2.7S14.8,14.6,13.1,14.6z"/>
					<path id="Shape_1_" fill="#B11B1B" d="M21.1,4.6c-2.2-2-5.1-3.1-8.1-3.1c-3.1,0-6,1.1-8.1,3.1c-4,3.7-4.5,10.6-1.1,14.8
						L13,31.5l9.2-12.1C25.7,15.2,25.2,8.2,21.1,4.6z M21.2,18.7L13,29.6L4.8,18.7c-3.1-3.8-2.7-10,1-13.4c1.9-1.8,4.5-2.8,7.3-2.8
						s5.3,1,7.3,2.8C23.9,8.7,24.4,14.9,21.2,18.7z"/>
				</g>
			</g>
		</g>
	</g>
</g>
</svg>
