<?xml version="1.0" encoding="utf-8"?>
<!-- Generator: Adobe Illustrator 18.0.0, SVG Export Plug-In . SVG Version: 6.00 Build 0)  -->
<!DOCTYPE svg PUBLIC "-//W3C//DTD SVG 1.1//EN" "http://www.w3.org/Graphics/SVG/1.1/DTD/svg11.dtd">
<svg version="1.1" id="Layer_1" xmlns="http://www.w3.org/2000/svg" xmlns:xlink="http://www.w3.org/1999/xlink" x="0px" y="0px"
	 width="33px" height="33px" viewBox="211.5 0 33 33" enable-background="new 211.5 0 33 33" xml:space="preserve">
<g>
	<path fill="#B11B1B" d="M233.4,2.8h-10.9c-3,0-5.4,2.5-5.4,5.5v16.4c0,1,0.8,1.8,1.8,1.8v1.8c0,1,0.8,1.8,1.8,1.8h1.8
		c1,0,1.8-0.8,1.8-1.8v-1.8h7.2v1.8c0,1,0.8,1.8,1.8,1.8h1.8c1,0,1.8-0.8,1.8-1.8v-1.8c1,0,1.8-0.8,1.8-1.8V8.3
		C238.9,5.3,236.4,2.8,233.4,2.8z M224.4,4.6h7.2v1.8h-7.2V4.6z M220.8,24.7c-1,0-1.8-0.8-1.8-1.8c0-1,0.8-1.8,1.8-1.8
		c1,0,1.8,0.8,1.8,1.8C222.6,23.9,221.8,24.7,220.8,24.7z M235.3,24.7c-1,0-1.8-0.8-1.8-1.8c0-1,0.8-1.8,1.8-1.8
		c1,0,1.8,0.8,1.8,1.8C237.1,23.9,236.3,24.7,235.3,24.7z M237.1,19.2h-18.1V8.3h18.1V19.2z"/>
	<path fill="#B11B1B" d="M213.5,11v3.6c0,0.5,0.4,0.9,0.9,0.9h0.9v-5.5h-0.9C213.9,10.1,213.5,10.5,213.5,11z"/>
	<path fill="#B11B1B" d="M241.6,10.1h-0.9v5.5h0.9c0.5,0,0.9-0.4,0.9-0.9V11C242.5,10.5,242.1,10.1,241.6,10.1z"/>
</g>
</svg>
