<?xml version="1.0" encoding="UTF-8" standalone="no"?>
<svg width="77px" height="77px" viewBox="0 0 77 77" version="1.1" xmlns="http://www.w3.org/2000/svg" xmlns:xlink="http://www.w3.org/1999/xlink">
    <!-- Generator: Sketch 41.2 (35397) - http://www.bohemiancoding.com/sketch -->
    <title>film-roll</title>
    <desc>Created with Sketch.</desc>
    <defs>
        <polygon id="path-1" points="0 76.9875806 77 76.9875806 77 0 0 0"></polygon>
    </defs>
    <g id="Page-1" stroke="none" stroke-width="1" fill="none" fill-rule="evenodd">
        <g id="Propuesta-3-SELECCION" transform="translate(-276.000000, -1889.000000)">
            <g id="SLIDER-INFO" transform="translate(0.000000, 1792.000000)">
                <g transform="translate(172.000000, 97.000000)" id="film-roll">
                    <g transform="translate(104.000000, 0.000000)">
                        <path d="M17.3926855,42.8298011 C17.6950968,42.8548468 17.999164,42.8685081 18.3040591,42.8685081 C23.0517715,42.8685081 27.2279866,39.8332177 28.6963683,35.3142285 C29.5986344,32.5376747 29.3657715,29.5769005 28.0406263,26.9756667 C27.1075188,25.1444328 25.7095134,23.6476935 23.9962634,22.6071586 C23.9823952,22.5974301 23.967078,22.5893575 23.9534167,22.5812849 C23.2450995,22.1550941 22.4850349,21.8050753 21.6796398,21.5430269 C20.5817688,21.1863844 19.4447769,21.0052688 18.3007473,21.0052688 C13.5530349,21.0052688 9.37599194,24.0413871 7.90843817,28.5597554 C6.0463629,34.2914946 9.19404839,40.4688817 14.9249597,42.3317849 C15.7150376,42.5880376 16.5251935,42.7521801 17.34425,42.8250403 C17.3603952,42.8264892 17.3757124,42.8281452 17.3926855,42.8298011 Z M26.334621,34.5469194 C25.2301263,37.9460968 22.1422608,40.2585806 18.595086,40.3790484 C18.53775,39.7555968 18.5044247,39.1273844 18.5044247,38.5 C18.5044247,33.5887661 20.2721129,28.932336 23.5013522,25.2769059 C24.4628172,26.0272419 25.256828,26.9845672 25.8266694,28.1029301 C26.8512661,30.1127957 27.0315538,32.4018898 26.334621,34.5469194 Z M10.2701855,29.3278925 C11.4055215,25.8355699 14.6322769,23.4891398 18.3007473,23.4891398 C19.1837634,23.4891398 20.0626398,23.6290645 20.9123306,23.9056022 C21.039422,23.946793 21.1654785,23.9912957 21.2892581,24.0382823 C17.8803522,28.0843011 16.0205538,33.1578145 16.0205538,38.5 C16.0205538,39.0280296 16.0408387,39.5566801 16.0772688,40.0830538 C15.9487285,40.0482796 15.8201882,40.0112285 15.6922688,39.9692097 C11.2639409,38.5300134 8.8318172,33.7562204 10.2701855,29.3278925 Z" id="Fill-1" fill="#B11B1B"></path>
                        <path d="M27.8789677,19.8328817 C29.0383145,24.6228199 33.3592151,28.1917285 38.5,28.1917285 C43.6416129,28.1917285 47.9625134,24.6219919 49.1210323,19.8314328 C49.1396613,19.7716129 49.1543575,19.7109651 49.1632581,19.6511452 C49.3354731,18.8813522 49.4292392,18.0832016 49.4292392,17.2624892 C49.4292392,11.2364113 44.526078,6.33428495 38.5,6.33428495 C32.473922,6.33428495 27.5707608,11.2364113 27.5707608,17.2624892 C27.5707608,18.0832016 27.6645269,18.8813522 27.8367419,19.6503172 C27.8456425,19.711586 27.8603387,19.7722339 27.8789677,19.8328817 Z M38.5,25.7078575 C34.8542984,25.7078575 31.7413871,23.3856452 30.5609274,20.1433656 C33.0648763,19.056672 35.7298629,18.5044247 38.5,18.5044247 C41.2701371,18.5044247 43.9351237,19.056672 46.4390726,20.1433656 C45.2586129,23.3856452 42.1457016,25.7078575 38.5,25.7078575 Z M38.5,8.81815591 C43.1564301,8.81815591 46.9453683,12.6060591 46.9453683,17.2624892 C46.9453683,17.3959973 46.9412285,17.5278495 46.9348118,17.6586667 C44.2625806,16.5728011 41.4326237,16.0205538 38.5,16.0205538 C35.5665484,16.0205538 32.7374194,16.5728011 30.0651882,17.6586667 C30.0587715,17.5278495 30.0546317,17.3959973 30.0546317,17.2624892 C30.0546317,12.6060591 33.8435699,8.81815591 38.5,8.81815591 Z" id="Fill-2" fill="#B11B1B"></path>
                        <path d="M44.9578575,38.5 C44.9578575,34.939164 42.060836,32.0421425 38.5,32.0421425 C34.939164,32.0421425 32.0421425,34.939164 32.0421425,38.5 C32.0421425,42.060836 34.939164,44.9578575 38.5,44.9578575 C42.060836,44.9578575 44.9578575,42.060836 44.9578575,38.5 Z M38.5,42.4739866 C36.3088118,42.4739866 34.5260134,40.6911882 34.5260134,38.5 C34.5260134,36.3088118 36.3088118,34.5260134 38.5,34.5260134 C40.6911882,34.5260134 42.4739866,36.3088118 42.4739866,38.5 C42.4739866,40.6911882 40.6911882,42.4739866 38.5,42.4739866 Z" id="Fill-3" fill="#B11B1B"></path>
                        <path d="M32.4408038,46.8393898 C30.5609274,45.4736747 28.3422097,44.7516962 26.0247581,44.7516962 C23.4140027,44.7516962 20.905914,45.6937043 18.9492446,47.3487903 C18.8894247,47.3924651 18.8343656,47.4400726 18.7834462,47.4926478 C18.1891801,48.0159167 17.6483172,48.606043 17.1753468,49.2570242 C15.4596129,51.6187715 14.7657849,54.5077204 15.2226102,57.3910806 C15.6794355,60.2742339 17.2310269,62.8075753 19.5936022,64.5233091 C21.4734785,65.8888172 23.6921962,66.6110027 26.0094409,66.6110027 C29.5007285,66.6110027 32.8094516,64.9259032 34.8590591,62.1048468 C35.342586,61.4393763 35.7371075,60.7351989 36.0509032,60.0090806 C36.0784328,59.9548495 36.1034785,59.8975134 36.1229355,59.8385215 C37.9961882,55.2831022 36.5981828,49.8601909 32.4408038,46.8393898 Z M30.9813226,48.8486344 C33.9300914,50.9913871 35.0838495,54.6985645 34.1329409,58.0151532 C28.7876505,56.8185484 24.100586,53.4137823 21.2923629,48.6861478 C22.6742231,47.7555242 24.3212366,47.2347392 26.0247581,47.2347392 C27.8141801,47.2355672 29.5282581,47.7934032 30.9813226,48.8486344 Z M26.0094409,64.1271317 C24.2193978,64.1271317 22.5059409,63.5690887 21.0530833,62.5132366 C19.2282661,61.1878844 18.0291774,59.2303871 17.6758468,57.0021478 C17.3231371,54.7745296 17.8584113,52.5421505 19.1854194,50.7171263 C19.2636613,50.608871 19.34625,50.5045484 19.4294597,50.4010538 C22.5181532,55.3307097 27.4494651,58.9143145 33.0754328,60.3162527 C33.0025726,60.4271989 32.9282634,60.5371102 32.8489866,60.6453656 C31.2651048,62.8253763 28.7083737,64.1271317 26.0094409,64.1271317 Z" id="Fill-4" fill="#B11B1B"></path>
                        <path d="M58.2140699,47.490371 C58.1656344,47.4400726 58.1122312,47.3949489 58.0548952,47.3521022 C56.0982258,45.6953602 53.5876532,44.7516962 50.9752419,44.7516962 C48.6577903,44.7516962 46.4390726,45.4736747 44.5591962,46.8393898 C40.4024382,49.8593629 39.0038118,55.2822742 40.8762366,59.8376935 C40.8965215,59.8975134 40.9215672,59.9548495 40.9499247,60.0099086 C41.2628925,60.7360269 41.657414,61.4393763 42.1409409,62.1048468 C44.1913763,64.9259032 47.4992715,66.6110027 50.9905591,66.6110027 C53.3078038,66.6110027 55.5265215,65.8888172 57.4072258,64.5233091 C59.7689731,62.8075753 61.3205645,60.2742339 61.7773898,57.3910806 C62.2342151,54.5077204 61.5403871,51.6187715 59.8246532,49.2570242 C59.3508548,48.6052151 58.809164,48.0142608 58.2140699,47.490371 Z M46.0186774,48.8486344 C47.4717419,47.7934032 49.1858199,47.2355672 50.9752419,47.2355672 C52.6787634,47.2355672 54.3257769,47.7555242 55.7076371,48.6869758 C52.899414,53.4146102 48.2123495,56.8193763 42.8670591,58.0151532 C41.9161505,54.6985645 43.0699086,50.9913871 46.0186774,48.8486344 Z M59.3241532,57.0021478 C58.9708226,59.2303871 57.7717339,61.1870565 55.9469167,62.5132366 C54.4940591,63.5690887 52.7797742,64.1271317 50.9905591,64.1271317 C48.2916263,64.1271317 45.7348952,62.8253763 44.1510134,60.6453656 C44.0717366,60.5371102 43.9974274,60.4271989 43.9245672,60.3162527 C49.5505349,58.9143145 54.4818468,55.3307097 57.5705403,50.4002258 C57.65375,50.5045484 57.7363387,50.608871 57.8154086,50.7171263 C59.1407608,52.5421505 59.6768629,54.7745296 59.3241532,57.0021478 Z" id="Fill-5" fill="#B11B1B"></path>
                        <g id="Group-9">
                            <mask id="mask-2" fill="white">
                                <use xlink:href="#path-1"></use>
                            </mask>
                            <g id="Clip-7"></g>
                            <path d="M69.0915618,28.5603763 C67.6240081,24.0413871 63.447793,21.0052688 58.7000806,21.0052688 C57.5552231,21.0052688 56.4182312,21.1863844 55.3203602,21.5430269 C54.5021317,21.8090081 53.7298548,22.1664785 53.0126371,22.6021909 C53.0109812,22.6030188 53.0095323,22.6038468 53.0087043,22.6046747 C51.2929704,23.6460376 49.8941371,25.1427769 48.9602016,26.9756667 C47.6350565,29.5769005 47.4013656,32.5385027 48.3036317,35.3142285 C49.7720134,39.8332177 53.9482285,42.869336 58.6959409,42.869336 C58.9983522,42.869336 59.3007634,42.8556747 59.6015188,42.830629 C59.6226317,42.8289731 59.6435376,42.8264892 59.6646505,42.8242124 C60.4803952,42.7513522 61.2874462,42.5872097 62.0750403,42.3317849 C67.8059516,40.4697097 70.9544651,34.2914946 69.0915618,28.5603763 Z M61.3077312,39.9692097 C61.1798118,40.0104005 61.0512715,40.0482796 60.9227312,40.0830538 C60.9599892,39.5560591 60.9794462,39.0272016 60.9794462,38.5 C60.9794462,36.4932392 60.714086,34.5032446 60.1926801,32.5846613 C60.0123925,31.9233306 59.3299489,31.5327419 58.6677903,31.7122016 C58.0062527,31.8924892 57.615871,32.5749328 57.7961586,33.2370914 C58.2602285,34.9430968 58.4955753,36.7138898 58.4955753,38.5 C58.4955753,39.1265565 58.46225,39.7555968 58.404914,40.3790484 C54.8577392,40.2585806 51.7698737,37.9460968 50.665379,34.5469194 C49.9684462,32.4010618 50.1487339,30.1127957 51.1733306,28.1029301 C51.7425511,26.9845672 52.5363548,26.0280699 53.4969919,25.2785618 C54.3911855,26.2917742 55.1837473,27.392129 55.8548065,28.5620323 C56.0843575,28.9623495 56.5033038,29.1863118 56.9334274,29.1863118 C57.1426935,29.1863118 57.3554785,29.1329086 57.5502554,29.0213414 C58.1453495,28.6802231 58.3506828,27.9209866 58.0095645,27.3258925 C57.3424382,26.1646828 56.5703683,25.0651559 55.7076371,24.0391102 C55.8328656,23.9921237 55.959957,23.946793 56.0876694,23.9047742 C56.9373602,23.6290645 57.8162366,23.4891398 58.6992527,23.4891398 C62.3677231,23.4891398 65.5944785,25.8347419 66.7298145,29.3270645 C68.1681828,33.7562204 65.7360591,38.5300134 61.3077312,39.9692097 Z" id="Fill-6" fill="#B11B1B" mask="url(#mask-2)"></path>
                            <path d="M75.7580645,74.516129 C70.5866452,74.516129 66.355371,70.4175349 66.1394812,65.2978629 C73.1464812,58.076629 77,48.5851371 77,38.5 C77,28.2159462 72.995172,18.5480995 65.7238468,11.2761532 C58.4519005,4.00482796 48.7840538,0 38.5,0 C28.2159462,0 18.5480995,4.00482796 11.2761532,11.2761532 C4.00482796,18.5480995 0,28.2159462 0,38.5 C0,48.7840538 4.00482796,58.4519005 11.2761532,65.7238468 C18.5480995,72.995172 28.2159462,77 38.5,77 C47.9527849,77 56.883957,73.6138629 63.9135188,67.4195027 C65.0811452,72.8869167 69.9478763,77 75.7580645,77 C76.4436129,77 77,76.4436129 77,75.7580645 C77,75.0725161 76.4436129,74.516129 75.7580645,74.516129 Z M2.48387097,38.5 C2.48387097,18.6404167 18.6404167,2.48387097 38.5,2.48387097 C58.3595833,2.48387097 74.516129,18.6404167 74.516129,38.5 C74.516129,58.3595833 58.3595833,74.516129 38.5,74.516129 C18.6404167,74.516129 2.48387097,58.3595833 2.48387097,38.5 Z" id="Fill-8" fill="#B11B1B" mask="url(#mask-2)"></path>
                        </g>
                    </g>
                </g>
            </g>
        </g>
    </g>
</svg>