<?xml version="1.0" encoding="utf-8"?>
<!-- Generator: Adobe Illustrator 16.0.0, SVG Export Plug-In . SVG Version: 6.00 Build 0)  -->
<!DOCTYPE svg PUBLIC "-//W3C//DTD SVG 1.1//EN" "http://www.w3.org/Graphics/SVG/1.1/DTD/svg11.dtd">
<svg version="1.1" id="Capa_1" xmlns="http://www.w3.org/2000/svg" xmlns:xlink="http://www.w3.org/1999/xlink" x="0px" y="0px"
	 width="78px" height="78px" viewBox="0 0 78 78" enable-background="new 0 0 78 78" xml:space="preserve">
<title>location-point</title>
<desc>Created with Sketch.</desc>
<g id="Page-1">
	<g id="Propuesta-3-SELECCION" transform="translate(-933.000000, -900.000000)">
		<g id="PROYECTO" transform="translate(0.000000, 748.000000)">
			<g id="ESPECIFICACIONES-PROYECTOS" transform="translate(215.000000, 151.000000)">
				<g id="SEGURIDAD" transform="translate(644.000000, 1.000000)">
					<path id="lock" fill="#FFFFFF" d="M125.066,29.976h-23.544v-6.017c0-6.634,5.281-12.032,11.772-12.032
						s11.772,5.398,11.772,12.032V29.976z M116.185,52.562l0.927,8.532c0.046,0.425-0.088,0.851-0.366,1.169
						c-0.278,0.319-0.678,0.5-1.096,0.5h-5.886c-0.418,0-0.818-0.181-1.098-0.5c-0.278-0.318-0.412-0.744-0.366-1.169l0.929-8.532
						c-1.508-1.121-2.409-2.894-2.409-4.838c0-3.318,2.64-6.017,5.887-6.017c3.246,0,5.886,2.698,5.886,6.017
						C118.592,49.668,117.69,51.44,116.185,52.562z M133.602,29.976v-6.017c0-11.61-9.241-21.056-20.601-21.056
						c-11.36,0-20.602,9.446-20.602,21.056v6.017h-4.415c-0.813,0-1.472,0.672-1.472,1.504v37.6c0,3.318,2.64,6.017,5.887,6.017
						h41.203c3.247,0,5.887-2.698,5.887-6.017v-37.6c0-0.832-0.659-1.504-1.471-1.504H133.602z"/>
				</g>
			</g>
		</g>
	</g>
</g>
</svg>
