<?xml version="1.0" encoding="UTF-8" standalone="no"?>
<svg width="78px" height="78px" viewBox="0 0 78 78" version="1.1" xmlns="http://www.w3.org/2000/svg" xmlns:xlink="http://www.w3.org/1999/xlink">
    <!-- Generator: Sketch 41.2 (35397) - http://www.bohemiancoding.com/sketch -->
    <title>location-point</title>
    <desc>Created with Sketch.</desc>
    <defs></defs>
    <g id="Page-1" stroke="none" stroke-width="1" fill="none" fill-rule="evenodd">
        <g id="Propuesta-3-SELECCION" transform="translate(-281.000000, -899.000000)" fill="#FFFFFF">
            <g id="PROYECTO" transform="translate(0.000000, 748.000000)">
                <g id="ESPECIFICACIONES-PROYECTOS" transform="translate(215.000000, 151.000000)">
                    <g id="CONECTADOS">
                        <g id="location-point" transform="translate(66.000000, 0.000000)">
                            <g id="Capa_1">
                                <path d="M38.8939967,26.1892033 C41.0241639,26.1892033 42.8300557,26.9296918 44.310777,28.4106689 C45.7917541,29.8916459 46.5322426,31.697282 46.5322426,33.8278328 C46.5322426,35.9582557 45.7917541,37.7640197 44.310777,39.2449967 C42.8300557,40.7258459 41.0241639,41.4663344 38.8939967,41.4663344 C36.7635738,41.4663344 34.9578098,40.7258459 33.4769607,39.2449967 C31.9959836,37.7640197 31.2554951,35.9582557 31.2554951,33.8278328 C31.2554951,31.697282 31.9959836,29.8916459 33.4769607,28.4106689 C34.9579377,26.9296918 36.7635738,26.1892033 38.8939967,26.1892033 Z M57.9123148,33.9837049 C57.9123148,31.3855377 57.4191246,28.9433705 56.4313377,26.6569475 C55.4440623,24.3705246 54.093,22.3700164 52.3785344,20.6551672 C50.6638131,18.940318 48.6630492,17.576341 46.3766262,16.5631082 C44.0902033,15.5498754 41.6481639,15.043259 39.0499967,15.043259 L38.9719967,15.043259 L38.8942525,15.043259 C36.2962131,15.043259 33.853918,15.5498754 31.5674951,16.5631082 C29.2812,17.576341 27.2805639,18.9404459 25.5658426,20.6551672 C23.8511213,22.3698885 22.500059,24.3705246 21.5127836,26.6569475 C20.5255082,28.9432426 20.0318066,31.3855377 20.0318066,33.9837049 L20.0318066,34.061577 L20.0318066,34.5291934 C20.0318066,34.6331508 20.0577639,34.711023 20.1096787,34.7630656 C20.1096787,35.8022557 20.2395934,36.9195738 20.499423,38.1146361 C20.6033803,38.842082 20.9670393,39.8812721 21.5906557,41.2324623 C22.2142721,42.5833967 22.9676754,44.0642459 23.8511213,45.6751377 C24.7344393,47.2860295 25.6828426,48.9617508 26.6960754,50.7025574 C27.7093082,52.4429803 28.683541,54.0541279 29.6189016,55.5351049 C30.5541344,57.0159541 31.3856656,58.2890164 32.1131115,59.3542918 C32.8405574,60.4195672 33.3602164,61.1080131 33.6719607,61.4195016 C34.0876623,61.8352033 34.5683213,62.2768623 35.1139377,62.7444787 C35.6595541,63.2120951 36.1921279,63.6277967 36.7117869,63.9915836 C37.231318,64.3553705 37.6990623,64.6411574 38.1147639,64.8490721 C38.5304656,65.056859 38.8162525,65.1608164 38.9721246,65.1608164 C39.1283803,65.1608164 39.4011246,65.0569869 39.7904852,64.8490721 C40.1803574,64.6411574 40.6349311,64.3682852 41.1545902,64.0307115 C41.6741213,63.692882 42.206823,63.290223 42.7524393,62.8228623 C43.2981836,62.355118 43.8046721,61.8875016 44.2724164,61.4195016 C44.5841607,61.1077574 45.1038197,60.4194393 45.8312656,59.3541639 C46.5585836,58.2890164 47.389859,57.0026557 48.3254754,55.4958492 C49.2605803,53.9891705 50.2350689,52.378023 51.247918,50.6633016 C52.2616623,48.9484525 53.2099377,47.2726033 54.093,45.6361377 C54.976318,43.9990328 55.7168066,42.5184393 56.3144656,41.1933344 C56.9118689,39.8683574 57.2886984,38.842082 57.4445705,38.1146361 C57.5485279,37.5430623 57.6266557,36.9844033 57.6783148,36.4389148 C57.7302295,35.8932984 57.7822721,35.3346393 57.8346984,34.7630656 L57.8346984,34.5291934 C57.8346984,34.4253639 57.847741,34.3473639 57.8736984,34.2953213 C57.8996557,34.2432787 57.9126984,34.1654066 57.9126984,34.0614492 L57.9126984,33.9837049 L57.9123148,33.9837049 L57.9123148,33.9837049 Z M38.9719967,0 C44.3243311,0 49.3775803,1.02627541 54.1325115,3.07882623 C58.8869311,5.13137705 63.0176066,7.91137377 66.5255607,11.4188164 C70.0330033,14.926259 72.8128721,19.057318 74.8655508,23.8118656 C76.917718,28.566541 77.9441213,33.619918 77.9441213,38.9719967 C77.9441213,42.5574393 77.476377,46.0128393 76.5410164,49.3384525 C75.6056557,52.6640656 74.2935934,55.7688492 72.6048295,58.6528033 C70.9160656,61.5367574 68.8896,64.160882 66.5253049,66.525177 C64.1610098,68.8890885 61.5366295,70.9159377 58.6529311,72.6048295 C55.7691049,74.2935934 52.6643213,75.6056557 49.3387082,76.5406328 C46.0130951,77.4758656 42.5574393,77.9439934 38.9719967,77.9439934 C35.3865541,77.9439934 31.9311541,77.4762492 28.605541,76.5406328 C25.2799279,75.6055279 22.1751443,74.2935934 19.2911902,72.6048295 C16.4072361,70.9159377 13.7831115,68.8890885 11.4189443,66.525177 C9.05464918,64.160882 7.02805574,61.5363738 5.3392918,58.6528033 C3.6504,55.7688492 2.3383377,52.6641934 1.40297705,49.3384525 C0.467744262,46.0128393 0,42.5575672 0,38.9719967 C0,35.3864262 0.467616393,31.9311541 1.40297705,28.6054131 C2.3383377,25.2798 3.6504,22.1750164 5.33916393,19.2911902 C7.02792787,16.4072361 9.05452131,13.7831115 11.4188164,11.4188164 C13.7831115,9.05452131 16.4072361,7.02792787 19.2910623,5.33916393 C22.1748885,3.6504 25.2798,2.3383377 28.6054131,1.40297705 C31.9310262,0.467616393 35.3865541,0 38.9719967,0 Z" id="Shape"></path>
                            </g>
                        </g>
                    </g>
                </g>
            </g>
        </g>
    </g>
</svg>