<?xml version="1.0" encoding="utf-8"?>
<!-- Generator: Adobe Illustrator 16.0.0, SVG Export Plug-In . SVG Version: 6.00 Build 0)  -->
<!DOCTYPE svg PUBLIC "-//W3C//DTD SVG 1.1//EN" "http://www.w3.org/Graphics/SVG/1.1/DTD/svg11.dtd">
<svg version="1.1" id="Capa_1" xmlns="http://www.w3.org/2000/svg" xmlns:xlink="http://www.w3.org/1999/xlink" x="0px" y="0px"
	 width="78px" height="78px" viewBox="0 0 78 78" enable-background="new 0 0 78 78" xml:space="preserve">
<title>location-point</title>
<desc>Created with Sketch.</desc>
<g id="Page-1_1_">
	<g id="Group">
		<path id="Fill-1" fill="#FFFFFF" d="M70.422,20.179H57.987c-2.496,0-4.785,1.358-5.974,3.545l-0.863,1.587
			c0.332,0.785,0.515,1.647,0.515,2.552c0,1.441-0.467,2.776-1.259,3.862c0.896,0.075,1.746,0.331,2.507,0.731l3.469-6.376
			c0.088-0.16,0.273-0.241,0.452-0.197c0.178,0.046,0.303,0.205,0.303,0.389l0.001,41.193c0,1.639,1.334,2.969,2.98,2.969
			s2.98-1.33,2.98-2.969V43.731h1.287v23.733c0,1.639,1.334,2.97,2.98,2.97s2.98-1.331,2.98-2.97
			c0-38.345-0.052-18.032-0.054-41.421c0-0.284,0.229-0.514,0.513-0.519c0.284-0.003,0.52,0.222,0.527,0.504l0.091,18.18
			c0.008,1.363,1.118,2.461,2.483,2.461c1.384-0.006,2.49-1.12,2.484-2.485l-0.091-18.179
			C76.284,22.792,73.647,20.179,70.422,20.179z"/>
		<path id="Fill-3" fill="#FFFFFF" d="M54.089,38.254c-0.012-2.319-1.914-4.205-4.241-4.205h-9.625c-2.326,0-4.23,1.886-4.241,4.204
			c-0.003,0.722,0,0.107-0.021,3.508l-1.976-0.405c0,0-4.424-12.127-6.006-16.716c-1.164-3.372-3.114-5.082-5.797-5.082h-8.686
			c-2.684,0-4.634,1.71-5.797,5.082c-1.803,5.226-5.896,16.383-5.937,16.495c-0.475,1.295,0.193,2.729,1.493,3.203
			c1.301,0.474,2.741-0.192,3.216-1.488c0.035-0.093,2.975-8.106,4.982-13.77c-0.134,1.098,0.291-1.212-3.561,18.599
			c-0.167,0.859,0.498,1.653,1.368,1.653h1.913v18.116c0,1.655,1.346,2.996,3.008,2.996s3.009-1.341,3.009-2.996V49.332h1.299
			v18.116c0,1.655,1.347,2.996,3.009,2.996c1.662,0,3.008-1.341,3.008-2.996V49.332h1.912c0.875,0,1.535-0.796,1.369-1.653
			c-3.853-19.812-3.427-17.501-3.562-18.599c2.008,5.663,4.947,13.677,4.983,13.77c0.36,0.982,1.274,1.601,2.261,1.639
			c2.008,0.41,3.483,0.712,5.911,1.208c1.107,0.228,2.146-0.611,2.153-1.737c0,0,0.03-5.016,0.032-5.611
			c0.002-0.19,0.157-0.344,0.348-0.343c0.191,0,0.347,0.154,0.347,0.345c0,4.814,0,27.94,0,29.941c0,1.185,0.962,2.144,2.15,2.144
			s2.151-0.959,2.151-2.144V51.162h0.929v17.129c0,1.185,0.964,2.144,2.152,2.144c1.188,0,2.149-0.959,2.149-2.144
			c0-12.316-0.029-26.802-0.037-30.017c0-0.206,0.167-0.373,0.373-0.374s0.375,0.165,0.376,0.371l0.065,13.121
			c0.006,0.983,0.807,1.776,1.793,1.776c0.003,0,0.007-0.002,0.009-0.002c0.988-0.005,1.786-0.804,1.784-1.787
			c0-0.003,0.001-0.005,0.001-0.006C54.142,48.646,54.101,40.705,54.089,38.254"/>
		<path id="Fill-5" fill="#FFFFFF" d="M63.776,7.687c2.843,0,5.147,2.296,5.147,5.128c0,2.833-2.305,5.128-5.147,5.128
			s-5.148-2.295-5.148-5.128C58.628,9.982,60.934,7.687,63.776,7.687"/>
		<path id="Fill-6" fill="#FFFFFF" d="M45.05,23.207c2.582,0,4.675,2.085,4.675,4.656s-2.093,4.656-4.675,4.656
			c-2.58,0-4.673-2.085-4.673-4.656S42.47,23.207,45.05,23.207"/>
		<path id="Fill-7" fill="#FFFFFF" d="M17.838,17.908c2.879,0,5.196-2.332,5.196-5.177c0-2.85-2.323-5.176-5.196-5.176
			c-2.869,0-5.196,2.317-5.196,5.176C12.643,15.58,14.958,17.908,17.838,17.908"/>
	</g>
</g>
</svg>
