<?xml version="1.0" encoding="utf-8"?>
<!-- Generator: Adobe Illustrator 16.0.0, SVG Export Plug-In . SVG Version: 6.00 Build 0)  -->
<!DOCTYPE svg PUBLIC "-//W3C//DTD SVG 1.1//EN" "http://www.w3.org/Graphics/SVG/1.1/DTD/svg11.dtd">
<svg version="1.1" id="Layer_1" xmlns="http://www.w3.org/2000/svg" xmlns:xlink="http://www.w3.org/1999/xlink" x="0px" y="0px"
	 width="33px" height="33px" viewBox="0 0 33 33" enable-background="new 0 0 33 33" xml:space="preserve">
<g>
	<path fill="#B11B1B" d="M27.329,5.774H5.678c-1.933,0-3.504,1.546-3.504,3.447v14.556c0,1.902,1.571,3.449,3.504,3.449h21.646
		c1.933,0,3.503-1.547,3.503-3.449V9.227C30.832,7.326,29.263,5.774,27.329,5.774z M27.329,25.65H5.678
		c-1.049,0-1.903-0.84-1.903-1.873V9.227c0-1.033,0.854-1.872,1.903-1.872h21.646c1.048,0,1.903,0.839,1.903,1.872v14.55h0.005
		C29.231,24.811,28.379,25.65,27.329,25.65z"/>
	<path fill="#B11B1B" d="M20.245,16.318l7.007-6.182c0.326-0.292,0.354-0.787,0.059-1.114c-0.295-0.321-0.8-0.35-1.132-0.059
		l-9.663,8.533l-1.886-1.656c-0.005-0.006-0.012-0.012-0.012-0.018c-0.042-0.042-0.083-0.076-0.13-0.111L6.815,8.958
		C6.483,8.667,5.98,8.696,5.684,9.023C5.387,9.35,5.417,9.845,5.749,10.137l7.091,6.234l-7.062,6.504
		c-0.32,0.297-0.338,0.793-0.035,1.113c0.16,0.164,0.374,0.25,0.586,0.25c0.196,0,0.392-0.07,0.545-0.209l7.168-6.597l1.944,1.71
		c0.154,0.133,0.344,0.197,0.534,0.197s0.385-0.068,0.533-0.203l1.998-1.764l7.126,6.662c0.154,0.145,0.355,0.215,0.551,0.215
		c0.214,0,0.422-0.082,0.581-0.244c0.303-0.316,0.29-0.816-0.029-1.115L20.245,16.318z"/>
</g>
</svg>
