<?xml version="1.0" encoding="utf-8"?>
<!-- Generator: Adobe Illustrator 16.0.0, SVG Export Plug-In . SVG Version: 6.00 Build 0)  -->
<!DOCTYPE svg PUBLIC "-//W3C//DTD SVG 1.1//EN" "http://www.w3.org/Graphics/SVG/1.1/DTD/svg11.dtd">
<svg version="1.1" id="Layer_1" xmlns="http://www.w3.org/2000/svg" xmlns:xlink="http://www.w3.org/1999/xlink" x="0px" y="0px"
	 width="33px" height="33px" viewBox="0 0 33 33" enable-background="new 0 0 33 33" xml:space="preserve">
<g id="Page-1">
	<g id="Propuesta-3-SELECCION" transform="translate(-850.000000, -3030.000000)">
		<g id="LOCATION" transform="translate(2.000000, 2938.000000)">
			<g id="LOCACION" transform="translate(848.000000, 92.000000)">
				<g id="Group-2">
					<path id="Shape" fill="#B11B1B" d="M16.563,8.1c-2.3,0-4.2,1.7-4.2,3.8s1.9,3.8,4.2,3.8c2.299,0,4.2-1.7,4.2-3.8
						S18.862,8.1,16.563,8.1z M16.563,14.6c-1.7,0-3-1.2-3-2.7s1.3-2.7,3-2.7c1.7,0,3,1.2,3,2.7S18.263,14.6,16.563,14.6z"/>
					<path id="Shape_1_" fill="#B11B1B" d="M24.562,4.6c-2.199-2-5.1-3.1-8.1-3.1c-3.1,0-6,1.1-8.1,3.1c-4,3.7-4.5,10.6-1.1,14.8
						l9.2,12.1l9.2-12.1C29.163,15.2,28.663,8.2,24.562,4.6z M24.663,18.7l-8.2,10.899L8.263,18.7c-3.1-3.8-2.7-10,1-13.4
						c1.9-1.8,4.5-2.8,7.3-2.8c2.799,0,5.3,1,7.3,2.8C27.363,8.7,27.863,14.9,24.663,18.7z"/>
				</g>
			</g>
		</g>
	</g>
</g>
</svg>
