<?xml version="1.0" encoding="utf-8"?>
<!-- Generator: Adobe Illustrator 18.0.0, SVG Export Plug-In . SVG Version: 6.00 Build 0)  -->
<!DOCTYPE svg PUBLIC "-//W3C//DTD SVG 1.1//EN" "http://www.w3.org/Graphics/SVG/1.1/DTD/svg11.dtd">
<svg version="1.1" id="Layer_1" xmlns="http://www.w3.org/2000/svg" xmlns:xlink="http://www.w3.org/1999/xlink" x="0px" y="0px"
	 width="33px" height="33px" viewBox="267.4 0 33 33" enable-background="new 267.4 0 33 33" xml:space="preserve">
<g>
	<path fill="#B11B1B" d="M283.9,4.5c-7.9,0-14.5,5.2-14.5,12c0,6.8,6.6,12,14.5,12c7.9,0,14.5-5.2,14.5-12
		C298.4,9.7,291.8,4.5,283.9,4.5z M293.1,23.8c-2.3,1.9-5.6,3.1-9.2,3.1c-3.6,0-6.9-1.2-9.2-3.1c-2.3-1.9-3.7-4.5-3.7-7.3
		c0-2.8,1.4-5.4,3.7-7.3c2.3-1.9,5.6-3.1,9.2-3.1c0,0,0,0,0,0c3.6,0,6.9,1.2,9.2,3.1c2.3,1.9,3.7,4.5,3.7,7.3
		C296.8,19.3,295.4,21.9,293.1,23.8z"/>
	<polygon fill="#B11B1B" points="277.2,10.1 273.8,16.2 277.2,22.4 280.6,16.2 	"/>
	<polygon fill="#B11B1B" points="280.6,16.3 284,22.5 287.4,16.3 284,10.2 	"/>
	<polygon fill="#B11B1B" points="290.8,10.2 287.4,16.3 290.8,22.5 294.2,16.3 	"/>
</g>
</svg>
