<?xml version="1.0" encoding="utf-8"?>
<!-- Generator: Adobe Illustrator 18.0.0, SVG Export Plug-In . SVG Version: 6.00 Build 0)  -->
<!DOCTYPE svg PUBLIC "-//W3C//DTD SVG 1.1//EN" "http://www.w3.org/Graphics/SVG/1.1/DTD/svg11.dtd">
<svg version="1.1" id="Layer_1" xmlns="http://www.w3.org/2000/svg" xmlns:xlink="http://www.w3.org/1999/xlink" x="0px" y="0px"
	 width="33px" height="33px" viewBox="53.8 0 33 33" enable-background="new 53.8 0 33 33" xml:space="preserve">
<path fill="#B11B1B" d="M84.1,18.6c-0.4-1-0.9-1.7-1.3-2.2c0.2-0.4,0.3-0.7,0.3-1.1c0-0.8-0.3-1.5-0.9-2.1c-0.9-0.9-2.3-2-4.3-2.7
	l0.3-1.1L77.9,9c-2.2-2.1-7.4-2.2-7.6-2.2l0,0l0,0c-0.2,0-5.4,0.1-7.6,2.2l-0.4,0.3l0.3,1.1c-1.9,0.7-3.3,1.8-4.3,2.7
	c-0.6,0.5-0.9,1.3-0.9,2.1c0,0.4,0.1,0.8,0.3,1.1c-0.4,0.5-0.9,1.2-1.3,2.2c-1,2.2-0.9,4.5,0.2,6.6c0.3,0.6,0.9,0.9,1.5,1
	c0,0,0.1,0,0.1,0c0.6,0,1.2-0.3,1.5-0.8c0.7-1,2.1-2.7,3.8-3.5l0.9,0.8l1.8-1h7.9l1.8,1l0.9-0.8c1.7,0.8,3.1,2.5,3.8,3.5
	c0.3,0.5,0.9,0.8,1.5,0.8c0,0,0.1,0,0.1,0c0.7,0,1.2-0.4,1.5-1C85,23.1,85.1,20.8,84.1,18.6z M58.5,24.4c0,0-0.1,0.1-0.2,0
	c-0.1,0-0.1,0-0.1,0c-0.8-1.6-0.9-3.4-0.2-5.1c0.3-0.7,0.6-1.2,0.9-1.6l3.4,3C60.6,21.7,59.3,23.2,58.5,24.4z M64.8,20.6l-5.2-4.6
	c-0.2-0.2-0.4-0.5-0.4-0.8c0-0.3,0.1-0.6,0.3-0.8c0.8-0.7,2-1.7,3.5-2.3l2.4,8.2L64.8,20.6z M73.4,20h-6.3L64.3,10
	c1.6-1.1,4.8-1.4,6-1.4c1.2,0,4.4,0.3,6,1.4L73.4,20z M75.8,20.6l-0.7-0.4l2.4-8.2c1.6,0.6,2.8,1.6,3.5,2.3c0.2,0.2,0.4,0.5,0.3,0.8
	c0,0.3-0.1,0.6-0.4,0.8L75.8,20.6z M82.4,24.4c0,0-0.1,0-0.1,0c-0.1,0-0.1,0-0.2,0c-0.9-1.2-2.2-2.8-3.8-3.8l3.4-3
	C82.5,18.9,84,21.5,82.4,24.4z"/>
</svg>
