<?xml version="1.0" encoding="utf-8"?>
<!-- Generator: Adobe Illustrator 18.0.0, SVG Export Plug-In . SVG Version: 6.00 Build 0)  -->
<!DOCTYPE svg PUBLIC "-//W3C//DTD SVG 1.1//EN" "http://www.w3.org/Graphics/SVG/1.1/DTD/svg11.dtd">
<svg version="1.1" id="Layer_1" xmlns="http://www.w3.org/2000/svg" xmlns:xlink="http://www.w3.org/1999/xlink" x="0px" y="0px"
	 width="33px" height="33px" viewBox="146.3 0 33 33" enable-background="new 146.3 0 33 33" xml:space="preserve">
<path fill="#B11B1B" d="M175.8,8c-0.5-0.6-1.2-0.9-2-0.9h-16.6c-0.5,0-0.9,0.1-1.3,0.4l-0.8-3c-0.1-0.5-0.6-0.8-1.1-0.8h-3.8
	c-0.5,0-0.9,0.4-0.9,0.9v0.1c0,0.5,0.4,0.9,0.9,0.9h3.2l1.6,5.9l2.3,8.2c-1.3,0.3-2.2,1.5-2.2,2.9c0,1.6,1.2,2.9,2.8,3
	c-0.1,0.4-0.2,0.8-0.2,1.2c0.1,1.4,1.3,2.6,2.7,2.7c1.7,0.1,3.1-1.3,3.1-2.9c0-0.3-0.1-0.7-0.2-1h3.4c-0.1,0.4-0.2,0.9-0.1,1.3
	c0.2,1.4,1.3,2.5,2.7,2.6c1.7,0.1,3.1-1.2,3.1-2.9c0-1.6-1.3-3-2.9-3h-11.3c-0.6,0-1-0.4-1-1c0-0.6,0.4-1.1,1-1.1h13.5
	c1.1,0,2.2-0.8,2.4-1.9l2.3-9.3C176.5,9.4,176.3,8.6,175.8,8z M169.5,25.5c0.5,0,1,0.4,1,1c0,0.5-0.4,1-1,1c-0.5,0-1-0.4-1-1
	C168.5,25.9,168.9,25.5,169.5,25.5z M160.6,25.5c0.5,0,1,0.4,1,1c0,0.5-0.4,1-1,1c-0.5,0-1-0.4-1-1
	C159.6,25.9,160.1,25.5,160.6,25.5z M157.1,11.3L157.1,11.3l-0.4-1.6c-0.1-0.2,0-0.4,0.1-0.5c0.1-0.1,0.2-0.2,0.4-0.2h1.8l0.5,2.3
	H157.1z M157.6,13.3h2.3l0.5,2.1h-2.2L157.6,13.3z M159.7,19.4L159.7,19.4c-0.3,0-0.5-0.2-0.5-0.4l-0.4-1.6h2l0.4,2H159.7z
	 M164.6,19.4h-1.4l-0.4-2h1.8V19.4z M164.6,15.4h-2.2l-0.5-2.1h2.7V15.4z M164.6,11.3h-3.1L161,9h3.6V11.3z M168.1,19.4h-1.5v-2h1.9
	L168.1,19.4z M168.9,15.4h-2.4v-2.1h2.8L168.9,15.4z M166.6,11.3V9h3.7l-0.5,2.3H166.6z M172.1,19c-0.1,0.3-0.3,0.4-0.5,0.4h-1.5
	l0.4-2h2L172.1,19z M173,15.4h-2.1l0.4-2.1h2.2L173,15.4z M174.4,9.7l-0.4,1.6h-2.2l0.5-2.3h1.6c0.2,0,0.4,0.1,0.4,0.2
	C174.3,9.3,174.4,9.5,174.4,9.7z"/>
</svg>
