<?xml version="1.0" encoding="utf-8"?>
<!-- Generator: Adobe Illustrator 16.0.0, SVG Export Plug-In . SVG Version: 6.00 Build 0)  -->
<!DOCTYPE svg PUBLIC "-//W3C//DTD SVG 1.1//EN" "http://www.w3.org/Graphics/SVG/1.1/DTD/svg11.dtd">
<svg version="1.1" id="Layer_1" xmlns="http://www.w3.org/2000/svg" xmlns:xlink="http://www.w3.org/1999/xlink" x="0px" y="0px"
	 width="33px" height="33px" viewBox="0 0 33 33" enable-background="new 0 0 33 33" xml:space="preserve">
<g>
	<path fill="#B11B1B" d="M24.921,19.966c-0.594-0.618-1.31-0.949-2.07-0.949c-0.752,0-1.474,0.323-2.093,0.943l-1.935,1.928
		c-0.159-0.085-0.318-0.164-0.471-0.245c-0.221-0.11-0.43-0.215-0.605-0.325c-1.813-1.149-3.461-2.65-5.04-4.591
		c-0.766-0.967-1.279-1.781-1.652-2.608c0.501-0.459,0.967-0.937,1.42-1.396c0.171-0.171,0.343-0.349,0.514-0.521
		c1.286-1.286,1.286-2.951,0-4.236l-1.671-1.672c-0.19-0.189-0.386-0.386-0.569-0.581c-0.367-0.379-0.753-0.771-1.151-1.139
		c-0.593-0.587-1.303-0.9-2.051-0.9c-0.747,0-1.469,0.312-2.081,0.9C5.458,4.581,5.458,4.581,5.452,4.587l-2.081,2.1
		c-0.784,0.784-1.23,1.739-1.328,2.847c-0.147,1.788,0.379,3.453,0.783,4.542c0.991,2.676,2.473,5.155,4.684,7.812
		c2.681,3.202,5.908,5.729,9.594,7.511c1.407,0.668,3.286,1.459,5.387,1.593c0.128,0.006,0.264,0.012,0.386,0.012
		c1.414,0,2.603-0.507,3.533-1.518c0.006-0.013,0.019-0.019,0.024-0.03c0.317-0.386,0.686-0.735,1.07-1.109
		c0.263-0.251,0.533-0.514,0.797-0.789c0.605-0.631,0.925-1.365,0.925-2.118c0-0.759-0.325-1.487-0.942-2.1L24.921,19.966z
		 M27.113,26.412c-0.238,0.257-0.484,0.489-0.749,0.746c-0.396,0.381-0.801,0.778-1.181,1.225c-0.617,0.661-1.346,0.974-2.302,0.974
		c-0.091,0-0.189,0-0.281-0.006c-1.818-0.116-3.509-0.826-4.776-1.432c-3.464-1.68-6.507-4.06-9.035-7.079
		c-2.088-2.515-3.483-4.842-4.408-7.339c-0.569-1.524-0.777-2.712-0.686-3.832C3.756,8.952,4.032,8.358,4.54,7.85l2.088-2.088
		c0.3-0.281,0.618-0.435,0.931-0.435c0.386,0,0.697,0.233,0.894,0.429c0.006,0.006,0.012,0.012,0.019,0.019
		c0.373,0.349,0.729,0.71,1.102,1.096c0.19,0.196,0.386,0.392,0.582,0.594l1.671,1.671c0.649,0.65,0.649,1.25,0,1.898
		c-0.178,0.178-0.349,0.356-0.526,0.527c-0.514,0.526-1.004,1.016-1.536,1.494c-0.013,0.013-0.024,0.019-0.03,0.031
		c-0.527,0.526-0.43,1.041-0.318,1.39c0.006,0.019,0.012,0.037,0.018,0.055c0.435,1.053,1.047,2.045,1.978,3.227l0.006,0.006
		c1.69,2.082,3.472,3.703,5.437,4.946c0.252,0.159,0.508,0.287,0.754,0.411c0.219,0.109,0.428,0.214,0.605,0.324
		c0.025,0.012,0.049,0.031,0.073,0.043c0.208,0.104,0.405,0.152,0.606,0.152c0.509,0,0.826-0.319,0.931-0.423l2.093-2.094
		c0.209-0.207,0.54-0.458,0.925-0.458c0.38,0,0.692,0.239,0.883,0.446c0.006,0.006,0.006,0.006,0.012,0.012l3.374,3.374
		C27.737,25.121,27.737,25.763,27.113,26.412z"/>
	<path fill="#B11B1B" d="M26.604,6.374c-2.313-2.314-5.221-3.819-8.417-4.365c-0.447-0.08-0.869,0.227-0.949,0.673
		c-0.073,0.453,0.227,0.875,0.68,0.956c2.854,0.483,5.456,1.836,7.524,3.899c2.068,2.069,3.416,4.671,3.9,7.524
		c0.065,0.404,0.415,0.686,0.814,0.686c0.048,0,0.091-0.007,0.14-0.013c0.448-0.067,0.752-0.496,0.675-0.942
		C30.425,11.597,28.918,8.688,26.604,6.374z"/>
	<path fill="#B11B1B" d="M21.896,11.088c1.163,1.164,1.916,2.621,2.192,4.225c0.067,0.403,0.416,0.685,0.814,0.685
		c0.048,0,0.091-0.006,0.14-0.012c0.454-0.074,0.754-0.502,0.681-0.956c-0.331-1.94-1.25-3.71-2.652-5.112
		c-1.401-1.402-3.171-2.32-5.111-2.65c-0.453-0.074-0.875,0.226-0.955,0.673c-0.08,0.447,0.215,0.881,0.667,0.955
		C19.277,9.167,20.732,9.925,21.896,11.088z"/>
</g>
</svg>
