<?xml version="1.0" encoding="utf-8"?>
<!-- Generator: Adobe Illustrator 19.2.0, SVG Export Plug-In . SVG Version: 6.00 Build 0)  -->
<svg version="1.1" id="_x38_12b3510-d75e-4848-9918-4db883581fd0"
	 xmlns="http://www.w3.org/2000/svg" xmlns:xlink="http://www.w3.org/1999/xlink" x="0px" y="0px" viewBox="0 0 708 429"
	 style="enable-background:new 0 0 708 429;" xml:space="preserve">
<style type="text/css">
	.st0{fill:#FFFFFF;}
	.st1{fill:#D18B2B;}
</style>
<title>img08</title>
<path class="st0" d="M147.4,272.4l1-0.2c0.5,0,1,0.4,1.1,0.9v27.7c0,0.6-0.5,1.1-1.1,1.1h0h-5.1c-0.5,0.1-1-0.3-1.1-0.9
	c0-0.1,0-0.1,0-0.2v-18.5c-2.2,1.1-4.6,1.7-7.1,1.7c-0.8-0.1-1.5-0.8-1.5-1.6v-3.3c0-0.8,0.6-1.5,1.4-1.6
	C139.8,276.5,143.6,274.2,147.4,272.4z"/>
<path class="st0" d="M180.3,299.7c-1.4,1.7-3.5,2.6-5.7,2.4c-5.5,0-9.7-5-9.7-10.8s4.4-10.6,9.1-10.6c1.8-0.1,3.5,0.4,5,1.4v-8.8
	c0-0.6,0.5-1.1,1.1-1.1h0h5.1c0.5-0.1,1,0.3,1.1,0.9c0,0.1,0,0.1,0,0.2v27.5c0,0.6-0.5,1.1-1.1,1.1h0h-3.1c-0.7,0.1-1.3-0.3-1.5-1
	L180.3,299.7z M179,291.3c0-1.9-1.5-3.4-3.4-3.4c-1.9,0-3.4,1.5-3.4,3.4c0,2.6,1.5,4.4,3.3,4.4S179,294,179,291.3L179,291.3z"/>
<path class="st0" d="M211.6,292.5c0,0.6-0.5,1.1-1.1,1.1h0h-11.8c0.4,2.3,2.8,2.6,4.1,2.6c1.7,0.1,3.4-0.2,5-0.9h0.3
	c0.3,0,0.5,0.2,0.7,0.4l1.4,2.4c0.2,0.2,0.3,0.4,0.3,0.7c0,0.3-0.1,0.6-0.3,0.9c-1.4,1.9-4.6,2.6-7.3,2.6c-5.9,0-11.6-2.9-11.6-10.9
	c0-5.8,3-10.5,10.2-10.5s10.1,3.3,10.1,10v1.7L211.6,292.5z M198.7,289.6h5.6c-0.1-1.4-1.2-2.5-2.6-2.4c0,0-0.1,0-0.1,0
	c-1.4-0.2-2.7,0.8-2.9,2.3c0,0,0,0,0,0L198.7,289.6z"/>
<path class="st0" d="M239.3,294.9c0.4-0.3,0.8-0.4,1.3-0.5c0.3,0,0.7,0.2,0.9,0.4l2,2.1c0.3,0.3,0.4,0.7,0.5,1.1
	c0,0.4-0.1,0.8-0.3,1.1c-2.3,2.5-5.1,2.9-7.7,2.9c-6-0.1-10.8-4.8-10.9-10.8c0.2-5.9,5-10.6,10.9-10.5c2.8,0,5.5,1,7.6,2.8
	c0.2,0.3,0.3,0.6,0.3,1c0,0.4-0.2,0.8-0.5,1.1l-2.1,2.7c-0.3,0.2-0.6,0.4-0.9,0.4h-0.3l-0.7-0.3c-1.1-0.5-2.2-0.8-3.4-0.8
	c-1.9-0.1-3.5,1.5-3.6,3.4c0,0.1,0,0.3,0,0.4c-0.1,2.3,1.7,4.3,4,4.4c0,0,0,0,0,0C237.4,295.8,238.5,295.5,239.3,294.9z"/>
<path class="st0" d="M259.5,299.7c-1.3,1.5-3.3,2.4-5.3,2.4c-1.5,0-6.9-0.6-6.9-6.9c0-4.1,2.9-5.7,6.8-5.7c1.4,0,2.8,0.2,4.1,0.8
	c-0.5-2.1-1.4-2.6-3.3-2.6c-1.1,0-2.1,0.1-3.2,0.3H251c-0.6,0-1.1-0.2-1.4-0.7l-1.1-3.2c-0.1-0.3-0.1-0.5-0.1-0.8
	c0-0.5,0.2-0.9,0.6-1.2c2.1-0.9,4.4-1.4,6.7-1.3c6.8,0,9.8,3.7,9.8,9.6v10.5c0,0.6-0.5,1.1-1.1,1.1l0,0h-3.1c-0.7,0.1-1.3-0.3-1.5-1
	L259.5,299.7z M258.2,295.6v-1.3c-0.5-0.5-1.2-0.7-1.9-0.7c-1.5,0-2.3,0.4-2.3,1.3s0.9,1.4,2.3,1.4C257,296.3,257.7,296,258.2,295.6
	z"/>
<path class="st0" d="M285.6,299.7c-1.4,1.7-3.5,2.6-5.7,2.4c-5.5,0-9.7-5-9.7-10.8s4.4-10.6,9.1-10.6c1.8-0.1,3.5,0.4,5,1.4v-8.8
	c0-0.6,0.5-1.1,1.1-1.1l0,0h5.1c0.5-0.1,1,0.3,1.1,0.9c0,0.1,0,0.1,0,0.2v27.5c0,0.6-0.5,1.1-1.1,1.1l0,0h-3.1
	c-0.7,0.1-1.3-0.3-1.5-1L285.6,299.7z M284.3,291.3c0-1.9-1.5-3.4-3.4-3.4c-1.9,0-3.4,1.5-3.4,3.4c0,0,0,0,0,0
	c0,2.6,1.5,4.4,3.3,4.4S284.3,294,284.3,291.3L284.3,291.3z"/>
<path class="st0" d="M309.1,299.7c-1.3,1.5-3.3,2.4-5.3,2.4c-1.5,0-6.9-0.6-6.9-6.9c0-4.1,2.9-5.7,6.8-5.7c1.4,0,2.8,0.2,4.1,0.8
	c-0.5-2.1-1.4-2.6-3.3-2.6c-1.1,0-2.1,0.1-3.2,0.3h-0.6c-0.6,0-1.1-0.2-1.4-0.7l-1.1-3.2c-0.1-0.3-0.1-0.5-0.1-0.8
	c0-0.5,0.2-0.9,0.6-1.2c2.1-0.9,4.4-1.4,6.7-1.3c6.8,0,9.8,3.7,9.8,9.6v10.5c0,0.6-0.5,1.1-1.1,1.1l0,0H311c-0.7,0.1-1.3-0.3-1.5-1
	L309.1,299.7z M307.8,295.6v-1.3c-0.5-0.5-1.2-0.7-1.9-0.7c-1.5,0-2.3,0.4-2.3,1.3s0.9,1.4,2.3,1.4
	C306.6,296.3,307.3,296,307.8,295.6L307.8,295.6z"/>
<path class="st0" d="M391,294.1l-6.2-6.3v12.5c0.1,0.8-0.6,1.5-1.4,1.6c-0.1,0-0.1,0-0.2,0H379c-0.8,0.1-1.5-0.6-1.6-1.4
	c0-0.1,0-0.1,0-0.2v-27.5c0.2-0.4,0.6-0.7,1-0.7c0.4,0,0.7,0.2,0.9,0.6l11.7,11.7c0.1,0.3,0.5,0.4,0.8,0.3c0.1-0.1,0.2-0.2,0.3-0.3
	l11.7-11.7c0.2-0.4,0.5-0.6,0.9-0.6c0.4,0,0.8,0.3,1,0.7v27.5c0.1,0.8-0.6,1.5-1.4,1.6c-0.1,0-0.1,0-0.2,0h-4.2
	c-0.8,0.1-1.5-0.6-1.6-1.4c0-0.1,0-0.1,0-0.2v-12.5l-6.2,6.3C391.8,294.4,391.3,294.4,391,294.1z"/>
<path class="st0" d="M412.9,288.7v-15.4c-0.1-0.5,0.3-1,0.9-1.1c0.1,0,0.1,0,0.2,0h5.1c0.6,0,1.1,0.5,1.1,1.1l0,0v15.6
	c0,4.9,1.5,6.8,5.4,6.8s5.4-1.9,5.4-6.8v-15.6c0-0.6,0.5-1.1,1.1-1.1l0,0h5.1c0.5-0.1,1,0.3,1.1,0.9c0,0.1,0,0.1,0,0.2v15.4
	c0,8.2-4.2,13.5-12.7,13.5S412.9,296.9,412.9,288.7z"/>
<path class="st0" d="M462.4,283.7c0.6,0,1.1,0.5,1.1,1.1l0,0v4.7c0.1,0.5-0.3,1-0.9,1.1c-0.1,0-0.1,0-0.2,0h-10v4.4h12.7
	c0.6,0,1.1,0.5,1.1,1.1l0,0v4.7c0.1,0.5-0.3,1-0.9,1.1c-0.1,0-0.1,0-0.2,0h-19c-0.6,0-1.1-0.5-1.1-1.1l0,0v-27.5
	c0-0.6,0.5-1.1,1.1-1.1l0,0h19c0.6,0,1.1,0.5,1.1,1.1l0,0v4.9c0.1,0.5-0.3,1-0.9,1.1c-0.1,0-0.1,0-0.2,0h-12.7v4.5L462.4,283.7
	L462.4,283.7z"/>
<path class="st0" d="M484,292.5h-4.5v8.3c0,0.6-0.5,1.1-1.1,1.1l0,0h-5.1c-0.5,0.1-1-0.3-1.1-0.9c0-0.1,0-0.1,0-0.2v-27.5
	c-0.1-0.5,0.3-1,0.9-1.1c0.1,0,0.1,0,0.2,0h13c5.1,0,9.2,4,9.2,9.8c0.1,3.5-1.7,6.8-4.7,8.6l5,10c0.1,0.7-0.3,1.3-1,1.4
	c-0.1,0-0.2,0-0.3,0h-5c-0.8,0.1-1.5-0.4-1.7-1.1L484,292.5z M488,282.5c0-2.1-0.9-2.9-2.1-2.9h-6.4v6h6.4c1.2-0.1,2.1-1.4,2.1-3.2
	V282.5z"/>
<path class="st0" d="M519.7,272.2c0.6,0,1.1,0.5,1.1,1.1l0,0v4.9c0.1,0.5-0.3,1-0.9,1.1c-0.1,0-0.1,0-0.2,0h-6.2v21.5
	c0,0.6-0.5,1.1-1.1,1.1l0,0h-5.1c-0.5,0.1-1-0.3-1.1-0.9c0-0.1,0-0.1,0-0.2v-21.6H500c-0.5,0.1-1-0.3-1.1-0.9c0-0.1,0-0.1,0-0.2
	v-4.9c0-0.6,0.5-1.1,1.1-1.1l0,0h19.6L519.7,272.2z"/>
<path class="st0" d="M523.2,287c0.1-8.3,6.9-14.9,15.2-14.8c8.3,0.1,14.9,6.9,14.8,15.2c-0.1,8.2-6.8,14.8-15,14.8
	C529.9,302.1,523.1,295.3,523.2,287C523.2,287,523.2,287,523.2,287z M546,287.2c0-4.5-3.2-8.4-7.8-8.4s-7.7,3.9-7.7,8.4
	s3.2,8.6,7.7,8.6s7.7-4.1,7.7-8.7L546,287.2z"/>
<path class="st0" d="M558,298.3c0-0.2,0-0.3,0.1-0.5l1.8-3.3c0.2-0.4,0.6-0.6,1-0.6h0.6c2.2,1.2,4.7,1.7,7.2,1.7
	c1.7,0,4.1-0.7,4.1-2c0-3.6-14.5-3.1-14.5-13c0-5.5,3.9-8.9,10.8-8.9c3.1,0.1,6.1,0.8,8.9,2c0.3,0.2,0.5,0.5,0.6,0.9
	c0,0.2,0,0.4-0.1,0.6l-1.7,3.9c-0.2,0.4-0.6,0.6-1.1,0.7l-0.6-0.2c-2-0.6-4-0.9-6-1.1c-3.4,0-3.7,1.7-3.7,2c0,3.6,14.5,3.8,14.5,13
	c0,5.4-6.3,8.4-10.7,8.4c-3.8,0.1-7.5-0.9-10.8-2.8C558.2,298.9,558,298.6,558,298.3z"/>
<path class="st0" d="M77.2,328.3c-2.6,0.4-5.9-0.1-8.4,0.2c-0.6,0.1-1.5,0-1.9,0.3c0.4,3.1,2,5.3,5.5,5c1.3-0.4,2.2-1.5,3.2-0.7
	s-0.9,1.9-2.3,2.4s-1.9,0.1-2.7,0s-2.3-0.7-3.3-1c-0.5-0.7-1.1-1.3-1.8-1.8c-0.1-0.4-0.2-0.8-0.3-1.2c-0.3-0.7-0.5-1.4-0.6-2.2
	c-0.1-1.9,0-3.7,0.2-5.6c0.3-0.8,0.4-1.3,0.7-2s1.1-1.1,1.5-1.8l1.8-0.7c1-0.2,2.8,0.3,3.8-0.2c0.6,0.3,1.3,0.5,2,0.7
	c0.9,0.8,1.6,1.6,2.3,2.6c-0.1,0.5,0,1.1,0.3,1.5c-0.1,0.5,0,1.1,0.3,1.5c-0.3,0.8,0.4,2.3-0.4,2.9l0,0L77.2,328.3z M74.7,323.5
	c-0.4-0.7-0.8-1.3-1.4-1.8c-1.3-0.4-2.8-0.4-4.1,0c-0.7,0-1,0.7-1.6,1.1s-1.3,2.7-0.1,3.7s0.3-0.1,0.3,0c0.8,0,1.6-0.2,2.3-0.4
	c0.7,0.4,1.6,0.4,2.3,0c0.9,0.5,2,0.5,2.8-0.1c0.3-0.9,0.2-1.8-0.3-2.6L74.7,323.5L74.7,323.5z"/>
<path class="st0" d="M95.1,335.1c-0.6,0.2-1.3,0.2-1.9,0.2c-0.4-1.3-0.2-2.7,0-4.3s-0.4-3-0.2-4.8c0-1-0.1-2.1-0.4-3.1
	c0-0.1-0.1-0.3-0.1-0.4c-0.7-1-1.7-1.1-2.6-1.7c-1.7,0-3.2,0.8-4.3,2.1c-0.1,0.8-0.6,1.4-0.7,2.4c0.2,1.2,0.2,2.4-0.1,3.5l0.3,1.2
	c-0.2,1.4-0.3,3.2-0.3,4.6c-0.5,0.4-1.1,0.5-1.7,0.4c-0.5-1-0.6-2.1-0.3-3.1c-0.1-0.6-0.1-1.1-0.2-1.7s0.2-2.3,0.2-3.6
	c0.1-0.1,0.1-0.3,0-0.4c0.1-2.2-0.1-3.8,0.2-6c-0.2-0.4-0.1-0.9,0.2-1.2c1.5-0.4,1.2,1.1,2.1,1.5c0.7-0.4,1.4-0.9,2-1.5
	c0.7,0,1.3-0.1,1.9-0.4c0.5,0.3,1-0.1,1.5,0c1.5,0.1,2.9,0.9,3.8,2.1c0,0.5,0.2,0.9,0.5,1.3c-0.2,0.6,0.3,1.1,0.2,1.8
	c0,0.3,0,0.7-0.1,1c0.1,1.2,0.2,2.3,0.2,3.5c-0.1,1.2-0.1,2.4,0.2,3.5c-0.3,1.3,0.4,2.1-0.2,3.1l0,0H95.1z"/>
<path class="st0" d="M118.3,335.4c-0.8,0-0.8-0.9-1.5-1.1c-0.6,0.3-1.2,0.6-1.8,1c-1.4,0.3-2.9,0.3-4.4,0.2
	c-0.7-0.8-1.7-1.2-2.3-1.9s-0.2-2.3-0.7-3.2c0-0.8,0.1-1.6,0.3-2.4c0.3-0.4,0.6-1.1,0.9-1.5c0.2,0,0.3-0.1,0.4-0.3
	c1.4-0.7,2.6-0.7,4.6-1c0.7,0.6,1.6,1.1,2.5,1.4c1.2-0.4,0.1-1.8,0.3-2.9c-0.2-0.7-0.6-1.4-1.1-1.9c-0.7-0.1-1.1-0.4-1.8-0.6
	s-3,0.7-4.1,0.4c-0.4-0.4-0.6-1-0.6-1.6c0.4-0.6,1.5-0.5,2.1-1c1.1-0.1,2.2-0.1,3.3,0c0.8,0.5,1.6,0.8,2.5,0.9
	c1.1,1.6,2.4,3.6,2,6.4c0,0.5,0.2,0.8,0.2,1.3s-0.2,3.2-0.3,4.9c0.2,0.7,0.3,1.3,0.3,2c-0.2,0.5-0.6,0.8-1.1,1l0,0L118.3,335.4z
	 M111.6,327.7l-1.4,1.1c0.2,0.3-0.2,0.3-0.3,0.6s0.3,3.1,1.1,3.4c0.9,0.6,1.9,0.7,2.9,0.4c0.3-0.2,0.7-0.3,1.1-0.3
	c0.9-0.8,2-1,2.2-2.6c-0.5-0.8-1-1.6-1.7-2.3c-1-0.2-1.6-0.5-2.5-0.7l-0.2,0.2h-1.2V327.7z"/>
<path class="st0" d="M135.3,321.1c-0.2,1.5-1.9,0.8-2.7,0.4c-1.1-0.1-2.1,0-3.2,0.1c-0.8,0.4-1.3,1.2-2.1,1.7
	c-0.2,0.8-0.4,1.6-0.8,2.3c-0.2,1.7-0.1,3.5,0.4,5.2c0.4,0.9,1,1.6,1.8,2.1c0.6,0.2,1.2,0.4,1.7,0.7c0.4-0.1,0.8-0.1,1.1,0.1
	c1.1-0.1,2.2-0.7,3.1-0.7c0.2,0.4,0.3,0.9,0.4,1.3c-0.2,1-1.9,1.1-3,1.3h-2.6l-2.5-1.2c-0.9-0.8-1.7-1.8-2.2-2.9
	c-0.1-0.8-0.4-1.6-0.7-2.4c0-1.1,0-2.2,0.1-3.4c0.3-1.1,0.7-2.2,1.1-3.2c0.8-1.1,1.8-2.1,2.9-2.9c0.6,0,1.2-0.2,1.8-0.4
	c1.1-0.1,2.1,0,3.2,0.1c0.7,0.6,1.9,0.5,2,1.7l0,0L135.3,321.1z"/>
<path class="st0" d="M149.9,321.1c-0.2,1.5-1.9,0.8-2.7,0.4c-1.1-0.1-2.1,0-3.2,0.1c-0.8,0.4-1.3,1.2-2.1,1.7
	c-0.2,0.8-0.4,1.6-0.8,2.3c-0.2,1.7-0.1,3.5,0.4,5.2c0.4,0.9,1,1.6,1.8,2.1c0.6,0.2,1.2,0.4,1.7,0.7c0.4-0.1,0.8-0.1,1.1,0.1
	c1.1-0.1,2.2-0.7,3.1-0.7c0.2,0.4,0.3,0.9,0.4,1.3c-0.2,1-1.9,1.1-3,1.3H144l-2.5-1.2c-0.9-0.8-1.7-1.8-2.2-2.9
	c-0.1-0.8-0.4-1.6-0.7-2.4c0-1.1,0-2.2,0.1-3.4c0.3-1.1,0.7-2.2,1.1-3.2c0.8-1.1,1.8-2.1,2.9-2.9c0.6,0,1.2-0.2,1.8-0.4
	c1.1-0.1,2.1,0,3.2,0.1c0.7,0.6,1.9,0.5,2,1.7l0,0L149.9,321.1z"/>
<path class="st0" d="M157.6,315c0.2,0.8-0.2,1.7-0.9,2.1c-1.5,0.2-2.5-0.3-2.4-1.9c0.1-0.1,0.2-0.2,0.2-0.4c0.8-0.8,2.1-0.7,2.8,0
	c0.1,0.1,0.2,0.2,0.3,0.4l0,0L157.6,315z M156.5,335.5c-0.6,0-1.2-0.1-1.7-0.3c-0.1-2.8-0.1-5.1-0.4-8.2c0.3-0.7,0.4-1.4,0.5-2.2
	c-0.2-0.9-0.2-1.9-0.2-2.8c0-0.8-0.3-1.7,0.3-2.4s0.8-0.5,1.1-0.2s0.8,1.9,0.9,2.9c-0.1,2.6,0,5.2,0.3,7.8c-0.2,0.9-0.2,1.9-0.2,2.8
	C157.1,334,157.2,334.9,156.5,335.5L156.5,335.5L156.5,335.5z"/>
<path class="st0" d="M175.1,315.7c0,1,0.1,2.4,0.2,3.3c0,1.3-0.1,2.7-0.3,4c0.1,1.1,0.2,2.1,0.2,3.2c-0.1,1.1,0,2.1-0.1,3.2
	s0.1,1.3,0.1,1.9s-0.1,1.2-0.1,1.9s0.5,1.7-0.5,2.5s-1.2-0.9-1.6-1.8c-0.6,0.1-1.2,0.4-1.7,0.8c-0.1,0.5-1,0.5-1.3,0.9
	c-1.4,0.2-2.8,0.1-4.1-0.2c-0.7-0.3-1.4-0.7-2.1-1.2c-0.2-0.3-0.5-0.7-0.8-0.9c-1-1.6-1.1-4.2-1.3-6.6c0.3-0.9,0.5-1.8,0.5-2.8
	c0.7-1.5,1.1-2.8,2.4-3.9c0.5-0.2,1.1-0.4,1.5-0.8c0.5,0.1,1,0,1.5-0.2l2.9,0.4c0.7,0.3,1.1,1.3,2.2,0.9s0-1.2,0.1-2
	s0.3-4.3,0.5-5.3c0.3-0.5,0.9-0.8,1.5-0.5c0,0,0,0,0,0C175.5,313.6,174.9,314.5,175.1,315.7z M166,321.9c-0.7,0.7-1.3,1.6-1.7,2.6
	c0.3,1.6-0.4,2.6-0.2,4c0.3,0.9,0.5,1.8,0.5,2.8c0.5,0.4,0.7,1.1,1,1.5s1,0.6,1.7,0.7c1.5,0.1,3-0.3,4.3-1.1
	c0.7-1.2,1.2-2.5,1.5-3.9c-0.3-1.1,0-2.3-0.3-3.5c-0.1-0.7-0.4-1.4-0.8-2c-0.7-0.8-1.7-1.3-2.8-1.5c-0.6-0.2-1.1,0.2-1.7-0.1
	s-0.1,0-0.1,0.2s-0.7,0.4-1.3,0.4l0,0L166,321.9z"/>
<path class="st0" d="M192.8,328.3c-2.6,0.4-5.9-0.1-8.4,0.2c-0.6,0.1-1.5,0-1.9,0.3c0.4,3.1,2,5.3,5.5,5c1.3-0.4,2.2-1.5,3.2-0.7
	s-0.9,1.9-2.3,2.4s-1.9,0.1-2.7,0s-2.3-0.7-3.3-1c-0.5-0.7-1.1-1.3-1.8-1.8c-0.1-0.4-0.2-0.8-0.3-1.2c-0.3-0.7-0.5-1.4-0.6-2.2
	c-0.1-1.9,0-3.7,0.2-5.6c0.3-0.8,0.4-1.3,0.7-2s1.1-1.1,1.5-1.8l1.8-0.7c1-0.2,2.8,0.3,3.8-0.2c0.6,0.3,1.3,0.5,2,0.7
	c0.9,0.8,1.6,1.6,2.3,2.6c-0.1,0.5,0,1.1,0.3,1.5c-0.1,0.5,0,1.1,0.3,1.5c-0.3,0.8,0.4,2.3-0.4,2.9l0,0L192.8,328.3z M190.3,323.5
	c-0.4-0.7-0.8-1.3-1.4-1.8c-1.3-0.4-2.8-0.4-4.1,0c-0.7,0-1,0.7-1.6,1.1s-1.3,2.7-0.1,3.7s0.3-0.1,0.3,0c0.8,0,1.6-0.2,2.3-0.4
	c0.7,0.4,1.6,0.4,2.3,0c0.9,0.5,2,0.5,2.8-0.1c0.3-0.9,0.2-1.8-0.3-2.6L190.3,323.5L190.3,323.5z"/>
<path class="st0" d="M210.7,335.1c-0.6,0.2-1.3,0.2-1.9,0.2c-0.4-1.3-0.2-2.7,0-4.3s-0.4-3-0.2-4.8c0-1-0.1-2.1-0.4-3.1
	c0-0.1-0.1-0.3-0.1-0.4c-0.7-1-1.7-1.1-2.6-1.7c-1.7,0-3.2,0.8-4.3,2.1c-0.1,0.8-0.6,1.4-0.7,2.4c0.2,1.2,0.2,2.4-0.1,3.5l0.3,1.2
	c-0.2,1.4-0.3,3.2-0.3,4.6c-0.5,0.4-1.1,0.5-1.7,0.4c-0.5-1-0.6-2.1-0.3-3.1c-0.1-0.6-0.1-1.1-0.2-1.7s0.2-2.3,0.2-3.6
	c0.1-0.1,0.1-0.3,0-0.4c0.1-2.2-0.1-3.8,0.2-6c-0.2-0.4-0.1-0.9,0.2-1.2c1.5-0.4,1.2,1.1,2.1,1.5c0.7-0.4,1.4-0.9,2-1.5
	c0.7,0,1.3-0.1,1.9-0.4c0.5,0.3,1-0.1,1.5,0c1.5,0.1,2.9,0.9,3.8,2.1c0,0.5,0.2,0.9,0.5,1.3c-0.2,0.6,0.3,1.1,0.2,1.8
	c0,0.3,0,0.7-0.1,1c0.1,1.2,0.2,2.3,0.2,3.5c-0.1,1.2-0.1,2.4,0.2,3.5c-0.3,1.3,0.4,2.1-0.2,3.1l0,0H210.7z"/>
<path class="st0" d="M220.2,313c0.2,2.2-0.9,4.6,0.5,6.3c0.8-0.2,1.5-0.2,2.3-0.1c0.5,0.6,0.7,1.5,0.3,2.2c-0.8,0.2-2.1-0.4-2.9,0.2
	c-0.1,0.2-0.2,0.4-0.4,0.6c0.2,1.4-0.1,3,0.4,4.3s-0.1,2.2-0.4,3.2c0.2,1,0.3,1.9,0.3,2.9l1.1,0.8c1.2,0.4,2.7,0.1,2.3,1.8
	s-1.6,0.4-2.5,0.4c-0.6-0.3-1.2-0.5-1.8-0.6c-0.5-0.5-0.9-1.1-1.3-1.7c0-0.8-0.1-1.6-0.3-2.4c-0.3-2.6,0.1-5.8-0.3-9.2
	c-0.4-0.5-1.5-0.5-2.6-0.6c-0.3-0.7-0.3-1.5,0.1-2.1c0.9-0.1,2.6,0.1,2.9-0.9c0-0.5-0.1-1-0.2-1.5c0.1-1.9-0.2-3.2,0.4-4.3
	c0.7-0.2,1.4-0.1,1.9,0.4l0,0L220.2,313z"/>
<path class="st0" d="M240.2,328.3c-2.6,0.4-5.9-0.1-8.4,0.2c-0.6,0.1-1.5,0-1.9,0.3c0.4,3.1,2,5.3,5.5,5c1.3-0.4,2.2-1.5,3.2-0.7
	s-0.9,1.9-2.3,2.4s-1.9,0.1-2.7,0s-2.3-0.7-3.3-1c-0.5-0.7-1.1-1.3-1.8-1.8c-0.1-0.4-0.2-0.8-0.3-1.2c-0.3-0.7-0.5-1.4-0.6-2.2
	c-0.1-1.9,0-3.7,0.2-5.6c0.3-0.8,0.4-1.3,0.7-2s1.1-1.1,1.5-1.8l1.8-0.7c1-0.2,2.8,0.3,3.8-0.2c0.6,0.3,1.3,0.5,2,0.7
	c0.9,0.8,1.6,1.6,2.3,2.6c-0.1,0.5,0,1.1,0.3,1.5c-0.1,0.5,0,1.1,0.3,1.5c-0.3,0.8,0.4,2.3-0.4,2.9l0,0L240.2,328.3z M237.7,323.5
	c-0.4-0.7-0.8-1.3-1.4-1.8c-1.3-0.4-2.8-0.4-4.1,0c-0.7,0-1,0.7-1.6,1.1s-1.3,2.7-0.1,3.7s0.3-0.1,0.3,0c0.8,0,1.6-0.2,2.3-0.4
	c0.7,0.4,1.6,0.4,2.3,0c0.9,0.5,2,0.5,2.8-0.1c0.3-0.9,0.2-1.8-0.3-2.6L237.7,323.5L237.7,323.5z"/>
<path class="st0" d="M250.1,321.3c-1-0.1-2.1,0.3-2.9,0.9c-0.1,0.5-0.2,1-0.3,1.5c0.3,0.9,1,1.5,1.8,1.9c0.8,0.4,1.6,0.8,2.5,1.1
	c0.5,0.6,1.2,0.9,2,1.1c0.2,0.5,0.5,0.9,0.9,1.3c0.3,0.5,0.4,0.9,0.7,1.4c0.3,1.1,0,2.4-0.7,3.3c-0.4,0.5-0.8,0.9-1.3,1.2
	c-0.7,0.4-2,0.4-2.9,0.7s-4.5-0.1-5.3-1.8s0.5-0.7,0.7-1.1s3.7,1.3,5.7,0.8c0.8-0.4,1.3-1.2,1.5-2.1c0-1.5-1.4-2.1-2.3-2.8
	c-0.8-0.4-1.6-0.7-2.4-0.9c-0.9-0.5-1.8-1.1-2.5-1.9c-0.3-0.6-0.6-1.3-0.8-2c0-1,0.3-1.5,0.2-2.6l1.2-1.5l1.8-0.7
	c1.3-0.1,2.5-0.1,3.8,0.1c0.3,0.3,1.3,0,1.5,0.7S251.3,321.5,250.1,321.3z"/>
<path class="st0" d="M279.6,315.7c0,1,0.1,2.4,0.2,3.3c0,1.3-0.1,2.7-0.3,4c0.1,1.1,0.2,2.1,0.2,3.2c-0.1,1.1,0,2.1-0.1,3.2
	s0.1,1.3,0.1,1.9s-0.1,1.2-0.1,1.9s0.5,1.7-0.5,2.5s-1.2-0.9-1.6-1.8c-0.6,0.1-1.2,0.4-1.7,0.8c-0.1,0.5-1,0.5-1.3,0.9
	c-1.4,0.2-2.8,0.1-4.1-0.2c-0.7-0.3-1.4-0.7-2.1-1.2c-0.2-0.3-0.5-0.7-0.8-0.9c-1-1.6-1.1-4.2-1.3-6.6c0.3-0.9,0.5-1.8,0.5-2.8
	c0.7-1.5,1.1-2.8,2.4-3.9c0.5-0.2,1.1-0.4,1.5-0.8c0.5,0.1,1,0,1.5-0.2l2.9,0.4c0.7,0.3,1.1,1.3,2.2,0.9s0-1.2,0.1-2
	s0.3-4.3,0.5-5.3c0.3-0.5,0.9-0.8,1.5-0.5c0,0,0,0,0,0C280,313.6,279.5,314.5,279.6,315.7z M270.5,321.9c-0.7,0.7-1.3,1.6-1.7,2.6
	c0.3,1.6-0.4,2.6-0.2,4c0.3,0.9,0.5,1.8,0.5,2.8c0.5,0.4,0.7,1.1,1,1.5s1,0.6,1.7,0.7c1.5,0.1,3-0.3,4.3-1.1
	c0.7-1.2,1.2-2.5,1.5-3.9c-0.3-1.1,0-2.3-0.3-3.5c-0.1-0.7-0.4-1.4-0.8-2c-0.7-0.8-1.7-1.3-2.8-1.5c-0.6-0.2-1.1,0.2-1.7-0.1
	s-0.1,0-0.1,0.2s-0.7,0.4-1.3,0.4l0,0L270.5,321.9z"/>
<path class="st0" d="M297.4,328.3c-2.6,0.4-5.9-0.1-8.4,0.2c-0.6,0.1-1.5,0-1.9,0.3c0.4,3.1,2,5.3,5.5,5c1.3-0.4,2.2-1.5,3.2-0.7
	s-0.9,1.9-2.3,2.4s-1.9,0.1-2.7,0s-2.3-0.7-3.3-1c-0.5-0.7-1.1-1.3-1.8-1.8c-0.1-0.4-0.2-0.8-0.3-1.2c-0.3-0.7-0.5-1.4-0.6-2.2
	c-0.1-1.9,0-3.7,0.2-5.6c0.3-0.8,0.4-1.3,0.7-2s1.1-1.1,1.5-1.8l1.8-0.7c1-0.2,2.8,0.3,3.8-0.2c0.6,0.3,1.3,0.5,2,0.7
	c0.9,0.8,1.6,1.6,2.3,2.6c-0.1,0.5,0,1.1,0.3,1.5c-0.1,0.5,0,1.1,0.3,1.5c-0.3,0.8,0.4,2.3-0.4,2.9l0,0L297.4,328.3z M294.9,323.5
	c-0.4-0.7-0.8-1.3-1.4-1.8c-1.3-0.4-2.8-0.4-4.1,0c-0.7,0-1,0.7-1.6,1.1s-1.3,2.7-0.1,3.7s0.3-0.1,0.3,0c0.8,0,1.6-0.2,2.3-0.4
	c0.7,0.4,1.6,0.4,2.3,0c0.9,0.5,2,0.5,2.8-0.1c0.3-0.9,0.2-1.8-0.3-2.6L294.9,323.5L294.9,323.5z"/>
<path class="st0" d="M314.3,313c0.2,2.2-0.9,4.6,0.5,6.3c0.8-0.2,1.5-0.2,2.3-0.1c0.5,0.6,0.7,1.5,0.3,2.2c-0.8,0.2-2.1-0.4-2.9,0.2
	c-0.1,0.2-0.2,0.4-0.4,0.6c0.2,1.4-0.1,3,0.4,4.3s-0.1,2.2-0.4,3.2c0.2,1,0.3,1.9,0.3,2.9l1.1,0.8c1.2,0.4,2.7,0.1,2.3,1.8
	s-1.6,0.4-2.5,0.4c-0.6-0.3-1.2-0.5-1.8-0.6c-0.5-0.5-0.9-1.1-1.3-1.7c0-0.8-0.1-1.6-0.3-2.4c-0.3-2.6,0.1-5.8-0.3-9.2
	c-0.4-0.5-1.5-0.5-2.6-0.6c-0.3-0.7-0.3-1.5,0.1-2.1c0.9-0.1,2.6,0.1,2.9-0.9c0-0.5-0.1-1-0.2-1.5c0.1-1.9-0.2-3.2,0.4-4.3
	c0.7-0.2,1.4-0.1,1.9,0.4l0,0L314.3,313z"/>
<path class="st0" d="M329.5,319.1c0.5,0.6,0.7,1.4,0.4,2.1c-0.9,0.3-2.2,0.4-2.9,0.5s-1.2,2-1.8,3c0.2,3.7,0,7.3-0.4,11l-1.6-0.3
	c-0.6-0.9-0.1-1.5-0.1-2.5s-0.2-1-0.2-1.5s0.1-0.8,0.1-1.1s-0.2-3.7-0.1-5.9c0.2-0.9,0.2-1.9-0.1-2.8c0.3-0.9,0-1.8,0.8-2.2
	c0.4,0,0.8,0.1,1.1,0.4c0.3,0.2,0.2,0.8,0.7,0.8s1.3-0.8,2.2-1.1s1.3,0,1.6-0.3h0.3V319.1z"/>
<path class="st0" d="M343.3,335.4c-0.8,0-0.8-0.9-1.5-1.1c-0.6,0.3-1.2,0.6-1.8,1c-1.4,0.3-2.9,0.3-4.4,0.2
	c-0.7-0.8-1.7-1.2-2.3-1.9s-0.2-2.3-0.7-3.2c0-0.8,0.1-1.6,0.3-2.4c0.3-0.4,0.6-1.1,0.9-1.5c0.2,0,0.3-0.1,0.4-0.3
	c1.4-0.7,2.6-0.7,4.6-1c0.7,0.6,1.6,1.1,2.5,1.4c1.2-0.4,0.1-1.8,0.3-2.9c-0.2-0.7-0.6-1.4-1.1-1.9c-0.7-0.1-1.1-0.4-1.8-0.6
	s-3,0.7-4.1,0.4c-0.4-0.4-0.6-1-0.6-1.6c0.4-0.6,1.5-0.5,2.1-1c1.1-0.1,2.2-0.1,3.3,0c0.8,0.5,1.6,0.8,2.5,0.9
	c1.1,1.6,2.4,3.6,2,6.4c0,0.5,0.2,0.8,0.2,1.3s-0.2,3.2-0.3,4.9c0.2,0.7,0.3,1.3,0.3,2c-0.2,0.5-0.6,0.8-1.1,1l0,0L343.3,335.4z
	 M336.6,327.7l-1.4,1.1c0.2,0.3-0.2,0.3-0.3,0.6s0.3,3.1,1.1,3.4c0.9,0.6,1.9,0.7,2.9,0.4c0.3-0.2,0.7-0.3,1.1-0.3
	c0.9-0.8,2-1,2.2-2.6c-0.5-0.8-1-1.6-1.7-2.3c-1-0.2-1.6-0.5-2.5-0.7l-0.2,0.2h-1.2V327.7z M342.8,311.2c0,1.3-1.2,1.6-1.5,2.7
	s-0.9,1.8-1.7,2.2c-0.5,0-0.9-0.2-1.2-0.6c0.6-1.5,1.3-2.8,2-4.4S342.2,311.1,342.8,311.2L342.8,311.2L342.8,311.2z"/>
<path class="st0" d="M363.1,335.1c-0.6,0.2-1.3,0.2-1.9,0.2c-0.4-1.3-0.2-2.7,0-4.3s-0.4-3-0.2-4.8c0-1-0.1-2.1-0.4-3.1
	c0-0.1-0.1-0.3-0.1-0.4c-0.7-1-1.7-1.1-2.6-1.7c-1.7,0-3.2,0.8-4.3,2.1c-0.1,0.8-0.6,1.4-0.7,2.4c0.2,1.2,0.2,2.4-0.1,3.5l0.3,1.2
	c-0.2,1.4-0.3,3.2-0.3,4.6c-0.5,0.4-1.1,0.5-1.7,0.4c-0.5-1-0.6-2.1-0.3-3.1c-0.1-0.6-0.1-1.1-0.2-1.7s0.2-2.3,0.2-3.6
	c0.1-0.1,0.1-0.3,0-0.4c0.1-2.2-0.1-3.8,0.2-6c-0.2-0.4-0.1-0.9,0.2-1.2c1.5-0.4,1.2,1.1,2.1,1.5c0.7-0.4,1.4-0.9,2-1.5
	c0.7,0,1.3-0.1,1.9-0.4c0.5,0.3,1-0.1,1.5,0c1.5,0.1,2.9,0.9,3.8,2.1c0,0.5,0.2,0.9,0.5,1.3c-0.2,0.6,0.3,1.1,0.2,1.8
	c0,0.3,0,0.7-0.1,1c0.1,1.2,0.2,2.3,0.2,3.5c-0.1,1.2-0.1,2.4,0.2,3.5c-0.3,1.3,0.4,2.1-0.2,3.1l0,0H363.1z"/>
<path class="st0" d="M373.7,321.3c-1-0.1-2.1,0.3-2.9,0.9c-0.1,0.5-0.2,1-0.3,1.5c0.3,0.9,1,1.5,1.8,1.9c0.8,0.4,1.6,0.8,2.5,1.1
	c0.5,0.6,1.2,0.9,2,1.1c0.2,0.5,0.5,0.9,0.9,1.3c0.3,0.5,0.4,0.9,0.7,1.4c0.3,1.1,0,2.4-0.7,3.3c-0.4,0.5-0.8,0.9-1.3,1.2
	c-0.7,0.4-2,0.4-2.9,0.7s-4.5-0.1-5.3-1.8s0.5-0.7,0.7-1.1s3.7,1.3,5.7,0.8c0.8-0.4,1.3-1.2,1.5-2.1c0-1.5-1.4-2.1-2.3-2.8
	c-0.8-0.4-1.6-0.7-2.4-0.9c-0.9-0.5-1.8-1.1-2.5-1.9c-0.3-0.6-0.6-1.3-0.8-2c0-1,0.3-1.5,0.2-2.6l1.2-1.5l1.8-0.7
	c1.3-0.1,2.5-0.1,3.8,0.1c0.3,0.3,1.3,0,1.5,0.7S374.9,321.5,373.7,321.3z"/>
<path class="st0" d="M386.4,315c0.2,0.8-0.2,1.7-0.9,2.1c-1.5,0.2-2.5-0.3-2.4-1.9c0.1-0.1,0.2-0.2,0.2-0.4c0.8-0.8,2.1-0.7,2.8,0
	c0.1,0.1,0.2,0.2,0.3,0.4l0,0L386.4,315z M385.3,335.5c-0.6,0-1.2-0.1-1.7-0.3c-0.1-2.8-0.1-5.1-0.4-8.2c0.3-0.7,0.4-1.4,0.5-2.2
	c-0.2-0.9-0.2-1.9-0.2-2.8c0-0.8-0.3-1.7,0.3-2.4s0.8-0.5,1.1-0.2s0.8,1.9,0.9,2.9c-0.1,2.6,0,5.2,0.3,7.8c-0.2,0.9-0.2,1.9-0.2,2.8
	c0,1.1,0.1,2-0.7,2.6L385.3,335.5L385.3,335.5z"/>
<path class="st0" d="M395.7,313c0.2,2.2-0.9,4.6,0.5,6.3c0.8-0.2,1.5-0.2,2.3-0.1c0.5,0.6,0.7,1.5,0.3,2.2c-0.8,0.2-2.1-0.4-2.9,0.2
	c-0.1,0.2-0.2,0.4-0.4,0.6c0.2,1.4-0.1,3,0.4,4.3s-0.1,2.2-0.4,3.2c0.2,1,0.3,1.9,0.3,2.9l1.1,0.8c1.2,0.4,2.7,0.1,2.3,1.8
	s-1.6,0.4-2.5,0.4c-0.6-0.3-1.2-0.5-1.8-0.6c-0.5-0.5-0.9-1.1-1.3-1.7c0-0.8-0.1-1.6-0.3-2.4c-0.3-2.6,0.1-5.8-0.3-9.2
	c-0.4-0.5-1.5-0.5-2.6-0.6c-0.3-0.7-0.3-1.5,0.1-2.1c0.9-0.1,2.6,0.1,2.9-0.9c0-0.5-0.1-1-0.2-1.5c0.1-1.9-0.2-3.2,0.4-4.3
	c0.7-0.2,1.4-0.1,1.9,0.4l0,0L395.7,313z"/>
<path class="st0" d="M409.5,319.1l0.2-0.2c1.1,0.1,1.6,0.7,2.8,0.5s2.4,2.4,3.2,3.4s0.2,2,0.9,2.8c-0.2,0.6-0.1,1.2,0.2,1.8
	c-0.1,0.4-0.1,0.8,0,1.2c0,1-0.7,1.7-0.7,2.8c-0.5,0.6-1,1.3-1.3,2.1c-0.7,0.7-1.6,1.3-2.5,1.7c-1.5,0.5-3.1,0.5-4.6,0.1
	c-0.9-0.4-1.7-0.9-2.6-1.4c-0.1-0.5-0.5-1-0.9-1.3c-0.1-0.9-0.7-1.3-0.8-2.1s-0.2-1.4-0.4-2.1s0.4-3,0.3-4.5
	c0.6-0.6,1.1-1.3,1.3-2.1c0.5-0.4,0.9-0.9,1.2-1.5c1.2-0.5,2.5-0.9,3.8-1.2l0,0L409.5,319.1z M407.9,321.7c-0.6,0.5-1.2,1-1.7,1.5
	c-0.9,1.8-0.9,3.8-0.8,6.4c0.4,1.3,1.1,2.5,2.1,3.4c1.1,0.5,2.3,0.7,3.5,0.7c0.6-0.4,1.2-0.8,1.8-1.1l0.5-0.8l0.3-0.2
	c0.1-0.2,0-0.5,0.1-0.9l0.4-0.5c0.1-0.8,0.2-1.7,0.4-2.5c-0.2-0.8-0.1-1.8-0.3-2.7c-0.4-0.7-0.7-1.5-1-2.3c-0.8-0.5-1.6-0.9-2.5-1.3
	c-0.5,0-1,0-1.5,0.1c-0.5,0-0.9,0.1-1.4,0.2l0,0L407.9,321.7z"/>
<path class="st0" d="M432,312.6c-0.1,1.5-0.1,2.9,0,4.4c0,0.4,0,0.7,0.1,1.1c0.1,0.8-0.2,2.1,0.2,2.7s1.3-0.9,2.1-1.3
	c0.4,0,0.8-0.1,1.1-0.3c1.4-0.2,2.6,0.2,4.1,0.2c0.9,0.7,1.6,1.5,2.2,2.4c0.1,0.7,0.2,1.3,0.5,1.9c0.4,3.8,0.4,7.6,0,11.4
	c-0.8,0.9-1.5,0.2-2.1-0.1s0-3-0.1-4.4c0-0.2,0.1-0.5,0.2-0.7c0-1.8-0.5-3.5-0.2-5.4c-0.1-0.6-0.2-1.1-0.4-1.7
	c-0.6-0.7-1.5-1.2-2.4-1.4l-2.2,0.3c-0.8,0-0.9,0.8-1.7,0.9c-0.3,0.7-0.6,1.3-1,1.9c-0.9,3.9,0,7.3-0.4,10.7c-0.7,0.2-1.4,0.2-2.1,0
	c-0.1-2.3-0.1-4.5,0-6.8c-0.1-0.7-0.2-1.5-0.2-2.2c0-1.9,0.4-4.1,0.1-5.5s0.2-2.8-0.3-3.7s0.3-3.4,0.2-4.4
	C430.4,312.3,431.3,312.3,432,312.6L432,312.6L432,312.6z"/>
<path class="st0" d="M457.5,335.4c-0.8,0-0.8-0.9-1.5-1.1c-0.6,0.3-1.2,0.6-1.8,1c-1.4,0.3-2.9,0.3-4.4,0.2
	c-0.7-0.8-1.7-1.2-2.3-1.9s-0.2-2.3-0.7-3.2c0-0.8,0.1-1.6,0.3-2.4c0.3-0.4,0.6-1.1,0.9-1.5c0.2,0,0.3-0.1,0.4-0.3
	c1.4-0.7,2.6-0.7,4.6-1c0.7,0.6,1.6,1.1,2.5,1.4c1.2-0.4,0.1-1.8,0.3-2.9c-0.2-0.7-0.6-1.4-1.1-1.9c-0.7-0.1-1.1-0.4-1.8-0.6
	s-3,0.7-4.1,0.4c-0.4-0.4-0.6-1-0.6-1.6c0.4-0.6,1.5-0.5,2.1-1c1.1-0.1,2.2-0.1,3.3,0c0.8,0.5,1.6,0.8,2.5,0.9
	c1.1,1.6,2.4,3.6,2,6.4c0,0.5,0.2,0.8,0.2,1.3s-0.2,3.2-0.3,4.9c0.2,0.7,0.3,1.3,0.3,2c-0.2,0.5-0.6,0.8-1.1,1l0,0L457.5,335.4z
	 M450.8,327.7l-1.4,1.1c0.2,0.3-0.2,0.3-0.3,0.6s0.3,3.1,1.1,3.4c0.9,0.6,1.9,0.7,2.9,0.4c0.3-0.2,0.7-0.3,1.1-0.3
	c0.9-0.8,2-1,2.2-2.6c-0.5-0.8-1-1.6-1.7-2.3c-1-0.2-1.6-0.5-2.5-0.7l-0.2,0.2h-1.2V327.7z"/>
<path class="st0" d="M476.5,313c0.2,2.2-0.9,4.6,0.5,6.3c0.8-0.2,1.5-0.2,2.3-0.1c0.5,0.6,0.7,1.5,0.3,2.2c-0.8,0.2-2.1-0.4-2.9,0.2
	c-0.1,0.2-0.2,0.4-0.4,0.6c0.2,1.4-0.1,3,0.4,4.3s-0.1,2.2-0.4,3.2c0.2,1,0.3,1.9,0.3,2.9l1.1,0.8c1.2,0.4,2.7,0.1,2.3,1.8
	s-1.6,0.4-2.5,0.4c-0.6-0.3-1.2-0.5-1.8-0.6c-0.5-0.5-0.9-1.1-1.3-1.7c0-0.8-0.1-1.6-0.3-2.4c-0.3-2.6,0.1-5.8-0.3-9.2
	c-0.4-0.5-1.5-0.5-2.6-0.6c-0.3-0.7-0.3-1.5,0.1-2.1c0.9-0.1,2.6,0.1,2.9-0.9c0-0.5-0.1-1-0.2-1.5c0.1-1.9-0.2-3.2,0.4-4.3
	c0.7-0.2,1.4-0.1,1.9,0.4l0,0L476.5,313z"/>
<path class="st0" d="M496.5,328.3c-2.6,0.4-5.9-0.1-8.4,0.2c-0.6,0.1-1.5,0-1.9,0.3c0.4,3.1,2,5.3,5.5,5c1.3-0.4,2.2-1.5,3.2-0.7
	s-0.9,1.9-2.3,2.4s-1.9,0.1-2.7,0s-2.3-0.7-3.3-1c-0.5-0.7-1.1-1.3-1.8-1.8c-0.1-0.4-0.2-0.8-0.3-1.2c-0.3-0.7-0.5-1.4-0.6-2.2
	c-0.1-1.9,0-3.7,0.2-5.6c0.3-0.8,0.4-1.3,0.7-2s1.1-1.1,1.5-1.8l1.8-0.7c1-0.2,2.8,0.3,3.8-0.2c0.6,0.3,1.3,0.5,2,0.7
	c0.9,0.8,1.6,1.6,2.3,2.6c-0.1,0.5,0,1.1,0.3,1.5c-0.1,0.5,0,1.1,0.3,1.5c-0.3,0.8,0.4,2.3-0.4,2.9l0,0L496.5,328.3z M494,323.5
	c-0.4-0.7-0.8-1.3-1.4-1.8c-1.3-0.4-2.8-0.4-4.1,0c-0.7,0-1,0.7-1.6,1.1s-1.3,2.7-0.1,3.7s0.3-0.1,0.3,0c0.8,0,1.6-0.2,2.3-0.4
	c0.7,0.4,1.6,0.4,2.3,0c0.9,0.5,2,0.5,2.8-0.1c0.3-0.9,0.2-1.8-0.3-2.6L494,323.5L494,323.5z"/>
<path class="st0" d="M514.3,335.1c-0.6,0.2-1.3,0.2-1.9,0.2c-0.4-1.3-0.2-2.7,0-4.3s-0.4-3-0.2-4.8c0-1-0.1-2.1-0.4-3.1
	c0-0.1-0.1-0.3-0.1-0.4c-0.7-1-1.7-1.1-2.6-1.7c-1.7,0-3.2,0.8-4.3,2.1c-0.1,0.8-0.6,1.4-0.7,2.4c0.2,1.2,0.2,2.4-0.1,3.5l0.3,1.2
	c-0.2,1.4-0.3,3.2-0.3,4.6c-0.5,0.4-1.1,0.5-1.7,0.4c-0.5-1-0.6-2.1-0.3-3.1c-0.1-0.6-0.1-1.1-0.2-1.7s0.2-2.3,0.2-3.6
	c0.1-0.1,0.1-0.3,0-0.4c0.1-2.2-0.1-3.8,0.2-6c-0.2-0.4-0.1-0.9,0.2-1.2c1.5-0.4,1.2,1.1,2.1,1.5c0.7-0.4,1.4-0.9,2-1.5
	c0.7,0,1.3-0.1,1.9-0.4c0.5,0.3,1-0.1,1.5,0c1.5,0.1,2.9,0.9,3.8,2.1c0,0.5,0.2,0.9,0.5,1.3c-0.2,0.6,0.3,1.1,0.2,1.8
	c0,0.3,0,0.7-0.1,1c0.1,1.2,0.2,2.3,0.2,3.5c-0.1,1.2-0.1,2.4,0.2,3.5c-0.3,1.3,0.4,2.1-0.2,3.1l0,0H514.3z"/>
<path class="st0" d="M523.2,315c0.2,0.8-0.2,1.7-0.9,2.1c-1.5,0.2-2.5-0.3-2.4-1.9c0.1-0.1,0.2-0.2,0.2-0.4c0.8-0.8,2.1-0.7,2.8,0
	c0.1,0.1,0.2,0.2,0.3,0.4l0,0L523.2,315z M522.1,335.5c-0.6,0-1.2-0.1-1.7-0.3c-0.1-2.8-0.1-5.1-0.4-8.2c0.3-0.7,0.4-1.4,0.5-2.2
	c-0.2-0.9-0.2-1.9-0.2-2.8c0-0.8-0.3-1.7,0.3-2.4s0.8-0.5,1.1-0.2s0.8,1.9,0.9,2.9c-0.1,2.6,0,5.2,0.3,7.8c-0.2,0.9-0.2,1.9-0.2,2.8
	c0,1.1,0.1,2-0.7,2.6L522.1,335.5L522.1,335.5z"/>
<path class="st0" d="M540.6,315.7c0,1,0.1,2.4,0.2,3.3c0,1.3-0.1,2.7-0.3,4c0.1,1.1,0.2,2.1,0.2,3.2c-0.1,1.1,0,2.1-0.1,3.2
	s0.1,1.3,0.1,1.9s-0.1,1.2-0.1,1.9s0.5,1.7-0.5,2.5s-1.2-0.9-1.6-1.8c-0.6,0.1-1.2,0.4-1.7,0.8c-0.1,0.5-1,0.5-1.3,0.9
	c-1.4,0.2-2.8,0.1-4.1-0.2c-0.7-0.3-1.4-0.7-2.1-1.2c-0.2-0.3-0.5-0.7-0.8-0.9c-1-1.6-1.1-4.2-1.3-6.6c0.3-0.9,0.5-1.8,0.5-2.8
	c0.7-1.5,1.1-2.8,2.4-3.9c0.5-0.2,1.1-0.4,1.5-0.8c0.5,0.1,1,0,1.5-0.2l2.9,0.4c0.7,0.3,1.1,1.3,2.2,0.9s0-1.2,0.1-2
	s0.3-4.3,0.5-5.3c0.3-0.5,0.9-0.8,1.5-0.5c0,0,0,0,0,0C541,313.6,540.5,314.5,540.6,315.7z M531.5,321.9c-0.7,0.7-1.3,1.6-1.7,2.6
	c0.3,1.6-0.4,2.6-0.2,4c0.3,0.9,0.5,1.8,0.5,2.8c0.5,0.4,0.7,1.1,1,1.5s1,0.6,1.7,0.7c1.5,0.1,3-0.3,4.3-1.1
	c0.7-1.2,1.2-2.5,1.5-3.9c-0.3-1.1,0-2.3-0.3-3.5c-0.1-0.7-0.4-1.4-0.8-2c-0.7-0.8-1.7-1.3-2.8-1.5c-0.6-0.2-1.1,0.2-1.7-0.1
	s-0.1,0-0.1,0.2s-0.7,0.4-1.3,0.4l0,0L531.5,321.9z"/>
<path class="st0" d="M552.1,319.1l0.2-0.2c1.1,0.1,1.6,0.7,2.8,0.5s2.4,2.4,3.2,3.4s0.2,2,0.9,2.8c-0.2,0.6-0.1,1.2,0.2,1.8
	c-0.1,0.4-0.1,0.8,0,1.2c0,1-0.7,1.7-0.7,2.8c-0.5,0.6-1,1.3-1.3,2.1c-0.7,0.7-1.6,1.3-2.5,1.7c-1.5,0.5-3.1,0.5-4.6,0.1
	c-0.9-0.4-1.7-0.9-2.6-1.4c-0.1-0.5-0.5-1-0.9-1.3c-0.1-0.9-0.7-1.3-0.8-2.1s-0.2-1.4-0.4-2.1s0.4-3,0.3-4.5
	c0.6-0.6,1.1-1.3,1.3-2.1c0.5-0.4,0.9-0.9,1.2-1.5c1.2-0.5,2.5-0.9,3.8-1.2l0,0L552.1,319.1z M550.5,321.7c-0.6,0.5-1.2,1-1.7,1.5
	c-0.9,1.8-0.9,3.8-0.8,6.4c0.4,1.3,1.1,2.5,2.1,3.4c1.1,0.5,2.3,0.7,3.5,0.7c0.6-0.4,1.2-0.8,1.8-1.1l0.5-0.8l0.3-0.2
	c0.1-0.2,0-0.5,0.1-0.9l0.4-0.5c0.1-0.8,0.2-1.7,0.4-2.5c-0.2-0.8-0.1-1.8-0.3-2.7c-0.4-0.7-0.7-1.5-1-2.3c-0.8-0.5-1.6-0.9-2.5-1.3
	c-0.5,0-1,0-1.5,0.1c-0.5,0-0.9,0.1-1.4,0.2l0,0L550.5,321.7z"/>
<path class="st0" d="M582.2,321.1c-0.2,1.5-1.9,0.8-2.7,0.4c-1.1-0.1-2.1,0-3.2,0.1c-0.8,0.4-1.3,1.2-2.1,1.7
	c-0.2,0.8-0.4,1.6-0.8,2.3c-0.2,1.7-0.1,3.5,0.4,5.2c0.4,0.9,1,1.6,1.8,2.1c0.6,0.2,1.2,0.4,1.7,0.7c0.4-0.1,0.8-0.1,1.1,0.1
	c1.1-0.1,2.2-0.7,3.1-0.7c0.2,0.4,0.3,0.9,0.4,1.3c-0.2,1-1.9,1.1-3,1.3h-2.6l-2.5-1.2c-0.9-0.8-1.7-1.8-2.2-2.9
	c-0.1-0.8-0.4-1.6-0.7-2.4c0-1.1,0-2.2,0.1-3.4c0.3-1.1,0.7-2.2,1.1-3.2c0.8-1.1,1.8-2.1,2.9-2.9c0.6,0,1.2-0.2,1.8-0.4
	c1.1-0.1,2.1,0,3.2,0.1c0.7,0.6,1.9,0.5,2,1.7l0,0L582.2,321.1z"/>
<path class="st0" d="M592,319.1l0.2-0.2c1.1,0.1,1.6,0.7,2.8,0.5s2.4,2.4,3.2,3.4s0.2,2,0.9,2.8c-0.2,0.6-0.1,1.2,0.2,1.8
	c-0.1,0.4-0.1,0.8,0,1.2c0,1-0.7,1.7-0.7,2.8c-0.5,0.6-1,1.3-1.3,2.1c-0.7,0.7-1.6,1.3-2.5,1.7c-1.5,0.5-3.1,0.5-4.6,0.1
	c-0.9-0.4-1.7-0.9-2.6-1.4c-0.1-0.5-0.5-1-0.9-1.3c-0.1-0.9-0.7-1.3-0.8-2.1s-0.2-1.4-0.4-2.1s0.4-3,0.3-4.5
	c0.6-0.6,1.1-1.3,1.3-2.1c0.5-0.4,0.9-0.9,1.2-1.5c1.2-0.5,2.5-0.9,3.8-1.2l0,0L592,319.1z M590.4,321.7c-0.6,0.5-1.2,1-1.7,1.5
	c-0.9,1.8-0.9,3.8-0.8,6.4c0.4,1.3,1.1,2.5,2.1,3.4c1.1,0.5,2.3,0.7,3.5,0.7c0.6-0.4,1.2-0.8,1.8-1.1l0.5-0.8l0.3-0.2
	c0.1-0.2,0-0.5,0.1-0.9l0.4-0.5c0.1-0.8,0.2-1.7,0.4-2.5c-0.2-0.8-0.1-1.8-0.3-2.7c-0.4-0.7-0.7-1.5-1-2.3c-0.8-0.5-1.6-0.9-2.5-1.3
	c-0.5,0-1,0-1.5,0.1c-0.5,0-0.9,0.1-1.4,0.2l0,0L590.4,321.7z"/>
<path class="st0" d="M622.2,335.5c-0.5,0.3-1.1-0.1-1.7-0.1s0.1-1-0.2-1.1s0.1-0.9,0.1-1.3s0.2-2.5-0.3-3.1c0.2-0.4,0.3-0.8,0.3-1.2
	c-0.3-1.8-0.3-3.7,0-5.5c-0.7-1.3-2.3-2-3.8-1.5c-0.7,0.2-1.3,0.7-1.6,1.3c-0.2,1.1-0.4,2.2-0.4,3.3c0,2.1-0.1,4.1-0.3,6.2
	c0.3,1.1,0.7,3-0.9,3c-0.6-0.1-1-0.6-1.1-1.2c0-0.3,0-0.6,0.1-0.9c0-0.6,0-1.3,0-1.9c-0.1-0.3-0.2-0.6-0.2-0.9
	c0-0.6,0.2-1.1,0.2-2.2c-0.3-1-0.3-2.1-0.1-3.2c-0.4-0.6-0.2-1.6-0.5-2.4c-0.2-0.2-0.3-0.5-0.4-0.8c-0.6-0.3-1.2-0.6-1.8-0.8
	c-0.7,0.2-1.3,0.4-2,0.6c-0.8,1.2-1.2,2.6-1.4,4c0.4,2.2,0.5,4.5,0.2,6.7c0.1,1,0,2-0.3,2.9c-0.6,0-1.2,0-1.7-0.2
	c-0.7-1-0.1-2.1-0.3-3.4c0-0.4,0-0.7-0.1-1.1c0.1-2.6-0.1-6,0.6-8.9c-0.7-0.9-0.5-2.5,0.2-2.6s1,0.9,1.5,1.5s0.8-0.8,1.3-1.1
	c0.4-0.3,0.9-0.6,1.4-0.8l2.2,0.2c0.7,0.7,1.5,1.3,2.3,1.8c0.5-0.3,1.1-0.7,1.5-1.1l2.8-1h0.3c0.7,0.4,1.7,0.5,2.4,1
	c0.4,0.1,0.6,0.4,0.7,0.8c0.3,0.2,0.5,0.4,0.7,0.7c0.4,1.1,0.2,2.1,0.7,3.1c-0.2,2.9,0.1,5.9,0,8.9
	C622.7,334,622.5,334.7,622.2,335.5L622.2,335.5L622.2,335.5z"/>
<path class="st0" d="M633.5,319.1l0.2-0.2c1.1,0.1,1.6,0.7,2.8,0.5s2.4,2.4,3.2,3.4s0.2,2,0.9,2.8c-0.2,0.6-0.1,1.2,0.2,1.8
	c-0.1,0.4-0.1,0.8,0,1.2c0,1-0.7,1.7-0.7,2.8c-0.5,0.6-1,1.3-1.3,2.1c-0.7,0.7-1.6,1.3-2.5,1.7c-1.5,0.5-3.1,0.5-4.6,0.1
	c-0.9-0.4-1.7-0.9-2.6-1.4c-0.1-0.5-0.5-1-0.9-1.3c-0.1-0.9-0.7-1.3-0.8-2.1s-0.2-1.4-0.4-2.1s0.4-3,0.3-4.5
	c0.6-0.6,1.1-1.3,1.3-2.1c0.5-0.4,0.9-0.9,1.2-1.5c1.2-0.5,2.5-0.9,3.8-1.2l0,0L633.5,319.1z M631.9,321.7c-0.6,0.5-1.2,1-1.7,1.5
	c-0.9,1.8-0.9,3.8-0.8,6.4c0.4,1.3,1.1,2.5,2.1,3.4c1.1,0.5,2.3,0.7,3.5,0.7c0.6-0.4,1.2-0.8,1.8-1.1l0.5-0.8l0.3-0.2
	c0.1-0.2,0-0.5,0.1-0.9l0.4-0.5c0.1-0.8,0.2-1.7,0.4-2.5c-0.2-0.8-0.1-1.8-0.3-2.7c-0.4-0.7-0.7-1.5-1-2.3c-0.8-0.5-1.6-0.9-2.5-1.3
	c-0.5,0-1,0-1.5,0.1c-0.5,0-0.9,0.1-1.4,0.2l0,0L631.9,321.7z"/>
<path class="st0" d="M70.8,367.3c0.4-0.3,0.8-0.4,1.3-0.5c0.3,0,0.7,0.2,0.9,0.4l2,2.1c0.3,0.3,0.4,0.7,0.5,1.1
	c0,0.4-0.1,0.8-0.3,1.1c-2.3,2.5-5.1,2.9-7.7,2.9c-6-0.1-10.8-4.8-10.9-10.8c0.1-5.9,5-10.7,10.9-10.6c2.8,0,5.5,1,7.6,2.8
	c0.2,0.3,0.3,0.6,0.3,1c0,0.4-0.1,0.9-0.4,1.2l-2.1,2.7c-0.3,0.2-0.6,0.4-0.9,0.4h-0.4l-0.7-0.3c-1.1-0.5-2.2-0.8-3.4-0.8
	c-1.9-0.1-3.5,1.5-3.6,3.4c0,0.1,0,0.3,0,0.4c-0.1,2.3,1.7,4.3,4,4.4c0,0,0,0,0,0C68.9,368.2,70,367.9,70.8,367.3z"/>
<path class="st0" d="M91,372.1c-1.3,1.5-3.3,2.4-5.3,2.4c-1.5,0-6.9-0.6-6.9-6.9c0-4.1,2.9-5.7,6.8-5.7c1.4,0,2.8,0.2,4.1,0.8
	c-0.5-2.1-1.4-2.6-3.3-2.6c-1.1,0-2.1,0.1-3.2,0.3h-0.7c-0.6,0-1.1-0.2-1.4-0.7l-1.1-3.3c-0.1-0.3-0.1-0.5-0.1-0.8
	c0-0.5,0.2-0.9,0.6-1.2c2.1-0.9,4.4-1.4,6.7-1.3c6.8,0,9.8,3.7,9.8,9.6v10.5c0,0.6-0.5,1.1-1.1,1.1c0,0,0,0,0,0h-3.1
	c-0.7,0.1-1.3-0.3-1.5-1L91,372.1z M89.7,368v-1.3c-0.5-0.5-1.2-0.7-1.9-0.7c-1.5,0-2.3,0.4-2.3,1.3s0.9,1.4,2.3,1.4
	C88.5,368.7,89.2,368.4,89.7,368z"/>
<path class="st0" d="M119,374.3c-0.7,0.1-1.3-0.3-1.5-1l-0.3-1.1c-1.4,2-3.8,2.4-5.5,2.4c-6,0-8.7-4.5-8.7-9.5v-10.6
	c-0.1-0.5,0.3-1,0.9-1.1c0.1,0,0.1,0,0.2,0h5.1c0.6,0,1.1,0.5,1.1,1.1l0,0v10.4c0,1.8,0.2,3.3,2.7,3.3s2.4-1.5,2.4-3.3v-10.4
	c-0.1-0.5,0.3-1,0.9-1.1c0.1,0,0.1,0,0.2,0h5.1c0.6,0,1.1,0.5,1.1,1.1l0,0v18.7c0,0.6-0.5,1.1-1.1,1.1c0,0,0,0,0,0L119,374.3
	L119,374.3z"/>
<path class="st0" d="M136.5,368.5c0.8,0,1.8-0.1,1.8-0.7s-10-2-10-8.1c0-4.5,4.1-6.6,8.9-6.6c2.2,0.1,4.3,0.5,6.3,1.3
	c0.5,0.1,0.8,0.6,0.6,1.1c0,0,0,0.1,0,0.1l-0.9,3.7c-0.1,0.4-0.3,0.6-1.1,0.6c-1.3-0.3-2.6-0.5-3.9-0.6c-1.9,0-2.5,0.1-2.5,0.8
	s9.9,2.8,9.9,7.8s-4.9,6.6-9.1,6.6c-2.8,0-5.5-0.7-7.8-2.2c-0.3-0.2-0.5-0.5-0.5-0.9c0.3-1.3,0.6-2.5,1-3.7c0.1-0.4,0.5-0.7,0.9-0.7
	h0.5C132.4,367.9,134.5,368.4,136.5,368.5z"/>
<path class="st0" d="M161.6,372.1c-1.3,1.5-3.3,2.4-5.3,2.4c-1.5,0-6.9-0.6-6.9-6.9c0-4.1,2.9-5.7,6.8-5.7c1.4,0,2.8,0.2,4.1,0.8
	c-0.5-2.1-1.4-2.6-3.3-2.6c-1.1,0-2.1,0.1-3.2,0.3h-0.6c-0.6,0-1.1-0.2-1.4-0.7l-1.1-3.2c-0.1-0.3-0.1-0.5-0.1-0.8
	c0-0.5,0.2-0.9,0.6-1.2c2.1-0.9,4.4-1.4,6.7-1.3c6.8,0,9.8,3.7,9.8,9.6v10.5c0,0.6-0.5,1.1-1.1,1.1h0h-3.1c-0.7,0.1-1.3-0.3-1.5-1
	L161.6,372.1z M160.3,368v-1.3c-0.5-0.5-1.2-0.7-1.9-0.7c-1.5,0-2.3,0.4-2.3,1.3s0.9,1.4,2.3,1.4C159.1,368.7,159.8,368.4,160.3,368
	z"/>
<path class="st0" d="M203,364.9c0,0.6-0.5,1.1-1.1,1.1h0h-11.7c0.4,2.3,2.8,2.6,4.1,2.6c1.7,0.1,3.4-0.2,5-0.9h0.3
	c0.3,0,0.5,0.2,0.7,0.4l1.4,2.4c0.2,0.2,0.3,0.4,0.3,0.7c0,0.3-0.1,0.6-0.3,0.9c-1.4,1.9-4.6,2.6-7.3,2.6c-5.9,0-11.6-2.9-11.6-10.9
	c0-5.8,3-10.5,10.2-10.5s10.1,3.3,10.1,10v1.7L203,364.9z M190.1,362h5.6c-0.1-1.4-1.2-2.5-2.6-2.4c0,0-0.1,0-0.1,0
	c-1.4-0.2-2.7,0.8-2.9,2.3c0,0,0,0,0,0V362z"/>
<path class="st0" d="M211.8,353.4c0.7-0.1,1.3,0.3,1.5,1l0.3,1.1c1.4-2,4.1-2.4,5.9-2.4c6,0,8.3,4.5,8.3,9.5v10.6
	c0.1,0.5-0.3,1-0.9,1.1c-0.1,0-0.1,0-0.2,0h-5.1c-0.6,0-1.1-0.5-1.1-1.1l0,0v-9.9c0-1.8-0.2-3.3-2.7-3.3s-2.4,1.5-2.4,3.3v9.9
	c0.1,0.5-0.3,1-0.9,1.1c-0.1,0-0.1,0-0.2,0h-5.1c-0.6,0-1.1-0.5-1.1-1.1l0,0v-18.7c0-0.6,0.5-1.1,1.1-1.1h0H211.8L211.8,353.4z"/>
<path class="st0" d="M256.7,367.3c0.4-0.3,0.8-0.4,1.3-0.5c0.3,0,0.7,0.2,0.9,0.4l2,2.1c0.3,0.3,0.4,0.7,0.5,1.1
	c0,0.4-0.1,0.8-0.3,1.1c-2.3,2.5-5.1,2.9-7.7,2.9c-6-0.1-10.8-4.8-10.9-10.8c0.1-5.9,5-10.7,10.9-10.6c2.8,0,5.5,1,7.6,2.8
	c0.2,0.3,0.3,0.6,0.3,1c0,0.4-0.2,0.8-0.5,1.1l-2.1,2.7c-0.3,0.2-0.6,0.4-0.9,0.4h-0.3l-0.7-0.3c-1.1-0.5-2.2-0.8-3.4-0.8
	c-1.9-0.1-3.5,1.5-3.6,3.4c0,0.1,0,0.3,0,0.4c-0.1,2.3,1.7,4.3,4,4.4c0,0,0,0,0,0C254.8,368.1,255.8,367.9,256.7,367.3z"/>
<path class="st0" d="M264.4,364c0-6,4.9-10.9,10.9-10.9c6,0,10.9,4.9,10.9,10.9c0,0,0,0,0,0c0,6-4.9,10.9-10.9,10.9
	C269.3,374.9,264.4,370,264.4,364z M278.9,364.1c0.2-2.1-1.4-3.9-3.5-4.1c-0.1,0-0.1,0-0.2,0c-1.9,0-3.5,1.7-3.5,4.1
	c-0.2,2.1,1.4,3.9,3.5,4.1c0,0,0,0,0,0c2.1-0.2,3.7-2,3.6-4.1H278.9z"/>
<path class="st0" d="M294.9,353.4c0.7-0.1,1.3,0.3,1.5,1l0.3,1.1c1.4-2,4.1-2.4,5.9-2.4c6,0,8.3,4.5,8.3,9.5v10.6
	c0.1,0.5-0.3,1-0.9,1.1c-0.1,0-0.1,0-0.2,0h-5.1c-0.6,0-1.1-0.5-1.1-1.1l0,0v-9.9c0-1.8-0.2-3.3-2.7-3.3s-2.4,1.5-2.4,3.3v9.9
	c0.1,0.5-0.3,1-0.9,1.1c-0.1,0-0.1,0-0.2,0h-5.1c-0.6,0-1.1-0.5-1.1-1.1l0,0v-18.7c0-0.6,0.5-1.1,1.1-1.1l0,0H294.9L294.9,353.4z"/>
<path class="st0" d="M324,368.5c0.8,0,1.8-0.1,1.8-0.7s-10-2-10-8.1c0-4.5,4.1-6.6,8.9-6.6c2.2,0.1,4.3,0.5,6.3,1.3
	c0.5,0.1,0.8,0.6,0.6,1.1c0,0,0,0.1,0,0.1l-0.9,3.7c-0.1,0.4-0.3,0.6-1.1,0.6c-1.3-0.3-2.6-0.5-3.9-0.6c-1.9,0-2.5,0.1-2.5,0.8
	s9.9,2.8,9.9,7.8s-4.9,6.6-9.1,6.6c-2.8,0-5.5-0.7-7.8-2.2c-0.3-0.2-0.5-0.5-0.5-0.9c0.3-1.3,0.6-2.5,1-3.7c0.1-0.4,0.5-0.7,0.9-0.7
	h0.5C319.9,367.9,322,368.4,324,368.5z"/>
<path class="st0" d="M353.9,374.3c-0.7,0.1-1.3-0.3-1.5-1l-0.3-1.1c-1.4,2-3.8,2.4-5.5,2.4c-6,0-8.7-4.5-8.7-9.5v-10.6
	c-0.1-0.5,0.3-1,0.9-1.1c0.1,0,0.1,0,0.2,0h5.1c0.6,0,1.1,0.5,1.1,1.1l0,0v10.4c0,1.8,0.2,3.3,2.7,3.3s2.4-1.5,2.4-3.3v-10.4
	c-0.1-0.5,0.3-1,0.9-1.1c0.1,0,0.1,0,0.2,0h5.1c0.6,0,1.1,0.5,1.1,1.1l0,0v18.7c0,0.6-0.5,1.1-1.1,1.1l0,0L353.9,374.3L353.9,374.3z
	"/>
<path class="st0" d="M386,362.3c0-1.7-1-2.3-1.9-2.3c-0.8,0-1.6,0.5-1.9,1.3c0.1,0.4,0.1,0.7,0.1,1.1v10.8c0,0.6-0.5,1.1-1.1,1.1
	l0,0h-4.4c-0.5,0.1-1-0.3-1.1-0.9c0-0.1,0-0.1,0-0.2V363c0-1.8-0.9-3-1.9-3s-2,1.2-2,3v10.2c0,0.6-0.5,1.1-1.1,1.1l0,0h-5.1
	c-0.5,0.1-1-0.3-1.1-0.9c0-0.1,0-0.1,0-0.2v-18.7c-0.1-0.5,0.3-1,0.9-1.1c0.1,0,0.1,0,0.2,0h3.7c0.6,0,1.1,0.5,1.1,1.1l0,0v0.9
	c1.2-1.5,3-2.3,4.9-2.2c1.9,0,3.7,0.9,4.9,2.4c1.5-1.6,3.5-2.4,5.7-2.4c5,0,7.6,3.9,7.6,9v11c0,0.6-0.5,1.1-1.1,1.1l0,0h-5.1
	c-0.5,0.1-1-0.3-1.1-0.9c0-0.1,0-0.1,0-0.2v-10.9H386z"/>
<path class="st0" d="M397.8,364c0-6,4.9-10.9,10.9-10.9c6,0,10.9,4.9,10.9,10.9c0,0,0,0,0,0c0,6-4.9,10.9-10.9,10.9
	C402.7,374.9,397.8,370,397.8,364z M412.3,364.1c0.2-2.1-1.4-3.9-3.5-4.1c-0.1,0-0.1,0-0.2,0c-1.9,0-3.5,1.7-3.5,4.1
	c-0.2,2.1,1.4,3.9,3.5,4.1c0,0,0,0,0,0C410.7,368,412.3,366.2,412.3,364.1L412.3,364.1z"/>
<path class="st0" d="M448.5,372.1c-1.4,1.7-3.5,2.6-5.7,2.4c-5.5,0-9.7-5-9.7-10.8s4.4-10.6,9.1-10.6c1.8-0.1,3.5,0.4,5,1.4v-8.8
	c0-0.6,0.5-1.1,1.1-1.1l0,0h5.1c0.5-0.1,1,0.3,1.1,0.9c0,0.1,0,0.1,0,0.2v27.5c0,0.6-0.5,1.1-1.1,1.1l0,0h-3.1
	c-0.7,0.1-1.3-0.3-1.5-1L448.5,372.1z M447.2,363.7c0-1.9-1.5-3.4-3.4-3.4c-1.9,0-3.4,1.5-3.4,3.4c0,0,0,0,0,0
	c0,2.6,1.5,4.4,3.3,4.4S447.2,366.4,447.2,363.7L447.2,363.7z"/>
<path class="st0" d="M479.8,364.9c0,0.6-0.5,1.1-1.1,1.1l0,0h-11.8c0.4,2.3,2.8,2.6,4.1,2.6c1.7,0.1,3.4-0.2,5-0.9h0.3
	c0.3,0,0.5,0.2,0.7,0.4l1.4,2.4c0.2,0.2,0.3,0.4,0.3,0.7c0,0.3-0.1,0.6-0.3,0.9c-1.4,1.9-4.6,2.6-7.3,2.6c-5.9,0-11.6-2.9-11.6-10.9
	c0-5.8,3-10.5,10.2-10.5s10.1,3.3,10.1,10v1.7L479.8,364.9z M466.9,362h5.6c-0.1-1.4-1.2-2.5-2.6-2.4c0,0-0.1,0-0.1,0
	c-1.4-0.2-2.7,0.8-2.9,2.3c0,0,0,0,0,0V362z"/>
<path class="st0" d="M505.9,372.1c-1.3,1.5-3.3,2.4-5.3,2.4c-1.5,0-6.9-0.6-6.9-6.9c0-4.1,2.9-5.7,6.8-5.7c1.4,0,2.8,0.2,4.1,0.8
	c-0.5-2.1-1.4-2.6-3.3-2.6c-1.1,0-2.1,0.1-3.2,0.3h-0.6c-0.6,0-1.1-0.2-1.4-0.7l-1.1-3.2c-0.1-0.3-0.1-0.5-0.1-0.8
	c0-0.5,0.2-0.9,0.6-1.2c2.1-0.9,4.4-1.4,6.7-1.3c6.8,0,9.8,3.7,9.8,9.6v10.5c0,0.6-0.5,1.1-1.1,1.1l0,0h-3.1c-0.7,0.1-1.3-0.3-1.5-1
	L505.9,372.1z M504.6,368v-1.3c-0.5-0.5-1.2-0.7-1.9-0.7c-1.5,0-2.3,0.4-2.3,1.3s0.9,1.4,2.3,1.4c0.7-0.1,1.3-0.3,1.8-0.7H504.6z"/>
<path class="st0" d="M525.7,373.2c0,0.6-0.5,1.1-1.1,1.1h-5.1c-0.5,0.1-1-0.3-1.1-0.9c0-0.1,0-0.1,0-0.2v-27.5
	c-0.1-0.5,0.3-1,0.9-1.1c0.1,0,0.1,0,0.2,0h5.1c0.6,0,1.1,0.5,1.1,1.1V373.2z"/>
<path class="st0" d="M544.9,367.3c0.4-0.3,0.8-0.4,1.3-0.5c0.3,0,0.7,0.2,0.9,0.4l2,2.1c0.3,0.3,0.4,0.7,0.5,1.1
	c0,0.4-0.1,0.8-0.3,1.1c-2.3,2.5-5.1,2.9-7.7,2.9c-6-0.1-10.8-4.8-10.9-10.8c0.1-5.9,5-10.7,10.9-10.6c2.8,0,5.5,1,7.6,2.8
	c0.2,0.3,0.3,0.6,0.3,1c0,0.4-0.2,0.8-0.5,1.1l-2.1,2.7c-0.3,0.2-0.6,0.4-0.9,0.4h-0.3l-0.7-0.3c-1.1-0.5-2.2-0.8-3.4-0.8
	c-1.9-0.1-3.5,1.5-3.6,3.4c0,0.1,0,0.3,0,0.4c-0.1,2.3,1.7,4.3,4,4.4c0,0,0,0,0,0C543,368.1,544,367.9,544.9,367.3z"/>
<path class="st0" d="M552.5,364c0-6,4.9-10.9,10.9-10.9c6,0,10.9,4.9,10.9,10.9c0,0,0,0,0,0c0,6-4.9,10.9-10.9,10.9
	C557.4,374.9,552.5,370,552.5,364z M567,364.1c0.2-2.1-1.4-3.9-3.5-4.1c-0.1,0-0.1,0-0.2,0c-1.9,0-3.5,1.7-3.5,4.1
	c-0.2,2.1,1.4,3.9,3.5,4.1c0,0,0,0,0,0C565.5,368.1,567.1,366.3,567,364.1C567,364.1,567,364.1,567,364.1z"/>
<path class="st0" d="M579.3,345.7c0-0.6,0.5-1.1,1.1-1.1h5.1c0.5-0.1,1,0.3,1.1,0.9c0,0.1,0,0.1,0,0.2v8.6c1.2-0.8,2.6-1.2,4.1-1.1
	c6,0,8.3,4.5,8.3,9.5v10.6c0.1,0.5-0.3,1-0.9,1.1c-0.1,0-0.1,0-0.2,0h-5.1c-0.6,0-1.1-0.5-1.1-1.1v-9.9c0-1.8-0.2-3.3-2.7-3.3
	s-2.4,1.5-2.4,3.3v9.9c0.1,0.5-0.3,1-0.9,1.1c-0.1,0-0.1,0-0.2,0h-5.1c-0.6,0-1.1-0.5-1.1-1.1V345.7z"/>
<path class="st0" d="M603.4,364c0-6,4.9-10.9,10.9-10.9c6,0,10.9,4.9,10.9,10.9c0,0,0,0,0,0c0,6-4.9,10.9-10.9,10.9
	C608.3,374.9,603.4,370,603.4,364z M617.9,364.1c0.2-2.1-1.4-3.9-3.5-4.1c-0.1,0-0.1,0-0.2,0c-1.9,0-3.5,1.7-3.5,4.1
	c-0.2,2.1,1.4,3.9,3.5,4.1c0,0,0,0,0,0C616.4,368.1,618,366.3,617.9,364.1C617.9,364.1,617.9,364.1,617.9,364.1z"/>
<path class="st0" d="M637.5,373.2c0,0.6-0.5,1.1-1.1,1.1h-5.1c-0.5,0.1-1-0.3-1.1-0.9c0-0.1,0-0.1,0-0.2v-27.5
	c-0.1-0.5,0.3-1,0.9-1.1c0.1,0,0.1,0,0.2,0h5.1c0.6,0,1.1,0.5,1.1,1.1V373.2z"/>
<path class="st0" d="M644.4,376.8c-0.4-0.8,0.4-1.3,0.3-2.2s-0.7-1.1-0.5-2.2s1.8-1.2,2.3-0.4l0.2,0.2c0,1.4-0.1,2.1-1,2.7
	s-0.4,2.1-1.3,1.8l0,0V376.8z"/>
<path class="st0" d="M120.5,400.8c0.8-0.3,1.1-1.3,1.3-2.3s0.4-1,0.9-1.4c0.3-2.2,1.5-3,1.7-4.8s1.8-0.8,2.5,0
	c-0.1,0.6-0.4,1.2-0.8,1.7c-0.3,1.6-1.2,2.6-1.3,4.1c-0.4,0.7-0.8,1.4-1.1,2.2c-0.2,0.3-0.3,0.7-0.4,1.1c-0.2,0.3-0.4,0.6-0.4,0.9
	c-0.5,1.4-1.2,2.8-1.9,4.1c-0.4,1.5-0.9,3-1.5,4.4c-0.3,0.6-0.6,1.2-0.9,2c-0.1,0.7-0.4,1.4-0.8,2c-0.6,0.3-1.3,0.3-2,0.1
	c-0.1-0.9,0.1-1.7,0.7-2.4c0-0.9,0.5-1.3,0.7-1.9c0.1-0.7,0.4-1.3,0.7-1.9c0.3-1.1,1.2-2.3,1.4-3.8s-1.2-3.7-2-5.2s-0.3-0.5-0.2-1
	c-0.4-1.1-0.9-2.2-1.5-3.3c-0.1-1.1-0.9-2.1-1.1-3.3c0.6-0.4,1.5-0.4,2.1,0c0.4,0.9,1.1,1.4,1.1,2.8c0.3,0.4,0.6,0.8,0.8,1.3
	c0.1,0.9,0.7,1.7,0.8,2.5s0.5,1.8,1.2,2.2l0,0L120.5,400.8z"/>
<path class="st0" d="M140,407.8c-0.8,0-0.8-0.9-1.5-1.1c-0.6,0.3-1.2,0.6-1.8,1c-1.4,0.3-2.9,0.3-4.4,0.2c-0.7-0.8-1.7-1.2-2.3-1.9
	s-0.2-2.3-0.7-3.2c0-0.8,0.1-1.6,0.3-2.4c0.3-0.4,0.6-1.1,0.9-1.5c0.2,0,0.3-0.1,0.4-0.3c1.4-0.7,2.6-0.7,4.6-1
	c0.7,0.6,1.6,1.1,2.5,1.4c1.2-0.4,0.1-1.8,0.3-2.9c-0.2-0.7-0.6-1.4-1.1-1.9c-0.7-0.1-1.1-0.4-1.8-0.6s-3,0.7-4.1,0.4
	c-0.4-0.4-0.6-1-0.6-1.6c0.4-0.6,1.5-0.5,2.1-1c1.1-0.1,2.2-0.1,3.3,0c0.8,0.5,1.6,0.8,2.5,0.9c1.1,1.6,2.4,3.6,2,6.4
	c0,0.5,0.2,0.8,0.2,1.3s-0.2,3.2-0.3,4.9c0.2,0.7,0.3,1.3,0.3,2c-0.2,0.5-0.6,0.8-1.1,1l0,0L140,407.8z M133.3,400.1l-1.4,1.1
	c0.2,0.3-0.2,0.3-0.3,0.6s0.3,3.1,1.1,3.4c0.9,0.6,1.9,0.7,2.9,0.4c0.3-0.2,0.7-0.3,1.1-0.3c0.9-0.8,2-1,2.2-2.6
	c-0.5-0.8-1-1.6-1.7-2.3c-1-0.2-1.6-0.5-2.5-0.7l-0.2,0.2h-1.2L133.3,400.1z"/>
<path class="st0" d="M160,393.8c-1-0.1-2.1,0.3-2.9,0.9c-0.1,0.5-0.2,1-0.3,1.5c0.3,0.9,1,1.5,1.8,1.9c0.8,0.4,1.6,0.8,2.5,1.1
	c0.5,0.6,1.2,0.9,2,1.1c0.2,0.5,0.5,0.9,0.9,1.3c0.3,0.5,0.4,0.9,0.7,1.4c0.3,1.1,0,2.4-0.7,3.3c-0.4,0.5-0.8,0.9-1.3,1.2
	c-0.7,0.4-2,0.4-2.9,0.7s-4.5-0.1-5.3-1.8s0.5-0.7,0.7-1.1s3.7,1.3,5.7,0.8c0.8-0.4,1.3-1.2,1.5-2.1c0-1.5-1.4-2.1-2.3-2.8
	c-0.8-0.4-1.6-0.7-2.4-0.9c-0.9-0.5-1.8-1.1-2.5-1.9c-0.3-0.6-0.6-1.3-0.8-2c0-1,0.3-1.5,0.2-2.6l1.2-1.5l1.8-0.7
	c1.3-0.1,2.5-0.1,3.8,0.1c0.3,0.3,1.3,0,1.5,0.7S161.2,393.9,160,393.8z"/>
<path class="st0" d="M181,400.7c-2.6,0.4-5.9-0.1-8.4,0.2c-0.6,0.1-1.5,0-1.9,0.3c0.4,3.1,2,5.3,5.5,5c1.3-0.4,2.2-1.5,3.2-0.7
	s-0.9,1.9-2.3,2.4s-1.9,0.1-2.7,0s-2.3-0.7-3.3-1c-0.5-0.7-1.1-1.3-1.8-1.8c-0.1-0.4-0.2-0.8-0.3-1.2c-0.3-0.7-0.5-1.4-0.6-2.2
	c-0.1-1.9,0-3.7,0.2-5.6c0.3-0.8,0.4-1.3,0.7-2s1.1-1.1,1.5-1.8l1.8-0.7c1-0.2,2.8,0.3,3.8-0.2c0.6,0.3,1.3,0.5,2,0.7
	c0.9,0.8,1.6,1.6,2.3,2.6c-0.1,0.5,0,1.1,0.3,1.5c-0.1,0.5,0,1.1,0.3,1.5c-0.3,0.8,0.4,2.3-0.4,2.9l0,0L181,400.7z M178.5,395.9
	c-0.4-0.7-0.8-1.3-1.4-1.8c-1.3-0.4-2.8-0.4-4.1,0c-0.7,0-1,0.7-1.6,1.1s-1.3,2.7-0.1,3.7s0.3-0.1,0.3,0c0.8,0,1.6-0.2,2.3-0.4
	c0.7,0.4,1.6,0.4,2.3,0c0.9,0.5,2,0.5,2.8-0.1c0.3-0.9,0.2-1.8-0.3-2.6L178.5,395.9L178.5,395.9z"/>
<path class="st0" d="M195.4,407.8c-0.8,0-0.8-0.9-1.5-1.1c-0.6,0.3-1.2,0.6-1.8,1c-1.4,0.3-2.9,0.3-4.4,0.2
	c-0.7-0.8-1.7-1.2-2.3-1.9s-0.2-2.3-0.7-3.2c0-0.8,0.1-1.6,0.3-2.4c0.3-0.4,0.6-1.1,0.9-1.5c0.2,0,0.3-0.1,0.4-0.3
	c1.4-0.7,2.6-0.7,4.6-1c0.7,0.6,1.6,1.1,2.5,1.4c1.2-0.4,0.1-1.8,0.3-2.9c-0.2-0.7-0.6-1.4-1.1-1.9c-0.7-0.1-1.1-0.4-1.8-0.6
	s-3,0.7-4.1,0.4c-0.4-0.4-0.6-1-0.6-1.6c0.4-0.6,1.5-0.5,2.1-1c1.1-0.1,2.2-0.1,3.3,0c0.8,0.5,1.6,0.8,2.5,0.9
	c1.1,1.6,2.4,3.6,2,6.4c0,0.5,0.2,0.8,0.2,1.3s-0.2,3.2-0.3,4.9c0.2,0.7,0.3,1.3,0.3,2c-0.2,0.5-0.6,0.8-1.1,1l0,0L195.4,407.8z
	 M188.7,400.1l-1.4,1.1c0.2,0.3-0.2,0.3-0.3,0.6s0.3,3.1,1.1,3.4c0.9,0.6,1.9,0.7,2.9,0.4c0.3-0.2,0.7-0.3,1.1-0.3
	c0.9-0.8,2-1,2.2-2.6c-0.5-0.8-1-1.6-1.7-2.3c-1-0.2-1.6-0.5-2.5-0.7l-0.2,0.2h-1.2L188.7,400.1z"/>
<path class="st0" d="M222,400.7c-2.6,0.4-5.9-0.1-8.4,0.2c-0.6,0.1-1.5,0-1.9,0.3c0.4,3.1,2,5.3,5.5,5c1.3-0.4,2.2-1.5,3.2-0.7
	s-0.9,1.9-2.3,2.4s-1.9,0.1-2.7,0s-2.3-0.7-3.3-1c-0.5-0.7-1.1-1.3-1.8-1.8c-0.1-0.4-0.2-0.8-0.3-1.2c-0.3-0.7-0.5-1.4-0.6-2.2
	c-0.1-1.9,0-3.7,0.2-5.6c0.3-0.8,0.4-1.3,0.7-2s1.1-1.1,1.5-1.8l1.8-0.7c1-0.2,2.8,0.3,3.8-0.2c0.6,0.3,1.3,0.5,2,0.7
	c0.9,0.8,1.6,1.6,2.3,2.6c-0.1,0.5,0,1.1,0.3,1.5c-0.1,0.5,0,1.1,0.3,1.5c-0.3,0.8,0.4,2.3-0.4,2.9l0,0L222,400.7z M219.5,395.9
	c-0.4-0.7-0.8-1.3-1.4-1.8c-1.3-0.4-2.8-0.4-4.1,0c-0.7,0-1,0.7-1.6,1.1s-1.3,2.7-0.1,3.7s0.3-0.1,0.3,0c0.8,0,1.6-0.2,2.3-0.4
	c0.7,0.4,1.6,0.4,2.3,0c0.9,0.5,2,0.5,2.8-0.1c0.3-0.9,0.2-1.8-0.3-2.6L219.5,395.9L219.5,395.9z"/>
<path class="st0" d="M239.9,407.5c-0.6,0.2-1.3,0.2-1.9,0.2c-0.4-1.3-0.2-2.7,0-4.3s-0.4-3-0.2-4.8c0-1-0.1-2.1-0.4-3.1
	c0-0.1-0.1-0.3-0.1-0.4c-0.7-1-1.7-1.1-2.6-1.7c-1.7,0-3.2,0.8-4.3,2.1c-0.1,0.8-0.6,1.4-0.7,2.4c0.2,1.2,0.2,2.4-0.1,3.5l0.3,1.2
	c-0.2,1.4-0.3,3.2-0.3,4.6c-0.5,0.4-1.1,0.5-1.7,0.4c-0.5-1-0.6-2.1-0.3-3.1c-0.1-0.6-0.1-1.1-0.2-1.7s0.2-2.3,0.2-3.6
	c0.1-0.1,0.1-0.3,0-0.4c0.1-2.2-0.1-3.8,0.2-6c-0.2-0.4-0.1-0.9,0.2-1.2c1.5-0.4,1.2,1.1,2.1,1.5c0.7-0.4,1.4-0.9,2-1.5
	c0.7,0,1.3-0.1,1.9-0.4c0.5,0.3,1-0.1,1.5,0c1.5,0.1,2.9,0.9,3.8,2.1c0,0.5,0.2,0.9,0.5,1.3c-0.2,0.6,0.3,1.1,0.2,1.8
	c0,0.3,0,0.7-0.1,1c0.1,1.2,0.2,2.3,0.2,3.5c-0.1,1.2-0.1,2.4,0.2,3.5c-0.3,1.3,0.4,2.1-0.2,3.1l0,0H239.9z"/>
<path class="st0" d="M265.2,400.7c-2.6,0.4-5.9-0.1-8.4,0.2c-0.6,0.1-1.5,0-1.9,0.3c0.4,3.1,2,5.3,5.5,5c1.3-0.4,2.2-1.5,3.2-0.7
	s-0.9,1.9-2.3,2.4s-1.9,0.1-2.7,0s-2.3-0.7-3.3-1c-0.5-0.7-1.1-1.3-1.8-1.8c-0.1-0.4-0.2-0.8-0.3-1.2c-0.3-0.7-0.5-1.4-0.6-2.2
	c-0.1-1.9,0-3.7,0.2-5.6c0.3-0.8,0.4-1.3,0.7-2s1.1-1.1,1.5-1.8l1.8-0.7c1-0.2,2.8,0.3,3.8-0.2c0.6,0.3,1.3,0.5,2,0.7
	c0.9,0.8,1.6,1.6,2.3,2.6c-0.1,0.5,0,1.1,0.3,1.5c-0.1,0.5,0,1.1,0.3,1.5c-0.3,0.8,0.4,2.3-0.4,2.9l0,0L265.2,400.7z M262.7,395.9
	c-0.4-0.7-0.8-1.3-1.4-1.8c-1.3-0.4-2.8-0.4-4.1,0c-0.7,0-1,0.7-1.6,1.1s-1.3,2.7-0.1,3.7c1.2,1,0.3-0.1,0.3,0
	c0.8,0,1.6-0.2,2.3-0.4c0.7,0.4,1.6,0.4,2.3,0c0.9,0.5,2,0.5,2.8-0.1c0.3-0.9,0.2-1.8-0.3-2.6L262.7,395.9L262.7,395.9z"/>
<path class="st0" d="M272.7,385.1c-0.1,7.3-0.5,14.3,0.4,23.2c-0.8-0.3-2-0.2-2.3-0.7s-0.2-1-0.4-1.7c0-0.6,0-1.1,0-1.7
	c-0.4-3.7,0.6-8.1,0.2-11.7c-0.4-2.5-0.4-5.1,0.2-7.6c0.6-0.2,1.2-0.1,1.8,0.1l0,0L272.7,385.1z"/>
<path class="st0" d="M297,393.5c-0.2,1.5-1.9,0.8-2.7,0.4c-1.1-0.1-2.1,0-3.2,0.1c-0.8,0.4-1.3,1.2-2.1,1.7
	c-0.2,0.8-0.4,1.6-0.8,2.3c-0.2,1.7-0.1,3.5,0.4,5.2c0.4,0.9,1,1.6,1.8,2.1c0.6,0.2,1.2,0.4,1.7,0.7c0.4-0.1,0.8-0.1,1.1,0.1
	c1.1-0.1,2.2-0.7,3.1-0.7c0.2,0.4,0.3,0.9,0.4,1.3c-0.2,1-1.9,1.1-3,1.3h-2.6l-2.5-1.2c-0.9-0.8-1.7-1.8-2.2-2.9
	c-0.1-0.8-0.4-1.6-0.7-2.4c0-1.1,0-2.2,0.1-3.4c0.3-1.1,0.7-2.2,1.1-3.2c0.9-1.1,1.9-2.1,3.1-2.9c0.6,0,1.2-0.2,1.8-0.4
	c1.1-0.1,2.1,0,3.2,0.1C295.7,392.3,296.9,392.2,297,393.5L297,393.5L297,393.5z"/>
<path class="st0" d="M306.9,391.5l0.2-0.2c1.1,0.1,1.6,0.7,2.8,0.5s2.4,2.4,3.2,3.4s0.2,2,0.9,2.8c-0.2,0.6-0.1,1.2,0.2,1.8
	c-0.1,0.4-0.1,0.8,0,1.2c0,1-0.7,1.7-0.7,2.8c-0.5,0.6-1,1.3-1.3,2.1c-0.7,0.7-1.6,1.3-2.5,1.7c-1.5,0.5-3.1,0.5-4.6,0.1
	c-0.9-0.4-1.7-0.9-2.6-1.4c-0.1-0.5-0.5-1-0.9-1.3c-0.1-0.9-0.7-1.3-0.8-2.1s-0.2-1.4-0.4-2.1s0.4-3,0.3-4.5
	c0.6-0.6,1.1-1.3,1.3-2.1c0.5-0.4,0.9-0.9,1.2-1.5c1.2-0.5,2.5-0.9,3.8-1.2l0,0L306.9,391.5z M305.3,394.1c-0.6,0.5-1.2,1-1.7,1.5
	c-0.9,1.8-0.9,3.8-0.8,6.4c0.4,1.3,1.1,2.5,2.1,3.4c1.1,0.5,2.3,0.7,3.5,0.7c0.6-0.4,1.2-0.8,1.8-1.1l0.5-0.8l0.3-0.2
	c0.1-0.2,0-0.5,0.1-0.9l0.4-0.5c0.1-0.8,0.2-1.7,0.4-2.5c-0.2-0.8-0.1-1.8-0.3-2.7c-0.4-0.7-0.7-1.5-1-2.3c-0.8-0.5-1.6-0.9-2.5-1.3
	c-0.5,0-1,0-1.5,0.1c-0.5,0-0.9,0.1-1.4,0.2l0,0L305.3,394.1z"/>
<path class="st0" d="M331.6,407.5c-0.6,0.2-1.3,0.2-1.9,0.2c-0.4-1.3-0.2-2.7,0-4.3s-0.4-3-0.2-4.8c0-1-0.1-2.1-0.4-3.1
	c0-0.1-0.1-0.3-0.1-0.4c-0.7-1-1.7-1.1-2.6-1.7c-1.7,0-3.2,0.8-4.3,2.1c-0.1,0.8-0.6,1.4-0.7,2.4c0.2,1.2,0.2,2.4-0.1,3.5l0.3,1.2
	c-0.2,1.4-0.3,3.2-0.3,4.6c-0.5,0.4-1.1,0.5-1.7,0.4c-0.5-1-0.6-2.1-0.3-3.1c-0.1-0.6-0.1-1.1-0.2-1.7s0.2-2.3,0.2-3.6
	c0.1-0.1,0.1-0.3,0-0.4c0.1-2.2-0.1-3.8,0.2-6c-0.2-0.4-0.1-0.9,0.2-1.2c1.5-0.4,1.2,1.1,2.1,1.5c0.7-0.4,1.4-0.9,2-1.5
	c0.7,0,1.3-0.1,1.9-0.4c0.5,0.3,1-0.1,1.5,0c1.5,0.1,2.9,0.9,3.8,2.1c0,0.5,0.2,0.9,0.5,1.3c-0.2,0.6,0.3,1.1,0.2,1.8
	c0,0.3,0,0.7-0.1,1c0.1,1.2,0.2,2.3,0.2,3.5c-0.1,1.2-0.1,2.4,0.2,3.5c-0.3,1.3,0.4,2.1-0.2,3.1l0,0H331.6z"/>
<path class="st0" d="M349.3,388.1c0,1,0.1,2.4,0.2,3.3c0,1.3-0.1,2.7-0.3,4c0.1,1.1,0.2,2.1,0.2,3.2c-0.1,1.1,0,2.1-0.1,3.2
	s0.1,1.3,0.1,1.9s-0.1,1.2-0.1,1.9s0.5,1.7-0.5,2.5s-1.2-0.9-1.6-1.8c-0.6,0.1-1.2,0.4-1.7,0.8c-0.1,0.5-1,0.5-1.3,0.9
	c-1.4,0.2-2.8,0.1-4.1-0.2c-0.7-0.3-1.4-0.7-2.1-1.2c-0.2-0.3-0.5-0.7-0.8-0.9c-1-1.6-1.1-4.2-1.3-6.6c0.3-0.9,0.5-1.8,0.5-2.8
	c0.7-1.5,1.1-2.8,2.4-3.9c0.5-0.2,1.1-0.4,1.5-0.8c0.5,0.1,1,0,1.5-0.2l2.9,0.4c0.7,0.3,1.1,1.3,2.2,0.9s0-1.2,0.1-2
	s0.3-4.3,0.5-5.3c0.3-0.5,0.9-0.8,1.5-0.5c0,0,0,0,0,0C349.7,386,349.1,386.9,349.3,388.1z M340.2,394.3c-0.7,0.7-1.3,1.6-1.7,2.6
	c0.3,1.6-0.4,2.6-0.2,4c0.3,0.9,0.5,1.8,0.5,2.8c0.5,0.4,0.7,1.1,1,1.5s1,0.6,1.7,0.7c1.5,0.1,3-0.3,4.3-1.1
	c0.7-1.2,1.2-2.5,1.5-3.9c-0.3-1.1,0-2.3-0.3-3.5c-0.1-0.7-0.4-1.4-0.8-2c-0.7-0.8-1.7-1.3-2.8-1.5c-0.6-0.2-1.1,0.2-1.7-0.1
	s-0.1,0-0.1,0.2s-0.7,0.4-1.3,0.4l0,0L340.2,394.3z"/>
<path class="st0" d="M357.6,392c0.1,3.3-0.2,6.6,0.2,10.1c0.1,0.7,0.2,1.4,0.4,2.1c0.7,1.3,2.2,1.7,3.5,2s1.8-1.1,2.8-1.4
	c0.5-1,0.8-2,1.1-3c-0.2-0.7-0.1-1.5,0.3-2.1c0.1-2.1-0.3-5.4-0.1-7.7c0.8-0.4,1.8-0.4,2.2,0.2c0.2,2.7,0.2,5.3,0,8
	c0.1,0.8,0.1,1.5,0,2.3c0,1.2,0,2.3-0.1,3.5c0.1,0.6,0.4,1.2-0.1,1.7c-0.5,0.2-1.1,0.1-1.5-0.2c-0.4-0.3-0.2-0.9-0.7-1.1
	s-0.9,0.6-1.6,0.9c-0.7,0.2-1.3,0.4-2,0.7c-1.8-0.2-3.5,0-4.7-0.9s-1.4-2.4-2-4s0.2-0.7,0.1-1.2c-0.2-1.4-0.2-2.7,0-4.1
	c-0.1-0.3-0.2-0.6-0.3-0.9c0-0.4,0.1-0.8,0.3-1.1c-0.2-0.7-0.3-1.5-0.2-2.2c0-0.5,0.2-0.9,0.4-1.3c0.1-0.2,0.2-0.3,0.4-0.4
	c0.5-0.1,1-0.1,1.5,0.2l0,0L357.6,392z"/>
<path class="st0" d="M384.1,393.5c-0.2,1.5-1.9,0.8-2.7,0.4c-1.1-0.1-2.1,0-3.2,0.1c-0.8,0.4-1.3,1.2-2.1,1.7
	c-0.2,0.8-0.4,1.6-0.8,2.3c-0.2,1.7-0.1,3.5,0.4,5.2c0.4,0.9,1,1.6,1.8,2.1c0.6,0.2,1.2,0.4,1.7,0.7c0.4-0.1,0.8-0.1,1.1,0.1
	c1.1-0.1,2.2-0.7,3.1-0.7c0.2,0.4,0.3,0.9,0.4,1.3c-0.2,1-1.9,1.1-3,1.3h-2.6l-2.5-1.2c-0.9-0.8-1.7-1.8-2.2-2.9
	c-0.1-0.8-0.4-1.6-0.7-2.4c0-1.1,0-2.2,0.1-3.4c0.3-1.1,0.7-2.2,1.1-3.2c0.8-1.1,1.8-2.1,2.9-2.9c0.6,0,1.2-0.2,1.8-0.4
	c1.1-0.1,2.1,0,3.2,0.1c0.7,0.6,1.9,0.5,2,1.7l0,0L384.1,393.5z"/>
<path class="st0" d="M392.9,385.4c0.2,2.2-0.9,4.6,0.5,6.3c0.8-0.2,1.5-0.2,2.3-0.1c0.5,0.6,0.7,1.5,0.3,2.2
	c-0.8,0.2-2.1-0.4-2.9,0.2c-0.1,0.2-0.2,0.4-0.4,0.6c0.2,1.4-0.1,3,0.4,4.3s-0.1,2.2-0.4,3.2c0.2,1,0.3,1.9,0.3,2.9l1.1,0.8
	c1.2,0.4,2.7,0.1,2.3,1.8s-1.6,0.4-2.5,0.4c-0.6-0.3-1.2-0.5-1.8-0.6c-0.5-0.5-0.9-1.1-1.3-1.7c0-0.8-0.1-1.6-0.3-2.4
	c-0.3-2.6,0.1-5.8-0.3-9.2c-0.4-0.5-1.5-0.5-2.6-0.6c-0.3-0.7-0.3-1.5,0.1-2.1c0.9-0.1,2.6,0.1,2.9-0.9c0-0.5-0.1-1-0.2-1.5
	c0.1-1.9-0.2-3.2,0.4-4.3c0.7-0.2,1.4-0.1,1.9,0.4l0,0L392.9,385.4z"/>
<path class="st0" d="M406.7,391.5l0.2-0.2c1.1,0.1,1.6,0.7,2.8,0.5s2.4,2.4,3.2,3.4s0.2,2,0.9,2.8c-0.2,0.6-0.1,1.2,0.2,1.8
	c-0.1,0.4-0.1,0.8,0,1.2c0,1-0.7,1.7-0.7,2.8c-0.5,0.6-1,1.3-1.3,2.1c-0.7,0.7-1.6,1.3-2.5,1.7c-1.5,0.5-3.1,0.5-4.6,0.1
	c-0.9-0.4-1.7-0.9-2.6-1.4c-0.1-0.5-0.5-1-0.9-1.3c-0.1-0.9-0.7-1.3-0.8-2.1s-0.2-1.4-0.4-2.1s0.4-3,0.3-4.5
	c0.6-0.6,1.1-1.3,1.3-2.1c0.5-0.4,0.9-0.9,1.2-1.5c1.2-0.5,2.5-0.9,3.8-1.2l0,0L406.7,391.5z M405.1,394.1c-0.6,0.5-1.2,1-1.7,1.5
	c-0.9,1.8-0.9,3.8-0.8,6.4c0.4,1.3,1.1,2.5,2.1,3.4c1.1,0.5,2.3,0.7,3.5,0.7c0.6-0.4,1.2-0.8,1.8-1.1l0.5-0.8l0.3-0.2
	c0.1-0.2,0-0.5,0.1-0.9l0.4-0.5c0.1-0.8,0.2-1.7,0.4-2.5c-0.2-0.8-0.1-1.8-0.3-2.7c-0.4-0.7-0.7-1.5-1-2.3c-0.8-0.5-1.6-0.9-2.5-1.3
	c-0.5,0-1,0-1.5,0.1c-0.5,0-0.9,0.1-1.4,0.2l0,0L405.1,394.1z"/>
<path class="st0" d="M425.3,391.5c0.5,0.6,0.7,1.4,0.4,2.1c-0.9,0.3-2.2,0.4-2.9,0.5s-1.2,2-1.8,3c0.2,3.7,0,7.3-0.4,11l-1.6-0.3
	c-0.6-0.9-0.1-1.5-0.1-2.5s-0.2-1-0.2-1.5s0.1-0.8,0.1-1.1s-0.2-3.7-0.1-5.9c0.2-0.9,0.1-1.9-0.1-2.8c0.3-0.9,0-1.8,0.8-2.2
	c0.4,0,0.8,0.1,1.1,0.4c0.3,0.2,0.2,0.8,0.7,0.8s1.3-0.8,2.2-1.1s1.3,0,1.6-0.3h0.3V391.5z"/>
<path class="st0" d="M443,391.5l0.2-0.2c1.1,0.1,1.6,0.7,2.8,0.5s2.4,2.4,3.2,3.4s0.2,2,0.9,2.8c-0.2,0.6-0.1,1.2,0.2,1.8
	c-0.1,0.4-0.1,0.8,0,1.2c0,1-0.7,1.7-0.7,2.8c-0.5,0.6-1,1.3-1.3,2.1c-0.7,0.7-1.6,1.3-2.5,1.7c-1.5,0.5-3.1,0.5-4.6,0.1
	c-0.9-0.4-1.7-0.9-2.6-1.4c-0.1-0.5-0.5-1-0.9-1.3c-0.1-0.9-0.7-1.3-0.8-2.1s-0.2-1.4-0.4-2.1s0.4-3,0.3-4.5
	c0.6-0.6,1.1-1.3,1.3-2.1c0.5-0.4,0.9-0.9,1.2-1.5c1.2-0.5,2.5-0.9,3.8-1.2l0,0L443,391.5z M441.4,394.1c-0.6,0.5-1.2,1-1.7,1.5
	c-0.9,1.8-0.9,3.8-0.8,6.4c0.4,1.3,1.1,2.5,2.1,3.4c1.1,0.5,2.3,0.7,3.5,0.7c0.6-0.4,1.2-0.8,1.8-1.1l0.5-0.8l0.3-0.2
	c0.1-0.2,0-0.5,0.1-0.9l0.4-0.5c0.1-0.8,0.2-1.7,0.4-2.5c-0.2-0.8-0.1-1.8-0.3-2.7c-0.4-0.7-0.7-1.5-1-2.3c-0.8-0.5-1.6-0.9-2.5-1.3
	c-0.5,0-1,0-1.5,0.1c-0.5,0-0.9,0.1-1.4,0.2l0,0L441.4,394.1z"/>
<path class="st0" d="M474.5,400.7c-2.6,0.4-5.9-0.1-8.4,0.2c-0.6,0.1-1.5,0-1.9,0.3c0.4,3.1,2,5.3,5.5,5c1.3-0.4,2.2-1.5,3.2-0.7
	s-0.9,1.9-2.3,2.4s-1.9,0.1-2.7,0s-2.3-0.7-3.3-1c-0.5-0.7-1.1-1.3-1.8-1.8c-0.1-0.4-0.2-0.8-0.3-1.2c-0.3-0.7-0.5-1.4-0.6-2.2
	c-0.1-1.9,0-3.7,0.2-5.6c0.3-0.8,0.4-1.3,0.7-2s1.1-1.1,1.5-1.8l1.8-0.7c1-0.2,2.8,0.3,3.8-0.2c0.6,0.3,1.3,0.5,2,0.7
	c0.9,0.8,1.6,1.6,2.3,2.6c-0.1,0.5,0,1.1,0.3,1.5c-0.1,0.5,0,1.1,0.3,1.5c-0.3,0.8,0.4,2.3-0.4,2.9l0,0L474.5,400.7z M472,396
	c-0.4-0.7-0.8-1.3-1.4-1.8c-1.3-0.4-2.8-0.4-4.1,0c-0.7,0-1,0.7-1.6,1.1s-1.3,2.7-0.1,3.7s0.3-0.1,0.3,0c0.8,0,1.6-0.2,2.3-0.4
	c0.7,0.4,1.6,0.4,2.3,0c0.9,0.5,2,0.5,2.8-0.1c0.3-0.9,0.2-1.8-0.3-2.6L472,396L472,396z"/>
<path class="st0" d="M482,385.1c-0.1,7.3-0.5,14.3,0.4,23.2c-0.8-0.3-2-0.2-2.3-0.7s-0.2-1-0.4-1.7c0-0.6,0-1.1,0-1.7
	c-0.4-3.7,0.6-8.1,0.2-11.7c-0.4-2.5-0.4-5.1,0.2-7.6c0.6-0.2,1.2-0.1,1.8,0.1l0,0L482,385.1z"/>
<path class="st0" d="M499.3,406.7H499c-0.7,0.2-0.2,1-0.2,1.6c-0.2,1.1-0.2,2.1,0,3.2c-0.2,0.9,0,2.3-0.4,3.1
	c-0.6,0.2-1.2,0.2-1.8,0c-0.6-0.8-0.2-1.4-0.1-2.2c0.1-2.3,0.1-4.5-0.2-6.8c0-0.4,0.2-0.8,0.2-1.1s-0.2-0.7-0.2-1
	c0.1-0.3,0.2-0.5,0.2-0.8c0-0.9-0.1-1.8,0-2.7v-1c0-2.1-0.3-3.9-0.2-6.1c-0.2-0.6,0.1-1.2,0.7-1.4c0,0,0,0,0,0
	c0.4-0.1,0.8,0,1.1,0.2c0.3,0.3,0.3,0.8,0.7,0.8c0.9-0.1,1.8-0.5,2.6-1.1c0.4,0.1,0.8,0,1.2-0.2h1.1c0.9,0.1,1.8,0.3,2.6,0.7
	c0.8,0.4,1.1,1,1.8,1.3c0.6,1.4,1.1,2.8,1.5,4.2c0,1.8,0.2,3.5,0.1,5.4c-0.4,0.6-0.7,1.3-0.8,2c-0.5,0.8-1.1,1.5-1.7,2.1
	c-0.9,0.4-1.8,0.7-2.7,0.8c-1.3,0-1.8,0.2-3.1,0.1s-1-1.3-2.1-1.2h-0.1L499.3,406.7z M501.1,394.1l-1.4,1.4c-1,1.3-0.8,3-0.9,4.8
	c0.1,0.8,0.3,1.7,0.3,2.5c0.7,1,0.9,2.2,1.8,2.4c1.2,0.4,2.4,0.7,3.7,0.8c0.5-0.3,1-0.6,1.5-0.9c0.6-0.9,1.1-1.9,1.5-2.9
	c0.3-2.1,0.1-4.2-0.6-6.2c-0.3-0.9-1.1-1.7-2-2c-0.8-0.3-1.6-0.4-2.4-0.2C502.1,393.8,501.6,393.9,501.1,394.1L501.1,394.1
	L501.1,394.1z"/>
<path class="st0" d="M526,400.7c-2.6,0.4-5.9-0.1-8.4,0.2c-0.6,0.1-1.5,0-1.9,0.3c0.4,3.1,2,5.3,5.5,5c1.3-0.4,2.2-1.5,3.2-0.7
	s-0.9,1.9-2.3,2.4s-1.9,0.1-2.7,0s-2.3-0.7-3.3-1c-0.5-0.7-1.1-1.3-1.8-1.8c-0.1-0.4-0.2-0.8-0.3-1.2c-0.3-0.7-0.5-1.4-0.6-2.2
	c-0.1-1.9,0-3.7,0.2-5.6c0.3-0.8,0.4-1.3,0.7-2s1.1-1.1,1.5-1.8l1.8-0.7c1-0.2,2.8,0.3,3.8-0.2c0.6,0.3,1.3,0.5,2,0.7
	c0.9,0.8,1.6,1.6,2.3,2.6c-0.1,0.5,0,1.1,0.3,1.5c-0.1,0.5,0,1.1,0.3,1.5c-0.3,0.8,0.4,2.3-0.4,2.9l0,0L526,400.7z M523.5,395.9
	c-0.4-0.7-0.8-1.3-1.4-1.8c-1.3-0.4-2.8-0.4-4.1,0c-0.7,0-1,0.7-1.6,1.1s-1.3,2.7-0.1,3.7s0.3-0.1,0.3,0c0.8,0,1.6-0.2,2.3-0.4
	c0.7,0.4,1.6,0.4,2.3,0c0.9,0.5,2,0.5,2.8-0.1c0.3-0.9,0.2-1.8-0.3-2.6h-0.1L523.5,395.9z"/>
<path class="st0" d="M540.4,407.8c-0.8,0-0.8-0.9-1.5-1.1c-0.6,0.3-1.2,0.6-1.8,1c-1.4,0.3-2.9,0.3-4.4,0.2
	c-0.7-0.8-1.7-1.2-2.3-1.9s-0.2-2.3-0.7-3.2c0-0.8,0.1-1.6,0.3-2.4c0.3-0.4,0.6-1.1,0.9-1.5c0.2,0,0.3-0.1,0.4-0.3
	c1.4-0.7,2.6-0.7,4.6-1c0.7,0.6,1.6,1.1,2.5,1.4c1.2-0.4,0.1-1.8,0.3-2.9c-0.2-0.7-0.6-1.4-1.1-1.9c-0.7-0.1-1.1-0.4-1.8-0.6
	s-3,0.7-4.1,0.4c-0.4-0.4-0.6-1-0.6-1.6c0.4-0.6,1.5-0.5,2.1-1c1.1-0.1,2.2-0.1,3.3,0c0.8,0.5,1.6,0.8,2.5,0.9
	c1.1,1.6,2.4,3.6,2,6.4c0,0.5,0.2,0.8,0.2,1.3s-0.2,3.2-0.3,4.9c0.2,0.7,0.3,1.3,0.3,2c-0.2,0.5-0.6,0.8-1.1,1l0,0L540.4,407.8z
	 M533.7,400.1l-1.4,1.1c0.2,0.3-0.2,0.3-0.3,0.6s0.3,3.1,1.1,3.4c0.9,0.6,1.9,0.7,2.9,0.4c0.3-0.2,0.7-0.3,1.1-0.3
	c0.9-0.8,2-1,2.2-2.6c-0.5-0.8-1-1.6-1.7-2.3c-1-0.2-1.6-0.5-2.5-0.7l-0.2,0.2h-1.2L533.7,400.1z"/>
<path class="st0" d="M551.2,385.4c0.2,2.2-0.9,4.6,0.5,6.3c0.8-0.2,1.5-0.2,2.3-0.1c0.5,0.6,0.7,1.5,0.3,2.2
	c-0.8,0.2-2.1-0.4-2.9,0.2c-0.1,0.2-0.2,0.4-0.4,0.6c0.2,1.4-0.1,3,0.4,4.3s-0.1,2.2-0.4,3.2c0.2,1,0.3,1.9,0.3,2.9l1.1,0.8
	c1.2,0.4,2.7,0.1,2.3,1.8s-1.6,0.4-2.5,0.4c-0.6-0.3-1.2-0.5-1.8-0.6c-0.5-0.5-0.9-1.1-1.3-1.7c0-0.8-0.1-1.6-0.3-2.4
	c-0.3-2.6,0.1-5.8-0.3-9.2c-0.4-0.5-1.5-0.5-2.6-0.6c-0.3-0.7-0.3-1.5,0.1-2.1c0.9-0.1,2.6,0.1,2.9-0.9c0-0.5-0.1-1-0.2-1.5
	c0.1-1.9-0.2-3.2,0.4-4.3c0.7-0.2,1.4-0.1,1.9,0.4l0,0L551.2,385.4z"/>
<path class="st0" d="M565,391.5l0.2-0.2c1.1,0.1,1.6,0.7,2.8,0.5s2.4,2.4,3.2,3.4s0.2,2,0.9,2.8c-0.2,0.6-0.1,1.2,0.2,1.8
	c-0.1,0.4-0.1,0.8,0,1.2c0,1-0.7,1.7-0.7,2.8c-0.5,0.6-1,1.3-1.3,2.1c-0.7,0.7-1.6,1.3-2.5,1.7c-1.5,0.5-3.1,0.5-4.6,0.1
	c-0.9-0.4-1.7-0.9-2.6-1.4c-0.1-0.5-0.5-1-0.9-1.3c-0.1-0.9-0.7-1.3-0.8-2.1s-0.2-1.4-0.4-2.1s0.4-3,0.3-4.5
	c0.6-0.6,1.1-1.3,1.3-2.1c0.5-0.4,0.9-0.9,1.2-1.5c1.2-0.5,2.5-0.9,3.8-1.2l0,0L565,391.5z M563.4,394.1c-0.6,0.5-1.2,1-1.7,1.5
	c-0.9,1.8-0.9,3.8-0.8,6.4c0.4,1.3,1.1,2.5,2.1,3.4c1.1,0.5,2.3,0.7,3.5,0.7c0.6-0.4,1.2-0.8,1.8-1.1l0.5-0.8l0.3-0.2
	c0.1-0.2,0-0.5,0.1-0.9l0.4-0.5c0.1-0.8,0.2-1.7,0.4-2.5c-0.2-0.8-0.1-1.8-0.3-2.7c-0.4-0.7-0.7-1.5-1-2.3c-0.8-0.5-1.6-0.9-2.5-1.3
	c-0.5,0-1,0-1.5,0.1c-0.5,0-0.9,0.1-1.4,0.2l0,0L563.4,394.1z M569.1,383.6c0,1.3-1.2,1.6-1.5,2.7s-0.9,1.8-1.7,2.2
	c-0.5,0-0.9-0.2-1.2-0.6c0.6-1.5,1.3-2.8,2-4.4S568.5,383.5,569.1,383.6L569.1,383.6L569.1,383.6z"/>
<path class="st0" d="M589.8,407.5c-0.6,0.2-1.3,0.2-1.9,0.2c-0.4-1.3-0.2-2.7,0-4.3s-0.4-3-0.2-4.8c0-1-0.1-2.1-0.4-3.1
	c0-0.1-0.1-0.3-0.1-0.4c-0.7-1-1.7-1.1-2.6-1.7c-1.7,0-3.2,0.8-4.3,2.1c-0.1,0.8-0.6,1.4-0.7,2.4c0.2,1.2,0.2,2.4-0.1,3.5l0.3,1.2
	c-0.2,1.4-0.3,3.2-0.3,4.6c-0.5,0.4-1.1,0.5-1.7,0.4c-0.5-1-0.6-2.1-0.3-3.1c-0.1-0.6-0.1-1.1-0.2-1.7s0.2-2.3,0.2-3.6
	c0.1-0.1,0.1-0.3,0-0.4c0.1-2.2-0.1-3.8,0.2-6c-0.2-0.4-0.1-0.9,0.2-1.2c1.5-0.4,1.2,1.1,2.1,1.5c0.7-0.4,1.4-0.9,2-1.5
	c0.7,0,1.3-0.1,1.9-0.4c0.5,0.3,1-0.1,1.5,0c1.5,0.1,2.9,0.9,3.8,2.1c0,0.5,0.2,0.9,0.5,1.3c-0.2,0.6,0.3,1.1,0.2,1.8
	c0,0.3,0,0.7-0.1,1c0.1,1.2,0.2,2.3,0.2,3.5c-0.1,1.2-0.1,2.4,0.2,3.5c-0.3,1.3,0.4,2.1-0.2,3.1l0,0H589.8z"/>
<path class="st0" d="M359.5,7.6H345c-44.2,0-80,35.8-80,80v145.5c0,5.5,4.5,10,10,10h154.5c5.5,0,10-4.5,10-10V87.6
	C439.5,43.4,403.7,7.6,359.5,7.6z M382,77.6h-22v57.5h-15.5V77.6h-22v-13h22V41.1H360v23.5h22V77.6z"/>
<polygon class="st1" points="55.8,422.2 22.8,422.2 22.8,258.5 56.3,258.5 56.3,262.3 26.6,262.3 26.6,418.4 55.8,418.4 "/>
<polygon class="st1" points="675.5,422.2 642.4,422.2 642.4,418.4 671.7,418.4 671.7,262.3 641.9,262.3 641.9,258.5 675.5,258.5 "/>
<g>
	<path class="st0" d="M339.3,301.4H332v-23.9h-3.8v-4h2.2c2.5,0,4.3-0.6,5.3-1.9h3.7V301.4z"/>
	<path class="st0" d="M343.6,278.4c0-4.1,3.8-7.1,10.9-7.2c7.1,0,10.9,3.1,10.9,7.2v16.2c0,4.1-3.8,7.2-10.9,7.2s-10.9-3-10.9-7.2
		V278.4z M357.9,278.2c0-1.4-0.9-2.7-3.4-2.7c-2.5,0-3.4,1.3-3.4,2.7v16.5c0,1.5,0.9,2.7,3.4,2.7c2.5,0,3.4-1.2,3.4-2.7V278.2z"/>
</g>
</svg>
