<?xml version="1.0" encoding="utf-8"?>
<!-- Generator: Adobe Illustrator 19.2.0, SVG Export Plug-In . SVG Version: 6.00 Build 0)  -->
<svg version="1.1" id="Capa_1" xmlns="http://www.w3.org/2000/svg" xmlns:xlink="http://www.w3.org/1999/xlink" x="0px" y="0px"
	 viewBox="0 0 691.5 325.5" style="enable-background:new 0 0 691.5 325.5;" xml:space="preserve">
<style type="text/css">
	.st0{fill:#D18B2B;}
	.st1{fill:#FFFFFF;}
</style>
<g>
	<g>
		<polygon class="st0" points="43.9,134.8 11.5,134.8 11.5,66.9 44.4,66.9 44.4,69.4 13.9,69.4 13.9,132.3 43.9,132.3 		"/>
	</g>
	<g>
		<polygon class="st0" points="513.9,134.8 481.6,134.8 481.6,132.3 511.5,132.3 511.5,69.4 481.1,69.4 481.1,66.9 513.9,66.9 		"/>
	</g>
	<g>
		<path class="st1" d="M49.5,146.6c-0.1,7.3-0.5,14.3,0.4,23.2c-0.8-0.3-2-0.2-2.3-0.7c-0.4-0.3-0.2-1-0.4-1.7
			c-0.1-0.7,0.1-0.9,0-1.7c-0.4-3.7,0.6-8.1,0.2-11.7c-0.4-2.8-0.5-4.9,0.2-7.6C47.9,146.3,49.1,146.4,49.5,146.6L49.5,146.6z"/>
		<path class="st1" d="M58.2,146.6c-0.1,7.3-0.5,14.3,0.4,23.2c-0.8-0.3-2-0.2-2.3-0.7c-0.4-0.3-0.2-1-0.4-1.7
			c-0.1-0.7,0.1-0.9,0-1.7c-0.4-3.7,0.6-8.1,0.2-11.7c-0.4-2.8-0.5-4.9,0.2-7.6C56.6,146.3,57.7,146.4,58.2,146.6L58.2,146.6z"/>
		<path class="st1" d="M75.9,162.2c-2.6,0.4-5.9-0.1-8.4,0.2c-0.6,0.1-1.5,0-1.9,0.3c0.4,3.1,2,5.3,5.5,5c1.3-0.4,2.2-1.5,3.2-0.7
			c0.4,1.7-0.9,1.9-2.3,2.4c-1-0.4-1.9,0.1-2.7,0c-1.3,0.1-2.3-0.7-3.3-1c-0.4-0.7-1.3-1.2-1.8-1.8c-0.1-0.4-0.2-0.8-0.3-1.2
			c-0.2-0.5-0.4-1.2-0.6-2.2c0-1.8-0.1-3.7,0.2-5.6c0.3-0.8,0.4-1.3,0.7-2c0.3-0.9,1.1-1.1,1.5-1.8c0.7-0.2,1.2-0.4,1.8-0.7
			c1-0.2,2.8,0.3,3.8-0.2c0.6,0.4,1.4,0.5,2,0.7c0.9,0.6,1.5,1.8,2.3,2.6c-0.2,0.8,0.1,1.1,0.3,1.5c-0.1,0.7,0,1.1,0.3,1.5
			C76,160.1,76.7,161.7,75.9,162.2L75.9,162.2z M73.5,157.4c-0.4-0.8-0.9-1.3-1.4-1.8c-1.3-0.5-2.8-0.2-4.1,0c-0.7,0-1,0.7-1.6,1.1
			c-0.5,0.8-1.3,2.7-0.1,3.7c0.1-0.1,0.3-0.1,0.3,0c0.9-0.1,1.5,0,2.3-0.4c0.7,0.5,1.5,0.2,2.3,0c0.8,0.4,2.2,0.5,2.8-0.1
			C74.2,158.9,73.8,158,73.5,157.4L73.5,157.4z"/>
		<path class="st1" d="M90.3,154.4c0.7-0.3,1.2-1.7,2.2-1.1c0.4,0,0.4,0.4,0.4,0.9c0.3,2.8,0,6.5-0.2,9.7c0.7,2.3-0.2,5.2,0.1,8.3
			c-0.3,1.2-0.4,2.1-1.1,3.2c-0.7,0.6-1.5,1.1-2.2,1.6c-1.4,0.2-2.6,0.5-4.3,0.4c-0.8-0.3-1.8-0.5-2.6-0.7c-0.1-0.4-0.6-0.4-0.9-0.7
			c-0.1-0.6,0-1.1,0.2-1.4c0.9-0.4,1.5,0.2,2.1,0.4c0.7-0.1,0.9,0.1,1.3,0.2c0.6,0,1.1,0,1.8,0c0.6-0.4,1.7-0.3,2.3-0.7
			c0.7-0.4,1-1.8,1.2-2.9c-0.3-1.3,0.7-2.5-0.1-3.5c-1.2-0.1-1.4,1.1-2.2,1.2c-0.9,0.1-1.6,0-2.1,0.3c-0.8-0.4-2.2-0.2-3-0.4
			c-0.9-0.5-1.6-1-2.2-1.8c-0.5-0.8-0.8-2-1.2-3c0.3-1.2-0.5-2.8-0.2-4.6c0.1-0.6,0.5-1.1,0.4-1.9c0.4-0.8,0.7-1.8,1-2.7
			c1-1.1,2.2-1.8,3.2-2.2c1.1-0.1,2,0.4,2.7,0c0.7,0.2,1.4,0.5,2.1,0.7C89.6,153.6,89.7,154.2,90.3,154.4L90.3,154.4z M82.9,156.7
			c-0.6,1-0.7,2-1,3c-0.3,1.9,0.3,3.3,0.4,5.1c0.3,0.4,0.2,0.9,0.4,1.1c0.5,0.5,1,0.9,1.8,1.4c0-0.1,0.1-0.1,0,0
			c0.9,0,1.7,0,2.6-0.1c1.1-0.3,2-1.1,2.6-1.8c1-1.7,1.1-3.5,1.1-5.5c-0.4-0.4-0.5-1-0.4-1.7c-0.4-0.5-0.7-1.1-0.8-1.8
			c-0.8-0.2-1.1-0.8-1.5-1.1c-0.8-0.1-1.5-0.6-2.2-0.1c-0.4-0.1-0.8-0.1-1.1-0.1C84.2,155.8,83.3,156.2,82.9,156.7z"/>
		<path class="st1" d="M108.5,169.3c-0.8,0-0.8-0.9-1.5-1.1c-0.6,0.3-1.4,0.6-1.8,1c-1.3,0.2-2.9,0.4-4.4,0.2
			c-0.7-0.8-1.7-1.2-2.3-1.9c-0.4-1-0.2-2.3-0.7-3.2c0-0.9,0.2-1.5,0.3-2.4c0.3-0.4,0.6-1.1,0.9-1.5c0.2,0,0.4-0.1,0.4-0.3
			c1.4-0.7,2.6-0.7,4.6-1c1,0.6,1.5,1.2,2.5,1.4c1.2-0.4,0.1-1.8,0.3-2.9c-0.1-0.7-0.6-1.3-1.1-1.9c-0.7-0.1-1.1-0.4-1.8-0.6
			c-1.6-0.1-3,0.7-4.1,0.4c-0.4-0.5-0.7-0.9-0.6-1.6c0.4-0.6,1.5-0.5,2.1-1c1.3-0.1,2,0,3.3,0c0.7,0.4,1.5,0.7,2.5,0.9
			c1.1,1.6,2.4,3.6,2,6.4c0,0.5,0.2,0.8,0.2,1.3c0,1.8-0.2,3.2-0.3,4.9c0.1,0.9,0.3,1.2,0.3,2C109.5,168.9,109,169,108.5,169.3
			L108.5,169.3z M101.9,161.6c-0.4,0.4-0.9,0.7-1.4,1.1c0.2,0.3-0.2,0.3-0.3,0.6c-0.1,1.5,0.3,3.1,1.1,3.4c0.7,0.7,1.8,0.7,2.9,0.4
			c0.4-0.1,0.7-0.3,1.1-0.3c0.9-0.8,2-1,2.2-2.6c-0.5-1-1.1-1.6-1.7-2.3c-1-0.2-1.6-0.5-2.5-0.7c-0.1,0.1-0.2,0.2-0.2,0.2H101.9z"/>
		<path class="st1" d="M128.4,169c-0.5,0.3-1.3,0.1-1.9,0.2c-0.4-1.3-0.2-2.7,0-4.3c0-1.7-0.4-3-0.2-4.8c0-1.2-0.2-2.3-0.4-3.1
			c0-0.2-0.1-0.2-0.1-0.4c-0.7-1-1.7-1.1-2.6-1.7c-2,0.2-3.2,0.9-4.3,2.1c-0.1,0.8-0.6,1.4-0.7,2.4c0.1,1.2,0.2,2.7-0.1,3.5
			c0.1,0.5,0.2,0.8,0.3,1.2c-0.2,1.4-0.3,3.2-0.3,4.6c-0.3,0.3-1.1,0.6-1.7,0.4c-0.4-0.8-0.6-2.1-0.3-3.1c-0.1-0.6-0.1-1.1-0.2-1.7
			c0-0.8,0.2-2.3,0.2-3.6c0.1-0.2,0-0.4,0-0.4c0.1-2.2-0.1-3.8,0.2-6c-0.1-0.3-0.2-0.9,0.2-1.2c1.5-0.4,1.2,1.1,2.1,1.5
			c0.9-0.4,1.3-1,2-1.5c0.7,0,1.3-0.2,1.9-0.4c0.5,0.3,1-0.1,1.5,0c1.7,0.2,2.9,0.9,3.8,2.1c0,0.4,0.2,1,0.5,1.3
			c-0.2,0.6,0.3,1.1,0.2,1.8c0,0.3-0.1,0.6-0.1,1c0,0.8,0.4,2.3,0.2,3.5c0,0.9-0.3,2.2,0.2,3.5C128.3,167.3,129,168.1,128.4,169
			L128.4,169z"/>
		<path class="st1" d="M146,149.6c0,1,0.1,2.4,0.2,3.3c0,1-0.2,2.7-0.3,4c0.2,0.9,0.1,2,0.2,3.2c-0.1,1.1,0,2.1-0.1,3.2
			c0,0.6,0.1,1.3,0.1,1.9c0,0.7-0.1,1.2-0.1,1.9c0,0.9,0.5,1.7-0.5,2.5c-1.1,0.1-1.2-0.9-1.6-1.8c-0.9,0-1.1,0.5-1.7,0.8
			c-0.1,0.5-1,0.5-1.3,0.9c-1.1,0.2-2.8,0.2-4.1-0.2c-0.9-0.3-1.4-0.8-2.1-1.2c-0.3-0.3-0.4-0.7-0.8-0.9c-1-1.6-1.1-4.2-1.3-6.6
			c0.2-0.9,0.6-1.8,0.5-2.8c0.7-1.5,1.1-2.8,2.4-3.9c0.5-0.1,1.1-0.4,1.5-0.8c0.6,0,1.2,0,1.5-0.2c1,0.2,1.7,0.2,2.9,0.4
			c0.7,0.3,1.1,1.3,2.2,0.9c0.9-0.2,0-1.2,0.1-2c0.1-1.7,0.3-4.3,0.5-5.3c0.1-0.5,1-0.8,1.5-0.5C146.4,147.4,145.9,148.4,146,149.6z
			 M136.9,155.8c-0.7,0.7-1.3,1.6-1.7,2.6c0.3,1.6-0.4,2.6-0.2,4c0.3,1.1,0.5,2,0.5,2.8c0.5,0.4,0.7,1.1,1,1.5
			c0.6,0.1,1,0.6,1.7,0.7c1.4,0.2,3.3-0.4,4.3-1.1c0.6-1.1,1.2-2.3,1.5-3.9c-0.3-1.1,0-2.3-0.3-3.5c0-0.9-0.5-1.4-0.8-2
			c-0.8-0.9-1.5-1.2-2.8-1.5c-0.6-0.2-1.1,0.2-1.7-0.1c0,0-0.1,0-0.1,0.2C137.7,155.3,137.6,155.8,136.9,155.8L136.9,155.8z"/>
		<path class="st1" d="M157.5,152.9c0,0,0-0.1,0.2-0.2c1.1,0.1,1.6,0.7,2.8,0.5c1.6,0.7,2.4,2.4,3.2,3.4c0.4,0.7,0.2,2,0.9,2.8
			c-0.3,0.6,0,1.2,0.2,1.8c-0.2,0.4,0,0.8,0,1.2c0,1-0.7,1.7-0.7,2.8c-0.5,0.6-1,1.3-1.3,2.1c-0.8,0.5-1.5,1.4-2.5,1.7
			c-1.4,0.4-3.1,0.7-4.6,0.1c-0.9-0.4-1.7-0.9-2.6-1.4c-0.2-0.6-0.5-1-0.9-1.3c-0.1-0.9-0.7-1.3-0.8-2.1c-0.3-0.7-0.2-1.4-0.4-2.1
			c-0.2-1.5,0.4-3,0.3-4.5c0.6-0.6,1-1.2,1.3-2.1c0.5-0.4,0.9-0.8,1.2-1.5C154.7,153.8,156.2,153.2,157.5,152.9L157.5,152.9z
			 M155.9,155.6c-0.5,0.5-1.2,0.9-1.7,1.5c-0.9,1.8-0.9,3.8-0.8,6.4c0.4,1.4,1.1,2.4,2.1,3.4c0.9,0.2,2,0.8,3.5,0.7
			c0.6-0.5,1.2-0.7,1.8-1.1c0.2-0.3,0.4-0.7,0.5-0.8c0.1-0.1,0.2-0.2,0.3-0.2c0.1-0.2,0-0.5,0.1-0.9c0.1-0.2,0.3-0.4,0.4-0.5
			c0.2-0.8,0-1.6,0.4-2.5c-0.2-0.8-0.1-1.8-0.3-2.7c-0.4-0.8-0.7-1.5-1-2.3c-0.9-0.4-1.5-1-2.5-1.3c-0.4,0.2-1.2-0.1-1.5,0.1
			C156.8,155.2,156.6,155.6,155.9,155.6L155.9,155.6z"/>
		<path class="st1" d="M180,146.5c0,1.3-0.2,2.6,0,4.4c0,0.3,0,0.8,0.1,1.1c0.1,0.8-0.2,2.1,0.2,2.7c1.1-0.1,1.3-0.9,2.1-1.3
			c0.5,0,0.8-0.2,1.1-0.3c1.4-0.2,2.6,0.2,4.1,0.2c1,0.8,1.5,1.4,2.2,2.4c0,0.8,0.3,1.2,0.5,1.9c0.6,4.4,0.3,8.5,0,11.4
			c-0.8,0.9-1.5,0.2-2.1-0.1c-0.2-1.6,0-3-0.1-4.4c0-0.4,0.2-0.7,0.2-0.7c0-1.8-0.5-3.5-0.2-5.4c-0.2-0.5-0.2-1.2-0.4-1.7
			c-0.5-0.8-1.5-1-2.4-1.4c-0.8,0-1.6,0.1-2.2,0.3c-0.8,0-0.9,0.8-1.7,0.9c-0.4,0.7-0.5,1.4-1,1.9c-0.9,3.9,0,7.3-0.4,10.7
			c-0.6,0.2-1.5,0.1-2.1,0c0-1.9-0.2-4.2,0-6.8c0-0.5-0.3-1.5-0.2-2.2c0-1.9,0.4-4.1,0.1-5.5c-0.1-1.2,0.2-2.8-0.3-3.7
			c0.7-1.3,0.3-3.4,0.2-4.4C178.4,146.1,179.6,146.1,180,146.5L180,146.5z"/>
		<path class="st1" d="M205.6,169.3c-0.8,0-0.8-0.9-1.5-1.1c-0.6,0.3-1.4,0.6-1.8,1c-1.3,0.2-2.9,0.4-4.4,0.2
			c-0.7-0.8-1.7-1.2-2.3-1.9c-0.4-1-0.2-2.3-0.7-3.2c0-0.9,0.2-1.5,0.3-2.4c0.3-0.4,0.6-1.1,0.9-1.5c0.2,0,0.4-0.1,0.4-0.3
			c1.4-0.7,2.6-0.7,4.6-1c1,0.6,1.5,1.2,2.5,1.4c1.2-0.4,0.1-1.8,0.3-2.9c-0.1-0.7-0.6-1.3-1.1-1.9c-0.7-0.1-1.1-0.4-1.8-0.6
			c-1.6-0.1-3,0.7-4.1,0.4c-0.4-0.5-0.7-0.9-0.6-1.6c0.4-0.6,1.5-0.5,2.1-1c1.3-0.1,2,0,3.3,0c0.7,0.4,1.5,0.7,2.5,0.9
			c1.1,1.6,2.4,3.6,2,6.4c0,0.5,0.2,0.8,0.2,1.3c0,1.8-0.2,3.2-0.3,4.9c0.1,0.9,0.3,1.2,0.3,2C206.5,168.9,206.1,169,205.6,169.3
			L205.6,169.3z M198.9,161.6c-0.4,0.4-0.9,0.7-1.4,1.1c0.2,0.3-0.2,0.3-0.3,0.6c-0.1,1.5,0.3,3.1,1.1,3.4c0.7,0.7,1.8,0.7,2.9,0.4
			c0.4-0.1,0.7-0.3,1.1-0.3c0.9-0.8,2-1,2.2-2.6c-0.5-1-1.1-1.6-1.7-2.3c-1-0.2-1.6-0.5-2.5-0.7c-0.1,0.1-0.2,0.2-0.2,0.2H198.9z"/>
		<path class="st1" d="M217.5,155.2c-1.3,0-2.4,0.4-2.9,0.9c0,0.7-0.3,0.9-0.3,1.5c0.3,0.9,0.9,1.5,1.8,1.9c0.8,0.3,1.5,0.9,2.5,1.1
			c0.4,0.4,1.1,0.9,2,1.1c0.2,0.6,0.6,0.9,0.9,1.3c0.3,0.5,0.4,0.9,0.7,1.4c0.3,1.6-0.2,2.4-0.7,3.3c-0.5,0.4-0.7,0.9-1.3,1.2
			c-0.7,0.4-2,0.4-2.9,0.7c-2,0.1-4.5-0.1-5.3-1.8c0-0.6,0.5-0.7,0.7-1.1c1.5,0.2,3.7,1.3,5.7,0.8c0.6-0.4,1.4-1.1,1.5-2.1
			c0-1.5-1.4-2.1-2.3-2.8c-0.9-0.3-1.4-0.7-2.4-0.9c-0.9-0.5-1.8-1.1-2.5-1.9c-0.3-0.7-0.6-1.3-0.8-2c0-1,0.3-1.5,0.2-2.6
			c0.4-0.5,0.8-1,1.2-1.5c0.6-0.2,1.2-0.4,1.8-0.7c1.4-0.1,2.3-0.1,3.8,0.1c0.3,0.3,1.3,0,1.5,0.7
			C220.8,156,218.6,155.4,217.5,155.2z"/>
		<path class="st1" d="M230.8,146.9c0.2,2.2-0.9,4.6,0.5,6.3c0.8-0.1,1.6-0.2,2.3-0.1c0.4,0.4,0.7,1.5,0.3,2.2
			c-0.8,0.2-2.1-0.4-2.9,0.2c-0.1,0.1-0.1,0.5-0.4,0.6c0.2,1.4-0.1,3,0.4,4.3c-0.3,1.1-0.1,2.2-0.4,3.2c0.3,0.9,0.1,1.8,0.3,2.9
			c0.4,0.3,0.8,0.5,1.1,0.8c1.2,0.4,2.7,0.1,2.3,1.8c-0.4,0.4-1.6,0.4-2.5,0.4c-0.6-0.1-1-0.5-1.8-0.6c-0.4-0.5-0.9-1.1-1.3-1.7
			c0-1-0.2-1.5-0.3-2.4c-0.3-2.6,0.1-5.8-0.3-9.2c-0.4-0.5-1.5-0.5-2.6-0.6c-0.3-0.7-0.3-1.6,0.1-2.1c0.9-0.1,2.6,0.1,2.9-0.9
			c0-0.7-0.2-1-0.2-1.5c0.1-1.9-0.2-3.2,0.4-4.3C229.7,146.1,230.3,146.5,230.8,146.9L230.8,146.9z"/>
		<path class="st1" d="M248.7,169.3c-0.8,0-0.8-0.9-1.5-1.1c-0.6,0.3-1.4,0.6-1.8,1c-1.3,0.2-2.9,0.4-4.4,0.2
			c-0.7-0.8-1.7-1.2-2.3-1.9c-0.4-1-0.2-2.3-0.7-3.2c0-0.9,0.2-1.5,0.3-2.4c0.3-0.4,0.6-1.1,0.9-1.5c0.2,0,0.4-0.1,0.4-0.3
			c1.4-0.7,2.6-0.7,4.6-1c1,0.6,1.5,1.2,2.5,1.4c1.2-0.4,0.1-1.8,0.3-2.9c-0.1-0.7-0.6-1.3-1.1-1.9c-0.7-0.1-1.1-0.4-1.8-0.6
			c-1.6-0.1-3,0.7-4.1,0.4c-0.4-0.5-0.7-0.9-0.6-1.6c0.4-0.6,1.5-0.5,2.1-1c1.3-0.1,2,0,3.3,0c0.7,0.4,1.5,0.7,2.5,0.9
			c1.1,1.6,2.4,3.6,2,6.4c0,0.5,0.2,0.8,0.2,1.3c0,1.8-0.2,3.2-0.3,4.9c0.1,0.9,0.3,1.2,0.3,2C249.7,168.9,249.2,169,248.7,169.3
			L248.7,169.3z M242,161.6c-0.4,0.4-0.9,0.7-1.4,1.1c0.2,0.3-0.2,0.3-0.3,0.6c-0.1,1.5,0.3,3.1,1.1,3.4c0.7,0.7,1.8,0.7,2.9,0.4
			c0.4-0.1,0.7-0.3,1.1-0.3c0.9-0.8,2-1,2.2-2.6c-0.5-1-1.1-1.6-1.7-2.3c-1-0.2-1.6-0.5-2.5-0.7c-0.1,0.1-0.2,0.2-0.2,0.2H242z"/>
		<path class="st1" d="M265.9,153.4c0.1,3.3-0.2,6.6,0.2,10.1c0.1,0.5,0.1,1.5,0.4,2.1c0.7,1.3,2.2,1.7,3.5,2
			c1.3-0.4,1.8-1.1,2.8-1.4c0.4-0.9,1-2,1.1-3c-0.1-0.9,0-1.6,0.3-2.1c0.1-2.1-0.3-5.4-0.1-7.7c0.8-0.4,1.8-0.4,2.2,0.2
			c0.3,2.6,0.1,5.5,0,8c0,1.1,0.2,1.6,0,2.3c0.1,1-0.1,2.4-0.1,3.5c0.1,0.6,0.4,1.2-0.1,1.7c-0.5,0.2-1.1,0.1-1.5-0.2
			c-0.4-0.3-0.2-0.9-0.7-1.1c-0.9,0-0.9,0.6-1.6,0.9c-0.8,0.1-1.3,0.5-2,0.7c-1.8-0.2-3.5,0-4.7-0.9c-1.2-0.8-1.4-2.4-2-4
			c-0.2-0.5,0.2-0.7,0.1-1.2c0-1.6-0.2-2.7,0-4.1c-0.1-0.3-0.2-0.7-0.3-0.9c0-0.4,0.2-0.8,0.3-1.1c-0.3-0.6-0.2-1.5-0.2-2.2
			c0.1-0.4,0.1-1,0.4-1.3c0-0.2,0.2-0.4,0.4-0.4C265,153.1,265.5,153.2,265.9,153.4L265.9,153.4z"/>
		<path class="st1" d="M295.2,169c-0.5,0.3-1.3,0.1-1.9,0.2c-0.4-1.3-0.2-2.7,0-4.3c0-1.7-0.4-3-0.2-4.8c0-1.2-0.2-2.3-0.4-3.1
			c0-0.2-0.1-0.2-0.1-0.4c-0.7-1-1.7-1.1-2.6-1.7c-2,0.2-3.2,0.9-4.3,2.1c-0.1,0.8-0.6,1.4-0.7,2.4c0.1,1.2,0.2,2.7-0.1,3.5
			c0.1,0.5,0.2,0.8,0.3,1.2c-0.2,1.4-0.3,3.2-0.3,4.6c-0.3,0.3-1.1,0.6-1.7,0.4c-0.4-0.8-0.6-2.1-0.3-3.1c-0.1-0.6-0.1-1.1-0.2-1.7
			c0-0.8,0.2-2.3,0.2-3.6c0.1-0.2,0-0.4,0-0.4c0.1-2.2-0.1-3.8,0.2-6c-0.1-0.3-0.2-0.9,0.2-1.2c1.5-0.4,1.2,1.1,2.1,1.5
			c0.9-0.4,1.3-1,2-1.5c0.7,0,1.3-0.2,1.9-0.4c0.5,0.3,1-0.1,1.5,0c1.7,0.2,2.9,0.9,3.8,2.1c0,0.4,0.2,1,0.5,1.3
			c-0.2,0.6,0.3,1.1,0.2,1.8c0,0.3-0.1,0.6-0.1,1c0,0.8,0.4,2.3,0.2,3.5c0,0.9-0.3,2.2,0.2,3.5C295.1,167.3,295.8,168.1,295.2,169
			L295.2,169z"/>
		<path class="st1" d="M310.6,155.6c0.1,1,0.5,1.8,1,2.3c0.1,1,0.6,2,0.9,2.8c0.4,0.7,0.5,1.7,1.4,2.2c0.8-0.3,1-2,1.4-2.6
			c0-0.3,0.3-0.4,0.4-0.7c0-0.2-0.1-0.4,0-0.5c0-0.1,0.2-0.1,0.3-0.2c0.2-0.4,0.3-0.9,0.4-1.5c1-1,1.1-2.9,2-4.1c1,0,1.6,0,2.1,0.3
			c-0.1,1.7-1.1,2.4-1.5,3.8c-0.4,1.3-1.2,2.3-1.3,3.7c-0.8,0.8-0.9,2-1.1,3c-0.8,0.9-1.1,1.5-1.3,2.8c-0.6,0.6-0.6,1.9-1.3,2.3
			c-0.8-0.1-0.6-0.9-0.9-1.3c-0.3-0.6-0.4-1.1-0.7-1.7c-0.6-1-0.7-2.5-1.3-3.3c0-0.4-0.3-0.4-0.2-0.9c-0.3-1.1-1.4-2-1.5-3.6
			c-0.2-0.2-0.4-0.7-0.7-0.9c-0.1-1.4-1.1-2.6-0.9-3.5c-0.1-0.8,0.8-0.5,1.3-0.6C309.8,153.8,309.9,154.7,310.6,155.6z"/>
		<path class="st1" d="M329.3,152.9c0,0,0-0.1,0.2-0.2c1.1,0.1,1.6,0.7,2.8,0.5c1.6,0.7,2.4,2.4,3.2,3.4c0.4,0.7,0.2,2,0.9,2.8
			c-0.3,0.6,0,1.2,0.2,1.8c-0.2,0.4,0,0.8,0,1.2c0,1-0.7,1.7-0.7,2.8c-0.5,0.6-1,1.3-1.3,2.1c-0.8,0.5-1.5,1.4-2.5,1.7
			c-1.4,0.4-3.1,0.7-4.6,0.1c-0.9-0.4-1.7-0.9-2.6-1.4c-0.2-0.6-0.5-1-0.9-1.3c-0.1-0.9-0.7-1.3-0.8-2.1c-0.3-0.7-0.2-1.4-0.4-2.1
			c-0.2-1.5,0.4-3,0.3-4.5c0.6-0.6,1-1.2,1.3-2.1c0.5-0.4,0.9-0.8,1.2-1.5C326.5,153.8,327.9,153.2,329.3,152.9L329.3,152.9z
			 M327.7,155.6c-0.5,0.5-1.2,0.9-1.7,1.5c-0.9,1.8-0.9,3.8-0.8,6.4c0.4,1.4,1.1,2.4,2.1,3.4c0.9,0.2,2,0.8,3.5,0.7
			c0.6-0.5,1.2-0.7,1.8-1.1c0.2-0.3,0.4-0.7,0.5-0.8c0.1-0.1,0.2-0.2,0.3-0.2c0.1-0.2,0-0.5,0.1-0.9c0.1-0.2,0.3-0.4,0.4-0.5
			c0.2-0.8,0-1.6,0.4-2.5c-0.2-0.8-0.1-1.8-0.3-2.7c-0.4-0.8-0.7-1.5-1-2.3c-0.9-0.4-1.5-1-2.5-1.3c-0.4,0.2-1.2-0.1-1.5,0.1
			C328.5,155.2,328.3,155.6,327.7,155.6L327.7,155.6z"/>
		<path class="st1" d="M343.7,146.6c-0.1,7.3-0.5,14.3,0.4,23.2c-0.8-0.3-2-0.2-2.3-0.7c-0.4-0.3-0.2-1-0.4-1.7
			c-0.1-0.7,0.1-0.9,0-1.7c-0.4-3.7,0.6-8.1,0.2-11.7c-0.4-2.8-0.5-4.9,0.2-7.6C342.1,146.3,343.2,146.4,343.7,146.6L343.7,146.6z"
			/>
		<path class="st1" d="M352,153.4c0.1,3.3-0.2,6.6,0.2,10.1c0.1,0.5,0.1,1.5,0.4,2.1c0.7,1.3,2.2,1.7,3.5,2c1.3-0.4,1.8-1.1,2.8-1.4
			c0.4-0.9,1-2,1.1-3c-0.1-0.9,0-1.6,0.3-2.1c0.1-2.1-0.3-5.4-0.1-7.7c0.8-0.4,1.8-0.4,2.2,0.2c0.3,2.6,0.1,5.5,0,8
			c0,1.1,0.2,1.6,0,2.3c0.1,1-0.1,2.4-0.1,3.5c0.1,0.6,0.4,1.2-0.1,1.7c-0.5,0.2-1.1,0.1-1.5-0.2c-0.4-0.3-0.2-0.9-0.7-1.1
			c-0.9,0-0.9,0.6-1.6,0.9c-0.8,0.1-1.3,0.5-2,0.7c-1.8-0.2-3.5,0-4.7-0.9c-1.2-0.8-1.4-2.4-2-4c-0.2-0.5,0.2-0.7,0.1-1.2
			c0-1.6-0.2-2.7,0-4.1c-0.1-0.3-0.2-0.7-0.3-0.9c0-0.4,0.2-0.8,0.3-1.1c-0.3-0.6-0.2-1.5-0.2-2.2c0.1-0.4,0.1-1,0.4-1.3
			c0-0.2,0.2-0.4,0.4-0.4C351.2,153.1,351.6,153.2,352,153.4L352,153.4z M359.8,145.1c-0.2,1.4-1,1.6-1.4,2.6
			c-0.7,0.6-0.9,1.9-1.8,2.3c-0.7,0-1-0.2-1.2-0.7c0.2-1.6,1.3-2.9,1.9-4.4C357.8,144.5,359.1,144.8,359.8,145.1L359.8,145.1z"/>
		<path class="st1" d="M386.7,169.4c-0.5,0.3-1.1-0.1-1.7-0.1c-0.3-0.2,0.1-1-0.2-1.1c0-0.7,0.1-0.9,0.1-1.3
			c-0.3-1.1,0.2-2.5-0.3-3.1c0.1-0.5,0.4-0.7,0.3-1.2c-0.4-1.8-0.2-3.9,0-5.5c-0.4-1.2-2.2-2-3.8-1.5c-0.5,0.2-1.2,0.6-1.5,1.4
			c-0.1,0.4-0.4,2.4-0.4,3.3c0.1,2.2-0.1,4.4-0.3,6.2c0.3,1.1,0.7,3-0.9,3c-0.6,0-0.9-0.7-1.1-1.2c-0.1-0.2,0.2-0.6,0.1-0.9
			c0-0.7,0-1.2,0-1.9c0-0.3-0.2-0.6-0.2-0.9c0-0.6,0.2-1.1,0.2-2.2c-0.1-1.3-0.4-2.1-0.1-3.2c-0.4-0.6-0.2-1.6-0.5-2.4
			c-0.1-0.4-0.4-0.4-0.4-0.8c-0.5-0.4-1.3-0.5-1.8-0.8c-0.7,0.1-1.3,0.5-2,0.6c-0.8,1.1-1.1,2.4-1.4,4c0.4,2.1,0.5,4.4,0.2,6.7
			c0,0.9,0.1,2-0.3,2.9c-0.4,0.1-1.1,0-1.7-0.2c-0.7-1-0.1-2.1-0.3-3.4c0.1-0.3-0.1-0.6-0.1-1.1c0.1-2.6-0.1-6,0.6-8.9
			c-0.7-0.9-0.5-2.5,0.2-2.6c1.2-0.2,1,0.9,1.5,1.5c0.7-0.1,0.8-0.8,1.3-1.1c0.3-0.4,0.9-0.4,1.4-0.8c0.9,0,1.3,0.2,2.2,0.2
			c0.8,0.6,1.3,1.2,2.3,1.8c0.6-0.2,0.9-0.7,1.5-1.1c0.8-0.4,1.7-0.7,2.8-1h0.3c0.7,0.4,1.7,0.5,2.4,1c0.4,0.1,0.5,0.4,0.7,0.8
			c0.4,0.1,0.4,0.5,0.7,0.7c0.4,1.1,0.2,2.1,0.7,3.1c-0.2,2.9,0.1,5.9,0,8.9C387.1,167.8,387.1,169,386.7,169.4L386.7,169.4z"/>
		<path class="st1" d="M404.2,162.2c-2.6,0.4-5.9-0.1-8.4,0.2c-0.6,0.1-1.5,0-1.9,0.3c0.4,3.1,2,5.3,5.5,5c1.3-0.4,2.2-1.5,3.2-0.7
			c0.4,1.7-0.9,1.9-2.3,2.4c-1-0.4-1.9,0.1-2.7,0c-1.3,0.1-2.3-0.7-3.3-1c-0.4-0.7-1.3-1.2-1.8-1.8c-0.1-0.4-0.2-0.8-0.3-1.2
			c-0.2-0.5-0.4-1.2-0.6-2.2c0-1.8-0.1-3.7,0.2-5.6c0.3-0.8,0.4-1.3,0.7-2c0.3-0.9,1.1-1.1,1.5-1.8c0.7-0.2,1.2-0.4,1.8-0.7
			c1-0.2,2.8,0.3,3.8-0.2c0.6,0.4,1.4,0.5,2,0.7c0.9,0.6,1.5,1.8,2.3,2.6c-0.2,0.8,0.1,1.1,0.3,1.5c-0.1,0.7,0,1.1,0.3,1.5
			C404.3,160.1,405,161.7,404.2,162.2L404.2,162.2z M401.7,157.4c-0.4-0.8-0.9-1.3-1.4-1.8c-1.3-0.5-2.8-0.2-4.1,0
			c-0.7,0-1,0.7-1.6,1.1c-0.5,0.8-1.3,2.7-0.1,3.7c0.1-0.1,0.3-0.1,0.3,0c0.9-0.1,1.5,0,2.3-0.4c0.7,0.5,1.5,0.2,2.3,0
			c0.8,0.4,2.2,0.5,2.8-0.1C402.5,158.9,402.1,158,401.7,157.4L401.7,157.4z"/>
		<path class="st1" d="M422.1,169c-0.5,0.3-1.3,0.1-1.9,0.2c-0.4-1.3-0.2-2.7,0-4.3c0-1.7-0.4-3-0.2-4.8c0-1.2-0.2-2.3-0.4-3.1
			c0-0.2-0.1-0.2-0.1-0.4c-0.7-1-1.7-1.1-2.6-1.7c-2,0.2-3.2,0.9-4.3,2.1c-0.1,0.8-0.6,1.4-0.7,2.4c0.1,1.2,0.2,2.7-0.1,3.5
			c0.1,0.5,0.2,0.8,0.3,1.2c-0.2,1.4-0.3,3.2-0.3,4.6c-0.3,0.3-1.1,0.6-1.7,0.4c-0.4-0.8-0.6-2.1-0.3-3.1c-0.1-0.6-0.1-1.1-0.2-1.7
			c0-0.8,0.2-2.3,0.2-3.6c0.1-0.2,0-0.4,0-0.4c0.1-2.2-0.1-3.8,0.2-6c-0.1-0.3-0.2-0.9,0.2-1.2c1.5-0.4,1.2,1.1,2.1,1.5
			c0.9-0.4,1.3-1,2-1.5c0.7,0,1.3-0.2,1.9-0.4c0.5,0.3,1-0.1,1.5,0c1.7,0.2,2.9,0.9,3.8,2.1c0,0.4,0.2,1,0.5,1.3
			c-0.2,0.6,0.3,1.1,0.2,1.8c0,0.3-0.1,0.6-0.1,1c0,0.8,0.4,2.3,0.2,3.5c0,0.9-0.3,2.2,0.2,3.5C422,167.3,422.7,168.1,422.1,169
			L422.1,169z"/>
		<path class="st1" d="M447.8,149.6c0,1,0.1,2.4,0.2,3.3c0,1-0.2,2.7-0.3,4c0.2,0.9,0.1,2,0.2,3.2c-0.1,1.1,0,2.1-0.1,3.2
			c0,0.6,0.1,1.3,0.1,1.9c0,0.7-0.1,1.2-0.1,1.9c0,0.9,0.5,1.7-0.5,2.5c-1.1,0.1-1.2-0.9-1.6-1.8c-0.9,0-1.1,0.5-1.7,0.8
			c-0.1,0.5-1,0.5-1.3,0.9c-1.1,0.2-2.8,0.2-4.1-0.2c-0.9-0.3-1.4-0.8-2.1-1.2c-0.3-0.3-0.4-0.7-0.8-0.9c-1-1.6-1.1-4.2-1.3-6.6
			c0.2-0.9,0.6-1.8,0.5-2.8c0.7-1.5,1.1-2.8,2.4-3.9c0.5-0.1,1.1-0.4,1.5-0.8c0.6,0,1.2,0,1.5-0.2c1,0.2,1.7,0.2,2.9,0.4
			c0.7,0.3,1.1,1.3,2.2,0.9c0.9-0.2,0-1.2,0.1-2c0.1-1.7,0.3-4.3,0.5-5.3c0.1-0.5,1-0.8,1.5-0.5
			C448.2,147.4,447.7,148.4,447.8,149.6z M438.7,155.8c-0.7,0.7-1.3,1.6-1.7,2.6c0.3,1.6-0.4,2.6-0.2,4c0.3,1.1,0.5,2,0.5,2.8
			c0.5,0.4,0.7,1.1,1,1.5c0.6,0.1,1,0.6,1.7,0.7c1.4,0.2,3.3-0.4,4.3-1.1c0.6-1.1,1.2-2.3,1.5-3.9c-0.3-1.1,0-2.3-0.3-3.5
			c0-0.9-0.5-1.4-0.8-2c-0.8-0.9-1.5-1.2-2.8-1.5c-0.6-0.2-1.1,0.2-1.7-0.1c0,0-0.1,0-0.1,0.2C439.5,155.3,439.4,155.8,438.7,155.8
			L438.7,155.8z"/>
		<path class="st1" d="M465.6,162.2c-2.6,0.4-5.9-0.1-8.4,0.2c-0.6,0.1-1.5,0-1.9,0.3c0.4,3.1,2,5.3,5.5,5c1.3-0.4,2.2-1.5,3.2-0.7
			c0.4,1.7-0.9,1.9-2.3,2.4c-1-0.4-1.9,0.1-2.7,0c-1.3,0.1-2.3-0.7-3.3-1c-0.4-0.7-1.3-1.2-1.8-1.8c-0.1-0.4-0.2-0.8-0.3-1.2
			c-0.2-0.5-0.4-1.2-0.6-2.2c0-1.8-0.1-3.7,0.2-5.6c0.3-0.8,0.4-1.3,0.7-2c0.3-0.9,1.1-1.1,1.5-1.8c0.7-0.2,1.2-0.4,1.8-0.7
			c1-0.2,2.8,0.3,3.8-0.2c0.6,0.4,1.4,0.5,2,0.7c0.9,0.6,1.5,1.8,2.3,2.6c-0.2,0.8,0.1,1.1,0.3,1.5c-0.1,0.7,0,1.1,0.3,1.5
			C465.7,160.1,466.4,161.7,465.6,162.2L465.6,162.2z M463.1,157.4c-0.4-0.8-0.9-1.3-1.4-1.8c-1.3-0.5-2.8-0.2-4.1,0
			c-0.7,0-1,0.7-1.6,1.1c-0.5,0.8-1.3,2.7-0.1,3.7c0.1-0.1,0.3-0.1,0.3,0c0.9-0.1,1.5,0,2.3-0.4c0.7,0.5,1.5,0.2,2.3,0
			c0.8,0.4,2.2,0.5,2.8-0.1C463.9,158.9,463.5,158,463.1,157.4L463.1,157.4z"/>
	</g>
	<path class="st1" d="M607.8,153.2V208c0,2.1,1.7,3.9,3.9,3.9h57.3c2.1,0,3.9-1.7,3.9-3.9v-54.8c0,0,6.7,0.1,8.9,0.1l0,0
		c3.4,0,5.2-4.2,2.7-6.6L643,105.4c-1.5-1.5-3.9-1.5-5.5,0l-41.4,41.4c-2.4,2.4-0.7,6.6,2.7,6.6h0
		C601,153.3,607.8,153.2,607.8,153.2z"/>
	<g>
		<g>
			<polygon class="st1" points="539.6,195.5 540.5,196.8 541.4,195.6 540.5,194.4 540.5,187.9 538.9,185.7 535.7,185.7 535.3,186.1 
				535.3,189.9 534.6,190.6 534.6,192.6 535.7,194.1 535.7,195.6 534.8,196.5 535.7,197.9 537.9,197.9 			"/>
		</g>
		<g>
			<polygon class="st1" points="562,293 564.4,296.3 567.2,292.5 565.1,289.6 574.2,277 575.4,278.6 576.4,278.3 573.7,274.5 
				559.2,274.5 557.7,272.4 553.7,272.4 553.7,264.5 549.4,258.5 549.4,244.4 550.9,242.2 550.9,219.9 552.6,217.6 552.6,210 
				550.3,206.9 550.3,187 548.3,184.2 548.3,167 554.5,158.5 554.5,143.4 555.3,142.3 555.3,134.3 558.9,129.4 558.9,121.2 
				557.7,119.7 557.7,103.2 561,98.7 561,85.5 567.7,76.3 567.7,70.6 570,67.3 570.1,60.7 574.8,60.7 580.3,53.2 579.5,52.2 
				578.3,52.2 578,52.6 573.2,46 573.2,38.4 571,35.3 571,24.4 567.2,19.2 567.2,17.5 567.7,17 567.7,15.7 565.9,13.2 565.9,12.4 
				562.6,12.4 562.6,16.9 561.7,18.1 561.1,17.3 558.8,20.5 558.8,30.3 558,31.4 558,32.9 558.6,33.8 558.6,42.6 557.4,44.2 
				557.4,53.9 553.6,59.1 553.6,68 554.9,69.8 548.3,78.9 548.3,97.8 546.3,100.6 546.3,119.4 548.2,122.1 548.2,125.4 540.5,136.1 
				540.5,141.1 537.8,144.9 537.8,148 536.8,149.3 535.5,149.3 534.7,148.2 533.5,148.2 533.5,152.2 535.1,154.4 535.1,158.8 
				538.3,163.2 538.3,165.1 536,168.2 536,170.3 535,170.3 534.5,169.6 533.7,170.8 535.8,173.7 535.8,177.4 535,178.5 535,181.2 
				537.2,184.2 540.5,184.2 541.1,183.3 542.4,183.3 543.2,184.5 544.2,184.5 542.2,187.2 542.2,187.9 542.8,188.7 543.9,187.2 
				543.9,190.2 544.6,191.3 544.1,192.1 542.2,189.6 541.6,190.4 542,190.9 542.6,190.9 543.5,192.1 542.3,192.1 541.6,193.1 
				541.6,193.9 542.8,195.5 541.7,197 540.8,198.2 540.8,200 541.4,200.9 539.7,203.1 539.7,204.7 540.1,205.1 540.9,205.1 
				541.9,206.5 541.9,207.2 541.9,207.2 541.9,211.1 541.1,212.1 539.9,212.1 539.3,213 539.3,216.8 536.6,220.5 532.3,220.5 
				531.9,220 533.7,220 534.7,218.6 534.7,217.6 534.4,217.2 528.7,217.2 528.2,217.9 528.2,218.6 529.2,219.9 529.2,220.8 
				525.8,225.5 527.4,227.7 527.9,227 527.9,226.1 527.3,225.3 527.7,224.7 529.3,224.8 530.7,226.7 532.5,226.7 533.8,224.8 
				536.5,228.5 535.6,228.5 535.6,229.1 535.9,229.4 534.3,231.6 532.8,231.6 532.4,232.1 534.8,235.4 539.4,235.4 539.4,236.2 
				538.9,236.9 537,236.9 536.4,236.1 535.2,236.1 534.6,236.8 535.6,238.1 535.6,239.4 536.7,241 536.8,241 536.8,242.3 
				535.8,243.6 535.8,245.7 539.9,251.2 539,251.2 537.9,252.7 537.9,254.9 536.1,254.9 535.4,255.9 535.4,256.5 539.4,261.9 
				539.4,264.7 542.2,268.6 543.2,267.2 543.2,270 542.6,269.2 542.1,269.9 544.1,272.6 544.1,274 546.2,274 546.2,275 543.6,275 
				544.7,276.6 544.7,277.5 545.8,278.9 544.9,280.2 544.9,281.1 547.7,281.1 546.5,282.8 547.9,284.8 550.2,284.8 551.3,283.3 
				550.2,281.8 551,280.8 554.3,280.8 554.8,280.1 556.3,280.1 556.8,280.8 559.8,280.8 559.8,281.1 559.1,282.1 552.6,282.1 
				553.5,283.3 551.7,285.7 554.6,289.7 557.8,285.3 556.7,284.3 557.7,282.9 560.2,282.9 561.1,281.6 562.6,283 559.4,287.4 
				559.4,288.5 557.5,291.1 558.8,293 558.9,293 			"/>
		</g>
		<g>
			<polygon class="st1" points="592.9,312.5 590.1,308.6 591,307.3 591,305.6 589.1,303 578.5,303 578.5,280 577.9,280 577.9,280 
				574.7,280 574.2,279.3 567.5,288.7 568.7,290.4 568.7,295.1 568.1,294.3 567.7,294.9 568.4,295.9 567.3,297.3 566.7,296.5 
				566,297.4 566,297.9 560.1,297.9 560.1,299 564.1,299 568.5,305.2 569.7,303.7 569.7,303.7 573,303.7 574.1,305.2 581.6,305.2 
				582.1,304.5 584,304.5 585.5,306.5 586.8,306.5 587.3,305.9 588.6,305.9 589.1,306.6 588.2,307.8 592.3,313.3 			"/>
		</g>
	</g>
	<g>
		<path class="st1" d="M89,198.9c0.4-0.2,0.7-0.2,1-0.2c0.5,0,1,0.4,1.1,0.9v27.7c0,0.6-0.5,1.1-1.1,1.1h-5.1
			c-0.7,0-1.1-0.5-1.1-1.1v-18.4c-2.6,1.4-5.7,1.7-7.1,1.7c-0.9,0-1.5-0.8-1.5-1.6v-3.3c0-0.9,0.7-1.4,1.4-1.6
			C81.3,202.9,85.2,200.6,89,198.9z"/>
		<path class="st1" d="M101.8,220.7c2.1,0,3.9,1.8,3.9,3.9s-1.8,3.9-3.9,3.9c-2.1,0-3.9-1.8-3.9-3.9S99.6,220.7,101.8,220.7z"/>
		<path class="st1" d="M111.2,213.4c0-8.4,4.9-15.2,13.3-15.2s13.3,6.8,13.3,15.2s-4.9,15.2-13.3,15.2S111.2,221.8,111.2,213.4z
			 M130.4,213.6c0-4.5-1.6-8.4-6-8.4c-4.3,0-5.9,3.9-5.9,8.4s1.6,8.6,5.9,8.6C128.8,222.2,130.4,218.1,130.4,213.6z"/>
		<path class="st1" d="M152.8,219.3c-5.6-0.6-10.7-4.5-10.7-10.1c0-7.3,5.6-10.9,11.7-10.9c6,0,11.5,3.7,11.5,10.9
			c0,1.5-0.5,3.6-1.1,4.6l-7.4,13.4c-0.4,0.8-1,1-1.7,1h-5.4c-0.7,0-1.1-0.5-1.1-1.3L152.8,219.3z M158,208.9c0-2.3-1.9-3.8-4.2-3.8
			s-4.3,1.5-4.3,3.8s2.2,3.8,4.3,3.8C155.8,212.7,158,211.2,158,208.9z"/>
		<path class="st1" d="M180.7,219.3c-5.6-0.6-10.7-4.5-10.7-10.1c0-7.3,5.6-10.9,11.7-10.9c6,0,11.5,3.7,11.5,10.9
			c0,1.5-0.5,3.6-1.1,4.6l-7.4,13.4c-0.4,0.8-1,1-1.7,1h-5.4c-0.7,0-1.1-0.5-1.1-1.3L180.7,219.3z M185.8,208.9
			c0-2.3-1.9-3.8-4.2-3.8s-4.3,1.5-4.3,3.8s2.2,3.8,4.3,3.8C183.6,212.7,185.8,211.2,185.8,208.9z"/>
		<path class="st1" d="M222.8,220.5l-6.2-6.3v12.5c0,0.9-0.6,1.6-1.6,1.6h-4.2c-0.9,0-1.6-0.7-1.6-1.6v-27.5c0.3-0.5,0.5-0.7,1-0.7
			c0.5,0,0.7,0.2,0.9,0.6l11.7,11.7c0.3,0.3,0.5,0.4,0.6,0.4s0.3-0.1,0.6-0.4l11.7-11.7c0.3-0.4,0.5-0.6,0.9-0.6
			c0.5,0,0.7,0.2,1,0.7v27.5c0,0.9-0.6,1.6-1.6,1.6h-4.2c-0.9,0-1.6-0.7-1.6-1.6v-12.5l-6.2,6.3c-0.3,0.3-0.4,0.5-0.8,0.5
			C223.2,221,223.1,220.8,222.8,220.5z"/>
		<path class="st1" d="M251.9,227.2c0,0.6-0.5,1.1-1.1,1.1h-5.1c-0.7,0-1.1-0.5-1.1-1.1v-27.5c0-0.6,0.4-1.1,1.1-1.1h5.1
			c0.6,0,1.1,0.5,1.1,1.1V227.2z"/>
		<path class="st1" d="M258.7,199.7c0-0.6,0.4-1.1,1.1-1.1h5.1c0.6,0,1.1,0.5,1.1,1.1v21.7h12.7c0.6,0,1.1,0.5,1.1,1.1v4.6
			c0,0.7-0.5,1.1-1.1,1.1h-19c-0.7,0-1.1-0.5-1.1-1.1V199.7z"/>
		<path class="st1" d="M285.3,199.7c0-0.6,0.4-1.1,1.1-1.1h5.1c0.6,0,1.1,0.5,1.1,1.1v21.7h12.7c0.6,0,1.1,0.5,1.1,1.1v4.6
			c0,0.7-0.5,1.1-1.1,1.1h-19c-0.7,0-1.1-0.5-1.1-1.1V199.7z"/>
		<path class="st1" d="M309.6,213.4c0-8.4,6.7-15.2,15-15.2s15,6.8,15,15.2s-6.7,15.2-15,15.2S309.6,221.8,309.6,213.4z
			 M332.3,213.6c0-4.5-3.2-8.4-7.8-8.4c-4.4,0-7.7,3.9-7.7,8.4s3.2,8.6,7.7,8.6C329.1,222.2,332.3,218.1,332.3,213.6z"/>
		<path class="st1" d="M345.1,199.4c0-0.6,0.5-1,1.4-1l17.2,11.1v-9.2c0-0.9,0.6-1.6,1.6-1.6h4.2c0.9,0,1.6,0.7,1.6,1.6v27
			c0,0.6-0.5,1.1-1.1,1.1h-5.1c-0.7,0-1.1-0.5-1.1-1.1v-9l-11.2-7.4v16.4c0,0.6-0.5,1.1-1.1,1.1h-5.1c-0.7,0-1.1-0.5-1.1-1.1V199.4z
			"/>
		<path class="st1" d="M395.1,210.2c0.6,0,1.1,0.5,1.1,1.1v4.7c0,0.7-0.5,1.1-1.1,1.1h-10v4.3h12.7c0.6,0,1.1,0.5,1.1,1.1v4.7
			c0,0.7-0.5,1.1-1.1,1.1h-19c-0.6,0-1.1-0.5-1.1-1.1v-27.5c0-0.6,0.5-1.1,1.1-1.1h19c0.6,0,1.1,0.5,1.1,1.1v4.9
			c0,0.7-0.5,1.1-1.1,1.1h-12.7v4.5H395.1z"/>
		<path class="st1" d="M404.2,224.8c0-0.2,0-0.4,0.1-0.5l1.8-3.3c0.2-0.4,0.6-0.6,1-0.6c0.2,0,0.4,0,0.6,0.1c1,0.6,3.7,1.7,7.2,1.7
			c1.7,0,4.1-0.7,4.1-2c0-3.6-14.5-3.1-14.5-13c0-5.5,3.9-8.9,10.8-8.9c3.3,0,7.3,1.3,8.9,2c0.2,0.2,0.5,0.4,0.6,0.9
			c0,0.2,0,0.4-0.1,0.6l-1.7,3.9c-0.2,0.3-0.7,0.7-1.1,0.7l-0.6-0.2c-1.3-0.4-4.4-1.1-6-1.1c-3.4,0-3.7,1.7-3.7,2
			c0,3.6,14.5,3.8,14.5,13c0,5.4-6.3,8.4-10.7,8.4c-3.4,0-7.2-0.6-10.8-2.8C404.5,225.7,404.2,225.1,404.2,224.8z"/>
		<path class="st1" d="M40.5,269.1c-0.6,0-1.1-0.5-1.1-1.1v-27.5c0-0.6,0.5-1.1,1.1-1.1h9.9c8.4,0,14.3,6.6,14.3,14.9
			c0,8.4-5.9,14.7-14.3,14.7H40.5z M57.4,254.5c0-4.5-3.2-8-7.7-8h-3v15.7h3C54.2,262.2,57.4,258.9,57.4,254.5z"/>
		<path class="st1" d="M86.8,250.9c0.6,0,1.1,0.5,1.1,1.1v4.7c0,0.7-0.5,1.1-1.1,1.1h-10v4.3h12.7c0.6,0,1.1,0.5,1.1,1.1v4.7
			c0,0.7-0.5,1.1-1.1,1.1h-19c-0.6,0-1.1-0.5-1.1-1.1v-27.5c0-0.6,0.5-1.1,1.1-1.1h19c0.6,0,1.1,0.5,1.1,1.1v4.9
			c0,0.7-0.5,1.1-1.1,1.1H76.7v4.5H86.8z"/>
		<path class="st1" d="M107,240.5c0-0.6,0.4-1.1,1.1-1.1h5.1c0.6,0,1.1,0.5,1.1,1.1v21.7h12.7c0.6,0,1.1,0.5,1.1,1.1v4.6
			c0,0.7-0.5,1.1-1.1,1.1h-19c-0.7,0-1.1-0.5-1.1-1.1V240.5z"/>
		<path class="st1" d="M140.9,268c0,0.6-0.5,1.1-1.1,1.1h-5.1c-0.7,0-1.1-0.5-1.1-1.1v-27.5c0-0.6,0.4-1.1,1.1-1.1h5.1
			c0.6,0,1.1,0.5,1.1,1.1V268z"/>
		<path class="st1" d="M166.4,239.4c0.6,0,1.1,0.5,1.1,1.1v4.9c0,0.7-0.5,1.1-1.1,1.1h-6.2V268c0,0.6-0.5,1.1-1.1,1.1H154
			c-0.7,0-1.1-0.5-1.1-1.1v-21.5h-6.2c-0.6,0-1.1-0.4-1.1-1.1v-4.9c0-0.6,0.5-1.1,1.1-1.1H166.4z"/>
		<path class="st1" d="M184,259.7h-4.5v8.3c0,0.6-0.5,1.1-1.1,1.1h-5.1c-0.7,0-1.1-0.5-1.1-1.1v-27.5c0-0.6,0.4-1.1,1.1-1.1h13
			c5.1,0,9.2,4,9.2,9.8c0,3.9-1.8,6.9-4.7,8.6l5,10c0,0.8-0.5,1.4-1.3,1.4h-5c-0.9,0-1.5-0.5-1.7-1.1L184,259.7z M188,249.6
			c0-2.1-0.9-2.9-2.1-2.9h-6.4v6h6.4C187,252.7,188,251.4,188,249.6z"/>
		<path class="st1" d="M199.7,254.2c0-8.4,6.7-15.2,15-15.2s15,6.8,15,15.2c0,8.4-6.7,15.2-15,15.2S199.7,262.5,199.7,254.2z
			 M222.5,254.3c0-4.5-3.2-8.4-7.8-8.4c-4.4,0-7.7,3.9-7.7,8.4c0,4.5,3.2,8.6,7.7,8.6C219.2,262.9,222.5,258.9,222.5,254.3z"/>
		<path class="st1" d="M234.5,265.5c0-0.2,0-0.4,0.1-0.5l1.8-3.3c0.2-0.4,0.6-0.6,1-0.6c0.2,0,0.4,0,0.6,0.1c1,0.6,3.7,1.7,7.2,1.7
			c1.7,0,4.1-0.7,4.1-2c0-3.6-14.5-3.1-14.5-13c0-5.5,3.9-8.9,10.8-8.9c3.3,0,7.3,1.3,8.9,2c0.2,0.2,0.5,0.4,0.6,0.9
			c0,0.2,0,0.4-0.1,0.6l-1.7,3.9c-0.2,0.3-0.7,0.7-1.1,0.7l-0.6-0.2c-1.3-0.4-4.4-1.1-6-1.1c-3.4,0-3.7,1.7-3.7,2
			c0,3.6,14.5,3.8,14.5,13c0,5.4-6.3,8.4-10.7,8.4c-3.4,0-7.2-0.6-10.8-2.8C234.8,266.4,234.5,265.9,234.5,265.5z"/>
		<path class="st1" d="M279.6,263.7l-2.1,4.5c-0.3,0.4-0.6,0.9-1.3,0.9h-5.6c-0.6,0-1.1-0.5-1.1-1.2l13.5-27.8
			c0.4-0.4,0.9-0.8,1.5-0.8s1.1,0.4,1.5,0.8l13.5,27.8c0,0.7-0.5,1.2-1.1,1.2h-5.6c-0.6,0-1-0.5-1.3-0.9l-2.1-4.5H279.6z
			 M286.8,257.6l-2.2-4.5l-2.3,4.5H286.8z"/>
		<path class="st1" d="M303.8,240.1c0-0.6,0.5-1,1.4-1l17.2,11.1v-9.2c0-0.9,0.6-1.6,1.6-1.6h4.2c0.9,0,1.6,0.7,1.6,1.6v27
			c0,0.6-0.5,1.1-1.1,1.1h-5.1c-0.7,0-1.1-0.5-1.1-1.1v-9l-11.2-7.4V268c0,0.6-0.5,1.1-1.1,1.1h-5.1c-0.7,0-1.1-0.5-1.1-1.1V240.1z"
			/>
		<path class="st1" d="M336.4,255.8v-15.4c0-0.6,0.4-1.1,1.1-1.1h5.1c0.6,0,1.1,0.5,1.1,1.1v15.6c0,4.9,1.5,6.8,5.4,6.8
			s5.4-1.9,5.4-6.8v-15.6c0-0.6,0.5-1.1,1.1-1.1h5.1c0.7,0,1.1,0.5,1.1,1.1v15.4c0,8.2-4.2,13.5-12.7,13.5
			C340.6,269.3,336.4,264,336.4,255.8z"/>
		<path class="st1" d="M375.2,263.7l-2.1,4.5c-0.3,0.4-0.6,0.9-1.3,0.9h-5.6c-0.6,0-1.1-0.5-1.1-1.2l13.5-27.8
			c0.4-0.4,0.9-0.8,1.5-0.8s1.1,0.4,1.5,0.8l13.5,27.8c0,0.7-0.5,1.2-1.1,1.2h-5.6c-0.6,0-1-0.5-1.3-0.9l-2.1-4.5H375.2z
			 M382.4,257.6l-2.2-4.5l-2.3,4.5H382.4z"/>
		<path class="st1" d="M399.4,240.5c0-0.6,0.4-1.1,1.1-1.1h5.1c0.6,0,1.1,0.5,1.1,1.1v21.7h12.7c0.6,0,1.1,0.5,1.1,1.1v4.6
			c0,0.7-0.5,1.1-1.1,1.1h-19c-0.7,0-1.1-0.5-1.1-1.1V240.5z"/>
		<path class="st1" d="M443.3,250.9c0.6,0,1.1,0.5,1.1,1.1v4.7c0,0.7-0.5,1.1-1.1,1.1h-10v4.3H446c0.6,0,1.1,0.5,1.1,1.1v4.7
			c0,0.7-0.5,1.1-1.1,1.1h-19c-0.6,0-1.1-0.5-1.1-1.1v-27.5c0-0.6,0.5-1.1,1.1-1.1h19c0.6,0,1.1,0.5,1.1,1.1v4.9
			c0,0.7-0.5,1.1-1.1,1.1h-12.7v4.5H443.3z"/>
		<path class="st1" d="M452.4,265.5c0-0.2,0-0.4,0.1-0.5l1.8-3.3c0.2-0.4,0.6-0.6,1-0.6c0.2,0,0.4,0,0.6,0.1c1,0.6,3.7,1.7,7.2,1.7
			c1.7,0,4.1-0.7,4.1-2c0-3.6-14.5-3.1-14.5-13c0-5.5,3.9-8.9,10.8-8.9c3.3,0,7.3,1.3,8.9,2c0.2,0.2,0.5,0.4,0.6,0.9
			c0,0.2,0,0.4-0.1,0.6l-1.7,3.9c-0.2,0.3-0.7,0.7-1.1,0.7l-0.6-0.2c-1.3-0.4-4.4-1.1-6-1.1c-3.4,0-3.7,1.7-3.7,2
			c0,3.6,14.5,3.8,14.5,13c0,5.4-6.3,8.4-10.7,8.4c-3.4,0-7.2-0.6-10.8-2.8C452.7,266.4,452.4,265.9,452.4,265.5z"/>
	</g>
	<g>
		<path class="st1" d="M57.6,99.2c0.6,0,1.1,0.5,1.1,1.1v4.7c0,0.7-0.5,1.1-1.1,1.1h-10v4.3h12.7c0.6,0,1.1,0.5,1.1,1.1v4.7
			c0,0.7-0.5,1.1-1.1,1.1h-19c-0.6,0-1.1-0.5-1.1-1.1V88.7c0-0.6,0.5-1.1,1.1-1.1h19c0.6,0,1.1,0.5,1.1,1.1v4.9
			c0,0.7-0.5,1.1-1.1,1.1H47.5v4.5H57.6z"/>
		<path class="st1" d="M67.4,88.4c0-0.6,0.5-1,1.4-1l17.2,11.1v-9.2c0-0.9,0.6-1.6,1.6-1.6h4.2c0.9,0,1.6,0.7,1.6,1.6v27
			c0,0.6-0.5,1.1-1.1,1.1H87c-0.7,0-1.1-0.5-1.1-1.1v-9l-11.2-7.4v16.4c0,0.6-0.5,1.1-1.1,1.1h-5.1c-0.7,0-1.1-0.5-1.1-1.1V88.4z"/>
		<path class="st1" d="M124,117.6c-8.4,0-14.9-6.8-14.9-15.2s6.7-15.2,15.2-15.2c4.2,0,8.2,1.5,11.1,4.3c0.1,0.3,0.3,0.6,0.3,0.8
			c0,0.3-0.2,0.6-0.3,0.8l-3.2,2.8c-0.2,0.2-0.5,0.3-0.7,0.3c-0.4,0-0.6-0.1-1-0.3c-1.6-1.4-3.9-1.9-6.2-1.9c-4.5,0-7.8,3.9-7.8,8.4
			s3.6,8.6,7.8,8.6c2.8,0,3.9,0,6.7-2.1c0.3-0.3,0.6-0.4,0.9-0.4s0.5,0.1,0.7,0.3l2.5,2.8c0.2,0.2,0.4,0.4,0.4,0.8
			c0,0.3-0.2,0.6-0.3,0.8C132.5,116.6,128.7,117.6,124,117.6z"/>
		<path class="st1" d="M164.4,116.2c0,0.6-0.5,1.1-1.1,1.1h-5.1c-0.7,0-1.1-0.5-1.1-1.1v-9.9h-9.2v9.9c0,0.6-0.5,1.1-1.1,1.1h-5.1
			c-0.7,0-1.1-0.5-1.1-1.1V88.7c0-0.6,0.4-1.1,1.1-1.1h5.1c0.6,0,1.1,0.5,1.1,1.1v10.7h9.2V88.7c0-0.6,0.4-1.1,1.1-1.1h5.1
			c0.6,0,1.1,0.5,1.1,1.1V116.2z"/>
		<path class="st1" d="M178.5,116.2c0,0.6-0.5,1.1-1.1,1.1h-5.1c-0.7,0-1.1-0.5-1.1-1.1V88.7c0-0.6,0.4-1.1,1.1-1.1h5.1
			c0.6,0,1.1,0.5,1.1,1.1V116.2z"/>
		<path class="st1" d="M185.3,88.7c0-0.6,0.4-1.1,1.1-1.1h5.1c0.6,0,1.1,0.5,1.1,1.1v21.7h12.7c0.6,0,1.1,0.5,1.1,1.1v4.6
			c0,0.7-0.5,1.1-1.1,1.1h-19c-0.7,0-1.1-0.5-1.1-1.1V88.7z"/>
		<path class="st1" d="M229.3,99.2c0.6,0,1.1,0.5,1.1,1.1v4.7c0,0.7-0.5,1.1-1.1,1.1h-10v4.3H232c0.6,0,1.1,0.5,1.1,1.1v4.7
			c0,0.7-0.5,1.1-1.1,1.1h-19c-0.6,0-1.1-0.5-1.1-1.1V88.7c0-0.6,0.5-1.1,1.1-1.1h19c0.6,0,1.1,0.5,1.1,1.1v4.9
			c0,0.7-0.5,1.1-1.1,1.1h-12.7v4.5H229.3z"/>
		<path class="st1" d="M240.4,116.8c-0.7-0.7-1.3-1.7-1.3-2.8c0-2.2,1.7-3.9,4-3.9c2.1,0,3.9,1.7,3.9,3.9c0,0.6-0.2,1.3-0.4,1.7
			l-2.5,4.9c-0.2,0.4-0.6,0.7-1.1,0.7h-3.2c-0.5,0-0.8-0.3-0.8-1L240.4,116.8z"/>
		<path class="st1" d="M271.2,111.6c0.8,0,1.8-0.1,1.8-0.7c0-1.8-10-2-10-8.1c0-4.5,4.1-6.6,8.9-6.6c2.5,0,5.2,0.8,6.3,1.3
			c0.2,0.1,0.4,0.3,0.6,0.7c0,0.2,0,0.4-0.1,0.5l-0.9,3.7c-0.1,0.4-0.3,0.6-1.1,0.6c-0.3,0-2-0.6-3.9-0.6c-1.9,0-2.5,0.1-2.5,0.8
			c0,1.6,9.9,2.8,9.9,7.8c0,5.4-4.9,6.6-9.1,6.6c-2.5,0-5.2-0.5-7.8-2.2c-0.2-0.2-0.5-0.5-0.5-0.9c0-0.1,0-0.3,1-3.7
			c0.2-0.5,0.6-0.7,0.9-0.7c0.2,0,0.3,0,0.5,0.1C265.9,110.6,268.8,111.6,271.2,111.6z"/>
		<path class="st1" d="M301,117.3c-0.9,0-1.2-0.2-1.5-1l-0.3-1.1c-1.4,2-3.8,2.4-5.5,2.4c-6,0-8.7-4.5-8.7-9.5V97.5
			c0-0.6,0.4-1.1,1.1-1.1h5.1c0.6,0,1.1,0.5,1.1,1.1v10.4c0,1.8,0.2,3.3,2.7,3.3c1.7,0,2.4-1.5,2.4-3.3V97.5c0-0.6,0.4-1.1,1.1-1.1
			h5.1c0.6,0,1.1,0.5,1.1,1.1v18.7c0,0.6-0.5,1.1-1.1,1.1H301z"/>
		<path class="st1" d="M317.3,116.3c-0.3,0.8-0.6,1-1.5,1h-3.1c-0.6,0-1.1-0.5-1.1-1.1V88.7c0-0.6,0.4-1.1,1.1-1.1h5.1
			c0.6,0,1.1,0.5,1.1,1.1v8.8c1.7-1.4,4.2-1.4,5-1.4c4.8,0,9.1,4.8,9.1,10.6c0,5.8-4.2,10.8-9.7,10.8c-1.8,0-4-0.3-5.7-2.4
			L317.3,116.3z M325.6,106.8c0-2.3-1.6-3.8-3.3-3.8c-1.9,0-3.4,1.5-3.4,3.8c0,2.6,1.5,4.4,3.5,4.4
			C324.1,111.2,325.6,109.4,325.6,106.8z"/>
		<path class="st1" d="M340.9,86c2.2,0,4.1,1.8,4.1,4.1c0,2.2-1.8,4.1-4.1,4.1c-2.2,0-4.1-1.8-4.1-4.1C336.8,87.9,338.6,86,340.9,86
			z M344.5,116.2c0,0.6-0.5,1.1-1.1,1.1h-5.1c-0.7,0-1.1-0.5-1.1-1.1V97.5c0-0.6,0.4-1.1,1.1-1.1h5.1c0.6,0,1.1,0.5,1.1,1.1V116.2z"
			/>
		<path class="st1" d="M349.6,107.1c0-5.9,5-10.9,10.9-10.9c5.9,0,10.9,5.1,10.9,10.9c0,5.8-5,10.5-10.9,10.5
			C354.6,117.6,349.6,112.9,349.6,107.1z M364.1,107.1c0-2.4-1.6-4.1-3.7-4.1c-1.9,0-3.5,1.7-3.5,4.1c0,2.2,1.6,4.1,3.5,4.1
			C362.4,111.2,364.1,109.4,364.1,107.1z M360.6,84.6c0.3-0.5,0.4-0.9,1-0.9h5.1c0.7,0,1.1,0.5,1.1,1.2l-4.6,6.7
			c-0.3,0.4-0.7,0.8-1.3,0.8h-3c-0.7,0-1.1-0.5-1.1-1.2L360.6,84.6z"/>
		<path class="st1" d="M395.7,87.3c7.5,0,11.8,3.4,11.8,8.9c0,7.1-6.6,10.2-10.7,14.3h9.7c0.6,0,1.1,0.5,1.1,1.1v4.6
			c0,0.7-0.5,1.1-1.1,1.1h-19c-0.6,0-1.1-0.4-1.1-1.1v-2.7c0-7,13.6-12.4,13.6-17.1c0-0.4,0-2.3-4.3-2.3c-1.7,0-4.1,0.8-6,1.6
			c-0.2,0.1-0.4,0.2-0.6,0.2c-0.4,0-0.9-0.4-1-0.8l-1.7-3.8c-0.1-0.2-0.1-0.4-0.1-0.6c0.2-0.6,0.4-0.8,0.6-0.9
			C388.3,88.8,392.3,87.3,395.7,87.3z"/>
		<path class="st1" d="M415.2,116.8c-0.7-0.7-1.3-1.7-1.3-2.8c0-2.2,1.7-3.9,4-3.9c2.1,0,3.9,1.7,3.9,3.9c0,0.6-0.2,1.3-0.4,1.7
			l-2.5,4.9c-0.2,0.4-0.6,0.7-1.1,0.7h-3.2c-0.5,0-0.8-0.3-0.8-1L415.2,116.8z"/>
		<path class="st1" d="M440.3,87.9c0.4-0.2,0.7-0.2,1-0.2c0.5,0,1,0.4,1.1,0.9v27.7c0,0.6-0.5,1.1-1.1,1.1h-5.1
			c-0.7,0-1.1-0.5-1.1-1.1V97.8c-2.6,1.4-5.7,1.7-7.1,1.7c-0.9,0-1.5-0.8-1.5-1.6v-3.3c0-0.9,0.7-1.4,1.4-1.6
			C432.6,91.9,436.5,89.6,440.3,87.9z"/>
		<path class="st1" d="M449.2,95.4c0-4.3,3.6-7.7,7.8-7.7c4.2,0,7.8,3.4,7.8,7.7c0,4.2-3.6,7.8-7.8,7.8
			C452.8,103.2,449.2,99.6,449.2,95.4z M459.1,95.4c0-1.4-0.9-2.2-2.1-2.2c-1.2,0-2.1,0.8-2.1,2.2s0.9,2.5,2.1,2.5
			C458.2,97.8,459.1,96.8,459.1,95.4z M466.1,116.5c-0.3,0.4-0.8,0.8-1.5,0.8h-5.3c-0.6,0-1.1-0.5-1.1-1.3l14.9-27.5
			c0.2-0.4,0.6-0.9,1.3-0.9h5.5c0.7,0,1.1,0.5,1.1,1.3L466.1,116.5z M474.2,109.8c0-4.3,3.6-7.7,7.8-7.7c4.2,0,7.8,3.4,7.8,7.7
			c0,4.2-3.6,7.8-7.8,7.8C477.8,117.6,474.2,114,474.2,109.8z M484.2,109.8c0-1.4-0.9-2.2-2.1-2.2c-1.2,0-2.1,0.8-2.1,2.2
			s0.9,2.5,2.1,2.5C483.2,112.2,484.2,111.2,484.2,109.8z"/>
		<path class="st1" d="M496.8,119.8c-0.4-0.8,0.4-1.3,0.3-2.2c0-0.9-0.7-1.1-0.5-2.2c0.1-1.1,1.8-1.2,2.3-0.4c0,0.1,0.1,0.2,0.2,0.2
			c0,1.4-0.1,2.1-1,2.7C497.9,118.8,497.7,120.1,496.8,119.8L496.8,119.8z"/>
	</g>
</g>
</svg>
