<?xml version="1.0" encoding="utf-8"?>
<!-- Generator: Adobe Illustrator 19.2.0, SVG Export Plug-In . SVG Version: 6.00 Build 0)  -->
<svg version="1.1" id="Capa_1" xmlns="http://www.w3.org/2000/svg" xmlns:xlink="http://www.w3.org/1999/xlink" x="0px" y="0px"
	 viewBox="0 0 382.7 531" style="enable-background:new 0 0 382.7 531;" xml:space="preserve">
<style type="text/css">
	.st0{fill:#FFFFFF;}
	.st1{fill:#D18B2B;}
</style>
<g>
	<g>
		<path class="st0" d="M51.3,274.7c0.6,0,1.1,0.5,1.1,1.1v4.7c0,0.7-0.5,1.1-1.1,1.1h-10v4.3H54c0.6,0,1.1,0.5,1.1,1.1v4.7
			c0,0.7-0.5,1.1-1.1,1.1h-19c-0.6,0-1.1-0.5-1.1-1.1v-27.5c0-0.6,0.5-1.1,1.1-1.1h19c0.6,0,1.1,0.5,1.1,1.1v4.9
			c0,0.7-0.5,1.1-1.1,1.1H41.3v4.5H51.3z"/>
		<path class="st0" d="M68.4,291.7c0,0.6-0.5,1.1-1.1,1.1h-5.1c-0.7,0-1.1-0.5-1.1-1.1v-27.5c0-0.6,0.4-1.1,1.1-1.1h5.1
			c0.6,0,1.1,0.5,1.1,1.1V291.7z"/>
		<path class="st0" d="M99.2,293.1c-8.4,0-14.9-6.8-14.9-15.2s6.7-15.2,15.2-15.2c4.2,0,8.2,1.5,11.1,4.3c0.1,0.3,0.3,0.6,0.3,0.8
			c0,0.3-0.2,0.6-0.3,0.8l-3.2,2.8c-0.2,0.2-0.5,0.3-0.7,0.3c-0.4,0-0.6-0.1-1-0.3c-1.6-1.4-3.9-1.9-6.2-1.9c-4.5,0-7.8,3.9-7.8,8.4
			s3.6,8.6,7.8,8.6c2.8,0,3.9,0,6.7-2.1c0.3-0.3,0.6-0.4,0.9-0.4s0.5,0.1,0.7,0.3l2.5,2.8c0.2,0.2,0.4,0.4,0.4,0.8
			c0,0.3-0.2,0.6-0.3,0.8C107.7,292.1,103.9,293.1,99.2,293.1z"/>
		<path class="st0" d="M113.9,277.9c0-8.4,6.7-15.2,15-15.2s15,6.8,15,15.2s-6.7,15.2-15,15.2S113.9,286.3,113.9,277.9z
			 M136.7,278.1c0-4.5-3.2-8.4-7.8-8.4c-4.4,0-7.7,3.9-7.7,8.4s3.2,8.6,7.7,8.6C133.5,286.7,136.7,282.6,136.7,278.1z"/>
		<path class="st0" d="M149.5,263.9c0-0.6,0.5-1,1.4-1l17.2,11.1v-9.2c0-0.9,0.6-1.6,1.6-1.6h4.2c0.9,0,1.6,0.7,1.6,1.6v27
			c0,0.6-0.5,1.1-1.1,1.1h-5.1c-0.7,0-1.1-0.5-1.1-1.1v-9l-11.2-7.4v16.4c0,0.6-0.5,1.1-1.1,1.1h-5.1c-0.7,0-1.1-0.5-1.1-1.1V263.9z
			"/>
		<path class="st0" d="M181.4,289.3c0-0.2,0-0.4,0.1-0.5l1.8-3.3c0.2-0.4,0.6-0.6,1-0.6c0.2,0,0.4,0,0.6,0.1c1,0.6,3.7,1.7,7.2,1.7
			c1.7,0,4.1-0.7,4.1-2c0-3.6-14.5-3.1-14.5-13c0-5.5,3.9-8.9,10.8-8.9c3.3,0,7.3,1.3,8.9,2c0.2,0.2,0.5,0.4,0.6,0.9
			c0,0.2,0,0.4-0.1,0.6l-1.7,3.9c-0.2,0.3-0.7,0.7-1.1,0.7l-0.6-0.2c-1.3-0.4-4.4-1.1-6-1.1c-3.4,0-3.7,1.7-3.7,2
			c0,3.6,14.5,3.8,14.5,13c0,5.4-6.3,8.4-10.7,8.4c-3.4,0-7.2-0.6-10.8-2.8C181.8,290.1,181.4,289.6,181.4,289.3z"/>
		<path class="st0" d="M208.7,279.6v-15.4c0-0.6,0.4-1.1,1.1-1.1h5.1c0.6,0,1.1,0.5,1.1,1.1v15.6c0,4.9,1.5,6.8,5.4,6.8
			s5.4-1.9,5.4-6.8v-15.6c0-0.6,0.5-1.1,1.1-1.1h5.1c0.7,0,1.1,0.5,1.1,1.1v15.4c0,8.2-4.2,13.5-12.7,13.5
			C213,293.1,208.7,287.8,208.7,279.6z"/>
		<path class="st0" d="M254.4,285l-6.2-6.3v12.5c0,0.9-0.6,1.6-1.6,1.6h-4.2c-0.9,0-1.6-0.7-1.6-1.6v-27.5c0.3-0.5,0.5-0.7,1-0.7
			c0.5,0,0.7,0.2,0.9,0.6l11.7,11.7c0.3,0.3,0.5,0.4,0.6,0.4s0.3-0.1,0.6-0.4l11.7-11.7c0.3-0.4,0.5-0.6,0.9-0.6
			c0.5,0,0.7,0.2,1,0.7v27.5c0,0.9-0.6,1.6-1.6,1.6h-4.2c-0.9,0-1.6-0.7-1.6-1.6v-12.5L256,285c-0.3,0.3-0.4,0.5-0.8,0.5
			S254.7,285.3,254.4,285z"/>
		<path class="st0" d="M274.9,277.9c0-8.4,6.7-15.2,15-15.2s15,6.8,15,15.2s-6.7,15.2-15,15.2S274.9,286.3,274.9,277.9z
			 M297.7,278.1c0-4.5-3.2-8.4-7.8-8.4c-4.4,0-7.7,3.9-7.7,8.4s3.2,8.6,7.7,8.6C294.5,286.7,297.7,282.6,297.7,278.1z"/>
		<path class="st0" d="M47.4,323.8l-6.2-6.3V330c0,0.9-0.6,1.6-1.6,1.6h-4.2c-0.9,0-1.6-0.7-1.6-1.6v-27.5c0.3-0.5,0.5-0.7,1-0.7
			c0.5,0,0.7,0.2,0.9,0.6L47.6,314c0.3,0.3,0.5,0.4,0.6,0.4s0.3-0.1,0.6-0.4l11.7-11.7c0.3-0.4,0.5-0.6,0.9-0.6c0.5,0,0.7,0.2,1,0.7
			V330c0,0.9-0.6,1.6-1.6,1.6h-4.2c-0.9,0-1.6-0.7-1.6-1.6v-12.5l-6.2,6.3c-0.3,0.3-0.4,0.5-0.8,0.5S47.8,324.1,47.4,323.8z"/>
		<path class="st0" d="M69.3,318.3V303c0-0.6,0.4-1.1,1.1-1.1h5.1c0.6,0,1.1,0.5,1.1,1.1v15.6c0,4.9,1.5,6.8,5.4,6.8
			s5.4-1.9,5.4-6.8V303c0-0.6,0.5-1.1,1.1-1.1h5.1c0.7,0,1.1,0.5,1.1,1.1v15.4c0,8.2-4.2,13.5-12.7,13.5
			C73.5,331.8,69.3,326.6,69.3,318.3z"/>
		<path class="st0" d="M101.5,302.6c0-0.6,0.5-1,1.4-1l17.2,11.1v-9.2c0-0.9,0.6-1.6,1.6-1.6h4.2c0.9,0,1.6,0.7,1.6,1.6v27
			c0,0.6-0.5,1.1-1.1,1.1h-5.1c-0.7,0-1.1-0.5-1.1-1.1v-9l-11.2-7.4v16.4c0,0.6-0.5,1.1-1.1,1.1h-5.1c-0.7,0-1.1-0.5-1.1-1.1V302.6z
			"/>
		<path class="st0" d="M135.2,331.6c-0.6,0-1.1-0.5-1.1-1.1V303c0-0.6,0.5-1.1,1.1-1.1h9.9c8.4,0,14.3,6.6,14.3,14.9
			s-5.9,14.7-14.3,14.7H135.2z M152.1,317c0-4.5-3.2-8-7.7-8h-3v15.7h3C148.9,324.7,152.1,321.4,152.1,317z"/>
		<path class="st0" d="M171.4,330.5c0,0.6-0.5,1.1-1.1,1.1h-5.1c-0.7,0-1.1-0.5-1.1-1.1V303c0-0.6,0.4-1.1,1.1-1.1h5.1
			c0.6,0,1.1,0.5,1.1,1.1V330.5z"/>
		<path class="st0" d="M185.6,326.2l-2.1,4.5c-0.3,0.4-0.6,0.9-1.3,0.9h-5.6c-0.6,0-1.1-0.5-1.1-1.2l13.5-27.8
			c0.4-0.4,0.9-0.8,1.5-0.8s1.1,0.4,1.5,0.8l13.5,27.8c0,0.7-0.5,1.2-1.1,1.2h-5.6c-0.6,0-1-0.5-1.3-0.9l-2.1-4.5H185.6z
			 M192.8,320.1l-2.2-4.5l-2.3,4.5H192.8z"/>
		<path class="st0" d="M209.8,303c0-0.6,0.4-1.1,1.1-1.1h5.1c0.6,0,1.1,0.5,1.1,1.1v21.7h12.7c0.6,0,1.1,0.5,1.1,1.1v4.7
			c0,0.7-0.5,1.1-1.1,1.1h-19c-0.7,0-1.1-0.5-1.1-1.1V303z"/>
		<path class="st0" d="M260.3,329.4c-1.7,2.1-3.9,2.4-5.7,2.4c-5.5,0-9.7-5-9.7-10.8c0-5.9,4.4-10.6,9.1-10.6c0.8,0,3.2,0,5,1.4V303
			c0-0.6,0.5-1.1,1.1-1.1h5.1c0.7,0,1.1,0.5,1.1,1.1v27.5c0,0.6-0.5,1.1-1.1,1.1h-3.1c-0.9,0-1.2-0.2-1.5-1L260.3,329.4z M259,321.1
			c0-2.3-1.5-3.8-3.4-3.8c-1.8,0-3.3,1.5-3.3,3.8c0,2.6,1.5,4.4,3.3,4.4C257.5,325.5,259,323.7,259,321.1z"/>
		<path class="st0" d="M291.6,322.2c0,0.6-0.5,1.1-1.1,1.1h-11.8c0.4,2.3,2.8,2.6,4.1,2.6c1.7,0,3.1-0.1,5-0.9
			c0.1-0.1,0.2-0.1,0.3-0.1c0.2,0,0.5,0.1,0.7,0.4l1.4,2.4c0.2,0.2,0.3,0.5,0.3,0.7c0,0.3-0.1,0.7-0.3,0.9c-1.4,1.9-4.6,2.6-7.3,2.6
			c-5.9,0-11.6-2.9-11.6-10.9c0-5.8,3-10.5,10.2-10.5c5.7,0,10.1,3.3,10.1,10V322.2z M278.7,319.2h5.6c-0.3-2.1-1.9-2.4-2.7-2.4
			C280.7,316.9,279.1,317,278.7,319.2z"/>
		<path class="st0" d="M303.9,330.5c0,0.6-0.5,1.1-1.1,1.1h-5.1c-0.7,0-1.1-0.5-1.1-1.1V303c0-0.6,0.4-1.1,1.1-1.1h5.1
			c0.6,0,1.1,0.5,1.1,1.1V330.5z"/>
		<path class="st0" d="M44.7,370.2c-1.8,2.3-4.9,2.4-5.3,2.4c-1.5,0-6.9-0.6-6.9-6.9c0-4.1,2.9-5.7,6.8-5.7c1,0,3,0.2,4.1,0.8
			c-0.5-2.1-1.4-2.6-3.3-2.6c-0.6,0-2.1,0-3.2,0.3c-0.3,0.1-0.5,0.1-0.6,0.1c-0.5,0-1.1-0.2-1.4-0.7l-1.1-3.2
			c-0.1-0.2-0.1-0.5-0.1-0.8c0-0.5,0.2-0.9,0.6-1.2c3.2-1.3,4.9-1.3,6.7-1.3c6.8,0,9.8,3.7,9.8,9.6v10.5c0,0.6-0.5,1.1-1.1,1.1h-3.1
			c-0.9,0-1.2-0.2-1.5-1L44.7,370.2z M43.4,366v-1.3c-0.4-0.4-1.1-0.7-1.9-0.7c-1.5,0-2.3,0.4-2.3,1.3c0,0.9,0.9,1.4,2.3,1.4
			C41.7,366.7,42.7,366.6,43.4,366z"/>
		<path class="st0" d="M64.5,371.2c0,0.6-0.5,1.1-1.1,1.1h-5.1c-0.7,0-1.1-0.5-1.1-1.1v-27.5c0-0.6,0.4-1.1,1.1-1.1h5.1
			c0.6,0,1.1,0.5,1.1,1.1V371.2z"/>
		<path class="st0" d="M83.7,365.3c0.4-0.3,0.9-0.5,1.3-0.5c0.3,0,0.7,0.2,0.9,0.4l2,2.1c0.2,0.3,0.5,0.7,0.5,1.2
			c0,0.3-0.1,0.8-0.3,1.1c-2.3,2.5-5.1,2.9-7.7,2.9c-6,0-10.9-5-10.9-10.8c0-5.9,5-10.6,10.9-10.6c2.7,0,5.6,0.9,7.6,2.8
			c0.2,0.3,0.3,0.9,0.3,1c0,0.5-0.3,0.9-0.5,1.1l-2.1,2.7c-0.3,0.3-0.8,0.4-0.9,0.4h-0.3c-0.6-0.2-0.7-0.3-0.7-0.3
			c-0.7-0.4-1.9-0.8-3.4-0.8c-1.9,0-3.6,1.4-3.6,3.8s1.7,4.4,4,4.4C81.7,366.2,82.6,366,83.7,365.3z"/>
		<path class="st0" d="M91.3,362.1c0-5.9,5-10.9,10.9-10.9c5.9,0,10.9,5.1,10.9,10.9c0,5.8-5,10.5-10.9,10.5
			C96.3,372.6,91.3,367.9,91.3,362.1z M105.8,362.1c0-2.4-1.6-4.1-3.7-4.1c-1.9,0-3.5,1.7-3.5,4.1c0,2.2,1.6,4.1,3.5,4.1
			C104.2,366.2,105.8,364.4,105.8,362.1z"/>
		<path class="st0" d="M118.1,343.7c0-0.6,0.5-1.1,1.1-1.1h5.1c0.7,0,1.1,0.5,1.1,1.1v8.6c1.4-1,3-1.2,4.1-1.2c6,0,8.3,4.5,8.3,9.5
			v10.6c0,0.6-0.4,1.1-1.1,1.1h-5.1c-0.6,0-1.1-0.5-1.1-1.1v-9.9c0-1.8-0.2-3.3-2.7-3.3c-1.7,0-2.4,1.5-2.4,3.3v9.9
			c0,0.6-0.4,1.1-1.1,1.1h-5.1c-0.6,0-1.1-0.5-1.1-1.1V343.7z"/>
		<path class="st0" d="M142.2,362.1c0-5.9,5-10.9,10.9-10.9c5.9,0,10.9,5.1,10.9,10.9c0,5.8-5,10.5-10.9,10.5
			C147.2,372.6,142.2,367.9,142.2,362.1z M156.7,362.1c0-2.4-1.6-4.1-3.7-4.1c-1.9,0-3.5,1.7-3.5,4.1c0,2.2,1.6,4.1,3.5,4.1
			C155.1,366.2,156.7,364.4,156.7,362.1z"/>
		<path class="st0" d="M176.3,371.2c0,0.6-0.5,1.1-1.1,1.1h-5.1c-0.7,0-1.1-0.5-1.1-1.1v-27.5c0-0.6,0.4-1.1,1.1-1.1h5.1
			c0.6,0,1.1,0.5,1.1,1.1V371.2z"/>
		<path class="st0" d="M207.1,372.6c-8.4,0-14.9-6.8-14.9-15.2s6.7-15.2,15.2-15.2c4.2,0,8.2,1.5,11.1,4.3c0.1,0.3,0.3,0.6,0.3,0.8
			c0,0.3-0.2,0.6-0.3,0.8l-3.2,2.8c-0.2,0.2-0.5,0.3-0.7,0.3c-0.4,0-0.6-0.1-1-0.3c-1.6-1.4-3.9-1.9-6.2-1.9c-4.5,0-7.8,3.9-7.8,8.4
			c0,4.5,3.6,8.6,7.8,8.6c2.8,0,3.9,0,6.7-2.1c0.3-0.3,0.6-0.4,0.9-0.4s0.5,0.1,0.7,0.3l2.5,2.8c0.2,0.2,0.4,0.4,0.4,0.8
			c0,0.3-0.2,0.6-0.3,0.8C215.5,371.6,211.7,372.6,207.1,372.6z"/>
		<path class="st0" d="M231,366.9l-2.1,4.5c-0.3,0.4-0.6,0.9-1.3,0.9h-5.6c-0.6,0-1.1-0.5-1.1-1.2l13.5-27.8
			c0.4-0.4,0.9-0.8,1.5-0.8s1.1,0.4,1.5,0.8l13.5,27.8c0,0.7-0.5,1.2-1.1,1.2h-5.6c-0.6,0-1-0.5-1.3-0.9l-2.1-4.5H231z M238.2,360.9
			l-2.2-4.5l-2.3,4.5H238.2z"/>
		<path class="st0" d="M266.1,361.2v10c0,0.6-0.5,1.1-1.1,1.1h-5.1c-0.7,0-1.1-0.5-1.1-1.1v-10L248.4,344c0-0.8,0.5-1.4,1.3-1.4h5
			c0.9,0,1.5,0.5,1.7,1.1l6.2,10.1l6.2-10.1c0.2-0.6,0.7-1.1,1.7-1.1h5c0.7,0,1.3,0.5,1.3,1.4L266.1,361.2z"/>
		<path class="st0" d="M277.8,357.4c0-8.4,6.7-15.2,15-15.2s15,6.8,15,15.2s-6.7,15.2-15,15.2S277.8,365.8,277.8,357.4z
			 M300.6,357.6c0-4.5-3.2-8.4-7.7-8.4c-4.5,0-7.8,3.9-7.8,8.4c0,4.5,3.2,8.6,7.8,8.6C297.3,366.2,300.6,362.1,300.6,357.6z
			 M293.3,331.1c0.3-0.5,0.4-0.9,1-0.9h5.1c0.7,0,1.1,0.5,1.1,1.2l-4.6,6.7c-0.3,0.4-0.7,0.8-1.3,0.8h-3c-0.7,0-1.1-0.5-1.1-1.2
			L293.3,331.1z"/>
		<path class="st0" d="M32.7,398.1c0-8.4,4.9-15.2,13.3-15.2s13.3,6.8,13.3,15.2s-4.9,15.2-13.3,15.2S32.7,406.5,32.7,398.1z
			 M51.9,398.3c0-4.5-1.6-8.4-6-8.4c-4.3,0-5.9,3.9-5.9,8.4c0,4.5,1.6,8.6,5.9,8.6C50.3,406.9,51.9,402.9,51.9,398.3z"/>
		<path class="st0" d="M66,412.6c-0.7-0.7-1.3-1.7-1.3-2.8c0-2.2,1.7-3.9,4-3.9c2.1,0,3.9,1.7,3.9,3.9c0,0.6-0.2,1.3-0.4,1.7
			l-2.5,4.9c-0.2,0.4-0.6,0.7-1.1,0.7h-3.2c-0.5,0-0.8-0.3-0.8-1L66,412.6z"/>
		<path class="st0" d="M90.1,390.4H78.7c-0.6,0-1.1-0.4-1.1-1.1v-4.9c0-0.6,0.5-1.1,1.1-1.1h20.7c0.5,0,1,0.4,1,1
			c0,0.2,0,0.3-0.1,0.5l-11.5,27.1c-0.3,0.6-0.7,1.2-1.7,1.2h-5c-0.7,0-1.3-0.5-1.3-1.4L90.1,390.4z"/>
		<path class="st0" d="M104.9,391.1c0-4.3,3.6-7.7,7.8-7.7s7.8,3.4,7.8,7.7c0,4.2-3.6,7.8-7.8,7.8S104.9,395.3,104.9,391.1z
			 M114.8,391.1c0-1.4-0.9-2.2-2.1-2.2s-2.1,0.8-2.1,2.2s0.9,2.5,2.1,2.5S114.8,392.5,114.8,391.1z M121.8,412.2
			c-0.3,0.4-0.8,0.8-1.5,0.8H115c-0.6,0-1.1-0.5-1.1-1.3l14.9-27.5c0.2-0.4,0.6-0.9,1.3-0.9h5.5c0.7,0,1.1,0.5,1.1,1.3L121.8,412.2z
			 M129.9,405.5c0-4.3,3.6-7.7,7.8-7.7s7.8,3.4,7.8,7.7c0,4.2-3.6,7.8-7.8,7.8S129.9,409.7,129.9,405.5z M139.9,405.5
			c0-1.4-0.9-2.2-2.1-2.2s-2.1,0.8-2.1,2.2s0.9,2.5,2.1,2.5S139.9,406.9,139.9,405.5z"/>
		<path class="st0" d="M181.2,403.6c0,0.6-0.5,1.1-1.1,1.1h-11.8c0.4,2.3,2.8,2.6,4.1,2.6c1.7,0,3.1-0.1,5-0.9
			c0.1-0.1,0.2-0.1,0.3-0.1c0.2,0,0.5,0.1,0.7,0.4l1.4,2.4c0.2,0.2,0.3,0.5,0.3,0.7c0,0.3-0.1,0.7-0.3,0.9c-1.4,1.9-4.6,2.6-7.3,2.6
			c-5.9,0-11.6-2.9-11.6-10.9c0-5.8,3-10.5,10.2-10.5c5.7,0,10.1,3.3,10.1,10V403.6z M168.3,400.7h5.6c-0.3-2.1-1.9-2.4-2.7-2.4
			C170.3,398.4,168.7,398.5,168.3,400.7z"/>
		<path class="st0" d="M190,392.1c0.9,0,1.2,0.2,1.5,1l0.3,1.1c1.4-2,4.1-2.4,5.9-2.4c6,0,8.3,4.5,8.3,9.5v10.6
			c0,0.6-0.4,1.1-1.1,1.1h-5.1c-0.6,0-1.1-0.5-1.1-1.1v-9.9c0-1.8-0.2-3.3-2.7-3.3c-1.7,0-2.4,1.5-2.4,3.3v9.9
			c0,0.6-0.4,1.1-1.1,1.1h-5.1c-0.6,0-1.1-0.5-1.1-1.1v-18.7c0-0.6,0.5-1.1,1.1-1.1H190z"/>
		<path class="st0" d="M231.6,383c7.5,0,11.8,3.4,11.8,8.9c0,7.1-6.6,10.2-10.7,14.3h9.7c0.6,0,1.1,0.5,1.1,1.1v4.7
			c0,0.7-0.5,1.1-1.1,1.1h-19c-0.6,0-1.1-0.4-1.1-1.1v-2.7c0-7,13.6-12.4,13.6-17.1c0-0.4,0-2.3-4.3-2.3c-1.7,0-4.1,0.8-6,1.6
			c-0.2,0.1-0.4,0.2-0.6,0.2c-0.4,0-0.9-0.4-1-0.8l-1.7-3.8c-0.1-0.2-0.1-0.4-0.1-0.6c0.2-0.6,0.4-0.8,0.6-0.9
			C224.2,384.5,228.1,383,231.6,383z"/>
		<path class="st0" d="M248.3,398.1c0-8.4,4.9-15.2,13.3-15.2c8.4,0,13.3,6.8,13.3,15.2s-4.9,15.2-13.3,15.2
			C253.2,413.3,248.3,406.5,248.3,398.1z M267.6,398.3c0-4.5-1.6-8.4-6-8.4c-4.3,0-5.9,3.9-5.9,8.4c0,4.5,1.6,8.6,5.9,8.6
			C266,406.9,267.6,402.9,267.6,398.3z"/>
		<path class="st0" d="M292.1,383.6c0.4-0.2,0.7-0.2,1-0.2c0.5,0,1,0.4,1.1,0.9v27.7c0,0.6-0.5,1.1-1.1,1.1H288
			c-0.7,0-1.1-0.5-1.1-1.1v-18.4c-2.6,1.4-5.7,1.7-7.1,1.7c-0.9,0-1.5-0.8-1.5-1.6v-3.3c0-0.9,0.7-1.4,1.4-1.6
			C284.4,387.6,288.3,385.3,292.1,383.6z"/>
		<path class="st0" d="M301.6,404.3h4.6c0.6,0,1.1,0.2,1.5,1c0.7,1.1,2,1.6,3.4,1.6c1.8,0,4-0.7,4-3.6c0-1.7-1.1-3.2-3.8-3.2
			c-1.4,0-2.4,0.3-3,0.6c-0.6,0.4-1.6,0.6-2.2,0.6c-0.2,0-0.8,0-4-0.3c-0.6-0.2-1-0.6-1-1v-15.6c0-0.6,0.5-1.1,1.1-1.1h17.4
			c0.6,0,1.1,0.5,1.1,1.1v4.9c0,0.7-0.5,1.1-1.1,1.1h-11.2v3.5c1.3-0.5,2.7-0.6,3.7-0.6c5.9,0,10.4,4,10.4,10.1
			c0,6-5.3,9.9-11.1,9.9c-5.4,0-9.9-2.4-10.8-7.8C300.5,404.8,300.9,404.3,301.6,404.3z"/>
		<path class="st0" d="M327.2,415.5c-0.4-0.8,0.4-1.3,0.3-2.2c0-0.9-0.7-1.1-0.5-2.2c0.1-1.1,1.8-1.2,2.3-0.4c0,0.1,0.1,0.2,0.2,0.2
			c0,1.4-0.1,2.1-1,2.7C328.3,414.5,328.1,415.8,327.2,415.5L327.2,415.5z"/>
	</g>
	<path class="st0" d="M293.8,139.3V84.5c0-2.1-1.7-3.9-3.9-3.9h-57.3c-2.1,0-3.9,1.7-3.9,3.9v54.8c0,0-6.7-0.1-8.9-0.1h0
		c-3.4,0-5.2,4.2-2.7,6.6l41.4,41.4c1.5,1.5,3.9,1.5,5.5,0l41.4-41.4c2.4-2.4,0.7-6.6-2.7-6.6h0
		C300.5,139.2,293.8,139.3,293.8,139.3z"/>
	<g>
		<path class="st0" d="M188,70.1c-14.9-37.4-57.4-55.7-94.7-40.9c0,0,0,0,0,0c0,0,0,0,0,0c-18.1,7.2-32.3,21-40,38.9
			c-7.7,17.9-8,37.7-0.8,55.8c11.4,28.6,38.9,46,67.9,46c9,0,18.1-1.7,26.9-5.2c18.1-7.2,32.3-21,40-38.9
			C194.9,108.1,195.2,88.3,188,70.1z M178.1,111.9c-4.2-0.3-8.6-0.2-13.2,0.1c-1.1-7.7-3.1-15.6-5.8-23.6l18.7-7.4
			C180.5,91.1,180.7,101.7,178.1,111.9z M142.3,152.6c-6.3,2.5-15.7-1.7-25-11.3c5.3-3.2,11.1-6,17.2-8.4c6.1-2.4,12.3-4.3,18.3-5.6
			C152.5,140.6,148.5,150.1,142.3,152.6z M111.5,154.2c0.9,0.8,1.8,1.6,2.7,2.3c-4.6-0.5-9-1.5-13.3-2.9c1.6-1.6,3.4-3.1,5.3-4.7
			C108,150.8,109.7,152.6,111.5,154.2z M129.5,120.5c-7.4,2.9-14.4,6.5-20.7,10.4c-3.7-5.3-7.3-11.5-10.4-18.4l48.3-19.2
			c2.5,7.2,4.1,14.2,5.1,20.6C144.4,115.4,136.9,117.6,129.5,120.5z M62.5,112.5c-2.7-10.1-2.7-20.7,0-30.8c1.7,0.1,3.4,0.2,5.1,0.2
			c2.6,0,5.2-0.1,7.8-0.3c1.1,7.7,3,15.6,5.7,23.6L62.5,112.5z M98.1,41.6c1.2-0.5,2.5-0.7,3.9-0.7c5.8,0,13.2,4,20.5,11.4
			c-5.2,3.1-10.9,5.9-16.9,8.3c-6,2.4-12,4.2-18,5.6C88.1,53.2,92,44.1,98.1,41.6z M128.9,40c-0.9-0.8-1.8-1.6-2.7-2.3
			c4.3,0.4,8.5,1.3,12.6,2.7c-1.6,1.5-3.3,2.9-5.1,4.4C132.1,43.1,130.5,41.5,128.9,40z M88.5,79.6c7.3-1.5,14.7-3.7,22.1-6.6
			c7.3-2.9,14.3-6.4,20.6-10.3c3.8,5.3,7.3,11.4,10.5,18.4l-48.3,19.2C91,92.9,89.4,86,88.5,79.6z M172.7,68.7l-18.6,7.4
			c-3.5-7.7-7.6-14.8-12.1-21.1c3.5-2.8,6.7-5.7,9.5-8.7C160.2,51.7,167.6,59.3,172.7,68.7z M75.1,57.9c-0.2,1.2-0.3,2.4-0.4,3.6
			c-0.2,2.2-0.3,4.4-0.2,6.7c-2.3,0.2-4.5,0.3-6.7,0.3C69.8,64.8,72.3,61.2,75.1,57.9z M67.3,124.8l18.7-7.4
			c3.5,7.7,7.5,14.8,11.9,21.2c-3.6,2.9-6.8,5.9-9.7,8.9C79.6,142.1,72.3,134.4,67.3,124.8z M165.3,136.3c0.2-1.2,0.3-2.4,0.4-3.6
			c0.2-2.4,0.3-4.9,0.2-7.5c2.4-0.2,4.8-0.3,7.1-0.3C170.9,129,168.3,132.8,165.3,136.3z"/>
		<path class="st0" d="M155,184.6c3.4-1.4,5.1-5.2,3.7-8.6c-1.4-3.4-5.2-5.1-8.6-3.7c-20.1,8-42.1,7.7-61.9-0.9
			C68.3,162.9,53,147.1,45,127s-7.7-42.1,0.9-61.9c8.6-19.8,24.3-35.2,44.4-43.2c3.4-1.4,5.1-5.2,3.7-8.6s-5.2-5.1-8.6-3.7
			C62,18.9,43.7,36.7,33.7,59.8c-10,23.1-10.3,48.7-1,72.1s27.1,41.7,50.2,51.7c9.7,4.2,19.9,6.7,30.2,7.5v23.5H84.4
			c-2.7,0-4.9,2.2-4.9,4.9s2.2,4.9,4.9,4.9h69.2c2.7,0,4.9-2.2,4.9-4.9s-2.2-4.9-4.9-4.9h-28.7v-23.4
			C135.1,190.7,145.2,188.5,155,184.6z"/>
	</g>
	<g>
		<polygon class="st1" points="44.7,430.1 11.5,430.1 11.5,245.2 45.2,245.2 45.2,249.2 15.5,249.2 15.5,426.1 44.7,426.1 		"/>
	</g>
	<g>
		<polygon class="st1" points="359.5,430.1 326.4,430.1 326.4,426.1 355.5,426.1 355.5,249.2 325.9,249.2 325.9,245.2 359.5,245.2 
					"/>
	</g>
	<g>
		<path class="st0" d="M28,449.5c-0.1,7.3-0.5,14.3,0.4,23.2c-0.8-0.3-2-0.2-2.3-0.7c-0.4-0.3-0.2-1-0.4-1.7c-0.1-0.7,0.1-0.9,0-1.7
			c-0.4-3.7,0.6-8.1,0.2-11.7c-0.4-2.8-0.5-4.9,0.2-7.6C26.3,449.2,27.5,449.3,28,449.5L28,449.5z"/>
		<path class="st0" d="M43.6,472.2c-0.8,0-0.8-0.9-1.5-1.1c-0.6,0.3-1.4,0.6-1.8,1c-1.3,0.2-2.9,0.4-4.4,0.2
			c-0.7-0.8-1.7-1.2-2.3-1.9c-0.4-1-0.2-2.3-0.7-3.2c0-0.9,0.2-1.5,0.3-2.4c0.3-0.4,0.6-1.1,0.9-1.5c0.2,0,0.4-0.1,0.4-0.3
			c1.4-0.7,2.6-0.7,4.6-1c1,0.6,1.5,1.2,2.5,1.4c1.2-0.4,0.1-1.8,0.3-2.9c-0.1-0.7-0.6-1.3-1.1-1.9c-0.7-0.1-1.1-0.4-1.8-0.6
			c-1.6-0.1-3,0.7-4.1,0.4c-0.4-0.5-0.7-0.9-0.6-1.6c0.4-0.6,1.5-0.5,2.1-1c1.3-0.1,2,0,3.3,0c0.7,0.4,1.5,0.7,2.5,0.9
			c1.1,1.6,2.4,3.6,2,6.4c0,0.5,0.2,0.8,0.2,1.3c0,1.8-0.2,3.2-0.3,4.9c0.1,0.9,0.3,1.2,0.3,2C44.6,471.9,44.1,471.9,43.6,472.2
			L43.6,472.2z M36.9,464.6c-0.4,0.4-0.9,0.7-1.4,1.1c0.2,0.3-0.2,0.3-0.3,0.6c-0.1,1.5,0.3,3.1,1.1,3.4c0.7,0.7,1.8,0.7,2.9,0.4
			c0.4-0.1,0.7-0.3,1.1-0.3c0.9-0.8,2-1,2.2-2.6c-0.5-1-1.1-1.6-1.7-2.3c-1-0.2-1.6-0.5-2.5-0.7c-0.1,0.1-0.2,0.2-0.2,0.2H36.9z"/>
		<path class="st0" d="M61.7,471.2c-0.1,0-0.1,0.1-0.3,0.1c-0.7,0.2-0.2,1-0.2,1.6c-0.2,0.9-0.1,2.4,0,3.2c-0.2,0.9,0,2.3-0.4,3.1
			c-0.5,0.1-1.2,0.2-1.8,0c-0.6-0.8-0.2-1.4-0.1-2.2c0.3-2.2-0.1-4.8-0.2-6.8c0-0.4,0.2-0.8,0.2-1.1c0-0.4-0.2-0.7-0.2-1
			c0-0.3,0.2-0.5,0.2-0.8c0-0.9-0.1-1.8,0-2.7v-1c0-2.1-0.3-3.9-0.2-6.1c-0.1-0.7,0-1.2,0.7-1.4c0.4,0,1,0,1.1,0.2
			c0.3,0.3,0.3,0.8,0.7,0.8c1.1-0.2,1.8-0.5,2.6-1.1c0.4,0.2,0.9-0.1,1.2-0.2h1.1c1,0,1.8,0.4,2.6,0.7c0.8,0.4,1.1,1,1.8,1.3
			c0.7,1.5,1,2.6,1.5,4.2c0,1.8,0.2,3.5,0.1,5.4c-0.4,0.6-0.6,1.2-0.8,2c-0.4,0.8-1,1.3-1.7,2.1c-0.8,0.3-1.5,0.7-2.7,0.8
			c-1.3,0-1.8,0.2-3.1,0.1C62.9,472.1,62.8,471,61.7,471.2L61.7,471.2z M63.5,458.6c-0.4,0.4-1,1-1.4,1.4c-1,1.3-0.8,3-0.9,4.8
			c0.1,0.8,0.2,1.5,0.3,2.5c0.7,1,0.9,2.2,1.8,2.4c1.1,0.3,2.5,0.7,3.7,0.8c0.6-0.3,1-0.8,1.5-0.9c0.7-0.9,1-1.8,1.5-2.9
			c0.3-2,0.2-4.4-0.6-6.2c-0.2-0.9-0.9-1.6-1.9-2.1c-0.7-0.2-1.9-0.4-2.4-0.2C64.3,458.3,63.9,458.5,63.5,458.6L63.5,458.6z"/>
		<path class="st0" d="M83.5,455.9c0.5,0.3,0.6,1.3,0.4,2.1c-0.9,0.3-2.2,0.4-2.9,0.5c-1,0.5-1.2,2-1.8,3c0.1,3.2,0.1,7-0.4,11
			c-0.3-0.1-1.1-0.2-1.6-0.3c-0.6-0.9-0.1-1.5-0.1-2.5c0-0.4-0.2-1-0.2-1.5c0-0.4,0.1-0.8,0.1-1.1c0.1-1.8-0.2-3.7-0.1-5.9
			c0.1-0.7,0.2-1.7-0.1-2.8c0.3-0.9,0-1.8,0.8-2.2c0.5,0,0.8,0.2,1.1,0.4c0.3,0.2,0.2,0.8,0.7,0.8c0.8-0.2,1.3-0.8,2.2-1.1
			c0.3-0.2,1.3,0,1.6-0.3H83.5z"/>
		<path class="st0" d="M91,451.8c0.2,1.3-0.4,1.5-0.9,2.1c-1.5,0.2-2.5-0.3-2.4-1.9c0,0,0.1-0.2,0.2-0.4
			C88.9,450.7,90.3,450.7,91,451.8L91,451.8z M89.9,472.4c-0.7,0-1.2-0.2-1.7-0.3c-0.1-2.8-0.1-5.1-0.4-8.2c0.3-0.6,0.4-1.3,0.5-2.2
			c-0.2-1-0.2-2-0.2-2.8c0-0.8-0.3-1.7,0.3-2.4c0.5,0,0.8-0.5,1.1-0.2c1.3,0.4,0.8,1.9,0.9,2.9c-0.1,2.4,0,4.4,0.3,7.8
			c-0.3,0.8-0.1,2-0.2,2.8C90.5,470.8,90.6,471.7,89.9,472.4L89.9,472.4z"/>
		<path class="st0" d="M114.8,472.3c-0.5,0.3-1.1-0.1-1.7-0.1c-0.3-0.2,0.1-1-0.2-1.1c0-0.7,0.1-0.9,0.1-1.3
			c-0.3-1.1,0.2-2.5-0.3-3.1c0.1-0.5,0.4-0.7,0.3-1.2c-0.4-1.8-0.2-3.9,0-5.5c-0.4-1.2-2.2-2-3.8-1.5c-0.5,0.2-1.2,0.6-1.5,1.4
			c-0.1,0.4-0.4,2.4-0.4,3.3c0.1,2.2-0.1,4.4-0.3,6.2c0.3,1.1,0.7,3-0.9,3c-0.6,0-0.9-0.7-1.1-1.2c-0.1-0.2,0.2-0.6,0.1-0.9
			c0-0.7,0-1.2,0-1.9c0-0.3-0.2-0.6-0.2-0.9c0-0.6,0.2-1.1,0.2-2.2c-0.1-1.3-0.4-2.1-0.1-3.2c-0.4-0.6-0.2-1.6-0.5-2.4
			c-0.1-0.4-0.4-0.4-0.4-0.8c-0.5-0.4-1.3-0.5-1.8-0.8c-0.7,0.1-1.3,0.5-2,0.6c-0.8,1.1-1.1,2.4-1.4,4c0.4,2.1,0.5,4.4,0.2,6.7
			c0,0.9,0.1,2-0.3,2.9c-0.4,0.1-1.1,0-1.7-0.2c-0.7-1-0.1-2.1-0.3-3.4c0.1-0.3-0.1-0.6-0.1-1.1c0.1-2.6-0.1-6,0.6-8.9
			c-0.7-0.9-0.5-2.5,0.2-2.6c1.2-0.2,1,0.9,1.5,1.5c0.7-0.1,0.8-0.8,1.3-1.1c0.3-0.4,0.9-0.4,1.4-0.8c0.9,0,1.3,0.2,2.2,0.2
			c0.8,0.6,1.3,1.2,2.3,1.8c0.6-0.2,0.9-0.7,1.5-1.1c0.8-0.4,1.7-0.7,2.8-1h0.3c0.7,0.4,1.7,0.5,2.4,1c0.4,0.1,0.5,0.4,0.7,0.8
			c0.4,0.1,0.4,0.5,0.7,0.7c0.4,1.1,0.2,2.1,0.7,3.1c-0.2,2.9,0.1,5.9,0,8.9C115.2,470.8,115.2,472,114.8,472.3L114.8,472.3z"/>
		<path class="st0" d="M132.3,465.1c-2.6,0.4-5.9-0.1-8.4,0.2c-0.6,0.1-1.5,0-1.9,0.3c0.4,3.1,2,5.3,5.5,5c1.3-0.4,2.2-1.5,3.2-0.7
			c0.4,1.7-0.9,1.9-2.3,2.4c-1-0.4-1.9,0.1-2.7,0c-1.3,0.1-2.3-0.7-3.3-1c-0.4-0.7-1.3-1.2-1.8-1.8c-0.1-0.4-0.2-0.8-0.3-1.2
			c-0.2-0.5-0.4-1.2-0.6-2.2c0-1.8-0.1-3.7,0.2-5.6c0.3-0.8,0.4-1.3,0.7-2c0.3-0.9,1.1-1.1,1.5-1.8c0.7-0.2,1.2-0.4,1.8-0.7
			c1-0.2,2.8,0.3,3.8-0.2c0.6,0.4,1.4,0.5,2,0.7c0.9,0.6,1.5,1.8,2.3,2.6c-0.2,0.8,0.1,1.1,0.3,1.5c-0.1,0.7,0,1.1,0.3,1.5
			C132.4,463.1,133.1,464.6,132.3,465.1L132.3,465.1z M129.8,460.4c-0.4-0.8-0.9-1.3-1.4-1.8c-1.3-0.5-2.8-0.2-4.1,0
			c-0.7,0-1,0.7-1.6,1.1c-0.5,0.8-1.3,2.7-0.1,3.7c0.1-0.1,0.3-0.1,0.3,0c0.9-0.1,1.5,0,2.3-0.4c0.7,0.5,1.5,0.2,2.3,0
			c0.8,0.4,2.2,0.5,2.8-0.1C130.6,461.8,130.2,461,129.8,460.4L129.8,460.4z"/>
		<path class="st0" d="M143.9,455.9c0.5,0.3,0.6,1.3,0.4,2.1c-0.9,0.3-2.2,0.4-2.9,0.5c-1,0.5-1.2,2-1.8,3c0.1,3.2,0.1,7-0.4,11
			c-0.3-0.1-1.1-0.2-1.6-0.3c-0.6-0.9-0.1-1.5-0.1-2.5c0-0.4-0.2-1-0.2-1.5c0-0.4,0.1-0.8,0.1-1.1c0.1-1.8-0.2-3.7-0.1-5.9
			c0.1-0.7,0.2-1.7-0.1-2.8c0.3-0.9,0-1.8,0.8-2.2c0.5,0,0.8,0.2,1.1,0.4c0.3,0.2,0.2,0.8,0.7,0.8c0.8-0.2,1.3-0.8,2.2-1.1
			c0.3-0.2,1.3,0,1.6-0.3H143.9z"/>
		<path class="st0" d="M157.7,472.2c-0.8,0-0.8-0.9-1.5-1.1c-0.6,0.3-1.4,0.6-1.8,1c-1.3,0.2-2.9,0.4-4.4,0.2
			c-0.7-0.8-1.7-1.2-2.3-1.9c-0.4-1-0.2-2.3-0.7-3.2c0-0.9,0.2-1.5,0.3-2.4c0.3-0.4,0.6-1.1,0.9-1.5c0.2,0,0.4-0.1,0.4-0.3
			c1.4-0.7,2.6-0.7,4.6-1c1,0.6,1.5,1.2,2.5,1.4c1.2-0.4,0.1-1.8,0.3-2.9c-0.1-0.7-0.6-1.3-1.1-1.9c-0.7-0.1-1.1-0.4-1.8-0.6
			c-1.6-0.1-3,0.7-4.1,0.4c-0.4-0.5-0.7-0.9-0.6-1.6c0.4-0.6,1.5-0.5,2.1-1c1.3-0.1,2,0,3.3,0c0.7,0.4,1.5,0.7,2.5,0.9
			c1.1,1.6,2.4,3.6,2,6.4c0,0.5,0.2,0.8,0.2,1.3c0,1.8-0.2,3.2-0.3,4.9c0.1,0.9,0.3,1.2,0.3,2C158.7,471.9,158.2,471.9,157.7,472.2
			L157.7,472.2z M151,464.6c-0.4,0.4-0.9,0.7-1.4,1.1c0.2,0.3-0.2,0.3-0.3,0.6c-0.1,1.5,0.3,3.1,1.1,3.4c0.7,0.7,1.8,0.7,2.9,0.4
			c0.4-0.1,0.7-0.3,1.1-0.3c0.9-0.8,2-1,2.2-2.6c-0.5-1-1.1-1.6-1.7-2.3c-1-0.2-1.6-0.5-2.5-0.7c-0.1,0.1-0.2,0.2-0.2,0.2H151z"/>
		<path class="st0" d="M182.8,457.9c-0.2,1.5-1.9,0.8-2.7,0.4c-1.1,0-2.6-0.1-3.2,0.1c-0.8,0.4-1.3,1.2-2.1,1.7
			c-0.2,0.7-0.4,1.5-0.8,2.3c-0.2,1.9,0,3.7,0.4,5.2c0.3,0.8,1,1.6,1.8,2.1c0.6,0.3,1.3,0.3,1.7,0.7c0.4,0,0.9-0.1,1.1,0.1
			c1.1-0.1,2.2-0.7,3.1-0.7c0.2,0.5,0.3,0.9,0.4,1.3c-0.2,1-1.9,1.1-3,1.3c-1-0.1-1.5-0.1-2.6-0.1c-0.9-0.4-1.7-0.8-2.5-1.2
			c-1.1-0.9-1.5-1.8-2.2-2.9c-0.2-1-0.4-1.8-0.7-2.4c0-1.1,0-2.2,0.1-3.4c0.3-1.3,0.7-1.9,1.1-3.2c0.7-0.9,1.8-2,2.9-2.9
			c0.5-0.1,1.3-0.1,1.8-0.4c1.1-0.1,2.2,0.1,3.2,0.1C181.5,456.7,182.7,456.6,182.8,457.9L182.8,457.9z"/>
		<path class="st0" d="M196.8,472.2c-0.8,0-0.8-0.9-1.5-1.1c-0.6,0.3-1.4,0.6-1.8,1c-1.3,0.2-2.9,0.4-4.4,0.2
			c-0.7-0.8-1.7-1.2-2.3-1.9c-0.4-1-0.2-2.3-0.7-3.2c0-0.9,0.2-1.5,0.3-2.4c0.3-0.4,0.6-1.1,0.9-1.5c0.2,0,0.4-0.1,0.4-0.3
			c1.4-0.7,2.6-0.7,4.6-1c1,0.6,1.5,1.2,2.5,1.4c1.2-0.4,0.1-1.8,0.3-2.9c-0.1-0.7-0.6-1.3-1.1-1.9c-0.7-0.1-1.1-0.4-1.8-0.6
			c-1.6-0.1-3,0.7-4.1,0.4c-0.4-0.5-0.7-0.9-0.6-1.6c0.4-0.6,1.5-0.5,2.1-1c1.3-0.1,2,0,3.3,0c0.7,0.4,1.5,0.7,2.5,0.9
			c1.1,1.6,2.4,3.6,2,6.4c0,0.5,0.2,0.8,0.2,1.3c0,1.8-0.2,3.2-0.3,4.9c0.1,0.9,0.3,1.2,0.3,2C197.8,471.9,197.3,471.9,196.8,472.2
			L196.8,472.2z M190.1,464.6c-0.4,0.4-0.9,0.7-1.4,1.1c0.2,0.3-0.2,0.3-0.3,0.6c-0.1,1.5,0.3,3.1,1.1,3.4c0.7,0.7,1.8,0.7,2.9,0.4
			c0.4-0.1,0.7-0.3,1.1-0.3c0.9-0.8,2-1,2.2-2.6c-0.5-1-1.1-1.6-1.7-2.3c-1-0.2-1.6-0.5-2.5-0.7c-0.1,0.1-0.2,0.2-0.2,0.2H190.1z"/>
		<path class="st0" d="M205.9,472.4c-0.8,0.1-1.2-0.1-1.6-0.2c0-2.8-0.1-5.1,0.1-8.3c-0.2-0.6,0-1.3-0.2-2.2c0-1-0.2-1.8-0.1-2.8
			c0-0.8-0.1-1.8,0.3-2.5c0.6,0.1,0.8-0.4,1.1-0.2c1.5,0.4,0.8,1.8,0.8,3c0.1,2.6-0.1,4.2-0.1,7.7c0.3,0.8,0.3,2,0.2,2.7
			C206.4,470.7,206.6,471.7,205.9,472.4L205.9,472.4z M209,448c-0.2,1.4-1.1,1.7-1.3,2.7c-0.9,0.6-1,1.6-1.8,2.3
			c-0.8,0-1-0.4-1.3-0.8c0.5-1.3,1.1-2.6,1.6-4.3C207,447.5,208.3,447.8,209,448L209,448z"/>
		<path class="st0" d="M224.3,452.5c0,1,0.1,2.4,0.2,3.3c0,1-0.2,2.7-0.3,4c0.2,0.9,0.1,2,0.2,3.2c-0.1,1.1,0,2.1-0.1,3.2
			c0,0.6,0.1,1.3,0.1,1.9c0,0.7-0.1,1.2-0.1,1.9c0,0.9,0.5,1.7-0.5,2.5c-1.1,0.1-1.2-0.9-1.6-1.8c-0.9,0-1.1,0.5-1.7,0.8
			c-0.1,0.5-1,0.5-1.3,0.9c-1.1,0.2-2.8,0.2-4.1-0.2c-0.9-0.3-1.4-0.8-2.1-1.2c-0.3-0.3-0.4-0.7-0.8-0.9c-1-1.6-1.1-4.2-1.3-6.6
			c0.2-0.9,0.6-1.8,0.5-2.8c0.7-1.5,1.1-2.8,2.4-3.9c0.5-0.1,1.1-0.4,1.5-0.8c0.6,0,1.2,0,1.5-0.2c1,0.2,1.7,0.2,2.9,0.4
			c0.7,0.3,1.1,1.3,2.2,0.9c0.9-0.2,0-1.2,0.1-2c0.1-1.7,0.3-4.3,0.5-5.3c0.1-0.5,1-0.8,1.5-0.5
			C224.7,450.4,224.2,451.3,224.3,452.5z M215.2,458.7c-0.7,0.7-1.3,1.6-1.7,2.6c0.3,1.6-0.4,2.6-0.2,4c0.3,1.1,0.5,2,0.5,2.8
			c0.5,0.4,0.7,1.1,1,1.5c0.6,0.1,1,0.6,1.7,0.7c1.4,0.2,3.3-0.4,4.3-1.1c0.6-1.1,1.2-2.3,1.5-3.9c-0.3-1.1,0-2.3-0.3-3.5
			c0-0.9-0.5-1.4-0.8-2c-0.8-0.9-1.5-1.2-2.8-1.5c-0.6-0.2-1.1,0.2-1.7-0.1c0,0-0.1,0-0.1,0.2C216,458.3,215.9,458.7,215.2,458.7
			L215.2,458.7z"/>
		<path class="st0" d="M240,472.2c-0.8,0-0.8-0.9-1.5-1.1c-0.6,0.3-1.4,0.6-1.8,1c-1.3,0.2-2.9,0.4-4.4,0.2
			c-0.7-0.8-1.7-1.2-2.3-1.9c-0.4-1-0.2-2.3-0.7-3.2c0-0.9,0.2-1.5,0.3-2.4c0.3-0.4,0.6-1.1,0.9-1.5c0.2,0,0.4-0.1,0.4-0.3
			c1.4-0.7,2.6-0.7,4.6-1c1,0.6,1.5,1.2,2.5,1.4c1.2-0.4,0.1-1.8,0.3-2.9c-0.1-0.7-0.6-1.3-1.1-1.9c-0.7-0.1-1.1-0.4-1.8-0.6
			c-1.6-0.1-3,0.7-4.1,0.4c-0.4-0.5-0.7-0.9-0.6-1.6c0.4-0.6,1.5-0.5,2.1-1c1.3-0.1,2,0,3.3,0c0.7,0.4,1.5,0.7,2.5,0.9
			c1.1,1.6,2.4,3.6,2,6.4c0,0.5,0.2,0.8,0.2,1.3c0,1.8-0.2,3.2-0.3,4.9c0.1,0.9,0.3,1.2,0.3,2C241,471.9,240.5,471.9,240,472.2
			L240,472.2z M233.3,464.6c-0.4,0.4-0.9,0.7-1.4,1.1c0.2,0.3-0.2,0.3-0.3,0.6c-0.1,1.5,0.3,3.1,1.1,3.4c0.7,0.7,1.8,0.7,2.9,0.4
			c0.4-0.1,0.7-0.3,1.1-0.3c0.9-0.8,2-1,2.2-2.6c-0.5-1-1.1-1.6-1.7-2.3c-1-0.2-1.6-0.5-2.5-0.7c-0.1,0.1-0.2,0.2-0.2,0.2H233.3z"/>
		<path class="st0" d="M266.6,465.1c-2.6,0.4-5.9-0.1-8.4,0.2c-0.6,0.1-1.5,0-1.9,0.3c0.4,3.1,2,5.3,5.5,5c1.3-0.4,2.2-1.5,3.2-0.7
			c0.4,1.7-0.9,1.9-2.3,2.4c-1-0.4-1.9,0.1-2.7,0c-1.3,0.1-2.3-0.7-3.3-1c-0.4-0.7-1.3-1.2-1.8-1.8c-0.1-0.4-0.2-0.8-0.3-1.2
			c-0.2-0.5-0.4-1.2-0.6-2.2c0-1.8-0.1-3.7,0.2-5.6c0.3-0.8,0.4-1.3,0.7-2c0.3-0.9,1.1-1.1,1.5-1.8c0.7-0.2,1.2-0.4,1.8-0.7
			c1-0.2,2.8,0.3,3.8-0.2c0.6,0.4,1.4,0.5,2,0.7c0.9,0.6,1.5,1.8,2.3,2.6c-0.2,0.8,0.1,1.1,0.3,1.5c-0.1,0.7,0,1.1,0.3,1.5
			C266.7,463.1,267.4,464.6,266.6,465.1L266.6,465.1z M264.1,460.4c-0.4-0.8-0.9-1.3-1.4-1.8c-1.3-0.5-2.8-0.2-4.1,0
			c-0.7,0-1,0.7-1.6,1.1c-0.5,0.8-1.3,2.7-0.1,3.7c0.1-0.1,0.3-0.1,0.3,0c0.9-0.1,1.5,0,2.3-0.4c0.7,0.5,1.5,0.2,2.3,0
			c0.8,0.4,2.2,0.5,2.8-0.1C264.9,461.8,264.5,461,264.1,460.4L264.1,460.4z"/>
		<path class="st0" d="M284.4,471.9c-0.5,0.3-1.3,0.1-1.9,0.2c-0.4-1.3-0.2-2.7,0-4.3c0-1.7-0.4-3-0.2-4.8c0-1.2-0.2-2.3-0.4-3.1
			c0-0.2-0.1-0.2-0.1-0.4c-0.7-1-1.7-1.1-2.6-1.7c-2,0.2-3.2,0.9-4.3,2.1c-0.1,0.8-0.6,1.4-0.7,2.4c0.1,1.2,0.2,2.7-0.1,3.5
			c0.1,0.5,0.2,0.8,0.3,1.2c-0.2,1.4-0.3,3.2-0.3,4.6c-0.3,0.3-1.1,0.6-1.7,0.4c-0.4-0.8-0.6-2.1-0.3-3.1c-0.1-0.6-0.1-1.1-0.2-1.7
			c0-0.8,0.2-2.3,0.2-3.6c0.1-0.2,0-0.4,0-0.4c0.1-2.2-0.1-3.8,0.2-6c-0.1-0.3-0.2-0.9,0.2-1.2c1.5-0.4,1.2,1.1,2.1,1.5
			c0.9-0.4,1.3-1,2-1.5c0.7,0,1.3-0.2,1.9-0.4c0.5,0.3,1-0.1,1.5,0c1.7,0.2,2.9,0.9,3.8,2.1c0,0.4,0.2,1,0.5,1.3
			c-0.2,0.6,0.3,1.1,0.2,1.8c0,0.3-0.1,0.6-0.1,1c0,0.8,0.4,2.3,0.2,3.5c0,0.9-0.3,2.2,0.2,3.5C284.4,470.2,285.1,471,284.4,471.9
			L284.4,471.9z"/>
		<path class="st0" d="M28,490.2c-0.1,7.3-0.5,14.3,0.4,23.2c-0.8-0.3-2-0.2-2.3-0.7c-0.4-0.3-0.2-1-0.4-1.7c-0.1-0.7,0.1-0.9,0-1.7
			c-0.4-3.7,0.6-8.1,0.2-11.7c-0.4-2.8-0.5-4.9,0.2-7.6C26.3,489.9,27.5,490.1,28,490.2L28,490.2z"/>
		<path class="st0" d="M43.6,513c-0.8,0-0.8-0.9-1.5-1.1c-0.6,0.3-1.4,0.6-1.8,1c-1.3,0.2-2.9,0.4-4.4,0.2c-0.7-0.8-1.7-1.2-2.3-1.9
			c-0.4-1-0.2-2.3-0.7-3.2c0-0.9,0.2-1.5,0.3-2.4c0.3-0.4,0.6-1.1,0.9-1.5c0.2,0,0.4-0.1,0.4-0.3c1.4-0.7,2.6-0.7,4.6-1
			c1,0.6,1.5,1.2,2.5,1.4c1.2-0.4,0.1-1.8,0.3-2.9c-0.1-0.7-0.6-1.3-1.1-1.9c-0.7-0.1-1.1-0.4-1.8-0.6c-1.6-0.1-3,0.7-4.1,0.4
			c-0.4-0.5-0.7-0.9-0.6-1.6c0.4-0.6,1.5-0.5,2.1-1c1.3-0.1,2,0,3.3,0c0.7,0.4,1.5,0.7,2.5,0.9c1.1,1.6,2.4,3.6,2,6.4
			c0,0.5,0.2,0.8,0.2,1.3c0,1.8-0.2,3.2-0.3,4.9c0.1,0.9,0.3,1.2,0.3,2C44.6,512.6,44.1,512.7,43.6,513L43.6,513z M36.9,505.3
			c-0.4,0.4-0.9,0.7-1.4,1.1c0.2,0.3-0.2,0.3-0.3,0.6c-0.1,1.5,0.3,3.1,1.1,3.4c0.7,0.7,1.8,0.7,2.9,0.4c0.4-0.1,0.7-0.3,1.1-0.3
			c0.9-0.8,2-1,2.2-2.6c-0.5-1-1.1-1.6-1.7-2.3c-1-0.2-1.6-0.5-2.5-0.7c-0.1,0.1-0.2,0.2-0.2,0.2H36.9z"/>
		<path class="st0" d="M60.8,497.1c0.1,3.3-0.2,6.6,0.2,10.1c0.1,0.5,0.1,1.5,0.4,2.1c0.7,1.3,2.2,1.7,3.5,2
			c1.3-0.4,1.8-1.1,2.8-1.4c0.4-0.9,1-2,1.1-3c-0.1-0.9,0-1.6,0.3-2.1c0.1-2.1-0.3-5.4-0.1-7.7c0.8-0.4,1.8-0.4,2.2,0.2
			c0.3,2.6,0.1,5.5,0,8c0,1.1,0.2,1.6,0,2.3c0.1,1-0.1,2.4-0.1,3.5c0.1,0.6,0.4,1.2-0.1,1.7c-0.5,0.2-1.1,0.1-1.5-0.2
			c-0.4-0.3-0.2-0.9-0.7-1.1c-0.9,0-0.9,0.6-1.6,0.9c-0.8,0.1-1.3,0.5-2,0.7c-1.8-0.2-3.5,0-4.7-0.9c-1.2-0.8-1.4-2.4-2-4
			c-0.2-0.5,0.2-0.7,0.1-1.2c0-1.6-0.2-2.7,0-4.1c-0.1-0.3-0.2-0.7-0.3-0.9c0-0.4,0.2-0.8,0.3-1.1c-0.3-0.6-0.2-1.5-0.2-2.2
			c0.1-0.4,0.1-1,0.4-1.3c0-0.2,0.2-0.4,0.4-0.4C59.9,496.8,60.4,496.8,60.8,497.1L60.8,497.1z M68.6,488.8c-0.2,1.4-1,1.6-1.4,2.6
			c-0.7,0.6-0.9,1.9-1.8,2.3c-0.7,0-1-0.2-1.2-0.7c0.2-1.6,1.3-2.9,1.9-4.4C66.6,488.2,67.9,488.5,68.6,488.8L68.6,488.8z"/>
		<path class="st0" d="M79.7,490.2c-0.1,7.3-0.5,14.3,0.4,23.2c-0.8-0.3-2-0.2-2.3-0.7c-0.4-0.3-0.2-1-0.4-1.7
			c-0.1-0.7,0.1-0.9,0-1.7c-0.4-3.7,0.6-8.1,0.2-11.7c-0.4-2.8-0.5-4.9,0.2-7.6C78.1,489.9,79.3,490.1,79.7,490.2L79.7,490.2z"/>
		<path class="st0" d="M89.8,490.6c0.2,2.2-0.9,4.6,0.5,6.3c0.8-0.1,1.6-0.2,2.3-0.1c0.4,0.4,0.7,1.5,0.3,2.2
			c-0.8,0.2-2.1-0.4-2.9,0.2c-0.1,0.1-0.1,0.5-0.4,0.6c0.2,1.4-0.1,3,0.4,4.3c-0.3,1.1-0.1,2.2-0.4,3.2c0.3,0.9,0.1,1.8,0.3,2.9
			c0.4,0.3,0.8,0.5,1.1,0.8c1.2,0.4,2.7,0.1,2.3,1.8c-0.4,0.4-1.6,0.4-2.5,0.4c-0.6-0.1-1-0.5-1.8-0.6c-0.4-0.5-0.9-1.1-1.3-1.7
			c0-1-0.2-1.5-0.3-2.4c-0.3-2.6,0.1-5.8-0.3-9.2c-0.4-0.5-1.5-0.5-2.6-0.6c-0.3-0.7-0.3-1.6,0.1-2.1c0.9-0.1,2.6,0.1,2.9-0.9
			c0-0.7-0.2-1-0.2-1.5c0.1-1.9-0.2-3.2,0.4-4.3C88.7,489.8,89.3,490.2,89.8,490.6L89.8,490.6z"/>
		<path class="st0" d="M101.5,492.6c0.2,1.3-0.4,1.5-0.9,2.1c-1.5,0.2-2.5-0.3-2.4-1.9c0,0,0.1-0.2,0.2-0.4
			C99.3,491.4,100.8,491.5,101.5,492.6L101.5,492.6z M100.4,513.1c-0.7,0-1.2-0.2-1.7-0.3c-0.1-2.8-0.1-5.1-0.4-8.2
			c0.3-0.6,0.4-1.3,0.5-2.2c-0.2-1-0.2-2-0.2-2.8c0-0.8-0.3-1.7,0.3-2.4c0.5,0,0.8-0.5,1.1-0.2c1.3,0.4,0.8,1.9,0.9,2.9
			c-0.1,2.4,0,4.4,0.3,7.8c-0.3,0.8-0.1,2-0.2,2.8C100.9,511.5,101,512.4,100.4,513.1L100.4,513.1z"/>
		<path class="st0" d="M125.2,513c-0.5,0.3-1.1-0.1-1.7-0.1c-0.3-0.2,0.1-1-0.2-1.1c0-0.7,0.1-0.9,0.1-1.3c-0.3-1.1,0.2-2.5-0.3-3.1
			c0.1-0.5,0.4-0.7,0.3-1.2c-0.4-1.8-0.2-3.9,0-5.5c-0.4-1.2-2.2-2-3.8-1.5c-0.5,0.2-1.2,0.6-1.5,1.4c-0.1,0.4-0.4,2.4-0.4,3.3
			c0.1,2.2-0.1,4.4-0.3,6.2c0.3,1.1,0.7,3-0.9,3c-0.6,0-0.9-0.7-1.1-1.2c-0.1-0.2,0.2-0.6,0.1-0.9c0-0.7,0-1.2,0-1.9
			c0-0.3-0.2-0.6-0.2-0.9c0-0.6,0.2-1.1,0.2-2.2c-0.1-1.3-0.4-2.1-0.1-3.2c-0.4-0.6-0.2-1.6-0.5-2.4c-0.1-0.4-0.4-0.4-0.4-0.8
			c-0.5-0.4-1.3-0.5-1.8-0.8c-0.7,0.1-1.3,0.5-2,0.6c-0.8,1.1-1.1,2.4-1.4,4c0.4,2.1,0.5,4.4,0.2,6.7c0,0.9,0.1,2-0.3,2.9
			c-0.4,0.1-1.1,0-1.7-0.2c-0.7-1-0.1-2.1-0.3-3.4c0.1-0.3-0.1-0.6-0.1-1.1c0.1-2.6-0.1-6,0.6-8.9c-0.7-0.9-0.5-2.5,0.2-2.6
			c1.2-0.2,1,0.9,1.5,1.5c0.7-0.1,0.8-0.8,1.3-1.1c0.3-0.4,0.9-0.4,1.4-0.8c0.9,0,1.3,0.2,2.2,0.2c0.8,0.6,1.3,1.2,2.3,1.8
			c0.6-0.2,0.9-0.7,1.5-1.1c0.8-0.4,1.7-0.7,2.8-1h0.3c0.7,0.4,1.7,0.5,2.4,1c0.4,0.1,0.5,0.4,0.7,0.8c0.4,0.1,0.4,0.5,0.7,0.7
			c0.4,1.1,0.2,2.1,0.7,3.1c-0.2,2.9,0.1,5.9,0,8.9C125.6,511.5,125.6,512.7,125.2,513L125.2,513z"/>
		<path class="st0" d="M140.6,513c-0.8,0-0.8-0.9-1.5-1.1c-0.6,0.3-1.4,0.6-1.8,1c-1.3,0.2-2.9,0.4-4.4,0.2
			c-0.7-0.8-1.7-1.2-2.3-1.9c-0.4-1-0.2-2.3-0.7-3.2c0-0.9,0.2-1.5,0.3-2.4c0.3-0.4,0.6-1.1,0.9-1.5c0.2,0,0.4-0.1,0.4-0.3
			c1.4-0.7,2.6-0.7,4.6-1c1,0.6,1.5,1.2,2.5,1.4c1.2-0.4,0.1-1.8,0.3-2.9c-0.1-0.7-0.6-1.3-1.1-1.9c-0.7-0.1-1.1-0.4-1.8-0.6
			c-1.6-0.1-3,0.7-4.1,0.4c-0.4-0.5-0.7-0.9-0.6-1.6c0.4-0.6,1.5-0.5,2.1-1c1.3-0.1,2,0,3.3,0c0.7,0.4,1.5,0.7,2.5,0.9
			c1.1,1.6,2.4,3.6,2,6.4c0,0.5,0.2,0.8,0.2,1.3c0,1.8-0.2,3.2-0.3,4.9c0.1,0.9,0.3,1.2,0.3,2C141.6,512.6,141.1,512.7,140.6,513
			L140.6,513z M134,505.3c-0.4,0.4-0.9,0.7-1.4,1.1c0.2,0.3-0.2,0.3-0.3,0.6c-0.1,1.5,0.3,3.1,1.1,3.4c0.7,0.7,1.8,0.7,2.9,0.4
			c0.4-0.1,0.7-0.3,1.1-0.3c0.9-0.8,2-1,2.2-2.6c-0.5-1-1.1-1.6-1.7-2.3c-1-0.2-1.6-0.5-2.5-0.7c-0.1,0.1-0.2,0.2-0.2,0.2H134z"/>
		<path class="st0" d="M167.7,493.2c0,1,0.1,2.4,0.2,3.3c0,1-0.2,2.7-0.3,4c0.2,0.9,0.1,2,0.2,3.2c-0.1,1.1,0,2.1-0.1,3.2
			c0,0.6,0.1,1.3,0.1,1.9c0,0.7-0.1,1.2-0.1,1.9c0,0.9,0.5,1.7-0.5,2.5c-1.1,0.1-1.2-0.9-1.6-1.8c-0.9,0-1.1,0.5-1.7,0.8
			c-0.1,0.5-1,0.5-1.3,0.9c-1.1,0.2-2.8,0.2-4.1-0.2c-0.9-0.3-1.4-0.8-2.1-1.2c-0.3-0.3-0.4-0.7-0.8-0.9c-1-1.6-1.1-4.2-1.3-6.6
			c0.2-0.9,0.6-1.8,0.5-2.8c0.7-1.5,1.1-2.8,2.4-3.9c0.5-0.1,1.1-0.4,1.5-0.8c0.6,0,1.2,0,1.5-0.2c1,0.2,1.7,0.2,2.9,0.4
			c0.7,0.3,1.1,1.3,2.2,0.9c0.9-0.2,0-1.2,0.1-2c0.1-1.7,0.3-4.3,0.5-5.3c0.1-0.5,1-0.8,1.5-0.5
			C168.1,491.1,167.5,492.1,167.7,493.2z M158.6,499.4c-0.7,0.7-1.3,1.6-1.7,2.6c0.3,1.6-0.4,2.6-0.2,4c0.3,1.1,0.5,2,0.5,2.8
			c0.5,0.4,0.7,1.1,1,1.5c0.6,0.1,1,0.6,1.7,0.7c1.4,0.2,3.3-0.4,4.3-1.1c0.6-1.1,1.2-2.3,1.5-3.9c-0.3-1.1,0-2.3-0.3-3.5
			c0-0.9-0.5-1.4-0.8-2c-0.8-0.9-1.5-1.2-2.8-1.5c-0.6-0.2-1.1,0.2-1.7-0.1c0,0-0.1,0-0.1,0.2C159.3,499,159.2,499.4,158.6,499.4
			L158.6,499.4z"/>
		<path class="st0" d="M185.4,505.9c-2.6,0.4-5.9-0.1-8.4,0.2c-0.6,0.1-1.5,0-1.9,0.3c0.4,3.1,2,5.3,5.5,5c1.3-0.4,2.2-1.5,3.2-0.7
			c0.4,1.7-0.9,1.9-2.3,2.4c-1-0.4-1.9,0.1-2.7,0c-1.3,0.1-2.3-0.7-3.3-1c-0.4-0.7-1.3-1.2-1.8-1.8c-0.1-0.4-0.2-0.8-0.3-1.2
			c-0.2-0.5-0.4-1.2-0.6-2.2c0-1.8-0.1-3.7,0.2-5.6c0.3-0.8,0.4-1.3,0.7-2c0.3-0.9,1.1-1.1,1.5-1.8c0.7-0.2,1.2-0.4,1.8-0.7
			c1-0.2,2.8,0.3,3.8-0.2c0.6,0.4,1.4,0.5,2,0.7c0.9,0.6,1.5,1.8,2.3,2.6c-0.2,0.8,0.1,1.1,0.3,1.5c-0.1,0.7,0,1.1,0.3,1.5
			C185.5,503.8,186.2,505.3,185.4,505.9L185.4,505.9z M182.9,501.1c-0.4-0.8-0.9-1.3-1.4-1.8c-1.3-0.5-2.8-0.2-4.1,0
			c-0.7,0-1,0.7-1.6,1.1c-0.5,0.8-1.3,2.7-0.1,3.7c0.1-0.1,0.3-0.1,0.3,0c0.9-0.1,1.5,0,2.3-0.4c0.7,0.5,1.5,0.2,2.3,0
			c0.8,0.4,2.2,0.5,2.8-0.1C183.7,502.6,183.3,501.7,182.9,501.1L182.9,501.1z M182.9,488.8c-0.1,1.1-0.9,1.6-1.5,2.7
			c-0.7,0.5-0.9,1.6-1.7,2.1c-0.7,0.2-0.9-0.2-1.1-0.6c0.5-1.8,1.1-2.6,1.8-4.5C181,488.2,182,488.4,182.9,488.8L182.9,488.8z"/>
		<path class="st0" d="M200.4,498.6c-0.2,1.5-1.9,0.8-2.7,0.4c-1.1,0-2.6-0.1-3.2,0.1c-0.8,0.4-1.3,1.2-2.1,1.7
			c-0.2,0.7-0.4,1.5-0.8,2.3c-0.2,1.9,0,3.7,0.4,5.2c0.3,0.8,1,1.6,1.8,2.1c0.6,0.3,1.3,0.3,1.7,0.7c0.4,0,0.9-0.1,1.1,0.1
			c1.1-0.1,2.2-0.7,3.1-0.7c0.2,0.5,0.3,0.9,0.4,1.3c-0.2,1-1.9,1.1-3,1.3c-1-0.1-1.5-0.1-2.6-0.1c-0.9-0.4-1.7-0.8-2.5-1.2
			c-1.1-0.9-1.5-1.8-2.2-2.9c-0.2-1-0.4-1.8-0.7-2.4c0-1.1,0-2.2,0.1-3.4c0.3-1.3,0.7-1.9,1.1-3.2c0.7-0.9,1.8-2,2.9-2.9
			c0.5-0.1,1.3-0.1,1.8-0.4c1.1-0.1,2.2,0.1,3.2,0.1C199.1,497.4,200.3,497.4,200.4,498.6L200.4,498.6z"/>
		<path class="st0" d="M214.4,513c-0.8,0-0.8-0.9-1.5-1.1c-0.6,0.3-1.4,0.6-1.8,1c-1.3,0.2-2.9,0.4-4.4,0.2
			c-0.7-0.8-1.7-1.2-2.3-1.9c-0.4-1-0.2-2.3-0.7-3.2c0-0.9,0.2-1.5,0.3-2.4c0.3-0.4,0.6-1.1,0.9-1.5c0.2,0,0.4-0.1,0.4-0.3
			c1.4-0.7,2.6-0.7,4.6-1c1,0.6,1.5,1.2,2.5,1.4c1.2-0.4,0.1-1.8,0.3-2.9c-0.1-0.7-0.6-1.3-1.1-1.9c-0.7-0.1-1.1-0.4-1.8-0.6
			c-1.6-0.1-3,0.7-4.1,0.4c-0.4-0.5-0.7-0.9-0.6-1.6c0.4-0.6,1.5-0.5,2.1-1c1.3-0.1,2,0,3.3,0c0.7,0.4,1.5,0.7,2.5,0.9
			c1.1,1.6,2.4,3.6,2,6.4c0,0.5,0.2,0.8,0.2,1.3c0,1.8-0.2,3.2-0.3,4.9c0.1,0.9,0.3,1.2,0.3,2C215.4,512.6,214.9,512.7,214.4,513
			L214.4,513z M207.7,505.3c-0.4,0.4-0.9,0.7-1.4,1.1c0.2,0.3-0.2,0.3-0.3,0.6c-0.1,1.5,0.3,3.1,1.1,3.4c0.7,0.7,1.8,0.7,2.9,0.4
			c0.4-0.1,0.7-0.3,1.1-0.3c0.9-0.8,2-1,2.2-2.6c-0.5-1-1.1-1.6-1.7-2.3c-1-0.2-1.6-0.5-2.5-0.7c-0.1,0.1-0.2,0.2-0.2,0.2H207.7z"/>
		<path class="st0" d="M233.3,493.2c0,1,0.1,2.4,0.2,3.3c0,1-0.2,2.7-0.3,4c0.2,0.9,0.1,2,0.2,3.2c-0.1,1.1,0,2.1-0.1,3.2
			c0,0.6,0.1,1.3,0.1,1.9c0,0.7-0.1,1.2-0.1,1.9c0,0.9,0.5,1.7-0.5,2.5c-1.1,0.1-1.2-0.9-1.6-1.8c-0.9,0-1.1,0.5-1.7,0.8
			c-0.1,0.5-1,0.5-1.3,0.9c-1.1,0.2-2.8,0.2-4.1-0.2c-0.9-0.3-1.4-0.8-2.1-1.2c-0.3-0.3-0.4-0.7-0.8-0.9c-1-1.6-1.1-4.2-1.3-6.6
			c0.2-0.9,0.6-1.8,0.5-2.8c0.7-1.5,1.1-2.8,2.4-3.9c0.5-0.1,1.1-0.4,1.5-0.8c0.6,0,1.2,0,1.5-0.2c1,0.2,1.7,0.2,2.9,0.4
			c0.7,0.3,1.1,1.3,2.2,0.9c0.9-0.2,0-1.2,0.1-2c0.1-1.7,0.3-4.3,0.5-5.3c0.1-0.5,1-0.8,1.5-0.5
			C233.7,491.1,233.2,492.1,233.3,493.2z M224.2,499.4c-0.7,0.7-1.3,1.6-1.7,2.6c0.3,1.6-0.4,2.6-0.2,4c0.3,1.1,0.5,2,0.5,2.8
			c0.5,0.4,0.7,1.1,1,1.5c0.6,0.1,1,0.6,1.7,0.7c1.4,0.2,3.3-0.4,4.3-1.1c0.6-1.1,1.2-2.3,1.5-3.9c-0.3-1.1,0-2.3-0.3-3.5
			c0-0.9-0.5-1.4-0.8-2c-0.8-0.9-1.5-1.2-2.8-1.5c-0.6-0.2-1.1,0.2-1.7-0.1c0,0-0.1,0-0.1,0.2C225,499,224.9,499.4,224.2,499.4
			L224.2,499.4z"/>
		<path class="st0" d="M249,513c-0.8,0-0.8-0.9-1.5-1.1c-0.6,0.3-1.4,0.6-1.8,1c-1.3,0.2-2.9,0.4-4.4,0.2c-0.7-0.8-1.7-1.2-2.3-1.9
			c-0.4-1-0.2-2.3-0.7-3.2c0-0.9,0.2-1.5,0.3-2.4c0.3-0.4,0.6-1.1,0.9-1.5c0.2,0,0.4-0.1,0.4-0.3c1.4-0.7,2.6-0.7,4.6-1
			c1,0.6,1.5,1.2,2.5,1.4c1.2-0.4,0.1-1.8,0.3-2.9c-0.1-0.7-0.6-1.3-1.1-1.9c-0.7-0.1-1.1-0.4-1.8-0.6c-1.6-0.1-3,0.7-4.1,0.4
			c-0.4-0.5-0.7-0.9-0.6-1.6c0.4-0.6,1.5-0.5,2.1-1c1.3-0.1,2,0,3.3,0c0.7,0.4,1.5,0.7,2.5,0.9c1.1,1.6,2.4,3.6,2,6.4
			c0,0.5,0.2,0.8,0.2,1.3c0,1.8-0.2,3.2-0.3,4.9c0.1,0.9,0.3,1.2,0.3,2C250,512.6,249.5,512.7,249,513L249,513z M242.3,505.3
			c-0.4,0.4-0.9,0.7-1.4,1.1c0.2,0.3-0.2,0.3-0.3,0.6c-0.1,1.5,0.3,3.1,1.1,3.4c0.7,0.7,1.8,0.7,2.9,0.4c0.4-0.1,0.7-0.3,1.1-0.3
			c0.9-0.8,2-1,2.2-2.6c-0.5-1-1.1-1.6-1.7-2.3c-1-0.2-1.6-0.5-2.5-0.7c-0.1,0.1-0.2,0.2-0.2,0.2H242.3z"/>
		<path class="st0" d="M259,511.1c0.1,1.1-0.3,1.5-0.8,2c-1.3,0-2-0.5-1.7-2.2C256.9,509.7,258.7,510.2,259,511.1L259,511.1z"/>
	</g>
</g>
</svg>
