<?xml version="1.0" encoding="utf-8"?>
<!-- Generator: Adobe Illustrator 19.2.0, SVG Export Plug-In . SVG Version: 6.00 Build 0)  -->
<svg version="1.1" id="Capa_1" xmlns="http://www.w3.org/2000/svg" xmlns:xlink="http://www.w3.org/1999/xlink" x="0px" y="0px"
	 viewBox="0 0 417 556.5" style="enable-background:new 0 0 417 556.5;" xml:space="preserve">
<style type="text/css">
	.st0{fill:#D18B2B;}
	.st1{fill:#FFFFFF;}
</style>
<g>
	<polygon class="st0" points="57.6,421.7 24.7,421.7 24.7,267.4 58.1,267.4 58.1,271 28.3,271 28.3,418 57.6,418 	"/>
	<polygon class="st0" points="392.3,421.7 359.4,421.7 359.4,418 388.7,418 388.7,271 358.9,271 358.9,267.4 392.3,267.4 	"/>
	<g>
		<path class="st1" d="M75.6,315.6c-8.4,0-14.9-6.8-14.9-15.2s6.7-15.2,15.2-15.2c4.2,0,8.2,1.5,11.1,4.3c0.1,0.3,0.3,0.6,0.3,0.8
			c0,0.3-0.2,0.6-0.3,0.8l-3.2,2.8c-0.2,0.2-0.5,0.3-0.7,0.3c-0.4,0-0.6-0.1-1-0.3c-1.6-1.4-3.9-1.9-6.2-1.9c-4.5,0-7.8,3.9-7.8,8.4
			s3.6,8.6,7.8,8.6c2.8,0,3.9,0,6.7-2.1c0.3-0.3,0.6-0.4,0.9-0.4s0.5,0.1,0.7,0.3l2.5,2.8c0.2,0.2,0.4,0.4,0.4,0.8
			c0,0.3-0.2,0.6-0.3,0.8C84.1,314.7,80.4,315.6,75.6,315.6z"/>
		<path class="st1" d="M116.1,314.3c0,0.6-0.5,1.1-1.1,1.1h-5.1c-0.7,0-1.1-0.5-1.1-1.1v-9.9h-9.2v9.9c0,0.6-0.5,1.1-1.1,1.1h-5.1
			c-0.7,0-1.1-0.5-1.1-1.1v-27.5c0-0.6,0.4-1.1,1.1-1.1h5.1c0.6,0,1.1,0.5,1.1,1.1v10.7h9.2v-10.7c0-0.6,0.4-1.1,1.1-1.1h5.1
			c0.6,0,1.1,0.5,1.1,1.1V314.3z"/>
		<path class="st1" d="M130.1,314.3c0,0.6-0.5,1.1-1.1,1.1h-5.1c-0.7,0-1.1-0.5-1.1-1.1v-27.5c0-0.6,0.4-1.1,1.1-1.1h5.1
			c0.6,0,1.1,0.5,1.1,1.1V314.3z"/>
		<path class="st1" d="M136.9,286.8c0-0.6,0.4-1.1,1.1-1.1h5.1c0.6,0,1.1,0.5,1.1,1.1v21.7H157c0.6,0,1.1,0.5,1.1,1.1v4.7
			c0,0.7-0.5,1.1-1.1,1.1h-19c-0.7,0-1.1-0.5-1.1-1.1L136.9,286.8L136.9,286.8z"/>
		<path class="st1" d="M180.9,297.2c0.6,0,1.1,0.5,1.1,1.1v4.7c0,0.7-0.5,1.1-1.1,1.1h-10v4.3h12.7c0.6,0,1.1,0.5,1.1,1.1v4.7
			c0,0.7-0.5,1.1-1.1,1.1h-19c-0.6,0-1.1-0.5-1.1-1.1v-27.5c0-0.6,0.5-1.1,1.1-1.1h19c0.6,0,1.1,0.5,1.1,1.1v4.9
			c0,0.7-0.5,1.1-1.1,1.1h-12.7v4.5L180.9,297.2L180.9,297.2z"/>
		<path class="st1" d="M201.1,286.8c0-0.6,0.4-1.1,1.1-1.1h5.1c0.6,0,1.1,0.5,1.1,1.1v21.7h12.7c0.6,0,1.1,0.5,1.1,1.1v4.7
			c0,0.7-0.5,1.1-1.1,1.1h-19c-0.7,0-1.1-0.5-1.1-1.1L201.1,286.8L201.1,286.8z"/>
		<path class="st1" d="M235.1,314.3c0,0.6-0.5,1.1-1.1,1.1h-5.1c-0.7,0-1.1-0.5-1.1-1.1v-27.5c0-0.6,0.4-1.1,1.1-1.1h5.1
			c0.6,0,1.1,0.5,1.1,1.1V314.3z"/>
		<path class="st1" d="M242.9,315.4c-0.6,0-1.1-0.5-1.1-1.1v-27.5c0-0.6,0.5-1.1,1.1-1.1h9.9c8.4,0,14.3,6.6,14.3,14.9
			s-5.9,14.7-14.3,14.7h-9.9V315.4z M259.8,300.8c0-4.5-3.2-8-7.7-8h-3v15.7h3C256.6,308.5,259.8,305.2,259.8,300.8z"/>
		<path class="st1" d="M289.2,297.2c0.6,0,1.1,0.5,1.1,1.1v4.7c0,0.7-0.5,1.1-1.1,1.1h-10v4.3h12.7c0.6,0,1.1,0.5,1.1,1.1v4.7
			c0,0.7-0.5,1.1-1.1,1.1h-19c-0.6,0-1.1-0.5-1.1-1.1v-27.5c0-0.6,0.5-1.1,1.1-1.1h19c0.6,0,1.1,0.5,1.1,1.1v4.9
			c0,0.7-0.5,1.1-1.1,1.1h-12.7v4.5L289.2,297.2L289.2,297.2z"/>
		<path class="st1" d="M310.8,306h-4.5v8.3c0,0.6-0.5,1.1-1.1,1.1H300c-0.7,0-1.1-0.5-1.1-1.1v-27.5c0-0.6,0.4-1.1,1.1-1.1h13
			c5.1,0,9.2,4,9.2,9.8c0,3.9-1.8,6.9-4.6,8.6l5,10c0,0.8-0.5,1.4-1.3,1.4h-5c-0.9,0-1.5-0.5-1.7-1.1L310.8,306z M314.9,295.9
			c0-2.1-0.9-2.9-2.1-2.9h-6.4v6h6.4C313.9,299,314.9,297.7,314.9,295.9z"/>
		<path class="st1" d="M335.8,310l-2.1,4.5c-0.3,0.4-0.6,0.9-1.3,0.9h-5.6c-0.6,0-1.1-0.5-1.1-1.2l13.5-27.8
			c0.4-0.4,0.9-0.8,1.5-0.8s1.1,0.4,1.5,0.8l13.5,27.8c0,0.7-0.5,1.2-1.1,1.2h-5.6c-0.6,0-1-0.5-1.3-0.9l-2.1-4.5H335.8z M343,303.9
			l-2.2-4.5l-2.3,4.5H343z"/>
	</g>
	<g>
		<path class="st1" d="M115.9,344.7c0,0.6-0.5,1.1-1.1,1.1h-11.7c0.4,2.3,2.8,2.6,4.1,2.6c1.7,0,3.1-0.1,5-0.9
			c0.1-0.1,0.2-0.1,0.3-0.1c0.2,0,0.5,0.1,0.7,0.4l1.4,2.4c0.2,0.2,0.3,0.5,0.3,0.7c0,0.3-0.1,0.7-0.3,0.9c-1.4,1.9-4.6,2.6-7.3,2.6
			c-5.9,0-11.6-2.9-11.6-10.9c0-5.8,3-10.5,10.2-10.5c5.7,0,10.1,3.3,10.1,10L115.9,344.7L115.9,344.7z M103,341.8h5.6
			c-0.3-2.1-1.9-2.4-2.7-2.4C105,339.4,103.4,339.6,103,341.8z"/>
		<path class="st1" d="M128.2,353c0,0.6-0.5,1.1-1.1,1.1H122c-0.7,0-1.1-0.5-1.1-1.1v-27.5c0-0.6,0.4-1.1,1.1-1.1h5.1
			c0.6,0,1.1,0.5,1.1,1.1V353z"/>
		<path class="st1" d="M157.8,347.1c0.4-0.3,0.9-0.5,1.3-0.5c0.3,0,0.7,0.2,0.9,0.4l2,2.1c0.2,0.3,0.5,0.7,0.5,1.1
			c0,0.3-0.1,0.8-0.3,1.1c-2.3,2.5-5.1,2.9-7.7,2.9c-6,0-10.9-5-10.9-10.8c0-5.9,5-10.6,10.9-10.6c2.7,0,5.6,0.9,7.6,2.8
			c0.2,0.3,0.3,0.9,0.3,1c0,0.5-0.3,0.9-0.5,1.1l-2.1,2.7c-0.3,0.3-0.8,0.4-0.9,0.4h-0.3c-0.6-0.2-0.7-0.3-0.7-0.3
			c-0.7-0.4-1.9-0.8-3.4-0.8c-1.9,0-3.6,1.4-3.6,3.8s1.7,4.4,4,4.4C155.8,348,156.8,347.8,157.8,347.1z"/>
		<path class="st1" d="M165.4,343.9c0-5.9,5-10.9,10.9-10.9s10.9,5.1,10.9,10.9s-5,10.5-10.9,10.5S165.4,349.7,165.4,343.9z
			 M179.9,343.9c0-2.4-1.6-4.1-3.7-4.1c-1.9,0-3.5,1.7-3.5,4.1c0,2.2,1.6,4.1,3.5,4.1C178.3,348,179.9,346.2,179.9,343.9z"/>
		<path class="st1" d="M195.9,333.2c0.9,0,1.2,0.2,1.5,1l0.3,1.1c1.4-2,4.1-2.4,5.9-2.4c6,0,8.3,4.5,8.3,9.5V353
			c0,0.6-0.4,1.1-1.1,1.1h-5.1c-0.6,0-1.1-0.5-1.1-1.1v-9.9c0-1.8-0.2-3.3-2.7-3.3c-1.7,0-2.4,1.5-2.4,3.3v9.9
			c0,0.6-0.4,1.1-1.1,1.1h-5.1c-0.6,0-1.1-0.5-1.1-1.1v-18.7c0-0.6,0.5-1.1,1.1-1.1L195.9,333.2L195.9,333.2z"/>
		<path class="st1" d="M225.1,348.4c0.8,0,1.8-0.1,1.8-0.7c0-1.8-10-2-10-8.1c0-4.5,4.1-6.6,8.9-6.6c2.5,0,5.2,0.8,6.3,1.3
			c0.2,0.1,0.4,0.3,0.6,0.7c0,0.2,0,0.4-0.1,0.5l-0.9,3.7c-0.1,0.4-0.3,0.6-1.1,0.6c-0.3,0-2-0.6-3.9-0.6s-2.5,0.1-2.5,0.8
			c0,1.6,9.9,2.8,9.9,7.8c0,5.4-4.9,6.6-9.1,6.6c-2.5,0-5.2-0.5-7.8-2.2c-0.2-0.2-0.5-0.5-0.5-0.9c0-0.1,0-0.3,1-3.7
			c0.2-0.5,0.6-0.7,0.9-0.7c0.2,0,0.3,0,0.5,0.1C219.9,347.4,222.8,348.4,225.1,348.4z"/>
		<path class="st1" d="M254.9,354.1c-0.9,0-1.2-0.2-1.5-1l-0.3-1.1c-1.4,2-3.8,2.4-5.5,2.4c-6,0-8.7-4.5-8.7-9.5v-10.6
			c0-0.6,0.4-1.1,1.1-1.1h5.1c0.6,0,1.1,0.5,1.1,1.1v10.4c0,1.8,0.2,3.3,2.7,3.3c1.7,0,2.4-1.5,2.4-3.3v-10.4c0-0.6,0.4-1.1,1.1-1.1
			h5.1c0.6,0,1.1,0.5,1.1,1.1V353c0,0.6-0.5,1.1-1.1,1.1H254.9z"/>
		<path class="st1" d="M287,342.2c0-1.7-1-2.3-1.9-2.3c-0.7,0-1.8,0.5-1.9,1.3c0.1,0.4,0.1,0.7,0.1,1.1V353c0,0.6-0.5,1.1-1.1,1.1
			h-4.4c-0.7,0-1.1-0.5-1.1-1.1v-10.2c0-1.8-0.9-3-1.9-3c-1.3,0-2,1.2-2,3V353c0,0.6-0.5,1.1-1.1,1.1h-5.1c-0.7,0-1.1-0.5-1.1-1.1
			v-18.7c0-0.6,0.4-1.1,1.1-1.1h3.7c0.6,0,1.1,0.5,1.1,1.1v0.9c1.1-1.7,3.1-2.2,4.9-2.2c1.6,0,3.6,0.6,4.9,2.4
			c1.6-1.8,4-2.4,5.7-2.4c5,0,7.6,3.9,7.6,9v11c0,0.6-0.5,1.1-1.1,1.1h-5.3c-0.7,0-1.1-0.5-1.1-1.1V342.2z"/>
		<path class="st1" d="M298.9,343.9c0-5.9,5-10.9,10.9-10.9s10.9,5.1,10.9,10.9s-5,10.5-10.9,10.5S298.9,349.7,298.9,343.9z
			 M313.4,343.9c0-2.4-1.6-4.1-3.7-4.1c-1.9,0-3.5,1.7-3.5,4.1c0,2.2,1.6,4.1,3.5,4.1C311.8,348,313.4,346.2,313.4,343.9z"/>
	</g>
	<g>
		<path class="st1" d="M121.4,390.7c-1.7,2.1-3.9,2.4-5.7,2.4c-5.5,0-9.7-5-9.7-10.8c0-5.9,4.4-10.6,9.1-10.6c0.8,0,3.2,0,5,1.4
			v-8.8c0-0.6,0.5-1.1,1.1-1.1h5.1c0.7,0,1.1,0.5,1.1,1.1v27.5c0,0.6-0.5,1.1-1.1,1.1h-3.1c-0.9,0-1.2-0.2-1.5-1L121.4,390.7z
			 M120.1,382.4c0-2.3-1.5-3.8-3.4-3.8c-1.8,0-3.3,1.5-3.3,3.8c0,2.6,1.5,4.4,3.3,4.4C118.6,386.8,120.1,385,120.1,382.4z"/>
		<path class="st1" d="M152.7,383.5c0,0.6-0.5,1.1-1.1,1.1h-11.8c0.4,2.3,2.8,2.6,4.1,2.6c1.7,0,3.1-0.1,5-0.9
			c0.1-0.1,0.2-0.1,0.3-0.1c0.2,0,0.5,0.1,0.7,0.4l1.4,2.4c0.2,0.2,0.3,0.5,0.3,0.7c0,0.3-0.1,0.7-0.3,0.9c-1.4,1.9-4.6,2.6-7.3,2.6
			c-5.9,0-11.6-2.9-11.6-10.9c0-5.8,3-10.5,10.2-10.5c5.7,0,10.1,3.3,10.1,10L152.7,383.5L152.7,383.5z M139.8,380.5h5.6
			c-0.3-2.1-1.9-2.4-2.7-2.4C141.7,378.2,140.1,378.3,139.8,380.5z"/>
		<path class="st1" d="M178.7,390.7c-1.8,2.3-4.9,2.4-5.3,2.4c-1.5,0-6.9-0.6-6.9-6.9c0-4.1,2.9-5.7,6.8-5.7c1,0,3,0.2,4.1,0.8
			c-0.5-2.1-1.4-2.6-3.3-2.6c-0.6,0-2.1,0-3.2,0.3c-0.3,0.1-0.5,0.1-0.6,0.1c-0.5,0-1.1-0.2-1.4-0.7l-1.2-3.4
			c-0.1-0.2-0.1-0.5-0.1-0.8c0-0.5,0.2-0.9,0.6-1.2c3.2-1.3,4.9-1.3,6.7-1.3c6.8,0,9.8,3.7,9.8,9.6v10.5c0,0.6-0.5,1.1-1.1,1.1h-3.1
			c-0.9,0-1.2-0.2-1.5-1L178.7,390.7z M177.4,386.6v-1.3c-0.4-0.4-1.1-0.7-1.9-0.7c-1.5,0-2.3,0.4-2.3,1.3s0.9,1.4,2.3,1.4
			C175.8,387.3,176.8,387.2,177.4,386.6z"/>
		<path class="st1" d="M198.6,391.8c0,0.6-0.5,1.1-1.1,1.1h-5.1c-0.7,0-1.1-0.5-1.1-1.1v-27.5c0-0.6,0.4-1.1,1.1-1.1h5.1
			c0.6,0,1.1,0.5,1.1,1.1V391.8z"/>
		<path class="st1" d="M217.8,385.9c0.4-0.3,0.9-0.5,1.3-0.5c0.3,0,0.7,0.2,0.9,0.4l2,2.1c0.2,0.3,0.5,0.7,0.5,1.1
			c0,0.3-0.1,0.8-0.3,1.1c-2.3,2.5-5.1,2.9-7.7,2.9c-6,0-10.9-5-10.9-10.8c0-5.9,5-10.6,10.9-10.6c2.7,0,5.6,0.9,7.6,2.8
			c0.2,0.3,0.3,0.9,0.3,1c0,0.5-0.3,0.9-0.5,1.1l-2.1,2.7c-0.3,0.3-0.8,0.4-0.9,0.4h-0.3c-0.6-0.2-0.7-0.3-0.7-0.3
			c-0.7-0.4-1.9-0.8-3.4-0.8c-1.9,0-3.6,1.4-3.6,3.8s1.7,4.4,4,4.4C215.7,386.8,216.7,386.6,217.8,385.9z"/>
		<path class="st1" d="M225.4,382.6c0-5.9,5-10.9,10.9-10.9s10.9,5.1,10.9,10.9s-5,10.5-10.9,10.5S225.4,388.4,225.4,382.6z
			 M239.9,382.7c0-2.4-1.6-4.1-3.7-4.1c-1.9,0-3.5,1.7-3.5,4.1c0,2.2,1.6,4.1,3.5,4.1C238.3,386.8,239.9,384.9,239.9,382.7z"/>
		<path class="st1" d="M252.2,364.3c0-0.6,0.5-1.1,1.1-1.1h5.1c0.7,0,1.1,0.5,1.1,1.1v8.6c1.4-1,3-1.1,4.1-1.1c6,0,8.3,4.5,8.3,9.5
			v10.6c0,0.6-0.4,1.1-1.1,1.1h-5.1c-0.6,0-1.1-0.5-1.1-1.1V382c0-1.8-0.2-3.3-2.7-3.3c-1.7,0-2.4,1.5-2.4,3.3v9.9
			c0,0.6-0.4,1.1-1.1,1.1h-5.1c-0.6,0-1.1-0.5-1.1-1.1L252.2,364.3L252.2,364.3z"/>
		<path class="st1" d="M276.3,382.6c0-5.9,5-10.9,10.9-10.9s10.9,5.1,10.9,10.9s-5,10.5-10.9,10.5S276.3,388.4,276.3,382.6z
			 M290.8,382.7c0-2.4-1.6-4.1-3.7-4.1c-1.9,0-3.5,1.7-3.5,4.1c0,2.2,1.6,4.1,3.5,4.1C289.1,386.8,290.8,384.9,290.8,382.7z"/>
		<path class="st1" d="M310.4,391.8c0,0.6-0.5,1.1-1.1,1.1h-5.1c-0.7,0-1.1-0.5-1.1-1.1v-27.5c0-0.6,0.4-1.1,1.1-1.1h5.1
			c0.6,0,1.1,0.5,1.1,1.1V391.8z"/>
	</g>
</g>
<g>
	<path class="st1" d="M266.3,132.2c-1.7-24.6-18.9-45.1-41.8-51.7V34.4h2.8c4.9,0,8.9-4,8.9-8.9V14.9c0-4.9-4-8.9-8.9-8.9h-37.6
		c-4.9,0-8.9,4-8.9,8.9v10.6c0,4.9,4,8.9,8.9,8.9h2.8v46.1c-23,6.6-40.2,27.1-41.8,51.7c-0.1,0.6-0.2,1.2-0.2,1.8v2.2V226
		c0,6.6,5.4,12,12,12h92c6.6,0,12-5.4,12-12v-89.8V134C266.5,133.4,266.4,132.8,266.3,132.2z M250.8,185H166v-5.3h84.8V185z
		 M166.2,155.2l4-4l8.2,8.2l8.2-8.2l4,4l-8.2,8.2l8.2,8.2l-4,4l-8.2-8.2l-8.2,8.2l-4-4l8.2-8.2L166.2,155.2z M196.2,155.2l4-4
		l8.2,8.2l8.2-8.2l4,4l-8.2,8.2l8.2,8.2l-4,4l-8.2-8.2l-8.2,8.2l-4-4l8.2-8.2L196.2,155.2z M226.3,155.2l4-4l8.2,8.2l8.2-8.2l4,4
		l-8.2,8.2l8.2,8.2l-4,4l-8.2-8.2l-8.2,8.2l-4-4l8.2-8.2L226.3,155.2z M250.8,145.9H166v-5.3h84.8V145.9z"/>
</g>
<g>
	<g>
		<path class="st1" d="M67,448.2c-2.6,0.4-5.9-0.1-8.4,0.2c-0.6,0.1-1.5,0-1.9,0.3c0.4,3.1,2,5.3,5.5,5c1.3-0.4,2.2-1.5,3.2-0.7
			c0.4,1.7-0.9,1.9-2.3,2.4c-1-0.4-1.9,0.1-2.7,0c-1.3,0.1-2.3-0.7-3.3-1c-0.4-0.7-1.3-1.2-1.8-1.8c-0.1-0.4-0.2-0.8-0.3-1.2
			c-0.2-0.5-0.4-1.2-0.6-2.2c0-1.8-0.1-3.7,0.2-5.6c0.3-0.8,0.4-1.3,0.7-2c0.3-0.9,1.1-1.1,1.5-1.8c0.7-0.2,1.2-0.4,1.8-0.7
			c1-0.2,2.8,0.3,3.8-0.2c0.6,0.4,1.4,0.5,2,0.7c0.9,0.6,1.5,1.8,2.3,2.6c-0.2,0.8,0.1,1.1,0.3,1.5c-0.1,0.7,0,1.1,0.3,1.5
			C67.1,446.1,67.7,447.6,67,448.2L67,448.2z M64.5,443.4c-0.4-0.8-0.9-1.3-1.4-1.8c-1.3-0.5-2.8-0.2-4.1,0c-0.7,0-1,0.7-1.6,1.1
			c-0.5,0.8-1.3,2.7-0.1,3.7c0.1-0.1,0.3-0.1,0.3,0c0.9-0.1,1.5,0,2.3-0.4c0.7,0.5,1.5,0.2,2.3,0c0.8,0.4,2.2,0.5,2.8-0.1
			C65.3,444.9,64.9,444,64.5,443.4L64.5,443.4z"/>
		<path class="st1" d="M84.8,455c-0.5,0.3-1.3,0.1-1.9,0.2c-0.4-1.3-0.2-2.7,0-4.3c0-1.7-0.4-3-0.2-4.8c0-1.2-0.2-2.3-0.4-3.1
			c0-0.2-0.1-0.2-0.1-0.4c-0.7-1-1.7-1.1-2.6-1.7c-2,0.2-3.2,0.9-4.3,2.1c-0.1,0.8-0.6,1.4-0.7,2.4c0.1,1.2,0.2,2.7-0.1,3.5
			c0.1,0.5,0.2,0.8,0.3,1.2c-0.2,1.4-0.3,3.2-0.3,4.6c-0.3,0.3-1.1,0.6-1.7,0.4c-0.4-0.8-0.6-2.1-0.3-3.1c-0.1-0.6-0.1-1.1-0.2-1.7
			c0-0.8,0.2-2.3,0.2-3.6c0.1-0.2,0-0.4,0-0.4c0.1-2.2-0.1-3.8,0.2-6c-0.1-0.3-0.2-0.9,0.2-1.2c1.5-0.4,1.2,1.1,2.1,1.5
			c0.9-0.4,1.3-1,2-1.5c0.7,0,1.3-0.2,1.9-0.4c0.5,0.3,1-0.1,1.5,0c1.7,0.2,2.9,0.9,3.8,2.1c0,0.4,0.2,1,0.5,1.3
			c-0.2,0.6,0.3,1.1,0.2,1.8c0,0.3-0.1,0.6-0.1,1c0,0.8,0.4,2.3,0.2,3.5c0,0.9-0.3,2.2,0.2,3.5C84.7,453.3,85.4,454,84.8,455
			L84.8,455z"/>
		<path class="st1" d="M115.4,454.9c-0.3,0.5-1.2,0.4-2,0.4c-0.5-0.7-0.9-1.5-1.1-2.4c-0.3-0.8-0.7-1.5-1.1-2.3
			c-0.5,0-0.3-0.6-0.9-0.5c-0.3-0.1-0.8-0.1-1.1-0.3c-2.8-0.1-5,0.1-7.1-0.2c-1.1,0.8-1.3,1.8-1.8,2.9c-0.5,0.8-0.7,2-1.5,2.8
			c-0.5-0.2-1.3,0.3-1.6-0.2c-0.3-0.8,0.3-1.8,0.6-2.7c0.7-1.3,0.9-2.8,1.7-4.1c1.1-2.3,2-4.4,2.7-7c0.4-0.5,0.5-1.3,1-2
			c-0.1-0.6,0.3-0.7,0.3-1.3c0.2-0.3,0.5-0.7,0.6-1.1c0.3-0.4,0.1-1.1,0.6-1.3c0.3-0.9,0.6-1.6,0.9-2.6c0,0.1,0.1,0,0.1-0.1
			c0-0.2,0.2-0.2,0.3-0.4h0.4c0.8,1.9,1.5,3.1,2,4.8c0.4,1,0.6,1.6,1.1,2.3c0.1,1.3,0.8,2,1.2,3.1c0,1.2,0.6,1.8,0.9,2.9
			c0.7,0.7,0.9,1.8,1.2,2.8c0.4,1,1.1,2,1.1,2.9c0.4,0.5,0.6,1.2,0.9,1.7C115.2,453.6,115.4,454.1,115.4,454.9L115.4,454.9z
			 M105.8,439c0,0.2-0.2,0.2-0.1,0.4c-0.9,1.3-1.2,2.4-1.5,4c-0.6,0.6-0.8,1.4-1.1,2c0,0.5-0.3,0.7-0.4,1.1
			c-0.4,0.4,0.1,0.7,0.1,1.1c0.8,0.2,1.9-0.1,2.7-0.1c1.3,0.1,3.1,0.2,4-0.3c0.3-1.3-0.7-2.7-1.3-3.9c0.2-1.1-0.5-1.4-0.7-2.4
			c-0.7-0.4-0.4-1.8-1.4-1.9L105.8,439L105.8,439z"/>
		<path class="st1" d="M137.9,455.3c-0.5,0.3-1.1-0.1-1.7-0.1c-0.3-0.2,0.1-1-0.2-1.1c0-0.7,0.1-0.9,0.1-1.3
			c-0.3-1.1,0.2-2.5-0.3-3.1c0.1-0.5,0.4-0.7,0.3-1.2c-0.4-1.8-0.2-3.9,0-5.5c-0.4-1.2-2.2-2-3.8-1.5c-0.5,0.2-1.2,0.6-1.5,1.4
			c-0.1,0.4-0.4,2.4-0.4,3.3c0.1,2.2-0.1,4.4-0.3,6.2c0.3,1.1,0.7,3-0.9,3c-0.6,0-0.9-0.7-1.1-1.2c-0.1-0.2,0.2-0.6,0.1-0.9
			c0-0.7,0-1.2,0-1.9c0-0.3-0.2-0.6-0.2-0.9c0-0.6,0.2-1.1,0.2-2.2c-0.1-1.3-0.4-2.1-0.1-3.2c-0.4-0.6-0.2-1.6-0.5-2.4
			c-0.1-0.4-0.4-0.4-0.4-0.8c-0.5-0.4-1.3-0.5-1.8-0.8c-0.7,0.1-1.3,0.5-2,0.6c-0.8,1.1-1.1,2.4-1.4,4c0.4,2.1,0.5,4.4,0.2,6.7
			c0,0.9,0.1,2-0.3,2.9c-0.4,0.1-1.1,0-1.7-0.2c-0.7-1-0.1-2.1-0.3-3.4c0.1-0.3-0.1-0.6-0.1-1.1c0.1-2.6-0.1-6,0.6-8.9
			c-0.7-0.9-0.5-2.5,0.2-2.6c1.2-0.2,1,0.9,1.5,1.5c0.7-0.1,0.8-0.8,1.3-1.1c0.3-0.4,0.9-0.4,1.4-0.8c0.9,0,1.3,0.2,2.2,0.2
			c0.8,0.6,1.3,1.2,2.3,1.8c0.6-0.2,0.9-0.7,1.5-1.1c0.8-0.4,1.7-0.7,2.8-1h0.3c0.7,0.4,1.7,0.5,2.4,1c0.4,0.1,0.5,0.4,0.7,0.8
			c0.4,0.1,0.4,0.5,0.7,0.7c0.4,1.1,0.2,2.1,0.7,3.1c-0.2,2.9,0.1,5.9,0,8.9C138.3,453.8,138.3,455,137.9,455.3L137.9,455.3z"/>
		<path class="st1" d="M155.4,448.2c-2.6,0.4-5.9-0.1-8.4,0.2c-0.6,0.1-1.5,0-1.9,0.3c0.4,3.1,2,5.3,5.5,5c1.3-0.4,2.2-1.5,3.2-0.7
			c0.4,1.7-0.9,1.9-2.3,2.4c-1-0.4-1.9,0.1-2.7,0c-1.3,0.1-2.3-0.7-3.3-1c-0.4-0.7-1.3-1.2-1.8-1.8c-0.1-0.4-0.2-0.8-0.3-1.2
			c-0.2-0.5-0.4-1.2-0.6-2.2c0-1.8-0.1-3.7,0.2-5.6c0.3-0.8,0.4-1.3,0.7-2c0.3-0.9,1.1-1.1,1.5-1.8c0.7-0.2,1.2-0.4,1.8-0.7
			c1-0.2,2.8,0.3,3.8-0.2c0.6,0.4,1.4,0.5,2,0.7c0.9,0.6,1.5,1.8,2.3,2.6c-0.2,0.8,0.1,1.1,0.3,1.5c-0.1,0.7,0,1.1,0.3,1.5
			C155.5,446.1,156.2,447.6,155.4,448.2L155.4,448.2z M152.9,443.4c-0.4-0.8-0.9-1.3-1.4-1.8c-1.3-0.5-2.8-0.2-4.1,0
			c-0.7,0-1,0.7-1.6,1.1c-0.5,0.8-1.3,2.7-0.1,3.7c0.1-0.1,0.3-0.1,0.3,0c0.9-0.1,1.5,0,2.3-0.4c0.7,0.5,1.5,0.2,2.3,0
			c0.8,0.4,2.2,0.5,2.8-0.1C153.7,444.9,153.3,444,152.9,443.4L152.9,443.4z M152.9,431.1c-0.1,1.1-0.9,1.6-1.5,2.7
			c-0.7,0.5-0.9,1.6-1.7,2.1c-0.7,0.2-0.9-0.2-1.1-0.6c0.5-1.8,1.1-2.6,1.8-4.5C151,430.5,152,430.7,152.9,431.1L152.9,431.1z"/>
		<path class="st1" d="M167.1,438.9c0.5,0.3,0.6,1.3,0.4,2.1c-0.9,0.3-2.2,0.4-2.9,0.5c-1,0.5-1.2,2-1.8,3c0.1,3.2,0.1,7-0.4,11
			c-0.3-0.1-1.1-0.2-1.6-0.3c-0.6-0.9-0.1-1.5-0.1-2.5c0-0.4-0.2-1-0.2-1.5c0-0.4,0.1-0.8,0.1-1.1c0.1-1.8-0.2-3.7-0.1-5.9
			c0.1-0.7,0.2-1.7-0.1-2.8c0.3-0.9,0-1.8,0.8-2.2c0.5,0,0.8,0.2,1.1,0.4c0.3,0.2,0.2,0.8,0.7,0.8c0.8-0.2,1.3-0.8,2.2-1.1
			c0.3-0.2,1.3,0,1.6-0.3h0.3V438.9z"/>
		<path class="st1" d="M174.6,434.8c0.2,1.3-0.4,1.5-0.9,2.1c-1.5,0.2-2.5-0.3-2.4-1.9c0,0,0.1-0.2,0.2-0.4
			C172.4,433.7,173.9,433.7,174.6,434.8L174.6,434.8z M173.5,455.4c-0.7,0-1.2-0.2-1.7-0.3c-0.1-2.8-0.1-5.1-0.4-8.2
			c0.3-0.6,0.4-1.3,0.5-2.2c-0.2-1-0.2-2-0.2-2.8s-0.3-1.7,0.3-2.4c0.5,0,0.8-0.5,1.1-0.2c1.3,0.4,0.8,1.9,0.9,2.9
			c-0.1,2.4,0,4.4,0.3,7.8c-0.3,0.8-0.1,2-0.2,2.8C174,453.8,174.1,454.7,173.5,455.4L173.5,455.4z"/>
		<path class="st1" d="M190.1,440.9c-0.2,1.5-1.9,0.8-2.7,0.4c-1.1,0-2.6-0.1-3.2,0.1c-0.8,0.4-1.3,1.2-2.1,1.7
			c-0.2,0.7-0.4,1.5-0.8,2.3c-0.2,1.9,0,3.7,0.4,5.2c0.3,0.8,1,1.6,1.8,2.1c0.6,0.3,1.3,0.3,1.7,0.7c0.4,0,0.9-0.1,1.1,0.1
			c1.1-0.1,2.2-0.7,3.1-0.7c0.2,0.5,0.3,0.9,0.4,1.3c-0.2,1-1.9,1.1-3,1.3c-1-0.1-1.5-0.1-2.6-0.1c-0.9-0.4-1.7-0.8-2.5-1.2
			c-1.1-0.9-1.5-1.8-2.2-2.9c-0.2-1-0.4-1.8-0.7-2.4c0-1.1,0-2.2,0.1-3.4c0.3-1.3,0.7-1.9,1.1-3.2c0.7-0.9,1.8-2,2.9-2.9
			c0.5-0.1,1.3-0.1,1.8-0.4c1.1-0.1,2.2,0.1,3.2,0.1C188.8,439.7,190,439.6,190.1,440.9L190.1,440.9z"/>
		<path class="st1" d="M204.1,455.3c-0.8,0-0.8-0.9-1.5-1.1c-0.6,0.3-1.4,0.6-1.8,1c-1.3,0.2-2.9,0.4-4.4,0.2
			c-0.7-0.8-1.7-1.2-2.3-1.9c-0.4-1-0.2-2.3-0.7-3.2c0-0.9,0.2-1.5,0.3-2.4c0.3-0.4,0.6-1.1,0.9-1.5c0.2,0,0.4-0.1,0.4-0.3
			c1.4-0.7,2.6-0.7,4.6-1c1,0.6,1.5,1.2,2.5,1.4c1.2-0.4,0.1-1.8,0.3-2.9c-0.1-0.7-0.6-1.3-1.1-1.9c-0.7-0.1-1.1-0.4-1.8-0.6
			c-1.6-0.1-3,0.7-4.1,0.4c-0.4-0.5-0.7-0.9-0.6-1.6c0.4-0.6,1.5-0.5,2.1-1c1.3-0.1,2,0,3.3,0c0.7,0.4,1.5,0.7,2.5,0.9
			c1.1,1.6,2.4,3.6,2,6.4c0,0.5,0.2,0.8,0.2,1.3c0,1.8-0.2,3.2-0.3,4.9c0.1,0.9,0.3,1.2,0.3,2C205.1,454.9,204.6,455,204.1,455.3
			L204.1,455.3z M197.4,447.6c-0.4,0.4-0.9,0.7-1.4,1.1c0.2,0.3-0.2,0.3-0.3,0.6c-0.1,1.5,0.3,3.1,1.1,3.4c0.7,0.7,1.8,0.7,2.9,0.4
			c0.4-0.1,0.7-0.3,1.1-0.3c0.9-0.8,2-1,2.2-2.6c-0.5-1-1.1-1.6-1.7-2.3c-1-0.2-1.6-0.5-2.5-0.7c-0.1,0.1-0.2,0.2-0.2,0.2h-1.2
			V447.6z"/>
		<path class="st1" d="M221.6,432.4c0.2,1,0.1,1.6,0.2,2.9c0.1,1.1-0.1,4.2,0,5.3c-0.3,0.8-0.2,1.6-0.2,2.3c0.1,1.1,0,2.2,0,3.6
			c0,0,0,0.4,0,0.6c-0.1,0.6,0,1.4,0.2,2.1c0.1,1.3-0.3,2.4,0.2,3.5c2.6,0.3,4.7,0,7.1,0.5c1.2-0.3,2.1-0.6,2.9-0.2
			c0.3,0.8,0.1,1.6-0.3,2c-1.2,0-2.9,0.4-4.4,0.2c-0.3-0.1-0.7-0.2-1.2-0.2c-2.2-0.1-4.8,0.4-6.5-0.3c-0.5-0.8-0.2-1.7-0.1-2.9
			c-0.2-0.6,0-1.1-0.2-1.6c0-0.5,0-1.1,0.2-1.5c0-0.4-0.2-0.5-0.2-1c0.3-2.1,0.3-4.9,0.3-7.5c-0.1-0.5-0.2-1-0.3-1.3
			c0.2-0.5,0.1-1.3,0.2-1.8c-0.1-1.1,0-1.9-0.2-2.8c0.3-0.3-0.1-1.6,0.4-1.8C219.9,432,221.1,432.2,221.6,432.4L221.6,432.4z"/>
		<path class="st1" d="M246.5,455.3c-0.8,0-0.8-0.9-1.5-1.1c-0.6,0.3-1.4,0.6-1.8,1c-1.3,0.2-2.9,0.4-4.4,0.2
			c-0.7-0.8-1.7-1.2-2.3-1.9c-0.4-1-0.2-2.3-0.7-3.2c0-0.9,0.2-1.5,0.3-2.4c0.3-0.4,0.6-1.1,0.9-1.5c0.2,0,0.4-0.1,0.4-0.3
			c1.4-0.7,2.6-0.7,4.6-1c1,0.6,1.5,1.2,2.5,1.4c1.2-0.4,0.1-1.8,0.3-2.9c-0.1-0.7-0.6-1.3-1.1-1.9c-0.7-0.1-1.1-0.4-1.8-0.6
			c-1.6-0.1-3,0.7-4.1,0.4c-0.4-0.5-0.7-0.9-0.6-1.6c0.4-0.6,1.5-0.5,2.1-1c1.3-0.1,2,0,3.3,0c0.7,0.4,1.5,0.7,2.5,0.9
			c1.1,1.6,2.4,3.6,2,6.4c0,0.5,0.2,0.8,0.2,1.3c0,1.8-0.2,3.2-0.3,4.9c0.1,0.9,0.3,1.2,0.3,2C247.5,454.9,247,455,246.5,455.3
			L246.5,455.3z M239.9,447.6c-0.4,0.4-0.9,0.7-1.4,1.1c0.2,0.3-0.2,0.3-0.3,0.6c-0.1,1.5,0.3,3.1,1.1,3.4c0.7,0.7,1.8,0.7,2.9,0.4
			c0.4-0.1,0.7-0.3,1.1-0.3c0.9-0.8,2-1,2.2-2.6c-0.5-1-1.1-1.6-1.7-2.3c-1-0.2-1.6-0.5-2.5-0.7c-0.1,0.1-0.2,0.2-0.2,0.2h-1.2
			V447.6z"/>
		<path class="st1" d="M257.4,432.8c0.2,2.2-0.9,4.6,0.5,6.3c0.8-0.1,1.6-0.2,2.3-0.1c0.4,0.4,0.7,1.5,0.3,2.2
			c-0.8,0.2-2.1-0.4-2.9,0.2c-0.1,0.1-0.1,0.5-0.4,0.6c0.2,1.4-0.1,3,0.4,4.3c-0.3,1.1-0.1,2.2-0.4,3.2c0.3,0.9,0.1,1.8,0.3,2.9
			c0.4,0.3,0.8,0.5,1.1,0.8c1.2,0.4,2.7,0.1,2.3,1.8c-0.4,0.4-1.6,0.4-2.5,0.4c-0.6-0.1-1-0.5-1.8-0.6c-0.4-0.5-0.9-1.1-1.3-1.7
			c0-1-0.2-1.5-0.3-2.4c-0.3-2.6,0.1-5.8-0.3-9.2c-0.4-0.5-1.5-0.5-2.6-0.6c-0.3-0.7-0.3-1.6,0.1-2.1c0.9-0.1,2.6,0.1,2.9-0.9
			c0-0.7-0.2-1-0.2-1.5c0.1-1.9-0.2-3.2,0.4-4.3C256.3,432.1,256.8,432.4,257.4,432.8L257.4,432.8z"/>
		<path class="st1" d="M269,434.8c0.2,1.3-0.4,1.5-0.9,2.1c-1.5,0.2-2.5-0.3-2.4-1.9c0,0,0.1-0.2,0.2-0.4
			C266.9,433.7,268.3,433.7,269,434.8L269,434.8z M267.9,455.4c-0.7,0-1.2-0.2-1.7-0.3c-0.1-2.8-0.1-5.1-0.4-8.2
			c0.3-0.6,0.4-1.3,0.5-2.2c-0.2-1-0.2-2-0.2-2.8s-0.3-1.7,0.3-2.4c0.5,0,0.8-0.5,1.1-0.2c1.3,0.4,0.8,1.9,0.9,2.9
			c-0.1,2.4,0,4.4,0.3,7.8c-0.3,0.8-0.1,2-0.2,2.8C268.5,453.8,268.6,454.7,267.9,455.4L267.9,455.4z"/>
		<path class="st1" d="M287.4,455c-0.5,0.3-1.3,0.1-1.9,0.2c-0.4-1.3-0.2-2.7,0-4.3c0-1.7-0.4-3-0.2-4.8c0-1.2-0.2-2.3-0.4-3.1
			c0-0.2-0.1-0.2-0.1-0.4c-0.7-1-1.7-1.1-2.6-1.7c-2,0.2-3.2,0.9-4.3,2.1c-0.1,0.8-0.6,1.4-0.7,2.4c0.1,1.2,0.2,2.7-0.1,3.5
			c0.1,0.5,0.2,0.8,0.3,1.2c-0.2,1.4-0.3,3.2-0.3,4.6c-0.3,0.3-1.1,0.6-1.7,0.4c-0.4-0.8-0.6-2.1-0.3-3.1c-0.1-0.6-0.1-1.1-0.2-1.7
			c0-0.8,0.2-2.3,0.2-3.6c0.1-0.2,0-0.4,0-0.4c0.1-2.2-0.1-3.8,0.2-6c-0.1-0.3-0.2-0.9,0.2-1.2c1.5-0.4,1.2,1.1,2.1,1.5
			c0.9-0.4,1.3-1,2-1.5c0.7,0,1.3-0.2,1.9-0.4c0.5,0.3,1-0.1,1.5,0c1.7,0.2,2.9,0.9,3.8,2.1c0,0.4,0.2,1,0.5,1.3
			c-0.2,0.6,0.3,1.1,0.2,1.8c0,0.3-0.1,0.6-0.1,1c0,0.8,0.4,2.3,0.2,3.5c0,0.9-0.3,2.2,0.2,3.5C287.3,453.3,288,454,287.4,455
			L287.4,455z"/>
		<path class="st1" d="M302.5,455.3c-0.8,0-0.8-0.9-1.5-1.1c-0.6,0.3-1.4,0.6-1.8,1c-1.3,0.2-2.9,0.4-4.4,0.2
			c-0.7-0.8-1.7-1.2-2.3-1.9c-0.4-1-0.2-2.3-0.7-3.2c0-0.9,0.2-1.5,0.3-2.4c0.3-0.4,0.6-1.1,0.9-1.5c0.2,0,0.4-0.1,0.4-0.3
			c1.4-0.7,2.6-0.7,4.6-1c1,0.6,1.5,1.2,2.5,1.4c1.2-0.4,0.1-1.8,0.3-2.9c-0.1-0.7-0.6-1.3-1.1-1.9c-0.7-0.1-1.1-0.4-1.8-0.6
			c-1.6-0.1-3,0.7-4.1,0.4c-0.4-0.5-0.7-0.9-0.6-1.6c0.4-0.6,1.5-0.5,2.1-1c1.3-0.1,2,0,3.3,0c0.7,0.4,1.5,0.7,2.5,0.9
			c1.1,1.6,2.4,3.6,2,6.4c0,0.5,0.2,0.8,0.2,1.3c0,1.8-0.2,3.2-0.3,4.9c0.1,0.9,0.3,1.2,0.3,2C303.5,454.9,303,455,302.5,455.3
			L302.5,455.3z M295.9,447.6c-0.4,0.4-0.9,0.7-1.4,1.1c0.2,0.3-0.2,0.3-0.3,0.6c-0.1,1.5,0.3,3.1,1.1,3.4c0.7,0.7,1.8,0.7,2.9,0.4
			c0.4-0.1,0.7-0.3,1.1-0.3c0.9-0.8,2-1,2.2-2.6c-0.5-1-1.1-1.6-1.7-2.3c-1-0.2-1.6-0.5-2.5-0.7c-0.1,0.1-0.2,0.2-0.2,0.2h-1.2
			V447.6z"/>
		<path class="st1" d="M327.6,440.9c-0.2,1.5-1.9,0.8-2.7,0.4c-1.1,0-2.6-0.1-3.2,0.1c-0.8,0.4-1.3,1.2-2.1,1.7
			c-0.2,0.7-0.4,1.5-0.8,2.3c-0.2,1.9,0,3.7,0.4,5.2c0.3,0.8,1,1.6,1.8,2.1c0.6,0.3,1.3,0.3,1.7,0.7c0.4,0,0.9-0.1,1.1,0.1
			c1.1-0.1,2.2-0.7,3.1-0.7c0.2,0.5,0.3,0.9,0.4,1.3c-0.2,1-1.9,1.1-3,1.3c-1-0.1-1.5-0.1-2.6-0.1c-0.9-0.4-1.7-0.8-2.5-1.2
			c-1.1-0.9-1.5-1.8-2.2-2.9c-0.2-1-0.4-1.8-0.7-2.4c0-1.1,0-2.2,0.1-3.4c0.3-1.3,0.7-1.9,1.1-3.2c0.7-0.9,1.8-2,2.9-2.9
			c0.5-0.1,1.3-0.1,1.8-0.4c1.1-0.1,2.2,0.1,3.2,0.1C326.3,439.7,327.5,439.6,327.6,440.9L327.6,440.9z"/>
		<path class="st1" d="M337.5,438.9c0,0,0-0.1,0.2-0.2c1.1,0.1,1.6,0.7,2.8,0.5c1.6,0.7,2.4,2.4,3.2,3.4c0.4,0.7,0.2,2,0.9,2.8
			c-0.3,0.6,0,1.2,0.2,1.8c-0.2,0.4,0,0.8,0,1.2c0,1-0.7,1.7-0.7,2.8c-0.5,0.6-1,1.3-1.3,2.1c-0.8,0.5-1.5,1.4-2.5,1.7
			c-1.4,0.4-3.1,0.7-4.6,0.1c-0.9-0.4-1.7-0.9-2.6-1.4c-0.2-0.6-0.5-1-0.9-1.3c-0.1-0.9-0.7-1.3-0.8-2.1c-0.3-0.7-0.2-1.4-0.4-2.1
			c-0.2-1.5,0.4-3,0.3-4.5c0.6-0.6,1-1.2,1.3-2.1c0.5-0.4,0.9-0.8,1.2-1.5C334.7,439.8,336.1,439.2,337.5,438.9L337.5,438.9z
			 M335.9,441.5c-0.5,0.5-1.2,0.9-1.7,1.5c-0.9,1.8-0.9,3.8-0.8,6.4c0.4,1.4,1.1,2.4,2.1,3.4c0.9,0.2,2,0.8,3.5,0.7
			c0.6-0.5,1.2-0.7,1.8-1.1c0.2-0.3,0.4-0.7,0.5-0.8c0.1-0.1,0.2-0.2,0.3-0.2c0.1-0.2,0-0.5,0.1-0.9c0.1-0.2,0.3-0.4,0.4-0.5
			c0.2-0.8,0-1.6,0.4-2.5c-0.2-0.8-0.1-1.8-0.3-2.7c-0.4-0.8-0.7-1.5-1-2.3c-0.9-0.4-1.5-1-2.5-1.3c-0.4,0.2-1.2-0.1-1.5,0.1
			C336.7,441.2,336.5,441.6,335.9,441.5L335.9,441.5z"/>
		<path class="st1" d="M362.3,455c-0.5,0.3-1.3,0.1-1.9,0.2c-0.4-1.3-0.2-2.7,0-4.3c0-1.7-0.4-3-0.2-4.8c0-1.2-0.2-2.3-0.4-3.1
			c0-0.2-0.1-0.2-0.1-0.4c-0.7-1-1.7-1.1-2.6-1.7c-2,0.2-3.2,0.9-4.3,2.1c-0.1,0.8-0.6,1.4-0.7,2.4c0.1,1.2,0.2,2.7-0.1,3.5
			c0.1,0.5,0.2,0.8,0.3,1.2c-0.2,1.4-0.3,3.2-0.3,4.6c-0.3,0.3-1.1,0.6-1.7,0.4c-0.4-0.8-0.6-2.1-0.3-3.1c-0.1-0.6-0.1-1.1-0.2-1.7
			c0-0.8,0.2-2.3,0.2-3.6c0.1-0.2,0-0.4,0-0.4c0.1-2.2-0.1-3.8,0.2-6c-0.1-0.3-0.2-0.9,0.2-1.2c1.5-0.4,1.2,1.1,2.1,1.5
			c0.9-0.4,1.3-1,2-1.5c0.7,0,1.3-0.2,1.9-0.4c0.5,0.3,1-0.1,1.5,0c1.7,0.2,2.9,0.9,3.8,2.1c0,0.4,0.2,1,0.5,1.3
			c-0.2,0.6,0.3,1.1,0.2,1.8c0,0.3-0.1,0.6-0.1,1c0,0.8,0.4,2.3,0.2,3.5c0,0.9-0.3,2.2,0.2,3.5C362.2,453.3,362.9,454,362.3,455
			L362.3,455z"/>
	</g>
	<g>
		<path class="st1" d="M73.2,496.4c-5.6-0.6-10.7-4.5-10.7-10.1c0-7.3,5.6-10.9,11.7-10.9c6,0,11.5,3.7,11.5,10.9
			c0,1.5-0.5,3.6-1.1,4.7l-7.4,13.4c-0.4,0.8-1,1-1.7,1h-5.4c-0.7,0-1.1-0.5-1.1-1.3L73.2,496.4z M78.3,486c0-2.3-1.9-3.8-4.2-3.8
			s-4.3,1.5-4.3,3.8s2.2,3.8,4.3,3.8S78.3,488.3,78.3,486z"/>
		<path class="st1" d="M92.8,504.9c-0.7-0.7-1.3-1.7-1.3-2.8c0-2.2,1.7-3.9,4-3.9c2.1,0,3.9,1.7,3.9,3.9c0,0.6-0.2,1.3-0.4,1.7
			l-2.5,4.9c-0.2,0.4-0.6,0.7-1.1,0.7h-3.2c-0.5,0-0.8-0.3-0.8-1L92.8,504.9z"/>
		<path class="st1" d="M117.6,484.6c5.6,0.6,10.7,4.5,10.7,10.1c0,7.3-5.6,10.9-11.7,10.9c-6,0-11.5-3.7-11.5-10.9
			c0-1.5,0.5-3.6,1.1-4.7l7.3-13.3c0.4-0.8,1-1,1.7-1h5.4c0.7,0,1.1,0.5,1.1,1.3L117.6,484.6z M112.4,495c0,2.8,1.9,4.2,4.2,4.2
			s4.3-1.5,4.3-4.2c0-2.3-2.2-3.7-4.3-3.7S112.4,492.7,112.4,495z"/>
		<path class="st1" d="M144.4,476.8c0-0.6,0.4-1.1,1.1-1.1h5.1c0.6,0,1.1,0.5,1.1,1.1v21.7h12.7c0.6,0,1.1,0.5,1.1,1.1v4.7
			c0,0.7-0.5,1.1-1.1,1.1h-19c-0.7,0-1.1-0.5-1.1-1.1L144.4,476.8L144.4,476.8z"/>
		<path class="st1" d="M178.3,504.3c0,0.6-0.5,1.1-1.1,1.1h-5.1c-0.7,0-1.1-0.5-1.1-1.1v-27.5c0-0.6,0.4-1.1,1.1-1.1h5.1
			c0.6,0,1.1,0.5,1.1,1.1V504.3z"/>
		<path class="st1" d="M203.7,475.7c0.6,0,1.1,0.5,1.1,1.1v4.9c0,0.7-0.5,1.1-1.1,1.1h-6.2v21.5c0,0.6-0.5,1.1-1.1,1.1h-5
			c-0.7,0-1.1-0.5-1.1-1.1v-21.5h-6.2c-0.6,0-1.1-0.4-1.1-1.1v-4.9c0-0.6,0.5-1.1,1.1-1.1H203.7z"/>
		<path class="st1" d="M221.3,496h-4.5v8.3c0,0.6-0.5,1.1-1.1,1.1h-5.1c-0.7,0-1.1-0.5-1.1-1.1v-27.5c0-0.6,0.4-1.1,1.1-1.1h13
			c5.1,0,9.2,4,9.2,9.8c0,3.9-1.8,6.9-4.6,8.6l5,10c0,0.8-0.5,1.4-1.3,1.4h-5c-0.9,0-1.5-0.5-1.7-1.2L221.3,496z M225.4,485.9
			c0-2.1-0.9-2.9-2.1-2.9h-6.4v6h6.4C224.4,489,225.4,487.7,225.4,485.9z"/>
		<path class="st1" d="M237.1,490.5c0-8.4,6.7-15.2,15-15.2c8.3,0,15,6.8,15,15.2s-6.7,15.2-15,15.2
			C243.8,505.7,237.1,498.8,237.1,490.5z M259.9,490.6c0-4.5-3.2-8.4-7.8-8.4c-4.4,0-7.7,3.9-7.7,8.4s3.2,8.6,7.7,8.6
			C256.6,499.3,259.9,495.2,259.9,490.6z"/>
		<path class="st1" d="M271.9,501.8c0-0.2,0-0.4,0.1-0.5l1.8-3.3c0.2-0.4,0.6-0.6,1-0.6c0.2,0,0.4,0,0.6,0.1c1,0.6,3.7,1.7,7.2,1.7
			c1.7,0,4.1-0.7,4.1-2c0-3.6-14.5-3.1-14.5-13c0-5.5,3.9-8.9,10.8-8.9c3.3,0,7.3,1.3,8.9,2c0.2,0.2,0.5,0.4,0.6,0.9
			c0,0.2,0,0.4-0.1,0.6l-1.7,3.9c-0.2,0.3-0.7,0.7-1.1,0.7l-0.6-0.2c-1.3-0.4-4.4-1.1-6-1.1c-3.4,0-3.7,1.7-3.7,2
			c0,3.6,14.5,3.8,14.5,13c0,5.4-6.3,8.4-10.7,8.4c-3.4,0-7.2-0.6-10.8-2.8C272.2,502.7,271.9,502.2,271.9,501.8z"/>
		<path class="st1" d="M323.2,503.2c-1.7,2.1-3.9,2.4-5.7,2.4c-5.5,0-9.7-5-9.7-10.8c0-5.9,4.4-10.6,9.1-10.6c0.8,0,3.2,0,5,1.4
			v-8.8c0-0.6,0.5-1.1,1.1-1.1h5.1c0.7,0,1.1,0.5,1.1,1.1v27.5c0,0.6-0.5,1.1-1.1,1.1H325c-0.9,0-1.2-0.2-1.5-1L323.2,503.2z
			 M321.9,494.9c0-2.3-1.5-3.8-3.4-3.8c-1.8,0-3.3,1.5-3.3,3.8c0,2.6,1.5,4.4,3.3,4.4C320.4,499.3,321.9,497.5,321.9,494.9z"/>
		<path class="st1" d="M354.5,496c0,0.6-0.5,1.1-1.1,1.1h-11.8c0.4,2.3,2.8,2.6,4.1,2.6c1.7,0,3.1-0.1,5-0.9
			c0.1-0.1,0.2-0.1,0.3-0.1c0.2,0,0.5,0.1,0.7,0.4l1.4,2.4c0.2,0.2,0.3,0.5,0.3,0.7c0,0.3-0.1,0.7-0.3,0.9c-1.4,1.9-4.6,2.6-7.3,2.6
			c-5.9,0-11.6-2.9-11.6-10.9c0-5.8,3-10.5,10.2-10.5c5.7,0,10.1,3.3,10.1,10V496L354.5,496z M341.6,493h5.6
			c-0.3-2.1-1.9-2.4-2.7-2.4C343.5,490.7,341.9,490.8,341.6,493z"/>
	</g>
	<g>
		<path class="st1" d="M22,542c-1.8,2.3-4.9,2.4-5.3,2.4c-1.5,0-6.9-0.6-6.9-6.9c0-4.1,2.9-5.7,6.8-5.7c1,0,3,0.2,4.1,0.8
			c-0.5-2.1-1.4-2.6-3.3-2.6c-0.6,0-2.1,0-3.2,0.3c-0.3,0.1-0.5,0.1-0.6,0.1c-0.5,0-1.1-0.2-1.4-0.7l-1.1-3.2
			c-0.1-0.2-0.1-0.5-0.1-0.8c0-0.5,0.2-0.9,0.6-1.2c3.2-1.3,4.9-1.3,6.7-1.3c6.8,0,9.8,3.7,9.8,9.6V543c0,0.6-0.5,1.1-1.1,1.1h-3.1
			c-0.9,0-1.2-0.2-1.5-1L22,542z M20.7,537.9v-1.3c-0.4-0.4-1.1-0.7-1.9-0.7c-1.5,0-2.3,0.4-2.3,1.3c0,0.9,0.9,1.4,2.3,1.4
			C19,538.5,20,538.4,20.7,537.9z"/>
		<path class="st1" d="M41.8,543c0,0.6-0.5,1.1-1.1,1.1h-5.1c-0.7,0-1.1-0.5-1.1-1.1v-27.5c0-0.6,0.4-1.1,1.1-1.1h5.1
			c0.6,0,1.1,0.5,1.1,1.1V543z"/>
		<path class="st1" d="M61,537.1c0.4-0.3,0.9-0.5,1.3-0.5c0.3,0,0.7,0.2,0.9,0.4l2,2.1c0.2,0.3,0.5,0.7,0.5,1.2
			c0,0.3-0.1,0.8-0.3,1.1c-2.3,2.5-5.1,2.9-7.7,2.9c-6,0-10.9-5-10.9-10.8c0-5.9,5-10.6,10.9-10.6c2.7,0,5.6,0.9,7.6,2.8
			c0.2,0.3,0.3,0.9,0.3,1c0,0.5-0.3,0.9-0.5,1.1l-2.1,2.7c-0.3,0.3-0.8,0.4-0.9,0.4h-0.3c-0.6-0.2-0.7-0.3-0.7-0.3
			c-0.7-0.4-1.9-0.8-3.4-0.8c-1.9,0-3.6,1.4-3.6,3.8s1.7,4.4,4,4.4C59,538,59.9,537.9,61,537.1z"/>
		<path class="st1" d="M68.6,533.9c0-5.9,5-10.9,10.9-10.9s10.9,5,10.9,10.9c0,5.8-5,10.5-10.9,10.5
			C73.7,544.4,68.6,539.7,68.6,533.9z M83.1,533.9c0-2.3-1.6-4.1-3.7-4.1c-1.9,0-3.5,1.7-3.5,4.1c0,2.2,1.6,4.1,3.5,4.1
			C81.5,538,83.1,536.2,83.1,533.9z"/>
		<path class="st1" d="M95.4,515.5c0-0.6,0.5-1.1,1.1-1.1h5.1c0.7,0,1.1,0.5,1.1,1.1v8.6c1.4-1,3-1.1,4.1-1.1c6,0,8.3,4.5,8.3,9.5
			V543c0,0.6-0.4,1.1-1.1,1.1h-5.1c-0.6,0-1.1-0.5-1.1-1.1v-9.9c0-1.8-0.2-3.3-2.7-3.3c-1.7,0-2.4,1.5-2.4,3.3v9.9
			c0,0.6-0.4,1.1-1.1,1.1h-5.1c-0.6,0-1.1-0.5-1.1-1.1C95.4,543,95.4,515.5,95.4,515.5z"/>
		<path class="st1" d="M119.5,533.9c0-5.9,5-10.9,10.9-10.9c5.9,0,10.9,5.1,10.9,10.9c0,5.8-5,10.5-10.9,10.5
			C124.5,544.4,119.5,539.7,119.5,533.9z M134,533.9c0-2.3-1.6-4.1-3.7-4.1c-1.9,0-3.5,1.7-3.5,4.1c0,2.2,1.6,4.1,3.5,4.1
			C132.4,538,134,536.2,134,533.9z"/>
		<path class="st1" d="M153.6,543c0,0.6-0.5,1.1-1.1,1.1h-5.1c-0.7,0-1.1-0.5-1.1-1.1v-27.5c0-0.6,0.4-1.1,1.1-1.1h5.1
			c0.6,0,1.1,0.5,1.1,1.1L153.6,543L153.6,543z"/>
		<path class="st1" d="M176.2,524.7c2-1.5,4.3-1.8,6.1-1.8c5.7,0,10,4.8,10,10.6s-4.1,10.8-9.7,10.8c-1.2,0-2.8,0-4.4-0.9v8.5
			c0,0.6-0.4,1.1-1.1,1.1H172c-0.6,0-1.1-0.5-1.1-1.1v-27.6c0-0.6,0.5-1.1,1.1-1.1h2.7c0.9,0,1.2,0.2,1.5,1V524.7z M184.9,533.6
			c0-2.3-1.5-3.8-3.3-3.8s-3.4,1.5-3.4,3.8c0,2.8,1.6,4.4,3.4,4.4S184.9,536.4,184.9,533.6z"/>
		<path class="st1" d="M212.6,544.1c-0.9,0-1.2-0.2-1.5-1l-0.3-1.1c-1.4,2-3.8,2.4-5.5,2.4c-6,0-8.7-4.5-8.7-9.5v-10.6
			c0-0.6,0.4-1.1,1.1-1.1h5.1c0.6,0,1.1,0.5,1.1,1.1v10.4c0,1.8,0.2,3.3,2.7,3.3c1.7,0,2.4-1.5,2.4-3.3v-10.4c0-0.6,0.4-1.1,1.1-1.1
			h5.1c0.6,0,1.1,0.5,1.1,1.1V543c0,0.6-0.5,1.1-1.1,1.1H212.6z"/>
		<path class="st1" d="M233.8,529.8c-2.6,0-3.4,1.6-3.4,3.2v10c0,0.6-0.5,1.1-1.1,1.1h-5.1c-0.7,0-1.1-0.5-1.1-1.1v-18.7
			c0-0.6,0.4-1.1,1.1-1.1h3.7c0.6,0,1.1,0.5,1.1,1.1v0.9c1.3-1.7,3.2-2.1,4.7-2.2h2c0.6,0,1.1,0.5,1.1,1.1v4.6
			c0,0.7-0.5,1.1-1.1,1.1L233.8,529.8L233.8,529.8z"/>
		<path class="st1" d="M238.6,533.9c0-5.9,5-10.9,10.9-10.9s10.9,5.1,10.9,10.9c0,5.8-5,10.5-10.9,10.5
			C243.6,544.4,238.6,539.7,238.6,533.9z M253.1,533.9c0-2.3-1.6-4.1-3.7-4.1c-1.9,0-3.5,1.7-3.5,4.1c0,2.2,1.6,4.1,3.5,4.1
			C251.5,538,253.1,536.2,253.1,533.9z"/>
		<path class="st1" d="M276,542.9c-0.1,0-0.1,0.1-0.3,0.1c-0.7,0.2-0.2,1-0.2,1.6c-0.2,0.9-0.1,2.4,0,3.2c-0.2,0.9,0,2.3-0.4,3.1
			c-0.5,0.1-1.2,0.2-1.8,0c-0.6-0.8-0.2-1.4-0.1-2.2c0.3-2.2-0.1-4.8-0.2-6.8c0-0.4,0.2-0.8,0.2-1.1c0-0.4-0.2-0.7-0.2-1
			s0.2-0.5,0.2-0.8c0-0.9-0.1-1.8,0-2.7v-1c0-2.1-0.3-3.9-0.2-6.1c-0.1-0.7,0-1.2,0.7-1.4c0.4,0,1,0,1.1,0.2
			c0.3,0.3,0.3,0.8,0.7,0.8c1.1-0.2,1.8-0.5,2.6-1.1c0.4,0.2,0.9-0.1,1.2-0.2h1.1c1,0,1.8,0.4,2.6,0.7c0.8,0.4,1.1,1,1.8,1.3
			c0.7,1.5,1,2.6,1.5,4.2c0,1.8,0.2,3.5,0.1,5.4c-0.4,0.6-0.6,1.2-0.8,2c-0.4,0.8-1,1.3-1.7,2.1c-0.8,0.3-1.5,0.7-2.7,0.8
			c-1.3,0-1.8,0.2-3.1,0.1C277.2,543.9,277.1,542.8,276,542.9L276,542.9z M277.8,530.4c-0.4,0.4-1,1-1.4,1.4c-1,1.3-0.8,3-0.9,4.8
			c0.1,0.8,0.2,1.5,0.3,2.5c0.7,1,0.9,2.2,1.8,2.4c1.1,0.3,2.5,0.7,3.7,0.8c0.6-0.3,1-0.8,1.5-0.9c0.7-0.9,1-1.8,1.5-2.9
			c0.3-2,0.2-4.4-0.6-6.2c-0.2-0.9-0.9-1.6-1.9-2.1c-0.7-0.2-1.9-0.4-2.4-0.2C278.6,530,278.3,530.2,277.8,530.4L277.8,530.4z"/>
		<path class="st1" d="M302.7,536.9c-2.6,0.4-5.9-0.1-8.4,0.2c-0.6,0.1-1.5,0-1.9,0.3c0.4,3.1,2,5.3,5.5,5c1.3-0.4,2.2-1.5,3.2-0.7
			c0.4,1.7-0.9,1.9-2.3,2.4c-1-0.4-1.9,0.1-2.7,0c-1.3,0.1-2.3-0.7-3.3-1c-0.4-0.7-1.3-1.2-1.8-1.8c-0.1-0.4-0.2-0.8-0.3-1.2
			c-0.2-0.5-0.4-1.2-0.6-2.2c0-1.8-0.1-3.7,0.2-5.6c0.3-0.8,0.4-1.3,0.7-2c0.3-0.9,1.1-1.1,1.5-1.8c0.7-0.2,1.2-0.4,1.8-0.7
			c1-0.2,2.8,0.3,3.8-0.2c0.6,0.4,1.4,0.5,2,0.7c0.9,0.6,1.5,1.8,2.3,2.6c-0.2,0.8,0.1,1.1,0.3,1.5c-0.1,0.7,0,1.1,0.3,1.5
			C302.8,534.8,303.5,536.4,302.7,536.9L302.7,536.9z M300.2,532.2c-0.4-0.8-0.9-1.3-1.4-1.8c-1.3-0.5-2.8-0.2-4.1,0
			c-0.7,0-1,0.7-1.6,1.1c-0.5,0.8-1.3,2.7-0.1,3.7c0.1-0.1,0.3-0.1,0.3,0c0.9-0.1,1.5,0,2.3-0.4c0.7,0.5,1.5,0.2,2.3,0
			c0.8,0.4,2.2,0.5,2.8-0.1C301,533.6,300.6,532.8,300.2,532.2L300.2,532.2z"/>
		<path class="st1" d="M314.3,527.7c0.5,0.3,0.6,1.3,0.4,2.1c-0.9,0.3-2.2,0.4-2.9,0.5c-1,0.5-1.2,2-1.8,3c0.1,3.2,0.1,7-0.4,11
			c-0.3-0.1-1.1-0.2-1.6-0.3c-0.6-0.9-0.1-1.5-0.1-2.5c0-0.4-0.2-1-0.2-1.5c0-0.4,0.1-0.8,0.1-1.1c0.1-1.8-0.2-3.7-0.1-5.9
			c0.1-0.7,0.2-1.7-0.1-2.8c0.3-0.9,0-1.8,0.8-2.2c0.5,0,0.8,0.2,1.1,0.4c0.3,0.2,0.2,0.8,0.7,0.8c0.8-0.2,1.3-0.8,2.2-1.1
			c0.3-0.2,1.3,0,1.6-0.3h0.3V527.7z"/>
		<path class="st1" d="M336.8,529.7c-0.2,1.5-1.9,0.8-2.7,0.4c-1.1,0-2.6-0.1-3.2,0.1c-0.8,0.4-1.3,1.2-2.1,1.7
			c-0.2,0.7-0.4,1.5-0.8,2.3c-0.2,1.9,0,3.7,0.4,5.2c0.3,0.8,1,1.6,1.8,2.1c0.6,0.3,1.3,0.3,1.7,0.7c0.4,0,0.9-0.1,1.1,0.1
			c1.1-0.1,2.2-0.7,3.1-0.7c0.2,0.5,0.3,0.9,0.4,1.3c-0.2,1-1.9,1.1-3,1.3c-1-0.1-1.5-0.1-2.6-0.1c-0.9-0.4-1.7-0.8-2.5-1.2
			c-1.1-0.9-1.5-1.8-2.2-2.9c-0.2-1-0.4-1.8-0.7-2.4c0-1.1,0-2.2,0.1-3.4c0.3-1.3,0.7-1.9,1.1-3.2c0.7-0.9,1.8-2,2.9-2.9
			c0.5-0.1,1.3-0.1,1.8-0.4c1.1-0.1,2.2,0.1,3.2,0.1C335.5,528.5,336.7,528.4,336.8,529.7L336.8,529.7z"/>
		<path class="st1" d="M350.8,544c-0.8,0-0.8-0.9-1.5-1.1c-0.6,0.3-1.4,0.6-1.8,1c-1.3,0.2-2.9,0.4-4.4,0.2
			c-0.7-0.8-1.7-1.2-2.3-1.9c-0.4-1-0.2-2.3-0.7-3.2c0-0.9,0.2-1.5,0.3-2.4c0.3-0.4,0.6-1.1,0.9-1.5c0.2,0,0.4-0.1,0.4-0.3
			c1.4-0.7,2.6-0.7,4.6-1c1,0.6,1.5,1.2,2.5,1.4c1.2-0.4,0.1-1.8,0.3-2.9c-0.1-0.7-0.6-1.3-1.1-1.9c-0.7-0.1-1.1-0.4-1.8-0.6
			c-1.6-0.1-3,0.7-4.1,0.4c-0.4-0.5-0.7-0.9-0.6-1.6c0.4-0.6,1.5-0.5,2.1-1c1.3-0.1,2,0,3.3,0c0.7,0.4,1.5,0.7,2.5,0.9
			c1.1,1.6,2.4,3.6,2,6.4c0,0.5,0.2,0.8,0.2,1.3c0,1.8-0.2,3.2-0.3,4.9c0.1,0.9,0.3,1.2,0.3,2C351.8,543.6,351.3,543.7,350.8,544
			L350.8,544z M344.1,536.3c-0.4,0.4-0.9,0.7-1.4,1.1c0.2,0.3-0.2,0.3-0.3,0.6c-0.1,1.5,0.3,3.1,1.1,3.4c0.7,0.7,1.8,0.7,2.9,0.4
			c0.4-0.1,0.7-0.3,1.1-0.3c0.9-0.8,2-1,2.2-2.6c-0.5-1-1.1-1.6-1.7-2.3c-1-0.2-1.6-0.5-2.5-0.7c-0.1,0.1-0.2,0.2-0.2,0.2h-1.2
			V536.3z M350.4,519.8c0,1.3-1.2,1.6-1.5,2.7c-0.8,0.5-0.9,1.8-1.7,2.2c-0.7,0-0.9-0.3-1.2-0.6c0.6-1.5,1.3-2.8,2-4.4
			C348.3,519.3,349.7,519.6,350.4,519.8L350.4,519.8z"/>
		<path class="st1" d="M360.7,542.9c-0.1,0-0.1,0.1-0.3,0.1c-0.7,0.2-0.2,1-0.2,1.6c-0.2,0.9-0.1,2.4,0,3.2c-0.2,0.9,0,2.3-0.4,3.1
			c-0.5,0.1-1.2,0.2-1.8,0c-0.6-0.8-0.2-1.4-0.1-2.2c0.3-2.2-0.1-4.8-0.2-6.8c0-0.4,0.2-0.8,0.2-1.1c0-0.4-0.2-0.7-0.2-1
			s0.2-0.5,0.2-0.8c0-0.9-0.1-1.8,0-2.7v-1c0-2.1-0.3-3.9-0.2-6.1c-0.1-0.7,0-1.2,0.7-1.4c0.4,0,1,0,1.1,0.2
			c0.3,0.3,0.3,0.8,0.7,0.8c1.1-0.2,1.8-0.5,2.6-1.1c0.4,0.2,0.9-0.1,1.2-0.2h1.1c1,0,1.8,0.4,2.6,0.7c0.8,0.4,1.1,1,1.8,1.3
			c0.7,1.5,1,2.6,1.5,4.2c0,1.8,0.2,3.5,0.1,5.4c-0.4,0.6-0.6,1.2-0.8,2c-0.4,0.8-1,1.3-1.7,2.1c-0.8,0.3-1.5,0.7-2.7,0.8
			c-1.3,0-1.8,0.2-3.1,0.1C362,543.9,361.9,542.8,360.7,542.9L360.7,542.9z M362.5,530.4c-0.4,0.4-1,1-1.4,1.4c-1,1.3-0.8,3-0.9,4.8
			c0.1,0.8,0.2,1.5,0.3,2.5c0.7,1,0.9,2.2,1.8,2.4c1.1,0.3,2.5,0.7,3.7,0.8c0.6-0.3,1-0.8,1.5-0.9c0.7-0.9,1-1.8,1.5-2.9
			c0.3-2,0.2-4.4-0.6-6.2c-0.2-0.9-0.9-1.6-1.9-2.1c-0.7-0.2-1.9-0.4-2.4-0.2C363.4,530,363,530.2,362.5,530.4L362.5,530.4z"/>
		<path class="st1" d="M379.1,523.6c0.2,1.3-0.4,1.5-0.9,2.1c-1.5,0.2-2.5-0.3-2.4-1.9c0,0,0.1-0.2,0.2-0.4
			C377,522.5,378.4,522.5,379.1,523.6L379.1,523.6z M378,544.1c-0.7,0-1.2-0.2-1.7-0.3c-0.1-2.8-0.1-5.1-0.4-8.2
			c0.3-0.6,0.4-1.3,0.5-2.2c-0.2-1-0.2-2-0.2-2.8s-0.3-1.7,0.3-2.4c0.5,0,0.8-0.5,1.1-0.2c1.3,0.4,0.8,1.9,0.9,2.9
			c-0.1,2.4,0,4.4,0.3,7.8c-0.3,0.8-0.1,2-0.2,2.8C378.6,542.5,378.7,543.5,378,544.1L378,544.1z"/>
		<path class="st1" d="M388.5,521.6c0.2,2.2-0.9,4.6,0.5,6.3c0.8-0.1,1.6-0.2,2.3-0.1c0.4,0.4,0.7,1.5,0.3,2.2
			c-0.8,0.2-2.1-0.4-2.9,0.2c-0.1,0.1-0.1,0.5-0.4,0.6c0.2,1.4-0.1,3,0.4,4.3c-0.3,1.1-0.1,2.2-0.4,3.2c0.3,0.9,0.1,1.8,0.3,2.9
			c0.4,0.3,0.8,0.5,1.1,0.8c1.2,0.4,2.7,0.1,2.3,1.8c-0.4,0.4-1.6,0.4-2.5,0.4c-0.6-0.1-1-0.5-1.8-0.6c-0.4-0.5-0.9-1.1-1.3-1.7
			c0-1-0.2-1.5-0.3-2.4c-0.3-2.6,0.1-5.8-0.3-9.2c-0.4-0.5-1.5-0.5-2.6-0.6c-0.3-0.7-0.3-1.6,0.1-2.1c0.9-0.1,2.6,0.1,2.9-0.9
			c0-0.7-0.2-1-0.2-1.5c0.1-1.9-0.2-3.2,0.4-4.3C387.4,520.9,388,521.2,388.5,521.6L388.5,521.6z"/>
		<path class="st1" d="M406.4,544c-0.8,0-0.8-0.9-1.5-1.1c-0.6,0.3-1.4,0.6-1.8,1c-1.3,0.2-2.9,0.4-4.4,0.2
			c-0.7-0.8-1.7-1.2-2.3-1.9c-0.4-1-0.2-2.3-0.7-3.2c0-0.9,0.2-1.5,0.3-2.4c0.3-0.4,0.6-1.1,0.9-1.5c0.2,0,0.4-0.1,0.4-0.3
			c1.4-0.7,2.6-0.7,4.6-1c1,0.6,1.5,1.2,2.5,1.4c1.2-0.4,0.1-1.8,0.3-2.9c-0.1-0.7-0.6-1.3-1.1-1.9c-0.7-0.1-1.1-0.4-1.8-0.6
			c-1.6-0.1-3,0.7-4.1,0.4c-0.4-0.5-0.7-0.9-0.6-1.6c0.4-0.6,1.5-0.5,2.1-1c1.3-0.1,2,0,3.3,0c0.7,0.4,1.5,0.7,2.5,0.9
			c1.1,1.6,2.4,3.6,2,6.4c0,0.5,0.2,0.8,0.2,1.3c0,1.8-0.2,3.2-0.3,4.9c0.1,0.9,0.3,1.2,0.3,2C407.4,543.6,406.9,543.7,406.4,544
			L406.4,544z M399.7,536.3c-0.4,0.4-0.9,0.7-1.4,1.1c0.2,0.3-0.2,0.3-0.3,0.6c-0.1,1.5,0.3,3.1,1.1,3.4c0.7,0.7,1.8,0.7,2.9,0.4
			c0.4-0.1,0.7-0.3,1.1-0.3c0.9-0.8,2-1,2.2-2.6c-0.5-1-1.1-1.6-1.7-2.3c-1-0.2-1.6-0.5-2.5-0.7c-0.1,0.1-0.2,0.2-0.2,0.2h-1.2
			V536.3z"/>
	</g>
</g>
</svg>
