<?xml version="1.0" encoding="utf-8"?>
<!-- Generator: Adobe Illustrator 19.2.0, SVG Export Plug-In . SVG Version: 6.00 Build 0)  -->
<svg version="1.1" id="Capa_1" xmlns="http://www.w3.org/2000/svg" xmlns:xlink="http://www.w3.org/1999/xlink" x="0px" y="0px"
	 viewBox="0 0 900 120" style="enable-background:new 0 0 900 120;" xml:space="preserve">
<style type="text/css">
	.st0{fill:#D18B2B;}
	.st1{fill:#FFFFFF;}
</style>
<g>
	<g>
		<polygon class="st0" points="44.8,110.8 12.1,110.8 12.1,6.4 45.3,6.4 45.3,9.4 15.1,9.4 15.1,107.8 44.8,107.8 		"/>
	</g>
	<g>
		<polygon class="st0" points="886,110.8 853.4,110.8 853.4,107.8 883,107.8 883,9.4 852.9,9.4 852.9,6.4 886,6.4 		"/>
	</g>
	<g>
		<path class="st1" d="M244.9,46.2c0,0.6-0.5,1.1-1.1,1.1h-11.8c0.4,2.3,2.8,2.6,4.1,2.6c1.7,0,3.1-0.1,5-0.9
			c0.1-0.1,0.2-0.1,0.3-0.1c0.2,0,0.5,0.1,0.7,0.4l1.4,2.4c0.2,0.2,0.3,0.5,0.3,0.7c0,0.3-0.1,0.7-0.3,0.9c-1.4,1.9-4.6,2.6-7.3,2.6
			c-5.9,0-11.6-2.9-11.6-10.9c0-5.8,3-10.5,10.2-10.5c5.7,0,10.1,3.3,10.1,10V46.2z M232,43.2h5.6c-0.3-2.1-1.9-2.4-2.7-2.4
			C234,40.9,232.4,41,232,43.2z"/>
		<path class="st1" d="M257.2,54.5c0,0.6-0.5,1.1-1.1,1.1H251c-0.7,0-1.1-0.5-1.1-1.1V27c0-0.6,0.4-1.1,1.1-1.1h5.1
			c0.6,0,1.1,0.5,1.1,1.1V54.5z"/>
		<path class="st1" d="M275,46.8h4.6c0.6,0,1.1,0.2,1.5,1c0.7,1.1,2,1.6,3.4,1.6c1.8,0,4-0.7,4-3.6c0-1.7-1.1-3.2-3.8-3.2
			c-1.4,0-2.4,0.3-3,0.6c-0.6,0.4-1.6,0.6-2.2,0.6c-0.2,0-0.8,0-4-0.3c-0.6-0.2-1-0.6-1-1V27c0-0.6,0.5-1.1,1.1-1.1h17.4
			c0.6,0,1.1,0.5,1.1,1.1v4.9c0,0.7-0.5,1.1-1.1,1.1h-11.2v3.5c1.3-0.5,2.7-0.6,3.7-0.6c5.9,0,10.4,4,10.4,10.1
			c0,6-5.3,9.9-11.1,9.9c-5.4,0-9.9-2.4-10.8-7.8C273.9,47.3,274.3,46.8,275,46.8z"/>
		<path class="st1" d="M299.2,40.7c0-8.4,4.9-15.2,13.3-15.2s13.3,6.8,13.3,15.2s-4.9,15.2-13.3,15.2S299.2,49,299.2,40.7z
			 M318.4,40.8c0-4.5-1.6-8.4-6-8.4c-4.3,0-5.9,3.9-5.9,8.4s1.6,8.6,5.9,8.6C316.8,49.5,318.4,45.4,318.4,40.8z"/>
		<path class="st1" d="M331.2,33.6c0-4.3,3.6-7.7,7.8-7.7c4.2,0,7.8,3.4,7.8,7.7c0,4.2-3.6,7.8-7.8,7.8
			C334.8,41.4,331.2,37.8,331.2,33.6z M341.2,33.6c0-1.4-0.9-2.2-2.1-2.2c-1.2,0-2.1,0.8-2.1,2.2s0.9,2.5,2.1,2.5
			C340.2,36.1,341.2,35,341.2,33.6z M348.1,54.7c-0.3,0.4-0.8,0.8-1.5,0.8h-5.3c-0.6,0-1.1-0.5-1.1-1.3l14.9-27.5
			c0.2-0.4,0.6-0.9,1.3-0.9h5.5c0.7,0,1.1,0.5,1.1,1.3L348.1,54.7z M356.2,48c0-4.3,3.6-7.7,7.8-7.7c4.2,0,7.8,3.4,7.8,7.7
			c0,4.2-3.6,7.8-7.8,7.8C359.8,55.8,356.2,52.2,356.2,48z M366.2,48c0-1.4-0.9-2.2-2.1-2.2c-1.2,0-2.1,0.8-2.1,2.2s0.9,2.5,2.1,2.5
			C365.3,50.5,366.2,49.5,366.2,48z"/>
		<path class="st1" d="M392.3,53.4c-1.7,2.1-3.9,2.4-5.7,2.4c-5.5,0-9.7-5-9.7-10.8c0-5.9,4.4-10.6,9.1-10.6c0.8,0,3.2,0,5,1.4V27
			c0-0.6,0.5-1.1,1.1-1.1h5.1c0.7,0,1.1,0.5,1.1,1.1v27.5c0,0.6-0.5,1.1-1.1,1.1H394c-0.9,0-1.2-0.2-1.5-1L392.3,53.4z M391,45.1
			c0-2.3-1.5-3.8-3.4-3.8c-1.8,0-3.3,1.5-3.3,3.8c0,2.6,1.5,4.4,3.3,4.4C389.5,49.5,391,47.7,391,45.1z"/>
		<path class="st1" d="M423.6,46.2c0,0.6-0.5,1.1-1.1,1.1h-11.8c0.4,2.3,2.8,2.6,4.1,2.6c1.7,0,3.1-0.1,5-0.9
			c0.1-0.1,0.2-0.1,0.3-0.1c0.2,0,0.5,0.1,0.7,0.4l1.4,2.4c0.2,0.2,0.3,0.5,0.3,0.7c0,0.3-0.1,0.7-0.3,0.9c-1.4,1.9-4.6,2.6-7.3,2.6
			c-5.9,0-11.6-2.9-11.6-10.9c0-5.8,3-10.5,10.2-10.5c5.7,0,10.1,3.3,10.1,10V46.2z M410.7,43.2h5.6c-0.3-2.1-1.9-2.4-2.7-2.4
			C412.6,40.9,411,41,410.7,43.2z"/>
		<path class="st1" d="M446.2,54.5c0,0.6-0.5,1.1-1.1,1.1H440c-0.7,0-1.1-0.5-1.1-1.1V27c0-0.6,0.4-1.1,1.1-1.1h5.1
			c0.6,0,1.1,0.5,1.1,1.1V54.5z"/>
		<path class="st1" d="M463.7,53.4c-1.8,2.3-4.9,2.4-5.3,2.4c-1.5,0-6.9-0.6-6.9-6.9c0-4.1,2.9-5.7,6.8-5.7c1,0,3,0.2,4.1,0.8
			c-0.5-2.1-1.4-2.6-3.3-2.6c-0.6,0-2.1,0-3.2,0.3c-0.3,0.1-0.5,0.1-0.6,0.1c-0.5,0-1.1-0.2-1.4-0.7l-1.1-3.2
			c-0.1-0.2-0.1-0.5-0.1-0.8c0-0.5,0.2-0.9,0.6-1.2c3.2-1.3,4.9-1.3,6.7-1.3c6.8,0,9.8,3.7,9.8,9.6v10.5c0,0.6-0.5,1.1-1.1,1.1h-3.1
			c-0.9,0-1.2-0.2-1.5-1L463.7,53.4z M462.4,49.3V48c-0.4-0.4-1.1-0.7-1.9-0.7c-1.5,0-2.3,0.4-2.3,1.3c0,0.9,0.9,1.4,2.3,1.4
			C460.8,50,461.8,49.9,462.4,49.3z"/>
		<path class="st1" d="M483.2,49.8c0.8,0,1.8-0.1,1.8-0.7c0-1.8-10-2-10-8.1c0-4.5,4.1-6.6,8.9-6.6c2.5,0,5.2,0.8,6.3,1.3
			c0.2,0.1,0.4,0.3,0.6,0.7c0,0.2,0,0.4-0.1,0.5l-0.9,3.7c-0.1,0.4-0.3,0.6-1.1,0.6c-0.3,0-2-0.6-3.9-0.6c-1.9,0-2.5,0.1-2.5,0.8
			c0,1.6,9.9,2.8,9.9,7.8c0,5.4-4.9,6.6-9.1,6.6c-2.5,0-5.2-0.5-7.8-2.2c-0.2-0.2-0.5-0.5-0.5-0.9c0-0.1,0-0.3,1-3.7
			c0.2-0.5,0.6-0.7,0.9-0.7c0.2,0,0.3,0,0.5,0.1C478,48.9,480.8,49.8,483.2,49.8z"/>
		<path class="st1" d="M529.6,43.6c0-1.7-1-2.3-1.9-2.3c-0.7,0-1.8,0.5-1.9,1.3c0.1,0.4,0.1,0.7,0.1,1.1v10.8c0,0.6-0.5,1.1-1.1,1.1
			h-4.4c-0.7,0-1.1-0.5-1.1-1.1V44.3c0-1.8-0.9-3-1.9-3c-1.3,0-2,1.2-2,3v10.2c0,0.6-0.5,1.1-1.1,1.1h-5.1c-0.7,0-1.1-0.5-1.1-1.1
			V35.8c0-0.6,0.4-1.1,1.1-1.1h3.7c0.6,0,1.1,0.5,1.1,1.1v0.9c1.1-1.7,3.1-2.2,4.9-2.2c1.6,0,3.6,0.6,4.9,2.4c1.6-1.8,4-2.4,5.7-2.4
			c5,0,7.6,3.9,7.6,9v11c0,0.6-0.5,1.1-1.1,1.1h-5.1c-0.7,0-1.1-0.5-1.1-1.1V43.6z"/>
		<path class="st1" d="M558.6,55.6c-0.9,0-1.2-0.2-1.5-1l-0.3-1.1c-1.4,2-3.8,2.4-5.5,2.4c-6,0-8.7-4.5-8.7-9.5V35.8
			c0-0.6,0.4-1.1,1.1-1.1h5.1c0.6,0,1.1,0.5,1.1,1.1v10.4c0,1.8,0.2,3.3,2.7,3.3c1.7,0,2.4-1.5,2.4-3.3V35.8c0-0.6,0.4-1.1,1.1-1.1
			h5.1c0.6,0,1.1,0.5,1.1,1.1v18.7c0,0.6-0.5,1.1-1.1,1.1H558.6z"/>
		<path class="st1" d="M587.7,46.2c0,0.6-0.5,1.1-1.1,1.1h-11.8c0.4,2.3,2.8,2.6,4.1,2.6c1.7,0,3.1-0.1,5-0.9
			c0.1-0.1,0.2-0.1,0.3-0.1c0.2,0,0.5,0.1,0.7,0.4l1.4,2.4c0.2,0.2,0.3,0.5,0.3,0.7c0,0.3-0.1,0.7-0.3,0.9c-1.4,1.9-4.6,2.6-7.3,2.6
			c-5.9,0-11.6-2.9-11.6-10.9c0-5.8,3-10.5,10.2-10.5c5.7,0,10.1,3.3,10.1,10V46.2z M574.8,43.2h5.6c-0.3-2.1-1.9-2.4-2.7-2.4
			C576.7,40.9,575.1,41,574.8,43.2z"/>
		<path class="st1" d="M603.4,41.3c-2.6,0-3.4,1.6-3.4,3.2v10c0,0.6-0.5,1.1-1.1,1.1h-5.1c-0.7,0-1.1-0.5-1.1-1.1V35.8
			c0-0.6,0.4-1.1,1.1-1.1h3.7c0.6,0,1.1,0.5,1.1,1.1v0.9c1.3-1.7,3.2-2.1,4.7-2.2h2c0.6,0,1.1,0.5,1.1,1.1v4.6
			c0,0.7-0.5,1.1-1.1,1.1H603.4z"/>
		<path class="st1" d="M620.6,55.8c-4.7,0-7.5-1.9-7.5-9.1v-5.5h-2.7c-0.6,0-1.1-0.4-1.1-1.1v-4.6c0-0.6,0.5-1.1,1.1-1.1h2.7V27
			c0-0.6,0.4-1.1,1.1-1.1h5.1c0.6,0,1.1,0.5,1.1,1.1v7.4h3.6c0.6,0,1.1,0.5,1.1,1.1v4.6c0,0.7-0.5,1.1-1.1,1.1h-3.6v4.8
			c0,2,0.2,3.4,1.7,3.4c0.9,0,0.5-0.1,1.2-0.1c0.2-0.1,0.3-0.1,0.4-0.1c0.4,0,0.9,0.4,1,0.8l0.6,3.7c0.1,0.1,0.1,0.3,0.1,0.4
			c0,0.5-0.6,0.9-0.8,1C623.2,55.7,622.2,55.8,620.6,55.8z"/>
		<path class="st1" d="M649,46.2c0,0.6-0.5,1.1-1.1,1.1h-11.8c0.4,2.3,2.8,2.6,4.1,2.6c1.7,0,3.1-0.1,5-0.9c0.1-0.1,0.2-0.1,0.3-0.1
			c0.2,0,0.5,0.1,0.7,0.4l1.4,2.4c0.2,0.2,0.3,0.5,0.3,0.7c0,0.3-0.1,0.7-0.3,0.9c-1.4,1.9-4.6,2.6-7.3,2.6
			c-5.9,0-11.6-2.9-11.6-10.9c0-5.8,3-10.5,10.2-10.5c5.7,0,10.1,3.3,10.1,10V46.2z M636.1,43.2h5.6c-0.3-2.1-1.9-2.4-2.7-2.4
			C638,40.9,636.5,41,636.1,43.2z"/>
		<path class="st1" d="M660.9,49.8c0.8,0,1.8-0.1,1.8-0.7c0-1.8-10-2-10-8.1c0-4.5,4.1-6.6,8.9-6.6c2.5,0,5.2,0.8,6.3,1.3
			c0.2,0.1,0.4,0.3,0.6,0.7c0,0.2,0,0.4-0.1,0.5l-0.9,3.7c-0.1,0.4-0.3,0.6-1.1,0.6c-0.3,0-2-0.6-3.9-0.6c-1.9,0-2.5,0.1-2.5,0.8
			c0,1.6,9.9,2.8,9.9,7.8c0,5.4-4.9,6.6-9.1,6.6c-2.5,0-5.2-0.5-7.8-2.2c-0.2-0.2-0.5-0.5-0.5-0.9c0-0.1,0-0.3,1-3.7
			c0.2-0.5,0.6-0.7,0.9-0.7c0.2,0,0.3,0,0.5,0.1C655.7,48.9,658.5,49.8,660.9,49.8z"/>
		<path class="st1" d="M49.4,82c-2.6,0.4-5.9-0.1-8.4,0.2c-0.6,0.1-1.5,0-1.9,0.3c0.4,3.1,2,5.3,5.5,5c1.3-0.4,2.2-1.5,3.2-0.7
			c0.4,1.7-0.9,1.9-2.3,2.4c-1-0.4-1.9,0.1-2.7,0c-1.3,0.1-2.3-0.7-3.3-1c-0.4-0.7-1.3-1.2-1.8-1.8c-0.1-0.4-0.2-0.8-0.3-1.2
			c-0.2-0.5-0.4-1.2-0.6-2.2c0-1.8-0.1-3.7,0.2-5.6c0.3-0.8,0.4-1.3,0.7-2c0.3-0.9,1.1-1.1,1.5-1.8c0.7-0.2,1.2-0.4,1.8-0.7
			c1-0.2,2.8,0.3,3.8-0.2c0.6,0.4,1.4,0.5,2,0.7c0.9,0.6,1.5,1.8,2.3,2.6c-0.2,0.8,0.1,1.1,0.3,1.5c-0.1,0.7,0,1.1,0.3,1.5
			C49.5,79.9,50.2,81.5,49.4,82L49.4,82z M46.9,77.2c-0.4-0.8-0.9-1.3-1.4-1.8c-1.3-0.5-2.8-0.2-4.1,0c-0.7,0-1,0.7-1.6,1.1
			c-0.5,0.8-1.3,2.7-0.1,3.7c0.1-0.1,0.3-0.1,0.3,0c0.9-0.1,1.5,0,2.3-0.4c0.7,0.5,1.5,0.2,2.3,0c0.8,0.4,2.2,0.5,2.8-0.1
			C47.7,78.7,47.3,77.9,46.9,77.2L46.9,77.2z"/>
		<path class="st1" d="M67.3,88.8c-0.5,0.3-1.3,0.1-1.9,0.2c-0.4-1.3-0.2-2.7,0-4.3c0-1.7-0.4-3-0.2-4.8c0-1.2-0.2-2.3-0.4-3.1
			c0-0.2-0.1-0.2-0.1-0.4c-0.7-1-1.7-1.1-2.6-1.7c-2,0.2-3.2,0.9-4.3,2.1c-0.1,0.8-0.6,1.4-0.7,2.4c0.1,1.2,0.2,2.7-0.1,3.5
			c0.1,0.5,0.2,0.8,0.3,1.2c-0.2,1.4-0.3,3.2-0.3,4.6c-0.3,0.3-1.1,0.6-1.7,0.4c-0.4-0.8-0.6-2.1-0.3-3.1c-0.1-0.6-0.1-1.1-0.2-1.7
			c0-0.8,0.2-2.3,0.2-3.6c0.1-0.2,0-0.4,0-0.4c0.1-2.2-0.1-3.8,0.2-6c-0.1-0.3-0.2-0.9,0.2-1.2c1.5-0.4,1.2,1.1,2.1,1.5
			c0.9-0.4,1.3-1,2-1.5c0.7,0,1.3-0.2,1.9-0.4c0.5,0.3,1-0.1,1.5,0c1.7,0.2,2.9,0.9,3.8,2.1c0,0.4,0.2,1,0.5,1.3
			c-0.2,0.6,0.3,1.1,0.2,1.8c0,0.3-0.1,0.6-0.1,1c0,0.8,0.4,2.3,0.2,3.5c0,0.9-0.3,2.2,0.2,3.5C67.2,87.1,67.9,87.9,67.3,88.8
			L67.3,88.8z"/>
		<path class="st1" d="M83.6,66.4C83.4,73.7,83,80.7,84,89.6c-0.8-0.3-2-0.2-2.3-0.7c-0.4-0.3-0.2-1-0.4-1.7c-0.1-0.7,0.1-0.9,0-1.7
			c-0.4-3.7,0.6-8.1,0.2-11.7c-0.4-2.8-0.5-4.9,0.2-7.6C81.9,66.1,83.1,66.2,83.6,66.4L83.6,66.4z"/>
		<path class="st1" d="M99.2,89.1c-0.8,0-0.8-0.9-1.5-1.1c-0.6,0.3-1.4,0.6-1.8,1c-1.3,0.2-2.9,0.4-4.4,0.2
			c-0.7-0.8-1.7-1.2-2.3-1.9c-0.4-1-0.2-2.3-0.7-3.2c0-0.9,0.2-1.5,0.3-2.4c0.3-0.4,0.6-1.1,0.9-1.5c0.2,0,0.4-0.1,0.4-0.3
			c1.4-0.7,2.6-0.7,4.6-1c1,0.6,1.5,1.2,2.5,1.4c1.2-0.4,0.1-1.8,0.3-2.9c-0.1-0.7-0.6-1.3-1.1-1.9c-0.7-0.1-1.1-0.4-1.8-0.6
			c-1.6-0.1-3,0.7-4.1,0.4c-0.4-0.5-0.7-0.9-0.6-1.6c0.4-0.6,1.5-0.5,2.1-1c1.3-0.1,2,0,3.3,0c0.7,0.4,1.5,0.7,2.5,0.9
			c1.1,1.6,2.4,3.6,2,6.4c0,0.5,0.2,0.8,0.2,1.3c0,1.8-0.2,3.2-0.3,4.9c0.1,0.9,0.3,1.2,0.3,2C100.2,88.7,99.7,88.8,99.2,89.1
			L99.2,89.1z M92.5,81.4c-0.4,0.4-0.9,0.7-1.4,1.1c0.2,0.3-0.2,0.3-0.3,0.6c-0.1,1.5,0.3,3.1,1.1,3.4c0.7,0.7,1.8,0.7,2.9,0.4
			c0.4-0.1,0.7-0.3,1.1-0.3c0.9-0.8,2-1,2.2-2.6c-0.5-1-1.1-1.6-1.7-2.3c-1-0.2-1.6-0.5-2.5-0.7c-0.1,0.1-0.2,0.2-0.2,0.2H92.5z"/>
		<path class="st1" d="M117.3,88c-0.1,0-0.1,0.1-0.3,0.1c-0.7,0.2-0.2,1-0.2,1.6c-0.2,0.9-0.1,2.4,0,3.2c-0.2,0.9,0,2.3-0.4,3.1
			c-0.5,0.1-1.2,0.2-1.8,0c-0.6-0.8-0.2-1.4-0.1-2.2c0.3-2.2-0.1-4.8-0.2-6.8c0-0.4,0.2-0.8,0.2-1.1c0-0.4-0.2-0.7-0.2-1
			c0-0.3,0.2-0.5,0.2-0.8c0-0.9-0.1-1.8,0-2.7v-1c0-2.1-0.3-3.9-0.2-6.1c-0.1-0.7,0-1.2,0.7-1.4c0.4,0,1,0,1.1,0.2
			c0.3,0.3,0.3,0.8,0.7,0.8c1.1-0.2,1.8-0.5,2.6-1.1c0.4,0.2,0.9-0.1,1.2-0.2h1.1c1,0,1.8,0.4,2.6,0.7c0.8,0.4,1.1,1,1.8,1.3
			c0.7,1.5,1,2.6,1.5,4.2c0,1.8,0.2,3.5,0.1,5.4c-0.4,0.6-0.6,1.2-0.8,2c-0.4,0.8-1,1.3-1.7,2.1c-0.8,0.3-1.5,0.7-2.7,0.8
			c-1.3,0-1.8,0.2-3.1,0.1C118.5,89,118.4,87.9,117.3,88L117.3,88z M119,75.5c-0.4,0.4-1,1-1.4,1.4c-1,1.3-0.8,3-0.9,4.8
			c0.1,0.8,0.2,1.5,0.3,2.5c0.7,1,0.9,2.2,1.8,2.4c1.1,0.3,2.5,0.7,3.7,0.8c0.6-0.3,1-0.8,1.5-0.9c0.7-0.9,1-1.8,1.5-2.9
			c0.3-2,0.2-4.4-0.6-6.2c-0.2-0.9-0.9-1.6-1.9-2.1c-0.7-0.2-1.9-0.4-2.4-0.2C119.9,75.1,119.5,75.3,119,75.5L119,75.5z"/>
		<path class="st1" d="M137.7,72.8c0,0,0-0.1,0.2-0.2c1.1,0.1,1.6,0.7,2.8,0.5c1.6,0.7,2.4,2.4,3.2,3.4c0.4,0.7,0.2,2,0.9,2.8
			c-0.3,0.6,0,1.2,0.2,1.8c-0.2,0.4,0,0.8,0,1.2c0,1-0.7,1.7-0.7,2.8c-0.5,0.6-1,1.3-1.3,2.1c-0.8,0.5-1.5,1.4-2.5,1.7
			c-1.4,0.4-3.1,0.7-4.6,0.1c-0.9-0.4-1.7-0.9-2.6-1.4c-0.2-0.6-0.5-1-0.9-1.3c-0.1-0.9-0.7-1.3-0.8-2.1c-0.3-0.7-0.2-1.4-0.4-2.1
			c-0.2-1.5,0.4-3,0.3-4.5c0.6-0.6,1-1.2,1.3-2.1c0.5-0.4,0.9-0.8,1.2-1.5C134.9,73.6,136.4,73.1,137.7,72.8L137.7,72.8z
			 M136.1,75.4c-0.5,0.5-1.2,0.9-1.7,1.5c-0.9,1.8-0.9,3.8-0.8,6.4c0.4,1.4,1.1,2.4,2.1,3.4c0.9,0.2,2,0.8,3.5,0.7
			c0.6-0.5,1.2-0.7,1.8-1.1c0.2-0.3,0.4-0.7,0.5-0.8c0.1-0.1,0.2-0.2,0.3-0.2c0.1-0.2,0-0.5,0.1-0.9c0.1-0.2,0.3-0.4,0.4-0.5
			c0.2-0.8,0-1.6,0.4-2.5c-0.2-0.8-0.1-1.8-0.3-2.7c-0.4-0.8-0.7-1.5-1-2.3c-0.9-0.4-1.5-1-2.5-1.3c-0.4,0.2-1.2-0.1-1.5,0.1
			C137,75,136.8,75.4,136.1,75.4L136.1,75.4z"/>
		<path class="st1" d="M152.2,70c0,1.3,0,2.9,0.3,4c0.9,0.5,1.3-0.3,1.9-0.6c0.6-0.2,1.1-0.2,1.5-0.4c1,0.2,3-0.2,3.8,0.4
			c0.8,0.4,1.4,1.3,2.2,1.8c0.6,1.5,0.8,2.6,1.3,4.1c-0.1,0.9,0,1.7,0,2.7c0.2,2.2-0.6,4.3-1.4,5.3c-0.7,0.9-1.5,1.3-2.2,1.9
			c-1.3,0.1-3,0.4-4.4,0.2c-0.5-0.2-0.9-0.6-1.5-0.8c-0.4-0.4-0.7-0.8-1.2-1c-0.7,0-0.4,0.8-0.7,1.1c-0.4,0.3-0.5,0.7-1.3,0.5
			c-0.5-0.2-0.4-0.9-0.7-1.4c0.1-5.5,0.2-9.2,0.5-15.1c-0.4-0.8-0.5-2.2-0.6-3.7c0-0.9,0.2-1.8,0.2-2.4c0.4-0.3,1.1-0.5,1.8-0.4
			C152.6,67.3,151.9,68.4,152.2,70z M154.9,75.4c-0.8,0.3-1.2,0.9-1.7,1.3c-0.1,0.3-0.2,0.6-0.5,0.7c-0.1,0.9-0.4,1.8-0.7,2.6
			c0.3,0.4,0,0.7,0,1.2c0.2,1,0.4,2.1,0.6,3.2c0.7,0.9,0.9,2,1.8,2.4c0.7,0.3,1.2,0.5,1.9,0.5c1.4,0.1,2.3-0.4,3.2-0.9
			c0.1-0.4,0.3-0.7,0.6-0.8c0.3-1.6,1-4.8,0.8-6.6c-0.4-0.7-0.6-1.4-0.7-2.1c-0.6-0.4-1.2-1.2-2-1.8c-1.1-0.1-2.2,0-3.2,0.3
			L154.9,75.4z"/>
		<path class="st1" d="M170.3,66.4c-0.1,7.3-0.5,14.3,0.4,23.2c-0.8-0.3-2-0.2-2.3-0.7c-0.4-0.3-0.2-1-0.4-1.7
			c-0.1-0.7,0.1-0.9,0-1.7c-0.4-3.7,0.6-8.1,0.2-11.7c-0.4-2.8-0.5-4.9,0.2-7.6C168.7,66.1,169.8,66.2,170.3,66.4L170.3,66.4z"/>
		<path class="st1" d="M185.9,89.1c-0.8,0-0.8-0.9-1.5-1.1c-0.6,0.3-1.4,0.6-1.8,1c-1.3,0.2-2.9,0.4-4.4,0.2
			c-0.7-0.8-1.7-1.2-2.3-1.9c-0.4-1-0.2-2.3-0.7-3.2c0-0.9,0.2-1.5,0.3-2.4c0.3-0.4,0.6-1.1,0.9-1.5c0.2,0,0.4-0.1,0.4-0.3
			c1.4-0.7,2.6-0.7,4.6-1c1,0.6,1.5,1.2,2.5,1.4c1.2-0.4,0.1-1.8,0.3-2.9c-0.1-0.7-0.6-1.3-1.1-1.9c-0.7-0.1-1.1-0.4-1.8-0.6
			c-1.6-0.1-3,0.7-4.1,0.4c-0.4-0.5-0.7-0.9-0.6-1.6c0.4-0.6,1.5-0.5,2.1-1c1.3-0.1,2,0,3.3,0c0.7,0.4,1.5,0.7,2.5,0.9
			c1.1,1.6,2.4,3.6,2,6.4c0,0.5,0.2,0.8,0.2,1.3c0,1.8-0.2,3.2-0.3,4.9c0.1,0.9,0.3,1.2,0.3,2C186.9,88.7,186.4,88.8,185.9,89.1
			L185.9,89.1z M179.3,81.4c-0.4,0.4-0.9,0.7-1.4,1.1c0.2,0.3-0.2,0.3-0.3,0.6c-0.1,1.5,0.3,3.1,1.1,3.4c0.7,0.7,1.8,0.7,2.9,0.4
			c0.4-0.1,0.7-0.3,1.1-0.3c0.9-0.8,2-1,2.2-2.6c-0.5-1-1.1-1.6-1.7-2.3c-1-0.2-1.6-0.5-2.5-0.7c-0.1,0.1-0.2,0.2-0.2,0.2H179.3z"/>
		<path class="st1" d="M202.9,74.8c-0.2,1.5-1.9,0.8-2.7,0.4c-1.1,0-2.6-0.1-3.2,0.1c-0.8,0.4-1.3,1.2-2.1,1.7
			c-0.2,0.7-0.4,1.5-0.8,2.3c-0.2,1.9,0,3.7,0.4,5.2c0.3,0.8,1,1.6,1.8,2.1c0.6,0.3,1.3,0.3,1.7,0.7c0.4,0,0.9-0.1,1.1,0.1
			c1.1-0.1,2.2-0.7,3.1-0.7c0.2,0.5,0.3,0.9,0.4,1.3c-0.2,1-1.9,1.1-3,1.3c-1-0.1-1.5-0.1-2.6-0.1c-0.9-0.4-1.7-0.8-2.5-1.2
			c-1.1-0.9-1.5-1.8-2.2-2.9c-0.2-1-0.4-1.8-0.7-2.4c0-1.1,0-2.2,0.1-3.4c0.3-1.3,0.7-1.9,1.1-3.2c0.7-0.9,1.8-2,2.9-2.9
			c0.5-0.1,1.3-0.1,1.8-0.4c1.1-0.1,2.2,0.1,3.2,0.1C201.6,73.6,202.8,73.5,202.9,74.8L202.9,74.8z"/>
		<path class="st1" d="M210.7,68.7c0.2,1.3-0.4,1.5-0.9,2.1c-1.5,0.2-2.5-0.3-2.4-1.9c0,0,0.1-0.2,0.2-0.4
			C208.5,67.6,210,67.6,210.7,68.7L210.7,68.7z M209.6,89.2c-0.7,0-1.2-0.2-1.7-0.3c-0.1-2.8-0.1-5.1-0.4-8.2
			c0.3-0.6,0.4-1.3,0.5-2.2c-0.2-1-0.2-2-0.2-2.8c0-0.8-0.3-1.7,0.3-2.4c0.5,0,0.8-0.5,1.1-0.2c1.3,0.4,0.8,1.9,0.9,2.9
			c-0.1,2.4,0,4.4,0.3,7.8c-0.3,0.8-0.1,2-0.2,2.8C210.1,87.6,210.3,88.6,209.6,89.2L209.6,89.2z"/>
		<path class="st1" d="M221.5,72.8c0,0,0-0.1,0.2-0.2c1.1,0.1,1.6,0.7,2.8,0.5c1.6,0.7,2.4,2.4,3.2,3.4c0.4,0.7,0.2,2,0.9,2.8
			c-0.3,0.6,0,1.2,0.2,1.8c-0.2,0.4,0,0.8,0,1.2c0,1-0.7,1.7-0.7,2.8c-0.5,0.6-1,1.3-1.3,2.1c-0.8,0.5-1.5,1.4-2.5,1.7
			c-1.4,0.4-3.1,0.7-4.6,0.1c-0.9-0.4-1.7-0.9-2.6-1.4c-0.2-0.6-0.5-1-0.9-1.3c-0.1-0.9-0.7-1.3-0.8-2.1c-0.3-0.7-0.2-1.4-0.4-2.1
			c-0.2-1.5,0.4-3,0.3-4.5c0.6-0.6,1-1.2,1.3-2.1c0.5-0.4,0.9-0.8,1.2-1.5C218.6,73.6,220.1,73.1,221.5,72.8L221.5,72.8z
			 M219.8,75.4c-0.5,0.5-1.2,0.9-1.7,1.5c-0.9,1.8-0.9,3.8-0.8,6.4c0.4,1.4,1.1,2.4,2.1,3.4c0.9,0.2,2,0.8,3.5,0.7
			c0.6-0.5,1.2-0.7,1.8-1.1c0.2-0.3,0.4-0.7,0.5-0.8c0.1-0.1,0.2-0.2,0.3-0.2c0.1-0.2,0-0.5,0.1-0.9c0.1-0.2,0.3-0.4,0.4-0.5
			c0.2-0.8,0-1.6,0.4-2.5c-0.2-0.8-0.1-1.8-0.3-2.7c-0.4-0.8-0.7-1.5-1-2.3c-0.9-0.4-1.5-1-2.5-1.3c-0.4,0.2-1.2-0.1-1.5,0.1
			C220.7,75,220.5,75.4,219.8,75.4L219.8,75.4z M225.6,64.9c0,1.3-1.2,1.6-1.5,2.7c-0.8,0.5-0.9,1.8-1.7,2.2c-0.7,0-0.9-0.3-1.2-0.6
			c0.6-1.5,1.3-2.8,2-4.4C223.5,64.4,224.9,64.7,225.6,64.9L225.6,64.9z"/>
		<path class="st1" d="M246.2,88.8c-0.5,0.3-1.3,0.1-1.9,0.2c-0.4-1.3-0.2-2.7,0-4.3c0-1.7-0.4-3-0.2-4.8c0-1.2-0.2-2.3-0.4-3.1
			c0-0.2-0.1-0.2-0.1-0.4c-0.7-1-1.7-1.1-2.6-1.7c-2,0.2-3.2,0.9-4.3,2.1c-0.1,0.8-0.6,1.4-0.7,2.4c0.1,1.2,0.2,2.7-0.1,3.5
			c0.1,0.5,0.2,0.8,0.3,1.2c-0.2,1.4-0.3,3.2-0.3,4.6c-0.3,0.3-1.1,0.6-1.7,0.4c-0.4-0.8-0.6-2.1-0.3-3.1c-0.1-0.6-0.1-1.1-0.2-1.7
			c0-0.8,0.2-2.3,0.2-3.6c0.1-0.2,0-0.4,0-0.4c0.1-2.2-0.1-3.8,0.2-6c-0.1-0.3-0.2-0.9,0.2-1.2c1.5-0.4,1.2,1.1,2.1,1.5
			c0.9-0.4,1.3-1,2-1.5c0.7,0,1.3-0.2,1.9-0.4c0.5,0.3,1-0.1,1.5,0c1.7,0.2,2.9,0.9,3.8,2.1c0,0.4,0.2,1,0.5,1.3
			c-0.2,0.6,0.3,1.1,0.2,1.8c0,0.3-0.1,0.6-0.1,1c0,0.8,0.4,2.3,0.2,3.5c0,0.9-0.3,2.2,0.2,3.5C246.1,87.1,246.8,87.9,246.2,88.8
			L246.2,88.8z"/>
		<path class="st1" d="M262.6,73.4c0.3,1,0.3,2.9-0.2,4.1c0.6,1.3,0.2,2.6,0.2,4.1c0,1,0.2,3.4,0.1,4.5c0,0.2,0,0.5,0.2,0.8
			c-0.4,1.6-0.4,2.8,0,4.4c-0.1,0.2-0.2,0.2-0.2,0.5c0,0.2,0.2,0.2,0.2,0.4c0,0.3-0.2,0.5-0.3,0.8c-0.1,0.4,0,0.7,0,1
			c-0.2,0.7-0.6,1.2-0.6,1.9c-0.3,0.4-0.7,0.7-1.1,1c-1.5,0.2-4,0.4-4.6-0.6c0.1-1.9,2.7-0.4,3.5-1.6c1.5-1.6,0.5-4.4,0.6-6.6
			c0.3-0.9,0-1.1-0.1-1.5c0.4-1.3,0.3-2.9,0-4.4c0-0.4,0.2-0.7,0.3-1.1c-0.4-2.9,0-5,0.2-7.3c-0.1-0.5,0-0.7,0.2-0.8
			C261.7,72.9,262.1,73.1,262.6,73.4L262.6,73.4z M261.6,67.5c1,0.3,1.5,0.8,1.7,2.1c-0.1,0.7-0.7,0.9-1.1,1.2c-1,0-1.8-0.2-2.3-0.9
			C260,68.4,260.4,67.7,261.6,67.5L261.6,67.5z"/>
		<path class="st1" d="M274,72.8c0,0,0-0.1,0.2-0.2c1.1,0.1,1.6,0.7,2.8,0.5c1.6,0.7,2.4,2.4,3.2,3.4c0.4,0.7,0.2,2,0.9,2.8
			c-0.3,0.6,0,1.2,0.2,1.8c-0.2,0.4,0,0.8,0,1.2c0,1-0.7,1.7-0.7,2.8c-0.5,0.6-1,1.3-1.3,2.1c-0.8,0.5-1.5,1.4-2.5,1.7
			c-1.4,0.4-3.1,0.7-4.6,0.1c-0.9-0.4-1.7-0.9-2.6-1.4c-0.2-0.6-0.5-1-0.9-1.3c-0.1-0.9-0.7-1.3-0.8-2.1c-0.3-0.7-0.2-1.4-0.4-2.1
			c-0.2-1.5,0.4-3,0.3-4.5c0.6-0.6,1-1.2,1.3-2.1c0.5-0.4,0.9-0.8,1.2-1.5C271.2,73.6,272.6,73.1,274,72.8L274,72.8z M272.4,75.4
			c-0.5,0.5-1.2,0.9-1.7,1.5c-0.9,1.8-0.9,3.8-0.8,6.4c0.4,1.4,1.1,2.4,2.1,3.4c0.9,0.2,2,0.8,3.5,0.7c0.6-0.5,1.2-0.7,1.8-1.1
			c0.2-0.3,0.4-0.7,0.5-0.8c0.1-0.1,0.2-0.2,0.3-0.2c0.1-0.2,0-0.5,0.1-0.9c0.1-0.2,0.3-0.4,0.4-0.5c0.2-0.8,0-1.6,0.4-2.5
			c-0.2-0.8-0.1-1.8-0.3-2.7c-0.4-0.8-0.7-1.5-1-2.3c-0.9-0.4-1.5-1-2.5-1.3c-0.4,0.2-1.2-0.1-1.5,0.1C273.2,75,273,75.4,272.4,75.4
			L272.4,75.4z"/>
		<path class="st1" d="M287.4,75.5c0.1,1,0.5,1.8,1,2.3c0.1,1,0.6,2,0.9,2.8c0.4,0.7,0.5,1.7,1.4,2.2c0.8-0.3,1-2,1.4-2.6
			c0-0.3,0.3-0.4,0.4-0.7c0-0.2-0.1-0.4,0-0.5c0-0.1,0.2-0.1,0.3-0.2c0.2-0.4,0.3-0.9,0.4-1.5c1-1,1.1-2.9,2-4.1c1,0,1.6,0,2.1,0.3
			c-0.1,1.7-1.1,2.4-1.5,3.8c-0.4,1.3-1.2,2.3-1.3,3.7c-0.8,0.8-0.9,2-1.1,3c-0.8,0.9-1.1,1.5-1.3,2.8c-0.6,0.6-0.6,1.9-1.3,2.3
			c-0.8-0.1-0.6-0.9-0.9-1.3c-0.3-0.6-0.4-1.1-0.7-1.7c-0.6-1-0.7-2.5-1.3-3.3c0-0.4-0.3-0.4-0.2-0.9c-0.3-1.1-1.4-2-1.5-3.6
			c-0.2-0.2-0.4-0.7-0.7-0.9c-0.1-1.4-1.1-2.6-0.9-3.5c-0.1-0.8,0.8-0.5,1.3-0.6C286.6,73.6,286.8,74.5,287.4,75.5z"/>
		<path class="st1" d="M312.8,82c-2.6,0.4-5.9-0.1-8.4,0.2c-0.6,0.1-1.5,0-1.9,0.3c0.4,3.1,2,5.3,5.5,5c1.3-0.4,2.2-1.5,3.2-0.7
			c0.4,1.7-0.9,1.9-2.3,2.4c-1-0.4-1.9,0.1-2.7,0c-1.3,0.1-2.3-0.7-3.3-1c-0.4-0.7-1.3-1.2-1.8-1.8c-0.1-0.4-0.2-0.8-0.3-1.2
			c-0.2-0.5-0.4-1.2-0.6-2.2c0-1.8-0.1-3.7,0.2-5.6c0.3-0.8,0.4-1.3,0.7-2c0.3-0.9,1.1-1.1,1.5-1.8c0.7-0.2,1.2-0.4,1.8-0.7
			c1-0.2,2.8,0.3,3.8-0.2c0.6,0.4,1.4,0.5,2,0.7c0.9,0.6,1.5,1.8,2.3,2.6c-0.2,0.8,0.1,1.1,0.3,1.5c-0.1,0.7,0,1.1,0.3,1.5
			C312.9,79.9,313.6,81.5,312.8,82L312.8,82z M310.3,77.2c-0.4-0.8-0.9-1.3-1.4-1.8c-1.3-0.5-2.8-0.2-4.1,0c-0.7,0-1,0.7-1.6,1.1
			c-0.5,0.8-1.3,2.7-0.1,3.7c0.1-0.1,0.3-0.1,0.3,0c0.9-0.1,1.5,0,2.3-0.4c0.7,0.5,1.5,0.2,2.3,0c0.8,0.4,2.2,0.5,2.8-0.1
			C311.1,78.7,310.7,77.9,310.3,77.2L310.3,77.2z"/>
		<path class="st1" d="M330.7,88.8c-0.5,0.3-1.3,0.1-1.9,0.2c-0.4-1.3-0.2-2.7,0-4.3c0-1.7-0.4-3-0.2-4.8c0-1.2-0.2-2.3-0.4-3.1
			c0-0.2-0.1-0.2-0.1-0.4c-0.7-1-1.7-1.1-2.6-1.7c-2,0.2-3.2,0.9-4.3,2.1c-0.1,0.8-0.6,1.4-0.7,2.4c0.1,1.2,0.2,2.7-0.1,3.5
			c0.1,0.5,0.2,0.8,0.3,1.2c-0.2,1.4-0.3,3.2-0.3,4.6c-0.3,0.3-1.1,0.6-1.7,0.4c-0.4-0.8-0.6-2.1-0.3-3.1c-0.1-0.6-0.1-1.1-0.2-1.7
			c0-0.8,0.2-2.3,0.2-3.6c0.1-0.2,0-0.4,0-0.4c0.1-2.2-0.1-3.8,0.2-6c-0.1-0.3-0.2-0.9,0.2-1.2c1.5-0.4,1.2,1.1,2.1,1.5
			c0.9-0.4,1.3-1,2-1.5c0.7,0,1.3-0.2,1.9-0.4c0.5,0.3,1-0.1,1.5,0c1.7,0.2,2.9,0.9,3.8,2.1c0,0.4,0.2,1,0.5,1.3
			c-0.2,0.6,0.3,1.1,0.2,1.8c0,0.3-0.1,0.6-0.1,1c0,0.8,0.4,2.3,0.2,3.5c0,0.9-0.3,2.2,0.2,3.5C330.6,87.1,331.3,87.9,330.7,88.8
			L330.7,88.8z"/>
		<path class="st1" d="M356,82c-2.6,0.4-5.9-0.1-8.4,0.2c-0.6,0.1-1.5,0-1.9,0.3c0.4,3.1,2,5.3,5.5,5c1.3-0.4,2.2-1.5,3.2-0.7
			c0.4,1.7-0.9,1.9-2.3,2.4c-1-0.4-1.9,0.1-2.7,0c-1.3,0.1-2.3-0.7-3.3-1c-0.4-0.7-1.3-1.2-1.8-1.8c-0.1-0.4-0.2-0.8-0.3-1.2
			c-0.2-0.5-0.4-1.2-0.6-2.2c0-1.8-0.1-3.7,0.2-5.6c0.3-0.8,0.4-1.3,0.7-2c0.3-0.9,1.1-1.1,1.5-1.8c0.7-0.2,1.2-0.4,1.8-0.7
			c1-0.2,2.8,0.3,3.8-0.2c0.6,0.4,1.4,0.5,2,0.7c0.9,0.6,1.5,1.8,2.3,2.6c-0.2,0.8,0.1,1.1,0.3,1.5c-0.1,0.7,0,1.1,0.3,1.5
			C356.1,79.9,356.8,81.5,356,82L356,82z M353.5,77.2c-0.4-0.8-0.9-1.3-1.4-1.8c-1.3-0.5-2.8-0.2-4.1,0c-0.7,0-1,0.7-1.6,1.1
			c-0.5,0.8-1.3,2.7-0.1,3.7c0.1-0.1,0.3-0.1,0.3,0c0.9-0.1,1.5,0,2.3-0.4c0.7,0.5,1.5,0.2,2.3,0c0.8,0.4,2.2,0.5,2.8-0.1
			C354.3,78.7,353.9,77.9,353.5,77.2L353.5,77.2z"/>
		<path class="st1" d="M365.9,75c-1.3,0-2.4,0.4-2.9,0.9c0,0.7-0.3,0.9-0.3,1.5c0.3,0.9,0.9,1.5,1.8,1.9c0.8,0.3,1.5,0.9,2.5,1.1
			c0.4,0.4,1.1,0.9,2,1.1c0.2,0.6,0.6,0.9,0.9,1.3c0.3,0.5,0.4,0.9,0.7,1.4c0.3,1.6-0.2,2.4-0.7,3.3c-0.5,0.4-0.7,0.9-1.3,1.2
			c-0.7,0.4-2,0.4-2.9,0.7c-2,0.1-4.5-0.1-5.3-1.8c0-0.6,0.5-0.7,0.7-1.1c1.5,0.2,3.7,1.3,5.7,0.8c0.6-0.4,1.4-1.1,1.5-2.1
			c0-1.5-1.4-2.1-2.3-2.8c-0.9-0.3-1.4-0.7-2.4-0.9c-0.9-0.5-1.8-1.1-2.5-1.9c-0.3-0.7-0.6-1.3-0.8-2c0-1,0.3-1.5,0.2-2.6
			c0.4-0.5,0.8-1,1.2-1.5c0.6-0.2,1.2-0.4,1.8-0.7c1.4-0.1,2.3-0.1,3.8,0.1c0.3,0.3,1.3,0,1.5,0.7C369.2,75.8,367,75.2,365.9,75z"/>
		<path class="st1" d="M392.9,89.1c-0.8,0-0.8-0.9-1.5-1.1c-0.6,0.3-1.4,0.6-1.8,1c-1.3,0.2-2.9,0.4-4.4,0.2
			c-0.7-0.8-1.7-1.2-2.3-1.9c-0.4-1-0.2-2.3-0.7-3.2c0-0.9,0.2-1.5,0.3-2.4c0.3-0.4,0.6-1.1,0.9-1.5c0.2,0,0.4-0.1,0.4-0.3
			c1.4-0.7,2.6-0.7,4.6-1c1,0.6,1.5,1.2,2.5,1.4c1.2-0.4,0.1-1.8,0.3-2.9c-0.1-0.7-0.6-1.3-1.1-1.9c-0.7-0.1-1.1-0.4-1.8-0.6
			c-1.6-0.1-3,0.7-4.1,0.4c-0.4-0.5-0.7-0.9-0.6-1.6c0.4-0.6,1.5-0.5,2.1-1c1.3-0.1,2,0,3.3,0c0.7,0.4,1.5,0.7,2.5,0.9
			c1.1,1.6,2.4,3.6,2,6.4c0,0.5,0.2,0.8,0.2,1.3c0,1.8-0.2,3.2-0.3,4.9c0.1,0.9,0.3,1.2,0.3,2C393.9,88.7,393.4,88.8,392.9,89.1
			L392.9,89.1z M386.2,81.4c-0.4,0.4-0.9,0.7-1.4,1.1c0.2,0.3-0.2,0.3-0.3,0.6c-0.1,1.5,0.3,3.1,1.1,3.4c0.7,0.7,1.8,0.7,2.9,0.4
			c0.4-0.1,0.7-0.3,1.1-0.3c0.9-0.8,2-1,2.2-2.6c-0.5-1-1.1-1.6-1.7-2.3c-1-0.2-1.6-0.5-2.5-0.7c-0.1,0.1-0.2,0.2-0.2,0.2H386.2z"/>
		<path class="st1" d="M403.7,66.7c0.2,2.2-0.9,4.6,0.5,6.3c0.8-0.1,1.6-0.2,2.3-0.1c0.4,0.4,0.7,1.5,0.3,2.2
			c-0.8,0.2-2.1-0.4-2.9,0.2c-0.1,0.1-0.1,0.5-0.4,0.6c0.2,1.4-0.1,3,0.4,4.3c-0.3,1.1-0.1,2.2-0.4,3.2c0.3,0.9,0.1,1.8,0.3,2.9
			c0.4,0.3,0.8,0.5,1.1,0.8c1.2,0.4,2.7,0.1,2.3,1.8c-0.4,0.4-1.6,0.4-2.5,0.4c-0.6-0.1-1-0.5-1.8-0.6c-0.4-0.5-0.9-1.1-1.3-1.7
			c0-1-0.2-1.5-0.3-2.4c-0.3-2.6,0.1-5.8-0.3-9.2c-0.4-0.5-1.5-0.5-2.6-0.6c-0.3-0.7-0.3-1.6,0.1-2.1c0.9-0.1,2.6,0.1,2.9-0.9
			c0-0.7-0.2-1-0.2-1.5c0.1-1.9-0.2-3.2,0.4-4.3C402.6,66,403.2,66.3,403.7,66.7L403.7,66.7z"/>
		<path class="st1" d="M418.9,72.8c0.5,0.3,0.6,1.3,0.4,2.1c-0.9,0.3-2.2,0.4-2.9,0.5c-1,0.5-1.2,2-1.8,3c0.1,3.2,0.1,7-0.4,11
			c-0.3-0.1-1.1-0.2-1.6-0.3c-0.6-0.9-0.1-1.5-0.1-2.5c0-0.4-0.2-1-0.2-1.5c0-0.4,0.1-0.8,0.1-1.1c0.1-1.8-0.2-3.7-0.1-5.9
			c0.1-0.7,0.2-1.7-0.1-2.8c0.3-0.9,0-1.8,0.8-2.2c0.5,0,0.8,0.2,1.1,0.4c0.3,0.2,0.2,0.8,0.7,0.8c0.8-0.2,1.3-0.8,2.2-1.1
			c0.3-0.2,1.3,0,1.6-0.3H418.9z"/>
		<path class="st1" d="M426.4,68.7c0.2,1.3-0.4,1.5-0.9,2.1c-1.5,0.2-2.5-0.3-2.4-1.9c0,0,0.1-0.2,0.2-0.4
			C424.2,67.6,425.7,67.6,426.4,68.7L426.4,68.7z M425.3,89.2c-0.7,0-1.2-0.2-1.7-0.3c-0.1-2.8-0.1-5.1-0.4-8.2
			c0.3-0.6,0.4-1.3,0.5-2.2c-0.2-1-0.2-2-0.2-2.8c0-0.8-0.3-1.7,0.3-2.4c0.5,0,0.8-0.5,1.1-0.2c1.3,0.4,0.8,1.9,0.9,2.9
			c-0.1,2.4,0,4.4,0.3,7.8c-0.3,0.8-0.1,2-0.2,2.8C425.9,87.6,426,88.6,425.3,89.2L425.3,89.2z"/>
		<path class="st1" d="M434.4,70c0,1.3,0,2.9,0.3,4c0.9,0.5,1.3-0.3,1.9-0.6c0.6-0.2,1.1-0.2,1.5-0.4c1,0.2,3-0.2,3.8,0.4
			c0.8,0.4,1.4,1.3,2.2,1.8c0.6,1.5,0.8,2.6,1.3,4.1c-0.1,0.9,0,1.7,0,2.7c0.2,2.2-0.6,4.3-1.4,5.3c-0.7,0.9-1.5,1.3-2.2,1.9
			c-1.3,0.1-3,0.4-4.4,0.2c-0.5-0.2-0.9-0.6-1.5-0.8c-0.4-0.4-0.7-0.8-1.2-1c-0.7,0-0.4,0.8-0.7,1.1c-0.4,0.3-0.5,0.7-1.3,0.5
			c-0.5-0.2-0.4-0.9-0.7-1.4c0.1-5.5,0.2-9.2,0.5-15.1c-0.4-0.8-0.5-2.2-0.6-3.7c0-0.9,0.2-1.8,0.2-2.4c0.4-0.3,1.1-0.5,1.8-0.4
			C434.8,67.3,434.2,68.4,434.4,70z M437.2,75.4c-0.8,0.3-1.2,0.9-1.7,1.3c-0.1,0.3-0.2,0.6-0.5,0.7c-0.1,0.9-0.4,1.8-0.7,2.6
			c0.3,0.4,0,0.7,0,1.2c0.2,1,0.4,2.1,0.6,3.2c0.7,0.9,0.9,2,1.8,2.4c0.7,0.3,1.2,0.5,1.9,0.5c1.4,0.1,2.3-0.4,3.2-0.9
			c0.1-0.4,0.3-0.7,0.6-0.8c0.3-1.6,1-4.8,0.8-6.6c-0.4-0.7-0.6-1.4-0.7-2.1c-0.6-0.4-1.2-1.2-2-1.8c-1.1-0.1-2.2,0-3.2,0.3
			L437.2,75.4z"/>
		<path class="st1" d="M452.1,73.3c0.1,3.3-0.2,6.6,0.2,10.1c0.1,0.5,0.1,1.5,0.4,2.1c0.7,1.3,2.2,1.7,3.5,2
			c1.3-0.4,1.8-1.1,2.8-1.4c0.4-0.9,1-2,1.1-3c-0.1-0.9,0-1.6,0.3-2.1c0.1-2.1-0.3-5.4-0.1-7.7c0.8-0.4,1.8-0.4,2.2,0.2
			c0.3,2.6,0.1,5.5,0,8c0,1.1,0.2,1.6,0,2.3c0.1,1-0.1,2.4-0.1,3.5c0.1,0.6,0.4,1.2-0.1,1.7c-0.5,0.2-1.1,0.1-1.5-0.2
			c-0.4-0.3-0.2-0.9-0.7-1.1c-0.9,0-0.9,0.6-1.6,0.9c-0.8,0.1-1.3,0.5-2,0.7c-1.8-0.2-3.5,0-4.7-0.9c-1.2-0.8-1.4-2.4-2-4
			c-0.2-0.5,0.2-0.7,0.1-1.2c0-1.6-0.2-2.7,0-4.1c-0.1-0.3-0.2-0.7-0.3-0.9c0-0.4,0.2-0.8,0.3-1.1c-0.3-0.6-0.2-1.5-0.2-2.2
			c0.1-0.4,0.1-1,0.4-1.3c0-0.2,0.2-0.4,0.4-0.4C451.3,72.9,451.8,73,452.1,73.3L452.1,73.3z"/>
		<path class="st1" d="M471.8,68.7c0.2,1.3-0.4,1.5-0.9,2.1c-1.5,0.2-2.5-0.3-2.4-1.9c0,0,0.1-0.2,0.2-0.4
			C469.7,67.6,471.1,67.6,471.8,68.7L471.8,68.7z M470.7,89.2c-0.7,0-1.2-0.2-1.7-0.3c-0.1-2.8-0.1-5.1-0.4-8.2
			c0.3-0.6,0.4-1.3,0.5-2.2c-0.2-1-0.2-2-0.2-2.8c0-0.8-0.3-1.7,0.3-2.4c0.5,0,0.8-0.5,1.1-0.2c1.3,0.4,0.8,1.9,0.9,2.9
			c-0.1,2.4,0,4.4,0.3,7.8c-0.3,0.8-0.1,2-0.2,2.8C471.3,87.6,471.4,88.6,470.7,89.2L470.7,89.2z"/>
		<path class="st1" d="M479.8,70c0,1.3,0,2.9,0.3,4c0.9,0.5,1.3-0.3,1.9-0.6c0.6-0.2,1.1-0.2,1.5-0.4c1,0.2,3-0.2,3.8,0.4
			c0.8,0.4,1.4,1.3,2.2,1.8c0.6,1.5,0.8,2.6,1.3,4.1c-0.1,0.9,0,1.7,0,2.7c0.2,2.2-0.6,4.3-1.4,5.3c-0.7,0.9-1.5,1.3-2.2,1.9
			c-1.3,0.1-3,0.4-4.4,0.2c-0.5-0.2-0.9-0.6-1.5-0.8c-0.4-0.4-0.7-0.8-1.2-1c-0.7,0-0.4,0.8-0.7,1.1c-0.4,0.3-0.5,0.7-1.3,0.5
			c-0.5-0.2-0.4-0.9-0.7-1.4c0.1-5.5,0.2-9.2,0.5-15.1c-0.4-0.8-0.5-2.2-0.6-3.7c0-0.9,0.2-1.8,0.2-2.4c0.4-0.3,1.1-0.5,1.8-0.4
			C480.3,67.3,479.6,68.4,479.8,70z M482.6,75.4c-0.8,0.3-1.2,0.9-1.7,1.3c-0.1,0.3-0.2,0.6-0.5,0.7c-0.1,0.9-0.4,1.8-0.7,2.6
			c0.3,0.4,0,0.7,0,1.2c0.2,1,0.4,2.1,0.6,3.2c0.7,0.9,0.9,2,1.8,2.4c0.7,0.3,1.2,0.5,1.9,0.5c1.4,0.1,2.3-0.4,3.2-0.9
			c0.1-0.4,0.3-0.7,0.6-0.8c0.3-1.6,1-4.8,0.8-6.6c-0.4-0.7-0.6-1.4-0.7-2.1c-0.6-0.4-1.2-1.2-2-1.8c-1.1-0.1-2.2,0-3.2,0.3
			L482.6,75.4z"/>
		<path class="st1" d="M498,66.4c-0.1,7.3-0.5,14.3,0.4,23.2c-0.8-0.3-2-0.2-2.3-0.7c-0.4-0.3-0.2-1-0.4-1.7c-0.1-0.7,0.1-0.9,0-1.7
			c-0.4-3.7,0.6-8.1,0.2-11.7c-0.4-2.8-0.5-4.9,0.2-7.6C496.3,66.1,497.5,66.2,498,66.4L498,66.4z"/>
		<path class="st1" d="M515.7,82c-2.6,0.4-5.9-0.1-8.4,0.2c-0.6,0.1-1.5,0-1.9,0.3c0.4,3.1,2,5.3,5.5,5c1.3-0.4,2.2-1.5,3.2-0.7
			c0.4,1.7-0.9,1.9-2.3,2.4c-1-0.4-1.9,0.1-2.7,0c-1.3,0.1-2.3-0.7-3.3-1c-0.4-0.7-1.3-1.2-1.8-1.8c-0.1-0.4-0.2-0.8-0.3-1.2
			c-0.2-0.5-0.4-1.2-0.6-2.2c0-1.8-0.1-3.7,0.2-5.6c0.3-0.8,0.4-1.3,0.7-2c0.3-0.9,1.1-1.1,1.5-1.8c0.7-0.2,1.2-0.4,1.8-0.7
			c1-0.2,2.8,0.3,3.8-0.2c0.6,0.4,1.4,0.5,2,0.7c0.9,0.6,1.5,1.8,2.3,2.6c-0.2,0.8,0.1,1.1,0.3,1.5c-0.1,0.7,0,1.1,0.3,1.5
			C515.8,79.9,516.5,81.5,515.7,82L515.7,82z M513.2,77.2c-0.4-0.8-0.9-1.3-1.4-1.8c-1.3-0.5-2.8-0.2-4.1,0c-0.7,0-1,0.7-1.6,1.1
			c-0.5,0.8-1.3,2.7-0.1,3.7c0.1-0.1,0.3-0.1,0.3,0c0.9-0.1,1.5,0,2.3-0.4c0.7,0.5,1.5,0.2,2.3,0c0.8,0.4,2.2,0.5,2.8-0.1
			C514,78.7,513.6,77.9,513.2,77.2L513.2,77.2z"/>
		<path class="st1" d="M538.2,89.1c-0.8,0-0.8-0.9-1.5-1.1c-0.6,0.3-1.4,0.6-1.8,1c-1.3,0.2-2.9,0.4-4.4,0.2
			c-0.7-0.8-1.7-1.2-2.3-1.9c-0.4-1-0.2-2.3-0.7-3.2c0-0.9,0.2-1.5,0.3-2.4c0.3-0.4,0.6-1.1,0.9-1.5c0.2,0,0.4-0.1,0.4-0.3
			c1.4-0.7,2.6-0.7,4.6-1c1,0.6,1.5,1.2,2.5,1.4c1.2-0.4,0.1-1.8,0.3-2.9c-0.1-0.7-0.6-1.3-1.1-1.9c-0.7-0.1-1.1-0.4-1.8-0.6
			c-1.6-0.1-3,0.7-4.1,0.4c-0.4-0.5-0.7-0.9-0.6-1.6c0.4-0.6,1.5-0.5,2.1-1c1.3-0.1,2,0,3.3,0c0.7,0.4,1.5,0.7,2.5,0.9
			c1.1,1.6,2.4,3.6,2,6.4c0,0.5,0.2,0.8,0.2,1.3c0,1.8-0.2,3.2-0.3,4.9c0.1,0.9,0.3,1.2,0.3,2C539.2,88.7,538.7,88.8,538.2,89.1
			L538.2,89.1z M531.5,81.4c-0.4,0.4-0.9,0.7-1.4,1.1c0.2,0.3-0.2,0.3-0.3,0.6c-0.1,1.5,0.3,3.1,1.1,3.4c0.7,0.7,1.8,0.7,2.9,0.4
			c0.4-0.1,0.7-0.3,1.1-0.3c0.9-0.8,2-1,2.2-2.6c-0.5-1-1.1-1.6-1.7-2.3c-1-0.2-1.6-0.5-2.5-0.7c-0.1,0.1-0.2,0.2-0.2,0.2H531.5z"/>
		<path class="st1" d="M547.7,66.4c-0.1,7.3-0.5,14.3,0.4,23.2c-0.8-0.3-2-0.2-2.3-0.7c-0.4-0.3-0.2-1-0.4-1.7
			c-0.1-0.7,0.1-0.9,0-1.7c-0.4-3.7,0.6-8.1,0.2-11.7c-0.4-2.8-0.5-4.9,0.2-7.6C546,66.1,547.2,66.2,547.7,66.4L547.7,66.4z"/>
		<path class="st1" d="M569.3,66c-0.4,0.2-1.3,0.1-1.9,0c-0.4,0.1-0.6,0.3-1,0.4c-0.9,1.5-1.2,3.6-0.9,6c0.4,0.7,2.7,0,3.3,0.5
			c0.1,0.4,0.3,1.4,0,1.8c-0.9,0.5-2.8-0.2-3.3,0.8c0,1.8,0.2,3.1-0.3,4.7c0.6,2.4,0.2,4.3,0.3,6.4c0,1.3,0,2.1-0.5,2.4
			c-0.5,0.3-1.3,0-1.7-0.2c0-0.7,0-2.1-0.3-3.1c0.3-1.4,0-2.9,0.1-4.8c0-0.9,0.2-1.5,0.2-2.6c-0.2-0.5-0.1-0.8,0-1.1
			c-0.2-0.6-0.1-1.5-0.4-1.9c-0.5-0.5-1.8,0-2.3-0.5c-0.5-0.2-0.6-1.1-0.3-1.7c0.4-0.7,1.6-0.2,2.4-0.4c0.8-0.4,0.4-2,0.7-2.9
			c-0.1-1.3,0.2-1.9,0.2-3.3c0.3-0.3,0.5-0.9,0.7-1.5c0.9-0.8,2-1.4,3.4-1.3c0.5,0.2,1.3,0.2,1.8,0.6
			C569.6,65.1,569.5,65.5,569.3,66z"/>
		<path class="st1" d="M584.9,82c-2.6,0.4-5.9-0.1-8.4,0.2c-0.6,0.1-1.5,0-1.9,0.3c0.4,3.1,2,5.3,5.5,5c1.3-0.4,2.2-1.5,3.2-0.7
			c0.4,1.7-0.9,1.9-2.3,2.4c-1-0.4-1.9,0.1-2.7,0c-1.3,0.1-2.3-0.7-3.3-1c-0.4-0.7-1.3-1.2-1.8-1.8c-0.1-0.4-0.2-0.8-0.3-1.2
			c-0.2-0.5-0.4-1.2-0.6-2.2c0-1.8-0.1-3.7,0.2-5.6c0.3-0.8,0.4-1.3,0.7-2c0.3-0.9,1.1-1.1,1.5-1.8c0.7-0.2,1.2-0.4,1.8-0.7
			c1-0.2,2.8,0.3,3.8-0.2c0.6,0.4,1.4,0.5,2,0.7c0.9,0.6,1.5,1.8,2.3,2.6c-0.2,0.8,0.1,1.1,0.3,1.5c-0.1,0.7,0,1.1,0.3,1.5
			C584.9,79.9,585.6,81.5,584.9,82L584.9,82z M582.4,77.2c-0.4-0.8-0.9-1.3-1.4-1.8c-1.3-0.5-2.8-0.2-4.1,0c-0.7,0-1,0.7-1.6,1.1
			c-0.5,0.8-1.3,2.7-0.1,3.7c0.1-0.1,0.3-0.1,0.3,0c0.9-0.1,1.5,0,2.3-0.4c0.7,0.5,1.5,0.2,2.3,0c0.8,0.4,2.2,0.5,2.8-0.1
			C583.1,78.7,582.7,77.9,582.4,77.2L582.4,77.2z"/>
		<path class="st1" d="M602.7,88.8c-0.5,0.3-1.3,0.1-1.9,0.2c-0.4-1.3-0.2-2.7,0-4.3c0-1.7-0.4-3-0.2-4.8c0-1.2-0.2-2.3-0.4-3.1
			c0-0.2-0.1-0.2-0.1-0.4c-0.7-1-1.7-1.1-2.6-1.7c-2,0.2-3.2,0.9-4.3,2.1c-0.1,0.8-0.6,1.4-0.7,2.4c0.1,1.2,0.2,2.7-0.1,3.5
			c0.1,0.5,0.2,0.8,0.3,1.2c-0.2,1.4-0.3,3.2-0.3,4.6c-0.3,0.3-1.1,0.6-1.7,0.4c-0.4-0.8-0.6-2.1-0.3-3.1c-0.1-0.6-0.1-1.1-0.2-1.7
			c0-0.8,0.2-2.3,0.2-3.6c0.1-0.2,0-0.4,0-0.4c0.1-2.2-0.1-3.8,0.2-6c-0.1-0.3-0.2-0.9,0.2-1.2c1.5-0.4,1.2,1.1,2.1,1.5
			c0.9-0.4,1.3-1,2-1.5c0.7,0,1.3-0.2,1.9-0.4c0.5,0.3,1-0.1,1.5,0c1.7,0.2,2.9,0.9,3.8,2.1c0,0.4,0.2,1,0.5,1.3
			c-0.2,0.6,0.3,1.1,0.2,1.8c0,0.3-0.1,0.6-0.1,1c0,0.8,0.4,2.3,0.2,3.5c0,0.9-0.3,2.2,0.2,3.5C602.6,87.1,603.3,87.9,602.7,88.8
			L602.7,88.8z"/>
		<path class="st1" d="M613.7,72.8c0,0,0-0.1,0.2-0.2c1.1,0.1,1.6,0.7,2.8,0.5c1.6,0.7,2.4,2.4,3.2,3.4c0.4,0.7,0.2,2,0.9,2.8
			c-0.3,0.6,0,1.2,0.2,1.8c-0.2,0.4,0,0.8,0,1.2c0,1-0.7,1.7-0.7,2.8c-0.5,0.6-1,1.3-1.3,2.1c-0.8,0.5-1.5,1.4-2.5,1.7
			c-1.4,0.4-3.1,0.7-4.6,0.1c-0.9-0.4-1.7-0.9-2.6-1.4c-0.2-0.6-0.5-1-0.9-1.3c-0.1-0.9-0.7-1.3-0.8-2.1c-0.3-0.7-0.2-1.4-0.4-2.1
			c-0.2-1.5,0.4-3,0.3-4.5c0.6-0.6,1-1.2,1.3-2.1c0.5-0.4,0.9-0.8,1.2-1.5C610.9,73.6,612.3,73.1,613.7,72.8L613.7,72.8z
			 M612.1,75.4c-0.5,0.5-1.2,0.9-1.7,1.5c-0.9,1.8-0.9,3.8-0.8,6.4c0.4,1.4,1.1,2.4,2.1,3.4c0.9,0.2,2,0.8,3.5,0.7
			c0.6-0.5,1.2-0.7,1.8-1.1c0.2-0.3,0.4-0.7,0.5-0.8c0.1-0.1,0.2-0.2,0.3-0.2c0.1-0.2,0-0.5,0.1-0.9c0.1-0.2,0.3-0.4,0.4-0.5
			c0.2-0.8,0-1.6,0.4-2.5c-0.2-0.8-0.1-1.8-0.3-2.7c-0.4-0.8-0.7-1.5-1-2.3c-0.9-0.4-1.5-1-2.5-1.3c-0.4,0.2-1.2-0.1-1.5,0.1
			C612.9,75,612.7,75.4,612.1,75.4L612.1,75.4z M617.8,64.9c0,1.3-1.2,1.6-1.5,2.7c-0.8,0.5-0.9,1.8-1.7,2.2c-0.7,0-0.9-0.3-1.2-0.6
			c0.6-1.5,1.3-2.8,2-4.4C615.7,64.4,617.2,64.7,617.8,64.9L617.8,64.9z"/>
		<path class="st1" d="M643.8,89.2c-0.5,0.3-1.1-0.1-1.7-0.1c-0.3-0.2,0.1-1-0.2-1.1c0-0.7,0.1-0.9,0.1-1.3
			c-0.3-1.1,0.2-2.5-0.3-3.1c0.1-0.5,0.4-0.7,0.3-1.2c-0.4-1.8-0.2-3.9,0-5.5c-0.4-1.2-2.2-2-3.8-1.5c-0.5,0.2-1.2,0.6-1.5,1.4
			c-0.1,0.4-0.4,2.4-0.4,3.3c0.1,2.2-0.1,4.4-0.3,6.2c0.3,1.1,0.7,3-0.9,3c-0.6,0-0.9-0.7-1.1-1.2c-0.1-0.2,0.2-0.6,0.1-0.9
			c0-0.7,0-1.2,0-1.9c0-0.3-0.2-0.6-0.2-0.9c0-0.6,0.2-1.1,0.2-2.2c-0.1-1.3-0.4-2.1-0.1-3.2c-0.4-0.6-0.2-1.6-0.5-2.4
			c-0.1-0.4-0.4-0.4-0.4-0.8c-0.5-0.4-1.3-0.5-1.8-0.8c-0.7,0.1-1.3,0.5-2,0.6c-0.8,1.1-1.1,2.4-1.4,4c0.4,2.1,0.5,4.4,0.2,6.7
			c0,0.9,0.1,2-0.3,2.9c-0.4,0.1-1.1,0-1.7-0.2c-0.7-1-0.1-2.1-0.3-3.4c0.1-0.3-0.1-0.6-0.1-1.1c0.1-2.6-0.1-6,0.6-8.9
			c-0.7-0.9-0.5-2.5,0.2-2.6c1.2-0.2,1,0.9,1.5,1.5c0.7-0.1,0.8-0.8,1.3-1.1c0.3-0.4,0.9-0.4,1.4-0.8c0.9,0,1.3,0.2,2.2,0.2
			c0.8,0.6,1.3,1.2,2.3,1.8c0.6-0.2,0.9-0.7,1.5-1.1c0.8-0.4,1.7-0.7,2.8-1h0.3c0.7,0.4,1.7,0.5,2.4,1c0.4,0.1,0.5,0.4,0.7,0.8
			c0.4,0.1,0.4,0.5,0.7,0.7c0.4,1.1,0.2,2.1,0.7,3.1c-0.2,2.9,0.1,5.9,0,8.9C644.3,87.6,644.3,88.9,643.8,89.2L643.8,89.2z"/>
		<path class="st1" d="M661.4,82c-2.6,0.4-5.9-0.1-8.4,0.2c-0.6,0.1-1.5,0-1.9,0.3c0.4,3.1,2,5.3,5.5,5c1.3-0.4,2.2-1.5,3.2-0.7
			c0.4,1.7-0.9,1.9-2.3,2.4c-1-0.4-1.9,0.1-2.7,0c-1.3,0.1-2.3-0.7-3.3-1c-0.4-0.7-1.3-1.2-1.8-1.8c-0.1-0.4-0.2-0.8-0.3-1.2
			c-0.2-0.5-0.4-1.2-0.6-2.2c0-1.8-0.1-3.7,0.2-5.6c0.3-0.8,0.4-1.3,0.7-2c0.3-0.9,1.1-1.1,1.5-1.8c0.7-0.2,1.2-0.4,1.8-0.7
			c1-0.2,2.8,0.3,3.8-0.2c0.6,0.4,1.4,0.5,2,0.7c0.9,0.6,1.5,1.8,2.3,2.6c-0.2,0.8,0.1,1.1,0.3,1.5c-0.1,0.7,0,1.1,0.3,1.5
			C661.4,79.9,662.1,81.5,661.4,82L661.4,82z M658.9,77.2c-0.4-0.8-0.9-1.3-1.4-1.8c-1.3-0.5-2.8-0.2-4.1,0c-0.7,0-1,0.7-1.6,1.1
			c-0.5,0.8-1.3,2.7-0.1,3.7c0.1-0.1,0.3-0.1,0.3,0c0.9-0.1,1.5,0,2.3-0.4c0.7,0.5,1.5,0.2,2.3,0c0.8,0.4,2.2,0.5,2.8-0.1
			C659.7,78.7,659.2,77.9,658.9,77.2L658.9,77.2z"/>
		<path class="st1" d="M679.2,88.8c-0.5,0.3-1.3,0.1-1.9,0.2c-0.4-1.3-0.2-2.7,0-4.3c0-1.7-0.4-3-0.2-4.8c0-1.2-0.2-2.3-0.4-3.1
			c0-0.2-0.1-0.2-0.1-0.4c-0.7-1-1.7-1.1-2.6-1.7c-2,0.2-3.2,0.9-4.3,2.1c-0.1,0.8-0.6,1.4-0.7,2.4c0.1,1.2,0.2,2.7-0.1,3.5
			c0.1,0.5,0.2,0.8,0.3,1.2c-0.2,1.4-0.3,3.2-0.3,4.6c-0.3,0.3-1.1,0.6-1.7,0.4c-0.4-0.8-0.6-2.1-0.3-3.1c-0.1-0.6-0.1-1.1-0.2-1.7
			c0-0.8,0.2-2.3,0.2-3.6c0.1-0.2,0-0.4,0-0.4c0.1-2.2-0.1-3.8,0.2-6c-0.1-0.3-0.2-0.9,0.2-1.2c1.5-0.4,1.2,1.1,2.1,1.5
			c0.9-0.4,1.3-1,2-1.5c0.7,0,1.3-0.2,1.9-0.4c0.5,0.3,1-0.1,1.5,0c1.7,0.2,2.9,0.9,3.8,2.1c0,0.4,0.2,1,0.5,1.3
			c-0.2,0.6,0.3,1.1,0.2,1.8c0,0.3-0.1,0.6-0.1,1c0,0.8,0.4,2.3,0.2,3.5c0,0.9-0.3,2.2,0.2,3.5C679.1,87.1,679.8,87.9,679.2,88.8
			L679.2,88.8z"/>
		<path class="st1" d="M690.2,72.8c0,0,0-0.1,0.2-0.2c1.1,0.1,1.6,0.7,2.8,0.5c1.6,0.7,2.4,2.4,3.2,3.4c0.4,0.7,0.2,2,0.9,2.8
			c-0.3,0.6,0,1.2,0.2,1.8c-0.2,0.4,0,0.8,0,1.2c0,1-0.7,1.7-0.7,2.8c-0.5,0.6-1,1.3-1.3,2.1c-0.8,0.5-1.5,1.4-2.5,1.7
			c-1.4,0.4-3.1,0.7-4.6,0.1c-0.9-0.4-1.7-0.9-2.6-1.4c-0.2-0.6-0.5-1-0.9-1.3c-0.1-0.9-0.7-1.3-0.8-2.1c-0.3-0.7-0.2-1.4-0.4-2.1
			c-0.2-1.5,0.4-3,0.3-4.5c0.6-0.6,1-1.2,1.3-2.1c0.5-0.4,0.9-0.8,1.2-1.5C687.4,73.6,688.8,73.1,690.2,72.8L690.2,72.8z
			 M688.6,75.4c-0.5,0.5-1.2,0.9-1.7,1.5c-0.9,1.8-0.9,3.8-0.8,6.4c0.4,1.4,1.1,2.4,2.1,3.4c0.9,0.2,2,0.8,3.5,0.7
			c0.6-0.5,1.2-0.7,1.8-1.1c0.2-0.3,0.4-0.7,0.5-0.8c0.1-0.1,0.2-0.2,0.3-0.2c0.1-0.2,0-0.5,0.1-0.9c0.1-0.2,0.3-0.4,0.4-0.5
			c0.2-0.8,0-1.6,0.4-2.5c-0.2-0.8-0.1-1.8-0.3-2.7c-0.4-0.8-0.7-1.5-1-2.3c-0.9-0.4-1.5-1-2.5-1.3c-0.4,0.2-1.2-0.1-1.5,0.1
			C689.4,75,689.2,75.4,688.6,75.4L688.6,75.4z"/>
		<path class="st1" d="M722.1,69.4c0,1,0.1,2.4,0.2,3.3c0,1-0.2,2.7-0.3,4c0.2,0.9,0.1,2,0.2,3.2c-0.1,1.1,0,2.1-0.1,3.2
			c0,0.6,0.1,1.3,0.1,1.9c0,0.7-0.1,1.2-0.1,1.9c0,0.9,0.5,1.7-0.5,2.5c-1.1,0.1-1.2-0.9-1.6-1.8c-0.9,0-1.1,0.5-1.7,0.8
			c-0.1,0.5-1,0.5-1.3,0.9c-1.1,0.2-2.8,0.2-4.1-0.2c-0.9-0.3-1.4-0.8-2.1-1.2c-0.3-0.3-0.4-0.7-0.8-0.9c-1-1.6-1.1-4.2-1.3-6.6
			c0.2-0.9,0.6-1.8,0.5-2.8c0.7-1.5,1.1-2.8,2.4-3.9c0.5-0.1,1.1-0.4,1.5-0.8c0.6,0,1.2,0,1.5-0.2c1,0.2,1.7,0.2,2.9,0.4
			c0.7,0.3,1.1,1.3,2.2,0.9c0.9-0.2,0-1.2,0.1-2c0.1-1.7,0.3-4.3,0.5-5.3c0.1-0.5,1-0.8,1.5-0.5C722.5,67.3,722,68.2,722.1,69.4z
			 M713.1,75.6c-0.7,0.7-1.3,1.6-1.7,2.6c0.3,1.6-0.4,2.6-0.2,4c0.3,1.1,0.5,2,0.5,2.8c0.5,0.4,0.7,1.1,1,1.5c0.6,0.1,1,0.6,1.7,0.7
			c1.4,0.2,3.3-0.4,4.3-1.1c0.6-1.1,1.2-2.3,1.5-3.9c-0.3-1.1,0-2.3-0.3-3.5c0-0.9-0.5-1.4-0.8-2c-0.8-0.9-1.5-1.2-2.8-1.5
			c-0.6-0.2-1.1,0.2-1.7-0.1c0,0-0.1,0-0.1,0.2C713.8,75.1,713.7,75.6,713.1,75.6L713.1,75.6z"/>
		<path class="st1" d="M739.9,82c-2.6,0.4-5.9-0.1-8.4,0.2c-0.6,0.1-1.5,0-1.9,0.3c0.4,3.1,2,5.3,5.5,5c1.3-0.4,2.2-1.5,3.2-0.7
			c0.4,1.7-0.9,1.9-2.3,2.4c-1-0.4-1.9,0.1-2.7,0c-1.3,0.1-2.3-0.7-3.3-1c-0.4-0.7-1.3-1.2-1.8-1.8c-0.1-0.4-0.2-0.8-0.3-1.2
			c-0.2-0.5-0.4-1.2-0.6-2.2c0-1.8-0.1-3.7,0.2-5.6c0.3-0.8,0.4-1.3,0.7-2c0.3-0.9,1.1-1.1,1.5-1.8c0.7-0.2,1.2-0.4,1.8-0.7
			c1-0.2,2.8,0.3,3.8-0.2c0.6,0.4,1.4,0.5,2,0.7c0.9,0.6,1.5,1.8,2.3,2.6c-0.2,0.8,0.1,1.1,0.3,1.5c-0.1,0.7,0,1.1,0.3,1.5
			C740,79.9,740.7,81.5,739.9,82L739.9,82z M737.4,77.2c-0.4-0.8-0.9-1.3-1.4-1.8c-1.3-0.5-2.8-0.2-4.1,0c-0.7,0-1,0.7-1.6,1.1
			c-0.5,0.8-1.3,2.7-0.1,3.7c0.1-0.1,0.3-0.1,0.3,0c0.9-0.1,1.5,0,2.3-0.4c0.7,0.5,1.5,0.2,2.3,0c0.8,0.4,2.2,0.5,2.8-0.1
			C738.2,78.7,737.8,77.9,737.4,77.2L737.4,77.2z"/>
		<path class="st1" d="M747.4,66.4c-0.1,7.3-0.5,14.3,0.4,23.2c-0.8-0.3-2-0.2-2.3-0.7c-0.4-0.3-0.2-1-0.4-1.7
			c-0.1-0.7,0.1-0.9,0-1.7c-0.4-3.7,0.6-8.1,0.2-11.7c-0.4-2.8-0.5-4.9,0.2-7.6C745.7,66.1,746.9,66.2,747.4,66.4L747.4,66.4z"/>
		<path class="st1" d="M771.1,89.1c-0.8,0-0.8-0.9-1.5-1.1c-0.6,0.3-1.4,0.6-1.8,1c-1.3,0.2-2.9,0.4-4.4,0.2
			c-0.7-0.8-1.7-1.2-2.3-1.9c-0.4-1-0.2-2.3-0.7-3.2c0-0.9,0.2-1.5,0.3-2.4c0.3-0.4,0.6-1.1,0.9-1.5c0.2,0,0.4-0.1,0.4-0.3
			c1.4-0.7,2.6-0.7,4.6-1c1,0.6,1.5,1.2,2.5,1.4c1.2-0.4,0.1-1.8,0.3-2.9c-0.1-0.7-0.6-1.3-1.1-1.9c-0.7-0.1-1.1-0.4-1.8-0.6
			c-1.6-0.1-3,0.7-4.1,0.4c-0.4-0.5-0.7-0.9-0.6-1.6c0.4-0.6,1.5-0.5,2.1-1c1.3-0.1,2,0,3.3,0c0.7,0.4,1.5,0.7,2.5,0.9
			c1.1,1.6,2.4,3.6,2,6.4c0,0.5,0.2,0.8,0.2,1.3c0,1.8-0.2,3.2-0.3,4.9c0.1,0.9,0.3,1.2,0.3,2C772.1,88.7,771.6,88.8,771.1,89.1
			L771.1,89.1z M764.4,81.4c-0.4,0.4-0.9,0.7-1.4,1.1c0.2,0.3-0.2,0.3-0.3,0.6c-0.1,1.5,0.3,3.1,1.1,3.4c0.7,0.7,1.8,0.7,2.9,0.4
			c0.4-0.1,0.7-0.3,1.1-0.3c0.9-0.8,2-1,2.2-2.6c-0.5-1-1.1-1.6-1.7-2.3c-1-0.2-1.6-0.5-2.5-0.7c-0.1,0.1-0.2,0.2-0.2,0.2H764.4z"/>
		<path class="st1" d="M780.6,66.4c-0.1,7.3-0.5,14.3,0.4,23.2c-0.8-0.3-2-0.2-2.3-0.7c-0.4-0.3-0.2-1-0.4-1.7
			c-0.1-0.7,0.1-0.9,0-1.7c-0.4-3.7,0.6-8.1,0.2-11.7c-0.4-2.8-0.5-4.9,0.2-7.6C778.9,66.1,780.1,66.2,780.6,66.4L780.6,66.4z"/>
		<path class="st1" d="M796.8,74.8c-0.2,1.5-1.9,0.8-2.7,0.4c-1.1,0-2.6-0.1-3.2,0.1c-0.8,0.4-1.3,1.2-2.1,1.7
			c-0.2,0.7-0.4,1.5-0.8,2.3c-0.2,1.9,0,3.7,0.4,5.2c0.3,0.8,1,1.6,1.8,2.1c0.6,0.3,1.3,0.3,1.7,0.7c0.4,0,0.9-0.1,1.1,0.1
			c1.1-0.1,2.2-0.7,3.1-0.7c0.2,0.5,0.3,0.9,0.4,1.3c-0.2,1-1.9,1.1-3,1.3c-1-0.1-1.5-0.1-2.6-0.1c-0.9-0.4-1.7-0.8-2.5-1.2
			c-1.1-0.9-1.5-1.8-2.2-2.9c-0.2-1-0.4-1.8-0.7-2.4c0-1.1,0-2.2,0.1-3.4c0.3-1.3,0.7-1.9,1.1-3.2c0.7-0.9,1.8-2,2.9-2.9
			c0.5-0.1,1.3-0.1,1.8-0.4c1.1-0.1,2.2,0.1,3.2,0.1C795.5,73.6,796.6,73.5,796.8,74.8L796.8,74.8z"/>
		<path class="st1" d="M806.6,72.8c0,0,0-0.1,0.2-0.2c1.1,0.1,1.6,0.7,2.8,0.5c1.6,0.7,2.4,2.4,3.2,3.4c0.4,0.7,0.2,2,0.9,2.8
			c-0.3,0.6,0,1.2,0.2,1.8c-0.2,0.4,0,0.8,0,1.2c0,1-0.7,1.7-0.7,2.8c-0.5,0.6-1,1.3-1.3,2.1c-0.8,0.5-1.5,1.4-2.5,1.7
			c-1.4,0.4-3.1,0.7-4.6,0.1c-0.9-0.4-1.7-0.9-2.6-1.4c-0.2-0.6-0.5-1-0.9-1.3c-0.1-0.9-0.7-1.3-0.8-2.1c-0.3-0.7-0.2-1.4-0.4-2.1
			c-0.2-1.5,0.4-3,0.3-4.5c0.6-0.6,1-1.2,1.3-2.1c0.5-0.4,0.9-0.8,1.2-1.5C803.8,73.6,805.2,73.1,806.6,72.8L806.6,72.8z M805,75.4
			c-0.5,0.5-1.2,0.9-1.7,1.5c-0.9,1.8-0.9,3.8-0.8,6.4c0.4,1.4,1.1,2.4,2.1,3.4c0.9,0.2,2,0.8,3.5,0.7c0.6-0.5,1.2-0.7,1.8-1.1
			c0.2-0.3,0.4-0.7,0.5-0.8c0.1-0.1,0.2-0.2,0.3-0.2c0.1-0.2,0-0.5,0.1-0.9c0.1-0.2,0.3-0.4,0.4-0.5c0.2-0.8,0-1.6,0.4-2.5
			c-0.2-0.8-0.1-1.8-0.3-2.7c-0.4-0.8-0.7-1.5-1-2.3c-0.9-0.4-1.5-1-2.5-1.3c-0.4,0.2-1.2-0.1-1.5,0.1C805.9,75,805.6,75.4,805,75.4
			L805,75.4z"/>
		<path class="st1" d="M821,66.3c0,1.3-0.2,2.6,0,4.4c0,0.3,0,0.8,0.1,1.1c0.1,0.8-0.2,2.1,0.2,2.7c1.1-0.1,1.3-0.9,2.1-1.3
			c0.5,0,0.8-0.2,1.1-0.3c1.4-0.2,2.6,0.2,4.1,0.2c1,0.8,1.5,1.4,2.2,2.4c0,0.8,0.3,1.2,0.5,1.9c0.6,4.4,0.3,8.5,0,11.4
			c-0.8,0.9-1.5,0.2-2.1-0.1c-0.2-1.6,0-3-0.1-4.4c0-0.4,0.2-0.7,0.2-0.7c0-1.8-0.5-3.5-0.2-5.4c-0.2-0.5-0.2-1.2-0.4-1.7
			c-0.5-0.8-1.5-1-2.4-1.4c-0.8,0-1.6,0.1-2.2,0.3c-0.8,0-0.9,0.8-1.7,0.9c-0.4,0.7-0.5,1.4-1,1.9c-0.9,3.9,0,7.3-0.4,10.7
			c-0.6,0.2-1.5,0.1-2.1,0c0-1.9-0.2-4.2,0-6.8c0-0.5-0.3-1.5-0.2-2.2c0-1.9,0.4-4.1,0.1-5.5c-0.1-1.2,0.2-2.8-0.3-3.7
			c0.7-1.3,0.3-3.4,0.2-4.4C819.3,66,820.6,65.9,821,66.3L821,66.3z"/>
		<path class="st1" d="M842.4,72.8c0,0,0-0.1,0.2-0.2c1.1,0.1,1.6,0.7,2.8,0.5c1.6,0.7,2.4,2.4,3.2,3.4c0.4,0.7,0.2,2,0.9,2.8
			c-0.3,0.6,0,1.2,0.2,1.8c-0.2,0.4,0,0.8,0,1.2c0,1-0.7,1.7-0.7,2.8c-0.5,0.6-1,1.3-1.3,2.1c-0.8,0.5-1.5,1.4-2.5,1.7
			c-1.4,0.4-3.1,0.7-4.6,0.1c-0.9-0.4-1.7-0.9-2.6-1.4c-0.2-0.6-0.5-1-0.9-1.3c-0.1-0.9-0.7-1.3-0.8-2.1c-0.3-0.7-0.2-1.4-0.4-2.1
			c-0.2-1.5,0.4-3,0.3-4.5c0.6-0.6,1-1.2,1.3-2.1c0.5-0.4,0.9-0.8,1.2-1.5C839.6,73.6,841,73.1,842.4,72.8L842.4,72.8z M840.8,75.4
			c-0.5,0.5-1.2,0.9-1.7,1.5c-0.9,1.8-0.9,3.8-0.8,6.4c0.4,1.4,1.1,2.4,2.1,3.4c0.9,0.2,2,0.8,3.5,0.7c0.6-0.5,1.2-0.7,1.8-1.1
			c0.2-0.3,0.4-0.7,0.5-0.8c0.1-0.1,0.2-0.2,0.3-0.2c0.1-0.2,0-0.5,0.1-0.9c0.1-0.2,0.3-0.4,0.4-0.5c0.2-0.8,0-1.6,0.4-2.5
			c-0.2-0.8-0.1-1.8-0.3-2.7c-0.4-0.8-0.7-1.5-1-2.3c-0.9-0.4-1.5-1-2.5-1.3c-0.4,0.2-1.2-0.1-1.5,0.1
			C841.6,75,841.4,75.4,840.8,75.4L840.8,75.4z"/>
		<path class="st1" d="M856.8,66.4c-0.1,7.3-0.5,14.3,0.4,23.2c-0.8-0.3-2-0.2-2.3-0.7c-0.4-0.3-0.2-1-0.4-1.7
			c-0.1-0.7,0.1-0.9,0-1.7c-0.4-3.7,0.6-8.1,0.2-11.7c-0.4-2.8-0.5-4.9,0.2-7.6C855.1,66.1,856.3,66.2,856.8,66.4L856.8,66.4z"/>
	</g>
</g>
</svg>
