<?xml version="1.0" encoding="utf-8"?>
<!-- Generator: Adobe Illustrator 19.2.0, SVG Export Plug-In . SVG Version: 6.00 Build 0)  -->
<svg version="1.1" id="Capa_1" xmlns="http://www.w3.org/2000/svg" xmlns:xlink="http://www.w3.org/1999/xlink" x="0px" y="0px"
	 viewBox="0 0 570.2 186" style="enable-background:new 0 0 570.2 186;" xml:space="preserve">
<style type="text/css">
	.st0{fill:none;stroke:#D18B2B;stroke-width:3.3891;stroke-miterlimit:10;}
	.st1{fill:#FFFFFF;}
</style>
<g>
	<g>
		<polyline class="st0" points="58.1,58.3 23.6,58.3 23.6,176.6 57.6,176.6 		"/>
		<polyline class="st0" points="512,58.3 546.6,58.3 546.6,176.6 512.6,176.6 		"/>
	</g>
	<g>
		<path class="st1" d="M71.8,77.8c0-0.7,0.5-1.2,1.2-1.2h13.6c5.6,0,10.1,4.5,10.1,11.2c0,6.7-4.5,11.1-10.1,11.1h-6.8v9
			c0,0.7-0.5,1.2-1.2,1.2H73c-0.7,0-1.2-0.5-1.2-1.2V77.8z M88.7,87.9c0-2.2-1.1-3.2-2.5-3.2h-6.4v6.5h6.4
			C87.6,91.2,88.7,90.1,88.7,87.9z"/>
		<path class="st1" d="M114.2,98.8h-4.9v9.1c0,0.7-0.5,1.2-1.2,1.2h-5.6c-0.7,0-1.2-0.5-1.2-1.2v-30c0-0.7,0.5-1.2,1.2-1.2h14.2
			c5.6,0,10,4.4,10,10.7c0,4.2-1.9,7.6-5.1,9.4l5.4,10.9c0,0.9-0.6,1.5-1.4,1.5h-5.4c-1,0-1.6-0.6-1.8-1.3L114.2,98.8z M118.6,87.8
			c0-2.3-1-3.1-2.3-3.1h-7v6.5h7C117.6,91.2,118.6,89.7,118.6,87.8z"/>
		<path class="st1" d="M140.8,107.8c0,0.7-0.5,1.2-1.2,1.2H134c-0.7,0-1.2-0.5-1.2-1.2v-30c0-0.7,0.5-1.2,1.2-1.2h5.6
			c0.7,0,1.2,0.5,1.2,1.2V107.8z"/>
		<path class="st1" d="M148.2,77.4c0-0.7,0.6-1.1,1.5-1.1l18.8,12.1v-10c0-1,0.7-1.7,1.7-1.7h4.6c1,0,1.7,0.7,1.7,1.7v29.5
			c0,0.7-0.5,1.2-1.2,1.2h-5.6c-0.7,0-1.2-0.5-1.2-1.2V98l-12.3-8v17.9c0,0.7-0.5,1.2-1.2,1.2h-5.6c-0.7,0-1.2-0.5-1.2-1.2V77.4z"/>
		<path class="st1" d="M198.7,109.3c-9.2,0-16.3-7.4-16.3-16.5s7.3-16.5,16.5-16.5c4.6,0,9,1.7,12.1,4.7c0.1,0.3,0.3,0.6,0.3,0.9
			c0,0.3-0.2,0.7-0.3,0.9l-3.5,3.1c-0.2,0.2-0.5,0.3-0.8,0.3c-0.4,0-0.6-0.1-1.1-0.3c-1.7-1.5-4.3-2.1-6.7-2.1
			c-4.9,0-8.5,4.2-8.5,9.2s3.9,9.4,8.6,9.4c3.1,0,4.2,0,7.4-2.3c0.3-0.3,0.7-0.5,1-0.5c0.3,0,0.6,0.1,0.8,0.3l2.7,3
			c0.2,0.2,0.4,0.5,0.4,0.9c0,0.3-0.2,0.7-0.3,0.9C207.9,108.3,203.8,109.3,198.7,109.3z"/>
		<path class="st1" d="M224.7,107.8c0,0.7-0.5,1.2-1.2,1.2H218c-0.7,0-1.2-0.5-1.2-1.2v-30c0-0.7,0.5-1.2,1.2-1.2h5.6
			c0.7,0,1.2,0.5,1.2,1.2V107.8z"/>
		<path class="st1" d="M232.2,77.8c0-0.7,0.5-1.2,1.2-1.2H247c5.6,0,10.1,4.5,10.1,11.2c0,6.7-4.5,11.1-10.1,11.1h-6.8v9
			c0,0.7-0.5,1.2-1.2,1.2h-5.6c-0.7,0-1.2-0.5-1.2-1.2V77.8z M249.1,87.9c0-2.2-1.1-3.2-2.5-3.2h-6.4v6.5h6.4
			C248,91.2,249.1,90.1,249.1,87.9z"/>
		<path class="st1" d="M267.2,103.2l-2.3,4.9c-0.3,0.5-0.7,1-1.4,1h-6.1c-0.7,0-1.2-0.6-1.2-1.3L271,77.3c0.4-0.5,1-0.9,1.7-0.9
			s1.3,0.4,1.7,0.9l14.7,30.4c0,0.7-0.5,1.3-1.2,1.3h-6.1c-0.7,0-1.1-0.5-1.4-1l-2.3-4.9H267.2z M275,96.5l-2.4-5l-2.5,5H275z"/>
		<path class="st1" d="M293.5,77.8c0-0.7,0.5-1.2,1.2-1.2h5.6c0.7,0,1.2,0.5,1.2,1.2v23.7h13.9c0.7,0,1.2,0.5,1.2,1.2v5.1
			c0,0.7-0.5,1.2-1.2,1.2h-20.7c-0.7,0-1.2-0.5-1.2-1.2V77.8z"/>
		<path class="st1" d="M335.1,109c-0.7,0-1.2-0.5-1.2-1.2v-30c0-0.7,0.5-1.2,1.2-1.2H346c9.1,0,15.6,7.2,15.6,16.3
			S355.1,109,346,109H335.1z M353.6,93.1c0-4.9-3.5-8.8-8.4-8.8h-3.3v17.2h3.3C350,101.5,353.6,98,353.6,93.1z"/>
		<path class="st1" d="M379.6,98.8h-4.9v9.1c0,0.7-0.5,1.2-1.2,1.2h-5.6c-0.7,0-1.2-0.5-1.2-1.2v-30c0-0.7,0.5-1.2,1.2-1.2h14.2
			c5.6,0,10,4.4,10,10.7c0,4.2-1.9,7.6-5.1,9.4l5.4,10.9c0,0.9-0.6,1.5-1.4,1.5h-5.4c-1,0-1.6-0.6-1.8-1.3L379.6,98.8z M384,87.8
			c0-2.3-1-3.1-2.3-3.1h-7v6.5h7C382.9,91.2,384,89.7,384,87.8z"/>
		<path class="st1" d="M396.7,92.8c0-9.1,7.3-16.5,16.4-16.5c9.1,0,16.4,7.4,16.4,16.5s-7.3,16.5-16.4,16.5
			C404.1,109.3,396.7,101.9,396.7,92.8z M421.6,92.9c0-5-3.5-9.2-8.5-9.2c-4.8,0-8.4,4.2-8.4,9.2s3.5,9.4,8.4,9.4
			C418.1,102.4,421.6,97.9,421.6,92.9z"/>
		<path class="st1" d="M464.2,107.8c0,0.7-0.5,1.2-1.2,1.2h-1.8c-1,0-1.1-0.2-1.4-0.6l-0.8-1.5c-2.4,1.8-5.1,2.4-8.5,2.4
			c-9.2,0-16.3-7.4-16.3-16.5s7.3-16.5,16.5-16.5c4.6,0,9,1.7,12.1,4.7c0.1,0.3,0.3,0.6,0.3,0.9c0,0.3-0.2,0.7-0.3,0.9l-3.5,3.1
			c-0.2,0.2-0.5,0.3-0.8,0.3c-0.4,0-0.6-0.1-1.1-0.3c-1.7-1.5-4.3-2.1-6.7-2.1c-4.9,0-8.5,4.2-8.5,9.2s3.9,9.4,8.6,9.4
			c2.3,0,3.5,0,5.2-0.9v-4.2h-4.9c-0.7,0-1.2-0.5-1.2-1.2v-4.4c0-0.7,0.5-1.2,1.2-1.2H463c0.7,0,1.2,0.5,1.2,1.2V107.8z"/>
		<path class="st1" d="M479.4,103.2l-2.3,4.9c-0.3,0.5-0.7,1-1.4,1h-6.1c-0.7,0-1.2-0.6-1.2-1.3l14.7-30.4c0.4-0.5,1-0.9,1.7-0.9
			s1.3,0.4,1.7,0.9l14.7,30.4c0,0.7-0.5,1.3-1.2,1.3h-6.1c-0.7,0-1.1-0.5-1.4-1l-2.3-4.9H479.4z M487.2,96.5l-2.4-5l-2.5,5H487.2z"
			/>
		<path class="st1" d="M134.2,137.7c-0.2,1.6-2.1,0.8-2.9,0.5c-1.2,0-2.8-0.1-3.5,0.1c-0.9,0.5-1.4,1.3-2.3,1.9
			c-0.2,0.8-0.4,1.6-0.8,2.5c-0.2,2.1,0,4,0.5,5.6c0.3,0.9,1.1,1.7,2,2.3c0.7,0.3,1.4,0.4,1.9,0.7c0.5,0,1-0.1,1.2,0.1
			c1.2-0.1,2.4-0.8,3.4-0.7c0.2,0.6,0.4,1,0.4,1.5c-0.3,1.1-2,1.2-3.2,1.4c-1.1-0.1-1.6-0.1-2.8-0.1c-0.9-0.4-1.8-0.9-2.7-1.3
			c-1.2-1-1.7-1.9-2.4-3.2c-0.2-1.1-0.4-1.9-0.8-2.7c0-1.2,0-2.4,0.1-3.7c0.3-1.4,0.8-2.1,1.2-3.5c0.7-1,2-2.2,3.2-3.1
			c0.6-0.1,1.4-0.1,1.9-0.4c1.2-0.1,2.4,0.1,3.5,0.1C132.8,136.4,134.1,136.3,134.2,137.7L134.2,137.7z"/>
		<path class="st1" d="M145,135.5c0,0,0-0.1,0.2-0.2c1.2,0.1,1.8,0.8,3.1,0.5c1.7,0.8,2.6,2.6,3.5,3.7c0.4,0.8,0.3,2.2,1,3
			c-0.3,0.7,0,1.3,0.2,2c-0.2,0.5,0,0.8,0,1.3c0,1.1-0.7,1.8-0.7,3c-0.5,0.7-1.1,1.4-1.5,2.3c-0.8,0.6-1.6,1.5-2.7,1.9
			c-1.6,0.4-3.4,0.7-5,0.1c-0.9-0.4-1.8-1-2.8-1.6c-0.2-0.7-0.5-1.1-1-1.5c-0.1-1-0.7-1.4-0.9-2.3c-0.3-0.8-0.2-1.6-0.5-2.3
			c-0.2-1.6,0.5-3.2,0.4-4.9c0.7-0.7,1.1-1.3,1.4-2.3c0.5-0.5,1-0.9,1.3-1.6C141.9,136.5,143.5,135.8,145,135.5L145,135.5z
			 M143.2,138.4c-0.6,0.5-1.3,1-1.9,1.7c-1,1.9-1,4.2-0.8,7c0.5,1.6,1.2,2.7,2.3,3.7c0.9,0.2,2.2,0.9,3.8,0.7c0.7-0.5,1.3-0.8,2-1.2
			c0.2-0.3,0.4-0.7,0.6-0.9c0.1-0.1,0.3-0.2,0.3-0.3c0.1-0.2,0-0.6,0.1-0.9c0.1-0.2,0.4-0.4,0.5-0.6c0.2-0.8,0-1.8,0.4-2.7
			c-0.2-0.8-0.1-2-0.4-3c-0.5-0.9-0.8-1.6-1.1-2.5c-1-0.5-1.6-1.1-2.7-1.4c-0.5,0.2-1.3-0.1-1.6,0.1
			C144.1,138,143.9,138.4,143.2,138.4L143.2,138.4z"/>
		<path class="st1" d="M172,153.1c-0.5,0.3-1.4,0.1-2.1,0.2c-0.5-1.4-0.2-2.9,0-4.7c0-1.8-0.4-3.3-0.3-5.2c0-1.3-0.2-2.5-0.5-3.4
			c0-0.2-0.1-0.3-0.1-0.4c-0.7-1.1-1.9-1.2-2.8-1.9c-2.2,0.2-3.5,0.9-4.7,2.3c-0.1,0.9-0.7,1.5-0.8,2.6c0.1,1.3,0.3,3-0.1,3.8
			c0.1,0.5,0.2,0.8,0.3,1.3c-0.2,1.6-0.3,3.5-0.4,5.1c-0.3,0.3-1.2,0.7-1.9,0.4c-0.5-0.8-0.7-2.3-0.3-3.4c-0.1-0.7-0.1-1.2-0.3-1.8
			c0-0.9,0.2-2.5,0.2-3.9c0.1-0.2,0-0.4,0-0.4c0.1-2.4-0.1-4.1,0.3-6.6c-0.1-0.4-0.2-1,0.2-1.3c1.7-0.5,1.3,1.2,2.3,1.6
			c0.9-0.4,1.4-1.1,2.2-1.6c0.8,0,1.5-0.2,2.1-0.5c0.6,0.3,1.1-0.1,1.6,0c1.8,0.2,3.2,0.9,4.2,2.3c0,0.5,0.2,1.1,0.6,1.5
			c-0.2,0.7,0.3,1.2,0.3,1.9c0,0.4-0.1,0.7-0.1,1.1c0,0.8,0.4,2.5,0.3,3.8c0,1-0.3,2.4,0.2,3.8C171.9,151.2,172.7,152,172,153.1
			L172,153.1z"/>
		<path class="st1" d="M183.6,138c-1.4,0-2.6,0.4-3.2,0.9c0,0.7-0.4,1-0.3,1.7c0.4,1,1,1.6,2,2.1c0.8,0.3,1.6,0.9,2.7,1.2
			c0.5,0.5,1.2,1,2.1,1.2c0.2,0.7,0.6,0.9,1,1.4c0.3,0.5,0.4,0.9,0.7,1.5c0.4,1.7-0.2,2.7-0.7,3.6c-0.5,0.5-0.7,1-1.4,1.3
			c-0.8,0.4-2.2,0.4-3.1,0.8c-2.2,0.1-4.9-0.1-5.8-1.9c0-0.7,0.5-0.7,0.8-1.2c1.6,0.2,4,1.4,6.2,0.8c0.7-0.5,1.5-1.2,1.6-2.3
			c0-1.6-1.6-2.3-2.5-3c-0.9-0.4-1.6-0.8-2.6-0.9c-1-0.6-1.9-1.2-2.8-2c-0.4-0.8-0.7-1.5-0.8-2.2c0-1.1,0.3-1.6,0.3-2.8
			c0.5-0.6,0.8-1.1,1.3-1.7c0.7-0.2,1.3-0.4,2-0.7c1.6-0.1,2.5-0.1,4.1,0.1c0.4,0.4,1.4,0,1.7,0.8
			C187.2,138.8,184.9,138.2,183.6,138z"/>
		<path class="st1" d="M196.2,136.1c0.1,3.6-0.2,7.2,0.2,11.1c0.1,0.5,0.1,1.6,0.4,2.3c0.7,1.4,2.4,1.8,3.9,2.2c1.4-0.5,2-1.2,3-1.6
			c0.4-1,1.1-2.2,1.2-3.2c-0.1-1,0-1.8,0.4-2.3c0.1-2.3-0.4-5.9-0.1-8.4c0.8-0.5,2-0.5,2.4,0.2c0.3,2.9,0.1,6,0,8.7
			c0,1.2,0.2,1.8,0,2.5c0.1,1.1-0.1,2.6-0.1,3.8c0.1,0.7,0.4,1.3-0.1,1.9c-0.5,0.2-1.2,0.1-1.6-0.2c-0.5-0.4-0.2-1-0.7-1.2
			c-1,0-1,0.7-1.7,1c-0.8,0.1-1.5,0.5-2.2,0.7c-2-0.2-3.9,0-5.1-1c-1.3-0.8-1.6-2.6-2.2-4.4c-0.2-0.6,0.2-0.8,0.1-1.3
			c0-1.7-0.3-2.9,0-4.5c-0.1-0.3-0.2-0.7-0.4-1c0-0.5,0.2-0.8,0.3-1.2c-0.3-0.7-0.2-1.6-0.2-2.4c0.1-0.5,0.1-1.1,0.4-1.4
			c0-0.2,0.2-0.4,0.4-0.5C195.3,135.7,195.9,135.8,196.2,136.1L196.2,136.1z"/>
		<path class="st1" d="M234.2,153.5c-0.5,0.3-1.2-0.1-1.8-0.1c-0.3-0.2,0.1-1.1-0.3-1.2c0-0.7,0.1-0.9,0.1-1.5
			c-0.4-1.2,0.2-2.7-0.3-3.4c0.1-0.6,0.4-0.8,0.4-1.3c-0.4-2-0.2-4.2,0-6c-0.5-1.3-2.4-2.2-4.2-1.7c-0.6,0.2-1.3,0.6-1.7,1.5
			c-0.1,0.5-0.5,2.7-0.5,3.6c0.1,2.4-0.1,4.8-0.3,6.8c0.4,1.2,0.8,3.3-0.9,3.3c-0.7,0-1-0.8-1.2-1.3c-0.1-0.2,0.2-0.7,0.1-1
			c0-0.8,0-1.3,0-2c0-0.4-0.2-0.6-0.2-1c0-0.7,0.2-1.2,0.2-2.4c-0.1-1.4-0.4-2.3-0.1-3.5c-0.4-0.7-0.2-1.7-0.5-2.6
			c-0.1-0.4-0.4-0.4-0.4-0.9c-0.6-0.5-1.4-0.5-2-0.9c-0.7,0.1-1.5,0.6-2.2,0.6c-0.9,1.2-1.2,2.7-1.5,4.4c0.4,2.3,0.6,4.8,0.2,7.3
			c0,0.9,0.1,2.1-0.4,3.2c-0.4,0.1-1.2,0-1.8-0.2c-0.8-1.1-0.1-2.3-0.3-3.7c0.1-0.4-0.1-0.7-0.1-1.2c0.1-2.9-0.1-6.5,0.6-9.7
			c-0.7-0.9-0.6-2.8,0.3-2.8c1.3-0.2,1.1,1,1.7,1.7c0.8-0.1,0.8-0.9,1.5-1.2c0.3-0.5,1-0.5,1.5-0.8c0.9,0,1.5,0.2,2.4,0.2
			c0.8,0.7,1.5,1.3,2.5,1.9c0.7-0.2,0.9-0.8,1.6-1.2c0.8-0.4,1.9-0.8,3-1.1h0.4c0.8,0.5,1.9,0.6,2.6,1.1c0.4,0.1,0.6,0.4,0.7,0.8
			c0.4,0.1,0.4,0.5,0.8,0.8c0.4,1.2,0.2,2.3,0.8,3.3c-0.2,3.2,0.1,6.4,0,9.7C234.6,151.8,234.6,153.1,234.2,153.5L234.2,153.5z"/>
		<path class="st1" d="M244.2,131.1c0.2,1.4-0.4,1.7-1,2.3c-1.6,0.2-2.7-0.4-2.6-2.1c0,0,0.1-0.2,0.2-0.5
			C241.8,129.8,243.4,129.9,244.2,131.1L244.2,131.1z M243,153.5c-0.8,0-1.3-0.2-1.8-0.3c-0.1-3-0.1-5.6-0.4-9
			c0.3-0.7,0.4-1.4,0.6-2.4c-0.2-1.1-0.3-2.1-0.2-3c0-0.8-0.4-1.8,0.3-2.7c0.5,0,0.8-0.5,1.2-0.2c1.5,0.5,0.8,2,1,3.1
			c-0.1,2.7,0,4.8,0.4,8.5c-0.4,0.8-0.1,2.1-0.3,3.1C243.6,151.8,243.7,152.8,243,153.5L243,153.5z"/>
		<path class="st1" d="M263.2,131.8c0,1.1,0.1,2.6,0.2,3.6c0,1.1-0.2,3-0.4,4.4c0.2,1,0.1,2.2,0.2,3.5c-0.1,1.2,0,2.3-0.1,3.5
			c0,0.7,0.1,1.4,0.1,2c0,0.8-0.1,1.3-0.1,2c0,0.9,0.5,1.9-0.5,2.7c-1.2,0.1-1.3-1-1.7-2c-0.9,0-1.2,0.5-1.8,0.8
			c-0.1,0.5-1.1,0.6-1.5,0.9c-1.2,0.2-3,0.2-4.4-0.2c-0.9-0.3-1.5-0.9-2.3-1.3c-0.3-0.4-0.4-0.7-0.8-0.9c-1.1-1.7-1.2-4.5-1.4-7.2
			c0.2-1,0.7-2,0.5-3c0.8-1.6,1.2-3.1,2.6-4.3c0.5-0.1,1.2-0.4,1.7-0.8c0.7,0,1.3,0,1.6-0.3c1.1,0.2,1.8,0.2,3.2,0.4
			c0.8,0.4,1.2,1.4,2.4,0.9c0.9-0.3,0-1.3,0.1-2.1c0.1-1.9,0.4-4.7,0.6-5.7c0.1-0.5,1.1-0.9,1.6-0.5
			C263.7,129.5,263.1,130.6,263.2,131.8z M253.3,138.6c-0.7,0.7-1.5,1.8-1.9,2.9c0.4,1.8-0.4,2.8-0.2,4.4c0.3,1.2,0.5,2.1,0.5,3.1
			c0.5,0.5,0.7,1.2,1.1,1.6c0.7,0.1,1.1,0.6,1.8,0.8c1.5,0.2,3.6-0.5,4.7-1.2c0.7-1.2,1.3-2.5,1.6-4.2c-0.3-1.2,0-2.5-0.4-3.9
			c0-0.9-0.5-1.6-0.8-2.2c-0.9-0.9-1.6-1.3-3-1.6c-0.7-0.2-1.2,0.2-1.9-0.1c0,0-0.1,0-0.1,0.2C254.1,138.1,254,138.6,253.3,138.6
			L253.3,138.6z"/>
		<path class="st1" d="M280.3,153.4c-0.9,0-0.9-1-1.6-1.2c-0.7,0.3-1.5,0.7-2,1.1c-1.4,0.2-3.2,0.5-4.8,0.3c-0.7-0.8-1.8-1.3-2.5-2
			c-0.5-1.1-0.2-2.5-0.7-3.5c0-1,0.2-1.6,0.4-2.6c0.4-0.5,0.7-1.2,1-1.7c0.2,0,0.4-0.1,0.5-0.4c1.5-0.8,2.8-0.7,5.1-1.1
			c1.1,0.7,1.6,1.3,2.7,1.5c1.3-0.5,0.1-1.9,0.4-3.2c-0.1-0.8-0.7-1.4-1.2-2c-0.8-0.1-1.2-0.5-1.9-0.6c-1.7-0.1-3.2,0.7-4.4,0.5
			c-0.5-0.6-0.7-0.9-0.7-1.8c0.5-0.7,1.6-0.6,2.3-1.1c1.5-0.1,2.1,0,3.6,0c0.8,0.5,1.7,0.8,2.7,0.9c1.2,1.8,2.6,3.9,2.2,6.9
			c0,0.5,0.2,0.9,0.2,1.4c0,2-0.2,3.5-0.3,5.3c0.1,1,0.3,1.3,0.3,2.1C281.4,153,280.9,153.1,280.3,153.4L280.3,153.4z M273,145
			c-0.5,0.4-1,0.8-1.5,1.2c0.2,0.3-0.2,0.4-0.3,0.7c-0.1,1.6,0.4,3.3,1.2,3.7c0.8,0.7,2,0.7,3.1,0.5c0.4-0.1,0.7-0.3,1.2-0.3
			c1-0.8,2.2-1.1,2.4-2.8c-0.5-1.1-1.2-1.8-1.8-2.5c-1.1-0.2-1.7-0.6-2.8-0.7c-0.1,0.1-0.2,0.2-0.2,0.2H273z"/>
		<path class="st1" d="M309.4,145.6c-2.9,0.5-6.5-0.1-9.1,0.2c-0.7,0.1-1.7,0-2,0.4c0.5,3.4,2.2,5.8,6,5.5c1.4-0.4,2.4-1.7,3.5-0.7
			c0.5,1.8-1,2.1-2.5,2.6c-1.1-0.4-2,0.1-2.9,0c-1.4,0.1-2.5-0.7-3.6-1.1c-0.5-0.8-1.4-1.3-1.9-1.9c-0.1-0.5-0.2-0.9-0.4-1.3
			c-0.2-0.6-0.5-1.3-0.7-2.4c0-1.9-0.1-4,0.2-6.1c0.4-0.8,0.5-1.5,0.8-2.1c0.3-0.9,1.2-1.2,1.6-2c0.7-0.2,1.3-0.5,2-0.8
			c1.1-0.2,3.1,0.3,4.1-0.2c0.7,0.4,1.5,0.5,2.2,0.8c1,0.7,1.6,1.9,2.5,2.8c-0.2,0.8,0.1,1.2,0.4,1.7c-0.1,0.7,0,1.2,0.3,1.6
			C309.5,143.4,310.2,145.1,309.4,145.6L309.4,145.6z M306.7,140.4c-0.5-0.9-1-1.5-1.6-2c-1.4-0.6-3-0.3-4.5,0
			c-0.8,0-1.1,0.8-1.7,1.2c-0.6,0.9-1.4,3-0.1,4c0.1-0.1,0.3-0.1,0.3,0c0.9-0.1,1.7,0,2.5-0.4c0.8,0.5,1.6,0.2,2.5,0
			c0.9,0.5,2.4,0.6,3-0.1C307.5,142,307.1,141.1,306.7,140.4L306.7,140.4z"/>
		<path class="st1" d="M328.9,153.1c-0.5,0.3-1.4,0.1-2.1,0.2c-0.5-1.4-0.2-2.9,0-4.7c0-1.8-0.4-3.3-0.3-5.2c0-1.3-0.2-2.5-0.5-3.4
			c0-0.2-0.1-0.3-0.1-0.4c-0.7-1.1-1.9-1.2-2.8-1.9c-2.2,0.2-3.5,0.9-4.7,2.3c-0.1,0.9-0.7,1.5-0.8,2.6c0.1,1.3,0.3,3-0.1,3.8
			c0.1,0.5,0.2,0.8,0.3,1.3c-0.2,1.6-0.3,3.5-0.4,5.1c-0.3,0.3-1.2,0.7-1.9,0.4c-0.5-0.8-0.7-2.3-0.3-3.4c-0.1-0.7-0.1-1.2-0.3-1.8
			c0-0.9,0.2-2.5,0.2-3.9c0.1-0.2,0-0.4,0-0.4c0.1-2.4-0.1-4.1,0.3-6.6c-0.1-0.4-0.2-1,0.2-1.3c1.7-0.5,1.3,1.2,2.3,1.6
			c0.9-0.4,1.4-1.1,2.2-1.6c0.8,0,1.5-0.2,2.1-0.5c0.6,0.3,1.1-0.1,1.6,0c1.8,0.2,3.2,0.9,4.2,2.3c0,0.5,0.2,1.1,0.6,1.5
			c-0.2,0.7,0.3,1.2,0.3,1.9c0,0.4-0.1,0.7-0.1,1.1c0,0.8,0.4,2.5,0.3,3.8c0,1-0.3,2.4,0.2,3.8C328.8,151.2,329.5,152,328.9,153.1
			L328.9,153.1z"/>
		<path class="st1" d="M356.5,145.6c-2.9,0.5-6.5-0.1-9.1,0.2c-0.7,0.1-1.7,0-2,0.4c0.5,3.4,2.2,5.8,6,5.5c1.4-0.4,2.4-1.7,3.5-0.7
			c0.5,1.8-1,2.1-2.5,2.6c-1.1-0.4-2,0.1-2.9,0c-1.4,0.1-2.5-0.7-3.6-1.1c-0.5-0.8-1.4-1.3-1.9-1.9c-0.1-0.5-0.2-0.9-0.4-1.3
			c-0.2-0.6-0.5-1.3-0.7-2.4c0-1.9-0.1-4,0.2-6.1c0.4-0.8,0.5-1.5,0.8-2.1c0.3-0.9,1.2-1.2,1.6-2c0.7-0.2,1.3-0.5,2-0.8
			c1.1-0.2,3.1,0.3,4.1-0.2c0.7,0.4,1.5,0.5,2.2,0.8c1,0.7,1.6,1.9,2.5,2.8c-0.2,0.8,0.1,1.2,0.4,1.7c-0.1,0.7,0,1.2,0.3,1.6
			C356.6,143.4,357.4,145.1,356.5,145.6L356.5,145.6z M353.8,140.4c-0.5-0.9-1-1.5-1.6-2c-1.4-0.6-3-0.3-4.5,0
			c-0.8,0-1.1,0.8-1.7,1.2c-0.6,0.9-1.4,3-0.1,4c0.1-0.1,0.3-0.1,0.3,0c0.9-0.1,1.7,0,2.5-0.4c0.8,0.5,1.6,0.2,2.5,0
			c0.9,0.5,2.4,0.6,3-0.1C354.7,142,354.2,141.1,353.8,140.4L353.8,140.4z"/>
		<path class="st1" d="M364.7,128.6c-0.1,8-0.6,15.6,0.5,25.4c-0.9-0.3-2.1-0.3-2.5-0.8c-0.5-0.3-0.3-1.1-0.4-1.8
			c-0.1-0.7,0.1-1,0-1.8c-0.5-4,0.6-8.8,0.3-12.7c-0.4-3-0.5-5.3,0.2-8.3C362.9,128.2,364.1,128.4,364.7,128.6L364.7,128.6z"/>
		<path class="st1" d="M383.5,152.2c-0.1,0-0.1,0.1-0.3,0.1c-0.7,0.2-0.3,1.1-0.3,1.8c-0.2,0.9-0.1,2.6,0,3.5c-0.2,1,0,2.5-0.4,3.4
			c-0.6,0.1-1.3,0.2-1.9,0c-0.7-0.8-0.2-1.5-0.1-2.4c0.3-2.4-0.1-5.2-0.3-7.4c0-0.5,0.2-0.9,0.2-1.2c0-0.4-0.2-0.7-0.2-1.1
			c0-0.3,0.2-0.6,0.2-0.9c0-0.9-0.1-2,0-2.9V144c0-2.3-0.4-4.3-0.2-6.6c-0.1-0.7,0-1.3,0.7-1.6c0.5,0,1.1,0,1.2,0.3
			c0.3,0.3,0.3,0.8,0.8,0.9c1.2-0.2,2-0.6,2.9-1.2c0.5,0.2,0.9-0.1,1.3-0.2h1.2c1.1,0,2,0.4,2.8,0.8c0.8,0.4,1.2,1.1,1.9,1.4
			c0.8,1.6,1.1,2.8,1.6,4.5c0,2,0.3,3.8,0.1,5.9c-0.5,0.7-0.7,1.3-0.9,2.2c-0.4,0.8-1.1,1.4-1.8,2.3c-0.8,0.3-1.7,0.8-3,0.9
			c-1.4,0-2,0.2-3.4,0.1C384.9,153.3,384.8,152.1,383.5,152.2L383.5,152.2z M385.5,138.5c-0.5,0.5-1.1,1.1-1.6,1.5
			c-1.1,1.4-0.8,3.3-1,5.3c0.1,0.8,0.3,1.7,0.3,2.7c0.7,1.1,1,2.4,1.9,2.6c1.2,0.3,2.7,0.8,4,0.8c0.7-0.3,1.1-0.8,1.6-1
			c0.7-1,1.1-2,1.6-3.1c0.3-2.2,0.2-4.8-0.6-6.8c-0.3-1-0.9-1.8-2-2.3c-0.7-0.2-2-0.5-2.6-0.2C386.4,138.1,386,138.3,385.5,138.5
			L385.5,138.5z"/>
		<path class="st1" d="M410.4,153.4c-0.9,0-0.9-1-1.6-1.2c-0.7,0.3-1.5,0.7-2,1.1c-1.4,0.2-3.2,0.5-4.8,0.3c-0.7-0.8-1.8-1.3-2.5-2
			c-0.5-1.1-0.2-2.5-0.7-3.5c0-1,0.2-1.6,0.4-2.6c0.4-0.5,0.7-1.2,1-1.7c0.2,0,0.4-0.1,0.5-0.4c1.5-0.8,2.8-0.7,5.1-1.1
			c1.1,0.7,1.6,1.3,2.7,1.5c1.3-0.5,0.1-1.9,0.4-3.2c-0.1-0.8-0.7-1.4-1.2-2c-0.8-0.1-1.2-0.5-1.9-0.6c-1.7-0.1-3.2,0.7-4.4,0.5
			c-0.5-0.6-0.7-0.9-0.7-1.8c0.5-0.7,1.6-0.6,2.3-1.1c1.5-0.1,2.1,0,3.6,0c0.8,0.5,1.7,0.8,2.7,0.9c1.2,1.8,2.6,3.9,2.2,6.9
			c0,0.5,0.2,0.9,0.2,1.4c0,2-0.2,3.5-0.3,5.3c0.1,1,0.3,1.3,0.3,2.1C411.5,153,411,153.1,410.4,153.4L410.4,153.4z M403.1,145
			c-0.5,0.4-1,0.8-1.5,1.2c0.2,0.3-0.2,0.4-0.3,0.7c-0.1,1.6,0.4,3.3,1.2,3.7c0.8,0.7,2,0.7,3.1,0.5c0.4-0.1,0.7-0.3,1.2-0.3
			c1-0.8,2.2-1.1,2.4-2.8c-0.5-1.1-1.2-1.8-1.8-2.5c-1.1-0.2-1.7-0.6-2.8-0.7c-0.1,0.1-0.2,0.2-0.2,0.2H403.1z"/>
		<path class="st1" d="M420.3,153.5c-0.8,0.1-1.3-0.1-1.8-0.3c0-3.1-0.1-5.6,0.1-9c-0.2-0.7,0-1.4-0.2-2.4c0-1.1-0.2-2-0.1-3
			c0-0.9-0.1-2,0.3-2.7c0.6,0.1,0.9-0.5,1.2-0.2c1.6,0.5,0.9,2,0.9,3.2c0.1,2.8-0.1,4.6-0.1,8.5c0.4,0.8,0.3,2.1,0.3,3
			C420.9,151.7,421.1,152.8,420.3,153.5L420.3,153.5z M423.7,127c-0.2,1.6-1.2,1.8-1.4,2.9c-0.9,0.7-1.1,1.8-2,2.5
			c-0.9,0-1.1-0.4-1.4-0.9c0.6-1.5,1.2-2.9,1.7-4.7C421.6,126.3,422.9,126.7,423.7,127L423.7,127z"/>
		<path class="st1" d="M432.8,138c-1.4,0-2.6,0.4-3.2,0.9c0,0.7-0.4,1-0.3,1.7c0.4,1,1,1.6,2,2.1c0.8,0.3,1.6,0.9,2.7,1.2
			c0.5,0.5,1.2,1,2.1,1.2c0.2,0.7,0.6,0.9,1,1.4c0.3,0.5,0.4,0.9,0.7,1.5c0.4,1.7-0.2,2.7-0.7,3.6c-0.5,0.5-0.7,1-1.4,1.3
			c-0.8,0.4-2.2,0.4-3.1,0.8c-2.2,0.1-4.9-0.1-5.8-1.9c0-0.7,0.5-0.7,0.8-1.2c1.6,0.2,4,1.4,6.2,0.8c0.7-0.5,1.5-1.2,1.6-2.3
			c0-1.6-1.6-2.3-2.5-3c-0.9-0.4-1.6-0.8-2.6-0.9c-1-0.6-1.9-1.2-2.8-2c-0.4-0.8-0.7-1.5-0.8-2.2c0-1.1,0.3-1.6,0.3-2.8
			c0.5-0.6,0.8-1.1,1.3-1.7c0.7-0.2,1.3-0.4,2-0.7c1.6-0.1,2.5-0.1,4.1,0.1c0.4,0.4,1.4,0,1.7,0.8
			C436.4,138.8,434.1,138.2,432.8,138z"/>
		<path class="st1" d="M446.5,151.3c0.1,1.2-0.4,1.6-0.9,2.1c-1.4,0-2.2-0.6-1.9-2.4C444.2,149.9,446.1,150.3,446.5,151.3
			L446.5,151.3z"/>
	</g>
	<g>
		<path class="st1" d="M188.4,13.8c0.4,0.5,0.4,1.7,0,2.3c-2.5,0.2-6.5,0.4-9.1-0.4c-0.8,0.5-1.6,0.5-2,1c-0.7,2.1-0.1,4.9-0.5,8.1
			c0.5,0.9,1.8,0.4,2.9,0.5c0.4,0,0.8,0.2,1.3,0.1c1.7,0.3,3.1-0.5,4.3,0.4c0.3,0.6,0.4,0.8,0.2,1.6c-0.9,0.9-2.6,0.5-4.1,0.1
			c-0.5,0.1-1,0.3-1.6,0.3c-0.7,0-1.5-0.1-2.2,0c-0.8,0.2-0.4,1.4-0.8,2.2c0.2,1.2,0.1,3.2,0,4.5c0.1,0.6,0.3,1.2,0.5,1.7
			c1.5,0.3,4,0.2,5.6-0.2c1.9,0.7,4-0.3,5.6,0.4c0.1,0.3,0.1,1.4,0,1.8c-0.8,0.7-1.5,0.3-2.4,0.3c-3.9,0.5-7.8-0.1-11-0.1
			c-0.9-0.8-0.7-1.9-0.6-3s0-2.2,0.1-3.4c0-0.3-0.2-0.8-0.2-1.2c0-4.5,0.5-10.7,0.8-14.2c-0.8-1.2-1-2.4-0.6-2.8
			c1.2-0.4,2.9,0.1,3.8-0.4c3.2,0.1,6.9,0.2,9.6,0L188.4,13.8z"/>
		<path class="st1" d="M197.3,13.8c-0.1,8-0.6,15.6,0.5,25.4c-0.9-0.3-2.1-0.3-2.5-0.8c-0.5-0.3-0.3-1.1-0.4-1.8
			c-0.1-0.7,0.1-1,0-1.8c-0.5-4,0.6-8.8,0.3-12.7c-0.4-3-0.5-5.3,0.2-8.3C195.5,13.5,196.8,13.6,197.3,13.8L197.3,13.8z"/>
		<path class="st1" d="M223.2,38.6c-0.9,0-0.9-1-1.6-1.2c-0.7,0.3-1.5,0.7-2,1.1c-1.4,0.2-3.2,0.5-4.8,0.3c-0.7-0.8-1.8-1.3-2.5-2
			c-0.5-1.1-0.2-2.5-0.7-3.5c0-1,0.2-1.6,0.4-2.6c0.4-0.5,0.7-1.2,1-1.7c0.2,0,0.4-0.1,0.5-0.4c1.5-0.8,2.8-0.7,5.1-1.1
			c1.1,0.7,1.6,1.3,2.7,1.5c1.3-0.5,0.1-1.9,0.4-3.2c-0.1-0.8-0.7-1.4-1.2-2c-0.8-0.1-1.2-0.5-1.9-0.6c-1.7-0.1-3.2,0.7-4.4,0.5
			c-0.5-0.6-0.7-0.9-0.7-1.8c0.5-0.7,1.6-0.6,2.3-1.1c1.5-0.1,2.1,0,3.6,0c0.8,0.5,1.7,0.8,2.7,0.9c1.2,1.8,2.6,3.9,2.2,6.9
			c0,0.5,0.2,0.9,0.2,1.4c0,2-0.2,3.5-0.3,5.3c0.1,1,0.3,1.3,0.3,2.1C224.3,38.2,223.8,38.3,223.2,38.6L223.2,38.6z M215.9,30.3
			c-0.5,0.4-1,0.8-1.5,1.2c0.2,0.3-0.2,0.4-0.3,0.7c-0.1,1.6,0.4,3.3,1.2,3.7c0.8,0.7,2,0.7,3.1,0.5c0.4-0.1,0.7-0.3,1.2-0.3
			c1-0.8,2.2-1.1,2.4-2.8c-0.5-1.1-1.2-1.8-1.8-2.5c-1.1-0.2-1.7-0.6-2.8-0.7c-0.1,0.1-0.2,0.2-0.2,0.2H215.9z"/>
		<path class="st1" d="M233.5,13.8c-0.1,8-0.6,15.6,0.5,25.4c-0.9-0.3-2.1-0.3-2.5-0.8c-0.5-0.3-0.3-1.1-0.4-1.8
			c-0.1-0.7,0.1-1,0-1.8c-0.5-4,0.6-8.8,0.3-12.7c-0.4-3-0.5-5.3,0.2-8.3C231.8,13.5,233,13.6,233.5,13.8L233.5,13.8z"/>
		<path class="st1" d="M251.3,23c-0.2,1.6-2.1,0.8-2.9,0.5c-1.2,0-2.8-0.1-3.5,0.1c-0.9,0.5-1.4,1.3-2.3,1.9
			c-0.2,0.8-0.4,1.6-0.8,2.5c-0.2,2.1,0,4,0.5,5.6c0.3,0.9,1.1,1.7,2,2.3c0.7,0.3,1.4,0.4,1.9,0.7c0.5,0,1-0.1,1.2,0.1
			c1.2-0.1,2.4-0.8,3.4-0.7c0.2,0.6,0.4,1,0.4,1.5c-0.3,1.1-2,1.2-3.2,1.4c-1.1-0.1-1.6-0.1-2.8-0.1c-0.9-0.4-1.8-0.9-2.7-1.3
			c-1.2-1-1.7-1.9-2.4-3.2c-0.2-1.1-0.4-1.9-0.8-2.7c0-1.2,0-2.4,0.1-3.7c0.3-1.4,0.8-2.1,1.2-3.5c0.7-1,2-2.2,3.2-3.1
			c0.6-0.1,1.4-0.1,1.9-0.4c1.2-0.1,2.4,0.1,3.5,0.1C249.8,21.7,251.1,21.6,251.3,23L251.3,23z"/>
		<path class="st1" d="M262,20.8c0,0,0-0.1,0.2-0.2c1.2,0.1,1.8,0.8,3.1,0.5c1.7,0.8,2.6,2.6,3.5,3.7c0.4,0.8,0.3,2.2,1,3
			c-0.3,0.7,0,1.3,0.2,2c-0.2,0.5,0,0.8,0,1.3c0,1.1-0.7,1.8-0.7,3c-0.5,0.7-1.1,1.4-1.5,2.3c-0.8,0.6-1.6,1.5-2.7,1.9
			c-1.6,0.4-3.4,0.7-5,0.1c-0.9-0.4-1.8-1-2.8-1.6c-0.2-0.7-0.5-1.1-1-1.5c-0.1-1-0.7-1.4-0.9-2.3c-0.3-0.8-0.2-1.6-0.5-2.3
			c-0.2-1.6,0.5-3.2,0.4-4.9c0.7-0.7,1.1-1.3,1.4-2.3c0.5-0.5,1-0.9,1.3-1.6C258.9,21.7,260.5,21.1,262,20.8L262,20.8z M260.2,23.6
			c-0.6,0.5-1.3,1-1.9,1.7c-1,1.9-1,4.2-0.8,7c0.5,1.6,1.2,2.7,2.3,3.7c0.9,0.2,2.2,0.9,3.8,0.7c0.7-0.5,1.3-0.8,2-1.2
			c0.2-0.3,0.4-0.7,0.6-0.9c0.1-0.1,0.3-0.2,0.3-0.3c0.1-0.2,0-0.6,0.1-0.9c0.1-0.2,0.4-0.4,0.5-0.6c0.2-0.8,0-1.8,0.4-2.7
			c-0.2-0.8-0.1-2-0.4-3c-0.5-0.9-0.8-1.6-1.1-2.5c-1-0.5-1.6-1.1-2.7-1.4c-0.5,0.2-1.3-0.1-1.6,0.1
			C261.2,23.3,260.9,23.7,260.2,23.6L260.2,23.6z"/>
		<path class="st1" d="M277.7,13.8c0,1.4-0.3,2.8,0,4.8c0,0.4,0,0.9,0.1,1.2c0.1,0.9-0.2,2.3,0.2,3c1.2-0.1,1.5-1,2.3-1.4
			c0.6,0,0.8-0.2,1.2-0.4c1.6-0.2,2.9,0.2,4.4,0.2c1.1,0.8,1.7,1.6,2.4,2.6c0,0.8,0.3,1.3,0.5,2c0.7,4.8,0.4,9.3,0,12.5
			c-0.8,1-1.6,0.3-2.3-0.1c-0.2-1.7,0-3.3-0.1-4.8c0-0.4,0.2-0.7,0.2-0.8c0-2-0.5-3.8-0.2-5.9c-0.2-0.5-0.2-1.3-0.5-1.9
			c-0.6-0.8-1.6-1.1-2.6-1.5c-0.9,0-1.7,0.1-2.4,0.3c-0.9,0-1,0.9-1.8,1c-0.5,0.8-0.6,1.5-1.1,2.1c-0.9,4.3,0,7.9-0.4,11.7
			c-0.7,0.2-1.6,0.1-2.3,0c0-2.1-0.2-4.6,0-7.4c0-0.6-0.3-1.6-0.2-2.4c0-2.1,0.4-4.5,0.1-6c-0.1-1.3,0.2-3-0.3-4
			c0.8-1.4,0.3-3.7,0.2-4.8C275.9,13.4,277.3,13.3,277.7,13.8L277.7,13.8z"/>
		<path class="st1" d="M301.1,20.8c0,0,0-0.1,0.2-0.2c1.2,0.1,1.8,0.8,3.1,0.5c1.7,0.8,2.6,2.6,3.5,3.7c0.4,0.8,0.3,2.2,1,3
			c-0.3,0.7,0,1.3,0.2,2c-0.2,0.5,0,0.8,0,1.3c0,1.1-0.7,1.8-0.7,3c-0.5,0.7-1.1,1.4-1.5,2.3c-0.8,0.6-1.6,1.5-2.7,1.9
			c-1.6,0.4-3.4,0.7-5,0.1c-0.9-0.4-1.8-1-2.8-1.6c-0.2-0.7-0.5-1.1-1-1.5c-0.1-1-0.7-1.4-0.9-2.3c-0.3-0.8-0.2-1.6-0.5-2.3
			c-0.2-1.6,0.5-3.2,0.4-4.9c0.7-0.7,1.1-1.3,1.4-2.3c0.5-0.5,1-0.9,1.3-1.6C298,21.7,299.6,21.1,301.1,20.8L301.1,20.8z
			 M299.3,23.6c-0.6,0.5-1.3,1-1.9,1.7c-1,1.9-1,4.2-0.8,7c0.5,1.6,1.2,2.7,2.3,3.7c0.9,0.2,2.2,0.9,3.8,0.7c0.7-0.5,1.3-0.8,2-1.2
			c0.2-0.3,0.4-0.7,0.6-0.9c0.1-0.1,0.3-0.2,0.3-0.3c0.1-0.2,0-0.6,0.1-0.9c0.1-0.2,0.4-0.4,0.5-0.6c0.2-0.8,0-1.8,0.4-2.7
			c-0.2-0.8-0.1-2-0.4-3c-0.5-0.9-0.8-1.6-1.1-2.5c-1-0.5-1.6-1.1-2.7-1.4c-0.5,0.2-1.3-0.1-1.6,0.1C300.2,23.3,300,23.7,299.3,23.6
			L299.3,23.6z"/>
		<path class="st1" d="M316.8,13.8c-0.1,8-0.6,15.6,0.5,25.4c-0.9-0.3-2.1-0.3-2.5-0.8c-0.5-0.3-0.3-1.1-0.4-1.8
			c-0.1-0.7,0.1-1,0-1.8c-0.5-4,0.6-8.8,0.3-12.7c-0.4-3-0.5-5.3,0.2-8.3C315,13.5,316.2,13.6,316.8,13.8L316.8,13.8z"/>
		<path class="st1" d="M345,30.9c-2.9,0.5-6.5-0.1-9.1,0.2c-0.7,0.1-1.7,0-2,0.4c0.5,3.4,2.2,5.8,6,5.5c1.4-0.4,2.4-1.7,3.5-0.7
			c0.5,1.8-1,2.1-2.5,2.6c-1.1-0.4-2,0.1-2.9,0c-1.4,0.1-2.5-0.7-3.6-1.1c-0.5-0.8-1.4-1.3-1.9-1.9c-0.1-0.5-0.2-0.9-0.4-1.3
			c-0.2-0.6-0.5-1.3-0.7-2.4c0-1.9-0.1-4,0.2-6.1c0.4-0.8,0.5-1.5,0.8-2.1c0.3-0.9,1.2-1.2,1.6-2c0.7-0.2,1.3-0.5,2-0.8
			c1.1-0.2,3.1,0.3,4.1-0.2c0.7,0.4,1.5,0.5,2.2,0.8c1,0.7,1.6,1.9,2.5,2.8c-0.2,0.8,0.1,1.2,0.4,1.7c-0.1,0.7,0,1.2,0.3,1.6
			C345.1,28.6,345.8,30.3,345,30.9L345,30.9z M342.3,25.7c-0.5-0.9-1-1.5-1.6-2c-1.4-0.6-3-0.3-4.5,0c-0.8,0-1.1,0.8-1.7,1.2
			c-0.6,0.9-1.4,3-0.1,4c0.1-0.1,0.3-0.1,0.3,0c0.9-0.1,1.7,0,2.5-0.4c0.8,0.5,1.6,0.2,2.5,0c0.9,0.5,2.4,0.6,3-0.1
			C343.1,27.3,342.7,26.4,342.3,25.7L342.3,25.7z"/>
		<path class="st1" d="M355.8,23.3c-1.4,0-2.6,0.4-3.2,0.9c0,0.7-0.4,1-0.3,1.7c0.4,1,1,1.6,2,2.1c0.8,0.3,1.6,0.9,2.7,1.2
			c0.5,0.5,1.2,1,2.1,1.2c0.2,0.7,0.6,0.9,1,1.4c0.3,0.5,0.4,0.9,0.7,1.5c0.4,1.7-0.2,2.7-0.7,3.6c-0.5,0.5-0.7,1-1.4,1.3
			c-0.8,0.4-2.2,0.4-3.1,0.8c-2.2,0.1-4.9-0.1-5.8-1.9c0-0.7,0.5-0.7,0.8-1.2c1.6,0.2,4,1.4,6.2,0.8c0.7-0.5,1.5-1.2,1.6-2.3
			c0-1.6-1.6-2.3-2.5-3c-0.9-0.4-1.6-0.8-2.6-0.9c-1-0.6-1.9-1.2-2.8-2c-0.4-0.8-0.7-1.5-0.8-2.2c0-1.1,0.3-1.6,0.3-2.8
			c0.5-0.6,0.8-1.1,1.3-1.7c0.7-0.2,1.3-0.4,2-0.7c1.6-0.1,2.5-0.1,4.1,0.1c0.4,0.4,1.4,0,1.7,0.8C359.4,24.1,357,23.4,355.8,23.3z"
			/>
		<path class="st1" d="M377.7,13.8c-0.1,8-0.6,15.6,0.5,25.4c-0.9-0.3-2.1-0.3-2.5-0.8c-0.5-0.3-0.3-1.1-0.4-1.8
			c-0.1-0.7,0.1-1,0-1.8c-0.5-4,0.6-8.8,0.3-12.7c-0.4-3-0.5-5.3,0.2-8.3C375.9,13.5,377.1,13.6,377.7,13.8L377.7,13.8z"/>
		<path class="st1" d="M394.7,38.6c-0.9,0-0.9-1-1.6-1.2c-0.7,0.3-1.5,0.7-2,1.1c-1.4,0.2-3.2,0.5-4.8,0.3c-0.7-0.8-1.8-1.3-2.5-2
			c-0.5-1.1-0.2-2.5-0.7-3.5c0-1,0.2-1.6,0.4-2.6c0.4-0.5,0.7-1.2,1-1.7c0.2,0,0.4-0.1,0.5-0.4c1.5-0.8,2.8-0.7,5.1-1.1
			c1.1,0.7,1.6,1.3,2.7,1.5c1.3-0.5,0.1-1.9,0.4-3.2c-0.1-0.8-0.7-1.4-1.2-2c-0.8-0.1-1.2-0.5-1.9-0.6c-1.7-0.1-3.2,0.7-4.4,0.5
			c-0.5-0.6-0.7-0.9-0.7-1.8c0.5-0.7,1.6-0.6,2.3-1.1c1.5-0.1,2.1,0,3.6,0c0.8,0.5,1.7,0.8,2.7,0.9c1.2,1.8,2.6,3.9,2.2,6.9
			c0,0.5,0.2,0.9,0.2,1.4c0,2-0.2,3.5-0.3,5.3c0.1,1,0.3,1.3,0.3,2.1C395.8,38.2,395.3,38.3,394.7,38.6L394.7,38.6z M387.4,30.3
			c-0.5,0.4-1,0.8-1.5,1.2c0.2,0.3-0.2,0.4-0.3,0.7c-0.1,1.6,0.4,3.3,1.2,3.7c0.8,0.7,2,0.7,3.1,0.5c0.4-0.1,0.7-0.3,1.2-0.3
			c1-0.8,2.2-1.1,2.4-2.8c-0.5-1.1-1.2-1.8-1.8-2.5c-1.1-0.2-1.7-0.6-2.8-0.7c-0.1,0.1-0.2,0.2-0.2,0.2H387.4z"/>
	</g>
</g>
</svg>
