<svg id="e0e7fed3-a09b-4a82-bdd4-de0feb09f976" data-name="Capa 1" xmlns="http://www.w3.org/2000/svg" viewBox="0 0 413.3 327.6"><defs><style>.c6d486f9-c9e4-4bdb-a327-726bd22067fd{fill:#fff;}.b7b223ed-88c5-4bfa-84e0-9c74239d2499{fill:none;stroke:#d18b2b;stroke-miterlimit:10;stroke-width:2.36px;}</style></defs><title>img08</title><path class="c6d486f9-c9e4-4bdb-a327-726bd22067fd" d="M28.8,23.6a1,1,0,0,1,1.1-1.1H35a1.1,1.1,0,0,1,1.1,1.1V45.3H48.9a1.1,1.1,0,0,1,1.1,1.1v4.6a1,1,0,0,1-1.1,1.1h-19a1,1,0,0,1-1.1-1.1V23.6Z"/><path class="c6d486f9-c9e4-4bdb-a327-726bd22067fd" d="M53,37.3a15,15,0,1,1,15,15.2A15.1,15.1,0,0,1,53,37.3Zm22.8,0.2c0-4.5-3.2-8.4-7.8-8.4s-7.7,3.9-7.7,8.4,3.2,8.6,7.7,8.6S75.8,42,75.8,37.4Z"/><path class="c6d486f9-c9e4-4bdb-a327-726bd22067fd" d="M87.8,48.6a0.9,0.9,0,0,1,.1-0.5l1.8-3.3a1.1,1.1,0,0,1,1-.6h0.6a14.9,14.9,0,0,0,7.2,1.7c1.7,0,4.1-.7,4.1-2,0-3.6-14.5-3.1-14.5-13,0-5.5,3.9-8.9,10.8-8.9a25.6,25.6,0,0,1,8.9,2,1.5,1.5,0,0,1,.6.9,2.3,2.3,0,0,1-.1.6l-1.7,3.9a1.5,1.5,0,0,1-1.1.7l-0.6-.2A30.6,30.6,0,0,0,99,29c-3.4,0-3.7,1.7-3.7,2,0,3.6,14.5,3.8,14.5,13,0,5.4-6.3,8.4-10.7,8.4a20.3,20.3,0,0,1-10.8-2.8A1.5,1.5,0,0,1,87.8,48.6Z"/><path class="c6d486f9-c9e4-4bdb-a327-726bd22067fd" d="M139.1,52.4a14.9,14.9,0,0,1-14.9-15.2,15.1,15.1,0,0,1,15.2-15.2,15.8,15.8,0,0,1,11.1,4.3,2.6,2.6,0,0,1,.3.8,1.2,1.2,0,0,1-.3.8l-3.2,2.8a1.2,1.2,0,0,1-.7.3,1.6,1.6,0,0,1-1-.3,9.5,9.5,0,0,0-6.2-1.9c-4.5,0-7.8,3.9-7.8,8.4s3.6,8.6,7.8,8.6,3.9,0,6.7-2.1a1.4,1.4,0,0,1,.9-0.4,1.1,1.1,0,0,1,.7.3l2.5,2.8a1.1,1.1,0,0,1,.4.8,1.6,1.6,0,0,1-.3.8C147.6,51.5,143.8,52.4,139.1,52.4Z"/><path class="c6d486f9-c9e4-4bdb-a327-726bd22067fd" d="M179.5,51.1a1.1,1.1,0,0,1-1.1,1.1h-5.1a1,1,0,0,1-1.1-1.1V41.2H163v9.9a1.1,1.1,0,0,1-1.1,1.1h-5.1a1,1,0,0,1-1.1-1.1V23.6a1,1,0,0,1,1.1-1.1h5.1a1.1,1.1,0,0,1,1.1,1.1V34.3h9.2V23.6a1,1,0,0,1,1.1-1.1h5.1a1.1,1.1,0,0,1,1.1,1.1V51.1Z"/><path class="c6d486f9-c9e4-4bdb-a327-726bd22067fd" d="M193.6,51.1a1.1,1.1,0,0,1-1.1,1.1h-5.1a1,1,0,0,1-1.1-1.1V23.6a1,1,0,0,1,1.1-1.1h5.1a1.1,1.1,0,0,1,1.1,1.1V51.1Z"/><path class="c6d486f9-c9e4-4bdb-a327-726bd22067fd" d="M200.4,23.6a1,1,0,0,1,1.1-1.1h5.1a1.1,1.1,0,0,1,1.1,1.1V45.3h12.7a1.1,1.1,0,0,1,1.1,1.1v4.6a1,1,0,0,1-1.1,1.1h-19a1,1,0,0,1-1.1-1.1V23.6Z"/><path class="c6d486f9-c9e4-4bdb-a327-726bd22067fd" d="M244.4,34a1.1,1.1,0,0,1,1.1,1.1v4.7a1,1,0,0,1-1.1,1.1h-10v4.3h12.7a1.1,1.1,0,0,1,1.1,1.1v4.7a1,1,0,0,1-1.1,1.1h-19a1.1,1.1,0,0,1-1.1-1.1V23.6a1.1,1.1,0,0,1,1.1-1.1h19a1.1,1.1,0,0,1,1.1,1.1v4.9a1,1,0,0,1-1.1,1.1H234.3V34h10Z"/><path class="c6d486f9-c9e4-4bdb-a327-726bd22067fd" d="M254.2,23.2a1.2,1.2,0,0,1,1.4-1l17.2,11.1V24.1a1.5,1.5,0,0,1,1.6-1.6h4.2a1.5,1.5,0,0,1,1.6,1.6v27a1.1,1.1,0,0,1-1.1,1.1h-5.1a1,1,0,0,1-1.1-1.1V42l-11.2-7.4V51.1a1.1,1.1,0,0,1-1.1,1.1h-5.1a1,1,0,0,1-1.1-1.1V23.2Z"/><path class="c6d486f9-c9e4-4bdb-a327-726bd22067fd" d="M285.5,37.3a15,15,0,1,1,15,15.2A15.1,15.1,0,0,1,285.5,37.3Zm22.8,0.2c0-4.5-3.2-8.4-7.8-8.4s-7.7,3.9-7.7,8.4,3.2,8.6,7.7,8.6S308.3,42,308.3,37.4Z"/><path class="c6d486f9-c9e4-4bdb-a327-726bd22067fd" d="M320.3,48.6a0.9,0.9,0,0,1,.1-0.5l1.8-3.3a1.1,1.1,0,0,1,1-.6h0.6a14.9,14.9,0,0,0,7.2,1.7c1.7,0,4.1-.7,4.1-2,0-3.6-14.5-3.1-14.5-13,0-5.5,3.9-8.9,10.8-8.9a25.6,25.6,0,0,1,8.9,2,1.5,1.5,0,0,1,.6.9,2.3,2.3,0,0,1-.1.6l-1.7,3.9a1.5,1.5,0,0,1-1.1.7l-0.6-.2a30.6,30.6,0,0,0-6-1.1c-3.4,0-3.7,1.7-3.7,2,0,3.6,14.5,3.8,14.5,13,0,5.4-6.3,8.4-10.7,8.4a20.3,20.3,0,0,1-10.8-2.8A1.5,1.5,0,0,1,320.3,48.6Z"/><polyline class="b7b223ed-88c5-4bfa-84e0-9c74239d2499" points="42.3 4.9 10.7 4.9 10.7 67.8 41.8 67.8"/><polyline class="b7b223ed-88c5-4bfa-84e0-9c74239d2499" points="332.2 4.9 363.8 4.9 363.8 67.8 332.7 67.8"/><path class="c6d486f9-c9e4-4bdb-a327-726bd22067fd" d="M24.8,93.3c0.2,2.2-.9,4.6.5,6.3a7.3,7.3,0,0,1,2.3-.1,2,2,0,0,1,.3,2.2c-0.8.2-2.1-.4-2.9,0.2a1.2,1.2,0,0,1-.4.6c0.2,1.4-.1,3,0.4,4.3s-0.1,2.2-.4,3.2a21.1,21.1,0,0,1,.3,2.9l1.1,0.8c1.2,0.4,2.7.1,2.3,1.8s-1.6.4-2.5,0.4a8.7,8.7,0,0,0-1.8-.6,9.3,9.3,0,0,1-1.3-1.7,8.3,8.3,0,0,0-.3-2.4c-0.3-2.6.1-5.8-.3-9.2-0.4-.5-1.5-0.5-2.6-0.6a2.2,2.2,0,0,1,.1-2.1c0.9-.1,2.6.1,2.9-0.9a14.2,14.2,0,0,0-.2-1.5c0.1-1.9-.2-3.2.4-4.3a2,2,0,0,1,1.9.4h0Z"/><path class="c6d486f9-c9e4-4bdb-a327-726bd22067fd" d="M36.4,95.3a2,2,0,0,1-.9,2.1c-1.5.2-2.5-.3-2.4-1.9a0.7,0.7,0,0,0,.2-0.4,2,2,0,0,1,3.1.4h0Zm-1.1,20.5a4.9,4.9,0,0,1-1.7-.3c-0.1-2.8-.1-5.1-0.4-8.2a9.1,9.1,0,0,0,.5-2.2,11.3,11.3,0,0,1-.2-2.8c0-.8-0.3-1.7.3-2.4s0.8-.5,1.1-0.2,0.8,1.9.9,2.9a50,50,0,0,0,.3,7.8,12.7,12.7,0,0,0-.2,2.8c0,1.1.1,2-.7,2.6h0.1Z"/><path class="c6d486f9-c9e4-4bdb-a327-726bd22067fd" d="M53.5,108.6c-2.6.4-5.9-.1-8.4,0.2-0.6.1-1.5,0-1.9,0.3,0.4,3.1,2,5.3,5.5,5,1.3-.4,2.2-1.5,3.2-0.7s-0.9,1.9-2.3,2.4-1.9.1-2.7,0-2.3-.7-3.3-1a14.2,14.2,0,0,0-1.8-1.8,8.2,8.2,0,0,0-.3-1.2,10,10,0,0,1-.6-2.2,37.1,37.1,0,0,1,.2-5.6c0.3-.8.4-1.3,0.7-2s1.1-1.1,1.5-1.8l1.8-.7c1-.2,2.8.3,3.8-0.2a9.2,9.2,0,0,0,2,.7,15.3,15.3,0,0,1,2.3,2.6,1.9,1.9,0,0,0,.3,1.5,2,2,0,0,0,.3,1.5c-0.3.8,0.4,2.3-.4,2.9h0ZM51,103.9a6.7,6.7,0,0,0-1.4-1.8,7.1,7.1,0,0,0-4.1,0c-0.7,0-1,.7-1.6,1.1s-1.3,2.7-.1,3.7,0.3-.1.3,0a8.6,8.6,0,0,0,2.3-.4,2.6,2.6,0,0,0,2.3,0,2.6,2.6,0,0,0,2.8-.1,3.2,3.2,0,0,0-.3-2.6H51Z"/><path class="c6d486f9-c9e4-4bdb-a327-726bd22067fd" d="M71.3,115.4a7.1,7.1,0,0,1-1.9.2c-0.4-1.3-.2-2.7,0-4.3s-0.4-3-.2-4.8a9.6,9.6,0,0,0-.4-3.1,2.6,2.6,0,0,0-.1-0.4c-0.7-1-1.7-1.1-2.6-1.7a5.8,5.8,0,0,0-4.3,2.1c-0.1.8-.6,1.4-0.7,2.4a9,9,0,0,1-.1,3.5l0.3,1.2c-0.2,1.4-.3,3.2-0.3,4.6a2,2,0,0,1-1.7.4,4.2,4.2,0,0,1-.3-3.1c-0.1-.6-0.1-1.1-0.2-1.7s0.2-2.3.2-3.6a0.4,0.4,0,0,0,0-.4c0.1-2.2-.1-3.8.2-6a1.1,1.1,0,0,1,.2-1.2c1.5-.4,1.2,1.1,2.1,1.5a14.6,14.6,0,0,0,2-1.5,4.9,4.9,0,0,0,1.9-.4c0.5,0.3,1-.1,1.5,0a5.1,5.1,0,0,1,3.8,2.1,2.2,2.2,0,0,0,.5,1.3c-0.2.6,0.3,1.1,0.2,1.8a9.1,9.1,0,0,1-.1,1,27.2,27.2,0,0,1,.2,3.5,10.3,10.3,0,0,0,.2,3.5c-0.3,1.3.4,2.1-.2,3.1h0Z"/><path class="c6d486f9-c9e4-4bdb-a327-726bd22067fd" d="M88.5,108.6c-2.6.4-5.9-.1-8.4,0.2-0.6.1-1.5,0-1.9,0.3,0.4,3.1,2,5.3,5.5,5,1.3-.4,2.2-1.5,3.2-0.7s-0.9,1.9-2.3,2.4-1.9.1-2.7,0-2.3-.7-3.3-1a14.2,14.2,0,0,0-1.8-1.8,8.3,8.3,0,0,0-.3-1.2,10,10,0,0,1-.6-2.2,37.1,37.1,0,0,1,.2-5.6c0.3-.8.4-1.3,0.7-2s1.1-1.1,1.5-1.8l1.8-.7c1-.2,2.8.3,3.8-0.2a9.2,9.2,0,0,0,2,.7,15.4,15.4,0,0,1,2.3,2.6,1.9,1.9,0,0,0,.3,1.5,2,2,0,0,0,.3,1.5c-0.3.8,0.4,2.3-.4,2.9h0Zm-2.5-4.8a6.7,6.7,0,0,0-1.4-1.8,7.1,7.1,0,0,0-4.1,0c-0.7,0-1,.7-1.6,1.1s-1.3,2.7-.1,3.7,0.3-.1.3,0a8.6,8.6,0,0,0,2.3-.4,2.6,2.6,0,0,0,2.3,0,2.6,2.6,0,0,0,2.8-.1,3.2,3.2,0,0,0-.3-2.6H86.1Z"/><path class="c6d486f9-c9e4-4bdb-a327-726bd22067fd" d="M106.4,115.4a7.1,7.1,0,0,1-1.9.2c-0.4-1.3-.2-2.7,0-4.3s-0.4-3-.2-4.8a9.6,9.6,0,0,0-.4-3.1,2.6,2.6,0,0,0-.1-0.4c-0.7-1-1.7-1.1-2.6-1.7a5.8,5.8,0,0,0-4.3,2.1c-0.1.8-.6,1.4-0.7,2.4a9,9,0,0,1-.1,3.5l0.3,1.2c-0.2,1.4-.3,3.2-0.3,4.6a2,2,0,0,1-1.7.4,4.2,4.2,0,0,1-.3-3.1c-0.1-.6-0.1-1.1-0.2-1.7s0.2-2.3.2-3.6a0.4,0.4,0,0,0,0-.4c0.1-2.2-.1-3.8.2-6a1.1,1.1,0,0,1,.2-1.2c1.5-.4,1.2,1.1,2.1,1.5a14.7,14.7,0,0,0,2-1.5,4.9,4.9,0,0,0,1.9-.4c0.5,0.3,1-.1,1.5,0a5.1,5.1,0,0,1,3.8,2.1,2.2,2.2,0,0,0,.5,1.3c-0.2.6,0.3,1.1,0.2,1.8a9.1,9.1,0,0,1-.1,1,27.2,27.2,0,0,1,.2,3.5,10.2,10.2,0,0,0,.2,3.5c-0.3,1.3.4,2.1-.2,3.1h0Z"/><path class="c6d486f9-c9e4-4bdb-a327-726bd22067fd" d="M122.3,99.9c0.1,3.3-.2,6.6.2,10.1a9.2,9.2,0,0,0,.4,2.1c0.7,1.3,2.2,1.7,3.5,2s1.8-1.1,2.8-1.4a16.6,16.6,0,0,0,1.1-3,2.7,2.7,0,0,1,.3-2.1c0.1-2.1-.3-5.4-0.1-7.7,0.8-.4,1.8-0.4,2.2.2a52.1,52.1,0,0,1,0,8,11.4,11.4,0,0,1,0,2.3,34.6,34.6,0,0,1-.1,3.5c0.1,0.6.4,1.2-.1,1.7a1.7,1.7,0,0,1-1.5-.2c-0.4-.3-0.2-0.9-0.7-1.1s-0.9.6-1.6,0.9a19.1,19.1,0,0,0-2,.7c-1.8-.2-3.5,0-4.7-0.9s-1.4-2.4-2-4,0.2-.7.1-1.2a17.3,17.3,0,0,1,0-4.1,8.5,8.5,0,0,0-.3-0.9,3.9,3.9,0,0,1,.3-1.1,5.7,5.7,0,0,1-.2-2.2,3.1,3.1,0,0,1,.4-1.3,0.6,0.6,0,0,1,.4-0.4,1.9,1.9,0,0,1,1.5.2h0Z"/><path class="c6d486f9-c9e4-4bdb-a327-726bd22067fd" d="M151.7,115.4a7.1,7.1,0,0,1-1.9.2c-0.4-1.3-.2-2.7,0-4.3s-0.4-3-.2-4.8a9.6,9.6,0,0,0-.4-3.1,2.6,2.6,0,0,0-.1-0.4c-0.7-1-1.7-1.1-2.6-1.7a5.8,5.8,0,0,0-4.3,2.1c-0.1.8-.6,1.4-0.7,2.4a9,9,0,0,1-.1,3.5l0.3,1.2c-0.2,1.4-.3,3.2-0.3,4.6a2,2,0,0,1-1.7.4,4.2,4.2,0,0,1-.3-3.1c-0.1-.6-0.1-1.1-0.2-1.7s0.2-2.3.2-3.6a0.4,0.4,0,0,0,0-.4c0.1-2.2-.1-3.8.2-6a1.1,1.1,0,0,1,.2-1.2c1.5-.4,1.2,1.1,2.1,1.5a14.6,14.6,0,0,0,2-1.5,4.9,4.9,0,0,0,1.9-.4c0.5,0.3,1-.1,1.5,0a5.1,5.1,0,0,1,3.8,2.1,2.2,2.2,0,0,0,.5,1.3c-0.2.6,0.3,1.1,0.2,1.8a9.1,9.1,0,0,1-.1,1,27.2,27.2,0,0,1,.2,3.5,10.3,10.3,0,0,0,.2,3.5c-0.3,1.3.4,2.1-.2,3.1h0Z"/><path class="c6d486f9-c9e4-4bdb-a327-726bd22067fd" d="M168.4,114.7h-0.3c-0.7.2-.2,1-0.2,1.6a10.3,10.3,0,0,0,0,3.2c-0.2.9,0,2.3-.4,3.1a3.6,3.6,0,0,1-1.8,0c-0.6-.8-0.2-1.4-0.1-2.2a37.5,37.5,0,0,0-.2-6.8c0-.4.2-0.8,0.2-1.1s-0.2-.7-0.2-1a5.7,5.7,0,0,0,.2-0.8c0-.9-0.1-1.8,0-2.7v-1c0-2.1-.3-3.9-0.2-6.1a1.1,1.1,0,0,1,.7-1.4,1.2,1.2,0,0,1,1.1.2c0.3,0.3.3,0.8,0.7,0.8a5.8,5.8,0,0,0,2.6-1.1,1.6,1.6,0,0,0,1.2-.2H173a8.8,8.8,0,0,1,2.6.7c0.8,0.4,1.1,1,1.8,1.3a36,36,0,0,1,1.5,4.2c0,1.8.2,3.5,0.1,5.4a5.2,5.2,0,0,0-.8,2,12,12,0,0,1-1.7,2.1,9.9,9.9,0,0,1-2.7.8c-1.3,0-1.8.2-3.1,0.1s-1-1.3-2.1-1.2h-0.1Zm1.8-12.6-1.4,1.4c-1,1.3-.8,3-0.9,4.8a21,21,0,0,1,.3,2.5c0.7,1,.9,2.2,1.8,2.4a18.3,18.3,0,0,0,3.7.8,13.1,13.1,0,0,1,1.5-.9,18.9,18.9,0,0,0,1.5-2.9,12.3,12.3,0,0,0-.6-6.2,3.1,3.1,0,0,0-1.9-2.1,4,4,0,0,0-2.4-.2,3.8,3.8,0,0,0-1.5.3h0Z"/><path class="c6d486f9-c9e4-4bdb-a327-726bd22067fd" d="M193.1,115.7c-0.8,0-.8-0.9-1.5-1.1a9.7,9.7,0,0,0-1.8,1,15.6,15.6,0,0,1-4.4.2c-0.7-.8-1.7-1.2-2.3-1.9s-0.2-2.3-.7-3.2a14.4,14.4,0,0,1,.3-2.4c0.3-.4.6-1.1,0.9-1.5a0.5,0.5,0,0,0,.4-0.3c1.4-.7,2.6-0.7,4.6-1a7.2,7.2,0,0,0,2.5,1.4c1.2-.4.1-1.8,0.3-2.9a4.8,4.8,0,0,0-1.1-1.9c-0.7-.1-1.1-0.4-1.8-0.6s-3,.7-4.1.4a2,2,0,0,1-.6-1.6c0.4-.6,1.5-0.5,2.1-1a30.4,30.4,0,0,1,3.3,0,6,6,0,0,0,2.5.9c1.1,1.6,2.4,3.6,2,6.4,0,0.5.2,0.8,0.2,1.3s-0.2,3.2-.3,4.9a13.3,13.3,0,0,1,.3,2,1.8,1.8,0,0,1-1.1,1h0Zm-6.7-7.7-1.4,1.1c0.2,0.3-.2.3-0.3,0.6s0.3,3.1,1.1,3.4a3.3,3.3,0,0,0,2.9.4,3.1,3.1,0,0,1,1.1-.3c0.9-.8,2-1,2.2-2.6a11.8,11.8,0,0,0-1.7-2.3c-1-.2-1.6-0.5-2.5-0.7l-0.2.2h-1.2Z"/><path class="c6d486f9-c9e4-4bdb-a327-726bd22067fd" d="M203.9,93.3c0.2,2.2-.9,4.6.5,6.3a7.3,7.3,0,0,1,2.3-.1,2,2,0,0,1,.3,2.2c-0.8.2-2.1-.4-2.9,0.2a1.2,1.2,0,0,1-.4.6c0.2,1.4-.1,3,0.4,4.3s-0.1,2.2-.4,3.2a21.1,21.1,0,0,1,.3,2.9l1.1,0.8c1.2,0.4,2.7.1,2.3,1.8s-1.6.4-2.5,0.4a8.7,8.7,0,0,0-1.8-.6,9.3,9.3,0,0,1-1.3-1.7,8.3,8.3,0,0,0-.3-2.4c-0.3-2.6.1-5.8-.3-9.2-0.4-.5-1.5-0.5-2.6-0.6a2.2,2.2,0,0,1,.1-2.1c0.9-.1,2.6.1,2.9-0.9a14.2,14.2,0,0,0-.2-1.5c0.1-1.9-.2-3.2.4-4.3a2,2,0,0,1,1.9.4h0Z"/><path class="c6d486f9-c9e4-4bdb-a327-726bd22067fd" d="M219.1,99.4a2.1,2.1,0,0,1,.4,2.1c-0.9.3-2.2,0.4-2.9,0.5s-1.2,2-1.8,3a69.2,69.2,0,0,1-.4,11l-1.6-.3c-0.6-.9-0.1-1.5-0.1-2.5s-0.2-1-.2-1.5,0.1-.8.1-1.1-0.2-3.7-.1-5.9a6.2,6.2,0,0,0-.1-2.8c0.3-.9,0-1.8.8-2.2a1.6,1.6,0,0,1,1.1.4c0.3,0.2.2,0.8,0.7,0.8s1.3-.8,2.2-1.1,1.3,0,1.6-.3h0.3Z"/><path class="c6d486f9-c9e4-4bdb-a327-726bd22067fd" d="M228.7,99.4l0.2-.2c1.1,0.1,1.6.7,2.8,0.5s2.4,2.4,3.2,3.4,0.2,2,.9,2.8a2.6,2.6,0,0,0,.2,1.8,3.1,3.1,0,0,0,0,1.2c0,1-.7,1.7-0.7,2.8a9,9,0,0,0-1.3,2.1,10.8,10.8,0,0,1-2.5,1.7,7.9,7.9,0,0,1-4.6.1c-0.9-.4-1.7-0.9-2.6-1.4a2.3,2.3,0,0,0-.9-1.3c-0.1-.9-0.7-1.3-0.8-2.1s-0.2-1.4-.4-2.1,0.4-3,.3-4.5a4.9,4.9,0,0,0,1.3-2.1,4.1,4.1,0,0,0,1.2-1.5,25.1,25.1,0,0,1,3.8-1.2h0Zm-1.6,2.6a14.5,14.5,0,0,0-1.7,1.5c-0.9,1.8-.9,3.8-0.8,6.4a7.5,7.5,0,0,0,2.1,3.4,9.6,9.6,0,0,0,3.5.7,12.1,12.1,0,0,1,1.8-1.1l0.5-.8,0.3-.2c0.1-.2,0-0.5.1-0.9l0.4-.5a14.4,14.4,0,0,1,.4-2.5c-0.2-.8-0.1-1.8-0.3-2.7a15.3,15.3,0,0,1-1-2.3,16,16,0,0,0-2.5-1.3,13.2,13.2,0,0,0-1.5.1,5.8,5.8,0,0,0-1.4.2h0Zm5.7-10.5c0,1.3-1.2,1.6-1.5,2.7s-0.9,1.8-1.7,2.2a1.3,1.3,0,0,1-1.2-.6c0.6-1.5,1.3-2.8,2-4.4s1.8,0,2.5.1h0Z"/><path class="c6d486f9-c9e4-4bdb-a327-726bd22067fd" d="M253.4,115.4a7.1,7.1,0,0,1-1.9.2c-0.4-1.3-.2-2.7,0-4.3s-0.4-3-.2-4.8a9.6,9.6,0,0,0-.4-3.1,2.6,2.6,0,0,0-.1-0.4c-0.7-1-1.7-1.1-2.6-1.7a5.8,5.8,0,0,0-4.3,2.1c-0.1.8-.6,1.4-0.7,2.4a9,9,0,0,1-.1,3.5l0.3,1.2c-0.2,1.4-.3,3.2-0.3,4.6a2,2,0,0,1-1.7.4,4.2,4.2,0,0,1-.3-3.1c-0.1-.6-0.1-1.1-0.2-1.7s0.2-2.3.2-3.6a0.4,0.4,0,0,0,0-.4c0.1-2.2-.1-3.8.2-6a1.1,1.1,0,0,1,.2-1.2c1.5-.4,1.2,1.1,2.1,1.5a14.7,14.7,0,0,0,2-1.5,4.9,4.9,0,0,0,1.9-.4c0.5,0.3,1-.1,1.5,0a5.1,5.1,0,0,1,3.8,2.1,2.2,2.2,0,0,0,.5,1.3c-0.2.6,0.3,1.1,0.2,1.8a9.1,9.1,0,0,1-.1,1,27.2,27.2,0,0,1,.2,3.5,10.2,10.2,0,0,0,.2,3.5c-0.3,1.3.4,2.1-.2,3.1h0Z"/><path class="c6d486f9-c9e4-4bdb-a327-726bd22067fd" d="M279.2,96c0,1,.1,2.4.2,3.3a37.4,37.4,0,0,1-.3,4,24.9,24.9,0,0,1,.2,3.2c-0.1,1.1,0,2.1-.1,3.2s0.1,1.3.1,1.9-0.1,1.2-.1,1.9,0.5,1.7-.5,2.5-1.2-.9-1.6-1.8a3.5,3.5,0,0,0-1.7.8c-0.1.5-1,.5-1.3,0.9a10.7,10.7,0,0,1-4.1-.2,12.6,12.6,0,0,1-2.1-1.2,3.2,3.2,0,0,0-.8-0.9c-1-1.6-1.1-4.2-1.3-6.6a8.3,8.3,0,0,0,.5-2.8c0.7-1.5,1.1-2.8,2.4-3.9a4.2,4.2,0,0,0,1.5-.8,2.7,2.7,0,0,0,1.5-.2l2.9,0.4c0.7,0.3,1.1,1.3,2.2.9s0-1.2.1-2,0.3-4.3.5-5.3a1.1,1.1,0,0,1,1.5-.5C279.6,93.9,279.1,94.8,279.2,96Zm-9.1,6.2a7.6,7.6,0,0,0-1.7,2.6c0.3,1.6-.4,2.6-0.2,4a11.3,11.3,0,0,1,.5,2.8c0.5,0.4.7,1.1,1,1.5s1,0.6,1.7.7a7.1,7.1,0,0,0,4.3-1.1,12,12,0,0,0,1.5-3.9c-0.3-1.1,0-2.3-.3-3.5a4.5,4.5,0,0,0-.8-2,4.8,4.8,0,0,0-2.8-1.5c-0.6-.2-1.1.2-1.7-0.1s-0.1,0-.1.2-0.7.4-1.3,0.4h0Z"/><path class="c6d486f9-c9e4-4bdb-a327-726bd22067fd" d="M297,108.6c-2.6.4-5.9-.1-8.4,0.2-0.6.1-1.5,0-1.9,0.3,0.4,3.1,2,5.3,5.5,5,1.3-.4,2.2-1.5,3.2-0.7s-0.9,1.9-2.3,2.4-1.9.1-2.7,0-2.3-.7-3.3-1a14.2,14.2,0,0,0-1.8-1.8,8.2,8.2,0,0,0-.3-1.2,10,10,0,0,1-.6-2.2,37.1,37.1,0,0,1,.2-5.6c0.3-.8.4-1.3,0.7-2s1.1-1.1,1.5-1.8l1.8-.7c1-.2,2.8.3,3.8-0.2a9.2,9.2,0,0,0,2,.7,15.3,15.3,0,0,1,2.3,2.6,1.9,1.9,0,0,0,.3,1.5,2,2,0,0,0,.3,1.5c-0.3.8,0.4,2.3-.4,2.9h0Zm-2.5-4.8a6.7,6.7,0,0,0-1.4-1.8,7.1,7.1,0,0,0-4.1,0c-0.7,0-1,.7-1.6,1.1s-1.3,2.7-.1,3.7,0.3-.1.3,0a8.6,8.6,0,0,0,2.3-.4,2.6,2.6,0,0,0,2.3,0,2.6,2.6,0,0,0,2.8-.1,3.2,3.2,0,0,0-.3-2.6h-0.1Z"/><path class="c6d486f9-c9e4-4bdb-a327-726bd22067fd" d="M30.9,135c-0.2,1.5-1.9.8-2.7,0.4a15.4,15.4,0,0,0-3.2.1c-0.8.4-1.3,1.2-2.1,1.7a10.7,10.7,0,0,1-.8,2.3,13.2,13.2,0,0,0,.4,5.2,4.5,4.5,0,0,0,1.8,2.1,11.6,11.6,0,0,1,1.7.7,1.6,1.6,0,0,1,1.1.1c1.1-.1,2.2-0.7,3.1-0.7a6.7,6.7,0,0,1,.4,1.3c-0.2,1-1.9,1.1-3,1.3H25.2l-2.5-1.2a8.3,8.3,0,0,1-2.2-2.9,8.7,8.7,0,0,0-.7-2.4c0-1.1,0-2.2.1-3.4a24.7,24.7,0,0,1,1.1-3.2,15.1,15.1,0,0,1,2.9-2.9,6.1,6.1,0,0,0,1.8-.4,20.1,20.1,0,0,1,3.2.1c0.7,0.6,1.9.5,2,1.7h0Z"/><path class="c6d486f9-c9e4-4bdb-a327-726bd22067fd" d="M40.8,133l0.2-.2c1.1,0.1,1.6.7,2.8,0.5s2.4,2.4,3.2,3.4,0.2,2,.9,2.8a2.6,2.6,0,0,0,.2,1.8,3.1,3.1,0,0,0,0,1.2c0,1-.7,1.7-0.7,2.8a9,9,0,0,0-1.3,2.1,10.8,10.8,0,0,1-2.5,1.7,7.9,7.9,0,0,1-4.6.1c-0.9-.4-1.7-0.9-2.6-1.4a2.3,2.3,0,0,0-.9-1.3c-0.1-.9-0.7-1.3-0.8-2.1s-0.2-1.4-.4-2.1,0.4-3,.3-4.5a4.9,4.9,0,0,0,1.3-2.1,4.1,4.1,0,0,0,1.2-1.5,25.1,25.1,0,0,1,3.8-1.2h0Zm-1.6,2.6a14.6,14.6,0,0,0-1.7,1.5c-0.9,1.8-.9,3.8-0.8,6.4a7.5,7.5,0,0,0,2.1,3.4,9.6,9.6,0,0,0,3.5.7,12.2,12.2,0,0,1,1.8-1.1l0.5-.8,0.3-.2c0.1-.2,0-0.5.1-0.9l0.4-.5a14.2,14.2,0,0,1,.4-2.5c-0.2-.8-0.1-1.8-0.3-2.7a15.3,15.3,0,0,1-1-2.3,16.1,16.1,0,0,0-2.5-1.3,13.2,13.2,0,0,0-1.5.1,5.8,5.8,0,0,0-1.4.2h0Z"/><path class="c6d486f9-c9e4-4bdb-a327-726bd22067fd" d="M65.6,149.1a7.1,7.1,0,0,1-1.9.2c-0.4-1.3-.2-2.7,0-4.3s-0.4-3-.2-4.8a9.6,9.6,0,0,0-.4-3.1,2.6,2.6,0,0,0-.1-0.4c-0.7-1-1.7-1.1-2.6-1.7a5.8,5.8,0,0,0-4.3,2.1c-0.1.8-.6,1.4-0.7,2.4a9,9,0,0,1-.1,3.5l0.3,1.2c-0.2,1.4-.3,3.2-0.3,4.6a2,2,0,0,1-1.7.4,4.2,4.2,0,0,1-.3-3.1c-0.1-.6-0.1-1.1-0.2-1.7s0.2-2.3.2-3.6a0.4,0.4,0,0,0,0-.4c0.1-2.2-.1-3.8.2-6a1.1,1.1,0,0,1,.2-1.2c1.5-.4,1.2,1.1,2.1,1.5a14.5,14.5,0,0,0,2-1.5,4.9,4.9,0,0,0,1.9-.4c0.5,0.3,1-.1,1.5,0a5.1,5.1,0,0,1,3.8,2.1,2.2,2.2,0,0,0,.5,1.3c-0.2.6,0.3,1.1,0.2,1.8a9.1,9.1,0,0,1-.1,1,27.2,27.2,0,0,1,.2,3.5,10.3,10.3,0,0,0,.2,3.5c-0.3,1.3.4,2.1-.2,3.1h0Z"/><path class="c6d486f9-c9e4-4bdb-a327-726bd22067fd" d="M76.2,135.3a4.4,4.4,0,0,0-2.9.9,11.4,11.4,0,0,0-.3,1.5,3.3,3.3,0,0,0,1.8,1.9,15.7,15.7,0,0,0,2.5,1.1,3.8,3.8,0,0,0,2,1.1,3.7,3.7,0,0,0,.9,1.3c0.3,0.5.4,0.9,0.7,1.4a4.1,4.1,0,0,1-.7,3.3,5.2,5.2,0,0,1-1.3,1.2c-0.7.4-2,.4-2.9,0.7s-4.5-.1-5.3-1.8,0.5-.7.7-1.1,3.7,1.3,5.7.8a3.1,3.1,0,0,0,1.5-2.1c0-1.5-1.4-2.1-2.3-2.8a11.6,11.6,0,0,0-2.4-.9,10.2,10.2,0,0,1-2.5-1.9,10.5,10.5,0,0,1-.8-2c0-1,.3-1.5.2-2.6l1.2-1.5,1.8-.7a14.8,14.8,0,0,1,3.8.1c0.3,0.3,1.3,0,1.5.7S77.3,135.4,76.2,135.3Z"/><path class="c6d486f9-c9e4-4bdb-a327-726bd22067fd" d="M87.7,133.5c0.1,3.3-.2,6.6.2,10.1a9.2,9.2,0,0,0,.4,2.1c0.7,1.3,2.2,1.7,3.5,2s1.8-1.1,2.8-1.4a16.6,16.6,0,0,0,1.1-3,2.7,2.7,0,0,1,.3-2.1c0.1-2.1-.3-5.4-0.1-7.7,0.8-.4,1.8-0.4,2.2.2a52.1,52.1,0,0,1,0,8,11.4,11.4,0,0,1,0,2.3,34.6,34.6,0,0,1-.1,3.5c0.1,0.6.4,1.2-.1,1.7a1.7,1.7,0,0,1-1.5-.2c-0.4-.3-0.2-0.9-0.7-1.1s-0.9.6-1.6,0.9a19.1,19.1,0,0,0-2,.7c-1.8-.2-3.5,0-4.7-0.9s-1.4-2.4-2-4,0.2-.7.1-1.2a17.3,17.3,0,0,1,0-4.1,8.5,8.5,0,0,0-.3-0.9,3.9,3.9,0,0,1,.3-1.1,5.7,5.7,0,0,1-.2-2.2,3.1,3.1,0,0,1,.4-1.3,0.6,0.6,0,0,1,.4-0.4,1.9,1.9,0,0,1,1.5.2h0Z"/><path class="c6d486f9-c9e4-4bdb-a327-726bd22067fd" d="M122.5,149.5c-0.5.3-1.1-.1-1.7-0.1s0.1-1-.2-1.1,0.1-.9.1-1.3,0.2-2.5-.3-3.1a3.4,3.4,0,0,0,.3-1.2,19.2,19.2,0,0,1,0-5.5,3.2,3.2,0,0,0-3.8-1.5,2.6,2.6,0,0,0-1.5,1.4,20.8,20.8,0,0,0-.4,3.3,43.2,43.2,0,0,1-.3,6.2c0.3,1.1.7,3-.9,3a1.4,1.4,0,0,1-1.1-1.2,4.4,4.4,0,0,1,.1-0.9,14.5,14.5,0,0,1,0-1.9,7,7,0,0,1-.2-0.9c0-.6.2-1.1,0.2-2.2a7.8,7.8,0,0,1-.1-3.2c-0.4-.6-0.2-1.6-0.5-2.4a1.9,1.9,0,0,1-.4-0.8,11.6,11.6,0,0,0-1.8-.8,16.5,16.5,0,0,1-2,.6,9.5,9.5,0,0,0-1.4,4,20.5,20.5,0,0,1,.2,6.7,6.8,6.8,0,0,1-.3,2.9,4.3,4.3,0,0,1-1.7-.2c-0.7-1-.1-2.1-0.3-3.4a3.3,3.3,0,0,0-.1-1.1c0.1-2.6-.1-6,0.6-8.9-0.7-.9-0.5-2.5.2-2.6s1,0.9,1.5,1.5,0.8-.8,1.3-1.1a4.5,4.5,0,0,1,1.4-.8l2.2,0.2a16.8,16.8,0,0,0,2.3,1.8,6.9,6.9,0,0,0,1.5-1.1l2.8-1h0.3c0.7,0.4,1.7.5,2.4,1a1.1,1.1,0,0,1,.7.8,2.8,2.8,0,0,1,.7.7c0.4,1.1.2,2.1,0.7,3.1-0.2,2.9.1,5.9,0,8.9a4.2,4.2,0,0,1-.4,2.2h0Z"/><path class="c6d486f9-c9e4-4bdb-a327-726bd22067fd" d="M133.8,133l0.2-.2c1.1,0.1,1.6.7,2.8,0.5s2.4,2.4,3.2,3.4,0.2,2,.9,2.8a2.6,2.6,0,0,0,.2,1.8,3.1,3.1,0,0,0,0,1.2c0,1-.7,1.7-0.7,2.8a9,9,0,0,0-1.3,2.1,10.8,10.8,0,0,1-2.5,1.7,7.9,7.9,0,0,1-4.6.1c-0.9-.4-1.7-0.9-2.6-1.4a2.3,2.3,0,0,0-.9-1.3c-0.1-.9-0.7-1.3-0.8-2.1s-0.2-1.4-.4-2.1,0.4-3,.3-4.5a4.9,4.9,0,0,0,1.3-2.1,4.1,4.1,0,0,0,1.2-1.5,25.1,25.1,0,0,1,3.8-1.2h0Zm-1.6,2.6a14.6,14.6,0,0,0-1.7,1.5c-0.9,1.8-.9,3.8-0.8,6.4a7.5,7.5,0,0,0,2.1,3.4,9.6,9.6,0,0,0,3.5.7,12.2,12.2,0,0,1,1.8-1.1l0.5-.8,0.3-.2c0.1-.2,0-0.5.1-0.9l0.4-.5a14.2,14.2,0,0,1,.4-2.5c-0.2-.8-0.1-1.8-0.3-2.7a15.3,15.3,0,0,1-1-2.3,16.1,16.1,0,0,0-2.5-1.3,13.2,13.2,0,0,0-1.5.1,5.8,5.8,0,0,0-1.4.2h0Z"/><path class="c6d486f9-c9e4-4bdb-a327-726bd22067fd" d="M163.3,134.6c0.8-.1.6-1.5,1.7-1.3s0.8,2.4.9,3.3a26.9,26.9,0,0,1,0,3.1c0.2,0.9-.2,1.9-0.2,3.1a7,7,0,0,1,.2.7,7.1,7.1,0,0,0-.1.9c0.2,1.6.1,2.9,0.2,4.4a37.5,37.5,0,0,0-.1,5.3,15.5,15.5,0,0,0-.1,2.1,1.9,1.9,0,0,1-2.2-.2c0.2-1.3-.3-2.7-0.1-4.4a4.8,4.8,0,0,0-.2-3.1c-0.8-.3-1.3.4-1.9,0.8a3.9,3.9,0,0,0-2,.5,5.8,5.8,0,0,0-2.6-.3,1.6,1.6,0,0,0-1.2-.4l-1.9-1.7a11.9,11.9,0,0,0-.9-2.2,4.5,4.5,0,0,0-.3-1.8,31.9,31.9,0,0,1,.4-5.9,5.3,5.3,0,0,0,.4-1.4l1.6-1.9,1.3-.7,2.5-.6h1.8c0.9,0.4,2.1.8,2.6,1.4h0.1Zm-5.6.7a12.7,12.7,0,0,1-1.6.9c-0.3,1.1-.8,1.7-1.1,2.6a20.9,20.9,0,0,1-.1,3.7,11.6,11.6,0,0,0,.9,3.2,7,7,0,0,0,1.3,1.3,7.4,7.4,0,0,0,2.2.5l2.5-.7a2,2,0,0,1,.8-1,15.6,15.6,0,0,0,.9-3.3,20.2,20.2,0,0,0-.3-4.6,5,5,0,0,1-.7-1.5c-1.1-.4-2.1-1.5-3.4-1.2h-1.4Z"/><path class="c6d486f9-c9e4-4bdb-a327-726bd22067fd" d="M174,133.5c0.1,3.3-.2,6.6.2,10.1a9.1,9.1,0,0,0,.4,2.1c0.7,1.3,2.2,1.7,3.5,2s1.8-1.1,2.8-1.4a16.5,16.5,0,0,0,1.1-3,2.7,2.7,0,0,1,.3-2.1c0.1-2.1-.3-5.4-0.1-7.7,0.8-.4,1.8-0.4,2.2.2a52,52,0,0,1,0,8,11.4,11.4,0,0,1,0,2.3,34.6,34.6,0,0,1-.1,3.5c0.1,0.6.4,1.2-.1,1.7a1.7,1.7,0,0,1-1.5-.2c-0.4-.3-0.2-0.9-0.7-1.1s-0.9.6-1.6,0.9a19.1,19.1,0,0,0-2,.7c-1.8-.2-3.5,0-4.7-0.9s-1.4-2.4-2-4,0.2-.7.1-1.2a17.3,17.3,0,0,1,0-4.1,8.5,8.5,0,0,0-.3-0.9,3.9,3.9,0,0,1,.3-1.1,5.7,5.7,0,0,1-.2-2.2,3.1,3.1,0,0,1,.4-1.3,0.6,0.6,0,0,1,.4-0.4,1.9,1.9,0,0,1,1.5.2h0Z"/><path class="c6d486f9-c9e4-4bdb-a327-726bd22067fd" d="M202,142.3c-2.6.4-5.9-.1-8.4,0.2-0.6.1-1.5,0-1.9,0.3,0.4,3.1,2,5.3,5.5,5,1.3-.4,2.2-1.5,3.2-0.7s-0.9,1.9-2.3,2.4-1.9.1-2.7,0-2.3-.7-3.3-1a14.2,14.2,0,0,0-1.8-1.8,8.3,8.3,0,0,0-.3-1.2,10,10,0,0,1-.6-2.2,37.1,37.1,0,0,1,.2-5.6c0.3-.8.4-1.3,0.7-2s1.1-1.1,1.5-1.8l1.8-.7c1-.2,2.8.3,3.8-0.2a9.2,9.2,0,0,0,2,.7,15.4,15.4,0,0,1,2.3,2.6,1.9,1.9,0,0,0,.3,1.5,2,2,0,0,0,.3,1.5c-0.3.8,0.4,2.3-.4,2.9h0Zm-2.5-4.8a6.7,6.7,0,0,0-1.4-1.8,7.1,7.1,0,0,0-4.1,0c-0.7,0-1,.7-1.6,1.1s-1.3,2.7-.1,3.7,0.3-.1.3,0a8.6,8.6,0,0,0,2.3-.4,2.6,2.6,0,0,0,2.3,0,2.6,2.6,0,0,0,2.8-.1,3.2,3.2,0,0,0-.3-2.6h-0.1Z"/><path class="c6d486f9-c9e4-4bdb-a327-726bd22067fd" d="M220,135.3a4.4,4.4,0,0,0-2.9.9,11.3,11.3,0,0,0-.3,1.5,3.3,3.3,0,0,0,1.8,1.9,15.8,15.8,0,0,0,2.5,1.1,3.8,3.8,0,0,0,2,1.1,3.7,3.7,0,0,0,.9,1.3c0.3,0.5.4,0.9,0.7,1.4a4.1,4.1,0,0,1-.7,3.3,5.1,5.1,0,0,1-1.3,1.2c-0.7.4-2,.4-2.9,0.7s-4.5-.1-5.3-1.8,0.5-.7.7-1.1,3.7,1.3,5.7.8a3.1,3.1,0,0,0,1.5-2.1c0-1.5-1.4-2.1-2.3-2.8a11.6,11.6,0,0,0-2.4-.9,10.2,10.2,0,0,1-2.5-1.9,10.4,10.4,0,0,1-.8-2c0-1,.3-1.5.2-2.6l1.2-1.5,1.8-.7a14.8,14.8,0,0,1,3.8.1c0.3,0.3,1.3,0,1.5.7S221.2,135.4,220,135.3Z"/><path class="c6d486f9-c9e4-4bdb-a327-726bd22067fd" d="M241,142.3c-2.6.4-5.9-.1-8.4,0.2-0.6.1-1.5,0-1.9,0.3,0.4,3.1,2,5.3,5.5,5,1.3-.4,2.2-1.5,3.2-0.7s-0.9,1.9-2.3,2.4-1.9.1-2.7,0-2.3-.7-3.3-1a14.2,14.2,0,0,0-1.8-1.8,8.2,8.2,0,0,0-.3-1.2,10,10,0,0,1-.6-2.2,37.1,37.1,0,0,1,.2-5.6c0.3-.8.4-1.3,0.7-2s1.1-1.1,1.5-1.8l1.8-.7c1-.2,2.8.3,3.8-0.2a9.2,9.2,0,0,0,2,.7,15.3,15.3,0,0,1,2.3,2.6,1.9,1.9,0,0,0,.3,1.5,2,2,0,0,0,.3,1.5c-0.3.8,0.4,2.3-.4,2.9h0Zm-2.5-4.8a6.7,6.7,0,0,0-1.4-1.8,7.1,7.1,0,0,0-4.1,0c-0.7,0-1,.7-1.6,1.1s-1.3,2.7-.1,3.7,0.3-.1.3,0a8.6,8.6,0,0,0,2.3-.4,2.6,2.6,0,0,0,2.3,0,2.6,2.6,0,0,0,2.8-.1,3.2,3.2,0,0,0-.3-2.6h-0.1Z"/><path class="c6d486f9-c9e4-4bdb-a327-726bd22067fd" d="M264.1,135c-0.2,1.5-1.9.8-2.7,0.4a15.4,15.4,0,0,0-3.2.1c-0.8.4-1.3,1.2-2.1,1.7a10.7,10.7,0,0,1-.8,2.3,13.2,13.2,0,0,0,.4,5.2,4.5,4.5,0,0,0,1.8,2.1,11.6,11.6,0,0,1,1.7.7,1.6,1.6,0,0,1,1.1.1c1.1-.1,2.2-0.7,3.1-0.7a6.7,6.7,0,0,1,.4,1.3c-0.2,1-1.9,1.1-3,1.3h-2.6l-2.5-1.2a8.3,8.3,0,0,1-2.2-2.9,8.7,8.7,0,0,0-.7-2.4c0-1.1,0-2.2.1-3.4a24.7,24.7,0,0,1,1.1-3.2,15.1,15.1,0,0,1,2.9-2.9,6.1,6.1,0,0,0,1.8-.4,20.1,20.1,0,0,1,3.2.1c0.7,0.6,1.9.5,2,1.7h0Z"/><path class="c6d486f9-c9e4-4bdb-a327-726bd22067fd" d="M274,133l0.2-.2c1.1,0.1,1.6.7,2.8,0.5s2.4,2.4,3.2,3.4,0.2,2,.9,2.8a2.6,2.6,0,0,0,.2,1.8,3.1,3.1,0,0,0,0,1.2c0,1-.7,1.7-0.7,2.8a9,9,0,0,0-1.3,2.1,10.8,10.8,0,0,1-2.5,1.7,7.9,7.9,0,0,1-4.6.1c-0.9-.4-1.7-0.9-2.6-1.4a2.3,2.3,0,0,0-.9-1.3c-0.1-.9-0.7-1.3-0.8-2.1s-0.2-1.4-.4-2.1,0.4-3,.3-4.5a4.9,4.9,0,0,0,1.3-2.1,4.1,4.1,0,0,0,1.2-1.5A25.1,25.1,0,0,1,274,133h0Zm-1.6,2.6a14.5,14.5,0,0,0-1.7,1.5c-0.9,1.8-.9,3.8-0.8,6.4a7.5,7.5,0,0,0,2.1,3.4,9.6,9.6,0,0,0,3.5.7,12.1,12.1,0,0,1,1.8-1.1l0.5-.8,0.3-.2c0.1-.2,0-0.5.1-0.9l0.4-.5a14.4,14.4,0,0,1,.4-2.5c-0.2-.8-0.1-1.8-0.3-2.7a15.3,15.3,0,0,1-1-2.3,16,16,0,0,0-2.5-1.3,13.2,13.2,0,0,0-1.5.1,5.8,5.8,0,0,0-1.4.2h0Z"/><path class="c6d486f9-c9e4-4bdb-a327-726bd22067fd" d="M298.7,149.1a7.1,7.1,0,0,1-1.9.2c-0.4-1.3-.2-2.7,0-4.3s-0.4-3-.2-4.8a9.6,9.6,0,0,0-.4-3.1,2.6,2.6,0,0,0-.1-0.4c-0.7-1-1.7-1.1-2.6-1.7a5.8,5.8,0,0,0-4.3,2.1c-0.1.8-.6,1.4-0.7,2.4a9,9,0,0,1-.1,3.5l0.3,1.2c-0.2,1.4-.3,3.2-0.3,4.6a2,2,0,0,1-1.7.4,4.2,4.2,0,0,1-.3-3.1c-0.1-.6-0.1-1.1-0.2-1.7s0.2-2.3.2-3.6a0.4,0.4,0,0,0,0-.4c0.1-2.2-.1-3.8.2-6a1.1,1.1,0,0,1,.2-1.2c1.5-.4,1.2,1.1,2.1,1.5a14.6,14.6,0,0,0,2-1.5,4.9,4.9,0,0,0,1.9-.4c0.5,0.3,1-.1,1.5,0a5.1,5.1,0,0,1,3.8,2.1,2.2,2.2,0,0,0,.5,1.3c-0.2.6,0.3,1.1,0.2,1.8a9.1,9.1,0,0,1-.1,1,27.2,27.2,0,0,1,.2,3.5,10.2,10.2,0,0,0,.2,3.5c-0.3,1.3.4,2.1-.2,3.1h0Z"/><path class="c6d486f9-c9e4-4bdb-a327-726bd22067fd" d="M314.5,135c-0.2,1.5-1.9.8-2.7,0.4a15.4,15.4,0,0,0-3.2.1c-0.8.4-1.3,1.2-2.1,1.7a10.7,10.7,0,0,1-.8,2.3,13.2,13.2,0,0,0,.4,5.2,4.5,4.5,0,0,0,1.8,2.1,11.6,11.6,0,0,1,1.7.7,1.6,1.6,0,0,1,1.1.1c1.1-.1,2.2-0.7,3.1-0.7a6.7,6.7,0,0,1,.4,1.3c-0.2,1-1.9,1.1-3,1.3h-2.6l-2.5-1.2a8.3,8.3,0,0,1-2.2-2.9,8.7,8.7,0,0,0-.7-2.4c0-1.1,0-2.2.1-3.4a24.7,24.7,0,0,1,1.1-3.2,15.1,15.1,0,0,1,2.9-2.9,6.1,6.1,0,0,0,1.8-.4,20.1,20.1,0,0,1,3.2.1c0.7,0.6,1.9.5,2,1.7h0Z"/><path class="c6d486f9-c9e4-4bdb-a327-726bd22067fd" d="M330.6,142.3c-2.6.4-5.9-.1-8.4,0.2-0.6.1-1.5,0-1.9,0.3,0.4,3.1,2,5.3,5.5,5,1.3-.4,2.2-1.5,3.2-0.7s-0.9,1.9-2.3,2.4-1.9.1-2.7,0-2.3-.7-3.3-1a14.2,14.2,0,0,0-1.8-1.8,8.2,8.2,0,0,0-.3-1.2,10,10,0,0,1-.6-2.2,37.1,37.1,0,0,1,.2-5.6c0.3-.8.4-1.3,0.7-2s1.1-1.1,1.5-1.8l1.8-.7c1-.2,2.8.3,3.8-0.2a9.2,9.2,0,0,0,2,.7,15.3,15.3,0,0,1,2.3,2.6,1.9,1.9,0,0,0,.3,1.5,2,2,0,0,0,.3,1.5c-0.3.8,0.4,2.3-.4,2.9h0Zm-2.5-4.8a6.7,6.7,0,0,0-1.4-1.8,7.1,7.1,0,0,0-4.1,0c-0.7,0-1,.7-1.6,1.1s-1.3,2.7-.1,3.7,0.3-.1.3,0a8.6,8.6,0,0,0,2.3-.4,2.6,2.6,0,0,0,2.3,0,2.6,2.6,0,0,0,2.8-.1,3.2,3.2,0,0,0-.3-2.6h-0.1Z"/><path class="c6d486f9-c9e4-4bdb-a327-726bd22067fd" d="M348.4,149.1a7.1,7.1,0,0,1-1.9.2c-0.4-1.3-.2-2.7,0-4.3s-0.4-3-.2-4.8a9.6,9.6,0,0,0-.4-3.1,2.6,2.6,0,0,0-.1-0.4c-0.7-1-1.7-1.1-2.6-1.7a5.8,5.8,0,0,0-4.3,2.1c-0.1.8-.6,1.4-0.7,2.4a9,9,0,0,1-.1,3.5l0.3,1.2c-0.2,1.4-.3,3.2-0.3,4.6a2,2,0,0,1-1.7.4,4.2,4.2,0,0,1-.3-3.1c-0.1-.6-0.1-1.1-0.2-1.7s0.2-2.3.2-3.6a0.4,0.4,0,0,0,0-.4c0.1-2.2-.1-3.8.2-6a1.1,1.1,0,0,1,.2-1.2c1.5-.4,1.2,1.1,2.1,1.5a14.5,14.5,0,0,0,2-1.5,4.9,4.9,0,0,0,1.9-.4c0.5,0.3,1-.1,1.5,0a5.1,5.1,0,0,1,3.8,2.1,2.2,2.2,0,0,0,.5,1.3c-0.2.6,0.3,1.1,0.2,1.8a9.1,9.1,0,0,1-.1,1,27.2,27.2,0,0,1,.2,3.5,10.3,10.3,0,0,0,.2,3.5c-0.3,1.3.4,2.1-.2,3.1h0Z"/><path class="c6d486f9-c9e4-4bdb-a327-726bd22067fd" d="M358,127c0.2,2.2-.9,4.6.5,6.3a7.3,7.3,0,0,1,2.3-.1,2,2,0,0,1,.3,2.2c-0.8.2-2.1-.4-2.9,0.2a1.2,1.2,0,0,1-.4.6c0.2,1.4-.1,3,0.4,4.3s-0.1,2.2-.4,3.2a20.9,20.9,0,0,1,.3,2.9l1.1,0.8c1.2,0.4,2.7.1,2.3,1.8s-1.6.4-2.5,0.4a8.7,8.7,0,0,0-1.8-.6,9.3,9.3,0,0,1-1.3-1.7,8.3,8.3,0,0,0-.3-2.4c-0.3-2.6.1-5.8-.3-9.2-0.4-.5-1.5-0.5-2.6-0.6a2.2,2.2,0,0,1,.1-2.1c0.9-.1,2.6.1,2.9-0.9a14.2,14.2,0,0,0-.2-1.5c0.1-1.9-.2-3.2.4-4.3a2,2,0,0,1,1.9.4h0Z"/><path class="c6d486f9-c9e4-4bdb-a327-726bd22067fd" d="M373.1,133a2.1,2.1,0,0,1,.4,2.1c-0.9.3-2.2,0.4-2.9,0.5s-1.2,2-1.8,3a69,69,0,0,1-.4,11l-1.6-.3c-0.6-.9-0.1-1.5-0.1-2.5s-0.2-1-.2-1.5,0.1-.8.1-1.1-0.2-3.7-.1-5.9a6.1,6.1,0,0,0-.1-2.8c0.3-.9,0-1.8.8-2.2a1.6,1.6,0,0,1,1.1.4c0.3,0.2.2,0.8,0.7,0.8s1.3-.8,2.2-1.1,1.3,0,1.6-.3h0.3Z"/><path class="c6d486f9-c9e4-4bdb-a327-726bd22067fd" d="M386.9,149.4c-0.8,0-.8-0.9-1.5-1.1a9.7,9.7,0,0,0-1.8,1,15.5,15.5,0,0,1-4.4.2c-0.7-.8-1.7-1.2-2.3-1.9s-0.2-2.3-.7-3.2a14.4,14.4,0,0,1,.3-2.4c0.3-.4.6-1.1,0.9-1.5a0.5,0.5,0,0,0,.4-0.3c1.4-.7,2.6-0.7,4.6-1a7.2,7.2,0,0,0,2.5,1.4c1.2-.4.1-1.8,0.3-2.9a4.8,4.8,0,0,0-1.1-1.9c-0.7-.1-1.1-0.4-1.8-0.6s-3,.7-4.1.4a2,2,0,0,1-.6-1.6c0.4-.6,1.5-0.5,2.1-1a30.4,30.4,0,0,1,3.3,0,6,6,0,0,0,2.5.9c1.1,1.6,2.4,3.6,2,6.4,0,0.5.2,0.8,0.2,1.3s-0.2,3.2-.3,4.9a13.3,13.3,0,0,1,.3,2,1.8,1.8,0,0,1-1.1,1h0Zm-6.7-7.7-1.4,1.1c0.2,0.3-.2.3-0.3,0.6s0.3,3.1,1.1,3.4a3.3,3.3,0,0,0,2.9.4,3.1,3.1,0,0,1,1.1-.3c0.9-.8,2-1,2.2-2.6a11.8,11.8,0,0,0-1.7-2.3c-1-.2-1.6-0.5-2.5-0.7l-0.2.2h-1.2Z"/><path class="c6d486f9-c9e4-4bdb-a327-726bd22067fd" d="M32.9,168.4c0,1,.1,2.4.2,3.3a37.4,37.4,0,0,1-.3,4,25.1,25.1,0,0,1,.2,3.2c-0.1,1.1,0,2.1-.1,3.2s0.1,1.3.1,1.9-0.1,1.2-.1,1.9,0.5,1.7-.5,2.5-1.2-.9-1.6-1.8a3.5,3.5,0,0,0-1.7.8c-0.1.5-1,.5-1.3,0.9a10.7,10.7,0,0,1-4.1-.2,12.6,12.6,0,0,1-2.1-1.2,3.1,3.1,0,0,0-.8-0.9c-1-1.6-1.1-4.2-1.3-6.6a8.3,8.3,0,0,0,.5-2.8c0.7-1.5,1.1-2.8,2.4-3.9a4.3,4.3,0,0,0,1.5-.8,2.7,2.7,0,0,0,1.5-.2l2.9,0.4c0.7,0.3,1.1,1.3,2.2.9s0-1.2.1-2,0.3-4.3.5-5.3a1.1,1.1,0,0,1,1.5-.5C33.3,166.3,32.7,167.2,32.9,168.4Zm-9.1,6.2a7.6,7.6,0,0,0-1.7,2.6c0.3,1.6-.4,2.6-0.2,4a11.3,11.3,0,0,1,.5,2.8c0.5,0.4.7,1.1,1,1.5s1,0.6,1.7.7a7.1,7.1,0,0,0,4.3-1.1,12,12,0,0,0,1.5-3.9c-0.3-1.1,0-2.3-.3-3.5a4.5,4.5,0,0,0-.8-2,4.8,4.8,0,0,0-2.8-1.5c-0.6-.2-1.1.2-1.7-0.1s-0.1,0-.1.2-0.7.4-1.3,0.4h0Z"/><path class="c6d486f9-c9e4-4bdb-a327-726bd22067fd" d="M50.6,181c-2.6.4-5.9-.1-8.4,0.2-0.6.1-1.5,0-1.9,0.3,0.4,3.1,2,5.3,5.5,5,1.3-.4,2.2-1.5,3.2-0.7s-0.9,1.9-2.3,2.4-1.9.1-2.7,0-2.3-.7-3.3-1a14.2,14.2,0,0,0-1.8-1.8,8.3,8.3,0,0,0-.3-1.2,10,10,0,0,1-.6-2.2,37.1,37.1,0,0,1,.2-5.6c0.3-.8.4-1.3,0.7-2s1.1-1.1,1.5-1.8l1.8-.7c1-.2,2.8.3,3.8-0.2a9.2,9.2,0,0,0,2,.7,15.4,15.4,0,0,1,2.3,2.6,1.9,1.9,0,0,0,.3,1.5,2,2,0,0,0,.3,1.5c-0.3.8,0.4,2.3-.4,2.9h0Zm-2.5-4.8a6.7,6.7,0,0,0-1.4-1.8,7.1,7.1,0,0,0-4.1,0c-0.7,0-1,.7-1.6,1.1s-1.3,2.7-.1,3.7,0.3-.1.3,0a8.6,8.6,0,0,0,2.3-.4,2.6,2.6,0,0,0,2.3,0,2.6,2.6,0,0,0,2.8-.1,3.2,3.2,0,0,0-.3-2.6H48.1Z"/><path class="c6d486f9-c9e4-4bdb-a327-726bd22067fd" d="M82,188.2c-0.5.3-1.1-.1-1.7-0.1s0.1-1-.2-1.1,0.1-.9.1-1.3,0.2-2.5-.3-3.1a3.4,3.4,0,0,0,.3-1.2,19.2,19.2,0,0,1,0-5.5,3.2,3.2,0,0,0-3.8-1.5,2.6,2.6,0,0,0-1.5,1.4,20.8,20.8,0,0,0-.4,3.3,43.2,43.2,0,0,1-.3,6.2c0.3,1.1.7,3-.9,3a1.4,1.4,0,0,1-1.1-1.2,4.4,4.4,0,0,1,.1-0.9,14.5,14.5,0,0,1,0-1.9,7,7,0,0,1-.2-0.9c0-.6.2-1.1,0.2-2.2a7.8,7.8,0,0,1-.1-3.2c-0.4-.6-0.2-1.6-0.5-2.4a1.9,1.9,0,0,1-.4-0.8,11.6,11.6,0,0,0-1.8-.8,16.5,16.5,0,0,1-2,.6,9.5,9.5,0,0,0-1.4,4,20.5,20.5,0,0,1,.2,6.7,6.8,6.8,0,0,1-.3,2.9,4.3,4.3,0,0,1-1.7-.2c-0.7-1-.1-2.1-0.3-3.4a3.3,3.3,0,0,0-.1-1.1c0.1-2.6-.1-6,0.6-8.9-0.7-.9-0.5-2.5.2-2.6s1,0.9,1.5,1.5,0.8-.8,1.3-1.1a4.5,4.5,0,0,1,1.4-.8l2.2,0.2a16.8,16.8,0,0,0,2.3,1.8,6.9,6.9,0,0,0,1.5-1.1l2.8-1H78c0.7,0.4,1.7.5,2.4,1a1.1,1.1,0,0,1,.7.8,2.8,2.8,0,0,1,.7.7c0.4,1.1.2,2.1,0.7,3.1-0.2,2.9.1,5.9,0,8.9a4.2,4.2,0,0,1-.4,2.2h0Z"/><path class="c6d486f9-c9e4-4bdb-a327-726bd22067fd" d="M97.4,188.1c-0.8,0-.8-0.9-1.5-1.1a9.7,9.7,0,0,0-1.8,1,15.5,15.5,0,0,1-4.4.2c-0.7-.8-1.7-1.2-2.3-1.9s-0.2-2.3-.7-3.2a14.4,14.4,0,0,1,.3-2.4c0.3-.4.6-1.1,0.9-1.5a0.5,0.5,0,0,0,.4-0.3c1.4-.7,2.6-0.7,4.6-1a7.2,7.2,0,0,0,2.5,1.4c1.2-.4.1-1.8,0.3-2.9a4.8,4.8,0,0,0-1.1-1.9c-0.7-.1-1.1-0.4-1.8-0.6s-3,.7-4.1.4a2,2,0,0,1-.6-1.6c0.4-.6,1.5-0.5,2.1-1a30.4,30.4,0,0,1,3.3,0,6,6,0,0,0,2.5.9c1.1,1.6,2.4,3.6,2,6.4,0,0.5.2,0.8,0.2,1.3s-0.2,3.2-.3,4.9a13.3,13.3,0,0,1,.3,2,1.8,1.8,0,0,1-1.1,1h0Zm-6.7-7.7-1.4,1.1c0.2,0.3-.2.3-0.3,0.6s0.3,3.1,1.1,3.4a3.3,3.3,0,0,0,2.9.4,3.1,3.1,0,0,1,1.1-.3c0.9-.8,2-1,2.2-2.6a11.8,11.8,0,0,0-1.7-2.3c-1-.2-1.6-0.5-2.5-0.7l-0.2.2H90.7Z"/><path class="c6d486f9-c9e4-4bdb-a327-726bd22067fd" d="M117.2,187.9a7.1,7.1,0,0,1-1.9.2c-0.4-1.3-.2-2.7,0-4.3s-0.4-3-.2-4.8a9.6,9.6,0,0,0-.4-3.1,2.6,2.6,0,0,0-.1-0.4c-0.7-1-1.7-1.1-2.6-1.7a5.8,5.8,0,0,0-4.3,2.1c-0.1.8-.6,1.4-0.7,2.4a9,9,0,0,1-.1,3.5l0.3,1.2c-0.2,1.4-.3,3.2-0.3,4.6a2,2,0,0,1-1.7.4,4.2,4.2,0,0,1-.3-3.1c-0.1-.6-0.1-1.1-0.2-1.7s0.2-2.3.2-3.6a0.4,0.4,0,0,0,0-.4c0.1-2.2-.1-3.8.2-6a1.1,1.1,0,0,1,.2-1.2c1.5-.4,1.2,1.1,2.1,1.5a14.6,14.6,0,0,0,2-1.5,4.9,4.9,0,0,0,1.9-.4c0.5,0.3,1-.1,1.5,0a5.1,5.1,0,0,1,3.8,2.1,2.2,2.2,0,0,0,.5,1.3c-0.2.6,0.3,1.1,0.2,1.8a9.1,9.1,0,0,1-.1,1,27.2,27.2,0,0,1,.2,3.5,10.2,10.2,0,0,0,.2,3.5c-0.3,1.3.4,2.1-.2,3.1h0Z"/><path class="c6d486f9-c9e4-4bdb-a327-726bd22067fd" d="M134.5,181c-2.6.4-5.9-.1-8.4,0.2-0.6.1-1.5,0-1.9,0.3,0.4,3.1,2,5.3,5.5,5,1.3-.4,2.2-1.5,3.2-0.7s-0.9,1.9-2.3,2.4-1.9.1-2.7,0-2.3-.7-3.3-1a14.2,14.2,0,0,0-1.8-1.8,8.2,8.2,0,0,0-.3-1.2,10,10,0,0,1-.6-2.2,37.1,37.1,0,0,1,.2-5.6c0.3-.8.4-1.3,0.7-2s1.1-1.1,1.5-1.8l1.8-.7c1-.2,2.8.3,3.8-0.2a9.2,9.2,0,0,0,2,.7,15.3,15.3,0,0,1,2.3,2.6,1.9,1.9,0,0,0,.3,1.5,2,2,0,0,0,.3,1.5c-0.3.8,0.4,2.3-.4,2.9h0Zm-2.5-4.8a6.7,6.7,0,0,0-1.4-1.8,7.1,7.1,0,0,0-4.1,0c-0.7,0-1,.7-1.6,1.1s-1.3,2.7-.1,3.7,0.3-.1.3,0a8.6,8.6,0,0,0,2.3-.4,2.6,2.6,0,0,0,2.3,0,2.6,2.6,0,0,0,2.8-.1,3.2,3.2,0,0,0-.3-2.6H132Z"/><path class="c6d486f9-c9e4-4bdb-a327-726bd22067fd" d="M146.1,171.8a2.1,2.1,0,0,1,.4,2.1c-0.9.3-2.2,0.4-2.9,0.5s-1.2,2-1.8,3a69.2,69.2,0,0,1-.4,11l-1.6-.3c-0.6-.9-0.1-1.5-0.1-2.5s-0.2-1-.2-1.5,0.1-.8.1-1.1-0.2-3.7-.1-5.9a6.2,6.2,0,0,0-.1-2.8c0.3-.9,0-1.8.8-2.2a1.6,1.6,0,0,1,1.1.4c0.3,0.2.2,0.8,0.7,0.8s1.3-.8,2.2-1.1,1.3,0,1.6-.3h0.3Z"/><path class="c6d486f9-c9e4-4bdb-a327-726bd22067fd" d="M159.9,188.1c-0.8,0-.8-0.9-1.5-1.1a9.7,9.7,0,0,0-1.8,1,15.6,15.6,0,0,1-4.4.2c-0.7-.8-1.7-1.2-2.3-1.9s-0.2-2.3-.7-3.2a14.4,14.4,0,0,1,.3-2.4c0.3-.4.6-1.1,0.9-1.5a0.5,0.5,0,0,0,.4-0.3c1.4-.7,2.6-0.7,4.6-1a7.2,7.2,0,0,0,2.5,1.4c1.2-.4.1-1.8,0.3-2.9a4.8,4.8,0,0,0-1.1-1.9c-0.7-.1-1.1-0.4-1.8-0.6s-3,.7-4.1.4a2,2,0,0,1-.6-1.6c0.4-.6,1.5-0.5,2.1-1a30.4,30.4,0,0,1,3.3,0,6,6,0,0,0,2.5.9c1.1,1.6,2.4,3.6,2,6.4,0,0.5.2,0.8,0.2,1.3s-0.2,3.2-.3,4.9a13.3,13.3,0,0,1,.3,2,1.8,1.8,0,0,1-1.1,1h0Zm-6.7-7.7-1.4,1.1c0.2,0.3-.2.3-0.3,0.6s0.3,3.1,1.1,3.4a3.3,3.3,0,0,0,2.9.4,3.1,3.1,0,0,1,1.1-.3c0.9-.8,2-1,2.2-2.6a11.8,11.8,0,0,0-1.7-2.3c-1-.2-1.6-0.5-2.5-0.7l-0.2.2h-1.2Z"/><path class="c6d486f9-c9e4-4bdb-a327-726bd22067fd" d="M178.3,157a4.1,4.1,0,1,1-4.1,4.1A4.1,4.1,0,0,1,178.3,157Zm3.7,30.2a1.1,1.1,0,0,1-1.1,1.1h-5.1a1,1,0,0,1-1.1-1.1V168.5a1,1,0,0,1,1.1-1.1h5.1a1.1,1.1,0,0,1,1.1,1.1v18.7Z"/><path class="c6d486f9-c9e4-4bdb-a327-726bd22067fd" d="M192.7,167.4a1.3,1.3,0,0,1,1.5,1l0.3,1.1c1.4-2,4.1-2.4,5.9-2.4,6,0,8.3,4.5,8.3,9.5v10.6a1,1,0,0,1-1.1,1.1h-5.1a1.1,1.1,0,0,1-1.1-1.1v-9.9c0-1.8-.2-3.3-2.7-3.3s-2.4,1.5-2.4,3.3v9.9a1,1,0,0,1-1.1,1.1H190a1.1,1.1,0,0,1-1.1-1.1V168.5a1.1,1.1,0,0,1,1.1-1.1h2.7Z"/><path class="c6d486f9-c9e4-4bdb-a327-726bd22067fd" d="M223.7,188.5c-4.7,0-7.5-1.9-7.5-9.1v-5.5h-2.7a1,1,0,0,1-1.1-1.1v-4.7a1.1,1.1,0,0,1,1.1-1.1h2.7v-7.4a1,1,0,0,1,1.1-1.1h5.1a1.1,1.1,0,0,1,1.1,1.1v7.4h3.6a1.1,1.1,0,0,1,1.1,1.1v4.7a1,1,0,0,1-1.1,1.1h-3.6v4.8c0,2,.2,3.4,1.7,3.4h1.6a1.2,1.2,0,0,1,1,.8l0.6,3.7a1.2,1.2,0,0,1,.1.4,1.3,1.3,0,0,1-.8,1A9.6,9.6,0,0,1,223.7,188.5Z"/><path class="c6d486f9-c9e4-4bdb-a327-726bd22067fd" d="M252.1,178.9A1.1,1.1,0,0,1,251,180H239.3c0.4,2.3,2.8,2.6,4.1,2.6a10.8,10.8,0,0,0,5-.9h0.3a0.9,0.9,0,0,1,.7.4l1.4,2.4a1.2,1.2,0,0,1,.3.7,1.6,1.6,0,0,1-.3.9c-1.4,1.9-4.6,2.6-7.3,2.6-5.9,0-11.6-2.9-11.6-10.9,0-5.8,3-10.5,10.2-10.5s10.1,3.3,10.1,10v1.7Zm-12.9-2.9h5.6a2.5,2.5,0,0,0-2.7-2.4A2.6,2.6,0,0,0,239.2,175.9Z"/><path class="c6d486f9-c9e4-4bdb-a327-726bd22067fd" d="M260.8,167.4a1.3,1.3,0,0,1,1.5,1l0.3,1.1c1.4-2,4.1-2.4,5.9-2.4,6,0,8.3,4.5,8.3,9.5v10.6a1,1,0,0,1-1.1,1.1h-5.1a1.1,1.1,0,0,1-1.1-1.1v-9.9c0-1.8-.2-3.3-2.7-3.3s-2.4,1.5-2.4,3.3v9.9a1,1,0,0,1-1.1,1.1h-5.1a1.1,1.1,0,0,1-1.1-1.1V168.5a1.1,1.1,0,0,1,1.1-1.1h2.7Z"/><path class="c6d486f9-c9e4-4bdb-a327-726bd22067fd" d="M290,182.5c0.8,0,1.8-.1,1.8-0.7s-10-2-10-8.1c0-4.5,4.1-6.6,8.9-6.6a18.3,18.3,0,0,1,6.3,1.3,0.9,0.9,0,0,1,.6,1.2l-0.9,3.7c-0.1.4-.3,0.6-1.1,0.6a21,21,0,0,0-3.9-.6c-1.9,0-2.5.1-2.5,0.8s9.9,2.8,9.9,7.8-4.9,6.6-9.1,6.6a14.2,14.2,0,0,1-7.8-2.2,1.2,1.2,0,0,1-.5-0.9,29.4,29.4,0,0,1,1-3.7,1.1,1.1,0,0,1,.9-0.7h0.5A15.3,15.3,0,0,0,290,182.5Z"/><path class="c6d486f9-c9e4-4bdb-a327-726bd22067fd" d="M315.1,186.1a7.1,7.1,0,0,1-5.3,2.4c-1.5,0-6.9-.6-6.9-6.9,0-4.1,2.9-5.7,6.8-5.7a10,10,0,0,1,4.1.8c-0.5-2.1-1.4-2.6-3.3-2.6a13.3,13.3,0,0,0-3.2.3h-0.6a1.5,1.5,0,0,1-1.4-.7l-1.1-3.2a3.5,3.5,0,0,1-.1-0.8,1.3,1.3,0,0,1,.6-1.2,15.7,15.7,0,0,1,6.7-1.3c6.8,0,9.8,3.7,9.8,9.6v10.5a1.1,1.1,0,0,1-1.1,1.1h-3.1a1.3,1.3,0,0,1-1.5-1Zm-1.3-4.1v-1.3a2.9,2.9,0,0,0-1.9-.7c-1.5,0-2.3.4-2.3,1.3s0.9,1.4,2.3,1.4A3.4,3.4,0,0,0,313.8,182Z"/><path class="c6d486f9-c9e4-4bdb-a327-726bd22067fd" d="M346.8,181c-2.6.4-5.9-.1-8.4,0.2-0.6.1-1.5,0-1.9,0.3,0.4,3.1,2,5.3,5.5,5,1.3-.4,2.2-1.5,3.2-0.7s-0.9,1.9-2.3,2.4-1.9.1-2.7,0-2.3-.7-3.3-1a14.2,14.2,0,0,0-1.8-1.8,8.3,8.3,0,0,0-.3-1.2,10,10,0,0,1-.6-2.2,37.1,37.1,0,0,1,.2-5.6c0.3-.8.4-1.3,0.7-2s1.1-1.1,1.5-1.8l1.8-.7c1-.2,2.8.3,3.8-0.2a9.2,9.2,0,0,0,2,.7,15.4,15.4,0,0,1,2.3,2.6,1.9,1.9,0,0,0,.3,1.5,2,2,0,0,0,.3,1.5c-0.3.8,0.4,2.3-.4,2.9h0Zm-2.5-4.8a6.7,6.7,0,0,0-1.4-1.8,7.1,7.1,0,0,0-4.1,0c-0.7,0-1,.7-1.6,1.1s-1.3,2.7-.1,3.7,0.3-.1.3,0a8.6,8.6,0,0,0,2.3-.4,2.6,2.6,0,0,0,2.3,0,2.6,2.6,0,0,0,2.8-.1,3.2,3.2,0,0,0-.3-2.6h-0.1Z"/><path class="c6d486f9-c9e4-4bdb-a327-726bd22067fd" d="M364.7,187.9a7.1,7.1,0,0,1-1.9.2c-0.4-1.3-.2-2.7,0-4.3s-0.4-3-.2-4.8a9.6,9.6,0,0,0-.4-3.1,2.6,2.6,0,0,0-.1-0.4c-0.7-1-1.7-1.1-2.6-1.7a5.8,5.8,0,0,0-4.3,2.1c-0.1.8-.6,1.4-0.7,2.4a9,9,0,0,1-.1,3.5l0.3,1.2c-0.2,1.4-.3,3.2-0.3,4.6a2,2,0,0,1-1.7.4,4.2,4.2,0,0,1-.3-3.1c-0.1-.6-0.1-1.1-0.2-1.7s0.2-2.3.2-3.6a0.4,0.4,0,0,0,0-.4c0.1-2.2-.1-3.8.2-6a1.1,1.1,0,0,1,.2-1.2c1.5-.4,1.2,1.1,2.1,1.5a14.6,14.6,0,0,0,2-1.5,4.9,4.9,0,0,0,1.9-.4c0.5,0.3,1-.1,1.5,0a5.1,5.1,0,0,1,3.8,2.1,2.2,2.2,0,0,0,.5,1.3c-0.2.6,0.3,1.1,0.2,1.8a9.1,9.1,0,0,1-.1,1,27.2,27.2,0,0,1,.2,3.5,10.2,10.2,0,0,0,.2,3.5c-0.3,1.3.4,2.1-.2,3.1h0Z"/><path class="c6d486f9-c9e4-4bdb-a327-726bd22067fd" d="M23,211c0.1,3.3-.2,6.6.2,10.1a9.1,9.1,0,0,0,.4,2.1c0.7,1.3,2.2,1.7,3.5,2s1.8-1.1,2.8-1.4a16.5,16.5,0,0,0,1.1-3,2.7,2.7,0,0,1,.3-2.1c0.1-2.1-.3-5.4-0.1-7.7,0.8-.4,1.8-0.4,2.2.2a52,52,0,0,1,0,8,11.4,11.4,0,0,1,0,2.3,34.6,34.6,0,0,1-.1,3.5c0.1,0.6.4,1.2-.1,1.7a1.7,1.7,0,0,1-1.5-.2c-0.4-.3-0.2-0.9-0.7-1.1s-0.9.6-1.6,0.9a19.1,19.1,0,0,0-2,.7c-1.8-.2-3.5,0-4.7-0.9s-1.4-2.4-2-4,0.2-.7.1-1.2a17.3,17.3,0,0,1,0-4.1,8.5,8.5,0,0,0-.3-0.9,3.9,3.9,0,0,1,.3-1.1,5.7,5.7,0,0,1-.2-2.2,3.1,3.1,0,0,1,.4-1.3,0.6,0.6,0,0,1,.4-0.4,1.9,1.9,0,0,1,1.5.2h0Z"/><path class="c6d486f9-c9e4-4bdb-a327-726bd22067fd" d="M52.4,226.6a7.1,7.1,0,0,1-1.9.2c-0.4-1.3-.2-2.7,0-4.3s-0.4-3-.2-4.8a9.6,9.6,0,0,0-.4-3.1,2.6,2.6,0,0,0-.1-0.4c-0.7-1-1.7-1.1-2.6-1.7a5.8,5.8,0,0,0-4.3,2.1c-0.1.8-.6,1.4-0.7,2.4a9,9,0,0,1-.1,3.5l0.3,1.2c-0.2,1.4-.3,3.2-0.3,4.6a2,2,0,0,1-1.7.4,4.2,4.2,0,0,1-.3-3.1c-0.1-.6-0.1-1.1-0.2-1.7s0.2-2.3.2-3.6a0.4,0.4,0,0,0,0-.4c0.1-2.2-.1-3.8.2-6a1.1,1.1,0,0,1,.2-1.2c1.5-.4,1.2,1.1,2.1,1.5a14.6,14.6,0,0,0,2-1.5,4.9,4.9,0,0,0,1.9-.4c0.5,0.3,1-.1,1.5,0a5.1,5.1,0,0,1,3.8,2.1,2.2,2.2,0,0,0,.5,1.3c-0.2.6,0.3,1.1,0.2,1.8a9.1,9.1,0,0,1-.1,1,27.2,27.2,0,0,1,.2,3.5,10.2,10.2,0,0,0,.2,3.5c-0.3,1.3.4,2.1-.2,3.1h0Z"/><path class="c6d486f9-c9e4-4bdb-a327-726bd22067fd" d="M79,220a2.7,2.7,0,0,1,1.3-.5,1.3,1.3,0,0,1,.9.4l2,2.1a2.1,2.1,0,0,1,.5,1.1,2.2,2.2,0,0,1-.3,1.1c-2.3,2.5-5.1,2.9-7.7,2.9a11,11,0,0,1-10.9-10.8,10.8,10.8,0,0,1,10.9-10.6,11.2,11.2,0,0,1,7.6,2.8,2.5,2.5,0,0,1,.3,1,1.7,1.7,0,0,1-.5,1.1L81,213.5a1.8,1.8,0,0,1-.9.4H79.8l-0.7-.3a7.7,7.7,0,0,0-3.4-.8,3.5,3.5,0,0,0-3.6,3.8,4.2,4.2,0,0,0,4,4.4A4.9,4.9,0,0,0,79,220Z"/><path class="c6d486f9-c9e4-4bdb-a327-726bd22067fd" d="M86.7,216.8a10.9,10.9,0,1,1,21.8,0A10.9,10.9,0,0,1,86.7,216.8Zm14.5,0.1a3.8,3.8,0,0,0-3.7-4.1c-1.9,0-3.5,1.7-3.5,4.1a3.8,3.8,0,0,0,3.5,4.1A3.9,3.9,0,0,0,101.1,216.8Z"/><path class="c6d486f9-c9e4-4bdb-a327-726bd22067fd" d="M124.1,212.7c-2.6,0-3.4,1.6-3.4,3.2v10a1.1,1.1,0,0,1-1.1,1.1h-5.1a1,1,0,0,1-1.1-1.1V207.2a1,1,0,0,1,1.1-1.1h3.7a1.1,1.1,0,0,1,1.1,1.1v0.9a6.4,6.4,0,0,1,4.7-2.2h2A1.1,1.1,0,0,1,127,207v4.7a1,1,0,0,1-1.1,1.1h-1.8Z"/><path class="c6d486f9-c9e4-4bdb-a327-726bd22067fd" d="M141.4,227.3c-4.7,0-7.5-1.9-7.5-9.1v-5.5h-2.7a1,1,0,0,1-1.1-1.1V207a1.1,1.1,0,0,1,1.1-1.1h2.7v-7.4a1,1,0,0,1,1.1-1.1h5.1a1.1,1.1,0,0,1,1.1,1.1v7.4h3.6A1.1,1.1,0,0,1,146,207v4.7a1,1,0,0,1-1.1,1.1h-3.6v4.8c0,2,.2,3.4,1.7,3.4h1.6a1.2,1.2,0,0,1,1,.8l0.6,3.7a1.2,1.2,0,0,1,.1.4,1.3,1.3,0,0,1-.8,1A9.6,9.6,0,0,1,141.4,227.3Z"/><path class="c6d486f9-c9e4-4bdb-a327-726bd22067fd" d="M149.5,216.8a10.9,10.9,0,1,1,21.8,0A10.9,10.9,0,0,1,149.5,216.8Zm14.5,0.1a3.8,3.8,0,0,0-3.7-4.1c-1.9,0-3.5,1.7-3.5,4.1a3.8,3.8,0,0,0,3.5,4.1A3.9,3.9,0,0,0,163.9,216.8Z"/><path class="c6d486f9-c9e4-4bdb-a327-726bd22067fd" d="M192,207.6a10.3,10.3,0,0,1,6.1-1.8c5.7,0,10,4.8,10,10.6s-4.1,10.8-9.7,10.8a8.7,8.7,0,0,1-4.4-.9v8.5a1,1,0,0,1-1.1,1.1h-5.1a1.1,1.1,0,0,1-1.1-1.1V207.2a1.1,1.1,0,0,1,1.1-1.1h2.7a1.3,1.3,0,0,1,1.5,1v0.5Zm8.7,8.9c0-2.3-1.5-3.8-3.3-3.8a3.5,3.5,0,0,0-3.4,3.8c0,2.8,1.6,4.4,3.4,4.4S200.7,219.3,200.7,216.5Z"/><path class="c6d486f9-c9e4-4bdb-a327-726bd22067fd" d="M231.5,217.6a1.1,1.1,0,0,1-1.1,1.1H218.6c0.4,2.3,2.8,2.6,4.1,2.6a10.8,10.8,0,0,0,5-.9H228a0.9,0.9,0,0,1,.7.4l1.4,2.4a1.2,1.2,0,0,1,.3.7,1.6,1.6,0,0,1-.3.9c-1.4,1.9-4.6,2.6-7.3,2.6-5.9,0-11.6-2.9-11.6-10.9,0-5.8,3-10.5,10.2-10.5s10.1,3.3,10.1,10v1.7Zm-12.9-2.9h5.6a2.5,2.5,0,0,0-2.7-2.4A2.6,2.6,0,0,0,218.6,214.7Z"/><path class="c6d486f9-c9e4-4bdb-a327-726bd22067fd" d="M247.2,212.7c-2.6,0-3.4,1.6-3.4,3.2v10a1.1,1.1,0,0,1-1.1,1.1h-5.1a1,1,0,0,1-1.1-1.1V207.2a1,1,0,0,1,1.1-1.1h3.7a1.1,1.1,0,0,1,1.1,1.1v0.9a6.4,6.4,0,0,1,4.7-2.2h2a1.1,1.1,0,0,1,1.1,1.1v4.7a1,1,0,0,1-1.1,1.1h-1.8Z"/><path class="c6d486f9-c9e4-4bdb-a327-726bd22067fd" d="M253.7,207.2a1.1,1.1,0,0,1,1.1-1.1H260a1,1,0,0,1,1.1,1.1v18.7A1,1,0,0,1,260,227h-5.1a1.1,1.1,0,0,1-1.1-1.1V207.2Zm4-12.9c0.3-.5.4-0.9,1-0.9h5.1a1.1,1.1,0,0,1,1.1,1.2l-4.6,6.7a1.6,1.6,0,0,1-1.3.8h-3a1.1,1.1,0,0,1-1.1-1.2Z"/><path class="c6d486f9-c9e4-4bdb-a327-726bd22067fd" d="M266,216.8a10.9,10.9,0,1,1,21.8,0A10.9,10.9,0,0,1,266,216.8Zm14.5,0.1a3.8,3.8,0,0,0-3.7-4.1c-1.9,0-3.5,1.7-3.5,4.1a3.8,3.8,0,0,0,3.5,4.1A3.9,3.9,0,0,0,280.5,216.8Z"/><path class="c6d486f9-c9e4-4bdb-a327-726bd22067fd" d="M306.4,224.9a6.7,6.7,0,0,1-5.7,2.4c-5.5,0-9.7-5-9.7-10.8s4.4-10.6,9.1-10.6a8,8,0,0,1,5,1.4v-8.8a1.1,1.1,0,0,1,1.1-1.1h5.1a1,1,0,0,1,1.1,1.1v27.5a1.1,1.1,0,0,1-1.1,1.1h-3.1a1.3,1.3,0,0,1-1.5-1Zm-1.3-8.4a3.4,3.4,0,1,0-6.8,0c0,2.6,1.5,4.4,3.3,4.4S305.1,219.1,305.1,216.5Z"/><path class="c6d486f9-c9e4-4bdb-a327-726bd22067fd" d="M317.3,216.8a10.9,10.9,0,1,1,21.8,0A10.9,10.9,0,0,1,317.3,216.8Zm14.5,0.1a3.8,3.8,0,0,0-3.7-4.1c-1.9,0-3.5,1.7-3.5,4.1a3.8,3.8,0,0,0,3.5,4.1A3.9,3.9,0,0,0,331.8,216.8Z"/><path class="c6d486f9-c9e4-4bdb-a327-726bd22067fd" d="M363.7,207.2c0,1,.1,2.4.2,3.3a37.4,37.4,0,0,1-.3,4,24.9,24.9,0,0,1,.2,3.2c-0.1,1.1,0,2.1-.1,3.2s0.1,1.3.1,1.9-0.1,1.2-.1,1.9,0.5,1.7-.5,2.5-1.2-.9-1.6-1.8a3.5,3.5,0,0,0-1.7.8c-0.1.5-1,.5-1.3,0.9a10.7,10.7,0,0,1-4.1-.2,12.6,12.6,0,0,1-2.1-1.2,3.2,3.2,0,0,0-.8-0.9c-1-1.6-1.1-4.2-1.3-6.6a8.3,8.3,0,0,0,.5-2.8c0.7-1.5,1.1-2.8,2.4-3.9a4.2,4.2,0,0,0,1.5-.8,2.7,2.7,0,0,0,1.5-.2l2.9,0.4c0.7,0.3,1.1,1.3,2.2.9s0-1.2.1-2,0.3-4.3.5-5.3a1.1,1.1,0,0,1,1.5-.5C364.1,205.1,363.5,206,363.7,207.2Zm-9.1,6.2a7.6,7.6,0,0,0-1.7,2.6c0.3,1.6-.4,2.6-0.2,4a11.3,11.3,0,0,1,.5,2.8c0.5,0.4.7,1.1,1,1.5s1,0.6,1.7.7a7.1,7.1,0,0,0,4.3-1.1,12,12,0,0,0,1.5-3.9c-0.3-1.1,0-2.3-.3-3.5a4.5,4.5,0,0,0-.8-2,4.8,4.8,0,0,0-2.8-1.5c-0.6-.2-1.1.2-1.7-0.1s-0.1,0-.1.2-0.7.4-1.3,0.4h0Z"/><path class="c6d486f9-c9e4-4bdb-a327-726bd22067fd" d="M381.4,219.8c-2.6.4-5.9-.1-8.4,0.2-0.6.1-1.5,0-1.9,0.3,0.4,3.1,2,5.3,5.5,5,1.3-.4,2.2-1.5,3.2-0.7s-0.9,1.9-2.3,2.4-1.9.1-2.7,0-2.3-.7-3.3-1a14.2,14.2,0,0,0-1.8-1.8,8.2,8.2,0,0,0-.3-1.2,10,10,0,0,1-.6-2.2,37.1,37.1,0,0,1,.2-5.6c0.3-.8.4-1.3,0.7-2s1.1-1.1,1.5-1.8l1.8-.7c1-.2,2.8.3,3.8-0.2a9.2,9.2,0,0,0,2,.7,15.3,15.3,0,0,1,2.3,2.6,1.9,1.9,0,0,0,.3,1.5,2,2,0,0,0,.3,1.5c-0.3.8,0.4,2.3-.4,2.9h0Zm-2.5-4.8a6.7,6.7,0,0,0-1.4-1.8,7.1,7.1,0,0,0-4.1,0c-0.7,0-1,.7-1.6,1.1s-1.3,2.7-.1,3.7,0.3-.1.3,0a8.6,8.6,0,0,0,2.3-.4,2.6,2.6,0,0,0,2.3,0,2.6,2.6,0,0,0,2.8-.1,3.2,3.2,0,0,0-.3-2.6h-0.1Z"/><path class="c6d486f9-c9e4-4bdb-a327-726bd22067fd" d="M24.8,238.1c0.2,2.2-.9,4.6.5,6.3a7.3,7.3,0,0,1,2.3-.1,2,2,0,0,1,.3,2.2c-0.8.2-2.1-.4-2.9,0.2a1.2,1.2,0,0,1-.4.6c0.2,1.4-.1,3,0.4,4.3s-0.1,2.2-.4,3.2a21.1,21.1,0,0,1,.3,2.9l1.1,0.8c1.2,0.4,2.7.1,2.3,1.8s-1.6.4-2.5,0.4a8.7,8.7,0,0,0-1.8-.6,9.3,9.3,0,0,1-1.3-1.7,8.3,8.3,0,0,0-.3-2.4c-0.3-2.6.1-5.8-.3-9.2-0.4-.5-1.5-0.5-2.6-0.6a2.2,2.2,0,0,1,.1-2.1c0.9-.1,2.6.1,2.9-0.9a14.2,14.2,0,0,0-.2-1.5c0.1-1.9-.2-3.2.4-4.3a2,2,0,0,1,1.9.4h0Z"/><path class="c6d486f9-c9e4-4bdb-a327-726bd22067fd" d="M36.4,240.1a2,2,0,0,1-.9,2.1c-1.5.2-2.5-.3-2.4-1.9a0.7,0.7,0,0,0,.2-0.4,2,2,0,0,1,3.1.4h0Zm-1.1,20.5a4.9,4.9,0,0,1-1.7-.3c-0.1-2.8-.1-5.1-0.4-8.2a9.1,9.1,0,0,0,.5-2.2,11.3,11.3,0,0,1-.2-2.8c0-.8-0.3-1.7.3-2.4s0.8-.5,1.1-0.2,0.8,1.9.9,2.9a50,50,0,0,0,.3,7.8,12.7,12.7,0,0,0-.2,2.8c0,1.1.1,2-.7,2.6h0.1Z"/><path class="c6d486f9-c9e4-4bdb-a327-726bd22067fd" d="M53.5,253.5c-2.6.4-5.9-.1-8.4,0.2-0.6.1-1.5,0-1.9,0.3,0.4,3.1,2,5.3,5.5,5,1.3-.4,2.2-1.5,3.2-0.7s-0.9,1.9-2.3,2.4-1.9.1-2.7,0-2.3-.7-3.3-1a14.2,14.2,0,0,0-1.8-1.8,8.2,8.2,0,0,0-.3-1.2,10,10,0,0,1-.6-2.2,37.1,37.1,0,0,1,.2-5.6c0.3-.8.4-1.3,0.7-2s1.1-1.1,1.5-1.8l1.8-.7c1-.2,2.8.3,3.8-0.2a9.2,9.2,0,0,0,2,.7,15.3,15.3,0,0,1,2.3,2.6,1.9,1.9,0,0,0,.3,1.5,2,2,0,0,0,.3,1.5c-0.3.8,0.4,2.3-.4,2.9h0ZM51,248.7a6.7,6.7,0,0,0-1.4-1.8,7.1,7.1,0,0,0-4.1,0c-0.7,0-1,.7-1.6,1.1s-1.3,2.7-.1,3.7,0.3-.1.3,0a8.6,8.6,0,0,0,2.3-.4,2.6,2.6,0,0,0,2.3,0,2.6,2.6,0,0,0,2.8-.1,3.2,3.2,0,0,0-.3-2.6H51Z"/><path class="c6d486f9-c9e4-4bdb-a327-726bd22067fd" d="M76.7,260.6c-0.5.3-1.1-.1-1.7-0.1s0.1-1-.2-1.1,0.1-.9.1-1.3,0.2-2.5-.3-3.1a3.4,3.4,0,0,0,.3-1.2,19.2,19.2,0,0,1,0-5.5,3.2,3.2,0,0,0-3.8-1.5,2.6,2.6,0,0,0-1.5,1.4,20.8,20.8,0,0,0-.4,3.3,43.2,43.2,0,0,1-.3,6.2c0.3,1.1.7,3-.9,3a1.4,1.4,0,0,1-1.1-1.2,4.4,4.4,0,0,1,.1-0.9,14.5,14.5,0,0,1,0-1.9,7,7,0,0,1-.2-0.9c0-.6.2-1.1,0.2-2.2a7.8,7.8,0,0,1-.1-3.2c-0.4-.6-0.2-1.6-0.5-2.4a1.9,1.9,0,0,1-.4-0.8,11.6,11.6,0,0,0-1.8-.8,16.5,16.5,0,0,1-2,.6,9.5,9.5,0,0,0-1.4,4,20.5,20.5,0,0,1,.2,6.7,6.8,6.8,0,0,1-.3,2.9,4.3,4.3,0,0,1-1.7-.2c-0.7-1-.1-2.1-0.3-3.4a3.3,3.3,0,0,0-.1-1.1c0.1-2.6-.1-6,0.6-8.9-0.7-.9-0.5-2.5.2-2.6s1,0.9,1.5,1.5,0.8-.8,1.3-1.1a4.5,4.5,0,0,1,1.4-.8l2.2,0.2a16.8,16.8,0,0,0,2.3,1.8,6.9,6.9,0,0,0,1.5-1.1l2.8-1h0.3c0.7,0.4,1.7.5,2.4,1a1.1,1.1,0,0,1,.7.8,2.8,2.8,0,0,1,.7.7c0.4,1.1.2,2.1,0.7,3.1-0.2,2.9.1,5.9,0,8.9a4.2,4.2,0,0,1-.4,2.2h0Z"/><path class="c6d486f9-c9e4-4bdb-a327-726bd22067fd" d="M85.7,259.5H85.4c-0.7.2-.2,1-0.2,1.6a10.3,10.3,0,0,0,0,3.2c-0.2.9,0,2.3-.4,3.1a3.6,3.6,0,0,1-1.8,0c-0.6-.8-0.2-1.4-0.1-2.2a37.5,37.5,0,0,0-.2-6.8c0-.4.2-0.8,0.2-1.1s-0.2-.7-0.2-1a5.7,5.7,0,0,0,.2-0.8c0-.9-0.1-1.8,0-2.7v-1c0-2.1-.3-3.9-0.2-6.1a1.1,1.1,0,0,1,.7-1.4,1.2,1.2,0,0,1,1.1.2c0.3,0.3.3,0.8,0.7,0.8a5.8,5.8,0,0,0,2.6-1.1,1.6,1.6,0,0,0,1.2-.2h1.1a8.8,8.8,0,0,1,2.6.7c0.8,0.4,1.1,1,1.8,1.3a36,36,0,0,1,1.5,4.2c0,1.8.2,3.5,0.1,5.4a5.2,5.2,0,0,0-.8,2,12,12,0,0,1-1.7,2.1,9.9,9.9,0,0,1-2.7.8c-1.3,0-1.8.2-3.1,0.1s-1-1.3-2.1-1.2H85.7Zm1.8-12.6L86,248.3c-1,1.3-.8,3-0.9,4.8a21,21,0,0,1,.3,2.5c0.7,1,.9,2.2,1.8,2.4a18.3,18.3,0,0,0,3.7.8,13.1,13.1,0,0,1,1.5-.9,18.9,18.9,0,0,0,1.5-2.9,12.3,12.3,0,0,0-.6-6.2,3.1,3.1,0,0,0-1.9-2.1,4,4,0,0,0-2.4-.2,3.8,3.8,0,0,0-1.5.3h0Z"/><path class="c6d486f9-c9e4-4bdb-a327-726bd22067fd" d="M106.1,244.2l0.2-.2c1.1,0.1,1.6.7,2.8,0.5s2.4,2.4,3.2,3.4,0.2,2,.9,2.8a2.6,2.6,0,0,0,.2,1.8,3.1,3.1,0,0,0,0,1.2c0,1-.7,1.7-0.7,2.8a9,9,0,0,0-1.3,2.1,10.8,10.8,0,0,1-2.5,1.7,7.9,7.9,0,0,1-4.6.1c-0.9-.4-1.7-0.9-2.6-1.4a2.3,2.3,0,0,0-.9-1.3c-0.1-.9-0.7-1.3-0.8-2.1s-0.2-1.4-.4-2.1,0.4-3,.3-4.5a4.9,4.9,0,0,0,1.3-2.1,4.1,4.1,0,0,0,1.2-1.5,25.1,25.1,0,0,1,3.8-1.2h0Zm-1.6,2.6a14.5,14.5,0,0,0-1.7,1.5c-0.9,1.8-.9,3.8-0.8,6.4a7.5,7.5,0,0,0,2.1,3.4,9.6,9.6,0,0,0,3.5.7,12.1,12.1,0,0,1,1.8-1.1l0.5-.8,0.3-.2c0.1-.2,0-0.5.1-0.9l0.4-.5a14.4,14.4,0,0,1,.4-2.5c-0.2-.8-0.1-1.8-0.3-2.7a15.3,15.3,0,0,1-1-2.3,16,16,0,0,0-2.5-1.3,13.2,13.2,0,0,0-1.5.1,5.8,5.8,0,0,0-1.4.2h0Z"/><path class="c6d486f9-c9e4-4bdb-a327-726bd22067fd" d="M118.6,263.2c-0.4-.8.4-1.3,0.3-2.2s-0.7-1.1-.5-2.2,1.8-1.2,2.3-.4l0.2,0.2c0,1.4-.1,2.1-1,2.7s-0.4,2.1-1.3,1.8h0Z"/><path class="c6d486f9-c9e4-4bdb-a327-726bd22067fd" d="M146.9,253.5c-2.6.4-5.9-.1-8.4,0.2-0.6.1-1.5,0-1.9,0.3,0.4,3.1,2,5.3,5.5,5,1.3-.4,2.2-1.5,3.2-0.7s-0.9,1.9-2.3,2.4-1.9.1-2.7,0-2.3-.7-3.3-1a14.2,14.2,0,0,0-1.8-1.8,8.3,8.3,0,0,0-.3-1.2,10,10,0,0,1-.6-2.2,37.1,37.1,0,0,1,.2-5.6c0.3-.8.4-1.3,0.7-2s1.1-1.1,1.5-1.8l1.8-.7c1-.2,2.8.3,3.8-0.2a9.2,9.2,0,0,0,2,.7,15.4,15.4,0,0,1,2.3,2.6,1.9,1.9,0,0,0,.3,1.5,2,2,0,0,0,.3,1.5c-0.3.8,0.4,2.3-.4,2.9h0Zm-2.5-4.8a6.7,6.7,0,0,0-1.4-1.8,7.1,7.1,0,0,0-4.1,0c-0.7,0-1,.7-1.6,1.1s-1.3,2.7-.1,3.7,0.3-.1.3,0a8.6,8.6,0,0,0,2.3-.4,2.6,2.6,0,0,0,2.3,0,2.6,2.6,0,0,0,2.8-.1,3.2,3.2,0,0,0-.3-2.6h-0.1Z"/><path class="c6d486f9-c9e4-4bdb-a327-726bd22067fd" d="M156.8,246.5a4.4,4.4,0,0,0-2.9.9,11.4,11.4,0,0,0-.3,1.5,3.3,3.3,0,0,0,1.8,1.9,15.7,15.7,0,0,0,2.5,1.1,3.8,3.8,0,0,0,2,1.1,3.7,3.7,0,0,0,.9,1.3c0.3,0.5.4,0.9,0.7,1.4a4.1,4.1,0,0,1-.7,3.3,5.2,5.2,0,0,1-1.3,1.2c-0.7.4-2,.4-2.9,0.7s-4.5-.1-5.3-1.8,0.5-.7.7-1.1,3.7,1.3,5.7.8a3.1,3.1,0,0,0,1.5-2.1c0-1.5-1.4-2.1-2.3-2.8a11.6,11.6,0,0,0-2.4-.9,10.2,10.2,0,0,1-2.5-1.9,10.5,10.5,0,0,1-.8-2c0-1,.3-1.5.2-2.6l1.2-1.5,1.8-.7a14.8,14.8,0,0,1,3.8.1c0.3,0.3,1.3,0,1.5.7S158,246.6,156.8,246.5Z"/><path class="c6d486f9-c9e4-4bdb-a327-726bd22067fd" d="M169.2,259.5H169c-0.7.2-.2,1-0.2,1.6a10.3,10.3,0,0,0,0,3.2c-0.2.9,0,2.3-.4,3.1a3.6,3.6,0,0,1-1.8,0c-0.6-.8-0.2-1.4-0.1-2.2a37.5,37.5,0,0,0-.2-6.8c0-.4.2-0.8,0.2-1.1s-0.2-.7-0.2-1a5.7,5.7,0,0,0,.2-0.8c0-.9-0.1-1.8,0-2.7v-1c0-2.1-.3-3.9-0.2-6.1a1.1,1.1,0,0,1,.7-1.4,1.2,1.2,0,0,1,1.1.2c0.3,0.3.3,0.8,0.7,0.8a5.8,5.8,0,0,0,2.6-1.1,1.6,1.6,0,0,0,1.2-.2h1.1a8.8,8.8,0,0,1,2.6.7c0.8,0.4,1.1,1,1.8,1.3a36.2,36.2,0,0,1,1.5,4.2c0,1.8.2,3.5,0.1,5.4a5.2,5.2,0,0,0-.8,2,12.1,12.1,0,0,1-1.7,2.1,9.9,9.9,0,0,1-2.7.8c-1.3,0-1.8.2-3.1,0.1s-1-1.3-2.1-1.2h-0.1Zm1.8-12.6-1.4,1.4c-1,1.3-.8,3-0.9,4.8a21,21,0,0,1,.3,2.5c0.7,1,.9,2.2,1.8,2.4a18.3,18.3,0,0,0,3.7.8,13.2,13.2,0,0,1,1.5-.9,18.7,18.7,0,0,0,1.5-2.9,12.2,12.2,0,0,0-.6-6.2,3.1,3.1,0,0,0-1.9-2.1,4,4,0,0,0-2.4-.2,3.8,3.8,0,0,0-1.5.3h0Z"/><path class="c6d486f9-c9e4-4bdb-a327-726bd22067fd" d="M196,253.5c-2.6.4-5.9-.1-8.4,0.2-0.6.1-1.5,0-1.9,0.3,0.4,3.1,2,5.3,5.5,5,1.3-.4,2.2-1.5,3.2-0.7s-0.9,1.9-2.3,2.4-1.9.1-2.7,0-2.3-.7-3.3-1a14.2,14.2,0,0,0-1.8-1.8,8.2,8.2,0,0,0-.3-1.2,10,10,0,0,1-.6-2.2,37.1,37.1,0,0,1,.2-5.6c0.3-.8.4-1.3,0.7-2s1.1-1.1,1.5-1.8l1.8-.7c1-.2,2.8.3,3.8-0.2a9.2,9.2,0,0,0,2,.7,15.3,15.3,0,0,1,2.3,2.6,1.9,1.9,0,0,0,.3,1.5,2,2,0,0,0,.3,1.5c-0.3.8,0.4,2.3-.4,2.9h0Zm-2.5-4.8a6.7,6.7,0,0,0-1.4-1.8,7.1,7.1,0,0,0-4.1,0c-0.7,0-1,.7-1.6,1.1s-1.3,2.7-.1,3.7,0.3-.1.3,0a8.6,8.6,0,0,0,2.3-.4,2.6,2.6,0,0,0,2.3,0,2.6,2.6,0,0,0,2.8-.1,3.2,3.2,0,0,0-.3-2.6h-0.1Z"/><path class="c6d486f9-c9e4-4bdb-a327-726bd22067fd" d="M211,246.2c-0.2,1.5-1.9.8-2.7,0.4a15.4,15.4,0,0,0-3.2.1c-0.8.4-1.3,1.2-2.1,1.7a10.7,10.7,0,0,1-.8,2.3,13.2,13.2,0,0,0,.4,5.2,4.5,4.5,0,0,0,1.8,2.1,11.6,11.6,0,0,1,1.7.7,1.6,1.6,0,0,1,1.1.1c1.1-.1,2.2-0.7,3.1-0.7a6.7,6.7,0,0,1,.4,1.3c-0.2,1-1.9,1.1-3,1.3h-2.6l-2.5-1.2a8.3,8.3,0,0,1-2.2-2.9,8.7,8.7,0,0,0-.7-2.4c0-1.1,0-2.2.1-3.4a24.7,24.7,0,0,1,1.1-3.2,15.1,15.1,0,0,1,2.9-2.9,6.1,6.1,0,0,0,1.8-.4,20.1,20.1,0,0,1,3.2.1c0.7,0.6,1.9.5,2,1.7h0Z"/><path class="c6d486f9-c9e4-4bdb-a327-726bd22067fd" d="M218.7,240.1a2,2,0,0,1-.9,2.1c-1.5.2-2.5-.3-2.4-1.9a0.7,0.7,0,0,0,.2-0.4,2,2,0,0,1,3.1.4h0Zm-1.1,20.5a4.9,4.9,0,0,1-1.7-.3c-0.1-2.8-.1-5.1-0.4-8.2a9.1,9.1,0,0,0,.5-2.2,11.3,11.3,0,0,1-.2-2.8c0-.8-0.3-1.7.3-2.4s0.8-.5,1.1-0.2,0.8,1.9.9,2.9a50,50,0,0,0,.3,7.8,12.7,12.7,0,0,0-.2,2.8c0,1.1.1,2-.7,2.6h0.1Z"/><path class="c6d486f9-c9e4-4bdb-a327-726bd22067fd" d="M233.6,260.5c-0.8,0-.8-0.9-1.5-1.1a9.7,9.7,0,0,0-1.8,1,15.5,15.5,0,0,1-4.4.2c-0.7-.8-1.7-1.2-2.3-1.9s-0.2-2.3-.7-3.2a14.4,14.4,0,0,1,.3-2.4c0.3-.4.6-1.1,0.9-1.5a0.5,0.5,0,0,0,.4-0.3c1.4-.7,2.6-0.7,4.6-1a7.2,7.2,0,0,0,2.5,1.4c1.2-.4.1-1.8,0.3-2.9A4.8,4.8,0,0,0,231,247c-0.7-.1-1.1-0.4-1.8-0.6s-3,.7-4.1.4a2,2,0,0,1-.6-1.6c0.4-.6,1.5-0.5,2.1-1a30.4,30.4,0,0,1,3.3,0,6,6,0,0,0,2.5.9c1.1,1.6,2.4,3.6,2,6.4,0,0.5.2,0.8,0.2,1.3s-0.2,3.2-.3,4.9a13.3,13.3,0,0,1,.3,2,1.8,1.8,0,0,1-1.1,1h0Zm-6.7-7.7-1.4,1.1c0.2,0.3-.2.3-0.3,0.6s0.3,3.1,1.1,3.4a3.3,3.3,0,0,0,2.9.4,3.1,3.1,0,0,1,1.1-.3c0.9-.8,2-1,2.2-2.6a11.8,11.8,0,0,0-1.7-2.3c-1-.2-1.6-0.5-2.5-0.7l-0.2.2H227Z"/><path class="c6d486f9-c9e4-4bdb-a327-726bd22067fd" d="M243.1,237.8c-0.1,7.3-.5,14.3.4,23.2-0.8-.3-2-0.2-2.3-0.7s-0.2-1-.4-1.7a11.9,11.9,0,0,1,0-1.7c-0.4-3.7.6-8.1,0.2-11.7a19.2,19.2,0,0,1,.2-7.6,2.8,2.8,0,0,1,1.8.1h0Z"/><path class="c6d486f9-c9e4-4bdb-a327-726bd22067fd" d="M267.5,260.6c-0.5.3-1.1-.1-1.7-0.1s0.1-1-.2-1.1,0.1-.9.1-1.3,0.2-2.5-.3-3.1a3.4,3.4,0,0,0,.3-1.2,19.2,19.2,0,0,1,0-5.5,3.2,3.2,0,0,0-3.8-1.5,2.6,2.6,0,0,0-1.5,1.4,20.8,20.8,0,0,0-.4,3.3,43.3,43.3,0,0,1-.3,6.2c0.3,1.1.7,3-.9,3a1.4,1.4,0,0,1-1.1-1.2,4.6,4.6,0,0,1,.1-0.9,14.5,14.5,0,0,1,0-1.9,6.8,6.8,0,0,1-.2-0.9c0-.6.2-1.1,0.2-2.2a7.8,7.8,0,0,1-.1-3.2c-0.4-.6-0.2-1.6-0.5-2.4a1.9,1.9,0,0,1-.4-0.8,11.7,11.7,0,0,0-1.8-.8,16.4,16.4,0,0,1-2,.6,9.5,9.5,0,0,0-1.4,4,20.5,20.5,0,0,1,.2,6.7,6.8,6.8,0,0,1-.3,2.9,4.3,4.3,0,0,1-1.7-.2c-0.7-1-.1-2.1-0.3-3.4a3.3,3.3,0,0,0-.1-1.1c0.1-2.6-.1-6,0.6-8.9-0.7-.9-0.5-2.5.2-2.6s1,0.9,1.5,1.5,0.8-.8,1.3-1.1a4.5,4.5,0,0,1,1.4-.8l2.2,0.2a16.8,16.8,0,0,0,2.3,1.8,6.9,6.9,0,0,0,1.5-1.1l2.8-1h0.3c0.7,0.4,1.7.5,2.4,1a1.1,1.1,0,0,1,.7.8,2.8,2.8,0,0,1,.7.7c0.4,1.1.2,2.1,0.7,3.1-0.2,2.9.1,5.9,0,8.9a4.2,4.2,0,0,1-.4,2.2h0Z"/><path class="c6d486f9-c9e4-4bdb-a327-726bd22067fd" d="M285.1,253.5c-2.6.4-5.9-.1-8.4,0.2-0.6.1-1.5,0-1.9,0.3,0.4,3.1,2,5.3,5.5,5,1.3-.4,2.2-1.5,3.2-0.7s-0.9,1.9-2.3,2.4-1.9.1-2.7,0-2.3-.7-3.3-1a14.2,14.2,0,0,0-1.8-1.8,8.3,8.3,0,0,0-.3-1.2,10,10,0,0,1-.6-2.2,37.1,37.1,0,0,1,.2-5.6c0.3-.8.4-1.3,0.7-2s1.1-1.1,1.5-1.8l1.8-.7c1-.2,2.8.3,3.8-0.2a9.2,9.2,0,0,0,2,.7,15.4,15.4,0,0,1,2.3,2.6,1.9,1.9,0,0,0,.3,1.5,2,2,0,0,0,.3,1.5c-0.3.8,0.4,2.3-.4,2.9h0Zm-2.5-4.8a6.7,6.7,0,0,0-1.4-1.8,7.1,7.1,0,0,0-4.1,0c-0.7,0-1,.7-1.6,1.1s-1.3,2.7-.1,3.7,0.3-.1.3,0a8.6,8.6,0,0,0,2.3-.4,2.6,2.6,0,0,0,2.3,0,2.6,2.6,0,0,0,2.8-.1,3.2,3.2,0,0,0-.3-2.6h-0.1Z"/><path class="c6d486f9-c9e4-4bdb-a327-726bd22067fd" d="M302.9,260.3a7.1,7.1,0,0,1-1.9.2c-0.4-1.3-.2-2.7,0-4.3s-0.4-3-.2-4.8a9.6,9.6,0,0,0-.4-3.1,2.6,2.6,0,0,0-.1-0.4c-0.7-1-1.7-1.1-2.6-1.7a5.8,5.8,0,0,0-4.3,2.1c-0.1.8-.6,1.4-0.7,2.4a9,9,0,0,1-.1,3.5l0.3,1.2c-0.2,1.4-.3,3.2-0.3,4.6a2,2,0,0,1-1.7.4,4.2,4.2,0,0,1-.3-3.1c-0.1-.6-0.1-1.1-0.2-1.7s0.2-2.3.2-3.6a0.4,0.4,0,0,0,0-.4c0.1-2.2-.1-3.8.2-6a1.1,1.1,0,0,1,.2-1.2c1.5-.4,1.2,1.1,2.1,1.5a14.6,14.6,0,0,0,2-1.5,4.9,4.9,0,0,0,1.9-.4c0.5,0.3,1-.1,1.5,0a5.1,5.1,0,0,1,3.8,2.1,2.2,2.2,0,0,0,.5,1.3c-0.2.6,0.3,1.1,0.2,1.8a9.1,9.1,0,0,1-.1,1,27.2,27.2,0,0,1,.2,3.5,10.2,10.2,0,0,0,.2,3.5c-0.3,1.3.4,2.1-.2,3.1h0Z"/><path class="c6d486f9-c9e4-4bdb-a327-726bd22067fd" d="M312.5,238.1c0.2,2.2-.9,4.6.5,6.3a7.3,7.3,0,0,1,2.3-.1,2,2,0,0,1,.3,2.2c-0.8.2-2.1-.4-2.9,0.2a1.2,1.2,0,0,1-.4.6c0.2,1.4-.1,3,0.4,4.3s-0.1,2.2-.4,3.2a21.1,21.1,0,0,1,.3,2.9l1.1,0.8c1.2,0.4,2.7.1,2.3,1.8s-1.6.4-2.5,0.4a8.7,8.7,0,0,0-1.8-.6,9.3,9.3,0,0,1-1.3-1.7,8.3,8.3,0,0,0-.3-2.4c-0.3-2.6.1-5.8-.3-9.2-0.4-.5-1.5-0.5-2.6-0.6a2.2,2.2,0,0,1,.1-2.1c0.9-.1,2.6.1,2.9-0.9a14.2,14.2,0,0,0-.2-1.5c0.1-1.9-.2-3.2.4-4.3a2,2,0,0,1,1.9.4h0Z"/><path class="c6d486f9-c9e4-4bdb-a327-726bd22067fd" d="M332.5,253.5c-2.6.4-5.9-.1-8.4,0.2-0.6.1-1.5,0-1.9,0.3,0.4,3.1,2,5.3,5.5,5,1.3-.4,2.2-1.5,3.2-0.7s-0.9,1.9-2.3,2.4-1.9.1-2.7,0-2.3-.7-3.3-1a14.2,14.2,0,0,0-1.8-1.8,8.2,8.2,0,0,0-.3-1.2,10,10,0,0,1-.6-2.2,37.1,37.1,0,0,1,.2-5.6c0.3-.8.4-1.3,0.7-2s1.1-1.1,1.5-1.8l1.8-.7c1-.2,2.8.3,3.8-0.2a9.2,9.2,0,0,0,2,.7,15.3,15.3,0,0,1,2.3,2.6,1.9,1.9,0,0,0,.3,1.5,2,2,0,0,0,.3,1.5c-0.3.8,0.4,2.3-.4,2.9h0Zm-2.5-4.8a6.7,6.7,0,0,0-1.4-1.8,7.1,7.1,0,0,0-4.1,0c-0.7,0-1,.7-1.6,1.1s-1.3,2.7-.1,3.7,0.3-.1.3,0a8.6,8.6,0,0,0,2.3-.4,2.6,2.6,0,0,0,2.3,0,2.6,2.6,0,0,0,2.8-.1,3.2,3.2,0,0,0-.3-2.6H330Z"/><path class="c6d486f9-c9e4-4bdb-a327-726bd22067fd" d="M348,237.8c-0.1,7.3-.5,14.3.4,23.2-0.8-.3-2-0.2-2.3-0.7s-0.2-1-.4-1.7a11.9,11.9,0,0,1,0-1.7c-0.4-3.7.6-8.1,0.2-11.7a19.2,19.2,0,0,1,.2-7.6,2.8,2.8,0,0,1,1.8.1h0Z"/><path class="c6d486f9-c9e4-4bdb-a327-726bd22067fd" d="M359.5,244.2l0.2-.2c1.1,0.1,1.6.7,2.8,0.5s2.4,2.4,3.2,3.4,0.2,2,.9,2.8a2.6,2.6,0,0,0,.2,1.8,3.1,3.1,0,0,0,0,1.2c0,1-.7,1.7-0.7,2.8a9,9,0,0,0-1.3,2.1,10.8,10.8,0,0,1-2.5,1.7,7.9,7.9,0,0,1-4.6.1c-0.9-.4-1.7-0.9-2.6-1.4a2.3,2.3,0,0,0-.9-1.3c-0.1-.9-0.7-1.3-0.8-2.1s-0.2-1.4-.4-2.1,0.4-3,.3-4.5a4.9,4.9,0,0,0,1.3-2.1,4.1,4.1,0,0,0,1.2-1.5,25.1,25.1,0,0,1,3.8-1.2h0Zm-1.6,2.6a14.5,14.5,0,0,0-1.7,1.5c-0.9,1.8-.9,3.8-0.8,6.4a7.5,7.5,0,0,0,2.1,3.4,9.6,9.6,0,0,0,3.5.7,12.1,12.1,0,0,1,1.8-1.1l0.5-.8,0.3-.2c0.1-.2,0-0.5.1-0.9l0.4-.5a14.4,14.4,0,0,1,.4-2.5c-0.2-.8-0.1-1.8-0.3-2.7a15.3,15.3,0,0,1-1-2.3,16,16,0,0,0-2.5-1.3,13.2,13.2,0,0,0-1.5.1,5.8,5.8,0,0,0-1.4.2h0Z"/><path class="c6d486f9-c9e4-4bdb-a327-726bd22067fd" d="M376.3,246.5a4.4,4.4,0,0,0-2.9.9,11.4,11.4,0,0,0-.3,1.5,3.3,3.3,0,0,0,1.8,1.9,15.7,15.7,0,0,0,2.5,1.1,3.8,3.8,0,0,0,2,1.1,3.7,3.7,0,0,0,.9,1.3c0.3,0.5.4,0.9,0.7,1.4a4.1,4.1,0,0,1-.7,3.3,5.2,5.2,0,0,1-1.3,1.2c-0.7.4-2,.4-2.9,0.7s-4.5-.1-5.3-1.8,0.5-.7.7-1.1,3.7,1.3,5.7.8a3.1,3.1,0,0,0,1.5-2.1c0-1.5-1.4-2.1-2.3-2.8a11.6,11.6,0,0,0-2.4-.9,10.2,10.2,0,0,1-2.5-1.9,10.5,10.5,0,0,1-.8-2c0-1,.3-1.5.2-2.6l1.2-1.5,1.8-.7a14.8,14.8,0,0,1,3.8.1c0.3,0.3,1.3,0,1.5.7S377.5,246.6,376.3,246.5Z"/><path class="c6d486f9-c9e4-4bdb-a327-726bd22067fd" d="M46,298.3a1.1,1.1,0,0,1-1.1,1.1H39.8a1,1,0,0,1-1.1-1.1V285.1H29.9v13.2a1.1,1.1,0,0,1-1.1,1.1H23.6a1,1,0,0,1-1.1-1.1V285.1H19.9a1,1,0,0,1-1.1-1.1v-4.7a1.1,1.1,0,0,1,1.1-1.1h2.7v-1.6c0-6.2,2.9-9.9,7.7-9.9h0.4a8,8,0,0,1,4.4,1.4,1.5,1.5,0,0,1,.8,1,3.5,3.5,0,0,1-.2,1l-1.1,3.1a0.8,0.8,0,0,1-.8.5H33a4.8,4.8,0,0,0-1.7-.2c-1.3,0-1.5,1.4-1.5,3.2v1.6h15a1.1,1.1,0,0,1,1.1,1,0.9,0.9,0,0,1,.1.4v18.7Z"/><path class="c6d486f9-c9e4-4bdb-a327-726bd22067fd" d="M56.7,278.5a1.3,1.3,0,0,1,1.5,1l0.3,1.1c1.4-2,4.1-2.4,5.9-2.4,6,0,8.3,4.5,8.3,9.5v10.6a1,1,0,0,1-1.1,1.1H66.4a1.1,1.1,0,0,1-1.1-1.1v-9.9c0-1.8-.2-3.3-2.7-3.3s-2.4,1.5-2.4,3.3v9.9a1,1,0,0,1-1.1,1.1H54a1.1,1.1,0,0,1-1.1-1.1V279.6a1.1,1.1,0,0,1,1.1-1.1h2.7Z"/><path class="c6d486f9-c9e4-4bdb-a327-726bd22067fd" d="M97.4,290a1.1,1.1,0,0,1-1.1,1.1H84.6c0.4,2.3,2.8,2.6,4.1,2.6a10.8,10.8,0,0,0,5-.9h0.3a0.9,0.9,0,0,1,.7.4l1.4,2.4a1.2,1.2,0,0,1,.3.7,1.6,1.6,0,0,1-.3.9c-1.4,1.9-4.6,2.6-7.3,2.6-5.9,0-11.6-2.9-11.6-10.9,0-5.8,3-10.5,10.2-10.5s10.1,3.3,10.1,10V290Zm-12.9-2.9h5.6a2.5,2.5,0,0,0-2.7-2.4A2.6,2.6,0,0,0,84.5,287.1Z"/><path class="c6d486f9-c9e4-4bdb-a327-726bd22067fd" d="M109.3,293.7c0.8,0,1.8-.1,1.8-0.7s-10-2-10-8.1c0-4.5,4.1-6.6,8.9-6.6a18.3,18.3,0,0,1,6.3,1.3,0.9,0.9,0,0,1,.6,1.2l-0.9,3.7c-0.1.4-.3,0.6-1.1,0.6a21,21,0,0,0-3.9-.6c-1.9,0-2.5.1-2.5,0.8s9.9,2.8,9.9,7.8-4.9,6.6-9.1,6.6a14.2,14.2,0,0,1-7.8-2.2,1.2,1.2,0,0,1-.5-0.9,29.4,29.4,0,0,1,1-3.7,1.1,1.1,0,0,1,.9-0.7h0.5A15.3,15.3,0,0,0,109.3,293.7Z"/><path class="c6d486f9-c9e4-4bdb-a327-726bd22067fd" d="M147.7,297.3a6.7,6.7,0,0,1-5.7,2.4c-5.5,0-9.7-5-9.7-10.8s4.4-10.6,9.1-10.6a8,8,0,0,1,5,1.4v-8.8a1.1,1.1,0,0,1,1.1-1.1h5.1a1,1,0,0,1,1.1,1.1v27.5a1.1,1.1,0,0,1-1.1,1.1h-3.1a1.3,1.3,0,0,1-1.5-1Zm-1.3-8.4a3.4,3.4,0,1,0-6.8,0c0,2.6,1.5,4.4,3.3,4.4S146.4,291.5,146.4,288.9Z"/><path class="c6d486f9-c9e4-4bdb-a327-726bd22067fd" d="M179,290a1.1,1.1,0,0,1-1.1,1.1H166.2c0.4,2.3,2.8,2.6,4.1,2.6a10.8,10.8,0,0,0,5-.9h0.3a0.9,0.9,0,0,1,.7.4l1.4,2.4a1.3,1.3,0,0,1,.3.7,1.6,1.6,0,0,1-.3.9c-1.4,1.9-4.6,2.6-7.3,2.6-5.9,0-11.6-2.9-11.6-10.9,0-5.8,3-10.5,10.2-10.5s10.1,3.3,10.1,10V290Zm-12.9-2.9h5.6a2.5,2.5,0,0,0-2.7-2.4A2.6,2.6,0,0,0,166.1,287.1Z"/><path class="c6d486f9-c9e4-4bdb-a327-726bd22067fd" d="M201.3,293.7c0.8,0,1.8-.1,1.8-0.7s-10-2-10-8.1c0-4.5,4.1-6.6,8.9-6.6a18.3,18.3,0,0,1,6.3,1.3,0.9,0.9,0,0,1,.6,1.2l-0.9,3.7c-0.1.4-.3,0.6-1.1,0.6a21,21,0,0,0-3.9-.6c-1.9,0-2.5.1-2.5,0.8s9.9,2.8,9.9,7.8-4.9,6.6-9.1,6.6a14.2,14.2,0,0,1-7.8-2.2,1.2,1.2,0,0,1-.5-0.9,29.4,29.4,0,0,1,1-3.7,1.1,1.1,0,0,1,.9-0.7h0.5A15.3,15.3,0,0,0,201.3,293.7Z"/><path class="c6d486f9-c9e4-4bdb-a327-726bd22067fd" d="M234.2,290a1.1,1.1,0,0,1-1.1,1.1H221.4c0.4,2.3,2.8,2.6,4.1,2.6a10.8,10.8,0,0,0,5-.9h0.3a0.9,0.9,0,0,1,.7.4l1.4,2.4a1.3,1.3,0,0,1,.3.7,1.6,1.6,0,0,1-.3.9c-1.4,1.9-4.6,2.6-7.3,2.6-5.9,0-11.6-2.9-11.6-10.9,0-5.8,3-10.5,10.2-10.5s10.1,3.3,10.1,10V290Zm-12.9-2.9h5.6a2.5,2.5,0,0,0-2.7-2.4A2.6,2.6,0,0,0,221.3,287.1Z"/><path class="c6d486f9-c9e4-4bdb-a327-726bd22067fd" d="M260.8,287.5c0-1.7-1-2.3-1.9-2.3a2.1,2.1,0,0,0-1.9,1.3,8,8,0,0,1,.1,1.1v10.8a1.1,1.1,0,0,1-1.1,1.1h-4.4a1,1,0,0,1-1.1-1.1V288.1c0-1.8-.9-3-1.9-3s-2,1.2-2,3v10.2a1.1,1.1,0,0,1-1.1,1.1h-5.1a1,1,0,0,1-1.1-1.1V279.6a1,1,0,0,1,1.1-1.1H244a1.1,1.1,0,0,1,1.1,1.1v0.9a5.7,5.7,0,0,1,4.9-2.2,6.1,6.1,0,0,1,4.9,2.4,7.6,7.6,0,0,1,5.7-2.4c5,0,7.6,3.9,7.6,9v11a1.1,1.1,0,0,1-1.1,1.1h-5.1a1,1,0,0,1-1.1-1.1V287.5Z"/><path class="c6d486f9-c9e4-4bdb-a327-726bd22067fd" d="M285.1,297.3a7.1,7.1,0,0,1-5.3,2.4c-1.5,0-6.9-.6-6.9-6.9,0-4.1,2.9-5.7,6.8-5.7a10,10,0,0,1,4.1.8c-0.5-2.1-1.4-2.6-3.3-2.6a13.3,13.3,0,0,0-3.2.3h-0.6a1.5,1.5,0,0,1-1.4-.7l-1.1-3.2a3.5,3.5,0,0,1-.1-0.8,1.3,1.3,0,0,1,.6-1.2,15.7,15.7,0,0,1,6.7-1.3c6.8,0,9.8,3.7,9.8,9.6v10.5a1.1,1.1,0,0,1-1.1,1.1h-3.1a1.3,1.3,0,0,1-1.5-1Zm-1.3-4.1v-1.3a2.9,2.9,0,0,0-1.9-.7c-1.5,0-2.3.4-2.3,1.3s0.9,1.4,2.3,1.4A3.4,3.4,0,0,0,283.8,293.2Z"/><path class="c6d486f9-c9e4-4bdb-a327-726bd22067fd" d="M301.4,278.5a1.3,1.3,0,0,1,1.5,1l0.3,1.1c1.4-2,4.1-2.4,5.9-2.4,6,0,8.3,4.5,8.3,9.5v10.6a1,1,0,0,1-1.1,1.1h-5.1a1.1,1.1,0,0,1-1.1-1.1v-9.9c0-1.8-.2-3.3-2.7-3.3s-2.4,1.5-2.4,3.3v9.9a1,1,0,0,1-1.1,1.1h-5.1a1.1,1.1,0,0,1-1.1-1.1V279.6a1.1,1.1,0,0,1,1.1-1.1h2.7Z"/><path class="c6d486f9-c9e4-4bdb-a327-726bd22067fd" d="M334.3,297.3a7.1,7.1,0,0,1-5.3,2.4c-1.5,0-6.9-.6-6.9-6.9,0-4.1,2.9-5.7,6.8-5.7a10,10,0,0,1,4.1.8c-0.5-2.1-1.4-2.6-3.3-2.6a13.3,13.3,0,0,0-3.2.3h-0.6a1.5,1.5,0,0,1-1.4-.7l-1.1-3.2a3.5,3.5,0,0,1-.1-0.8,1.3,1.3,0,0,1,.6-1.2,15.7,15.7,0,0,1,6.7-1.3c6.8,0,9.8,3.7,9.8,9.6v10.5a1.1,1.1,0,0,1-1.1,1.1h-3.1a1.3,1.3,0,0,1-1.5-1Zm-1.3-4.1v-1.3a2.9,2.9,0,0,0-1.9-.7c-1.5,0-2.3.4-2.3,1.3s0.9,1.4,2.3,1.4A3.4,3.4,0,0,0,333,293.2Z"/></svg>