<?xml version="1.0" encoding="utf-8"?>
<!-- Generator: Adobe Illustrator 19.2.0, SVG Export Plug-In . SVG Version: 6.00 Build 0)  -->
<svg version="1.1" id="Capa_1" xmlns="http://www.w3.org/2000/svg" xmlns:xlink="http://www.w3.org/1999/xlink" x="0px" y="0px"
	 viewBox="0 0 795.1 279" style="enable-background:new 0 0 795.1 279;" xml:space="preserve">
<style type="text/css">
	.st0{fill:none;stroke:#D18B2B;stroke-width:3.0242;stroke-miterlimit:10;}
	.st1{fill:#FFFFFF;}
</style>
<g>
	<polyline class="st0" points="419.6,46.3 388,46.3 388,149.2 419.1,149.2 	"/>
	<polyline class="st0" points="748.3,46.3 780,46.3 780,149.2 748.8,149.2 	"/>
	<g>
		<path class="st1" d="M425,93.5c-8.4,0-14.9-6.8-14.9-15.2s6.7-15.2,15.2-15.2c4.2,0,8.2,1.5,11.1,4.3c0.1,0.3,0.3,0.6,0.3,0.8
			c0,0.3-0.2,0.6-0.3,0.8l-3.2,2.8c-0.2,0.2-0.5,0.3-0.7,0.3c-0.4,0-0.6-0.1-1-0.3c-1.6-1.4-3.9-1.9-6.2-1.9c-4.5,0-7.8,3.9-7.8,8.4
			s3.6,8.6,7.8,8.6c2.8,0,3.9,0,6.7-2.1c0.3-0.3,0.6-0.4,0.9-0.4s0.5,0.1,0.7,0.3l2.5,2.8c0.2,0.2,0.4,0.4,0.4,0.8
			c0,0.3-0.2,0.6-0.3,0.8C433.4,92.6,429.6,93.5,425,93.5z"/>
		<path class="st1" d="M458.9,75.1c0.6,0,1.1,0.5,1.1,1.1v4.7c0,0.7-0.5,1.1-1.1,1.1h-10v4.3h12.7c0.6,0,1.1,0.5,1.1,1.1v4.7
			c0,0.7-0.5,1.1-1.1,1.1h-19c-0.6,0-1.1-0.5-1.1-1.1V64.7c0-0.6,0.5-1.1,1.1-1.1h19c0.6,0,1.1,0.5,1.1,1.1v4.9
			c0,0.7-0.5,1.1-1.1,1.1h-12.7v4.5H458.9z"/>
		<path class="st1" d="M480.5,83.8H476v8.3c0,0.6-0.5,1.1-1.1,1.1h-5.1c-0.7,0-1.1-0.5-1.1-1.1V64.7c0-0.6,0.4-1.1,1.1-1.1h13
			c5.1,0,9.2,4,9.2,9.8c0,3.9-1.8,6.9-4.7,8.6l5,10c0,0.8-0.5,1.4-1.3,1.4h-5c-0.9,0-1.5-0.5-1.7-1.1L480.5,83.8z M484.5,73.8
			c0-2.1-0.9-2.9-2.1-2.9H476v6h6.4C483.6,76.9,484.5,75.6,484.5,73.8z"/>
		<path class="st1" d="M511.1,93.5c-8.4,0-14.9-6.8-14.9-15.2s6.7-15.2,15.2-15.2c4.2,0,8.2,1.5,11.1,4.3c0.1,0.3,0.3,0.6,0.3,0.8
			c0,0.3-0.2,0.6-0.3,0.8l-3.2,2.8c-0.2,0.2-0.5,0.3-0.7,0.3c-0.4,0-0.6-0.1-1-0.3c-1.6-1.4-3.9-1.9-6.2-1.9c-4.5,0-7.8,3.9-7.8,8.4
			s3.6,8.6,7.8,8.6c2.8,0,3.9,0,6.7-2.1c0.3-0.3,0.6-0.4,0.9-0.4s0.5,0.1,0.7,0.3l2.5,2.8c0.2,0.2,0.4,0.4,0.4,0.8
			c0,0.3-0.2,0.6-0.3,0.8C519.6,92.6,515.8,93.5,511.1,93.5z"/>
		<path class="st1" d="M535.1,87.9l-2.1,4.5c-0.3,0.4-0.6,0.9-1.3,0.9h-5.6c-0.6,0-1.1-0.5-1.1-1.2l13.5-27.8
			c0.4-0.4,0.9-0.8,1.5-0.8s1.1,0.4,1.5,0.8L555.1,92c0,0.7-0.5,1.2-1.1,1.2h-5.6c-0.6,0-1-0.5-1.3-0.9l-2.1-4.5H535.1z M542.3,81.8
			l-2.2-4.5l-2.3,4.5H542.3z"/>
		<path class="st1" d="M570.7,93.2c-0.6,0-1.1-0.5-1.1-1.1V64.7c0-0.6,0.5-1.1,1.1-1.1h9.9c8.4,0,14.3,6.6,14.3,14.9
			s-5.9,14.7-14.3,14.7H570.7z M587.6,78.7c0-4.5-3.2-8-7.7-8h-3v15.7h3C584.4,86.3,587.6,83.1,587.6,78.7z"/>
		<path class="st1" d="M617,75.1c0.6,0,1.1,0.5,1.1,1.1v4.7c0,0.7-0.5,1.1-1.1,1.1h-10v4.3h12.7c0.6,0,1.1,0.5,1.1,1.1v4.7
			c0,0.7-0.5,1.1-1.1,1.1h-19c-0.6,0-1.1-0.5-1.1-1.1V64.7c0-0.6,0.5-1.1,1.1-1.1h19c0.6,0,1.1,0.5,1.1,1.1v4.9
			c0,0.7-0.5,1.1-1.1,1.1H607v4.5H617z"/>
		<path class="st1" d="M626.8,64.7c0-0.6,0.4-1.1,1.1-1.1h5.1c0.6,0,1.1,0.5,1.1,1.1v21.7h12.7c0.6,0,1.1,0.5,1.1,1.1v4.7
			c0,0.7-0.5,1.1-1.1,1.1h-19c-0.7,0-1.1-0.5-1.1-1.1V64.7z"/>
		<path class="st1" d="M664.4,84.5h4.6c0.6,0,1.1,0.2,1.5,1c0.7,1.1,2,1.6,3.4,1.6c1.8,0,4-0.7,4-3.6c0-1.7-1.1-3.2-3.8-3.2
			c-1.4,0-2.4,0.3-3,0.6c-0.6,0.4-1.6,0.6-2.2,0.6c-0.2,0-0.8,0-4-0.3c-0.6-0.2-1-0.6-1-1V64.7c0-0.6,0.5-1.1,1.1-1.1h17.4
			c0.6,0,1.1,0.5,1.1,1.1v4.9c0,0.7-0.5,1.1-1.1,1.1h-11.2v3.5c1.3-0.5,2.7-0.6,3.7-0.6c5.9,0,10.4,4,10.4,10.1
			c0,6-5.3,9.9-11.1,9.9c-5.4,0-9.9-2.4-10.8-7.8C663.3,85,663.7,84.5,664.4,84.5z"/>
		<path class="st1" d="M688.6,78.4c0-8.4,4.9-15.2,13.3-15.2s13.3,6.8,13.3,15.2s-4.9,15.2-13.3,15.2S688.6,86.7,688.6,78.4z
			 M707.8,78.5c0-4.5-1.6-8.4-6-8.4c-4.3,0-5.9,3.9-5.9,8.4s1.6,8.6,5.9,8.6C706.2,87.1,707.8,83.1,707.8,78.5z"/>
		<path class="st1" d="M720.6,71.3c0-4.3,3.6-7.7,7.8-7.7c4.2,0,7.8,3.4,7.8,7.7c0,4.2-3.6,7.8-7.8,7.8
			C724.2,79.1,720.6,75.5,720.6,71.3z M730.6,71.3c0-1.4-0.9-2.2-2.1-2.2c-1.2,0-2.1,0.8-2.1,2.2s0.9,2.5,2.1,2.5
			C729.6,73.8,730.6,72.7,730.6,71.3z M737.5,92.4c-0.3,0.4-0.8,0.8-1.5,0.8h-5.3c-0.6,0-1.1-0.5-1.1-1.3l14.9-27.5
			c0.2-0.4,0.6-0.9,1.3-0.9h5.5c0.7,0,1.1,0.5,1.1,1.3L737.5,92.4z M745.6,85.7c0-4.3,3.6-7.7,7.8-7.7c4.2,0,7.8,3.4,7.8,7.7
			c0,4.2-3.6,7.8-7.8,7.8C749.2,93.5,745.6,89.9,745.6,85.7z M755.6,85.7c0-1.4-0.9-2.2-2.1-2.2c-1.2,0-2.1,0.8-2.1,2.2
			s0.9,2.5,2.1,2.5C754.7,88.2,755.6,87.1,755.6,85.7z"/>
		<path class="st1" d="M479.5,129.9c-1.7,2.1-3.9,2.4-5.7,2.4c-5.5,0-9.7-5-9.7-10.8c0-5.9,4.4-10.6,9.1-10.6c0.8,0,3.2,0,5,1.4
			v-8.8c0-0.6,0.5-1.1,1.1-1.1h5.1c0.7,0,1.1,0.5,1.1,1.1v27.5c0,0.6-0.5,1.1-1.1,1.1h-3.1c-0.9,0-1.2-0.2-1.5-1L479.5,129.9z
			 M478.2,121.5c0-2.3-1.5-3.8-3.4-3.8c-1.8,0-3.3,1.5-3.3,3.8c0,2.6,1.5,4.4,3.3,4.4C476.7,125.9,478.2,124.1,478.2,121.5z"/>
		<path class="st1" d="M510.8,122.6c0,0.6-0.5,1.1-1.1,1.1H498c0.4,2.3,2.8,2.6,4.1,2.6c1.7,0,3.1-0.1,5-0.9
			c0.1-0.1,0.2-0.1,0.3-0.1c0.2,0,0.5,0.1,0.7,0.4l1.4,2.4c0.2,0.2,0.3,0.5,0.3,0.7c0,0.3-0.1,0.7-0.3,0.9c-1.4,1.9-4.6,2.6-7.3,2.6
			c-5.9,0-11.6-2.9-11.6-10.9c0-5.8,3-10.5,10.2-10.5c5.7,0,10.1,3.3,10.1,10V122.6z M497.9,119.7h5.6c-0.3-2.1-1.9-2.4-2.7-2.4
			C499.8,117.3,498.3,117.5,497.9,119.7z"/>
		<path class="st1" d="M533.5,130.9c0,0.6-0.5,1.1-1.1,1.1h-5.1c-0.7,0-1.1-0.5-1.1-1.1v-27.5c0-0.6,0.4-1.1,1.1-1.1h5.1
			c0.6,0,1.1,0.5,1.1,1.1V130.9z"/>
		<path class="st1" d="M538.5,121.8c0-5.9,5-10.9,10.9-10.9c5.9,0,10.9,5.1,10.9,10.9c0,5.8-5,10.5-10.9,10.5
			C543.5,132.3,538.5,127.6,538.5,121.8z M552.9,121.8c0-2.4-1.6-4.1-3.7-4.1c-1.9,0-3.5,1.7-3.5,4.1c0,2.2,1.6,4.1,3.5,4.1
			C551.3,125.9,552.9,124.1,552.9,121.8z"/>
		<path class="st1" d="M572.2,126.3c0.8,0,1.8-0.1,1.8-0.7c0-1.8-10-2-10-8.1c0-4.5,4.1-6.6,8.9-6.6c2.5,0,5.2,0.8,6.3,1.3
			c0.2,0.1,0.4,0.3,0.6,0.7c0,0.2,0,0.4-0.1,0.5l-0.9,3.7c-0.1,0.4-0.3,0.6-1.1,0.6c-0.3,0-2-0.6-3.9-0.6c-1.9,0-2.5,0.1-2.5,0.8
			c0,1.6,9.9,2.8,9.9,7.8c0,5.4-4.9,6.6-9.1,6.6c-2.5,0-5.2-0.5-7.8-2.2c-0.2-0.2-0.5-0.5-0.5-0.9c0-0.1,0-0.3,1-3.7
			c0.2-0.5,0.6-0.7,0.9-0.7c0.2,0,0.3,0,0.5,0.1C566.9,125.3,569.8,126.3,572.2,126.3z"/>
		<path class="st1" d="M609.4,125c0.4-0.3,0.9-0.5,1.3-0.5c0.3,0,0.7,0.2,0.9,0.4l2,2.1c0.2,0.3,0.5,0.7,0.5,1.1
			c0,0.3-0.1,0.8-0.3,1.1c-2.3,2.5-5.1,2.9-7.7,2.9c-6,0-10.9-5-10.9-10.8c0-5.9,5-10.6,10.9-10.6c2.7,0,5.6,0.9,7.6,2.8
			c0.2,0.3,0.3,0.9,0.3,1c0,0.5-0.3,0.9-0.5,1.1l-2.1,2.7c-0.3,0.3-0.8,0.4-0.9,0.4h-0.3c-0.6-0.2-0.7-0.3-0.7-0.3
			c-0.7-0.4-1.9-0.8-3.4-0.8c-1.9,0-3.6,1.4-3.6,3.8c0,2.4,1.7,4.4,4,4.4C607.3,125.9,608.3,125.7,609.4,125z"/>
		<path class="st1" d="M618.8,103.4c0-0.6,0.5-1.1,1.1-1.1h5.1c0.7,0,1.1,0.5,1.1,1.1v8.6c1.4-1,3-1.1,4.1-1.1c6,0,8.3,4.5,8.3,9.5
			v10.6c0,0.6-0.4,1.1-1.1,1.1h-5.1c-0.6,0-1.1-0.5-1.1-1.1V121c0-1.8-0.2-3.3-2.7-3.3c-1.7,0-2.4,1.5-2.4,3.3v9.9
			c0,0.6-0.4,1.1-1.1,1.1h-5.1c-0.6,0-1.1-0.5-1.1-1.1V103.4z"/>
		<path class="st1" d="M647.7,100.7c2.2,0,4.1,1.8,4.1,4.1c0,2.2-1.8,4.1-4.1,4.1c-2.2,0-4.1-1.8-4.1-4.1
			C643.6,102.5,645.5,100.7,647.7,100.7z M651.4,130.9c0,0.6-0.5,1.1-1.1,1.1h-5.1c-0.7,0-1.1-0.5-1.1-1.1v-18.7
			c0-0.6,0.4-1.1,1.1-1.1h5.1c0.6,0,1.1,0.5,1.1,1.1V130.9z"/>
		<path class="st1" d="M665.6,130.9c0,0.6-0.5,1.1-1.1,1.1h-5.1c-0.7,0-1.1-0.5-1.1-1.1v-27.5c0-0.6,0.4-1.1,1.1-1.1h5.1
			c0.6,0,1.1,0.5,1.1,1.1V130.9z"/>
		<path class="st1" d="M690.9,122.6c0,0.6-0.5,1.1-1.1,1.1H678c0.4,2.3,2.8,2.6,4.1,2.6c1.7,0,3.1-0.1,5-0.9
			c0.1-0.1,0.2-0.1,0.3-0.1c0.2,0,0.5,0.1,0.7,0.4l1.4,2.4c0.2,0.2,0.3,0.5,0.3,0.7c0,0.3-0.1,0.7-0.3,0.9c-1.4,1.9-4.6,2.6-7.3,2.6
			c-5.9,0-11.6-2.9-11.6-10.9c0-5.8,3-10.5,10.2-10.5c5.7,0,10.1,3.3,10.1,10V122.6z M678,119.7h5.6c-0.3-2.1-1.9-2.4-2.7-2.4
			C679.9,117.3,678.3,117.5,678,119.7z"/>
		<path class="st1" d="M699.6,111.1c0.9,0,1.2,0.2,1.5,1l0.3,1.1c1.4-2,4.1-2.4,5.9-2.4c6,0,8.3,4.5,8.3,9.5v10.6
			c0,0.6-0.4,1.1-1.1,1.1h-5.1c-0.6,0-1.1-0.5-1.1-1.1V121c0-1.8-0.2-3.3-2.7-3.3c-1.7,0-2.4,1.5-2.4,3.3v9.9c0,0.6-0.4,1.1-1.1,1.1
			h-5.1c-0.6,0-1.1-0.5-1.1-1.1v-18.7c0-0.6,0.5-1.1,1.1-1.1H699.6z"/>
		<path class="st1" d="M720,121.8c0-5.9,5-10.9,10.9-10.9c5.9,0,10.9,5.1,10.9,10.9c0,5.8-5,10.5-10.9,10.5
			C725,132.3,720,127.6,720,121.8z M734.4,121.8c0-2.4-1.6-4.1-3.7-4.1c-1.9,0-3.5,1.7-3.5,4.1c0,2.2,1.6,4.1,3.5,4.1
			C732.8,125.9,734.4,124.1,734.4,121.8z"/>
		<path class="st1" d="M753.7,126.3c0.8,0,1.8-0.1,1.8-0.7c0-1.8-10-2-10-8.1c0-4.5,4.1-6.6,8.9-6.6c2.5,0,5.2,0.8,6.3,1.3
			c0.2,0.1,0.4,0.3,0.6,0.7c0,0.2,0,0.4-0.1,0.5l-0.9,3.7c-0.1,0.4-0.3,0.6-1.1,0.6c-0.3,0-2-0.6-3.9-0.6c-1.9,0-2.5,0.1-2.5,0.8
			c0,1.6,9.9,2.8,9.9,7.8c0,5.4-4.9,6.6-9.1,6.6c-2.5,0-5.2-0.5-7.8-2.2c-0.2-0.2-0.5-0.5-0.5-0.9c0-0.1,0-0.3,1-3.7
			c0.2-0.5,0.6-0.7,0.9-0.7c0.2,0,0.3,0,0.5,0.1C748.4,125.3,751.3,126.3,753.7,126.3z"/>
	</g>
	<g>
		<path class="st1" d="M428.2,167.8c-0.2,1.5-1.9,0.8-2.7,0.4c-1.1,0-2.6-0.1-3.2,0.1c-0.8,0.4-1.3,1.2-2.1,1.7
			c-0.2,0.7-0.4,1.5-0.8,2.3c-0.2,1.9,0,3.7,0.4,5.2c0.3,0.8,1,1.6,1.8,2.1c0.6,0.3,1.3,0.3,1.7,0.7c0.4,0,0.9-0.1,1.1,0.1
			c1.1-0.1,2.2-0.7,3.1-0.7c0.2,0.5,0.3,0.9,0.4,1.3c-0.2,1-1.9,1.1-3,1.3c-1-0.1-1.5-0.1-2.6-0.1c-0.9-0.4-1.7-0.8-2.5-1.2
			c-1.1-0.9-1.5-1.8-2.2-2.9c-0.2-1-0.4-1.8-0.7-2.4c0-1.1,0-2.2,0.1-3.4c0.3-1.3,0.7-1.9,1.1-3.2c0.7-0.9,1.8-2,2.9-2.9
			c0.5-0.1,1.3-0.1,1.8-0.4c1.1-0.1,2.2,0.1,3.2,0.1C426.9,166.6,428.1,166.6,428.2,167.8L428.2,167.8z"/>
		<path class="st1" d="M438.1,165.8c0,0,0-0.1,0.2-0.2c1.1,0.1,1.6,0.7,2.8,0.5c1.6,0.7,2.4,2.4,3.2,3.4c0.4,0.7,0.2,2,0.9,2.8
			c-0.3,0.6,0,1.2,0.2,1.8c-0.2,0.4,0,0.8,0,1.2c0,1-0.7,1.7-0.7,2.8c-0.5,0.6-1,1.3-1.3,2.1c-0.8,0.5-1.5,1.4-2.5,1.7
			c-1.4,0.4-3.1,0.7-4.6,0.1c-0.9-0.4-1.7-0.9-2.6-1.4c-0.2-0.6-0.5-1-0.9-1.3c-0.1-0.9-0.7-1.3-0.8-2.1c-0.3-0.7-0.2-1.4-0.4-2.1
			c-0.2-1.5,0.4-3,0.3-4.5c0.6-0.6,1-1.2,1.3-2.1c0.5-0.4,0.9-0.8,1.2-1.5C435.3,166.7,436.7,166.1,438.1,165.8L438.1,165.8z
			 M436.5,168.4c-0.5,0.5-1.2,0.9-1.7,1.5c-0.9,1.8-0.9,3.8-0.8,6.4c0.4,1.4,1.1,2.4,2.1,3.4c0.9,0.2,2,0.8,3.5,0.7
			c0.6-0.5,1.2-0.7,1.8-1.1c0.2-0.3,0.4-0.7,0.5-0.8c0.1-0.1,0.2-0.2,0.3-0.2c0.1-0.2,0-0.5,0.1-0.9c0.1-0.2,0.3-0.4,0.4-0.5
			c0.2-0.8,0-1.6,0.4-2.5c-0.2-0.8-0.1-1.8-0.3-2.7c-0.4-0.8-0.7-1.5-1-2.3c-0.9-0.4-1.5-1-2.5-1.3c-0.4,0.2-1.2-0.1-1.5,0.1
			C437.3,168.1,437.1,168.5,436.5,168.4L436.5,168.4z"/>
		<path class="st1" d="M462.9,181.9c-0.5,0.3-1.3,0.1-1.9,0.2c-0.4-1.3-0.2-2.7,0-4.3c0-1.7-0.4-3-0.2-4.8c0-1.2-0.2-2.3-0.4-3.1
			c0-0.2-0.1-0.2-0.1-0.4c-0.7-1-1.7-1.1-2.6-1.7c-2,0.2-3.2,0.9-4.3,2.1c-0.1,0.8-0.6,1.4-0.7,2.4c0.1,1.2,0.2,2.7-0.1,3.5
			c0.1,0.5,0.2,0.8,0.3,1.2c-0.2,1.4-0.3,3.2-0.3,4.6c-0.3,0.3-1.1,0.6-1.7,0.4c-0.4-0.8-0.6-2.1-0.3-3.1c-0.1-0.6-0.1-1.1-0.2-1.7
			c0-0.8,0.2-2.3,0.2-3.6c0.1-0.2,0-0.4,0-0.4c0.1-2.2-0.1-3.8,0.2-6c-0.1-0.3-0.2-0.9,0.2-1.2c1.5-0.4,1.2,1.1,2.1,1.5
			c0.9-0.4,1.3-1,2-1.5c0.7,0,1.3-0.2,1.9-0.4c0.5,0.3,1-0.1,1.5,0c1.7,0.2,2.9,0.9,3.8,2.1c0,0.4,0.2,1,0.5,1.3
			c-0.2,0.6,0.3,1.1,0.2,1.8c0,0.3-0.1,0.6-0.1,1c0,0.8,0.4,2.3,0.2,3.5c0,0.9-0.3,2.2,0.2,3.5C462.8,180.2,463.5,180.9,462.9,181.9
			L462.9,181.9z"/>
		<path class="st1" d="M473.5,168.1c-1.3,0-2.4,0.4-2.9,0.9c0,0.7-0.3,0.9-0.3,1.5c0.3,0.9,0.9,1.5,1.8,1.9c0.8,0.3,1.5,0.9,2.5,1.1
			c0.4,0.4,1.1,0.9,2,1.1c0.2,0.6,0.6,0.9,0.9,1.3c0.3,0.5,0.4,0.9,0.7,1.4c0.3,1.6-0.2,2.4-0.7,3.3c-0.5,0.4-0.7,0.9-1.3,1.2
			c-0.7,0.4-2,0.4-2.9,0.7c-2,0.1-4.5-0.1-5.3-1.8c0-0.6,0.5-0.7,0.7-1.1c1.5,0.2,3.7,1.3,5.7,0.8c0.6-0.4,1.4-1.1,1.5-2.1
			c0-1.5-1.4-2.1-2.3-2.8c-0.9-0.3-1.4-0.7-2.4-0.9c-0.9-0.5-1.8-1.1-2.5-1.9c-0.3-0.7-0.6-1.3-0.8-2c0-1,0.3-1.5,0.2-2.6
			c0.4-0.5,0.8-1,1.2-1.5c0.6-0.2,1.2-0.4,1.8-0.7c1.4-0.1,2.3-0.1,3.8,0.1c0.3,0.3,1.3,0,1.5,0.7
			C476.8,168.8,474.6,168.2,473.5,168.1z"/>
		<path class="st1" d="M485,166.3c0.1,3.3-0.2,6.6,0.2,10.1c0.1,0.5,0.1,1.5,0.4,2.1c0.7,1.3,2.2,1.7,3.5,2c1.3-0.4,1.8-1.1,2.8-1.4
			c0.4-0.9,1-2,1.1-3c-0.1-0.9,0-1.6,0.3-2.1c0.1-2.1-0.3-5.4-0.1-7.7c0.8-0.4,1.8-0.4,2.2,0.2c0.3,2.6,0.1,5.5,0,8
			c0,1.1,0.2,1.6,0,2.3c0.1,1-0.1,2.4-0.1,3.5c0.1,0.6,0.4,1.2-0.1,1.7c-0.5,0.2-1.1,0.1-1.5-0.2c-0.4-0.3-0.2-0.9-0.7-1.1
			c-0.9,0-0.9,0.6-1.6,0.9c-0.8,0.1-1.3,0.5-2,0.7c-1.8-0.2-3.5,0-4.7-0.9c-1.2-0.8-1.4-2.4-2-4c-0.2-0.5,0.2-0.7,0.1-1.2
			c0-1.6-0.2-2.7,0-4.1c-0.1-0.3-0.2-0.7-0.3-0.9c0-0.4,0.2-0.8,0.3-1.1c-0.3-0.6-0.2-1.5-0.2-2.2c0.1-0.4,0.1-1,0.4-1.3
			c0-0.2,0.2-0.4,0.4-0.4C484.2,165.9,484.7,166,485,166.3L485,166.3z"/>
		<path class="st1" d="M519.8,182.2c-0.5,0.3-1.1-0.1-1.7-0.1c-0.3-0.2,0.1-1-0.2-1.1c0-0.7,0.1-0.9,0.1-1.3
			c-0.3-1.1,0.2-2.5-0.3-3.1c0.1-0.5,0.4-0.7,0.3-1.2c-0.4-1.8-0.2-3.9,0-5.5c-0.4-1.2-2.2-2-3.8-1.5c-0.5,0.2-1.2,0.6-1.5,1.4
			c-0.1,0.4-0.4,2.4-0.4,3.3c0.1,2.2-0.1,4.4-0.3,6.2c0.3,1.1,0.7,3-0.9,3c-0.6,0-0.9-0.7-1.1-1.2c-0.1-0.2,0.2-0.6,0.1-0.9
			c0-0.7,0-1.2,0-1.9c0-0.3-0.2-0.6-0.2-0.9c0-0.6,0.2-1.1,0.2-2.2c-0.1-1.3-0.4-2.1-0.1-3.2c-0.4-0.6-0.2-1.6-0.5-2.4
			c-0.1-0.4-0.4-0.4-0.4-0.8c-0.5-0.4-1.3-0.5-1.8-0.8c-0.7,0.1-1.3,0.5-2,0.6c-0.8,1.1-1.1,2.4-1.4,4c0.4,2.1,0.5,4.4,0.2,6.7
			c0,0.9,0.1,2-0.3,2.9c-0.4,0.1-1.1,0-1.7-0.2c-0.7-1-0.1-2.1-0.3-3.4c0.1-0.3-0.1-0.6-0.1-1.1c0.1-2.6-0.1-6,0.6-8.9
			c-0.7-0.9-0.5-2.5,0.2-2.6c1.2-0.2,1,0.9,1.5,1.5c0.7-0.1,0.8-0.8,1.3-1.1c0.3-0.4,0.9-0.4,1.4-0.8c0.9,0,1.3,0.2,2.2,0.2
			c0.8,0.6,1.3,1.2,2.3,1.8c0.6-0.2,0.9-0.7,1.5-1.1c0.8-0.4,1.7-0.7,2.8-1h0.3c0.7,0.4,1.7,0.5,2.4,1c0.4,0.1,0.5,0.4,0.7,0.8
			c0.4,0.1,0.4,0.5,0.7,0.7c0.4,1.1,0.2,2.1,0.7,3.1c-0.2,2.9,0.1,5.9,0,8.9C520.2,180.7,520.2,181.9,519.8,182.2L519.8,182.2z"/>
		<path class="st1" d="M537.3,175.1c-2.6,0.4-5.9-0.1-8.4,0.2c-0.6,0.1-1.5,0-1.9,0.3c0.4,3.1,2,5.3,5.5,5c1.3-0.4,2.2-1.5,3.2-0.7
			c0.4,1.7-0.9,1.9-2.3,2.4c-1-0.4-1.9,0.1-2.7,0c-1.3,0.1-2.3-0.7-3.3-1c-0.4-0.7-1.3-1.2-1.8-1.8c-0.1-0.4-0.2-0.8-0.3-1.2
			c-0.2-0.5-0.4-1.2-0.6-2.2c0-1.8-0.1-3.7,0.2-5.6c0.3-0.8,0.4-1.3,0.7-2c0.3-0.9,1.1-1.1,1.5-1.8c0.7-0.2,1.2-0.4,1.8-0.7
			c1-0.2,2.8,0.3,3.8-0.2c0.6,0.4,1.4,0.5,2,0.7c0.9,0.6,1.5,1.8,2.3,2.6c-0.2,0.8,0.1,1.1,0.3,1.5c-0.1,0.7,0,1.1,0.3,1.5
			C537.4,173,538.1,174.5,537.3,175.1L537.3,175.1z M534.8,170.3c-0.4-0.8-0.9-1.3-1.4-1.8c-1.3-0.5-2.8-0.2-4.1,0
			c-0.7,0-1,0.7-1.6,1.1c-0.5,0.8-1.3,2.7-0.1,3.7c0.1-0.1,0.3-0.1,0.3,0c0.9-0.1,1.5,0,2.3-0.4c0.7,0.5,1.5,0.2,2.3,0
			c0.8,0.4,2.2,0.5,2.8-0.1C535.6,171.8,535.2,170.9,534.8,170.3L534.8,170.3z"/>
		<path class="st1" d="M559.8,182.2c-0.8,0-0.8-0.9-1.5-1.1c-0.6,0.3-1.4,0.6-1.8,1c-1.3,0.2-2.9,0.4-4.4,0.2
			c-0.7-0.8-1.7-1.2-2.3-1.9c-0.4-1-0.2-2.3-0.7-3.2c0-0.9,0.2-1.5,0.3-2.4c0.3-0.4,0.6-1.1,0.9-1.5c0.2,0,0.4-0.1,0.4-0.3
			c1.4-0.7,2.6-0.7,4.6-1c1,0.6,1.5,1.2,2.5,1.4c1.2-0.4,0.1-1.8,0.3-2.9c-0.1-0.7-0.6-1.3-1.1-1.9c-0.7-0.1-1.1-0.4-1.8-0.6
			c-1.6-0.1-3,0.7-4.1,0.4c-0.4-0.5-0.7-0.9-0.6-1.6c0.4-0.6,1.5-0.5,2.1-1c1.3-0.1,2,0,3.3,0c0.7,0.4,1.5,0.7,2.5,0.9
			c1.1,1.6,2.4,3.6,2,6.4c0,0.5,0.2,0.8,0.2,1.3c0,1.8-0.2,3.2-0.3,4.9c0.1,0.9,0.3,1.2,0.3,2C560.8,181.8,560.3,181.9,559.8,182.2
			L559.8,182.2z M553.1,174.5c-0.4,0.4-0.9,0.7-1.4,1.1c0.2,0.3-0.2,0.3-0.3,0.6c-0.1,1.5,0.3,3.1,1.1,3.4c0.7,0.7,1.8,0.7,2.9,0.4
			c0.4-0.1,0.7-0.3,1.1-0.3c0.9-0.8,2-1,2.2-2.6c-0.5-1-1.1-1.6-1.7-2.3c-1-0.2-1.6-0.5-2.5-0.7c-0.1,0.1-0.2,0.2-0.2,0.2H553.1z"/>
		<path class="st1" d="M569.3,159.4c-0.1,7.3-0.5,14.3,0.4,23.2c-0.8-0.3-2-0.2-2.3-0.7c-0.4-0.3-0.2-1-0.4-1.7
			c-0.1-0.7,0.1-0.9,0-1.7c-0.4-3.7,0.6-8.1,0.2-11.7c-0.4-2.8-0.5-4.9,0.2-7.6C567.6,159.1,568.8,159.3,569.3,159.4L569.3,159.4z"
			/>
		<path class="st1" d="M585.5,167.8c-0.2,1.5-1.9,0.8-2.7,0.4c-1.1,0-2.6-0.1-3.2,0.1c-0.8,0.4-1.3,1.2-2.1,1.7
			c-0.2,0.7-0.4,1.5-0.8,2.3c-0.2,1.9,0,3.7,0.4,5.2c0.3,0.8,1,1.6,1.8,2.1c0.6,0.3,1.3,0.3,1.7,0.7c0.4,0,0.9-0.1,1.1,0.1
			c1.1-0.1,2.2-0.7,3.1-0.7c0.2,0.5,0.3,0.9,0.4,1.3c-0.2,1-1.9,1.1-3,1.3c-1-0.1-1.5-0.1-2.6-0.1c-0.9-0.4-1.7-0.8-2.5-1.2
			c-1.1-0.9-1.5-1.8-2.2-2.9c-0.2-1-0.4-1.8-0.7-2.4c0-1.1,0-2.2,0.1-3.4c0.3-1.3,0.7-1.9,1.1-3.2c0.7-0.9,1.8-2,2.9-2.9
			c0.5-0.1,1.3-0.1,1.8-0.4c1.1-0.1,2.2,0.1,3.2,0.1C584.2,166.6,585.4,166.6,585.5,167.8L585.5,167.8z"/>
		<path class="st1" d="M595.3,165.8c0,0,0-0.1,0.2-0.2c1.1,0.1,1.6,0.7,2.8,0.5c1.6,0.7,2.4,2.4,3.2,3.4c0.4,0.7,0.2,2,0.9,2.8
			c-0.3,0.6,0,1.2,0.2,1.8c-0.2,0.4,0,0.8,0,1.2c0,1-0.7,1.7-0.7,2.8c-0.5,0.6-1,1.3-1.3,2.1c-0.8,0.5-1.5,1.4-2.5,1.7
			c-1.4,0.4-3.1,0.7-4.6,0.1c-0.9-0.4-1.7-0.9-2.6-1.4c-0.2-0.6-0.5-1-0.9-1.3c-0.1-0.9-0.7-1.3-0.8-2.1c-0.3-0.7-0.2-1.4-0.4-2.1
			c-0.2-1.5,0.4-3,0.3-4.5c0.6-0.6,1-1.2,1.3-2.1c0.5-0.4,0.9-0.8,1.2-1.5C592.5,166.7,594,166.1,595.3,165.8L595.3,165.8z
			 M593.7,168.4c-0.5,0.5-1.2,0.9-1.7,1.5c-0.9,1.8-0.9,3.8-0.8,6.4c0.4,1.4,1.1,2.4,2.1,3.4c0.9,0.2,2,0.8,3.5,0.7
			c0.6-0.5,1.2-0.7,1.8-1.1c0.2-0.3,0.4-0.7,0.5-0.8c0.1-0.1,0.2-0.2,0.3-0.2c0.1-0.2,0-0.5,0.1-0.9c0.1-0.2,0.3-0.4,0.4-0.5
			c0.2-0.8,0-1.6,0.4-2.5c-0.2-0.8-0.1-1.8-0.3-2.7c-0.4-0.8-0.7-1.5-1-2.3c-0.9-0.4-1.5-1-2.5-1.3c-0.4,0.2-1.2-0.1-1.5,0.1
			C594.6,168.1,594.4,168.5,593.7,168.4L593.7,168.4z"/>
		<path class="st1" d="M609.7,159.4c0,1.3-0.2,2.6,0,4.4c0,0.3,0,0.8,0.1,1.1c0.1,0.8-0.2,2.1,0.2,2.7c1.1-0.1,1.3-0.9,2.1-1.3
			c0.5,0,0.8-0.2,1.1-0.3c1.4-0.2,2.6,0.2,4.1,0.2c1,0.8,1.5,1.4,2.2,2.4c0,0.8,0.3,1.2,0.5,1.9c0.6,4.4,0.3,8.5,0,11.4
			c-0.8,0.9-1.5,0.2-2.1-0.1c-0.2-1.6,0-3-0.1-4.4c0-0.4,0.2-0.7,0.2-0.7c0-1.8-0.5-3.5-0.2-5.4c-0.2-0.5-0.2-1.2-0.4-1.7
			c-0.5-0.8-1.5-1-2.4-1.4c-0.8,0-1.6,0.1-2.2,0.3c-0.8,0-0.9,0.8-1.7,0.9c-0.4,0.7-0.5,1.4-1,1.9c-0.9,3.9,0,7.3-0.4,10.7
			c-0.6,0.2-1.5,0.1-2.1,0c0-1.9-0.2-4.2,0-6.8c0-0.5-0.3-1.5-0.2-2.2c0-1.9,0.4-4.1,0.1-5.5c-0.1-1.2,0.2-2.8-0.3-3.7
			c0.7-1.3,0.3-3.4,0.2-4.4C608,159,609.3,159,609.7,159.4L609.7,159.4z"/>
		<path class="st1" d="M631.1,165.8c0,0,0-0.1,0.2-0.2c1.1,0.1,1.6,0.7,2.8,0.5c1.6,0.7,2.4,2.4,3.2,3.4c0.4,0.7,0.2,2,0.9,2.8
			c-0.3,0.6,0,1.2,0.2,1.8c-0.2,0.4,0,0.8,0,1.2c0,1-0.7,1.7-0.7,2.8c-0.5,0.6-1,1.3-1.3,2.1c-0.8,0.5-1.5,1.4-2.5,1.7
			c-1.4,0.4-3.1,0.7-4.6,0.1c-0.9-0.4-1.7-0.9-2.6-1.4c-0.2-0.6-0.5-1-0.9-1.3c-0.1-0.9-0.7-1.3-0.8-2.1c-0.3-0.7-0.2-1.4-0.4-2.1
			c-0.2-1.5,0.4-3,0.3-4.5c0.6-0.6,1-1.2,1.3-2.1c0.5-0.4,0.9-0.8,1.2-1.5C628.3,166.7,629.7,166.1,631.1,165.8L631.1,165.8z
			 M629.5,168.4c-0.5,0.5-1.2,0.9-1.7,1.5c-0.9,1.8-0.9,3.8-0.8,6.4c0.4,1.4,1.1,2.4,2.1,3.4c0.9,0.2,2,0.8,3.5,0.7
			c0.6-0.5,1.2-0.7,1.8-1.1c0.2-0.3,0.4-0.7,0.5-0.8c0.1-0.1,0.2-0.2,0.3-0.2c0.1-0.2,0-0.5,0.1-0.9c0.1-0.2,0.3-0.4,0.4-0.5
			c0.2-0.8,0-1.6,0.4-2.5c-0.2-0.8-0.1-1.8-0.3-2.7c-0.4-0.8-0.7-1.5-1-2.3c-0.9-0.4-1.5-1-2.5-1.3c-0.4,0.2-1.2-0.1-1.5,0.1
			C630.3,168.1,630.1,168.5,629.5,168.4L629.5,168.4z"/>
		<path class="st1" d="M645.5,159.4c-0.1,7.3-0.5,14.3,0.4,23.2c-0.8-0.3-2-0.2-2.3-0.7c-0.4-0.3-0.2-1-0.4-1.7
			c-0.1-0.7,0.1-0.9,0-1.7c-0.4-3.7,0.6-8.1,0.2-11.7c-0.4-2.8-0.5-4.9,0.2-7.6C643.9,159.1,645,159.3,645.5,159.4L645.5,159.4z"/>
		<path class="st1" d="M669.2,182.2c-0.8,0-0.8-0.9-1.5-1.1c-0.6,0.3-1.4,0.6-1.8,1c-1.3,0.2-2.9,0.4-4.4,0.2
			c-0.7-0.8-1.7-1.2-2.3-1.9c-0.4-1-0.2-2.3-0.7-3.2c0-0.9,0.2-1.5,0.3-2.4c0.3-0.4,0.6-1.1,0.9-1.5c0.2,0,0.4-0.1,0.4-0.3
			c1.4-0.7,2.6-0.7,4.6-1c1,0.6,1.5,1.2,2.5,1.4c1.2-0.4,0.1-1.8,0.3-2.9c-0.1-0.7-0.6-1.3-1.1-1.9c-0.7-0.1-1.1-0.4-1.8-0.6
			c-1.6-0.1-3,0.7-4.1,0.4c-0.4-0.5-0.7-0.9-0.6-1.6c0.4-0.6,1.5-0.5,2.1-1c1.3-0.1,2,0,3.3,0c0.7,0.4,1.5,0.7,2.5,0.9
			c1.1,1.6,2.4,3.6,2,6.4c0,0.5,0.2,0.8,0.2,1.3c0,1.8-0.2,3.2-0.3,4.9c0.1,0.9,0.3,1.2,0.3,2C670.2,181.8,669.7,181.9,669.2,182.2
			L669.2,182.2z M662.6,174.5c-0.4,0.4-0.9,0.7-1.4,1.1c0.2,0.3-0.2,0.3-0.3,0.6c-0.1,1.5,0.3,3.1,1.1,3.4c0.7,0.7,1.8,0.7,2.9,0.4
			c0.4-0.1,0.7-0.3,1.1-0.3c0.9-0.8,2-1,2.2-2.6c-0.5-1-1.1-1.6-1.7-2.3c-1-0.2-1.6-0.5-2.5-0.7c-0.1,0.1-0.2,0.2-0.2,0.2H662.6z"/>
		<path class="st1" d="M678.7,159.4c-0.1,7.3-0.5,14.3,0.4,23.2c-0.8-0.3-2-0.2-2.3-0.7c-0.4-0.3-0.2-1-0.4-1.7
			c-0.1-0.7,0.1-0.9,0-1.7c-0.4-3.7,0.6-8.1,0.2-11.7c-0.4-2.8-0.5-4.9,0.2-7.6C677.1,159.1,678.2,159.3,678.7,159.4L678.7,159.4z"
			/>
		<path class="st1" d="M711.2,182.2c-0.5,0.3-1.1-0.1-1.7-0.1c-0.3-0.2,0.1-1-0.2-1.1c0-0.7,0.1-0.9,0.1-1.3
			c-0.3-1.1,0.2-2.5-0.3-3.1c0.1-0.5,0.4-0.7,0.3-1.2c-0.4-1.8-0.2-3.9,0-5.5c-0.4-1.2-2.2-2-3.8-1.5c-0.5,0.2-1.2,0.6-1.5,1.4
			c-0.1,0.4-0.4,2.4-0.4,3.3c0.1,2.2-0.1,4.4-0.3,6.2c0.3,1.1,0.7,3-0.9,3c-0.6,0-0.9-0.7-1.1-1.2c-0.1-0.2,0.2-0.6,0.1-0.9
			c0-0.7,0-1.2,0-1.9c0-0.3-0.2-0.6-0.2-0.9c0-0.6,0.2-1.1,0.2-2.2c-0.1-1.3-0.4-2.1-0.1-3.2c-0.4-0.6-0.2-1.6-0.5-2.4
			c-0.1-0.4-0.4-0.4-0.4-0.8c-0.5-0.4-1.3-0.5-1.8-0.8c-0.7,0.1-1.3,0.5-2,0.6c-0.8,1.1-1.1,2.4-1.4,4c0.4,2.1,0.5,4.4,0.2,6.7
			c0,0.9,0.1,2-0.3,2.9c-0.4,0.1-1.1,0-1.7-0.2c-0.7-1-0.1-2.1-0.3-3.4c0.1-0.3-0.1-0.6-0.1-1.1c0.1-2.6-0.1-6,0.6-8.9
			c-0.7-0.9-0.5-2.5,0.2-2.6c1.2-0.2,1,0.9,1.5,1.5c0.7-0.1,0.8-0.8,1.3-1.1c0.3-0.4,0.9-0.4,1.4-0.8c0.9,0,1.3,0.2,2.2,0.2
			c0.8,0.6,1.3,1.2,2.3,1.8c0.6-0.2,0.9-0.7,1.5-1.1c0.8-0.4,1.7-0.7,2.8-1h0.3c0.7,0.4,1.7,0.5,2.4,1c0.4,0.1,0.5,0.4,0.7,0.8
			c0.4,0.1,0.4,0.5,0.7,0.7c0.4,1.1,0.2,2.1,0.7,3.1c-0.2,2.9,0.1,5.9,0,8.9C711.6,180.7,711.6,181.9,711.2,182.2L711.2,182.2z"/>
		<path class="st1" d="M728.8,175.1c-2.6,0.4-5.9-0.1-8.4,0.2c-0.6,0.1-1.5,0-1.9,0.3c0.4,3.1,2,5.3,5.5,5c1.3-0.4,2.2-1.5,3.2-0.7
			c0.4,1.7-0.9,1.9-2.3,2.4c-1-0.4-1.9,0.1-2.7,0c-1.3,0.1-2.3-0.7-3.3-1c-0.4-0.7-1.3-1.2-1.8-1.8c-0.1-0.4-0.2-0.8-0.3-1.2
			c-0.2-0.5-0.4-1.2-0.6-2.2c0-1.8-0.1-3.7,0.2-5.6c0.3-0.8,0.4-1.3,0.7-2c0.3-0.9,1.1-1.1,1.5-1.8c0.7-0.2,1.2-0.4,1.8-0.7
			c1-0.2,2.8,0.3,3.8-0.2c0.6,0.4,1.4,0.5,2,0.7c0.9,0.6,1.5,1.8,2.3,2.6c-0.2,0.8,0.1,1.1,0.3,1.5c-0.1,0.7,0,1.1,0.3,1.5
			C728.8,173,729.5,174.5,728.8,175.1L728.8,175.1z M726.3,170.3c-0.4-0.8-0.9-1.3-1.4-1.8c-1.3-0.5-2.8-0.2-4.1,0
			c-0.7,0-1,0.7-1.6,1.1c-0.5,0.8-1.3,2.7-0.1,3.7c0.1-0.1,0.3-0.1,0.3,0c0.9-0.1,1.5,0,2.3-0.4c0.7,0.5,1.5,0.2,2.3,0
			c0.8,0.4,2.2,0.5,2.8-0.1C727,171.8,726.6,170.9,726.3,170.3L726.3,170.3z"/>
		<path class="st1" d="M746.6,181.9c-0.5,0.3-1.3,0.1-1.9,0.2c-0.4-1.3-0.2-2.7,0-4.3c0-1.7-0.4-3-0.2-4.8c0-1.2-0.2-2.3-0.4-3.1
			c0-0.2-0.1-0.2-0.1-0.4c-0.7-1-1.7-1.1-2.6-1.7c-2,0.2-3.2,0.9-4.3,2.1c-0.1,0.8-0.6,1.4-0.7,2.4c0.1,1.2,0.2,2.7-0.1,3.5
			c0.1,0.5,0.2,0.8,0.3,1.2c-0.2,1.4-0.3,3.2-0.3,4.6c-0.3,0.3-1.1,0.6-1.7,0.4c-0.4-0.8-0.6-2.1-0.3-3.1c-0.1-0.6-0.1-1.1-0.2-1.7
			c0-0.8,0.2-2.3,0.2-3.6c0.1-0.2,0-0.4,0-0.4c0.1-2.2-0.1-3.8,0.2-6c-0.1-0.3-0.2-0.9,0.2-1.2c1.5-0.4,1.2,1.1,2.1,1.5
			c0.9-0.4,1.3-1,2-1.5c0.7,0,1.3-0.2,1.9-0.4c0.5,0.3,1-0.1,1.5,0c1.7,0.2,2.9,0.9,3.8,2.1c0,0.4,0.2,1,0.5,1.3
			c-0.2,0.6,0.3,1.1,0.2,1.8c0,0.3-0.1,0.6-0.1,1c0,0.8,0.4,2.3,0.2,3.5c0,0.9-0.3,2.2,0.2,3.5C746.5,180.2,747.2,180.9,746.6,181.9
			L746.6,181.9z"/>
		<path class="st1" d="M757.6,165.8c0,0,0-0.1,0.2-0.2c1.1,0.1,1.6,0.7,2.8,0.5c1.6,0.7,2.4,2.4,3.2,3.4c0.4,0.7,0.2,2,0.9,2.8
			c-0.3,0.6,0,1.2,0.2,1.8c-0.2,0.4,0,0.8,0,1.2c0,1-0.7,1.7-0.7,2.8c-0.5,0.6-1,1.3-1.3,2.1c-0.8,0.5-1.5,1.4-2.5,1.7
			c-1.4,0.4-3.1,0.7-4.6,0.1c-0.9-0.4-1.7-0.9-2.6-1.4c-0.2-0.6-0.5-1-0.9-1.3c-0.1-0.9-0.7-1.3-0.8-2.1c-0.3-0.7-0.2-1.4-0.4-2.1
			c-0.2-1.5,0.4-3,0.3-4.5c0.6-0.6,1-1.2,1.3-2.1c0.5-0.4,0.9-0.8,1.2-1.5C754.8,166.7,756.2,166.1,757.6,165.8L757.6,165.8z
			 M756,168.4c-0.5,0.5-1.2,0.9-1.7,1.5c-0.9,1.8-0.9,3.8-0.8,6.4c0.4,1.4,1.1,2.4,2.1,3.4c0.9,0.2,2,0.8,3.5,0.7
			c0.6-0.5,1.2-0.7,1.8-1.1c0.2-0.3,0.4-0.7,0.5-0.8c0.1-0.1,0.2-0.2,0.3-0.2c0.1-0.2,0-0.5,0.1-0.9c0.1-0.2,0.3-0.4,0.4-0.5
			c0.2-0.8,0-1.6,0.4-2.5c-0.2-0.8-0.1-1.8-0.3-2.7c-0.4-0.8-0.7-1.5-1-2.3c-0.9-0.4-1.5-1-2.5-1.3c-0.4,0.2-1.2-0.1-1.5,0.1
			C756.8,168.1,756.6,168.5,756,168.4L756,168.4z"/>
		<path class="st1" d="M774.4,168.1c-1.3,0-2.4,0.4-2.9,0.9c0,0.7-0.3,0.9-0.3,1.5c0.3,0.9,0.9,1.5,1.8,1.9c0.8,0.3,1.5,0.9,2.5,1.1
			c0.4,0.4,1.1,0.9,2,1.1c0.2,0.6,0.6,0.9,0.9,1.3c0.3,0.5,0.4,0.9,0.7,1.4c0.3,1.6-0.2,2.4-0.7,3.3c-0.5,0.4-0.7,0.9-1.3,1.2
			c-0.7,0.4-2,0.4-2.9,0.7c-2,0.1-4.5-0.1-5.3-1.8c0-0.6,0.5-0.7,0.7-1.1c1.5,0.2,3.7,1.3,5.7,0.8c0.6-0.4,1.4-1.1,1.5-2.1
			c0-1.5-1.4-2.1-2.3-2.8c-0.9-0.3-1.4-0.7-2.4-0.9c-0.9-0.5-1.8-1.1-2.5-1.9c-0.3-0.7-0.6-1.3-0.8-2c0-1,0.3-1.5,0.2-2.6
			c0.4-0.5,0.8-1,1.2-1.5c0.6-0.2,1.2-0.4,1.8-0.7c1.4-0.1,2.3-0.1,3.8,0.1c0.3,0.3,1.3,0,1.5,0.7
			C777.7,168.8,775.6,168.2,774.4,168.1z"/>
		<path class="st1" d="M524.4,207c0.1,3.3-0.2,6.6,0.2,10.1c0.1,0.5,0.1,1.5,0.4,2.1c0.7,1.3,2.2,1.7,3.5,2c1.3-0.4,1.8-1.1,2.8-1.4
			c0.4-0.9,1-2,1.1-3c-0.1-0.9,0-1.6,0.3-2.1c0.1-2.1-0.3-5.4-0.1-7.7c0.8-0.4,1.8-0.4,2.2,0.2c0.3,2.6,0.1,5.5,0,8
			c0,1.1,0.2,1.6,0,2.3c0.1,1-0.1,2.4-0.1,3.5c0.1,0.6,0.4,1.2-0.1,1.7c-0.5,0.2-1.1,0.1-1.5-0.2c-0.4-0.3-0.2-0.9-0.7-1.1
			c-0.9,0-0.9,0.6-1.6,0.9c-0.8,0.1-1.3,0.5-2,0.7c-1.8-0.2-3.5,0-4.7-0.9c-1.2-0.8-1.4-2.4-2-4c-0.2-0.5,0.2-0.7,0.1-1.2
			c0-1.6-0.2-2.7,0-4.1c-0.1-0.3-0.2-0.7-0.3-0.9c0-0.4,0.2-0.8,0.3-1.1c-0.3-0.6-0.2-1.5-0.2-2.2c0.1-0.4,0.1-1,0.4-1.3
			c0-0.2,0.2-0.4,0.4-0.4C523.6,206.7,524.1,206.8,524.4,207L524.4,207z"/>
		<path class="st1" d="M553.8,222.6c-0.5,0.3-1.3,0.1-1.9,0.2c-0.4-1.3-0.2-2.7,0-4.3c0-1.7-0.4-3-0.2-4.8c0-1.2-0.2-2.3-0.4-3.1
			c0-0.2-0.1-0.2-0.1-0.4c-0.7-1-1.7-1.1-2.6-1.7c-2,0.2-3.2,0.9-4.3,2.1c-0.1,0.8-0.6,1.4-0.7,2.4c0.1,1.2,0.2,2.7-0.1,3.5
			c0.1,0.5,0.2,0.8,0.3,1.2c-0.2,1.4-0.3,3.2-0.3,4.6c-0.3,0.3-1.1,0.6-1.7,0.4c-0.4-0.8-0.6-2.1-0.3-3.1c-0.1-0.6-0.1-1.1-0.2-1.7
			c0-0.8,0.2-2.3,0.2-3.6c0.1-0.2,0-0.4,0-0.4c0.1-2.2-0.1-3.8,0.2-6c-0.1-0.3-0.2-0.9,0.2-1.2c1.5-0.4,1.2,1.1,2.1,1.5
			c0.9-0.4,1.3-1,2-1.5c0.7,0,1.3-0.2,1.9-0.4c0.5,0.3,1-0.1,1.5,0c1.7,0.2,2.9,0.9,3.8,2.1c0,0.4,0.2,1,0.5,1.3
			c-0.2,0.6,0.3,1.1,0.2,1.8c0,0.3-0.1,0.6-0.1,1c0,0.8,0.4,2.3,0.2,3.5c0,0.9-0.3,2.2,0.2,3.5C553.7,220.9,554.4,221.7,553.8,222.6
			L553.8,222.6z"/>
		<path class="st1" d="M568.9,222.9c-0.8,0-0.8-0.9-1.5-1.1c-0.6,0.3-1.4,0.6-1.8,1c-1.3,0.2-2.9,0.4-4.4,0.2
			c-0.7-0.8-1.7-1.2-2.3-1.9c-0.4-1-0.2-2.3-0.7-3.2c0-0.9,0.2-1.5,0.3-2.4c0.3-0.4,0.6-1.1,0.9-1.5c0.2,0,0.4-0.1,0.4-0.3
			c1.4-0.7,2.6-0.7,4.6-1c1,0.6,1.5,1.2,2.5,1.4c1.2-0.4,0.1-1.8,0.3-2.9c-0.1-0.7-0.6-1.3-1.1-1.9c-0.7-0.1-1.1-0.4-1.8-0.6
			c-1.6-0.1-3,0.7-4.1,0.4c-0.4-0.5-0.7-0.9-0.6-1.6c0.4-0.6,1.5-0.5,2.1-1c1.3-0.1,2,0,3.3,0c0.7,0.4,1.5,0.7,2.5,0.9
			c1.1,1.6,2.4,3.6,2,6.4c0,0.5,0.2,0.8,0.2,1.3c0,1.8-0.2,3.2-0.3,4.9c0.1,0.9,0.3,1.2,0.3,2C569.9,222.5,569.4,222.6,568.9,222.9
			L568.9,222.9z M562.3,215.2c-0.4,0.4-0.9,0.7-1.4,1.1c0.2,0.3-0.2,0.3-0.3,0.6c-0.1,1.5,0.3,3.1,1.1,3.4c0.7,0.7,1.8,0.7,2.9,0.4
			c0.4-0.1,0.7-0.3,1.1-0.3c0.9-0.8,2-1,2.2-2.6c-0.5-1-1.1-1.6-1.7-2.3c-1-0.2-1.6-0.5-2.5-0.7c-0.1,0.1-0.2,0.2-0.2,0.2H562.3z"/>
		<path class="st1" d="M585.6,209.2c0.1,1,0.5,1.8,1,2.3c0.1,1,0.6,2,0.9,2.8c0.4,0.7,0.5,1.7,1.4,2.2c0.8-0.3,1-2,1.4-2.6
			c0-0.3,0.3-0.4,0.4-0.7c0-0.2-0.1-0.4,0-0.5c0-0.1,0.2-0.1,0.3-0.2c0.2-0.4,0.3-0.9,0.4-1.5c1-1,1.1-2.9,2-4.1c1,0,1.6,0,2.1,0.3
			c-0.1,1.7-1.1,2.4-1.5,3.8c-0.4,1.3-1.2,2.3-1.3,3.7c-0.8,0.8-0.9,2-1.1,3c-0.8,0.9-1.1,1.5-1.3,2.8c-0.6,0.6-0.6,1.9-1.3,2.3
			c-0.8-0.1-0.6-0.9-0.9-1.3c-0.3-0.6-0.4-1.1-0.7-1.7c-0.6-1-0.7-2.5-1.3-3.3c0-0.4-0.3-0.4-0.2-0.9c-0.3-1.1-1.4-2-1.5-3.6
			c-0.2-0.2-0.4-0.7-0.7-0.9c-0.1-1.4-1.1-2.6-0.9-3.5c-0.1-0.8,0.8-0.5,1.3-0.6C584.7,207.4,584.9,208.3,585.6,209.2z"/>
		<path class="st1" d="M610.9,215.8c-2.6,0.4-5.9-0.1-8.4,0.2c-0.6,0.1-1.5,0-1.9,0.3c0.4,3.1,2,5.3,5.5,5c1.3-0.4,2.2-1.5,3.2-0.7
			c0.4,1.7-0.9,1.9-2.3,2.4c-1-0.4-1.9,0.1-2.7,0c-1.3,0.1-2.3-0.7-3.3-1c-0.4-0.7-1.3-1.2-1.8-1.8c-0.1-0.4-0.2-0.8-0.3-1.2
			c-0.2-0.5-0.4-1.2-0.6-2.2c0-1.8-0.1-3.7,0.2-5.6c0.3-0.8,0.4-1.3,0.7-2c0.3-0.9,1.1-1.1,1.5-1.8c0.7-0.2,1.2-0.4,1.8-0.7
			c1-0.2,2.8,0.3,3.8-0.2c0.6,0.4,1.4,0.5,2,0.7c0.9,0.6,1.5,1.8,2.3,2.6c-0.2,0.8,0.1,1.1,0.3,1.5c-0.1,0.7,0,1.1,0.3,1.5
			C611,213.7,611.7,215.3,610.9,215.8L610.9,215.8z M608.5,211c-0.4-0.8-0.9-1.3-1.4-1.8c-1.3-0.5-2.8-0.2-4.1,0
			c-0.7,0-1,0.7-1.6,1.1c-0.5,0.8-1.3,2.7-0.1,3.7c0.1-0.1,0.3-0.1,0.3,0c0.9-0.1,1.5,0,2.3-0.4c0.7,0.5,1.5,0.2,2.3,0
			c0.8,0.4,2.2,0.5,2.8-0.1C609.2,212.5,608.8,211.7,608.5,211L608.5,211z"/>
		<path class="st1" d="M625.6,207c0.1,0.9-0.3,1.1-0.7,1.5c0,0.6-0.3,1-0.7,1.3c-0.3,1-0.9,2-1.5,3c-0.7,1.8-2.2,3.3-2.9,5.7
			c-0.3,0.3-0.7,0.7-0.9,1.5c0,0.8,1.3,0.7,2.2,0.5c1,0.2,2.2-0.1,2.9,0.2c0.6,0,1.2-0.5,1.6,0c0.3,0.3,0.1,1,0.2,1.4
			c-0.3,0.5-0.9,0.6-1.5,0.7c-3.1-0.3-6.2,0.4-9.2,0.1c0-1.3,0.7-2.4,1.3-3c0.7-2.1,1.7-3.5,2.6-5.5c0.3-0.3,0.6-0.5,0.8-1.1
			c0.1-0.4,0.7-0.6,0.6-1.3c0.4-0.9,1.1-1.3,1.2-2.8c-0.2-0.5-1-0.1-1.5-0.2c-1.9,0.2-3.5,0-4.8-0.2c-0.7-0.5-0.6-1.9,0.3-2.2
			c0.7,0,1.6,0.2,2.4,0.2c0.3,0,0.5-0.2,0.8-0.2c0.4,0,0.7,0.2,1.1,0.2c1.8,0,4.1-0.6,5.9,0.3L625.6,207z"/>
		<path class="st1" d="M648.4,222.9c-0.8,0-0.8-0.9-1.5-1.1c-0.6,0.3-1.4,0.6-1.8,1c-1.3,0.2-2.9,0.4-4.4,0.2
			c-0.7-0.8-1.7-1.2-2.3-1.9c-0.4-1-0.2-2.3-0.7-3.2c0-0.9,0.2-1.5,0.3-2.4c0.3-0.4,0.6-1.1,0.9-1.5c0.2,0,0.4-0.1,0.4-0.3
			c1.4-0.7,2.6-0.7,4.6-1c1,0.6,1.5,1.2,2.5,1.4c1.2-0.4,0.1-1.8,0.3-2.9c-0.1-0.7-0.6-1.3-1.1-1.9c-0.7-0.1-1.1-0.4-1.8-0.6
			c-1.6-0.1-3,0.7-4.1,0.4c-0.4-0.5-0.7-0.9-0.6-1.6c0.4-0.6,1.5-0.5,2.1-1c1.3-0.1,2,0,3.3,0c0.7,0.4,1.5,0.7,2.5,0.9
			c1.1,1.6,2.4,3.6,2,6.4c0,0.5,0.2,0.8,0.2,1.3c0,1.8-0.2,3.2-0.3,4.9c0.1,0.9,0.3,1.2,0.3,2C649.4,222.5,648.9,222.6,648.4,222.9
			L648.4,222.9z M641.7,215.2c-0.4,0.4-0.9,0.7-1.4,1.1c0.2,0.3-0.2,0.3-0.3,0.6c-0.1,1.5,0.3,3.1,1.1,3.4c0.7,0.7,1.8,0.7,2.9,0.4
			c0.4-0.1,0.7-0.3,1.1-0.3c0.9-0.8,2-1,2.2-2.6c-0.5-1-1.1-1.6-1.7-2.3c-1-0.2-1.6-0.5-2.5-0.7c-0.1,0.1-0.2,0.2-0.2,0.2H641.7z"/>
		<path class="st1" d="M657.8,200.2c-0.1,7.3-0.5,14.3,0.4,23.2c-0.8-0.3-2-0.2-2.3-0.7c-0.4-0.3-0.2-1-0.4-1.7
			c-0.1-0.7,0.1-0.9,0-1.7c-0.4-3.7,0.6-8.1,0.2-11.7c-0.4-2.8-0.5-4.9,0.2-7.6C656.2,199.9,657.3,200,657.8,200.2L657.8,200.2z"/>
		<path class="st1" d="M690.4,223c-0.5,0.3-1.1-0.1-1.7-0.1c-0.3-0.2,0.1-1-0.2-1.1c0-0.7,0.1-0.9,0.1-1.3c-0.3-1.1,0.2-2.5-0.3-3.1
			c0.1-0.5,0.4-0.7,0.3-1.2c-0.4-1.8-0.2-3.9,0-5.5c-0.4-1.2-2.2-2-3.8-1.5c-0.5,0.2-1.2,0.6-1.5,1.4c-0.1,0.4-0.4,2.4-0.4,3.3
			c0.1,2.2-0.1,4.4-0.3,6.2c0.3,1.1,0.7,3-0.9,3c-0.6,0-0.9-0.7-1.1-1.2c-0.1-0.2,0.2-0.6,0.1-0.9c0-0.7,0-1.2,0-1.9
			c0-0.3-0.2-0.6-0.2-0.9c0-0.6,0.2-1.1,0.2-2.2c-0.1-1.3-0.4-2.1-0.1-3.2c-0.4-0.6-0.2-1.6-0.5-2.4c-0.1-0.4-0.4-0.4-0.4-0.8
			c-0.5-0.4-1.3-0.5-1.8-0.8c-0.7,0.1-1.3,0.5-2,0.6c-0.8,1.1-1.1,2.4-1.4,4c0.4,2.1,0.5,4.4,0.2,6.7c0,0.9,0.1,2-0.3,2.9
			c-0.4,0.1-1.1,0-1.7-0.2c-0.7-1-0.1-2.1-0.3-3.4c0.1-0.3-0.1-0.6-0.1-1.1c0.1-2.6-0.1-6,0.6-8.9c-0.7-0.9-0.5-2.5,0.2-2.6
			c1.2-0.2,1,0.9,1.5,1.5c0.7-0.1,0.8-0.8,1.3-1.1c0.3-0.4,0.9-0.4,1.4-0.8c0.9,0,1.3,0.2,2.2,0.2c0.8,0.6,1.3,1.2,2.3,1.8
			c0.6-0.2,0.9-0.7,1.5-1.1c0.8-0.4,1.7-0.7,2.8-1h0.3c0.7,0.4,1.7,0.5,2.4,1c0.4,0.1,0.5,0.4,0.7,0.8c0.4,0.1,0.4,0.5,0.7,0.7
			c0.4,1.1,0.2,2.1,0.7,3.1c-0.2,2.9,0.1,5.9,0,8.9C690.8,221.4,690.8,222.7,690.4,223L690.4,223z"/>
		<path class="st1" d="M707.9,215.8c-2.6,0.4-5.9-0.1-8.4,0.2c-0.6,0.1-1.5,0-1.9,0.3c0.4,3.1,2,5.3,5.5,5c1.3-0.4,2.2-1.5,3.2-0.7
			c0.4,1.7-0.9,1.9-2.3,2.4c-1-0.4-1.9,0.1-2.7,0c-1.3,0.1-2.3-0.7-3.3-1c-0.4-0.7-1.3-1.2-1.8-1.8c-0.1-0.4-0.2-0.8-0.3-1.2
			c-0.2-0.5-0.4-1.2-0.6-2.2c0-1.8-0.1-3.7,0.2-5.6c0.3-0.8,0.4-1.3,0.7-2c0.3-0.9,1.1-1.1,1.5-1.8c0.7-0.2,1.2-0.4,1.8-0.7
			c1-0.2,2.8,0.3,3.8-0.2c0.6,0.4,1.4,0.5,2,0.7c0.9,0.6,1.5,1.8,2.3,2.6c-0.2,0.8,0.1,1.1,0.3,1.5c-0.1,0.7,0,1.1,0.3,1.5
			C708,213.7,708.7,215.3,707.9,215.8L707.9,215.8z M705.4,211c-0.4-0.8-0.9-1.3-1.4-1.8c-1.3-0.5-2.8-0.2-4.1,0
			c-0.7,0-1,0.7-1.6,1.1c-0.5,0.8-1.3,2.7-0.1,3.7c0.1-0.1,0.3-0.1,0.3,0c0.9-0.1,1.5,0,2.3-0.4c0.7,0.5,1.5,0.2,2.3,0
			c0.8,0.4,2.2,0.5,2.8-0.1C706.2,212.5,705.8,211.7,705.4,211L705.4,211z"/>
		<path class="st1" d="M717.8,208.8c-1.3,0-2.4,0.4-2.9,0.9c0,0.7-0.3,0.9-0.3,1.5c0.3,0.9,0.9,1.5,1.8,1.9c0.8,0.3,1.5,0.9,2.5,1.1
			c0.4,0.4,1.1,0.9,2,1.1c0.2,0.6,0.6,0.9,0.9,1.3c0.3,0.5,0.4,0.9,0.7,1.4c0.3,1.6-0.2,2.4-0.7,3.3c-0.5,0.4-0.7,0.9-1.3,1.2
			c-0.7,0.4-2,0.4-2.9,0.7c-2,0.1-4.5-0.1-5.3-1.8c0-0.6,0.5-0.7,0.7-1.1c1.5,0.2,3.7,1.3,5.7,0.8c0.6-0.4,1.4-1.1,1.5-2.1
			c0-1.5-1.4-2.1-2.3-2.8c-0.9-0.3-1.4-0.7-2.4-0.9c-0.9-0.5-1.8-1.1-2.5-1.9c-0.3-0.7-0.6-1.3-0.8-2c0-1,0.3-1.5,0.2-2.6
			c0.4-0.5,0.8-1,1.2-1.5c0.6-0.2,1.2-0.4,1.8-0.7c1.4-0.1,2.3-0.1,3.8,0.1c0.3,0.3,1.3,0,1.5,0.7
			C721.1,209.6,718.9,209,717.8,208.8z"/>
		<path class="st1" d="M740.3,215.8c0.8-0.3,1.1-1.3,1.3-2.3c0.4-0.4,0.4-1,0.9-1.4c0.3-2.2,1.5-3,1.7-4.8c0.9-0.7,1.8-0.8,2.5,0
			c-0.1,0.8-0.4,1.2-0.8,1.7c-0.3,1.6-1.2,2.6-1.3,4.1c-0.4,0.7-0.8,1.5-1.1,2.2c-0.3,0.3-0.2,0.7-0.4,1.1c-0.1,0.3-0.4,0.5-0.4,0.9
			c-0.6,1.5-1.1,2.9-1.9,4.1c-0.2,1.4-1.1,2.9-1.5,4.4c-0.3,0.6-0.6,1.2-0.9,2c-0.1,0.8-0.5,1.4-0.8,2c-0.7,0.2-1.5,0.4-2,0.1
			c-0.1-1,0.2-1.9,0.7-2.4c0-0.9,0.5-1.3,0.7-1.9c0.2-0.7,0.4-1.3,0.7-1.9c0.3-1.1,1.2-2.3,1.4-3.8c-0.8-1.7-1.2-3.7-2-5.2
			c0-0.4-0.3-0.5-0.2-1c-0.4-1-0.9-2.2-1.5-3.3c-0.1-1.1-0.9-2.1-1.1-3.3c0.5-0.4,1.5-0.5,2.1,0c0.4,0.9,1.1,1.4,1.1,2.8
			c0.4,0.3,0.5,0.9,0.8,1.3c0.1,0.9,0.7,1.7,0.8,2.5C739.6,214.3,739.5,215.6,740.3,215.8L740.3,215.8z"/>
		<path class="st1" d="M770.2,215.8c-2.6,0.4-5.9-0.1-8.4,0.2c-0.6,0.1-1.5,0-1.9,0.3c0.4,3.1,2,5.3,5.5,5c1.3-0.4,2.2-1.5,3.2-0.7
			c0.4,1.7-0.9,1.9-2.3,2.4c-1-0.4-1.9,0.1-2.7,0c-1.3,0.1-2.3-0.7-3.3-1c-0.4-0.7-1.3-1.2-1.8-1.8c-0.1-0.4-0.2-0.8-0.3-1.2
			c-0.2-0.5-0.4-1.2-0.6-2.2c0-1.8-0.1-3.7,0.2-5.6c0.3-0.8,0.4-1.3,0.7-2c0.3-0.9,1.1-1.1,1.5-1.8c0.7-0.2,1.2-0.4,1.8-0.7
			c1-0.2,2.8,0.3,3.8-0.2c0.6,0.4,1.4,0.5,2,0.7c0.9,0.6,1.5,1.8,2.3,2.6c-0.2,0.8,0.1,1.1,0.3,1.5c-0.1,0.7,0,1.1,0.3,1.5
			C770.3,213.7,771,215.3,770.2,215.8L770.2,215.8z M767.7,211c-0.4-0.8-0.9-1.3-1.4-1.8c-1.3-0.5-2.8-0.2-4.1,0
			c-0.7,0-1,0.7-1.6,1.1c-0.5,0.8-1.3,2.7-0.1,3.7c0.1-0.1,0.3-0.1,0.3,0c0.9-0.1,1.5,0,2.3-0.4c0.7,0.5,1.5,0.2,2.3,0
			c0.8,0.4,2.2,0.5,2.8-0.1C768.5,212.5,768.1,211.7,767.7,211L767.7,211z"/>
		<path class="st1" d="M777.7,200.2c-0.1,7.3-0.5,14.3,0.4,23.2c-0.8-0.3-2-0.2-2.3-0.7c-0.4-0.3-0.2-1-0.4-1.7
			c-0.1-0.7,0.1-0.9,0-1.7c-0.4-3.7,0.6-8.1,0.2-11.7c-0.4-2.8-0.5-4.9,0.2-7.6C776,199.9,777.2,200,777.7,200.2L777.7,200.2z"/>
		<path class="st1" d="M8.5,254.9c0-2.5,1.3-5,3.8-6.5c-1.7-1.3-2.8-3.7-2.8-5.9c0-5.7,3.8-8.8,10.6-8.8c6.7,0,10.6,3.1,10.6,8.8
			c0,2.2-1.1,4.6-2.8,5.9c2.5,1.5,3.8,4,3.8,6.5c0,6.1-5.6,9.1-11.6,9.1C14.1,264,8.5,260.9,8.5,254.9z M24.2,254.7
			c0-2.2-2.4-3.1-4.3-3.1c-1.8,0-4.2,0.9-4.2,3.1c0,2.5,2.8,3,4.2,3S24.2,257.2,24.2,254.7z M23.2,243c0-1.8-1.5-2.4-3.3-2.4
			c-1.7,0-3.2,0.6-3.2,2.4c0,1.9,1.5,2.6,3.2,2.6S23.2,244.9,23.2,243z"/>
		<path class="st1" d="M36,248.9c0-8.4,4.9-15.2,13.3-15.2s13.3,6.8,13.3,15.2c0,8.4-4.9,15.2-13.3,15.2S36,257.2,36,248.9z
			 M55.2,249c0-4.5-1.6-8.4-6-8.4c-4.3,0-5.9,3.9-5.9,8.4s1.6,8.6,5.9,8.6C53.6,257.6,55.2,253.6,55.2,249z"/>
		<path class="st1" d="M68,241.8c0-4.3,3.6-7.7,7.8-7.7c4.2,0,7.8,3.4,7.8,7.7c0,4.2-3.6,7.8-7.8,7.8C71.6,249.6,68,246,68,241.8z
			 M78,241.8c0-1.4-0.9-2.2-2.1-2.2c-1.2,0-2.1,0.8-2.1,2.2s0.9,2.5,2.1,2.5C77.1,244.3,78,243.2,78,241.8z M84.9,262.9
			c-0.3,0.4-0.8,0.8-1.5,0.8h-5.3c-0.6,0-1.1-0.5-1.1-1.3L92,235c0.2-0.4,0.6-0.9,1.3-0.9h5.5c0.7,0,1.1,0.5,1.1,1.3L84.9,262.9z
			 M93,256.2c0-4.3,3.6-7.7,7.8-7.7c4.2,0,7.8,3.4,7.8,7.7c0,4.2-3.6,7.8-7.8,7.8C96.6,264,93,260.4,93,256.2z M103,256.2
			c0-1.4-0.9-2.2-2.1-2.2c-1.2,0-2.1,0.8-2.1,2.2c0,1.4,0.9,2.5,2.1,2.5C102.1,258.7,103,257.6,103,256.2z"/>
		<path class="st1" d="M125.9,235.2c0-0.6,0.5-1.1,1.1-1.1h5.1c0.7,0,1.1,0.5,1.1,1.1v8.6c1.4-1,3-1.2,4.1-1.2c6,0,8.3,4.5,8.3,9.5
			v10.6c0,0.6-0.4,1.1-1.1,1.1h-5.1c-0.6,0-1.1-0.5-1.1-1.1v-9.9c0-1.8-0.2-3.3-2.7-3.3c-1.7,0-2.4,1.5-2.4,3.3v9.9
			c0,0.6-0.4,1.1-1.1,1.1H127c-0.6,0-1.1-0.5-1.1-1.1V235.2z"/>
		<path class="st1" d="M162.6,261.6c-1.8,2.3-4.9,2.4-5.3,2.4c-1.5,0-6.9-0.6-6.9-6.9c0-4.1,2.9-5.7,6.8-5.7c1,0,3,0.2,4.1,0.8
			c-0.5-2.1-1.4-2.6-3.3-2.6c-0.6,0-2.1,0-3.2,0.3c-0.3,0.1-0.5,0.1-0.6,0.1c-0.5,0-1.1-0.2-1.4-0.7l-1.1-3.2
			c-0.1-0.2-0.1-0.5-0.1-0.8c0-0.5,0.2-0.9,0.6-1.2c3.2-1.3,4.9-1.3,6.7-1.3c6.8,0,9.8,3.7,9.8,9.6v10.5c0,0.6-0.5,1.1-1.1,1.1h-3.1
			c-0.9,0-1.2-0.2-1.5-1L162.6,261.6z M161.3,257.5v-1.3c-0.4-0.4-1.1-0.7-1.9-0.7c-1.5,0-2.3,0.4-2.3,1.3c0,0.9,0.9,1.4,2.3,1.4
			C159.6,258.2,160.6,258.1,161.3,257.5z"/>
		<path class="st1" d="M191.3,262.7c-0.3,0.8-0.6,1-1.5,1h-3.1c-0.6,0-1.1-0.5-1.1-1.1v-27.5c0-0.6,0.4-1.1,1.1-1.1h5.1
			c0.6,0,1.1,0.5,1.1,1.1v8.8c1.7-1.4,4.2-1.4,5-1.4c4.8,0,9.1,4.8,9.1,10.6c0,5.8-4.2,10.8-9.7,10.8c-1.8,0-4-0.3-5.7-2.4
			L191.3,262.7z M199.6,253.3c0-2.3-1.6-3.8-3.3-3.8c-1.9,0-3.4,1.5-3.4,3.8c0,2.6,1.5,4.4,3.5,4.4
			C198.1,257.6,199.6,255.8,199.6,253.3z"/>
		<path class="st1" d="M230.4,254.4c0,0.6-0.5,1.1-1.1,1.1h-11.8c0.4,2.3,2.8,2.6,4.1,2.6c1.7,0,3.1-0.1,5-0.9
			c0.1-0.1,0.2-0.1,0.3-0.1c0.2,0,0.5,0.1,0.7,0.4l1.4,2.4c0.2,0.2,0.3,0.5,0.3,0.7c0,0.3-0.1,0.7-0.3,0.9c-1.4,1.9-4.6,2.6-7.3,2.6
			c-5.9,0-11.6-2.9-11.6-10.9c0-5.8,3-10.5,10.2-10.5c5.7,0,10.1,3.3,10.1,10V254.4z M217.5,251.4h5.6c-0.3-2.1-1.9-2.4-2.7-2.4
			C219.4,249.1,217.9,249.2,217.5,251.4z"/>
		<path class="st1" d="M241.1,262.7c-0.3,0.8-0.6,1-1.5,1h-3.1c-0.6,0-1.1-0.5-1.1-1.1v-27.5c0-0.6,0.4-1.1,1.1-1.1h5.1
			c0.6,0,1.1,0.5,1.1,1.1v8.8c1.7-1.4,4.2-1.4,5-1.4c4.8,0,9.1,4.8,9.1,10.6c0,5.8-4.2,10.8-9.7,10.8c-1.8,0-4-0.3-5.7-2.4
			L241.1,262.7z M249.5,253.3c0-2.3-1.6-3.8-3.3-3.8c-1.9,0-3.4,1.5-3.4,3.8c0,2.6,1.5,4.4,3.5,4.4
			C248,257.6,249.5,255.8,249.5,253.3z"/>
		<path class="st1" d="M264.7,232.5c2.2,0,4.1,1.8,4.1,4.1c0,2.2-1.8,4.1-4.1,4.1c-2.2,0-4.1-1.8-4.1-4.1
			C260.6,234.3,262.4,232.5,264.7,232.5z M268.3,262.7c0,0.6-0.5,1.1-1.1,1.1h-5.1c-0.7,0-1.1-0.5-1.1-1.1V244
			c0-0.6,0.4-1.1,1.1-1.1h5.1c0.6,0,1.1,0.5,1.1,1.1V262.7z"/>
		<path class="st1" d="M288.8,261.6c-1.7,2.1-3.9,2.4-5.7,2.4c-5.5,0-9.7-5-9.7-10.8c0-5.9,4.4-10.6,9.1-10.6c0.8,0,3.2,0,5,1.4
			v-8.8c0-0.6,0.5-1.1,1.1-1.1h5.1c0.7,0,1.1,0.5,1.1,1.1v27.5c0,0.6-0.5,1.1-1.1,1.1h-3.1c-0.9,0-1.2-0.2-1.5-1L288.8,261.6z
			 M287.5,253.3c0-2.3-1.5-3.8-3.4-3.8c-1.8,0-3.3,1.5-3.3,3.8c0,2.6,1.5,4.4,3.3,4.4C286,257.6,287.5,255.9,287.5,253.3z"/>
		<path class="st1" d="M299.8,253.5c0-5.9,5-10.9,10.9-10.9c5.9,0,10.9,5.1,10.9,10.9c0,5.8-5,10.5-10.9,10.5
			C304.8,264,299.8,259.3,299.8,253.5z M314.3,253.6c0-2.4-1.6-4.1-3.7-4.1c-1.9,0-3.5,1.7-3.5,4.1c0,2.2,1.6,4.1,3.5,4.1
			C312.6,257.6,314.3,255.8,314.3,253.6z"/>
		<path class="st1" d="M343.6,263.6c-0.8,0-0.8-0.9-1.5-1.1c-0.6,0.3-1.4,0.6-1.8,1c-1.3,0.2-2.9,0.4-4.4,0.2
			c-0.7-0.8-1.7-1.2-2.3-1.9c-0.4-1-0.2-2.3-0.7-3.2c0-0.9,0.2-1.5,0.3-2.4c0.3-0.4,0.6-1.1,0.9-1.5c0.2,0,0.4-0.1,0.4-0.3
			c1.4-0.7,2.6-0.7,4.6-1c1,0.6,1.5,1.2,2.5,1.4c1.2-0.4,0.1-1.8,0.3-2.9c-0.1-0.7-0.6-1.3-1.1-1.9c-0.7-0.1-1.1-0.4-1.8-0.6
			c-1.6-0.1-3,0.7-4.1,0.4c-0.4-0.5-0.7-0.9-0.6-1.6c0.4-0.6,1.5-0.5,2.1-1c1.3-0.1,2,0,3.3,0c0.7,0.4,1.5,0.7,2.5,0.9
			c1.1,1.6,2.4,3.6,2,6.4c0,0.5,0.2,0.8,0.2,1.3c0,1.8-0.2,3.2-0.3,4.9c0.1,0.9,0.3,1.2,0.3,2C344.6,263.3,344.1,263.3,343.6,263.6
			L343.6,263.6z M337,256c-0.4,0.4-0.9,0.7-1.4,1.1c0.2,0.3-0.2,0.3-0.3,0.6c-0.1,1.5,0.3,3.1,1.1,3.4c0.7,0.7,1.8,0.7,2.9,0.4
			c0.4-0.1,0.7-0.3,1.1-0.3c0.9-0.8,2-1,2.2-2.6c-0.5-1-1.1-1.6-1.7-2.3c-1-0.2-1.6-0.5-2.5-0.7c-0.1,0.1-0.2,0.2-0.2,0.2H337z"/>
		<path class="st1" d="M353.1,240.9c-0.1,7.3-0.5,14.3,0.4,23.2c-0.8-0.3-2-0.2-2.3-0.7c-0.4-0.3-0.2-1-0.4-1.7
			c-0.1-0.7,0.1-0.9,0-1.7c-0.4-3.7,0.6-8.1,0.2-11.7c-0.4-2.8-0.5-4.9,0.2-7.6C351.5,240.6,352.6,240.7,353.1,240.9L353.1,240.9z"
			/>
		<path class="st1" d="M368.6,248.7c0.7-0.3,1.2-1.7,2.2-1.1c0.4,0,0.4,0.4,0.4,0.9c0.3,2.8,0,6.5-0.2,9.7c0.7,2.3-0.2,5.2,0.1,8.3
			c-0.3,1.2-0.4,2.1-1.1,3.2c-0.7,0.6-1.5,1.1-2.2,1.6c-1.4,0.2-2.6,0.5-4.3,0.4c-0.8-0.3-1.8-0.5-2.6-0.7c-0.1-0.4-0.6-0.4-0.9-0.7
			c-0.1-0.6,0-1.1,0.2-1.4c0.9-0.4,1.5,0.2,2.1,0.4c0.7-0.1,0.9,0.1,1.3,0.2c0.6,0,1.1,0,1.8,0c0.6-0.4,1.7-0.3,2.3-0.7
			c0.7-0.4,1-1.8,1.2-2.9c-0.3-1.3,0.7-2.5-0.1-3.5c-1.2-0.1-1.4,1.1-2.2,1.2c-0.9,0.1-1.6,0-2.1,0.3c-0.8-0.4-2.2-0.2-3-0.4
			c-0.9-0.5-1.6-1-2.2-1.8c-0.5-0.8-0.8-2-1.2-3c0.3-1.2-0.5-2.8-0.2-4.6c0.1-0.6,0.5-1.1,0.4-1.9c0.4-0.8,0.7-1.8,1-2.7
			c1-1.1,2.2-1.8,3.2-2.2c1.1-0.1,2,0.4,2.7,0c0.7,0.2,1.4,0.5,2.1,0.7C368,247.9,368.1,248.6,368.6,248.7L368.6,248.7z M361.2,251
			c-0.6,1-0.7,2-1,3c-0.3,1.9,0.3,3.3,0.4,5.1c0.3,0.4,0.2,0.9,0.4,1.1c0.5,0.5,1,0.9,1.8,1.4c0-0.1,0.1-0.1,0,0
			c0.9,0,1.7,0,2.6-0.1c1.1-0.3,2-1.1,2.6-1.8c1-1.7,1.1-3.5,1.1-5.5c-0.4-0.4-0.5-1-0.4-1.7c-0.4-0.5-0.7-1.1-0.8-1.8
			c-0.8-0.2-1.1-0.8-1.5-1.1c-0.8-0.1-1.5-0.6-2.2-0.1c-0.4-0.1-0.8-0.1-1.1-0.1C362.5,250.1,361.7,250.5,361.2,251z"/>
		<path class="st1" d="M379.5,247.8c0.1,3.3-0.2,6.6,0.2,10.1c0.1,0.5,0.1,1.5,0.4,2.1c0.7,1.3,2.2,1.7,3.5,2
			c1.3-0.4,1.8-1.1,2.8-1.4c0.4-0.9,1-2,1.1-3c-0.1-0.9,0-1.6,0.3-2.1c0.1-2.1-0.3-5.4-0.1-7.7c0.8-0.4,1.8-0.4,2.2,0.2
			c0.3,2.6,0.1,5.5,0,8c0,1.1,0.2,1.6,0,2.3c0.1,1-0.1,2.4-0.1,3.5c0.1,0.6,0.4,1.2-0.1,1.7c-0.5,0.2-1.1,0.1-1.5-0.2
			c-0.4-0.3-0.2-0.9-0.7-1.1c-0.9,0-0.9,0.6-1.6,0.9c-0.8,0.1-1.3,0.5-2,0.7c-1.8-0.2-3.5,0-4.7-0.9c-1.2-0.8-1.4-2.4-2-4
			c-0.2-0.5,0.2-0.7,0.1-1.2c0-1.6-0.2-2.7,0-4.1c-0.1-0.3-0.2-0.7-0.3-0.9c0-0.4,0.2-0.8,0.3-1.1c-0.3-0.6-0.2-1.5-0.2-2.2
			c0.1-0.4,0.1-1,0.4-1.3c0-0.2,0.2-0.4,0.4-0.4C378.7,247.4,379.2,247.5,379.5,247.8L379.5,247.8z"/>
		<path class="st1" d="M408.9,263.3c-0.5,0.3-1.3,0.1-1.9,0.2c-0.4-1.3-0.2-2.7,0-4.3c0-1.7-0.4-3-0.2-4.8c0-1.2-0.2-2.3-0.4-3.1
			c0-0.2-0.1-0.2-0.1-0.4c-0.7-1-1.7-1.1-2.6-1.7c-2,0.2-3.2,0.9-4.3,2.1c-0.1,0.8-0.6,1.4-0.7,2.4c0.1,1.2,0.2,2.7-0.1,3.5
			c0.1,0.5,0.2,0.8,0.3,1.2c-0.2,1.4-0.3,3.2-0.3,4.6c-0.3,0.3-1.1,0.6-1.7,0.4c-0.4-0.8-0.6-2.1-0.3-3.1c-0.1-0.6-0.1-1.1-0.2-1.7
			c0-0.8,0.2-2.3,0.2-3.6c0.1-0.2,0-0.4,0-0.4c0.1-2.2-0.1-3.8,0.2-6c-0.1-0.3-0.2-0.9,0.2-1.2c1.5-0.4,1.2,1.1,2.1,1.5
			c0.9-0.4,1.3-1,2-1.5c0.7,0,1.3-0.2,1.9-0.4c0.5,0.3,1-0.1,1.5,0c1.7,0.2,2.9,0.9,3.8,2.1c0,0.4,0.2,1,0.5,1.3
			c-0.2,0.6,0.3,1.1,0.2,1.8c0,0.3-0.1,0.6-0.1,1c0,0.8,0.4,2.3,0.2,3.5c0,0.9-0.3,2.2,0.2,3.5C408.8,261.6,409.5,262.4,408.9,263.3
			L408.9,263.3z"/>
		<path class="st1" d="M424,263.6c-0.8,0-0.8-0.9-1.5-1.1c-0.6,0.3-1.4,0.6-1.8,1c-1.3,0.2-2.9,0.4-4.4,0.2
			c-0.7-0.8-1.7-1.2-2.3-1.9c-0.4-1-0.2-2.3-0.7-3.2c0-0.9,0.2-1.5,0.3-2.4c0.3-0.4,0.6-1.1,0.9-1.5c0.2,0,0.4-0.1,0.4-0.3
			c1.4-0.7,2.6-0.7,4.6-1c1,0.6,1.5,1.2,2.5,1.4c1.2-0.4,0.1-1.8,0.3-2.9c-0.1-0.7-0.6-1.3-1.1-1.9c-0.7-0.1-1.1-0.4-1.8-0.6
			c-1.6-0.1-3,0.7-4.1,0.4c-0.4-0.5-0.7-0.9-0.6-1.6c0.4-0.6,1.5-0.5,2.1-1c1.3-0.1,2,0,3.3,0c0.7,0.4,1.5,0.7,2.5,0.9
			c1.1,1.6,2.4,3.6,2,6.4c0,0.5,0.2,0.8,0.2,1.3c0,1.8-0.2,3.2-0.3,4.9c0.1,0.9,0.3,1.2,0.3,2C425,263.3,424.5,263.3,424,263.6
			L424,263.6z M417.4,256c-0.4,0.4-0.9,0.7-1.4,1.1c0.2,0.3-0.2,0.3-0.3,0.6c-0.1,1.5,0.3,3.1,1.1,3.4c0.7,0.7,1.8,0.7,2.9,0.4
			c0.4-0.1,0.7-0.3,1.1-0.3c0.9-0.8,2-1,2.2-2.6c-0.5-1-1.1-1.6-1.7-2.3c-1-0.2-1.6-0.5-2.5-0.7c-0.1,0.1-0.2,0.2-0.2,0.2H417.4z"/>
		<path class="st1" d="M440.7,250c0.1,1,0.5,1.8,1,2.3c0.1,1,0.6,2,0.9,2.8c0.4,0.7,0.5,1.7,1.4,2.2c0.8-0.3,1-2,1.4-2.6
			c0-0.3,0.3-0.4,0.4-0.7c0-0.2-0.1-0.4,0-0.5c0-0.1,0.2-0.1,0.3-0.2c0.2-0.4,0.3-0.9,0.4-1.5c1-1,1.1-2.9,2-4.1c1,0,1.6,0,2.1,0.3
			c-0.1,1.7-1.1,2.4-1.5,3.8c-0.4,1.3-1.2,2.3-1.3,3.7c-0.8,0.8-0.9,2-1.1,3c-0.8,0.9-1.1,1.5-1.3,2.8c-0.6,0.6-0.6,1.9-1.3,2.3
			c-0.8-0.1-0.6-0.9-0.9-1.3c-0.3-0.6-0.4-1.1-0.7-1.7c-0.6-1-0.7-2.5-1.3-3.3c0-0.4-0.3-0.4-0.2-0.9c-0.3-1.1-1.4-2-1.5-3.6
			c-0.2-0.2-0.4-0.7-0.7-0.9c-0.1-1.4-1.1-2.6-0.9-3.5c-0.1-0.8,0.8-0.5,1.3-0.6C439.9,248.2,440,249,440.7,250z"/>
		<path class="st1" d="M466,256.5c-2.6,0.4-5.9-0.1-8.4,0.2c-0.6,0.1-1.5,0-1.9,0.3c0.4,3.1,2,5.3,5.5,5c1.3-0.4,2.2-1.5,3.2-0.7
			c0.4,1.7-0.9,1.9-2.3,2.4c-1-0.4-1.9,0.1-2.7,0c-1.3,0.1-2.3-0.7-3.3-1c-0.4-0.7-1.3-1.2-1.8-1.8c-0.1-0.4-0.2-0.8-0.3-1.2
			c-0.2-0.5-0.4-1.2-0.6-2.2c0-1.8-0.1-3.7,0.2-5.6c0.3-0.8,0.4-1.3,0.7-2c0.3-0.9,1.1-1.1,1.5-1.8c0.7-0.2,1.2-0.4,1.8-0.7
			c1-0.2,2.8,0.3,3.8-0.2c0.6,0.4,1.4,0.5,2,0.7c0.9,0.6,1.5,1.8,2.3,2.6c-0.2,0.8,0.1,1.1,0.3,1.5c-0.1,0.7,0,1.1,0.3,1.5
			C466.1,254.5,466.8,256,466,256.5L466,256.5z M463.6,251.8c-0.4-0.8-0.9-1.3-1.4-1.8c-1.3-0.5-2.8-0.2-4.1,0c-0.7,0-1,0.7-1.6,1.1
			c-0.5,0.8-1.3,2.7-0.1,3.7c0.1-0.1,0.3-0.1,0.3,0c0.9-0.1,1.5,0,2.3-0.4c0.7,0.5,1.5,0.2,2.3,0c0.8,0.4,2.2,0.5,2.8-0.1
			C464.3,253.2,463.9,252.4,463.6,251.8L463.6,251.8z"/>
		<path class="st1" d="M480.7,247.7c0.1,0.9-0.3,1.1-0.7,1.5c0,0.6-0.3,1-0.7,1.3c-0.3,1-0.9,2-1.5,3c-0.7,1.8-2.2,3.3-2.9,5.7
			c-0.3,0.3-0.7,0.7-0.9,1.5c0,0.8,1.3,0.7,2.2,0.5c1,0.2,2.2-0.1,2.9,0.2c0.6,0,1.2-0.5,1.6,0c0.3,0.3,0.1,1,0.2,1.4
			c-0.3,0.5-0.9,0.6-1.5,0.7c-3.1-0.3-6.2,0.4-9.2,0.1c0-1.3,0.7-2.4,1.3-3c0.7-2.1,1.7-3.5,2.6-5.5c0.3-0.3,0.6-0.5,0.8-1.1
			c0.1-0.4,0.7-0.6,0.6-1.3c0.4-0.9,1.1-1.3,1.2-2.8c-0.2-0.5-1-0.1-1.5-0.2c-1.9,0.2-3.5,0-4.8-0.2c-0.7-0.5-0.6-1.9,0.3-2.2
			c0.7,0,1.6,0.2,2.4,0.2c0.3,0,0.5-0.2,0.8-0.2c0.4,0,0.7,0.2,1.1,0.2c1.8,0,4.1-0.6,5.9,0.3L480.7,247.7z"/>
		<path class="st1" d="M503.5,263.6c-0.8,0-0.8-0.9-1.5-1.1c-0.6,0.3-1.4,0.6-1.8,1c-1.3,0.2-2.9,0.4-4.4,0.2
			c-0.7-0.8-1.7-1.2-2.3-1.9c-0.4-1-0.2-2.3-0.7-3.2c0-0.9,0.2-1.5,0.3-2.4c0.3-0.4,0.6-1.1,0.9-1.5c0.2,0,0.4-0.1,0.4-0.3
			c1.4-0.7,2.6-0.7,4.6-1c1,0.6,1.5,1.2,2.5,1.4c1.2-0.4,0.1-1.8,0.3-2.9c-0.1-0.7-0.6-1.3-1.1-1.9c-0.7-0.1-1.1-0.4-1.8-0.6
			c-1.6-0.1-3,0.7-4.1,0.4c-0.4-0.5-0.7-0.9-0.6-1.6c0.4-0.6,1.5-0.5,2.1-1c1.3-0.1,2,0,3.3,0c0.7,0.4,1.5,0.7,2.5,0.9
			c1.1,1.6,2.4,3.6,2,6.4c0,0.5,0.2,0.8,0.2,1.3c0,1.8-0.2,3.2-0.3,4.9c0.1,0.9,0.3,1.2,0.3,2C504.5,263.3,504,263.3,503.5,263.6
			L503.5,263.6z M496.8,256c-0.4,0.4-0.9,0.7-1.4,1.1c0.2,0.3-0.2,0.3-0.3,0.6c-0.1,1.5,0.3,3.1,1.1,3.4c0.7,0.7,1.8,0.7,2.9,0.4
			c0.4-0.1,0.7-0.3,1.1-0.3c0.9-0.8,2-1,2.2-2.6c-0.5-1-1.1-1.6-1.7-2.3c-1-0.2-1.6-0.5-2.5-0.7c-0.1,0.1-0.2,0.2-0.2,0.2H496.8z"/>
		<path class="st1" d="M521,240.9c-0.1,7.3-0.5,14.3,0.4,23.2c-0.8-0.3-2-0.2-2.3-0.7c-0.4-0.3-0.2-1-0.4-1.7
			c-0.1-0.7,0.1-0.9,0-1.7c-0.4-3.7,0.6-8.1,0.2-11.7c-0.4-2.8-0.5-4.9,0.2-7.6C519.4,240.6,520.5,240.7,521,240.9L521,240.9z"/>
		<path class="st1" d="M532.5,247.3c0,0,0-0.1,0.2-0.2c1.1,0.1,1.6,0.7,2.8,0.5c1.6,0.7,2.4,2.4,3.2,3.4c0.4,0.7,0.2,2,0.9,2.8
			c-0.3,0.6,0,1.2,0.2,1.8c-0.2,0.4,0,0.8,0,1.2c0,1-0.7,1.7-0.7,2.8c-0.5,0.6-1,1.3-1.3,2.1c-0.8,0.5-1.5,1.4-2.5,1.7
			c-1.4,0.4-3.1,0.7-4.6,0.1c-0.9-0.4-1.7-0.9-2.6-1.4c-0.2-0.6-0.5-1-0.9-1.3c-0.1-0.9-0.7-1.3-0.8-2.1c-0.3-0.7-0.2-1.4-0.4-2.1
			c-0.2-1.5,0.4-3,0.3-4.5c0.6-0.6,1-1.2,1.3-2.1c0.5-0.4,0.9-0.8,1.2-1.5C529.7,248.2,531.1,247.6,532.5,247.3L532.5,247.3z
			 M530.9,249.9c-0.5,0.5-1.2,0.9-1.7,1.5c-0.9,1.8-0.9,3.8-0.8,6.4c0.4,1.4,1.1,2.4,2.1,3.4c0.9,0.2,2,0.8,3.5,0.7
			c0.6-0.5,1.2-0.7,1.8-1.1c0.2-0.3,0.4-0.7,0.5-0.8c0.1-0.1,0.2-0.2,0.3-0.2c0.1-0.2,0-0.5,0.1-0.9c0.1-0.2,0.3-0.4,0.4-0.5
			c0.2-0.8,0-1.6,0.4-2.5c-0.2-0.8-0.1-1.8-0.3-2.7c-0.4-0.8-0.7-1.5-1-2.3c-0.9-0.4-1.5-1-2.5-1.3c-0.4,0.2-1.2-0.1-1.5,0.1
			C531.8,249.6,531.5,249.9,530.9,249.9L530.9,249.9z"/>
		<path class="st1" d="M555,240.9c-0.1,7.3-0.5,14.3,0.4,23.2c-0.8-0.3-2-0.2-2.3-0.7c-0.4-0.3-0.2-1-0.4-1.7
			c-0.1-0.7,0.1-0.9,0-1.7c-0.4-3.7,0.6-8.1,0.2-11.7c-0.4-2.8-0.5-4.9,0.2-7.6C553.4,240.6,554.5,240.7,555,240.9L555,240.9z"/>
		<path class="st1" d="M570.7,263.6c-0.8,0-0.8-0.9-1.5-1.1c-0.6,0.3-1.4,0.6-1.8,1c-1.3,0.2-2.9,0.4-4.4,0.2
			c-0.7-0.8-1.7-1.2-2.3-1.9c-0.4-1-0.2-2.3-0.7-3.2c0-0.9,0.2-1.5,0.3-2.4c0.3-0.4,0.6-1.1,0.9-1.5c0.2,0,0.4-0.1,0.4-0.3
			c1.4-0.7,2.6-0.7,4.6-1c1,0.6,1.5,1.2,2.5,1.4c1.2-0.4,0.1-1.8,0.3-2.9c-0.1-0.7-0.6-1.3-1.1-1.9c-0.7-0.1-1.1-0.4-1.8-0.6
			c-1.6-0.1-3,0.7-4.1,0.4c-0.4-0.5-0.7-0.9-0.6-1.6c0.4-0.6,1.5-0.5,2.1-1c1.3-0.1,2,0,3.3,0c0.7,0.4,1.5,0.7,2.5,0.9
			c1.1,1.6,2.4,3.6,2,6.4c0,0.5,0.2,0.8,0.2,1.3c0,1.8-0.2,3.2-0.3,4.9c0.1,0.9,0.3,1.2,0.3,2C571.6,263.3,571.1,263.3,570.7,263.6
			L570.7,263.6z M564,256c-0.4,0.4-0.9,0.7-1.4,1.1c0.2,0.3-0.2,0.3-0.3,0.6c-0.1,1.5,0.3,3.1,1.1,3.4c0.7,0.7,1.8,0.7,2.9,0.4
			c0.4-0.1,0.7-0.3,1.1-0.3c0.9-0.8,2-1,2.2-2.6c-0.5-1-1.1-1.6-1.7-2.3c-1-0.2-1.6-0.5-2.5-0.7c-0.1,0.1-0.2,0.2-0.2,0.2H564z"/>
		<path class="st1" d="M584.3,247.3c0.5,0.3,0.6,1.3,0.4,2.1c-0.9,0.3-2.2,0.4-2.9,0.5c-1,0.5-1.2,2-1.8,3c0.1,3.2,0.1,7-0.4,11
			c-0.3-0.1-1.1-0.2-1.6-0.3c-0.6-0.9-0.1-1.5-0.1-2.5c0-0.4-0.2-1-0.2-1.5c0-0.4,0.1-0.8,0.1-1.1c0.1-1.8-0.2-3.7-0.1-5.9
			c0.1-0.7,0.2-1.7-0.1-2.8c0.3-0.9,0-1.8,0.8-2.2c0.5,0,0.8,0.2,1.1,0.4c0.3,0.2,0.2,0.8,0.7,0.8c0.8-0.2,1.3-0.8,2.2-1.1
			c0.3-0.2,1.3,0,1.6-0.3H584.3z"/>
		<path class="st1" d="M598,248.7c0.7-0.3,1.2-1.7,2.2-1.1c0.4,0,0.4,0.4,0.4,0.9c0.3,2.8,0,6.5-0.2,9.7c0.7,2.3-0.2,5.2,0.1,8.3
			c-0.3,1.2-0.4,2.1-1.1,3.2c-0.7,0.6-1.5,1.1-2.2,1.6c-1.4,0.2-2.6,0.5-4.3,0.4c-0.8-0.3-1.8-0.5-2.6-0.7c-0.1-0.4-0.6-0.4-0.9-0.7
			c-0.1-0.6,0-1.1,0.2-1.4c0.9-0.4,1.5,0.2,2.1,0.4c0.7-0.1,0.9,0.1,1.3,0.2c0.6,0,1.1,0,1.8,0c0.6-0.4,1.7-0.3,2.3-0.7
			c0.7-0.4,1-1.8,1.2-2.9c-0.3-1.3,0.7-2.5-0.1-3.5c-1.2-0.1-1.4,1.1-2.2,1.2c-0.9,0.1-1.6,0-2.1,0.3c-0.8-0.4-2.2-0.2-3-0.4
			c-0.9-0.5-1.6-1-2.2-1.8c-0.5-0.8-0.8-2-1.2-3c0.3-1.2-0.5-2.8-0.2-4.6c0.1-0.6,0.5-1.1,0.4-1.9c0.4-0.8,0.7-1.8,1-2.7
			c1-1.1,2.2-1.8,3.2-2.2c1.1-0.1,2,0.4,2.7,0c0.7,0.2,1.4,0.5,2.1,0.7C597.3,247.9,597.4,248.6,598,248.7L598,248.7z M590.6,251
			c-0.6,1-0.7,2-1,3c-0.3,1.9,0.3,3.3,0.4,5.1c0.3,0.4,0.2,0.9,0.4,1.1c0.5,0.5,1,0.9,1.8,1.4c0-0.1,0.1-0.1,0,0
			c0.9,0,1.7,0,2.6-0.1c1.1-0.3,2-1.1,2.6-1.8c1-1.7,1.1-3.5,1.1-5.5c-0.4-0.4-0.5-1-0.4-1.7c-0.4-0.5-0.7-1.1-0.8-1.8
			c-0.8-0.2-1.1-0.8-1.5-1.1c-0.8-0.1-1.5-0.6-2.2-0.1c-0.4-0.1-0.8-0.1-1.1-0.1C591.9,250.1,591,250.5,590.6,251z"/>
		<path class="st1" d="M612.1,247.3c0,0,0-0.1,0.2-0.2c1.1,0.1,1.6,0.7,2.8,0.5c1.6,0.7,2.4,2.4,3.2,3.4c0.4,0.7,0.2,2,0.9,2.8
			c-0.3,0.6,0,1.2,0.2,1.8c-0.2,0.4,0,0.8,0,1.2c0,1-0.7,1.7-0.7,2.8c-0.5,0.6-1,1.3-1.3,2.1c-0.8,0.5-1.5,1.4-2.5,1.7
			c-1.4,0.4-3.1,0.7-4.6,0.1c-0.9-0.4-1.7-0.9-2.6-1.4c-0.2-0.6-0.5-1-0.9-1.3c-0.1-0.9-0.7-1.3-0.8-2.1c-0.3-0.7-0.2-1.4-0.4-2.1
			c-0.2-1.5,0.4-3,0.3-4.5c0.6-0.6,1-1.2,1.3-2.1c0.5-0.4,0.9-0.8,1.2-1.5C609.3,248.2,610.7,247.6,612.1,247.3L612.1,247.3z
			 M610.5,249.9c-0.5,0.5-1.2,0.9-1.7,1.5c-0.9,1.8-0.9,3.8-0.8,6.4c0.4,1.4,1.1,2.4,2.1,3.4c0.9,0.2,2,0.8,3.5,0.7
			c0.6-0.5,1.2-0.7,1.8-1.1c0.2-0.3,0.4-0.7,0.5-0.8c0.1-0.1,0.2-0.2,0.3-0.2c0.1-0.2,0-0.5,0.1-0.9c0.1-0.2,0.3-0.4,0.4-0.5
			c0.2-0.8,0-1.6,0.4-2.5c-0.2-0.8-0.1-1.8-0.3-2.7c-0.4-0.8-0.7-1.5-1-2.3c-0.9-0.4-1.5-1-2.5-1.3c-0.4,0.2-1.2-0.1-1.5,0.1
			C611.3,249.6,611.1,249.9,610.5,249.9L610.5,249.9z"/>
		<path class="st1" d="M644,243.9c0,1,0.1,2.4,0.2,3.3c0,1-0.2,2.7-0.3,4c0.2,0.9,0.1,2,0.2,3.2c-0.1,1.1,0,2.1-0.1,3.2
			c0,0.6,0.1,1.3,0.1,1.9c0,0.7-0.1,1.2-0.1,1.9c0,0.9,0.5,1.7-0.5,2.5c-1.1,0.1-1.2-0.9-1.6-1.8c-0.9,0-1.1,0.5-1.7,0.8
			c-0.1,0.5-1,0.5-1.3,0.9c-1.1,0.2-2.8,0.2-4.1-0.2c-0.9-0.3-1.4-0.8-2.1-1.2c-0.3-0.3-0.4-0.7-0.8-0.9c-1-1.6-1.1-4.2-1.3-6.6
			c0.2-0.9,0.6-1.8,0.5-2.8c0.7-1.5,1.1-2.8,2.4-3.9c0.5-0.1,1.1-0.4,1.5-0.8c0.6,0,1.2,0,1.5-0.2c1,0.2,1.7,0.2,2.9,0.4
			c0.7,0.3,1.1,1.3,2.2,0.9c0.9-0.2,0-1.2,0.1-2c0.1-1.7,0.3-4.3,0.5-5.3c0.1-0.5,1-0.8,1.5-0.5C644.4,241.8,643.9,242.7,644,243.9z
			 M634.9,250.1c-0.7,0.7-1.3,1.6-1.7,2.6c0.3,1.6-0.4,2.6-0.2,4c0.3,1.1,0.5,2,0.5,2.8c0.5,0.4,0.7,1.1,1,1.5
			c0.6,0.1,1,0.6,1.7,0.7c1.4,0.2,3.3-0.4,4.3-1.1c0.6-1.1,1.2-2.3,1.5-3.9c-0.3-1.1,0-2.3-0.3-3.5c0-0.9-0.5-1.4-0.8-2
			c-0.8-0.9-1.5-1.2-2.8-1.5c-0.6-0.2-1.1,0.2-1.7-0.1c0,0-0.1,0-0.1,0.2C635.7,249.7,635.6,250.1,634.9,250.1L634.9,250.1z"/>
		<path class="st1" d="M661.8,256.5c-2.6,0.4-5.9-0.1-8.4,0.2c-0.6,0.1-1.5,0-1.9,0.3c0.4,3.1,2,5.3,5.5,5c1.3-0.4,2.2-1.5,3.2-0.7
			c0.4,1.7-0.9,1.9-2.3,2.4c-1-0.4-1.9,0.1-2.7,0c-1.3,0.1-2.3-0.7-3.3-1c-0.4-0.7-1.3-1.2-1.8-1.8c-0.1-0.4-0.2-0.8-0.3-1.2
			c-0.2-0.5-0.4-1.2-0.6-2.2c0-1.8-0.1-3.7,0.2-5.6c0.3-0.8,0.4-1.3,0.7-2c0.3-0.9,1.1-1.1,1.5-1.8c0.7-0.2,1.2-0.4,1.8-0.7
			c1-0.2,2.8,0.3,3.8-0.2c0.6,0.4,1.4,0.5,2,0.7c0.9,0.6,1.5,1.8,2.3,2.6c-0.2,0.8,0.1,1.1,0.3,1.5c-0.1,0.7,0,1.1,0.3,1.5
			C661.9,254.5,662.6,256,661.8,256.5L661.8,256.5z M659.3,251.8c-0.4-0.8-0.9-1.3-1.4-1.8c-1.3-0.5-2.8-0.2-4.1,0
			c-0.7,0-1,0.7-1.6,1.1c-0.5,0.8-1.3,2.7-0.1,3.7c0.1-0.1,0.3-0.1,0.3,0c0.9-0.1,1.5,0,2.3-0.4c0.7,0.5,1.5,0.2,2.3,0
			c0.8,0.4,2.2,0.5,2.8-0.1C660.1,253.2,659.7,252.4,659.3,251.8L659.3,251.8z"/>
		<path class="st1" d="M679.8,249.6c-1.3,0-2.4,0.4-2.9,0.9c0,0.7-0.3,0.9-0.3,1.5c0.3,0.9,0.9,1.5,1.8,1.9c0.8,0.3,1.5,0.9,2.5,1.1
			c0.4,0.4,1.1,0.9,2,1.1c0.2,0.6,0.6,0.9,0.9,1.3c0.3,0.5,0.4,0.9,0.7,1.4c0.3,1.6-0.2,2.4-0.7,3.3c-0.5,0.4-0.7,0.9-1.3,1.2
			c-0.7,0.4-2,0.4-2.9,0.7c-2,0.1-4.5-0.1-5.3-1.8c0-0.6,0.5-0.7,0.7-1.1c1.5,0.2,3.7,1.3,5.7,0.8c0.6-0.4,1.4-1.1,1.5-2.1
			c0-1.5-1.4-2.1-2.3-2.8c-0.9-0.3-1.4-0.7-2.4-0.9c-0.9-0.5-1.8-1.1-2.5-1.9c-0.3-0.7-0.6-1.3-0.8-2c0-1,0.3-1.5,0.2-2.6
			c0.4-0.5,0.8-1,1.2-1.5c0.6-0.2,1.2-0.4,1.8-0.7c1.4-0.1,2.3-0.1,3.8,0.1c0.3,0.3,1.3,0,1.5,0.7
			C683.1,250.3,680.9,249.7,679.8,249.6z"/>
		<path class="st1" d="M691.3,247.8c0.1,3.3-0.2,6.6,0.2,10.1c0.1,0.5,0.1,1.5,0.4,2.1c0.7,1.3,2.2,1.7,3.5,2
			c1.3-0.4,1.8-1.1,2.8-1.4c0.4-0.9,1-2,1.1-3c-0.1-0.9,0-1.6,0.3-2.1c0.1-2.1-0.3-5.4-0.1-7.7c0.8-0.4,1.8-0.4,2.2,0.2
			c0.3,2.6,0.1,5.5,0,8c0,1.1,0.2,1.6,0,2.3c0.1,1-0.1,2.4-0.1,3.5c0.1,0.6,0.4,1.2-0.1,1.7c-0.5,0.2-1.1,0.1-1.5-0.2
			c-0.4-0.3-0.2-0.9-0.7-1.1c-0.9,0-0.9,0.6-1.6,0.9c-0.8,0.1-1.3,0.5-2,0.7c-1.8-0.2-3.5,0-4.7-0.9c-1.2-0.8-1.4-2.4-2-4
			c-0.2-0.5,0.2-0.7,0.1-1.2c0-1.6-0.2-2.7,0-4.1c-0.1-0.3-0.2-0.7-0.3-0.9c0-0.4,0.2-0.8,0.3-1.1c-0.3-0.6-0.2-1.5-0.2-2.2
			c0.1-0.4,0.1-1,0.4-1.3c0-0.2,0.2-0.4,0.4-0.4C690.5,247.4,691,247.5,691.3,247.8L691.3,247.8z"/>
		<path class="st1" d="M717.5,250c0.1,1,0.5,1.8,1,2.3c0.1,1,0.6,2,0.9,2.8c0.4,0.7,0.5,1.7,1.4,2.2c0.8-0.3,1-2,1.4-2.6
			c0-0.3,0.3-0.4,0.4-0.7c0-0.2-0.1-0.4,0-0.5c0-0.1,0.2-0.1,0.3-0.2c0.2-0.4,0.3-0.9,0.4-1.5c1-1,1.1-2.9,2-4.1c1,0,1.6,0,2.1,0.3
			c-0.1,1.7-1.1,2.4-1.5,3.8c-0.4,1.3-1.2,2.3-1.3,3.7c-0.8,0.8-0.9,2-1.1,3c-0.8,0.9-1.1,1.5-1.3,2.8c-0.6,0.6-0.6,1.9-1.3,2.3
			c-0.8-0.1-0.6-0.9-0.9-1.3c-0.3-0.6-0.4-1.1-0.7-1.7c-0.6-1-0.7-2.5-1.3-3.3c0-0.4-0.3-0.4-0.2-0.9c-0.3-1.1-1.4-2-1.5-3.6
			c-0.2-0.2-0.4-0.7-0.7-0.9c-0.1-1.4-1.1-2.6-0.9-3.5c-0.1-0.8,0.8-0.5,1.3-0.6C716.7,248.2,716.8,249,717.5,250z"/>
		<path class="st1" d="M734.5,243.2c0.2,1.3-0.4,1.5-0.9,2.1c-1.5,0.2-2.5-0.3-2.4-1.9c0,0,0.1-0.2,0.2-0.4
			C732.3,242.1,733.8,242.1,734.5,243.2L734.5,243.2z M733.4,263.8c-0.7,0-1.2-0.2-1.7-0.3c-0.1-2.8-0.1-5.1-0.4-8.2
			c0.3-0.6,0.4-1.3,0.5-2.2c-0.2-1-0.2-2-0.2-2.8c0-0.8-0.3-1.7,0.3-2.4c0.5,0,0.8-0.5,1.1-0.2c1.3,0.4,0.8,1.9,0.9,2.9
			c-0.1,2.4,0,4.4,0.3,7.8c-0.3,0.8-0.1,2-0.2,2.8C734,262.2,734.1,263.1,733.4,263.8L733.4,263.8z"/>
		<path class="st1" d="M751.9,243.9c0,1,0.1,2.4,0.2,3.3c0,1-0.2,2.7-0.3,4c0.2,0.9,0.1,2,0.2,3.2c-0.1,1.1,0,2.1-0.1,3.2
			c0,0.6,0.1,1.3,0.1,1.9c0,0.7-0.1,1.2-0.1,1.9c0,0.9,0.5,1.7-0.5,2.5c-1.1,0.1-1.2-0.9-1.6-1.8c-0.9,0-1.1,0.5-1.7,0.8
			c-0.1,0.5-1,0.5-1.3,0.9c-1.1,0.2-2.8,0.2-4.1-0.2c-0.9-0.3-1.4-0.8-2.1-1.2c-0.3-0.3-0.4-0.7-0.8-0.9c-1-1.6-1.1-4.2-1.3-6.6
			c0.2-0.9,0.6-1.8,0.5-2.8c0.7-1.5,1.1-2.8,2.4-3.9c0.5-0.1,1.1-0.4,1.5-0.8c0.6,0,1.2,0,1.5-0.2c1,0.2,1.7,0.2,2.9,0.4
			c0.7,0.3,1.1,1.3,2.2,0.9c0.9-0.2,0-1.2,0.1-2c0.1-1.7,0.3-4.3,0.5-5.3c0.1-0.5,1-0.8,1.5-0.5
			C752.3,241.8,751.8,242.7,751.9,243.9z M742.8,250.1c-0.7,0.7-1.3,1.6-1.7,2.6c0.3,1.6-0.4,2.6-0.2,4c0.3,1.1,0.5,2,0.5,2.8
			c0.5,0.4,0.7,1.1,1,1.5c0.6,0.1,1,0.6,1.7,0.7c1.4,0.2,3.3-0.4,4.3-1.1c0.6-1.1,1.2-2.3,1.5-3.9c-0.3-1.1,0-2.3-0.3-3.5
			c0-0.9-0.5-1.4-0.8-2c-0.8-0.9-1.5-1.2-2.8-1.5c-0.6-0.2-1.1,0.2-1.7-0.1c0,0-0.1,0-0.1,0.2C743.6,249.7,743.5,250.1,742.8,250.1
			L742.8,250.1z"/>
		<path class="st1" d="M767.6,263.6c-0.8,0-0.8-0.9-1.5-1.1c-0.6,0.3-1.4,0.6-1.8,1c-1.3,0.2-2.9,0.4-4.4,0.2
			c-0.7-0.8-1.7-1.2-2.3-1.9c-0.4-1-0.2-2.3-0.7-3.2c0-0.9,0.2-1.5,0.3-2.4c0.3-0.4,0.6-1.1,0.9-1.5c0.2,0,0.4-0.1,0.4-0.3
			c1.4-0.7,2.6-0.7,4.6-1c1,0.6,1.5,1.2,2.5,1.4c1.2-0.4,0.1-1.8,0.3-2.9c-0.1-0.7-0.6-1.3-1.1-1.9c-0.7-0.1-1.1-0.4-1.8-0.6
			c-1.6-0.1-3,0.7-4.1,0.4c-0.4-0.5-0.7-0.9-0.6-1.6c0.4-0.6,1.5-0.5,2.1-1c1.3-0.1,2,0,3.3,0c0.7,0.4,1.5,0.7,2.5,0.9
			c1.1,1.6,2.4,3.6,2,6.4c0,0.5,0.2,0.8,0.2,1.3c0,1.8-0.2,3.2-0.3,4.9c0.1,0.9,0.3,1.2,0.3,2C768.6,263.3,768.1,263.3,767.6,263.6
			L767.6,263.6z M760.9,256c-0.4,0.4-0.9,0.7-1.4,1.1c0.2,0.3-0.2,0.3-0.3,0.6c-0.1,1.5,0.3,3.1,1.1,3.4c0.7,0.7,1.8,0.7,2.9,0.4
			c0.4-0.1,0.7-0.3,1.1-0.3c0.9-0.8,2-1,2.2-2.6c-0.5-1-1.1-1.6-1.7-2.3c-1-0.2-1.6-0.5-2.5-0.7c-0.1,0.1-0.2,0.2-0.2,0.2H760.9z"/>
		<path class="st1" d="M777.6,261.8c0.1,1.1-0.3,1.5-0.8,2c-1.3,0-2-0.5-1.7-2.2C775.6,260.4,777.3,260.8,777.6,261.8L777.6,261.8z"
			/>
	</g>
	<g>
		<path class="st1" d="M234.6,216.5h71.6c3.5,0,6.3-2.8,6.3-6.3s-2.8-6.3-6.3-6.3h-29.5v-61.3l52.8-47.3c3.9-3.5,1.4-9.9-3.8-9.9
			H215.1c-5.2,0-7.7,6.4-3.8,9.9l52.8,47.3v61.3h-29.5c-3.5,0-6.3,2.8-6.3,6.3S231.1,216.5,234.6,216.5z"/>
		<g>
			<path class="st1" d="M65.2,131.2c0-0.2,0.1-0.3,0.1-0.5c0-0.3,0.1-0.5,0.1-0.8c0-0.2,0-0.3,0.1-0.5c0-0.3,0-0.6,0.1-0.9
				c0-0.1,0-0.3,0-0.4c0-0.4,0-0.9,0-1.3V67c0-4.2-3.4-7.7-7.7-7.7h-3.8H17.9c-4.2,0-7.7,3.4-7.7,7.7v59.9
				c0,13.4,9.6,24.6,22.3,27.1v51.7H17.6c-3,0-5.3,2.4-5.3,5.3c0,3,2.4,5.3,5.3,5.3h40.5c3,0,5.3-2.4,5.3-5.3c0-3-2.4-5.3-5.3-5.3
				H43.2V154c6.5-1.3,12.1-4.8,16.1-9.7c0,0,0,0,0.1-0.1c0.2-0.3,0.5-0.6,0.7-0.9c0,0,0.1-0.1,0.1-0.1c0.2-0.3,0.4-0.6,0.6-0.9
				c0-0.1,0.1-0.1,0.1-0.2c0.2-0.3,0.4-0.6,0.5-0.8c0-0.1,0.1-0.1,0.1-0.2c0.2-0.3,0.3-0.5,0.5-0.8c0-0.1,0.1-0.2,0.1-0.3
				c0.1-0.3,0.3-0.5,0.4-0.8c0-0.1,0.1-0.2,0.1-0.3c0.1-0.3,0.3-0.5,0.4-0.8c0-0.1,0.1-0.2,0.1-0.3c0.1-0.3,0.2-0.5,0.3-0.8
				c0-0.1,0.1-0.2,0.1-0.4c0.1-0.3,0.2-0.5,0.3-0.8c0-0.1,0.1-0.3,0.1-0.4c0.1-0.3,0.2-0.5,0.2-0.8c0-0.1,0.1-0.3,0.1-0.4
				c0.1-0.3,0.1-0.5,0.2-0.8c0-0.1,0.1-0.3,0.1-0.4c0.1-0.3,0.1-0.5,0.2-0.8c0-0.2,0.1-0.3,0.1-0.5
				C65.1,131.7,65.2,131.4,65.2,131.2z"/>
			<path class="st1" d="M176.6,196.7h16.1v-35.4c-9.1-2.5-17.3-7.5-23.8-14.6c-8.4-9.2-13-21.2-13-33.6V64.2
				c0-7.8,6.3-14.1,14.1-14.1h30V20.5c0-5.1-4.1-9.2-9.2-9.2H95c-5.1,0-9.2,4.1-9.2,9.2V30h-7.4c-12,0-22.1,8.8-24,20.3h3.4
				c3.9,0,7.5,1.3,10.3,3.6c0.2-5.5,4.7-9.8,10.2-9.8h7.4v97.5h-7.4c-2.3,0-4.4-0.8-6.1-2c-1.6,4.5-4.1,8.6-7.3,12
				c3.8,2.5,8.4,4,13.4,4h7.4v13.3c0,4.3,2.9,7.9,6.9,8.9v23.5c0,8.4,6.8,15.2,15.2,15.2h55.4c-0.7-1.7-1-3.5-1-5.3
				C162.3,203.2,168.7,196.7,176.6,196.7z"/>
		</g>
		<g>
			<path class="st1" d="M219.3,210.2c0-1.5,0.2-3,0.7-4.4h-7.5v-51.9c12.6-1.3,23.5-8.3,30.1-18.4L205.3,102
				c-4.6-4.1-6.1-10.5-3.9-16.2c2.2-5.7,7.6-9.4,13.7-9.4h34.1V64.2c0-2.8-2.3-5.1-5.1-5.1h-74c-2.8,0-5.1,2.3-5.1,5.1v48.9
				c0,21.2,16.1,38.7,36.8,40.8v51.9h-25.2c-3,0-5.3,2.4-5.3,5.3c0,3,2.4,5.3,5.3,5.3h44C219.8,214.5,219.3,212.4,219.3,210.2z"/>
		</g>
	</g>
</g>
</svg>
