<svg id="0eb7c1ab-177e-41d2-ba00-a63a6f16bafa" data-name="Capa 1" xmlns="http://www.w3.org/2000/svg" viewBox="0 0 337.6 262.5"><defs><style>.\36 f9467a1-1c08-4287-8fa7-3b26dde9d8c8,.\39 46ccc26-e1e8-499a-905c-269de6ab6b50{fill:#fff;}.\36 f9467a1-1c08-4287-8fa7-3b26dde9d8c8{fill-rule:evenodd;}</style></defs><title>img08</title><path class="946ccc26-e1e8-499a-905c-269de6ab6b50" d="M19.7,23.5h11V25a8.6,8.6,0,0,1-2.2,5.8l-2.2,2.6-1.8,2.2a5.8,5.8,0,0,0-1.4,3.2V39q0,2.8,2.6,2.8c2,0,2.7-1.5,2.7-3V36.8H39.8v2.8A11.7,11.7,0,0,1,36,48.3c-2.5,2.4-6.2,3.6-11.1,3.6s-8.4-1.1-11-3.2a10.3,10.3,0,0,1-3.9-8.1V40.2a11.6,11.6,0,0,1,1-5,25.6,25.6,0,0,1,3.7-4.5l3.6-3.6a4.2,4.2,0,0,0,1.5-3V23.5Zm-1-15.1H31.8V21H18.7V8.4Z"/><path class="946ccc26-e1e8-499a-905c-269de6ab6b50" d="M53.4,34.9V51.3H40.8V8.4H53.4V24.5h6.2V8.4H72.3V51.3H59.6V34.9H53.4Z"/><path class="946ccc26-e1e8-499a-905c-269de6ab6b50" d="M106.3,51.3h-13l-1-5.8H84.9l-1,5.8H72.3L81.2,8.4H97.4ZM88.8,23.8L86.3,37.4H91Z"/><path class="946ccc26-e1e8-499a-905c-269de6ab6b50" d="M106.4,51.3V8.4h17.2a13.5,13.5,0,0,1,9.4,3.2,10.2,10.2,0,0,1,3.6,8v0.9c0,3-1.5,6.9-4.8,8.6a9.9,9.9,0,0,1,5.6,9.1v0.7a12,12,0,0,1-3.6,8.9c-2.4,2.3-5.8,3.5-10.2,3.5H106.4ZM119,25.4h1.5a3.4,3.4,0,0,0,3.5-3.7V21.2c0-2-1.2-3.7-3.5-3.7H119v7.9Zm0,16.7h1.8c2.4,0,3.6-1.6,3.6-3.8V37.8c0-2.3-1.2-3.9-3.6-3.9H119v8.2Z"/><path class="946ccc26-e1e8-499a-905c-269de6ab6b50" d="M164.9,51.3H138.4V8.4h12.6V40.7h13.8V51.3Z"/><path class="946ccc26-e1e8-499a-905c-269de6ab6b50" d="M165.6,51.3V8.4h27.5V19H178.2v5.7h9.3V34h-9.3v6.7h15.5V51.3H165.6Z"/><path class="946ccc26-e1e8-499a-905c-269de6ab6b50" d="M206.9,51.3H194.7V8.4h17.9l3.4,19.7,3.4-19.7h18V51.3H225.2V38.7c0-5,.1-9.5.4-13.7l-5.4,26.2H212l-5.4-26.2c0.2,4.1.4,8.6,0.4,13.7V51.3Z"/><path class="946ccc26-e1e8-499a-905c-269de6ab6b50" d="M243.1,47.8a13.9,13.9,0,0,1-3.9-10V21.9a13.9,13.9,0,0,1,3.9-10c2.6-2.8,6.6-4.1,11.9-4.1s9.2,1.3,11.9,4.1a13.9,13.9,0,0,1,3.9,10V37.8a13.9,13.9,0,0,1-3.9,10c-2.6,2.8-6.5,4.1-11.9,4.1S245.8,50.5,243.1,47.8ZM257.8,21q0-2.9-2.8-2.9T252.3,21V38.7q0,2.9,2.8,2.9t2.8-2.9V21Z"/><path class="946ccc26-e1e8-499a-905c-269de6ab6b50" d="M302.2,22.6h-12V20.2c0-1.9-.9-2.8-2.6-2.8a2.4,2.4,0,0,0-2.6,2.4V20c0,1.1,1,2.1,2.9,3l6.3,2.9c5.8,2.6,8.8,6.6,8.8,11.6v0.9a13,13,0,0,1-3.4,8.9c-2.3,2.6-6.7,4.3-12.4,4.3s-9.2-1.2-11.8-3.6a11.4,11.4,0,0,1-3.9-8.6V36.1h12.3v3.2a2.6,2.6,0,0,0,2.9,2.8,2.5,2.5,0,0,0,2.8-2.5V39.2c0-1.7-1.2-2.4-4.5-3.9l-5.1-2.2q-8.3-3.8-8.3-11.8V20.5a11.4,11.4,0,0,1,4.1-9c2.8-2.4,6.5-3.7,11.3-3.7s8.9,1.2,11.4,3.6a11,11,0,0,1,3.8,8.1v3.1Z"/><path class="946ccc26-e1e8-499a-905c-269de6ab6b50" d="M322.5,36.1h-11V34.7a8.6,8.6,0,0,1,2.2-5.8l2.2-2.6,1.8-2.2a5.8,5.8,0,0,0,1.4-3.2V20.7q0-2.8-2.6-2.8c-2,0-2.7,1.5-2.7,3v1.9H302.4V20.1a11.5,11.5,0,0,1,3.7-8.6c2.5-2.4,6.2-3.7,11.1-3.7s8.4,1.1,11,3.3a10.1,10.1,0,0,1,3.9,8v0.3a11,11,0,0,1-1,5,22.4,22.4,0,0,1-3.6,4.5l-3.6,3.6a4.2,4.2,0,0,0-1.5,3v0.6Zm1,15.1H310.4V38.7h13.1V51.3Z"/><path class="946ccc26-e1e8-499a-905c-269de6ab6b50" d="M99.7,80.3H95.6V60.2h10.5v3.6H99.7v4.3h4.9v3.6H99.7v8.5Z"/><path class="946ccc26-e1e8-499a-905c-269de6ab6b50" d="M107.9,79a5.8,5.8,0,0,1-1.5-4V65.6a5.7,5.7,0,0,1,1.5-4,6,6,0,0,1,4.7-1.7,5.9,5.9,0,0,1,4.6,1.7,5.6,5.6,0,0,1,1.6,4V75a5.7,5.7,0,0,1-1.6,4,6,6,0,0,1-4.6,1.6A6.1,6.1,0,0,1,107.9,79Zm6.6-4.1V65.7a1.9,1.9,0,1,0-3.9,0v9.1A1.9,1.9,0,1,0,114.5,74.8Z"/><path class="946ccc26-e1e8-499a-905c-269de6ab6b50" d="M123.8,80.3h-4V60.2h5.3l3.4,12.9a70.1,70.1,0,0,1-.3-7.3V60.2h4V80.3h-5.3l-3.4-12.9a70.1,70.1,0,0,1,.3,7.3v5.6Z"/><path class="946ccc26-e1e8-499a-905c-269de6ab6b50" d="M134.9,79a5.8,5.8,0,0,1-1.5-4V65.6a5.7,5.7,0,0,1,1.5-4,6,6,0,0,1,4.7-1.7,5.9,5.9,0,0,1,4.6,1.7,5.6,5.6,0,0,1,1.6,4V75a5.7,5.7,0,0,1-1.6,4,6,6,0,0,1-4.6,1.6A6.1,6.1,0,0,1,134.9,79Zm6.6-4.1V65.7a1.9,1.9,0,1,0-3.9,0v9.1A1.9,1.9,0,1,0,141.5,74.8Z"/><path class="946ccc26-e1e8-499a-905c-269de6ab6b50" d="M149.4,80.3V60.2h6.1a5.4,5.4,0,0,1,4.3,1.8,6.6,6.6,0,0,1,1.6,4.6V74a6.6,6.6,0,0,1-1.6,4.6,5.4,5.4,0,0,1-4.2,1.8h-6.1Zm4.2-3.6h0.8c1.8,0,2.8-1.2,2.8-3.1V67c0-2-.9-3.1-2.8-3.1h-0.8V76.7Z"/><path class="946ccc26-e1e8-499a-905c-269de6ab6b50" d="M170.2,80.3a14.5,14.5,0,0,1-.3-3V75.1c-0.1-2-.8-2.8-2.5-2.8h-0.7v8h-4.2V60.2h6.1c3.6,0,5.9,2.1,5.9,5.3v0.7a4.7,4.7,0,0,1-2.9,4.7c1.5,0.5,2.3,2,2.4,4.2l0.2,3.1,0.2,2.2h-4.2Zm-3.6-11.4h1.3a2.1,2.1,0,0,0,2.3-2.2V65.9q0-2.2-2.3-2.2h-1.3v5.1Z"/><path class="946ccc26-e1e8-499a-905c-269de6ab6b50" d="M176.4,79a5.8,5.8,0,0,1-1.5-4V65.6a5.7,5.7,0,0,1,1.5-4,6,6,0,0,1,4.7-1.7,5.9,5.9,0,0,1,4.6,1.7,5.6,5.6,0,0,1,1.6,4V75a5.7,5.7,0,0,1-1.6,4,6,6,0,0,1-4.6,1.6A6.1,6.1,0,0,1,176.4,79Zm6.6-4.1V65.7a1.9,1.9,0,1,0-3.9,0v9.1A1.9,1.9,0,1,0,183,74.8Z"/><path class="946ccc26-e1e8-499a-905c-269de6ab6b50" d="M196.9,79a3.9,3.9,0,0,1-3.6,1.6,5,5,0,0,1-4-1.6,6.1,6.1,0,0,1-1.3-4V65.6a5.7,5.7,0,0,1,1.5-4,6,6,0,0,1,4.7-1.7,5.6,5.6,0,0,1,4.5,1.6,6,6,0,0,1,1.4,4v2.1h-4v-2a1.9,1.9,0,1,0-3.9,0v9.1a2,2,0,0,0,2,2.1,1.9,1.9,0,0,0,2-2.1V73h-2.4V69.7h6.3V80.3h-2.3Z"/><path class="946ccc26-e1e8-499a-905c-269de6ab6b50" d="M213.3,80.3h-4.2l-0.6-3.5h-3.8l-0.6,3.5h-4L204,60.2h5.5ZM206.7,66l-1.4,7.8H208Z"/><path class="946ccc26-e1e8-499a-905c-269de6ab6b50" d="M224.9,67.1h-3.9V65.5a1.7,1.7,0,0,0-1.8-2,1.6,1.6,0,0,0-1.7,1.6v0.2a2.1,2.1,0,0,0,1.2,1.8l3.4,2a5.8,5.8,0,0,1,3.1,5.2v0.6a5.6,5.6,0,0,1-1.6,3.9,5.9,5.9,0,0,1-4.5,1.6,6.3,6.3,0,0,1-4.5-1.5,5.1,5.1,0,0,1-1.5-3.7V72.6h4v2.5a1.9,1.9,0,0,0,2,2,1.8,1.8,0,0,0,1.9-1.8V75a2.6,2.6,0,0,0-1.4-2.3L216.5,71c-2.3-1.4-3.3-2.9-3.3-5.2V65.2a5,5,0,0,1,1.6-3.7,5.9,5.9,0,0,1,4.3-1.5,5.8,5.8,0,0,1,4.4,1.5,4.9,4.9,0,0,1,1.4,3.5v2.2Z"/><path class="946ccc26-e1e8-499a-905c-269de6ab6b50" d="M236.3,80.3h-4.2V72.2l-4.8-11.9H232l2.3,6.5,2.4-6.5h4.5l-4.8,11.9v8.2Z"/><path class="946ccc26-e1e8-499a-905c-269de6ab6b50" d="M256,80.3h-4.2l-0.6-3.5h-3.8l-0.6,3.5h-4l3.8-20.1h5.5ZM249.3,66l-1.4,7.8h2.7Z"/><path class="946ccc26-e1e8-499a-905c-269de6ab6b50" d="M266.5,80.3H256.2V60.2h4.2V76.7h6v3.6Z"/><path class="946ccc26-e1e8-499a-905c-269de6ab6b50" d="M274.7,73.2h4v1.8a6,6,0,0,1-1.4,4,5.6,5.6,0,0,1-4.5,1.6,6.1,6.1,0,0,1-4.7-1.6,5.8,5.8,0,0,1-1.5-4V65.6a5.7,5.7,0,0,1,1.5-4,6,6,0,0,1,4.7-1.7,5.6,5.6,0,0,1,4.5,1.6,6,6,0,0,1,1.4,4v1.8h-4V65.7a1.9,1.9,0,1,0-3.9,0v9.1a1.9,1.9,0,1,0,3.9,0V73.2Z"/><path class="946ccc26-e1e8-499a-905c-269de6ab6b50" d="M280.7,79a5.8,5.8,0,0,1-1.5-4V65.6a5.7,5.7,0,0,1,1.5-4,6,6,0,0,1,4.7-1.7,5.9,5.9,0,0,1,4.6,1.7,5.6,5.6,0,0,1,1.6,4V75a5.7,5.7,0,0,1-1.6,4,6,6,0,0,1-4.6,1.6A6.1,6.1,0,0,1,280.7,79Zm6.6-4.1V65.7a1.9,1.9,0,1,0-3.9,0v9.1A1.9,1.9,0,1,0,287.2,74.8Z"/><path class="946ccc26-e1e8-499a-905c-269de6ab6b50" d="M296.8,72v8.4h-4.2V60.2h4.2v8.1h3.8V60.2h4.2V80.3h-4.2V72h-3.8Z"/><path class="946ccc26-e1e8-499a-905c-269de6ab6b50" d="M307.4,79a5.8,5.8,0,0,1-1.5-4V65.6a5.7,5.7,0,0,1,1.5-4,6,6,0,0,1,4.7-1.7,5.9,5.9,0,0,1,4.6,1.7,5.6,5.6,0,0,1,1.6,4V75a5.7,5.7,0,0,1-1.6,4,6,6,0,0,1-4.6,1.6A6.1,6.1,0,0,1,307.4,79Zm6.6-4.1V65.7a1.9,1.9,0,1,0-3.9,0v9.1A1.9,1.9,0,1,0,314,74.8Z"/><path class="946ccc26-e1e8-499a-905c-269de6ab6b50" d="M329.5,80.3H319.3V60.2h4.2V76.7h6v3.6Z"/><path class="946ccc26-e1e8-499a-905c-269de6ab6b50" d="M99.4,217.5V202.2H104a4.1,4.1,0,0,1,3.2,1.4,5,5,0,0,1,1.2,3.5v5.6a5,5,0,0,1-1.2,3.5,4.1,4.1,0,0,1-3.2,1.3H99.4Zm3.2-2.8h0.6c1.4,0,2.1-.9,2.1-2.4v-5c0-1.5-.7-2.4-2.1-2.4h-0.6v9.7Z"/><path class="946ccc26-e1e8-499a-905c-269de6ab6b50" d="M110.1,217.5V202.2h8.2V205h-5v3h3.2v2.8h-3.2v3.9h5.2v2.8h-8.4Z"/><path class="946ccc26-e1e8-499a-905c-269de6ab6b50" d="M128.4,207.4h-3v-1.2a1.3,1.3,0,0,0-1.3-1.5,1.2,1.2,0,0,0-1.3,1.2v0.2a1.6,1.6,0,0,0,.9,1.4l2.6,1.5a4.4,4.4,0,0,1,2.4,4v0.5a4.2,4.2,0,0,1-1.2,3,4.5,4.5,0,0,1-3.4,1.2,4.8,4.8,0,0,1-3.4-1.2,3.9,3.9,0,0,1-1.2-2.8v-2.1h3v1.9a1.4,1.4,0,0,0,1.5,1.5,1.3,1.3,0,0,0,1.4-1.4v-0.2a1.9,1.9,0,0,0-1.1-1.7l-2.2-1.3a4.2,4.2,0,0,1-2.5-3.9V206a3.8,3.8,0,0,1,1.2-2.8A4.5,4.5,0,0,1,124,202a4.4,4.4,0,0,1,3.3,1.1,3.7,3.7,0,0,1,1,2.6v1.7Z"/><path class="946ccc26-e1e8-499a-905c-269de6ab6b50" d="M130.1,217.5V202.2h4.6a4.1,4.1,0,0,1,3.2,1.4,5,5,0,0,1,1.2,3.5v5.6a5,5,0,0,1-1.2,3.5,4.1,4.1,0,0,1-3.2,1.3h-4.6Zm3.2-2.8h0.6c1.4,0,2.1-.9,2.1-2.4v-5c0-1.5-.7-2.4-2.1-2.4h-0.6v9.7Z"/><path class="946ccc26-e1e8-499a-905c-269de6ab6b50" d="M140.8,217.5V202.2H149V205h-5v3h3.2v2.8H144v3.9h5.2v2.8h-8.4Z"/><path class="946ccc26-e1e8-499a-905c-269de6ab6b50" d="M159.2,217.5a11,11,0,0,1-.3-2.3v-1.7c-0.1-1.5-.6-2.1-1.9-2.1h-0.5v6.1h-3.2V202.2H158c2.7,0,4.5,1.6,4.5,4v0.5a3.5,3.5,0,0,1-2.2,3.5c1.1,0.4,1.7,1.5,1.9,3.2l0.2,2.3,0.2,1.7h-3.2Zm-2.7-8.7h1a1.6,1.6,0,0,0,1.8-1.7v-0.6a1.5,1.5,0,0,0-1.8-1.6h-1v3.9Z"/><path class="946ccc26-e1e8-499a-905c-269de6ab6b50" d="M163.9,217.5V202.2h8.2V205h-5v3h3.2v2.8h-3.2v3.9h5.2v2.8h-8.4Z"/><path class="946ccc26-e1e8-499a-905c-269de6ab6b50" d="M173.6,217.5V202.2h4.6a4.1,4.1,0,0,1,3.2,1.4,5,5,0,0,1,1.2,3.5v5.6a5,5,0,0,1-1.2,3.5,4.1,4.1,0,0,1-3.2,1.3h-4.6Zm3.2-2.8h0.6c1.4,0,2.1-.9,2.1-2.4v-5c0-1.5-.7-2.4-2.1-2.4h-0.6v9.7Z"/><path class="946ccc26-e1e8-499a-905c-269de6ab6b50" d="M190.3,217.5h-3.2V202.2h8V205h-4.8v3.3H194V211h-3.7v6.4Z"/><path class="946ccc26-e1e8-499a-905c-269de6ab6b50" d="M199.7,217.5h-3.2V202.2h3.2v15.2Z"/><path class="946ccc26-e1e8-499a-905c-269de6ab6b50" d="M201.9,216.5a4.2,4.2,0,0,1-1-2.9v-2h3v2.1a1.2,1.2,0,1,0,2.4,0V205h-2.3v-2.8h5.5v11.3a4.3,4.3,0,0,1-1.1,3,4.1,4.1,0,0,1-3.3,1.2A4.1,4.1,0,0,1,201.9,216.5Z"/><path class="946ccc26-e1e8-499a-905c-269de6ab6b50" d="M220.5,217.5h-3.2l-0.5-2.6H214l-0.5,2.6h-3l2.9-15.2h4.2Zm-5.1-10.8-1.1,5.9h2.1Z"/><path class="946ccc26-e1e8-499a-905c-269de6ab6b50" d="M230.3,217.5h-3.2v-6.2l-3.6-9H227l1.7,4.9,1.8-4.9h3.4l-3.6,9v6.2Z"/><path class="946ccc26-e1e8-499a-905c-269de6ab6b50" d="M243.7,212h3v1.3a4.5,4.5,0,0,1-1.1,3.1,4.3,4.3,0,0,1-3.4,1.2,4.6,4.6,0,0,1-3.5-1.2,4.4,4.4,0,0,1-1.2-3v-7.1a4.3,4.3,0,0,1,1.2-3,4.6,4.6,0,0,1,3.5-1.3,4.3,4.3,0,0,1,3.4,1.2,4.5,4.5,0,0,1,1.1,3.1v1.3h-3v-1.3a1.5,1.5,0,1,0-2.9,0v6.9a1.5,1.5,0,1,0,2.9,0V212Z"/><path class="946ccc26-e1e8-499a-905c-269de6ab6b50" d="M248.2,217.5V202.2h8.2V205h-5v3h3.2v2.8h-3.2v3.9h5.2v2.8h-8.4Z"/><path class="946ccc26-e1e8-499a-905c-269de6ab6b50" d="M265.7,217.5h-7.8V202.2h3.2v12.5h4.6v2.8Z"/><path class="946ccc26-e1e8-499a-905c-269de6ab6b50" d="M268,216.4a4.4,4.4,0,0,1-1.2-3V202.2H270v11a1.5,1.5,0,0,0,1.5,1.7,1.5,1.5,0,0,0,1.5-1.7v-11H276v11.2a4.4,4.4,0,0,1-1.1,3.1,4.4,4.4,0,0,1-3.4,1.2A4.6,4.6,0,0,1,268,216.4Z"/><path class="946ccc26-e1e8-499a-905c-269de6ab6b50" d="M285.7,217.5h-7.8V202.2h3.2v12.5h4.6v2.8Z"/><path class="946ccc26-e1e8-499a-905c-269de6ab6b50" d="M296,217.5h-3.2l-0.5-2.6h-2.9l-0.5,2.6h-3l2.9-15.2h4.2ZM291,206.6l-1.1,5.9H292Z"/><path class="946ccc26-e1e8-499a-905c-269de6ab6b50" d="M303,217.5a11,11,0,0,1-.3-2.3v-1.7c-0.1-1.5-.6-2.1-1.9-2.1h-0.5v6.1h-3.2V202.2h4.6c2.7,0,4.5,1.6,4.5,4v0.5a3.5,3.5,0,0,1-2.2,3.5c1.1,0.4,1.7,1.5,1.9,3.2l0.2,2.3,0.2,1.7H303Zm-2.7-8.7h1a1.6,1.6,0,0,0,1.8-1.7v-0.6a1.5,1.5,0,0,0-1.8-1.6h-1v3.9Z"/><path class="946ccc26-e1e8-499a-905c-269de6ab6b50" d="M307.7,217.5V202.2h8.2V205h-5v3H314v2.8h-3.2v3.9h5.2v2.8h-8.4Z"/><path class="946ccc26-e1e8-499a-905c-269de6ab6b50" d="M325.9,207.4h-3v-1.2a1.3,1.3,0,0,0-1.3-1.5,1.2,1.2,0,0,0-1.3,1.2v0.2a1.6,1.6,0,0,0,.9,1.4l2.6,1.5a4.4,4.4,0,0,1,2.4,4v0.5a4.2,4.2,0,0,1-1.2,3,4.5,4.5,0,0,1-3.4,1.2,4.8,4.8,0,0,1-3.4-1.2,3.9,3.9,0,0,1-1.2-2.8v-2.1h3v1.9a1.4,1.4,0,0,0,1.5,1.5,1.3,1.3,0,0,0,1.4-1.4v-0.2a1.9,1.9,0,0,0-1.1-1.7l-2.2-1.3a4.2,4.2,0,0,1-2.5-3.9V206a3.8,3.8,0,0,1,1.2-2.8,4.5,4.5,0,0,1,3.3-1.2,4.4,4.4,0,0,1,3.3,1.1,3.7,3.7,0,0,1,1,2.6v1.7Z"/><path class="946ccc26-e1e8-499a-905c-269de6ab6b50" d="M135.5,192.4H105.3V118.8H96.6V96.5h5.2c7.4,0,12.4-2.4,15-7.2h18.7V192.4Z"/><path class="946ccc26-e1e8-499a-905c-269de6ab6b50" d="M206.2,192.4H177.3V176.2h-39V147.9l13.6-58.6h31.8l-19.6,63.8h13.3V123.9h28.9v29.2h7.5v23.1h-7.5v16.2Z"/><path class="946ccc26-e1e8-499a-905c-269de6ab6b50" d="M251.1,192.4H220.9V118.8h-8.7V96.5h5.2c7.4,0,12.4-2.4,15-7.2h18.7V192.4Z"/><path class="946ccc26-e1e8-499a-905c-269de6ab6b50" d="M256.2,192.4V169l25.6-24.2c9.6-9.3,13.7-14.7,13.7-22.4v-3.2c0-4.6-1.9-6.9-5.9-6.9s-6.2,2.4-6.2,6.9v12.7h-29V119.2a30.5,30.5,0,0,1,8.8-22.1c6-6.2,14.9-9.3,26.7-9.3s21.2,2.9,27.3,9a29.1,29.1,0,0,1,9,21.8v2.1c0,13.4-6.2,22.8-20.2,35.2l-12.4,11h32.6v25.5h-70Z"/><path class="6f9467a1-1c08-4287-8fa7-3b26dde9d8c8" d="M71.6,214.7s13.9,0,13.9-13.9V75.7c0-13.9-13.9-13.9-13.9-13.9H23S9.1,61.8,9.1,75.7V200.8c0,13.9,13.9,13.9,13.9,13.9H71.6Zm-24.3-5.8a6.9,6.9,0,1,1,6.9-6.9,6.9,6.9,0,0,1-6.9,6.9h0ZM36.9,70.3a1.3,1.3,0,0,1,.9-1.5h19a1.3,1.3,0,0,1,1,1.5v0.4a1.3,1.3,0,0,1-1,1.5h-19a1.3,1.3,0,0,1-.9-1.5V70.3ZM16.1,79.1H78.5v111H16.1V79.1Zm0,0"/><path class="946ccc26-e1e8-499a-905c-269de6ab6b50" d="M7.4,255.9V227.6H20v4.2H12.3v6.9h4.9v4.2H12.3v8.8h8v4.2H7.4Z"/><path class="946ccc26-e1e8-499a-905c-269de6ab6b50" d="M26.9,255.9H22.3V227.6h6l4.2,18.7c-0.2-2.9-.3-6.3-0.3-10.3v-8.4h4.6v28.3h-6l-4.2-18.7c0.2,2.9.3,6.3,0.3,10.3v8.4Z"/><path class="946ccc26-e1e8-499a-905c-269de6ab6b50" d="M49.1,245.8h4.6v3.6c0,4-2.3,6.8-6.8,6.8s-7.1-2.9-7.1-6.8V234c0-3.9,2.5-6.8,7.1-6.8s6.8,2.8,6.8,6.8v3.4H49.1V234c0-1.3-.6-2.5-2.2-2.5s-2.2,1.2-2.2,2.5v15.5c0,1.3.6,2.5,2.2,2.5s2.2-1.2,2.2-2.5v-3.7Z"/><path class="946ccc26-e1e8-499a-905c-269de6ab6b50" d="M56.1,249.5V227.6h4.9v21.8c0,1.4.6,2.6,2.3,2.6s2.2-1.2,2.2-2.6V227.6h4.7v21.9c0,4-2.3,6.8-6.9,6.8S56.1,253.4,56.1,249.5Z"/><path class="946ccc26-e1e8-499a-905c-269de6ab6b50" d="M73.3,255.9V227.6H85.8v4.2H78.1v6.9H83v4.2H78.1v8.8h8v4.2H73.3Zm4.3-30.3,1.1-6.4H84l-3,6.4H77.5Z"/><path class="946ccc26-e1e8-499a-905c-269de6ab6b50" d="M92.7,255.9H88.1V227.6h6l4.2,18.7C98.1,243.4,98,240,98,236v-8.4h4.6v28.3h-6l-4.2-18.7c0.2,2.9.3,6.3,0.3,10.3v8.4Z"/><path class="946ccc26-e1e8-499a-905c-269de6ab6b50" d="M113.8,255.9H109V231.8h-4.4v-4.2h13.6v4.2h-4.4v24.1Z"/><path class="946ccc26-e1e8-499a-905c-269de6ab6b50" d="M129.4,255.9a16.1,16.1,0,0,1-.4-4.2v-4.4c0-2.3-1-3.4-3-3.4h-0.8v11.9h-4.9V227.6h6.9c4.2,0,7,2.3,7,6.6v2.1c0,3-1.1,5-3.4,5.9,1.8,0.7,2.8,2.5,3,5.3l0.2,5.1a16.2,16.2,0,0,0,.4,3.4h-4.9ZM125.1,240h1.5c1.7,0,2.7-1.1,2.7-3v-2.5c0-1.9-.9-2.8-2.7-2.8h-1.5V240Z"/><path class="946ccc26-e1e8-499a-905c-269de6ab6b50" d="M150.5,255.9h-4.9l-0.7-5.1h-4.3l-0.7,5.1h-4.6l4.4-28.3h6.4Zm-7.7-20.4-1.7,11.7h3.3Z"/><path class="946ccc26-e1e8-499a-905c-269de6ab6b50" d="M156.9,255.9h-4.6V227.6h6l4.2,18.7c-0.2-2.9-.3-6.3-0.3-10.3v-8.4h4.6v28.3h-6l-4.2-18.7c0.2,2.9.3,6.3,0.3,10.3v8.4Z"/><path class="946ccc26-e1e8-499a-905c-269de6ab6b50" d="M169.8,234c0-3.9,2.5-6.8,7.1-6.8s7.1,2.9,7.1,6.8v15.5c0,3.9-2.5,6.8-7.1,6.8s-7.1-2.9-7.1-6.8V234Zm9.3,0c0-1.7-.7-2.5-2.2-2.5s-2.2.8-2.2,2.5v15.5c0,1.7.7,2.5,2.2,2.5s2.2-.8,2.2-2.5V234Z"/><path class="946ccc26-e1e8-499a-905c-269de6ab6b50" d="M199.9,237.2h-4.5v-3.4q0-2.4-2.1-2.4a1.9,1.9,0,0,0-2,2v1.7a3.7,3.7,0,0,0,1.7,3.2l3.7,2.6a8.3,8.3,0,0,1,3.6,7.2v1.5a6.7,6.7,0,0,1-1.8,4.8,6.9,6.9,0,0,1-5.2,1.9c-4.5,0-7-2.7-7-6.4v-4.7h4.6v4.5a2.2,2.2,0,0,0,2.3,2.4,2.1,2.1,0,0,0,2.1-2.3v-1.7a3.9,3.9,0,0,0-1.8-3.4l-3.4-2.3a8.3,8.3,0,0,1-3.7-7.3v-1.6c0-3.7,2.6-6.3,6.8-6.3s6.7,2.6,6.7,6.1v3.9Z"/><path class="946ccc26-e1e8-499a-905c-269de6ab6b50" d="M207.2,255.9V227.6h12.5v4.2H212v6.9H217v4.2H212v8.8h8v4.2H207.2Z"/><path class="946ccc26-e1e8-499a-905c-269de6ab6b50" d="M226.6,255.9H222V227.6h6l4.2,18.7c-0.2-2.9-.3-6.3-0.3-10.3v-8.4h4.6v28.3h-6l-4.2-18.7c0.2,2.9.3,6.3,0.3,10.3v8.4Z"/><path class="946ccc26-e1e8-499a-905c-269de6ab6b50" d="M292,227.8V256h38V227.8H292Zm25.3,11.1a9.2,9.2,0,0,1-14.2,8.2,6.5,6.5,0,0,0,4.8-1.3,3.2,3.2,0,0,1-3-2.3,3.2,3.2,0,0,0,1.5-.1,3.2,3.2,0,0,1-2.6-3.2,3.2,3.2,0,0,0,1.5.4,3.2,3.2,0,0,1-1-4.3,9.2,9.2,0,0,0,6.7,3.4,3.2,3.2,0,0,1,5.5-3,6.5,6.5,0,0,0,2.1-.8,3.2,3.2,0,0,1-1.4,1.8,6.5,6.5,0,0,0,1.9-.5A6.6,6.6,0,0,1,317.3,238.9Z"/><path class="946ccc26-e1e8-499a-905c-269de6ab6b50" d="M244.3,227.8V256h38.9V227.8H244.3Zm23.6,8.1h-2c-0.7,0-.8.3-0.8,1v1.7h2.8l-0.3,3h-2.5v9h-3.6v-9h-1.9v-3.1h1.9v-2.4c0-2.3,1.2-3.4,3.9-3.4h2.5v3.1Z"/></svg>