<svg id="00e56385-9c1a-428a-bc80-bb27569bf59d" data-name="Capa 1" xmlns="http://www.w3.org/2000/svg" viewBox="0 0 682 526.5"><defs><style>.\32 0f32e59-aaa4-4e44-9b79-9cc166ef2ee4{fill:#fff;}.\35 1df06e5-6ac3-4152-b22c-1bab4bad1551{fill:#d18b2b;}</style></defs><title>img08</title><path class="20f32e59-aaa4-4e44-9b79-9cc166ef2ee4" d="M169.7,326.6V311.3a1,1,0,0,1,1.1-1.1h5.1a1.1,1.1,0,0,1,1.1,1.1v15.6c0,4.9,1.5,6.8,5.4,6.8s5.4-1.9,5.4-6.8V311.3a1.1,1.1,0,0,1,1.1-1.1H194a1,1,0,0,1,1.1,1.1v15.4c0,8.2-4.2,13.5-12.7,13.5S169.7,334.8,169.7,326.6Z"/><path class="20f32e59-aaa4-4e44-9b79-9cc166ef2ee4" d="M201.9,310.9a1.2,1.2,0,0,1,1.4-1l17.2,11.1v-9.2a1.5,1.5,0,0,1,1.6-1.6h4.2a1.5,1.5,0,0,1,1.6,1.6v27a1.1,1.1,0,0,1-1.1,1.1h-5.1a1,1,0,0,1-1.1-1.1v-9l-11.2-7.4v16.4a1.1,1.1,0,0,1-1.1,1.1H203a1,1,0,0,1-1.1-1.1V310.9Z"/><path class="20f32e59-aaa4-4e44-9b79-9cc166ef2ee4" d="M263.6,310.2a1.1,1.1,0,0,1,1.1,1.1v4.9a1,1,0,0,1-1.1,1.1h-6.2v21.5a1.1,1.1,0,0,1-1.1,1.1h-5.1a1,1,0,0,1-1.1-1.1V317.2h-6.2a1,1,0,0,1-1.1-1.1v-4.9a1.1,1.1,0,0,1,1.1-1.1h19.6Z"/><path class="20f32e59-aaa4-4e44-9b79-9cc166ef2ee4" d="M286.7,321.7a1.1,1.1,0,0,1,1.1,1.1v4.7a1,1,0,0,1-1.1,1.1h-10v4.3h12.7a1.1,1.1,0,0,1,1.1,1.1v4.7a1,1,0,0,1-1.1,1.1h-19a1.1,1.1,0,0,1-1.1-1.1V311.3a1.1,1.1,0,0,1,1.1-1.1h19a1.1,1.1,0,0,1,1.1,1.1v4.9a1,1,0,0,1-1.1,1.1H276.7v4.5h10Z"/><path class="20f32e59-aaa4-4e44-9b79-9cc166ef2ee4" d="M308.4,330.4h-4.5v8.3a1.1,1.1,0,0,1-1.1,1.1h-5.1a1,1,0,0,1-1.1-1.1V311.3a1,1,0,0,1,1.1-1.1h13c5.1,0,9.2,4,9.2,9.8a9.5,9.5,0,0,1-4.6,8.6l5,10a1.2,1.2,0,0,1-1.3,1.4h-5a1.6,1.6,0,0,1-1.7-1.1Zm4-10c0-2.1-.9-2.9-2.1-2.9h-6.4v6h6.4C311.4,323.5,312.4,322.2,312.4,320.4Z"/><path class="20f32e59-aaa4-4e44-9b79-9cc166ef2ee4" d="M339,340.1a14.9,14.9,0,0,1-14.9-15.2,15.1,15.1,0,0,1,15.2-15.2,15.8,15.8,0,0,1,11.1,4.3,2.6,2.6,0,0,1,.3.8,1.2,1.2,0,0,1-.3.8l-3.2,2.8a1.2,1.2,0,0,1-.7.3,1.6,1.6,0,0,1-1-.3,9.5,9.5,0,0,0-6.2-1.9c-4.5,0-7.8,3.9-7.8,8.4s3.6,8.6,7.8,8.6,3.9,0,6.7-2.1a1.4,1.4,0,0,1,.9-0.4,1.1,1.1,0,0,1,.7.3l2.5,2.8a1.1,1.1,0,0,1,.4.8,1.6,1.6,0,0,1-.3.8C347.4,339.2,343.6,340.1,339,340.1Z"/><path class="20f32e59-aaa4-4e44-9b79-9cc166ef2ee4" d="M362.9,338.7a1.1,1.1,0,0,1-1.1,1.1h-5.1a1,1,0,0,1-1.1-1.1V311.3a1,1,0,0,1,1.1-1.1h5.1a1.1,1.1,0,0,1,1.1,1.1v27.5Z"/><path class="20f32e59-aaa4-4e44-9b79-9cc166ef2ee4" d="M368.3,324.9a15,15,0,1,1,15,15.2A15.1,15.1,0,0,1,368.3,324.9Zm22.8,0.2c0-4.5-3.2-8.4-7.8-8.4s-7.7,3.9-7.7,8.4,3.2,8.6,7.7,8.6S391.1,329.6,391.1,325.1Z"/><path class="20f32e59-aaa4-4e44-9b79-9cc166ef2ee4" d="M427.9,337.7a6.7,6.7,0,0,1-5.7,2.4c-5.5,0-9.7-5-9.7-10.8s4.4-10.6,9.1-10.6a8,8,0,0,1,5,1.4v-8.8a1.1,1.1,0,0,1,1.1-1.1h5.1a1,1,0,0,1,1.1,1.1v27.5a1.1,1.1,0,0,1-1.1,1.1h-3.1a1.3,1.3,0,0,1-1.5-1Zm-1.3-8.4a3.4,3.4,0,1,0-6.8,0c0,2.6,1.5,4.4,3.3,4.4S426.6,331.9,426.6,329.3Z"/><path class="20f32e59-aaa4-4e44-9b79-9cc166ef2ee4" d="M459.2,330.4a1.1,1.1,0,0,1-1.1,1.1H446.3c0.4,2.3,2.8,2.6,4.1,2.6a10.8,10.8,0,0,0,5-.9h0.3a0.9,0.9,0,0,1,.7.4l1.4,2.4a1.3,1.3,0,0,1,.3.7,1.6,1.6,0,0,1-.3.9c-1.4,1.9-4.6,2.6-7.3,2.6-5.9,0-11.6-2.9-11.6-10.9,0-5.8,3-10.5,10.2-10.5s10.1,3.3,10.1,10v1.7Zm-12.9-2.9h5.6a2.5,2.5,0,0,0-2.7-2.4A2.6,2.6,0,0,0,446.3,327.5Z"/><path class="20f32e59-aaa4-4e44-9b79-9cc166ef2ee4" d="M481.9,338.7a1.1,1.1,0,0,1-1.1,1.1h-5.1a1,1,0,0,1-1.1-1.1V311.3a1,1,0,0,1,1.1-1.1h5.1a1.1,1.1,0,0,1,1.1,1.1v27.5Z"/><path class="20f32e59-aaa4-4e44-9b79-9cc166ef2ee4" d="M486.8,329.6a10.9,10.9,0,1,1,21.8,0A10.9,10.9,0,0,1,486.8,329.6Zm14.5,0.1a3.8,3.8,0,0,0-3.7-4.1c-1.9,0-3.5,1.7-3.5,4.1a3.8,3.8,0,0,0,3.5,4.1A3.9,3.9,0,0,0,501.3,329.6Z"/><path class="20f32e59-aaa4-4e44-9b79-9cc166ef2ee4" d="M520.5,334.1c0.8,0,1.8-.1,1.8-0.7s-10-2-10-8.1c0-4.5,4.1-6.6,8.9-6.6a18.3,18.3,0,0,1,6.3,1.3,1.6,1.6,0,0,1,.6.7,1.6,1.6,0,0,1-.1.5l-0.9,3.7c-0.1.4-.3,0.6-1.1,0.6a21,21,0,0,0-3.9-.6c-1.9,0-2.5.1-2.5,0.8s9.9,2.8,9.9,7.8-4.9,6.6-9.1,6.6a14.2,14.2,0,0,1-7.8-2.2,1.2,1.2,0,0,1-.5-0.9,29.3,29.3,0,0,1,1-3.7,1.1,1.1,0,0,1,.9-0.7h0.5A15.3,15.3,0,0,0,520.5,334.1Z"/><path class="20f32e59-aaa4-4e44-9b79-9cc166ef2ee4" d="M194.9,376.4a7.1,7.1,0,0,1-5.3,2.4c-1.5,0-6.9-.6-6.9-6.9,0-4.1,2.9-5.7,6.8-5.7a10,10,0,0,1,4.1.8c-0.5-2.1-1.4-2.6-3.3-2.6a13.4,13.4,0,0,0-3.2.3h-0.6a1.5,1.5,0,0,1-1.4-.7l-1.1-3.2a3.6,3.6,0,0,1-.1-0.8,1.3,1.3,0,0,1,.6-1.2,15.7,15.7,0,0,1,6.7-1.3c6.8,0,9.8,3.7,9.8,9.6v10.5a1.1,1.1,0,0,1-1.1,1.1h-3.1a1.3,1.3,0,0,1-1.5-1Zm-1.3-4.1v-1.3a2.9,2.9,0,0,0-1.9-.7c-1.5,0-2.3.4-2.3,1.3s0.9,1.4,2.3,1.4A3.4,3.4,0,0,0,193.6,372.3Z"/><path class="20f32e59-aaa4-4e44-9b79-9cc166ef2ee4" d="M221,376.4a6.7,6.7,0,0,1-5.7,2.4c-5.5,0-9.7-5-9.7-10.8s4.4-10.6,9.1-10.6a8,8,0,0,1,5,1.4V350a1.1,1.1,0,0,1,1.1-1.1h5.1A1,1,0,0,1,227,350v27.5a1.1,1.1,0,0,1-1.1,1.1h-3.1a1.3,1.3,0,0,1-1.5-1Zm-1.3-8.4a3.4,3.4,0,1,0-6.8,0c0,2.6,1.5,4.4,3.3,4.4S219.7,370.7,219.7,368.1Z"/><path class="20f32e59-aaa4-4e44-9b79-9cc166ef2ee4" d="M249.2,378.6a1.3,1.3,0,0,1-1.5-1l-0.3-1.1c-1.4,2-3.8,2.4-5.5,2.4-6,0-8.7-4.5-8.7-9.5V358.8a1,1,0,0,1,1.1-1.1h5.1a1.1,1.1,0,0,1,1.1,1.1v10.4c0,1.8.2,3.3,2.7,3.3s2.4-1.5,2.4-3.3V358.8a1,1,0,0,1,1.1-1.1h5.1a1.1,1.1,0,0,1,1.1,1.1v18.7a1.1,1.1,0,0,1-1.1,1.1h-2.7Z"/><path class="20f32e59-aaa4-4e44-9b79-9cc166ef2ee4" d="M267.1,377.5a1.1,1.1,0,0,1-1.1,1.1h-5.1a1,1,0,0,1-1.1-1.1V350a1,1,0,0,1,1.1-1.1H266a1.1,1.1,0,0,1,1.1,1.1v27.5Z"/><path class="20f32e59-aaa4-4e44-9b79-9cc166ef2ee4" d="M282.8,378.8c-4.7,0-7.5-1.9-7.5-9.1v-5.5h-2.7a1,1,0,0,1-1.1-1.1v-4.6a1.1,1.1,0,0,1,1.1-1.1h2.7V350a1,1,0,0,1,1.1-1.1h5.1a1.1,1.1,0,0,1,1.1,1.1v7.4h3.6a1.1,1.1,0,0,1,1.1,1.1v4.6a1,1,0,0,1-1.1,1.1h-3.6v4.8c0,2,.2,3.4,1.7,3.4h1.6a1.2,1.2,0,0,1,1,.8l0.6,3.7a1.2,1.2,0,0,1,.1.4,1.3,1.3,0,0,1-.8,1A9.6,9.6,0,0,1,282.8,378.8Z"/><path class="20f32e59-aaa4-4e44-9b79-9cc166ef2ee4" d="M290.8,368.3a10.9,10.9,0,1,1,21.8,0A10.9,10.9,0,0,1,290.8,368.3Zm14.5,0.1a3.8,3.8,0,0,0-3.7-4.1c-1.9,0-3.5,1.7-3.5,4.1a3.8,3.8,0,0,0,3.5,4.1A3.9,3.9,0,0,0,305.3,368.4Z"/><path class="20f32e59-aaa4-4e44-9b79-9cc166ef2ee4" d="M324.5,372.8c0.8,0,1.8-.1,1.8-0.7s-10-2-10-8.1c0-4.5,4.1-6.6,8.9-6.6a18.3,18.3,0,0,1,6.3,1.3,0.9,0.9,0,0,1,.6,1.2l-0.9,3.7c-0.1.4-.3,0.6-1.1,0.6a21.1,21.1,0,0,0-3.9-.6c-1.9,0-2.5.1-2.5,0.8s9.9,2.8,9.9,7.8-4.9,6.6-9.1,6.6a14.2,14.2,0,0,1-7.8-2.2,1.2,1.2,0,0,1-.5-0.9,29.3,29.3,0,0,1,1-3.7,1.1,1.1,0,0,1,.9-0.7h0.5A15.3,15.3,0,0,0,324.5,372.8Z"/><path class="20f32e59-aaa4-4e44-9b79-9cc166ef2ee4" d="M361.7,371.6a2.7,2.7,0,0,1,1.3-.5,1.3,1.3,0,0,1,.9.4l2,2.1a2.1,2.1,0,0,1,.5,1.1,2.2,2.2,0,0,1-.3,1.1c-2.3,2.5-5.1,2.9-7.7,2.9A11,11,0,0,1,347.5,368a10.8,10.8,0,0,1,10.9-10.6,11.2,11.2,0,0,1,7.6,2.8,2.5,2.5,0,0,1,.3,1,1.7,1.7,0,0,1-.5,1.1l-2.1,2.7a1.8,1.8,0,0,1-.9.4h-0.3l-0.7-.3a7.7,7.7,0,0,0-3.4-.8,3.5,3.5,0,0,0-3.6,3.8,4.2,4.2,0,0,0,4,4.4A4.9,4.9,0,0,0,361.7,371.6Z"/><path class="20f32e59-aaa4-4e44-9b79-9cc166ef2ee4" d="M371.2,350a1.1,1.1,0,0,1,1.1-1.1h5.1a1,1,0,0,1,1.1,1.1v8.6a6.6,6.6,0,0,1,4.1-1.1c6,0,8.3,4.5,8.3,9.5v10.6a1,1,0,0,1-1.1,1.1h-5.1a1.1,1.1,0,0,1-1.1-1.1v-9.9c0-1.8-.2-3.3-2.7-3.3s-2.4,1.5-2.4,3.3v9.9a1,1,0,0,1-1.1,1.1h-5.1a1.1,1.1,0,0,1-1.1-1.1V350Z"/><path class="20f32e59-aaa4-4e44-9b79-9cc166ef2ee4" d="M400.1,347.3a4.1,4.1,0,1,1-4.1,4.1A4.1,4.1,0,0,1,400.1,347.3Zm3.7,30.2a1.1,1.1,0,0,1-1.1,1.1h-5.1a1,1,0,0,1-1.1-1.1V358.8a1,1,0,0,1,1.1-1.1h5.1a1.1,1.1,0,0,1,1.1,1.1v18.7Z"/><path class="20f32e59-aaa4-4e44-9b79-9cc166ef2ee4" d="M418,377.5a1.1,1.1,0,0,1-1.1,1.1h-5.1a1,1,0,0,1-1.1-1.1V350a1,1,0,0,1,1.1-1.1h5.1A1.1,1.1,0,0,1,418,350v27.5Z"/><path class="20f32e59-aaa4-4e44-9b79-9cc166ef2ee4" d="M443.2,369.2a1.1,1.1,0,0,1-1.1,1.1H430.4c0.4,2.3,2.8,2.6,4.1,2.6a10.8,10.8,0,0,0,5-.9h0.3a0.9,0.9,0,0,1,.7.4l1.4,2.4a1.2,1.2,0,0,1,.3.7,1.6,1.6,0,0,1-.3.9c-1.4,1.9-4.6,2.6-7.3,2.6-5.9,0-11.6-2.9-11.6-10.9,0-5.8,3-10.5,10.2-10.5s10.1,3.3,10.1,10v1.7Zm-12.9-2.9h5.6a2.5,2.5,0,0,0-2.7-2.4A2.6,2.6,0,0,0,430.3,366.3Z"/><path class="20f32e59-aaa4-4e44-9b79-9cc166ef2ee4" d="M452,357.7a1.3,1.3,0,0,1,1.5,1l0.3,1.1c1.4-2,4.1-2.4,5.9-2.4,6,0,8.3,4.5,8.3,9.5v10.6a1,1,0,0,1-1.1,1.1h-5.1a1.1,1.1,0,0,1-1.1-1.1v-9.9c0-1.8-.2-3.3-2.7-3.3s-2.4,1.5-2.4,3.3v9.9a1,1,0,0,1-1.1,1.1h-5.1a1.1,1.1,0,0,1-1.1-1.1V358.8a1.1,1.1,0,0,1,1.1-1.1H452Z"/><path class="20f32e59-aaa4-4e44-9b79-9cc166ef2ee4" d="M472.3,368.3a10.9,10.9,0,1,1,21.8,0A10.9,10.9,0,0,1,472.3,368.3Zm14.5,0.1a3.8,3.8,0,0,0-3.7-4.1c-1.9,0-3.5,1.7-3.5,4.1a3.8,3.8,0,0,0,3.5,4.1A3.9,3.9,0,0,0,486.8,368.4Z"/><path class="20f32e59-aaa4-4e44-9b79-9cc166ef2ee4" d="M506,372.8c0.8,0,1.8-.1,1.8-0.7s-10-2-10-8.1c0-4.5,4.1-6.6,8.9-6.6a18.3,18.3,0,0,1,6.3,1.3,0.9,0.9,0,0,1,.6,1.2l-0.9,3.7c-0.1.4-.3,0.6-1.1,0.6a21.1,21.1,0,0,0-3.9-.6c-1.9,0-2.5.1-2.5,0.8s9.9,2.8,9.9,7.8-4.9,6.6-9.1,6.6a14.2,14.2,0,0,1-7.8-2.2,1.2,1.2,0,0,1-.5-0.9,29.3,29.3,0,0,1,1-3.7,1.1,1.1,0,0,1,.9-0.7h0.5A15.3,15.3,0,0,0,506,372.8Z"/><path class="20f32e59-aaa4-4e44-9b79-9cc166ef2ee4" d="M374.5,147.8L358.4,78.1V63.4a1.9,1.9,0,0,0-1.9-1.9H336a1.9,1.9,0,0,0-1.9,1.9V78.1L324,121.8a1.9,1.9,0,0,0-.2.9L318,147.8c-1.6,6.2-2.6,11.1-2.6,17.3v75.7c0,5.7,1.2,9.6,3.9,12.3s6.7,3.9,12.3,3.9H361c5.7,0,9.7-1.3,12.3-3.9s3.9-6.5,3.9-12.3V165.1C377.2,158.8,376.1,154,374.5,147.8Z"/><path class="20f32e59-aaa4-4e44-9b79-9cc166ef2ee4" d="M355.8,121.4H337.7a1.9,1.9,0,1,0,0,3.8h18.1A1.9,1.9,0,0,0,355.8,121.4Z"/><path class="20f32e59-aaa4-4e44-9b79-9cc166ef2ee4" d="M337.7,117.5h18.1a1.9,1.9,0,0,0,0-3.8H337.7A1.9,1.9,0,1,0,337.7,117.5Z"/><path class="20f32e59-aaa4-4e44-9b79-9cc166ef2ee4" d="M278.8,179.9a1.9,1.9,0,0,0-.1-0.4V162.6a57.5,57.5,0,0,0-2.4-16.3L261.2,94.7A151.2,151.2,0,0,1,255,51.9V45.8a5.5,5.5,0,0,0,2.6-2.6,8.1,8.1,0,0,0,.7-4.8c-0.4-3.2-2.3-5.4-4.7-6V17.8c-0.2-4.6-6.9-5.1-10.6-5.2h-1.3c-3.7.1-10.4,0.6-10.6,5.3V32.4a5.6,5.6,0,0,0-2.7,1.6,8.1,8.1,0,0,0-2,4.4c-0.5,3.3.9,6.2,3.3,7.3v6.1a151.3,151.3,0,0,1-6.2,42.9l-15.3,51.7a57.4,57.4,0,0,0-2.4,16.3v84.8c0.3,9.4,17.8,9.5,34.8,9.6h2.6c17.4-.1,35.3-0.2,35.6-9.6V180.2A1.9,1.9,0,0,0,278.8,179.9Z"/><path class="20f32e59-aaa4-4e44-9b79-9cc166ef2ee4" d="M472.1,236.6a1.9,1.9,0,0,0-.2-0.8V126.9h0v-1.2c1.1-14.7-3.2-24.3-12.8-28.6-4.6-2.2-6.9-6.4-7.1-12.8V28.2a2,2,0,0,0-2-2H425.3a2,2,0,0,0-2,2v9.2h0V84c-0.2,6.4-2.6,10.7-7.1,12.8-9.6,4.3-13.9,14-12.8,28.5V235.8a1.9,1.9,0,0,0-.2.8,14.4,14.4,0,0,0,.2,1.8v2.1c0,4.7.5,9.9,3.9,13.1s5.9,3.4,10.9,3.4h38.8c5,0,8.6-1.1,11-3.4s3.9-8.5,3.9-13.1v-2.1A14.4,14.4,0,0,0,472.1,236.6Z"/><path class="20f32e59-aaa4-4e44-9b79-9cc166ef2ee4" d="M165.9,163.2l-20.5-17c-1.9-3.1-1.8-30.9-1.7-53.3q0-2.8,0-5.6h0.8a2,2,0,1,0,0-3.9h-0.8c0-5.5,0-11,0-16.2a2,2,0,0,0-2-1.9H120.2a2,2,0,0,0-2,1.9c0,5.2,0,10.6,0,16.2h-0.3a2,2,0,1,0,0,3.9h0.3q0,2.8,0,5.6c0.1,22.4.2,50.3-1.6,53.1L95.9,163.3c-4.5,4.3-6.3,9.9-5.5,16.5l6.2,66.5c0.9,6.3,2.9,10.3,10,10.7h48.8c7-.4,9-4.4,9.9-10.8l6.1-66.3C172.4,173.2,170.5,167.6,165.9,163.2Z"/><path class="20f32e59-aaa4-4e44-9b79-9cc166ef2ee4" d="M562.4,106.1c-7.6-3.2-8.7-5.3-8.5-11.5V94.3h0.3a2,2,0,1,0,0-3.9h-0.3V75.8a2,2,0,0,0-2-2H531.6a2,2,0,0,0-2,2V90.4H529a2,2,0,1,0,0,3.9h0.6v0.4c0.2,6.1-.9,8.2-8.6,11.5-12.9,6.2-18.8,15.1-18.6,28v110c-0.1,4.4,1,7.7,3.2,9.9s4.9,3,8.6,3h55c3.7,0,6.7-1,8.7-3s3.3-5.5,3.2-9.8v-110C581.3,121.2,575.4,112.3,562.4,106.1Z"/><polygon class="51df06e5-6ac3-4152-b22c-1bab4bad1551" points="177.9 398.7 145.2 398.7 145.2 284.7 178.4 284.7 178.4 287.8 148.3 287.8 148.3 395.6 177.9 395.6 177.9 398.7"/><polygon class="51df06e5-6ac3-4152-b22c-1bab4bad1551" points="560.2 398.7 527.5 398.7 527.5 395.6 557.1 395.6 557.1 287.8 527 287.8 527 284.7 560.2 284.7 560.2 398.7"/><path class="20f32e59-aaa4-4e44-9b79-9cc166ef2ee4" d="M27.7,427.6a4.4,4.4,0,0,0-2.9.9,11.3,11.3,0,0,0-.3,1.5,3.3,3.3,0,0,0,1.8,1.9,15.7,15.7,0,0,0,2.5,1.1,3.8,3.8,0,0,0,2,1.1,3.7,3.7,0,0,0,.9,1.3c0.3,0.5.4,0.9,0.7,1.4a4.1,4.1,0,0,1-.7,3.3,5.1,5.1,0,0,1-1.3,1.2c-0.7.4-2,.4-2.9,0.7s-4.5-.1-5.3-1.8,0.5-.7.7-1.1,3.7,1.3,5.7.8a3.1,3.1,0,0,0,1.5-2.1c0-1.5-1.4-2.1-2.3-2.8a11.6,11.6,0,0,0-2.4-.9,10.2,10.2,0,0,1-2.5-1.9,10.5,10.5,0,0,1-.8-2c0-1,.3-1.5.2-2.6l1.2-1.5,1.8-.7a14.8,14.8,0,0,1,3.8.1c0.3,0.3,1.3,0,1.5.7S28.9,427.7,27.7,427.6Z"/><path class="20f32e59-aaa4-4e44-9b79-9cc166ef2ee4" d="M48.7,434.5c-2.6.4-5.9-.1-8.4,0.2-0.6.1-1.5,0-1.9,0.3,0.4,3.1,2,5.3,5.5,5,1.3-.4,2.2-1.5,3.2-0.7s-0.9,1.9-2.3,2.4-1.9.1-2.7,0-2.3-.7-3.3-1a14.2,14.2,0,0,0-1.8-1.8,8.2,8.2,0,0,0-.3-1.2,10,10,0,0,1-.6-2.2,37.1,37.1,0,0,1,.2-5.6c0.3-.8.4-1.3,0.7-2s1.1-1.1,1.5-1.8l1.8-.7c1-.2,2.8.3,3.8-0.2a9.2,9.2,0,0,0,2,.7,15.3,15.3,0,0,1,2.3,2.6,1.9,1.9,0,0,0,.3,1.5,2,2,0,0,0,.3,1.5c-0.3.8,0.4,2.3-.4,2.9h0Zm-2.5-4.8a6.7,6.7,0,0,0-1.4-1.8,7.1,7.1,0,0,0-4.1,0c-0.7,0-1,.7-1.6,1.1s-1.3,2.7-.1,3.7,0.3-.1.3,0a8.6,8.6,0,0,0,2.3-.4,2.6,2.6,0,0,0,2.3,0,2.6,2.6,0,0,0,2.8-.1,3.2,3.2,0,0,0-.3-2.6H46.2Z"/><path class="20f32e59-aaa4-4e44-9b79-9cc166ef2ee4" d="M73.3,434.5c-2.6.4-5.9-.1-8.4,0.2-0.6.1-1.5,0-1.9,0.3,0.4,3.1,2,5.3,5.5,5,1.3-.4,2.2-1.5,3.2-0.7s-0.9,1.9-2.3,2.4-1.9.1-2.7,0-2.3-.7-3.3-1a14.2,14.2,0,0,0-1.8-1.8,8.2,8.2,0,0,0-.3-1.2,10,10,0,0,1-.6-2.2,37.1,37.1,0,0,1,.2-5.6c0.3-.8.4-1.3,0.7-2s1.1-1.1,1.5-1.8l1.8-.7c1-.2,2.8.3,3.8-0.2a9.2,9.2,0,0,0,2,.7,15.3,15.3,0,0,1,2.3,2.6,1.9,1.9,0,0,0,.3,1.5,2,2,0,0,0,.3,1.5c-0.3.8,0.4,2.3-.4,2.9h0Zm-2.5-4.8a6.7,6.7,0,0,0-1.4-1.8,7.1,7.1,0,0,0-4.1,0c-0.7,0-1,.7-1.6,1.1s-1.3,2.7-.1,3.7,0.3-.1.3,0a8.6,8.6,0,0,0,2.3-.4,2.6,2.6,0,0,0,2.3,0,2.6,2.6,0,0,0,2.8-.1,3.2,3.2,0,0,0-.3-2.6H70.8Z"/><path class="20f32e59-aaa4-4e44-9b79-9cc166ef2ee4" d="M88.3,427.3c-0.2,1.5-1.9.8-2.7,0.4a15.4,15.4,0,0,0-3.2.1c-0.8.4-1.3,1.2-2.1,1.7a10.7,10.7,0,0,1-.8,2.3A13.2,13.2,0,0,0,80,437a4.5,4.5,0,0,0,1.8,2.1,11.7,11.7,0,0,1,1.7.7,1.6,1.6,0,0,1,1.1.1c1.1-.1,2.2-0.7,3.1-0.7a6.7,6.7,0,0,1,.4,1.3c-0.2,1-1.9,1.1-3,1.3H82.6l-2.5-1.2a8.3,8.3,0,0,1-2.2-2.9,8.7,8.7,0,0,0-.7-2.4c0-1.1,0-2.2.1-3.4a24.7,24.7,0,0,1,1.1-3.2,15.1,15.1,0,0,1,2.9-2.9,6.1,6.1,0,0,0,1.8-.4,20.2,20.2,0,0,1,3.2.1c0.7,0.6,1.9.5,2,1.7h0Z"/><path class="20f32e59-aaa4-4e44-9b79-9cc166ef2ee4" d="M98.2,425.3l0.2-.2c1.1,0.1,1.6.7,2.8,0.5s2.4,2.4,3.2,3.4,0.2,2,.9,2.8a2.6,2.6,0,0,0,.2,1.8,3.1,3.1,0,0,0,0,1.2c0,1-.7,1.7-0.7,2.8a9,9,0,0,0-1.3,2.1,10.8,10.8,0,0,1-2.5,1.7,7.9,7.9,0,0,1-4.6.1c-0.9-.4-1.7-0.9-2.6-1.4a2.3,2.3,0,0,0-.9-1.3c-0.1-.9-0.7-1.3-0.8-2.1s-0.2-1.4-.4-2.1,0.4-3,.3-4.5a4.9,4.9,0,0,0,1.3-2.1,4.1,4.1,0,0,0,1.2-1.5,25.1,25.1,0,0,1,3.8-1.2h0Zm-1.6,2.6a14.6,14.6,0,0,0-1.7,1.5c-0.9,1.8-.9,3.8-0.8,6.4a7.6,7.6,0,0,0,2.1,3.4,9.6,9.6,0,0,0,3.5.7,12.2,12.2,0,0,1,1.8-1.1l0.5-.8,0.3-.2c0.1-.2,0-0.5.1-0.9l0.4-.5a14.3,14.3,0,0,1,.4-2.5c-0.2-.8-0.1-1.8-0.3-2.7a15.3,15.3,0,0,1-1-2.3,16.1,16.1,0,0,0-2.5-1.3,13.2,13.2,0,0,0-1.5.1,5.8,5.8,0,0,0-1.4.2h0Z"/><path class="20f32e59-aaa4-4e44-9b79-9cc166ef2ee4" d="M122.9,441.3a7.1,7.1,0,0,1-1.9.2c-0.4-1.3-.2-2.7,0-4.3s-0.4-3-.2-4.8a9.6,9.6,0,0,0-.4-3.1,2.6,2.6,0,0,0-.1-0.4c-0.7-1-1.7-1.1-2.6-1.7a5.8,5.8,0,0,0-4.3,2.1c-0.1.8-.6,1.4-0.7,2.4a9,9,0,0,1-.1,3.5l0.3,1.2c-0.2,1.4-.3,3.2-0.3,4.6a2,2,0,0,1-1.7.4,4.2,4.2,0,0,1-.3-3.1c-0.1-.6-0.1-1.1-0.2-1.7s0.2-2.3.2-3.6a0.4,0.4,0,0,0,0-.4c0.1-2.2-.1-3.8.2-6a1.1,1.1,0,0,1,.2-1.2c1.5-.4,1.2,1.1,2.1,1.5a14.6,14.6,0,0,0,2-1.5,4.9,4.9,0,0,0,1.9-.4c0.5,0.3,1-.1,1.5,0a5.1,5.1,0,0,1,3.8,2.1,2.2,2.2,0,0,0,.5,1.3c-0.2.6,0.3,1.1,0.2,1.8a9.1,9.1,0,0,1-.1,1,27.2,27.2,0,0,1,.2,3.5,10.3,10.3,0,0,0,.2,3.5c-0.3,1.3.4,2.1-.2,3.1h0Z"/><path class="20f32e59-aaa4-4e44-9b79-9cc166ef2ee4" d="M133.9,425.3l0.2-.2c1.1,0.1,1.6.7,2.8,0.5s2.4,2.4,3.2,3.4,0.2,2,.9,2.8a2.6,2.6,0,0,0,.2,1.8,3.1,3.1,0,0,0,0,1.2c0,1-.7,1.7-0.7,2.8a9,9,0,0,0-1.3,2.1,10.8,10.8,0,0,1-2.5,1.7,7.9,7.9,0,0,1-4.6.1c-0.9-.4-1.7-0.9-2.6-1.4a2.3,2.3,0,0,0-.9-1.3c-0.1-.9-0.7-1.3-0.8-2.1s-0.2-1.4-.4-2.1,0.4-3,.3-4.5a4.9,4.9,0,0,0,1.3-2.1,4.1,4.1,0,0,0,1.2-1.5,25.1,25.1,0,0,1,3.8-1.2h0Zm-1.6,2.6a14.5,14.5,0,0,0-1.7,1.5c-0.9,1.8-.9,3.8-0.8,6.4a7.5,7.5,0,0,0,2.1,3.4,9.6,9.6,0,0,0,3.5.7,12.2,12.2,0,0,1,1.8-1.1l0.5-.8,0.3-.2c0.1-.2,0-0.5.1-0.9l0.4-.5a14.3,14.3,0,0,1,.4-2.5c-0.2-.8-0.1-1.8-0.3-2.7a15.3,15.3,0,0,1-1-2.3,16.1,16.1,0,0,0-2.5-1.3,13.2,13.2,0,0,0-1.5.1,5.8,5.8,0,0,0-1.4.2h0Z"/><path class="20f32e59-aaa4-4e44-9b79-9cc166ef2ee4" d="M158.7,441.3a7.1,7.1,0,0,1-1.9.2c-0.4-1.3-.2-2.7,0-4.3s-0.4-3-.2-4.8a9.6,9.6,0,0,0-.4-3.1,2.6,2.6,0,0,0-.1-0.4c-0.7-1-1.7-1.1-2.6-1.7a5.8,5.8,0,0,0-4.3,2.1c-0.1.8-.6,1.4-0.7,2.4a9,9,0,0,1-.1,3.5l0.3,1.2c-0.2,1.4-.3,3.2-0.3,4.6a2,2,0,0,1-1.7.4,4.2,4.2,0,0,1-.3-3.1c-0.1-.6-0.1-1.1-0.2-1.7s0.2-2.3.2-3.6a0.4,0.4,0,0,0,0-.4c0.1-2.2-.1-3.8.2-6a1.1,1.1,0,0,1,.2-1.2c1.5-.4,1.2,1.1,2.1,1.5a14.6,14.6,0,0,0,2-1.5,4.9,4.9,0,0,0,1.9-.4c0.5,0.3,1-.1,1.5,0a5.1,5.1,0,0,1,3.8,2.1,2.2,2.2,0,0,0,.5,1.3c-0.2.6,0.3,1.1,0.2,1.8a9.1,9.1,0,0,1-.1,1,27.2,27.2,0,0,1,.2,3.5,10.3,10.3,0,0,0,.2,3.5c-0.3,1.3.4,2.1-.2,3.1h0Z"/><path class="20f32e59-aaa4-4e44-9b79-9cc166ef2ee4" d="M168.3,419.2c0.2,2.2-.9,4.6.5,6.3a7.3,7.3,0,0,1,2.3-.1,2,2,0,0,1,.3,2.2c-0.8.2-2.1-.4-2.9,0.2a1.2,1.2,0,0,1-.4.6c0.2,1.4-.1,3,0.4,4.3s-0.1,2.2-.4,3.2a21,21,0,0,1,.3,2.9l1.1,0.8c1.2,0.4,2.7.1,2.3,1.8s-1.6.4-2.5,0.4a8.7,8.7,0,0,0-1.8-.6,9.3,9.3,0,0,1-1.3-1.7,8.3,8.3,0,0,0-.3-2.4c-0.3-2.6.1-5.8-.3-9.2-0.4-.5-1.5-0.5-2.6-0.6a2.2,2.2,0,0,1,.1-2.1c0.9-.1,2.6.1,2.9-0.9a14.2,14.2,0,0,0-.2-1.5c0.1-1.9-.2-3.2.4-4.3a2,2,0,0,1,1.9.4h0Z"/><path class="20f32e59-aaa4-4e44-9b79-9cc166ef2ee4" d="M183.4,425.3a2.1,2.1,0,0,1,.4,2.1c-0.9.3-2.2,0.4-2.9,0.5s-1.2,2-1.8,3a69.1,69.1,0,0,1-.4,11l-1.6-.3c-0.6-.9-0.1-1.5-0.1-2.5s-0.2-1-.2-1.5,0.1-.8.1-1.1-0.2-3.7-.1-5.9a6.2,6.2,0,0,0-.1-2.8c0.3-.9,0-1.8.8-2.2a1.6,1.6,0,0,1,1.1.4c0.3,0.2.2,0.8,0.7,0.8s1.3-.8,2.2-1.1,1.3,0,1.6-.3h0.3Z"/><path class="20f32e59-aaa4-4e44-9b79-9cc166ef2ee4" d="M197.2,441.6c-0.8,0-.8-0.9-1.5-1.1a9.7,9.7,0,0,0-1.8,1,15.6,15.6,0,0,1-4.4.2c-0.7-.8-1.7-1.2-2.3-1.9s-0.2-2.3-.7-3.2a14.4,14.4,0,0,1,.3-2.4c0.3-.4.6-1.1,0.9-1.5a0.5,0.5,0,0,0,.4-0.3c1.4-.7,2.6-0.7,4.6-1a7.2,7.2,0,0,0,2.5,1.4c1.2-.4.1-1.8,0.3-2.9a4.8,4.8,0,0,0-1.1-1.9c-0.7-.1-1.1-0.4-1.8-0.6s-3,.7-4.1.4a2,2,0,0,1-.6-1.6c0.4-.6,1.5-0.5,2.1-1a30.4,30.4,0,0,1,3.3,0,6,6,0,0,0,2.5.9c1.1,1.6,2.4,3.6,2,6.4,0,0.5.2,0.8,0.2,1.3s-0.2,3.2-.3,4.9a13.3,13.3,0,0,1,.3,2,1.8,1.8,0,0,1-1.1,1h0Zm-6.7-7.7-1.4,1.1c0.2,0.3-.2.3-0.3,0.6s0.3,3.1,1.1,3.4a3.3,3.3,0,0,0,2.9.4,3.1,3.1,0,0,1,1.1-.3c0.9-.8,2-1,2.2-2.6a11.8,11.8,0,0,0-1.7-2.3c-1-.2-1.6-0.5-2.5-0.7l-0.2.2h-1.2Z"/><path class="20f32e59-aaa4-4e44-9b79-9cc166ef2ee4" d="M210.8,425.3a2.1,2.1,0,0,1,.4,2.1c-0.9.3-2.2,0.4-2.9,0.5s-1.2,2-1.8,3a69.1,69.1,0,0,1-.4,11l-1.6-.3c-0.6-.9-0.1-1.5-0.1-2.5s-0.2-1-.2-1.5,0.1-.8.1-1.1-0.2-3.7-.1-5.9a6.2,6.2,0,0,0-.1-2.8c0.3-.9,0-1.8.8-2.2a1.6,1.6,0,0,1,1.1.4c0.3,0.2.2,0.8,0.7,0.8s1.3-.8,2.2-1.1,1.3,0,1.6-.3h0.3Z"/><path class="20f32e59-aaa4-4e44-9b79-9cc166ef2ee4" d="M217.2,441.7a3.1,3.1,0,0,1-1.6-.2c0-2.8-.1-5.1.1-8.3a15.8,15.8,0,0,1-.2-2.2c0-1-.2-1.8-0.1-2.8a5.1,5.1,0,0,1,.3-2.5c0.6,0.1.8-.4,1.1-0.2s0.8,1.8.8,3-0.1,4.2-.1,7.7a6.9,6.9,0,0,1,.2,2.7c0,1.1.1,2.1-.7,2.7h0.1Zm3.1-24.3c-0.2,1.4-1.1,1.7-1.3,2.7s-1,1.6-1.8,2.3a1.4,1.4,0,0,1-1.3-.8,37.4,37.4,0,0,0,1.6-4.3,3.5,3.5,0,0,1,2.7.2h0.1Z"/><path class="20f32e59-aaa4-4e44-9b79-9cc166ef2ee4" d="M233.2,441.6c-0.8,0-.8-0.9-1.5-1.1a9.7,9.7,0,0,0-1.8,1,15.6,15.6,0,0,1-4.4.2c-0.7-.8-1.7-1.2-2.3-1.9s-0.2-2.3-.7-3.2a14.4,14.4,0,0,1,.3-2.4c0.3-.4.6-1.1,0.9-1.5a0.5,0.5,0,0,0,.4-0.3c1.4-.7,2.6-0.7,4.6-1a7.2,7.2,0,0,0,2.5,1.4c1.2-.4.1-1.8,0.3-2.9a4.8,4.8,0,0,0-1.1-1.9c-0.7-.1-1.1-0.4-1.8-0.6s-3,.7-4.1.4a2,2,0,0,1-.6-1.6c0.4-.6,1.5-0.5,2.1-1a30.4,30.4,0,0,1,3.3,0,6,6,0,0,0,2.5.9c1.1,1.6,2.4,3.6,2,6.4,0,0.5.2,0.8,0.2,1.3s-0.2,3.2-.3,4.9a13.3,13.3,0,0,1,.3,2,1.8,1.8,0,0,1-1.1,1h0Zm-6.7-7.7-1.4,1.1c0.2,0.3-.2.3-0.3,0.6s0.3,3.1,1.1,3.4a3.3,3.3,0,0,0,2.9.4,3.1,3.1,0,0,1,1.1-.3c0.9-.8,2-1,2.2-2.6a11.8,11.8,0,0,0-1.7-2.3c-1-.2-1.6-0.5-2.5-0.7l-0.2.2h-1.2Z"/><path class="20f32e59-aaa4-4e44-9b79-9cc166ef2ee4" d="M259.8,434.5c-2.6.4-5.9-.1-8.4,0.2-0.6.1-1.5,0-1.9,0.3,0.4,3.1,2,5.3,5.5,5,1.3-.4,2.2-1.5,3.2-0.7s-0.9,1.9-2.3,2.4-1.9.1-2.7,0-2.3-.7-3.3-1a14.2,14.2,0,0,0-1.8-1.8,8.2,8.2,0,0,0-.3-1.2,10,10,0,0,1-.6-2.2,37.1,37.1,0,0,1,.2-5.6c0.3-.8.4-1.3,0.7-2s1.1-1.1,1.5-1.8l1.8-.7c1-.2,2.8.3,3.8-0.2a9.2,9.2,0,0,0,2,.7,15.3,15.3,0,0,1,2.3,2.6,1.9,1.9,0,0,0,.3,1.5,2,2,0,0,0,.3,1.5c-0.3.8,0.4,2.3-.4,2.9h0Zm-2.5-4.8a6.7,6.7,0,0,0-1.4-1.8,7.1,7.1,0,0,0-4.1,0c-0.7,0-1,.7-1.6,1.1s-1.3,2.7-.1,3.7,0.3-.1.3,0a8.6,8.6,0,0,0,2.3-.4,2.6,2.6,0,0,0,2.3,0,2.6,2.6,0,0,0,2.8-.1,3.2,3.2,0,0,0-.3-2.6h-0.1Z"/><path class="20f32e59-aaa4-4e44-9b79-9cc166ef2ee4" d="M277.6,441.3a7.1,7.1,0,0,1-1.9.2c-0.4-1.3-.2-2.7,0-4.3s-0.4-3-.2-4.8a9.6,9.6,0,0,0-.4-3.1,2.6,2.6,0,0,0-.1-0.4c-0.7-1-1.7-1.1-2.6-1.7a5.8,5.8,0,0,0-4.3,2.1c-0.1.8-.6,1.4-0.7,2.4a9,9,0,0,1-.1,3.5l0.3,1.2c-0.2,1.4-.3,3.2-0.3,4.6a2,2,0,0,1-1.7.4,4.2,4.2,0,0,1-.3-3.1c-0.1-.6-0.1-1.1-0.2-1.7s0.2-2.3.2-3.6a0.4,0.4,0,0,0,0-.4c0.1-2.2-.1-3.8.2-6a1.1,1.1,0,0,1,.2-1.2c1.5-.4,1.2,1.1,2.1,1.5a14.6,14.6,0,0,0,2-1.5,4.9,4.9,0,0,0,1.9-.4c0.5,0.3,1-.1,1.5,0a5.1,5.1,0,0,1,3.8,2.1,2.2,2.2,0,0,0,.5,1.3c-0.2.6,0.3,1.1,0.2,1.8a9.1,9.1,0,0,1-.1,1,27.2,27.2,0,0,1,.2,3.5,10.3,10.3,0,0,0,.2,3.5c-0.3,1.3.4,2.1-.2,3.1h0Z"/><path class="20f32e59-aaa4-4e44-9b79-9cc166ef2ee4" d="M298.1,425.3a2.1,2.1,0,0,1,.4,2.1c-0.9.3-2.2,0.4-2.9,0.5s-1.2,2-1.8,3a69.1,69.1,0,0,1-.4,11l-1.6-.3c-0.6-.9-0.1-1.5-0.1-2.5s-0.2-1-.2-1.5,0.1-.8.1-1.1-0.2-3.7-.1-5.9a6.2,6.2,0,0,0-.1-2.8c0.3-.9,0-1.8.8-2.2a1.6,1.6,0,0,1,1.1.4c0.3,0.2.2,0.8,0.7,0.8s1.3-.8,2.2-1.1,1.3,0,1.6-.3h0.3Z"/><path class="20f32e59-aaa4-4e44-9b79-9cc166ef2ee4" d="M305.6,421.2a2,2,0,0,1-.9,2.1c-1.5.2-2.5-.3-2.4-1.9a0.7,0.7,0,0,0,.2-0.4,2,2,0,0,1,3.1.4h0Zm-1.1,20.5a4.9,4.9,0,0,1-1.7-.3c-0.1-2.8-.1-5.1-0.4-8.2a9.1,9.1,0,0,0,.5-2.2,11.3,11.3,0,0,1-.2-2.8c0-.8-0.3-1.7.3-2.4s0.8-.5,1.1-0.2,0.8,1.9.9,2.9a50,50,0,0,0,.3,7.8,12.7,12.7,0,0,0-.2,2.8c0,1.1.1,2-.7,2.6h0.1Z"/><path class="20f32e59-aaa4-4e44-9b79-9cc166ef2ee4" d="M322.7,434.5c-2.6.4-5.9-.1-8.4,0.2-0.6.1-1.5,0-1.9,0.3,0.4,3.1,2,5.3,5.5,5,1.3-.4,2.2-1.5,3.2-0.7s-0.9,1.9-2.3,2.4-1.9.1-2.7,0-2.3-.7-3.3-1A14.2,14.2,0,0,0,311,439a8.2,8.2,0,0,0-.3-1.2,10,10,0,0,1-.6-2.2,37.1,37.1,0,0,1,.2-5.6c0.3-.8.4-1.3,0.7-2s1.1-1.1,1.5-1.8l1.8-.7c1-.2,2.8.3,3.8-0.2a9.2,9.2,0,0,0,2,.7,15.3,15.3,0,0,1,2.3,2.6,1.9,1.9,0,0,0,.3,1.5,2,2,0,0,0,.3,1.5c-0.3.8,0.4,2.3-.4,2.9h0Zm-2.5-4.8a6.7,6.7,0,0,0-1.4-1.8,7.1,7.1,0,0,0-4.1,0c-0.7,0-1,.7-1.6,1.1s-1.3,2.7-.1,3.7,0.3-.1.3,0a8.6,8.6,0,0,0,2.3-.4,2.6,2.6,0,0,0,2.3,0,2.6,2.6,0,0,0,2.8-.1,3.2,3.2,0,0,0-.3-2.6h-0.1Z"/><path class="20f32e59-aaa4-4e44-9b79-9cc166ef2ee4" d="M332.6,427.6a4.4,4.4,0,0,0-2.9.9,11.3,11.3,0,0,0-.3,1.5,3.3,3.3,0,0,0,1.8,1.9,15.7,15.7,0,0,0,2.5,1.1,3.8,3.8,0,0,0,2,1.1,3.7,3.7,0,0,0,.9,1.3c0.3,0.5.4,0.9,0.7,1.4a4.1,4.1,0,0,1-.7,3.3,5.1,5.1,0,0,1-1.3,1.2c-0.7.4-2,.4-2.9,0.7s-4.5-.1-5.3-1.8,0.5-.7.7-1.1,3.7,1.3,5.7.8a3.1,3.1,0,0,0,1.5-2.1c0-1.5-1.4-2.1-2.3-2.8a11.6,11.6,0,0,0-2.4-.9,10.2,10.2,0,0,1-2.5-1.9,10.5,10.5,0,0,1-.8-2c0-1,.3-1.5.2-2.6l1.2-1.5,1.8-.7a14.8,14.8,0,0,1,3.8.1c0.3,0.3,1.3,0,1.5.7S333.7,427.7,332.6,427.6Z"/><path class="20f32e59-aaa4-4e44-9b79-9cc166ef2ee4" d="M351.4,426.7c0.7-.3,1.2-1.7,2.2-1.1s0.4,0.4.4,0.9a56.7,56.7,0,0,1-.2,9.7c0.7,2.3-.2,5.2.1,8.3a9.4,9.4,0,0,1-1.1,3.2,24.2,24.2,0,0,1-2.2,1.6,19.9,19.9,0,0,1-4.3.4l-2.6-.7a1.9,1.9,0,0,0-.9-0.7,2,2,0,0,1,.2-1.4c0.9-.4,1.5.2,2.1,0.4a2.2,2.2,0,0,1,1.3.2h1.8c0.6-.4,1.7-0.3,2.3-0.7s1-1.8,1.2-2.9,0.7-2.5-.1-3.5-1.4,1.1-2.2,1.2a5.7,5.7,0,0,0-2.1.3c-0.8-.4-2.2-0.2-3-0.4a6.9,6.9,0,0,1-2.2-1.8,30.8,30.8,0,0,1-1.2-3c0.3-1.2-.5-2.8-0.2-4.6a4.7,4.7,0,0,0,.4-1.9,20.6,20.6,0,0,0,1-2.7,10.6,10.6,0,0,1,3.2-2.2c1.1-.1,2,0.4,2.7,0l2.1,0.7c0.7,0,.8.6,1.4,0.8h0ZM344,429a10.8,10.8,0,0,0-1,3c-0.3,1.9.3,3.3,0.4,5.1a5.6,5.6,0,0,1,.4,1.1,9.1,9.1,0,0,0,1.8,1.4c0-.1.1-0.1,0,0h2.6a5.6,5.6,0,0,0,2.6-1.8c1-1.7,1.1-3.5,1.1-5.5a2,2,0,0,1-.4-1.7,4.5,4.5,0,0,1-.8-1.8,4.7,4.7,0,0,1-1.5-1.1c-0.8-.1-1.5-0.6-2.2-0.1h-1.1A10.4,10.4,0,0,0,344,429Z"/><path class="20f32e59-aaa4-4e44-9b79-9cc166ef2ee4" d="M365.5,425.3l0.2-.2c1.1,0.1,1.6.7,2.8,0.5s2.4,2.4,3.2,3.4,0.2,2,.9,2.8a2.6,2.6,0,0,0,.2,1.8,3.1,3.1,0,0,0,0,1.2c0,1-.7,1.7-0.7,2.8a9,9,0,0,0-1.3,2.1,10.8,10.8,0,0,1-2.5,1.7,7.9,7.9,0,0,1-4.6.1c-0.9-.4-1.7-0.9-2.6-1.4a2.3,2.3,0,0,0-.9-1.3c-0.1-.9-0.7-1.3-0.8-2.1s-0.2-1.4-.4-2.1,0.4-3,.3-4.5a4.9,4.9,0,0,0,1.3-2.1,4.1,4.1,0,0,0,1.2-1.5,25.1,25.1,0,0,1,3.8-1.2h0Zm-1.6,2.6a14.6,14.6,0,0,0-1.7,1.5c-0.9,1.8-.9,3.8-0.8,6.4a7.6,7.6,0,0,0,2.1,3.4,9.6,9.6,0,0,0,3.5.7,12.2,12.2,0,0,1,1.8-1.1l0.5-.8,0.3-.2c0.1-.2,0-0.5.1-0.9l0.4-.5a14.3,14.3,0,0,1,.4-2.5c-0.2-.8-0.1-1.8-0.3-2.7a15.3,15.3,0,0,1-1-2.3,16.1,16.1,0,0,0-2.5-1.3,13.2,13.2,0,0,0-1.5.1,5.8,5.8,0,0,0-1.4.2h0Z"/><path class="20f32e59-aaa4-4e44-9b79-9cc166ef2ee4" d="M397.4,421.9c0,1,.1,2.4.2,3.3a37.4,37.4,0,0,1-.3,4,25,25,0,0,1,.2,3.2c-0.1,1.1,0,2.1-.1,3.2s0.1,1.3.1,1.9-0.1,1.2-.1,1.9,0.5,1.7-.5,2.5-1.2-.9-1.6-1.8a3.5,3.5,0,0,0-1.7.8c-0.1.5-1,.5-1.3,0.9a10.7,10.7,0,0,1-4.1-.2,12.6,12.6,0,0,1-2.1-1.2,3.2,3.2,0,0,0-.8-0.9c-1-1.6-1.1-4.2-1.3-6.6a8.3,8.3,0,0,0,.5-2.8c0.7-1.5,1.1-2.8,2.4-3.9a4.2,4.2,0,0,0,1.5-.8,2.7,2.7,0,0,0,1.5-.2l2.9,0.4c0.7,0.3,1.1,1.3,2.2.9s0-1.2.1-2,0.3-4.3.5-5.3a1.1,1.1,0,0,1,1.5-.5C397.8,419.8,397.3,420.7,397.4,421.9Zm-9.1,6.2a7.6,7.6,0,0,0-1.7,2.6c0.3,1.6-.4,2.6-0.2,4a11.3,11.3,0,0,1,.5,2.8c0.5,0.4.7,1.1,1,1.5s1,0.6,1.7.7a7.1,7.1,0,0,0,4.3-1.1,12,12,0,0,0,1.5-3.9c-0.3-1.1,0-2.3-.3-3.5a4.5,4.5,0,0,0-.8-2,4.8,4.8,0,0,0-2.8-1.5c-0.6-.2-1.1.2-1.7-0.1s-0.1,0-.1.2-0.7.4-1.3,0.4h0Z"/><path class="20f32e59-aaa4-4e44-9b79-9cc166ef2ee4" d="M415.2,434.5c-2.6.4-5.9-.1-8.4,0.2-0.6.1-1.5,0-1.9,0.3,0.4,3.1,2,5.3,5.5,5,1.3-.4,2.2-1.5,3.2-0.7s-0.9,1.9-2.3,2.4-1.9.1-2.7,0-2.3-.7-3.3-1a14.3,14.3,0,0,0-1.8-1.8,8.3,8.3,0,0,0-.3-1.2,10,10,0,0,1-.6-2.2,37.1,37.1,0,0,1,.2-5.6c0.3-.8.4-1.3,0.7-2s1.1-1.1,1.5-1.8l1.8-.7c1-.2,2.8.3,3.8-0.2a9.2,9.2,0,0,0,2,.7,15.4,15.4,0,0,1,2.3,2.6,1.9,1.9,0,0,0,.3,1.5,2,2,0,0,0,.3,1.5c-0.3.8,0.4,2.3-.4,2.9h0Zm-2.5-4.8a6.7,6.7,0,0,0-1.4-1.8,7.1,7.1,0,0,0-4.1,0c-0.7,0-1,.7-1.6,1.1s-1.3,2.7-.1,3.7,0.3-.1.3,0a8.6,8.6,0,0,0,2.3-.4,2.6,2.6,0,0,0,2.3,0,2.6,2.6,0,0,0,2.8-.1,3.2,3.2,0,0,0-.3-2.6h-0.1Z"/><path class="20f32e59-aaa4-4e44-9b79-9cc166ef2ee4" d="M440.2,421.9c0,1,.1,2.4.2,3.3a37.4,37.4,0,0,1-.3,4,24.9,24.9,0,0,1,.2,3.2c-0.1,1.1,0,2.1-.1,3.2s0.1,1.3.1,1.9-0.1,1.2-.1,1.9,0.5,1.7-.5,2.5-1.2-.9-1.6-1.8a3.5,3.5,0,0,0-1.7.8c-0.1.5-1,.5-1.3,0.9a10.7,10.7,0,0,1-4.1-.2,12.6,12.6,0,0,1-2.1-1.2,3.2,3.2,0,0,0-.8-0.9c-1-1.6-1.1-4.2-1.3-6.6a8.3,8.3,0,0,0,.5-2.8c0.7-1.5,1.1-2.8,2.4-3.9a4.3,4.3,0,0,0,1.5-.8,2.7,2.7,0,0,0,1.5-.2l2.9,0.4c0.7,0.3,1.1,1.3,2.2.9s0-1.2.1-2,0.3-4.3.5-5.3a1.1,1.1,0,0,1,1.5-.5C440.6,419.8,440.1,420.7,440.2,421.9Zm-9.1,6.2a7.6,7.6,0,0,0-1.7,2.6c0.3,1.6-.4,2.6-0.2,4a11.3,11.3,0,0,1,.5,2.8c0.5,0.4.7,1.1,1,1.5s1,0.6,1.7.7a7.1,7.1,0,0,0,4.3-1.1,12,12,0,0,0,1.5-3.9c-0.3-1.1,0-2.3-.3-3.5a4.5,4.5,0,0,0-.8-2,4.8,4.8,0,0,0-2.8-1.5c-0.6-.2-1.1.2-1.7-0.1s-0.1,0-.1.2-0.7.4-1.3,0.4h0Z"/><path class="20f32e59-aaa4-4e44-9b79-9cc166ef2ee4" d="M457.9,434.5c-2.6.4-5.9-.1-8.4,0.2-0.6.1-1.5,0-1.9,0.3,0.4,3.1,2,5.3,5.5,5,1.3-.4,2.2-1.5,3.2-0.7s-0.9,1.9-2.3,2.4-1.9.1-2.7,0-2.3-.7-3.3-1a14.1,14.1,0,0,0-1.8-1.8,8.2,8.2,0,0,0-.3-1.2,9.9,9.9,0,0,1-.6-2.2,37.1,37.1,0,0,1,.2-5.6c0.3-.8.4-1.3,0.7-2s1.1-1.1,1.5-1.8l1.8-.7c1-.2,2.8.3,3.8-0.2a9.2,9.2,0,0,0,2,.7,15.3,15.3,0,0,1,2.3,2.6,1.9,1.9,0,0,0,.3,1.5,2,2,0,0,0,.3,1.5c-0.3.8,0.4,2.3-.4,2.9h0Zm-2.5-4.8A6.7,6.7,0,0,0,454,428a7.1,7.1,0,0,0-4.1,0c-0.7,0-1,.7-1.6,1.1s-1.3,2.7-.1,3.7,0.3-.1.3,0a8.6,8.6,0,0,0,2.3-.4,2.6,2.6,0,0,0,2.3,0,2.6,2.6,0,0,0,2.8-.1,3.2,3.2,0,0,0-.3-2.6h-0.1Z"/><path class="20f32e59-aaa4-4e44-9b79-9cc166ef2ee4" d="M467.8,427.6a4.4,4.4,0,0,0-2.9.9,11.3,11.3,0,0,0-.3,1.5,3.3,3.3,0,0,0,1.8,1.9,15.7,15.7,0,0,0,2.5,1.1,3.8,3.8,0,0,0,2,1.1,3.7,3.7,0,0,0,.9,1.3c0.3,0.5.4,0.9,0.7,1.4a4.1,4.1,0,0,1-.7,3.3,5.1,5.1,0,0,1-1.3,1.2c-0.7.4-2,.4-2.9,0.7s-4.5-.1-5.3-1.8,0.5-.7.7-1.1,3.7,1.3,5.7.8a3.1,3.1,0,0,0,1.5-2.1c0-1.5-1.4-2.1-2.3-2.8a11.6,11.6,0,0,0-2.4-.9,10.2,10.2,0,0,1-2.5-1.9,10.4,10.4,0,0,1-.8-2c0-1,.3-1.5.2-2.6l1.2-1.5,1.8-.7a14.8,14.8,0,0,1,3.8.1c0.3,0.3,1.3,0,1.5.7S469,427.7,467.8,427.6Z"/><path class="20f32e59-aaa4-4e44-9b79-9cc166ef2ee4" d="M486.7,441.6c-0.8,0-.8-0.9-1.5-1.1a9.7,9.7,0,0,0-1.8,1,15.5,15.5,0,0,1-4.4.2c-0.7-.8-1.7-1.2-2.3-1.9s-0.2-2.3-.7-3.2a14.3,14.3,0,0,1,.3-2.4c0.3-.4.6-1.1,0.9-1.5a0.5,0.5,0,0,0,.4-0.3c1.4-.7,2.6-0.7,4.6-1a7.2,7.2,0,0,0,2.5,1.4c1.2-.4.1-1.8,0.3-2.9a4.8,4.8,0,0,0-1.1-1.9c-0.7-.1-1.1-0.4-1.8-0.6s-3,.7-4.1.4a2,2,0,0,1-.6-1.6c0.4-.6,1.5-0.5,2.1-1a30.4,30.4,0,0,1,3.3,0,6,6,0,0,0,2.5.9c1.1,1.6,2.4,3.6,2,6.4,0,0.5.2,0.8,0.2,1.3s-0.2,3.2-.3,4.9a13.2,13.2,0,0,1,.3,2,1.7,1.7,0,0,1-1.1,1h0Zm-6.7-7.7-1.4,1.1c0.2,0.3-.2.3-0.3,0.6s0.3,3.1,1.1,3.4a3.3,3.3,0,0,0,2.9.4,3.1,3.1,0,0,1,1.1-.3c0.9-.8,2-1,2.2-2.6a11.8,11.8,0,0,0-1.7-2.3c-1-.2-1.6-0.5-2.5-0.7l-0.2.2h-1.2Z"/><path class="20f32e59-aaa4-4e44-9b79-9cc166ef2ee4" d="M500.4,425.3a2.1,2.1,0,0,1,.4,2.1c-0.9.3-2.2,0.4-2.9,0.5s-1.2,2-1.8,3a69.3,69.3,0,0,1-.4,11l-1.6-.3c-0.6-.9-0.1-1.5-0.1-2.5s-0.2-1-.2-1.5,0.1-.8.1-1.1-0.2-3.7-.1-5.9a6.1,6.1,0,0,0-.1-2.8c0.3-.9,0-1.8.8-2.2a1.6,1.6,0,0,1,1.1.4c0.3,0.2.2,0.8,0.7,0.8s1.3-.8,2.2-1.1,1.3,0,1.6-.3h0.3Z"/><path class="20f32e59-aaa4-4e44-9b79-9cc166ef2ee4" d="M511.4,425.3a2.1,2.1,0,0,1,.4,2.1c-0.9.3-2.2,0.4-2.9,0.5s-1.2,2-1.8,3a69,69,0,0,1-.4,11l-1.6-.3c-0.6-.9-0.1-1.5-0.1-2.5s-0.2-1-.2-1.5,0.1-.8.1-1.1-0.2-3.7-.1-5.9a6.2,6.2,0,0,0-.1-2.8c0.3-.9,0-1.8.8-2.2a1.6,1.6,0,0,1,1.1.4c0.3,0.2.2,0.8,0.7,0.8s1.3-.8,2.2-1.1,1.3,0,1.6-.3h0.3Z"/><path class="20f32e59-aaa4-4e44-9b79-9cc166ef2ee4" d="M521,425.3l0.2-.2c1.1,0.1,1.6.7,2.8,0.5s2.4,2.4,3.2,3.4,0.2,2,.9,2.8a2.6,2.6,0,0,0,.2,1.8,3.1,3.1,0,0,0,0,1.2c0,1-.7,1.7-0.7,2.8a9,9,0,0,0-1.3,2.1,10.8,10.8,0,0,1-2.5,1.7,7.9,7.9,0,0,1-4.6.1c-0.9-.4-1.7-0.9-2.6-1.4a2.3,2.3,0,0,0-.9-1.3c-0.1-.9-0.7-1.3-0.8-2.1s-0.2-1.4-.4-2.1,0.4-3,.3-4.5A4.9,4.9,0,0,0,516,428a4.1,4.1,0,0,0,1.2-1.5,25.2,25.2,0,0,1,3.8-1.2h0Zm-1.6,2.6a14.5,14.5,0,0,0-1.7,1.5c-0.9,1.8-.9,3.8-0.8,6.4a7.6,7.6,0,0,0,2.1,3.4,9.6,9.6,0,0,0,3.5.7,12.1,12.1,0,0,1,1.8-1.1l0.5-.8,0.3-.2c0.1-.2,0-0.5.1-0.9l0.4-.5a14.3,14.3,0,0,1,.4-2.5c-0.2-.8-0.1-1.8-0.3-2.7a15.2,15.2,0,0,1-1-2.3,16.1,16.1,0,0,0-2.5-1.3,13.2,13.2,0,0,0-1.5.1,5.8,5.8,0,0,0-1.4.2h0Z"/><path class="20f32e59-aaa4-4e44-9b79-9cc166ef2ee4" d="M535.4,418.9c-0.1,7.3-.5,14.3.4,23.2-0.8-.3-2-0.2-2.3-0.7s-0.2-1-.4-1.7a11.9,11.9,0,0,1,0-1.7c-0.4-3.7.6-8.1,0.2-11.7a19.2,19.2,0,0,1,.2-7.6,2.8,2.8,0,0,1,1.8.1h0Z"/><path class="20f32e59-aaa4-4e44-9b79-9cc166ef2ee4" d="M544.1,418.9c-0.1,7.3-.5,14.3.4,23.2-0.8-.3-2-0.2-2.3-0.7s-0.2-1-.4-1.7a11.8,11.8,0,0,1,0-1.7c-0.4-3.7.6-8.1,0.2-11.7a19.2,19.2,0,0,1,.2-7.6,2.8,2.8,0,0,1,1.8.1h0Z"/><path class="20f32e59-aaa4-4e44-9b79-9cc166ef2ee4" d="M559.7,441.6c-0.8,0-.8-0.9-1.5-1.1a9.7,9.7,0,0,0-1.8,1,15.6,15.6,0,0,1-4.4.2c-0.7-.8-1.7-1.2-2.3-1.9s-0.2-2.3-.7-3.2a14.4,14.4,0,0,1,.3-2.4c0.3-.4.6-1.1,0.9-1.5a0.5,0.5,0,0,0,.4-0.3c1.4-.7,2.6-0.7,4.6-1a7.2,7.2,0,0,0,2.5,1.4c1.2-.4.1-1.8,0.3-2.9a4.8,4.8,0,0,0-1.1-1.9c-0.7-.1-1.1-0.4-1.8-0.6s-3,.7-4.1.4a2,2,0,0,1-.6-1.6c0.4-.6,1.5-0.5,2.1-1a30.4,30.4,0,0,1,3.3,0,6,6,0,0,0,2.5.9c1.1,1.6,2.4,3.6,2,6.4,0,0.5.2,0.8,0.2,1.3s-0.2,3.2-.3,4.9a13.3,13.3,0,0,1,.3,2,1.8,1.8,0,0,1-1.1,1h0ZM553,434l-1.4,1.1c0.2,0.3-.2.3-0.3,0.6s0.3,3.1,1.1,3.4a3.3,3.3,0,0,0,2.9.4,3.1,3.1,0,0,1,1.1-.3c0.9-.8,2-1,2.2-2.6a11.8,11.8,0,0,0-1.7-2.3c-1-.2-1.6-0.5-2.5-0.7l-0.2.2H553Z"/><path class="20f32e59-aaa4-4e44-9b79-9cc166ef2ee4" d="M573.3,425.3a2.1,2.1,0,0,1,.4,2.1c-0.9.3-2.2,0.4-2.9,0.5s-1.2,2-1.8,3a69,69,0,0,1-.4,11l-1.6-.3c-0.6-.9-0.1-1.5-0.1-2.5s-0.2-1-.2-1.5,0.1-.8.1-1.1-0.2-3.7-.1-5.9a6.2,6.2,0,0,0-.1-2.8c0.3-.9,0-1.8.8-2.2a1.6,1.6,0,0,1,1.1.4c0.3,0.2.2,0.8,0.7,0.8s1.3-.8,2.2-1.1,1.3,0,1.6-.3h0.3Z"/><path class="20f32e59-aaa4-4e44-9b79-9cc166ef2ee4" d="M595.2,441.6c-0.8,0-.8-0.9-1.5-1.1a9.7,9.7,0,0,0-1.8,1,15.5,15.5,0,0,1-4.4.2c-0.7-.8-1.7-1.2-2.3-1.9s-0.2-2.3-.7-3.2a14.3,14.3,0,0,1,.3-2.4c0.3-.4.6-1.1,0.9-1.5a0.5,0.5,0,0,0,.4-0.3c1.4-.7,2.6-0.7,4.6-1a7.2,7.2,0,0,0,2.5,1.4c1.2-.4.1-1.8,0.3-2.9a4.8,4.8,0,0,0-1.1-1.9c-0.7-.1-1.1-0.4-1.8-0.6s-3,.7-4.1.4a2,2,0,0,1-.6-1.6c0.4-.6,1.5-0.5,2.1-1a30.4,30.4,0,0,1,3.3,0,6,6,0,0,0,2.5.9c1.1,1.6,2.4,3.6,2,6.4,0,0.5.2,0.8,0.2,1.3s-0.2,3.2-.3,4.9a13.2,13.2,0,0,1,.3,2,1.7,1.7,0,0,1-1.1,1h0Zm-6.7-7.7-1.4,1.1c0.2,0.3-.2.3-0.3,0.6s0.3,3.1,1.1,3.4a3.3,3.3,0,0,0,2.9.4,3.1,3.1,0,0,1,1.1-.3c0.9-.8,2-1,2.2-2.6a11.8,11.8,0,0,0-1.7-2.3c-1-.2-1.6-0.5-2.5-0.7l-0.2.2h-1.2Z"/><path class="20f32e59-aaa4-4e44-9b79-9cc166ef2ee4" d="M604.7,418.9c-0.1,7.3-.5,14.3.4,23.2-0.8-.3-2-0.2-2.3-0.7s-0.2-1-.4-1.7a11.9,11.9,0,0,1,0-1.7c-0.4-3.7.6-8.1,0.2-11.7a19.2,19.2,0,0,1,.2-7.6,2.8,2.8,0,0,1,1.8.1h0Z"/><path class="20f32e59-aaa4-4e44-9b79-9cc166ef2ee4" d="M620.2,426.7c0.7-.3,1.2-1.7,2.2-1.1s0.4,0.4.4,0.9a56.7,56.7,0,0,1-.2,9.7c0.7,2.3-.2,5.2.1,8.3a9.4,9.4,0,0,1-1.1,3.2,24.2,24.2,0,0,1-2.2,1.6,20,20,0,0,1-4.3.4l-2.6-.7a1.9,1.9,0,0,0-.9-0.7,2,2,0,0,1,.2-1.4c0.9-.4,1.5.2,2.1,0.4a2.2,2.2,0,0,1,1.3.2h1.8c0.6-.4,1.7-0.3,2.3-0.7s1-1.8,1.2-2.9,0.7-2.5-.1-3.5-1.4,1.1-2.2,1.2a5.7,5.7,0,0,0-2.1.3c-0.8-.4-2.2-0.2-3-0.4a6.9,6.9,0,0,1-2.2-1.8,31.2,31.2,0,0,1-1.2-3c0.3-1.2-.5-2.8-0.2-4.6a4.7,4.7,0,0,0,.4-1.9,20.7,20.7,0,0,0,1-2.7,10.6,10.6,0,0,1,3.2-2.2c1.1-.1,2,0.4,2.7,0l2.1,0.7c0.7,0,.8.6,1.4,0.8h0Zm-7.4,2.3a10.8,10.8,0,0,0-1,3c-0.3,1.9.3,3.3,0.4,5.1a5.6,5.6,0,0,1,.4,1.1,9.1,9.1,0,0,0,1.8,1.4c0-.1.1-0.1,0,0h2.6a5.6,5.6,0,0,0,2.6-1.8c1-1.7,1.1-3.5,1.1-5.5a2,2,0,0,1-.4-1.7,4.5,4.5,0,0,1-.8-1.8,4.7,4.7,0,0,1-1.5-1.1c-0.8-.1-1.5-0.6-2.2-0.1h-1.1A10.3,10.3,0,0,0,612.8,429Z"/><path class="20f32e59-aaa4-4e44-9b79-9cc166ef2ee4" d="M631.1,425.8c0.1,3.3-.2,6.6.2,10.1a9.1,9.1,0,0,0,.4,2.1c0.7,1.3,2.2,1.7,3.5,2s1.8-1.1,2.8-1.4a16.6,16.6,0,0,0,1.1-3,2.7,2.7,0,0,1,.3-2.1c0.1-2.1-.3-5.4-0.1-7.7,0.8-.4,1.8-0.4,2.2.2a52.1,52.1,0,0,1,0,8,11.4,11.4,0,0,1,0,2.3,34.6,34.6,0,0,1-.1,3.5c0.1,0.6.4,1.2-.1,1.7a1.7,1.7,0,0,1-1.5-.2c-0.4-.3-0.2-0.9-0.7-1.1s-0.9.6-1.6,0.9a19.1,19.1,0,0,0-2,.7c-1.8-.2-3.5,0-4.7-0.9s-1.4-2.4-2-4,0.2-.7.1-1.2a17.3,17.3,0,0,1,0-4.1,8.5,8.5,0,0,0-.3-0.9,3.9,3.9,0,0,1,.3-1.1,5.7,5.7,0,0,1-.2-2.2,3.1,3.1,0,0,1,.4-1.3,0.6,0.6,0,0,1,.4-0.4,1.9,1.9,0,0,1,1.5.2h0Zm7.9-8.4c-0.2,1.4-1,1.6-1.4,2.6s-0.9,1.9-1.8,2.3a1.1,1.1,0,0,1-1.2-.7c0.2-1.6,1.3-2.9,1.9-4.4s1.7,0,2.5.2h0Z"/><path class="20f32e59-aaa4-4e44-9b79-9cc166ef2ee4" d="M660.5,441.3a7.1,7.1,0,0,1-1.9.2c-0.4-1.3-.2-2.7,0-4.3s-0.4-3-.2-4.8a9.6,9.6,0,0,0-.4-3.1,2.6,2.6,0,0,0-.1-0.4c-0.7-1-1.7-1.1-2.6-1.7a5.8,5.8,0,0,0-4.3,2.1c-0.1.8-.6,1.4-0.7,2.4a9,9,0,0,1-.1,3.5l0.3,1.2c-0.2,1.4-.3,3.2-0.3,4.6a2,2,0,0,1-1.7.4,4.2,4.2,0,0,1-.3-3.1c-0.1-.6-0.1-1.1-0.2-1.7s0.2-2.3.2-3.6a0.4,0.4,0,0,0,0-.4c0.1-2.2-.1-3.8.2-6a1.1,1.1,0,0,1,.2-1.2c1.5-.4,1.2,1.1,2.1,1.5a14.7,14.7,0,0,0,2-1.5,4.9,4.9,0,0,0,1.9-.4c0.5,0.3,1-.1,1.5,0a5.1,5.1,0,0,1,3.8,2.1,2.1,2.1,0,0,0,.5,1.3c-0.2.6,0.3,1.1,0.2,1.8a9.1,9.1,0,0,1-.1,1,27.4,27.4,0,0,1,.2,3.5,10.2,10.2,0,0,0,.2,3.5c-0.3,1.3.4,2.1-.2,3.1h0Z"/><path class="20f32e59-aaa4-4e44-9b79-9cc166ef2ee4" d="M20.9,458c0.2,2.2-.9,4.6.5,6.3a7.3,7.3,0,0,1,2.3-.1,2,2,0,0,1,.3,2.2c-0.8.2-2.1-.4-2.9,0.2a1.2,1.2,0,0,1-.4.6c0.2,1.4-.1,3,0.4,4.3s-0.1,2.2-.4,3.2a21,21,0,0,1,.3,2.9l1.1,0.8c1.2,0.4,2.7.1,2.3,1.8s-1.6.4-2.5,0.4a8.7,8.7,0,0,0-1.8-.6,9.3,9.3,0,0,1-1.3-1.7,8.3,8.3,0,0,0-.3-2.4c-0.3-2.6.1-5.8-.3-9.2-0.4-.5-1.5-0.5-2.6-0.6a2.2,2.2,0,0,1,.1-2.1c0.9-.1,2.6.1,2.9-0.9a14.2,14.2,0,0,0-.2-1.5c0.1-1.9-.2-3.2.4-4.3a2,2,0,0,1,1.9.4h0Z"/><path class="20f32e59-aaa4-4e44-9b79-9cc166ef2ee4" d="M32.6,460a2,2,0,0,1-.9,2.1c-1.5.2-2.5-.3-2.4-1.9a0.7,0.7,0,0,0,.2-0.4,2,2,0,0,1,3.1.4h0Zm-1.1,20.5a4.9,4.9,0,0,1-1.7-.3c-0.1-2.8-.1-5.1-0.4-8.2a9.1,9.1,0,0,0,.5-2.2,11.3,11.3,0,0,1-.2-2.8c0-.8-0.3-1.7.3-2.4s0.8-.5,1.1-0.2,0.8,1.9.9,2.9a50,50,0,0,0,.3,7.8,12.7,12.7,0,0,0-.2,2.8c0,1.1.1,2-.7,2.6h0.1Z"/><path class="20f32e59-aaa4-4e44-9b79-9cc166ef2ee4" d="M41,479.3H40.7c-0.7.2-.2,1-0.2,1.6a10.3,10.3,0,0,0,0,3.2c-0.2.9,0,2.3-.4,3.1a3.6,3.6,0,0,1-1.8,0c-0.6-.8-0.2-1.4-0.1-2.2a37.5,37.5,0,0,0-.2-6.8c0-.4.2-0.8,0.2-1.1s-0.2-.7-0.2-1a5.7,5.7,0,0,0,.2-0.8c0-.9-0.1-1.8,0-2.7v-1c0-2.1-.3-3.9-0.2-6.1a1.1,1.1,0,0,1,.7-1.4,1.2,1.2,0,0,1,1.1.2c0.3,0.3.3,0.8,0.7,0.8a5.8,5.8,0,0,0,2.6-1.1,1.6,1.6,0,0,0,1.2-.2h1.1a8.8,8.8,0,0,1,2.6.7c0.8,0.4,1.1,1,1.8,1.3a36.1,36.1,0,0,1,1.5,4.2c0,1.8.2,3.5,0.1,5.4a5.2,5.2,0,0,0-.8,2,12,12,0,0,1-1.7,2.1,9.9,9.9,0,0,1-2.7.8c-1.3,0-1.8.2-3.1,0.1s-1-1.3-2.1-1.2H41Zm1.8-12.6-1.4,1.4c-1,1.3-.8,3-0.9,4.8a21,21,0,0,1,.3,2.5c0.7,1,.9,2.2,1.8,2.4a18.3,18.3,0,0,0,3.7.8,13.2,13.2,0,0,1,1.5-.9,18.8,18.8,0,0,0,1.5-2.9,12.3,12.3,0,0,0-.6-6.2,3.1,3.1,0,0,0-1.9-2.1,4,4,0,0,0-2.4-.2,3.8,3.8,0,0,0-1.5.3h0Z"/><path class="20f32e59-aaa4-4e44-9b79-9cc166ef2ee4" d="M61.5,464l0.2-.2c1.1,0.1,1.6.7,2.8,0.5s2.4,2.4,3.2,3.4,0.2,2,.9,2.8a2.6,2.6,0,0,0,.2,1.8,3.1,3.1,0,0,0,0,1.2c0,1-.7,1.7-0.7,2.8a9,9,0,0,0-1.3,2.1,10.8,10.8,0,0,1-2.5,1.7,7.9,7.9,0,0,1-4.6.1c-0.9-.4-1.7-0.9-2.6-1.4a2.3,2.3,0,0,0-.9-1.3c-0.1-.9-0.7-1.3-0.8-2.1s-0.2-1.4-.4-2.1,0.4-3,.3-4.5a4.9,4.9,0,0,0,1.3-2.1,4.1,4.1,0,0,0,1.2-1.5,25.1,25.1,0,0,1,3.8-1.2h0Zm-1.6,2.6a14.6,14.6,0,0,0-1.7,1.5c-0.9,1.8-.9,3.8-0.8,6.4a7.6,7.6,0,0,0,2.1,3.4,9.6,9.6,0,0,0,3.5.7,12.2,12.2,0,0,1,1.8-1.1l0.5-.8,0.3-.2c0.1-.2,0-0.5.1-0.9l0.4-.5a14.3,14.3,0,0,1,.4-2.5c-0.2-.8-0.1-1.8-0.3-2.7a15.3,15.3,0,0,1-1-2.3,16.1,16.1,0,0,0-2.5-1.3,13.2,13.2,0,0,0-1.5.1,5.8,5.8,0,0,0-1.4.2h0Z"/><path class="20f32e59-aaa4-4e44-9b79-9cc166ef2ee4" d="M93.5,460.7c0,1,.1,2.4.2,3.3a37.4,37.4,0,0,1-.3,4,25,25,0,0,1,.2,3.2c-0.1,1.1,0,2.1-.1,3.2s0.1,1.3.1,1.9-0.1,1.2-.1,1.9,0.5,1.7-.5,2.5-1.2-.9-1.6-1.8a3.5,3.5,0,0,0-1.7.8c-0.1.5-1,.5-1.3,0.9a10.7,10.7,0,0,1-4.1-.2,12.6,12.6,0,0,1-2.1-1.2,3.2,3.2,0,0,0-.8-0.9c-1-1.6-1.1-4.2-1.3-6.6a8.3,8.3,0,0,0,.5-2.8c0.7-1.5,1.1-2.8,2.4-3.9a4.2,4.2,0,0,0,1.5-.8A2.7,2.7,0,0,0,86,464l2.9,0.4c0.7,0.3,1.1,1.3,2.2.9s0-1.2.1-2,0.3-4.3.5-5.3a1.1,1.1,0,0,1,1.5-.5C93.9,458.5,93.3,459.5,93.5,460.7Zm-9.1,6.2a7.6,7.6,0,0,0-1.7,2.6c0.3,1.6-.4,2.6-0.2,4a11.3,11.3,0,0,1,.5,2.8c0.5,0.4.7,1.1,1,1.5s1,0.6,1.7.7a7.1,7.1,0,0,0,4.3-1.1,12,12,0,0,0,1.5-3.9c-0.3-1.1,0-2.3-.3-3.5a4.5,4.5,0,0,0-.8-2,4.8,4.8,0,0,0-2.8-1.5c-0.6-.2-1.1.2-1.7-0.1s-0.1,0-.1.2-0.7.4-1.3,0.4h0Z"/><path class="20f32e59-aaa4-4e44-9b79-9cc166ef2ee4" d="M111.2,473.3c-2.6.4-5.9-.1-8.4,0.2-0.6.1-1.5,0-1.9,0.3,0.4,3.1,2,5.3,5.5,5,1.3-.4,2.2-1.5,3.2-0.7s-0.9,1.9-2.3,2.4-1.9.1-2.7,0-2.3-.7-3.3-1a14.2,14.2,0,0,0-1.8-1.8,8.2,8.2,0,0,0-.3-1.2,10,10,0,0,1-.6-2.2,37.1,37.1,0,0,1,.2-5.6c0.3-.8.4-1.3,0.7-2s1.1-1.1,1.5-1.8l1.8-.7c1-.2,2.8.3,3.8-0.2a9.2,9.2,0,0,0,2,.7,15.3,15.3,0,0,1,2.3,2.6,1.9,1.9,0,0,0,.3,1.5,2,2,0,0,0,.3,1.5c-0.3.8,0.4,2.3-.4,2.9h0Zm-2.5-4.8a6.7,6.7,0,0,0-1.4-1.8,7.1,7.1,0,0,0-4.1,0c-0.7,0-1,.7-1.6,1.1s-1.3,2.7-.1,3.7,0.3-.1.3,0a8.6,8.6,0,0,0,2.3-.4,2.6,2.6,0,0,0,2.3,0,2.6,2.6,0,0,0,2.8-.1,3.2,3.2,0,0,0-.3-2.6h-0.1Z"/><path class="20f32e59-aaa4-4e44-9b79-9cc166ef2ee4" d="M138.3,478.4a6.7,6.7,0,0,1-5.7,2.4c-5.5,0-9.7-5-9.7-10.8s4.4-10.6,9.1-10.6a8,8,0,0,1,5,1.4v-8.8a1.1,1.1,0,0,1,1.1-1.1h5.1a1,1,0,0,1,1.1,1.1v27.5a1.1,1.1,0,0,1-1.1,1.1h-3.1a1.3,1.3,0,0,1-1.5-1ZM137,470a3.4,3.4,0,1,0-6.8,0c0,2.6,1.5,4.4,3.3,4.4S137,472.6,137,470Z"/><path class="20f32e59-aaa4-4e44-9b79-9cc166ef2ee4" d="M161.8,478.4a7.1,7.1,0,0,1-5.3,2.4c-1.5,0-6.9-.6-6.9-6.9,0-4.1,2.9-5.7,6.8-5.7a10,10,0,0,1,4.1.8c-0.5-2.1-1.4-2.6-3.3-2.6a13.4,13.4,0,0,0-3.2.3h-0.6a1.5,1.5,0,0,1-1.4-.7l-1.1-3.2a3.6,3.6,0,0,1-.1-0.8,1.3,1.3,0,0,1,.6-1.2,15.7,15.7,0,0,1,6.7-1.3c6.8,0,9.8,3.7,9.8,9.6v10.5a1.1,1.1,0,0,1-1.1,1.1h-3.1a1.3,1.3,0,0,1-1.5-1Zm-1.3-4.1V473a2.9,2.9,0,0,0-1.9-.7c-1.5,0-2.3.4-2.3,1.3s0.9,1.4,2.3,1.4A3.4,3.4,0,0,0,160.5,474.2Z"/><path class="20f32e59-aaa4-4e44-9b79-9cc166ef2ee4" d="M178.2,459.6a1.3,1.3,0,0,1,1.5,1l0.3,1.1c1.4-2,4.1-2.4,5.9-2.4,6,0,8.3,4.5,8.3,9.5v10.6a1,1,0,0,1-1.1,1.1h-5.1a1.1,1.1,0,0,1-1.1-1.1v-9.9c0-1.8-.2-3.3-2.7-3.3s-2.4,1.5-2.4,3.3v9.9a1,1,0,0,1-1.1,1.1h-5.1a1.1,1.1,0,0,1-1.1-1.1V460.7a1.1,1.1,0,0,1,1.1-1.1h2.7Zm13.3-6a7.7,7.7,0,0,1-4.9,2c-2,0-3.6-1.7-5.6-1.7a2.9,2.9,0,0,0-2.1.7h-0.6a1,1,0,0,1-.9-0.5l-1.3-3.2a2.7,2.7,0,0,1-.1-0.6,1,1,0,0,1,.5-0.9,7.3,7.3,0,0,1,4.5-1.9c2.4,0,3.9,1.7,5.6,1.7a3.8,3.8,0,0,0,2.5-.8l0.5-.2a1.5,1.5,0,0,1,1,.5l1.4,3.6A1.3,1.3,0,0,1,191.5,453.6Z"/><path class="20f32e59-aaa4-4e44-9b79-9cc166ef2ee4" d="M198.5,470.3a10.9,10.9,0,1,1,21.8,0A10.9,10.9,0,0,1,198.5,470.3Zm14.5,0.1a3.8,3.8,0,0,0-3.7-4.1c-1.9,0-3.5,1.7-3.5,4.1a3.8,3.8,0,0,0,3.5,4.1A3.9,3.9,0,0,0,213,470.3Z"/><path class="20f32e59-aaa4-4e44-9b79-9cc166ef2ee4" d="M248.1,473.5a2.7,2.7,0,0,1,1.3-.5,1.3,1.3,0,0,1,.9.4l2,2.1a2.1,2.1,0,0,1,.5,1.1,2.2,2.2,0,0,1-.3,1.1c-2.3,2.5-5.1,2.9-7.7,2.9a11,11,0,0,1-10.9-10.8,10.8,10.8,0,0,1,10.9-10.6,11.2,11.2,0,0,1,7.6,2.8,2.5,2.5,0,0,1,.3,1,1.7,1.7,0,0,1-.5,1.1L250,467a1.8,1.8,0,0,1-.9.4h-0.3l-0.7-.3a7.7,7.7,0,0,0-3.4-.8,3.5,3.5,0,0,0-3.6,3.8,4.2,4.2,0,0,0,4,4.4A4.9,4.9,0,0,0,248.1,473.5Z"/><path class="20f32e59-aaa4-4e44-9b79-9cc166ef2ee4" d="M268.2,466.2c-2.6,0-3.4,1.6-3.4,3.2v10a1.1,1.1,0,0,1-1.1,1.1h-5.1a1,1,0,0,1-1.1-1.1V460.7a1,1,0,0,1,1.1-1.1h3.7a1.1,1.1,0,0,1,1.1,1.1v0.9a6.3,6.3,0,0,1,4.7-2.2h2a1.1,1.1,0,0,1,1.1,1.1v4.6a1,1,0,0,1-1.1,1.1h-1.8Z"/><path class="20f32e59-aaa4-4e44-9b79-9cc166ef2ee4" d="M273,470.3a10.9,10.9,0,1,1,21.8,0A10.9,10.9,0,0,1,273,470.3Zm14.5,0.1a3.8,3.8,0,0,0-3.7-4.1c-1.9,0-3.5,1.7-3.5,4.1a3.8,3.8,0,0,0,3.5,4.1A3.9,3.9,0,0,0,287.5,470.3ZM284,447.8c0.3-.5.4-0.9,1-0.9h5.1a1.1,1.1,0,0,1,1.1,1.2l-4.6,6.7a1.6,1.6,0,0,1-1.3.8h-3a1.1,1.1,0,0,1-1.1-1.2Z"/><path class="20f32e59-aaa4-4e44-9b79-9cc166ef2ee4" d="M303.5,459.6a1.3,1.3,0,0,1,1.5,1l0.3,1.1c1.4-2,4.1-2.4,5.9-2.4,6,0,8.3,4.5,8.3,9.5v10.6a1,1,0,0,1-1.1,1.1h-5.1a1.1,1.1,0,0,1-1.1-1.1v-9.9c0-1.8-.2-3.3-2.7-3.3s-2.4,1.5-2.4,3.3v9.9a1,1,0,0,1-1.1,1.1h-5.1a1.1,1.1,0,0,1-1.1-1.1V460.7a1.1,1.1,0,0,1,1.1-1.1h2.7Z"/><path class="20f32e59-aaa4-4e44-9b79-9cc166ef2ee4" d="M328.6,449.2a4.1,4.1,0,1,1-4.1,4.1A4.1,4.1,0,0,1,328.6,449.2Zm3.7,30.2a1.1,1.1,0,0,1-1.1,1.1h-5.1a1,1,0,0,1-1.1-1.1V460.7a1,1,0,0,1,1.1-1.1h5.1a1.1,1.1,0,0,1,1.1,1.1v18.7Z"/><path class="20f32e59-aaa4-4e44-9b79-9cc166ef2ee4" d="M351.6,473.5a2.7,2.7,0,0,1,1.3-.5,1.3,1.3,0,0,1,.9.4l2,2.1a2.1,2.1,0,0,1,.5,1.1,2.2,2.2,0,0,1-.3,1.1c-2.3,2.5-5.1,2.9-7.7,2.9a11,11,0,0,1-10.9-10.8,10.8,10.8,0,0,1,10.9-10.6,11.2,11.2,0,0,1,7.6,2.8,2.5,2.5,0,0,1,.3,1,1.7,1.7,0,0,1-.5,1.1l-2.1,2.7a1.8,1.8,0,0,1-.9.4h-0.3l-0.7-.3a7.7,7.7,0,0,0-3.4-.8,3.5,3.5,0,0,0-3.6,3.8,4.2,4.2,0,0,0,4,4.4A4.9,4.9,0,0,0,351.6,473.5Z"/><path class="20f32e59-aaa4-4e44-9b79-9cc166ef2ee4" d="M359.2,470.3a10.9,10.9,0,1,1,21.8,0A10.9,10.9,0,0,1,359.2,470.3Zm14.5,0.1a3.8,3.8,0,0,0-3.7-4.1c-1.9,0-3.5,1.7-3.5,4.1a3.8,3.8,0,0,0,3.5,4.1A3.9,3.9,0,0,0,373.7,470.3Z"/><path class="20f32e59-aaa4-4e44-9b79-9cc166ef2ee4" d="M401.7,461.1a10.3,10.3,0,0,1,6.1-1.8c5.7,0,10,4.8,10,10.6s-4.1,10.8-9.7,10.8a8.7,8.7,0,0,1-4.4-.9v8.5a1,1,0,0,1-1.1,1.1h-5.1a1.1,1.1,0,0,1-1.1-1.1V460.7a1.1,1.1,0,0,1,1.1-1.1h2.7a1.3,1.3,0,0,1,1.5,1v0.5Zm8.7,8.9c0-2.3-1.5-3.8-3.3-3.8a3.5,3.5,0,0,0-3.4,3.8c0,2.8,1.6,4.4,3.4,4.4S410.4,472.8,410.4,470Z"/><path class="20f32e59-aaa4-4e44-9b79-9cc166ef2ee4" d="M420.9,470.3a10.9,10.9,0,1,1,21.8,0A10.9,10.9,0,0,1,420.9,470.3Zm14.5,0.1a3.8,3.8,0,0,0-3.7-4.1c-1.9,0-3.5,1.7-3.5,4.1a3.8,3.8,0,0,0,3.5,4.1A3.9,3.9,0,0,0,435.4,470.3Z"/><path class="20f32e59-aaa4-4e44-9b79-9cc166ef2ee4" d="M458.4,466.2c-2.6,0-3.4,1.6-3.4,3.2v10a1.1,1.1,0,0,1-1.1,1.1h-5.1a1,1,0,0,1-1.1-1.1V460.7a1,1,0,0,1,1.1-1.1h3.7a1.1,1.1,0,0,1,1.1,1.1v0.9a6.3,6.3,0,0,1,4.7-2.2h2a1.1,1.1,0,0,1,1.1,1.1v4.6a1,1,0,0,1-1.1,1.1h-1.8Z"/><path class="20f32e59-aaa4-4e44-9b79-9cc166ef2ee4" d="M493.8,471.1a1.1,1.1,0,0,1-1.1,1.1H481c0.4,2.3,2.8,2.6,4.1,2.6a10.8,10.8,0,0,0,5-.9h0.3a0.9,0.9,0,0,1,.7.4l1.4,2.4a1.2,1.2,0,0,1,.3.7,1.6,1.6,0,0,1-.3.9c-1.4,1.9-4.6,2.6-7.3,2.6-5.9,0-11.6-2.9-11.6-10.9,0-5.8,3-10.5,10.2-10.5s10.1,3.3,10.1,10v1.7Zm-12.9-2.9h5.6a2.5,2.5,0,0,0-2.7-2.4A2.6,2.6,0,0,0,480.9,468.2Z"/><path class="20f32e59-aaa4-4e44-9b79-9cc166ef2ee4" d="M506.1,479.4a1.1,1.1,0,0,1-1.1,1.1h-5.1a1,1,0,0,1-1.1-1.1V451.9a1,1,0,0,1,1.1-1.1H505a1.1,1.1,0,0,1,1.1,1.1v27.5Z"/><path class="20f32e59-aaa4-4e44-9b79-9cc166ef2ee4" d="M534,478.4a7.1,7.1,0,0,1-5.3,2.4c-1.5,0-6.9-.6-6.9-6.9,0-4.1,2.9-5.7,6.8-5.7a10,10,0,0,1,4.1.8c-0.5-2.1-1.4-2.6-3.3-2.6a13.4,13.4,0,0,0-3.2.3h-0.6a1.5,1.5,0,0,1-1.4-.7l-1.1-3.2a3.5,3.5,0,0,1-.1-0.8,1.3,1.3,0,0,1,.6-1.2,15.7,15.7,0,0,1,6.7-1.3c6.8,0,9.8,3.7,9.8,9.6v10.5a1.1,1.1,0,0,1-1.1,1.1h-3.1a1.3,1.3,0,0,1-1.5-1Zm-1.3-4.1V473a2.9,2.9,0,0,0-1.9-.7c-1.5,0-2.3.4-2.3,1.3s0.9,1.4,2.3,1.4A3.4,3.4,0,0,0,532.7,474.2Z"/><path class="20f32e59-aaa4-4e44-9b79-9cc166ef2ee4" d="M553.9,479.4a1.1,1.1,0,0,1-1.1,1.1h-5.1a1,1,0,0,1-1.1-1.1V451.9a1,1,0,0,1,1.1-1.1h5.1a1.1,1.1,0,0,1,1.1,1.1v27.5Z"/><path class="20f32e59-aaa4-4e44-9b79-9cc166ef2ee4" d="M573,473.5a2.7,2.7,0,0,1,1.3-.5,1.3,1.3,0,0,1,.9.4l2,2.1a2.1,2.1,0,0,1,.5,1.1,2.2,2.2,0,0,1-.3,1.1c-2.3,2.5-5.1,2.9-7.7,2.9a11,11,0,0,1-10.9-10.8,10.8,10.8,0,0,1,10.9-10.6,11.2,11.2,0,0,1,7.6,2.8,2.5,2.5,0,0,1,.3,1,1.7,1.7,0,0,1-.5,1.1L575,467a1.8,1.8,0,0,1-.9.4h-0.3l-0.7-.3a7.7,7.7,0,0,0-3.4-.8,3.5,3.5,0,0,0-3.6,3.8,4.2,4.2,0,0,0,4,4.4A5,5,0,0,0,573,473.5Z"/><path class="20f32e59-aaa4-4e44-9b79-9cc166ef2ee4" d="M580.7,470.3a10.9,10.9,0,1,1,21.8,0A10.9,10.9,0,0,1,580.7,470.3Zm14.5,0.1a3.8,3.8,0,0,0-3.7-4.1c-1.9,0-3.5,1.7-3.5,4.1a3.8,3.8,0,0,0,3.5,4.1A3.9,3.9,0,0,0,595.1,470.3Z"/><path class="20f32e59-aaa4-4e44-9b79-9cc166ef2ee4" d="M607.4,451.9a1.1,1.1,0,0,1,1.1-1.1h5.1a1,1,0,0,1,1.1,1.1v8.6a6.6,6.6,0,0,1,4.1-1.1c6,0,8.3,4.5,8.3,9.5v10.6a1,1,0,0,1-1.1,1.1h-5.1a1.1,1.1,0,0,1-1.1-1.1v-9.9c0-1.8-.2-3.3-2.7-3.3s-2.4,1.5-2.4,3.3v9.9a1,1,0,0,1-1.1,1.1h-5.1a1.1,1.1,0,0,1-1.1-1.1V451.9Z"/><path class="20f32e59-aaa4-4e44-9b79-9cc166ef2ee4" d="M631.6,470.3a10.9,10.9,0,1,1,21.8,0A10.9,10.9,0,0,1,631.6,470.3Zm14.5,0.1a3.8,3.8,0,0,0-3.7-4.1c-1.9,0-3.5,1.7-3.5,4.1a3.8,3.8,0,0,0,3.5,4.1A3.9,3.9,0,0,0,646,470.3Z"/><path class="20f32e59-aaa4-4e44-9b79-9cc166ef2ee4" d="M665.6,479.4a1.1,1.1,0,0,1-1.1,1.1h-5.1a1,1,0,0,1-1.1-1.1V451.9a1,1,0,0,1,1.1-1.1h5.1a1.1,1.1,0,0,1,1.1,1.1v27.5Z"/></svg>