<svg id="98adf437-3562-4430-9cb0-03fbd65b9d59" data-name="Capa 1" xmlns="http://www.w3.org/2000/svg" viewBox="0 0 423 300"><defs><style>.\38 f94f158-37d3-431c-aa24-0476b4f845ff,.\39 d7bdee2-7fbb-4279-bfaf-01a8439c1305{fill:#fff;}.\39 d7bdee2-7fbb-4279-bfaf-01a8439c1305{stroke:#222221;stroke-miterlimit:10;}.\38 e64ab83-6dea-415f-a50b-3b595e34c9a5{fill:#d18b2b;}</style></defs><title>img08</title><path class="8f94f158-37d3-431c-aa24-0476b4f845ff" d="M161.4,66.3a1.1,1.1,0,0,1,1.1,1.1v4.9a1,1,0,0,1-1.1,1.1h-2.3v5.1a1.1,1.1,0,0,1-1.1,1.1h-5.1a1,1,0,0,1-1.1-1.1V73.4H140.3a1.5,1.5,0,0,1-1.6-1.6V68.3a4.4,4.4,0,0,1,.9-2.1L150,50.8a1.4,1.4,0,0,1,1.4-.9H158a1.1,1.1,0,0,1,1.1,1.1V66.3h2.3Zm-9.6-5.5-3.9,5.5h3.9V60.8Z"/><path class="8f94f158-37d3-431c-aa24-0476b4f845ff" d="M165.9,64.6c0-8.4,4.9-15.2,13.3-15.2s13.3,6.8,13.3,15.2-4.9,15.2-13.3,15.2S165.9,73,165.9,64.6Zm19.2,0.2c0-4.5-1.6-8.4-6-8.4s-5.9,3.9-5.9,8.4,1.6,8.6,5.9,8.6S185.1,69.3,185.1,64.8Z"/><path class="8f94f158-37d3-431c-aa24-0476b4f845ff" d="M197.9,57.6a7.8,7.8,0,0,1,15.7,0A7.8,7.8,0,0,1,197.9,57.6Zm10,0a2.1,2.1,0,1,0-4.3,0A2.2,2.2,0,1,0,207.9,57.6Zm6.9,21.1a1.9,1.9,0,0,1-1.5.8h-5.3a1.1,1.1,0,0,1-1.1-1.3l14.9-27.5a1.5,1.5,0,0,1,1.3-.9h5.5a1.1,1.1,0,0,1,1.1,1.3ZM223,72a7.8,7.8,0,0,1,15.7,0A7.8,7.8,0,0,1,223,72Zm10,0a2.1,2.1,0,1,0-4.3,0A2.2,2.2,0,1,0,232.9,72Z"/><path class="8f94f158-37d3-431c-aa24-0476b4f845ff" d="M256.9,79.5a1.1,1.1,0,0,1-1.1-1.1V51a1.1,1.1,0,0,1,1.1-1.1h9.9c8.4,0,14.3,6.6,14.3,14.9s-5.9,14.7-14.3,14.7h-9.9ZM273.8,65a7.7,7.7,0,0,0-7.7-8h-3V72.6h3A7.4,7.4,0,0,0,273.8,65Z"/><path class="8f94f158-37d3-431c-aa24-0476b4f845ff" d="M303.2,61.4a1.1,1.1,0,0,1,1.1,1.1v4.7a1,1,0,0,1-1.1,1.1h-10v4.3h12.7a1.1,1.1,0,0,1,1.1,1.1v4.7a1,1,0,0,1-1.1,1.1h-19a1.1,1.1,0,0,1-1.1-1.1V51a1.1,1.1,0,0,1,1.1-1.1h19A1.1,1.1,0,0,1,307,51v4.9a1,1,0,0,1-1.1,1.1H293.1v4.5h10Z"/><path class="8f94f158-37d3-431c-aa24-0476b4f845ff" d="M323.4,51a1,1,0,0,1,1.1-1.1h5.1a1.1,1.1,0,0,1,1.1,1.1V72.7h12.7a1.1,1.1,0,0,1,1.1,1.1v4.6a1,1,0,0,1-1.1,1.1h-19a1,1,0,0,1-1.1-1.1V51Z"/><path class="8f94f158-37d3-431c-aa24-0476b4f845ff" d="M357.4,74.2l-2.1,4.5a1.5,1.5,0,0,1-1.3.9h-5.6a1.1,1.1,0,0,1-1.1-1.2l13.5-27.8a1.9,1.9,0,0,1,3,0l13.5,27.8a1.1,1.1,0,0,1-1.1,1.2h-5.6a1.5,1.5,0,0,1-1.3-.9l-2.1-4.5h-9.9Zm7.2-6.1-2.2-4.5-2.3,4.5h4.5Z"/><path class="8f94f158-37d3-431c-aa24-0476b4f845ff" d="M123.5,89.7a1,1,0,0,1,1.1-1.1h12.5c5.1,0,9.2,4.1,9.2,10.2s-4.1,10.1-9.2,10.1h-6.3v8.2a1.1,1.1,0,0,1-1.1,1.1h-5.1a1,1,0,0,1-1.1-1.1V89.7Zm15.5,9.2c0-2-1-2.9-2.3-2.9h-5.9v6h5.9C138,101.9,139.1,100.9,139.1,98.9Z"/><path class="8f94f158-37d3-431c-aa24-0476b4f845ff" d="M149.2,103.4a15,15,0,1,1,15,15.2A15.1,15.1,0,0,1,149.2,103.4Zm22.8,0.2c0-4.5-3.2-8.4-7.8-8.4s-7.7,3.9-7.7,8.4,3.2,8.6,7.7,8.6S172,108.1,172,103.6Z"/><path class="8f94f158-37d3-431c-aa24-0476b4f845ff" d="M185.9,118.3a1.1,1.1,0,0,1-1.1-1.1V89.7a1.1,1.1,0,0,1,1.1-1.1h12.5a9.2,9.2,0,0,1,9.3,9.2,6.3,6.3,0,0,1-3,5.7,6.9,6.9,0,0,1,3,5.5,9.2,9.2,0,0,1-9.3,9.2H185.9Zm6.2-18.1h6.1a2.2,2.2,0,0,0,2.2-2.2,2.3,2.3,0,0,0-2.2-2.3h-6.1v4.5Zm6.1,11.2a2.4,2.4,0,0,0,2.2-2.4c0-.9-0.5-2.1-1.3-2.1h-7v4.5h6.1Z"/><path class="8f94f158-37d3-431c-aa24-0476b4f845ff" d="M213.5,89.7a1,1,0,0,1,1.1-1.1h5.1a1.1,1.1,0,0,1,1.1,1.1v21.7h12.7a1.1,1.1,0,0,1,1.1,1.1v4.6a1,1,0,0,1-1.1,1.1h-19a1,1,0,0,1-1.1-1.1V89.7Z"/><path class="8f94f158-37d3-431c-aa24-0476b4f845ff" d="M247.5,112.9l-2.1,4.5a1.5,1.5,0,0,1-1.3.9h-5.6a1.1,1.1,0,0,1-1.1-1.2L251,89.2a1.9,1.9,0,0,1,3,0l13.5,27.8a1.1,1.1,0,0,1-1.1,1.2h-5.6a1.5,1.5,0,0,1-1.3-.9l-2.1-4.5h-9.9Zm7.2-6.1-2.2-4.5-2.3,4.5h4.5Z"/><path class="8f94f158-37d3-431c-aa24-0476b4f845ff" d="M283.9,118.6A14.9,14.9,0,0,1,269,103.4a15.1,15.1,0,0,1,15.2-15.2,15.8,15.8,0,0,1,11.1,4.3,2.6,2.6,0,0,1,.3.8,1.2,1.2,0,0,1-.3.8L292,97a1.2,1.2,0,0,1-.7.3,1.6,1.6,0,0,1-1-.3,9.5,9.5,0,0,0-6.2-1.9c-4.5,0-7.8,3.9-7.8,8.4s3.6,8.6,7.8,8.6,3.9,0,6.7-2.1a1.4,1.4,0,0,1,.9-0.4,1.1,1.1,0,0,1,.7.3l2.5,2.8a1.1,1.1,0,0,1,.4.8,1.6,1.6,0,0,1-.3.8C292.4,117.6,288.6,118.6,283.9,118.6Z"/><path class="8f94f158-37d3-431c-aa24-0476b4f845ff" d="M307.8,117.2a1.1,1.1,0,0,1-1.1,1.1h-5.1a1,1,0,0,1-1.1-1.1V89.7a1,1,0,0,1,1.1-1.1h5.1a1.1,1.1,0,0,1,1.1,1.1v27.5Z"/><path class="9d7bdee2-7fbb-4279-bfaf-01a8439c1305" d="M313.3,103.4a15,15,0,1,1,15,15.2A15.1,15.1,0,0,1,313.3,103.4Zm22.8,0.2c0-4.5-3.2-8.4-7.7-8.4s-7.8,3.9-7.8,8.4,3.2,8.6,7.8,8.6S336.1,108.1,336.1,103.6Zm-7.3-26.4c0.3-.5.4-0.9,1-0.9h5.1a1.1,1.1,0,0,1,1.1,1.2l-4.6,6.7a1.6,1.6,0,0,1-1.3.8h-3a1.1,1.1,0,0,1-1.1-1.2Z"/><path class="8f94f158-37d3-431c-aa24-0476b4f845ff" d="M348.9,89.3a1.2,1.2,0,0,1,1.4-1l17.2,11.1V90.2a1.5,1.5,0,0,1,1.6-1.6h4.2a1.5,1.5,0,0,1,1.6,1.6v27a1.1,1.1,0,0,1-1.1,1.1h-5.1a1,1,0,0,1-1.1-1.1v-9l-11.2-7.4v16.4a1.1,1.1,0,0,1-1.1,1.1H350a1,1,0,0,1-1.1-1.1V89.3Z"/><polygon class="8e64ab83-6dea-415f-a50b-3b595e34c9a5" points="125.1 136.5 92.4 136.5 92.4 32.1 125.6 32.1 125.6 35.1 95.4 35.1 95.4 133.5 125.1 133.5 125.1 136.5"/><polygon class="8e64ab83-6dea-415f-a50b-3b595e34c9a5" points="409.2 136.5 376.6 136.5 376.6 133.5 406.2 133.5 406.2 35.1 376.1 35.1 376.1 32.1 409.2 32.1 409.2 136.5"/><path class="8f94f158-37d3-431c-aa24-0476b4f845ff" d="M123.6,153.7c0.8-.1.6-1.5,1.7-1.3s0.8,2.4.9,3.3a26.9,26.9,0,0,1,0,3.1c0.2,0.9-.2,1.9-0.2,3.1a7,7,0,0,1,.2.7,7.1,7.1,0,0,0-.1.9c0.2,1.6.1,2.9,0.2,4.4a37.5,37.5,0,0,0-.1,5.3,15.5,15.5,0,0,0-.1,2.1,1.9,1.9,0,0,1-2.2-.2c0.2-1.3-.3-2.7-0.1-4.4a4.8,4.8,0,0,0-.2-3.1c-0.8-.3-1.3.4-1.9,0.8a3.9,3.9,0,0,0-2,.5,5.8,5.8,0,0,0-2.6-.3,1.6,1.6,0,0,0-1.2-.4l-1.9-1.7a11.9,11.9,0,0,0-.9-2.2,4.5,4.5,0,0,0-.3-1.8,31.9,31.9,0,0,1,.4-5.9,5.3,5.3,0,0,0,.4-1.4l1.6-1.9,1.3-.7,2.5-.6H121c0.9,0.4,2.1.8,2.6,1.4h0.1Zm-5.6.7a12.7,12.7,0,0,1-1.6.9c-0.3,1.1-.8,1.7-1.1,2.6a20.9,20.9,0,0,1-.1,3.7,11.6,11.6,0,0,0,.9,3.2,7,7,0,0,0,1.3,1.3,7.4,7.4,0,0,0,2.2.5l2.5-.7a2,2,0,0,1,.8-1,15.6,15.6,0,0,0,.9-3.3,20.2,20.2,0,0,0-.3-4.6,5,5,0,0,1-.7-1.5c-1.1-.4-2.1-1.5-3.4-1.2H118Z"/><path class="8f94f158-37d3-431c-aa24-0476b4f845ff" d="M134.3,152.6c0.1,3.3-.2,6.6.2,10.1a9.1,9.1,0,0,0,.4,2.1c0.7,1.3,2.2,1.7,3.5,2s1.8-1.1,2.8-1.4a16.5,16.5,0,0,0,1.1-3,2.7,2.7,0,0,1,.3-2.1c0.1-2.1-.3-5.4-0.1-7.7,0.8-.4,1.8-0.4,2.2.2a52,52,0,0,1,0,8,11.4,11.4,0,0,1,0,2.3,34.6,34.6,0,0,1-.1,3.5c0.1,0.6.4,1.2-.1,1.7a1.7,1.7,0,0,1-1.5-.2c-0.4-.3-0.2-0.9-0.7-1.1s-0.9.6-1.6,0.9a19.1,19.1,0,0,0-2,.7c-1.8-.2-3.5,0-4.7-0.9s-1.4-2.4-2-4,0.2-.7.1-1.2a17.3,17.3,0,0,1,0-4.1,8.5,8.5,0,0,0-.3-0.9,3.9,3.9,0,0,1,.3-1.1,5.7,5.7,0,0,1-.2-2.2,3.1,3.1,0,0,1,.4-1.3,0.6,0.6,0,0,1,.4-0.4,1.9,1.9,0,0,1,1.5.2h0Z"/><path class="8f94f158-37d3-431c-aa24-0476b4f845ff" d="M162.4,161.4c-2.6.4-5.9-.1-8.4,0.2-0.6.1-1.5,0-1.9,0.3,0.4,3.1,2,5.3,5.5,5,1.3-.4,2.2-1.5,3.2-0.7s-0.9,1.9-2.3,2.4-1.9.1-2.7,0-2.3-.7-3.3-1a14.2,14.2,0,0,0-1.8-1.8,8.3,8.3,0,0,0-.3-1.2,10,10,0,0,1-.6-2.2,37.1,37.1,0,0,1,.2-5.6c0.3-.8.4-1.3,0.7-2s1.1-1.1,1.5-1.8l1.8-.7c1-.2,2.8.3,3.8-0.2a9.2,9.2,0,0,0,2,.7,15.4,15.4,0,0,1,2.3,2.6,1.9,1.9,0,0,0,.3,1.5,2,2,0,0,0,.3,1.5c-0.3.8,0.4,2.3-.4,2.9h0Zm-2.5-4.8a6.7,6.7,0,0,0-1.4-1.8,7.1,7.1,0,0,0-4.1,0c-0.7,0-1,.7-1.6,1.1s-1.3,2.7-.1,3.7,0.3-.1.3,0a8.6,8.6,0,0,0,2.3-.4,2.6,2.6,0,0,0,2.3,0,2.6,2.6,0,0,0,2.8-.1,3.2,3.2,0,0,0-.3-2.6h-0.1Z"/><path class="8f94f158-37d3-431c-aa24-0476b4f845ff" d="M185.5,154.1c-0.2,1.5-1.9.8-2.7,0.4a15.4,15.4,0,0,0-3.2.1c-0.8.4-1.3,1.2-2.1,1.7a10.7,10.7,0,0,1-.8,2.3,13.2,13.2,0,0,0,.4,5.2,4.5,4.5,0,0,0,1.8,2.1,11.7,11.7,0,0,1,1.7.7,1.6,1.6,0,0,1,1.1.1c1.1-.1,2.2-0.7,3.1-0.7a6.7,6.7,0,0,1,.4,1.3c-0.2,1-1.9,1.1-3,1.3h-2.6l-2.5-1.2a8.3,8.3,0,0,1-2.2-2.9,8.7,8.7,0,0,0-.7-2.4c0-1.1,0-2.2.1-3.4a24.7,24.7,0,0,1,1.1-3.2,15.1,15.1,0,0,1,2.9-2.9,6.1,6.1,0,0,0,1.8-.4,20.2,20.2,0,0,1,3.2.1c0.7,0.6,1.9.5,2,1.7h0Z"/><path class="8f94f158-37d3-431c-aa24-0476b4f845ff" d="M195.3,152.1l0.2-.2c1.1,0.1,1.6.7,2.8,0.5s2.4,2.4,3.2,3.4,0.2,2,.9,2.8a2.6,2.6,0,0,0,.2,1.8,3.1,3.1,0,0,0,0,1.2c0,1-.7,1.7-0.7,2.8a9,9,0,0,0-1.3,2.1,10.8,10.8,0,0,1-2.5,1.7,7.9,7.9,0,0,1-4.6.1c-0.9-.4-1.7-0.9-2.6-1.4a2.3,2.3,0,0,0-.9-1.3c-0.1-.9-0.7-1.3-0.8-2.1s-0.2-1.4-.4-2.1,0.4-3,.3-4.5a4.9,4.9,0,0,0,1.3-2.1,4.1,4.1,0,0,0,1.2-1.5,25.1,25.1,0,0,1,3.8-1.2h0Zm-1.6,2.6a14.6,14.6,0,0,0-1.7,1.5c-0.9,1.8-.9,3.8-0.8,6.4a7.6,7.6,0,0,0,2.1,3.4,9.6,9.6,0,0,0,3.5.7,12.2,12.2,0,0,1,1.8-1.1l0.5-.8,0.3-.2c0.1-.2,0-0.5.1-0.9l0.4-.5a14.2,14.2,0,0,1,.4-2.5c-0.2-.8-0.1-1.8-0.3-2.7a15.3,15.3,0,0,1-1-2.3,16.1,16.1,0,0,0-2.5-1.3,13.2,13.2,0,0,0-1.5.1,5.8,5.8,0,0,0-1.4.2h0Z"/><path class="8f94f158-37d3-431c-aa24-0476b4f845ff" d="M220.1,168.2a7.1,7.1,0,0,1-1.9.2c-0.4-1.3-.2-2.7,0-4.3s-0.4-3-.2-4.8a9.6,9.6,0,0,0-.4-3.1,2.6,2.6,0,0,0-.1-0.4c-0.7-1-1.7-1.1-2.6-1.7a5.8,5.8,0,0,0-4.3,2.1c-0.1.8-.6,1.4-0.7,2.4a9,9,0,0,1-.1,3.5l0.3,1.2c-0.2,1.4-.3,3.2-0.3,4.6a2,2,0,0,1-1.7.4,4.2,4.2,0,0,1-.3-3.1c-0.1-.6-0.1-1.1-0.2-1.7s0.2-2.3.2-3.6a0.4,0.4,0,0,0,0-.4c0.1-2.2-.1-3.8.2-6a1.1,1.1,0,0,1,.2-1.2c1.5-.4,1.2,1.1,2.1,1.5a14.6,14.6,0,0,0,2-1.5,4.9,4.9,0,0,0,1.9-.4c0.5,0.3,1-.1,1.5,0a5.1,5.1,0,0,1,3.8,2.1,2.2,2.2,0,0,0,.5,1.3c-0.2.6,0.3,1.1,0.2,1.8a9.1,9.1,0,0,1-.1,1,27.2,27.2,0,0,1,.2,3.5,10.3,10.3,0,0,0,.2,3.5c-0.3,1.3.4,2.1-.2,3.1h0Z"/><path class="8f94f158-37d3-431c-aa24-0476b4f845ff" d="M230.7,154.4a4.4,4.4,0,0,0-2.9.9,11.4,11.4,0,0,0-.3,1.5,3.3,3.3,0,0,0,1.8,1.9,15.7,15.7,0,0,0,2.5,1.1,3.8,3.8,0,0,0,2,1.1,3.7,3.7,0,0,0,.9,1.3c0.3,0.5.4,0.9,0.7,1.4a4.1,4.1,0,0,1-.7,3.3,5.2,5.2,0,0,1-1.3,1.2c-0.7.4-2,.4-2.9,0.7s-4.5-.1-5.3-1.8,0.5-.7.7-1.1,3.7,1.3,5.7.8a3.1,3.1,0,0,0,1.5-2.1c0-1.5-1.4-2.1-2.3-2.8a11.6,11.6,0,0,0-2.4-.9,10.2,10.2,0,0,1-2.5-1.9,10.5,10.5,0,0,1-.8-2c0-1,.3-1.5.2-2.6l1.2-1.5,1.8-.7a14.8,14.8,0,0,1,3.8.1c0.3,0.3,1.3,0,1.5.7S231.9,154.5,230.7,154.4Z"/><path class="8f94f158-37d3-431c-aa24-0476b4f845ff" d="M242.3,152.6c0.1,3.3-.2,6.6.2,10.1a9.2,9.2,0,0,0,.4,2.1c0.7,1.3,2.2,1.7,3.5,2s1.8-1.1,2.8-1.4a16.6,16.6,0,0,0,1.1-3,2.7,2.7,0,0,1,.3-2.1c0.1-2.1-.3-5.4-0.1-7.7,0.8-.4,1.8-0.4,2.2.2a52.1,52.1,0,0,1,0,8,11.4,11.4,0,0,1,0,2.3,34.6,34.6,0,0,1-.1,3.5c0.1,0.6.4,1.2-.1,1.7a1.7,1.7,0,0,1-1.5-.2c-0.4-.3-0.2-0.9-0.7-1.1s-0.9.6-1.6,0.9a19.1,19.1,0,0,0-2,.7c-1.8-.2-3.5,0-4.7-0.9s-1.4-2.4-2-4,0.2-.7.1-1.2a17.3,17.3,0,0,1,0-4.1,8.5,8.5,0,0,0-.3-0.9,3.9,3.9,0,0,1,.3-1.1,5.7,5.7,0,0,1-.2-2.2,3.1,3.1,0,0,1,.4-1.3,0.6,0.6,0,0,1,.4-0.4,1.9,1.9,0,0,1,1.5.2h0Z"/><path class="8f94f158-37d3-431c-aa24-0476b4f845ff" d="M277,168.5c-0.5.3-1.1-.1-1.7-0.1s0.1-1-.2-1.1,0.1-.9.1-1.3,0.2-2.5-.3-3.1a3.4,3.4,0,0,0,.3-1.2,19.2,19.2,0,0,1,0-5.5,3.2,3.2,0,0,0-3.8-1.5,2.6,2.6,0,0,0-1.5,1.4,20.8,20.8,0,0,0-.4,3.3,43.2,43.2,0,0,1-.3,6.2c0.3,1.1.7,3-.9,3a1.4,1.4,0,0,1-1.1-1.2,4.4,4.4,0,0,1,.1-0.9,14.5,14.5,0,0,1,0-1.9,7,7,0,0,1-.2-0.9c0-.6.2-1.1,0.2-2.2a7.8,7.8,0,0,1-.1-3.2c-0.4-.6-0.2-1.6-0.5-2.4a1.9,1.9,0,0,1-.4-0.8,11.6,11.6,0,0,0-1.8-.8,16.6,16.6,0,0,1-2,.6,9.5,9.5,0,0,0-1.4,4,20.5,20.5,0,0,1,.2,6.7,6.8,6.8,0,0,1-.3,2.9,4.3,4.3,0,0,1-1.7-.2c-0.7-1-.1-2.1-0.3-3.4a3.3,3.3,0,0,0-.1-1.1c0.1-2.6-.1-6,0.6-8.9-0.7-.9-0.5-2.5.2-2.6s1,0.9,1.5,1.5,0.8-.8,1.3-1.1a4.5,4.5,0,0,1,1.4-.8l2.2,0.2a16.9,16.9,0,0,0,2.3,1.8,6.9,6.9,0,0,0,1.5-1.1l2.8-1H273c0.7,0.4,1.7.5,2.4,1a1.1,1.1,0,0,1,.7.8,2.8,2.8,0,0,1,.7.7c0.4,1.1.2,2.1,0.7,3.1-0.2,2.9.1,5.9,0,8.9a4.2,4.2,0,0,1-.4,2.2h0Z"/><path class="8f94f158-37d3-431c-aa24-0476b4f845ff" d="M294.5,161.4c-2.6.4-5.9-.1-8.4,0.2-0.6.1-1.5,0-1.9,0.3,0.4,3.1,2,5.3,5.5,5,1.3-.4,2.2-1.5,3.2-0.7s-0.9,1.9-2.3,2.4-1.9.1-2.7,0-2.3-.7-3.3-1a14.2,14.2,0,0,0-1.8-1.8,8.2,8.2,0,0,0-.3-1.2,10,10,0,0,1-.6-2.2,37.1,37.1,0,0,1,.2-5.6c0.3-.8.4-1.3,0.7-2s1.1-1.1,1.5-1.8l1.8-.7c1-.2,2.8.3,3.8-0.2a9.2,9.2,0,0,0,2,.7,15.3,15.3,0,0,1,2.3,2.6,1.9,1.9,0,0,0,.3,1.5,2,2,0,0,0,.3,1.5c-0.3.8,0.4,2.3-.4,2.9h0Zm-2.5-4.8a6.7,6.7,0,0,0-1.4-1.8,7.1,7.1,0,0,0-4.1,0c-0.7,0-1,.7-1.6,1.1s-1.3,2.7-.1,3.7,0.3-.1.3,0a8.6,8.6,0,0,0,2.3-.4,2.6,2.6,0,0,0,2.3,0,2.6,2.6,0,0,0,2.8-.1,3.2,3.2,0,0,0-.3-2.6H292Z"/><path class="8f94f158-37d3-431c-aa24-0476b4f845ff" d="M317,168.5c-0.8,0-.8-0.9-1.5-1.1a9.7,9.7,0,0,0-1.8,1,15.6,15.6,0,0,1-4.4.2c-0.7-.8-1.7-1.2-2.3-1.9s-0.2-2.3-.7-3.2a14.4,14.4,0,0,1,.3-2.4c0.3-.4.6-1.1,0.9-1.5a0.5,0.5,0,0,0,.4-0.3c1.4-.7,2.6-0.7,4.6-1a7.2,7.2,0,0,0,2.5,1.4c1.2-.4.1-1.8,0.3-2.9a4.8,4.8,0,0,0-1.1-1.9c-0.7-.1-1.1-0.4-1.8-0.6s-3,.7-4.1.4a2,2,0,0,1-.6-1.6c0.4-.6,1.5-0.5,2.1-1a30.4,30.4,0,0,1,3.3,0,6,6,0,0,0,2.5.9c1.1,1.6,2.4,3.6,2,6.4,0,0.5.2,0.8,0.2,1.3s-0.2,3.2-.3,4.9a13.3,13.3,0,0,1,.3,2,1.8,1.8,0,0,1-1.1,1h0Zm-6.7-7.7-1.4,1.1c0.2,0.3-.2.3-0.3,0.6s0.3,3.1,1.1,3.4a3.3,3.3,0,0,0,2.9.4,3.1,3.1,0,0,1,1.1-.3c0.9-.8,2-1,2.2-2.6a11.8,11.8,0,0,0-1.7-2.3c-1-.2-1.6-0.5-2.5-0.7l-0.2.2h-1.2Z"/><path class="8f94f158-37d3-431c-aa24-0476b4f845ff" d="M326.5,145.7c-0.1,7.3-.5,14.3.4,23.2-0.8-.3-2-0.2-2.3-0.7s-0.2-1-.4-1.7a11.8,11.8,0,0,1,0-1.7c-0.4-3.7.6-8.1,0.2-11.7a19.2,19.2,0,0,1,.2-7.6,2.8,2.8,0,0,1,1.8.1h0Z"/><path class="8f94f158-37d3-431c-aa24-0476b4f845ff" d="M342.7,154.1c-0.2,1.5-1.9.8-2.7,0.4a15.4,15.4,0,0,0-3.2.1c-0.8.4-1.3,1.2-2.1,1.7a10.7,10.7,0,0,1-.8,2.3,13.2,13.2,0,0,0,.4,5.2,4.5,4.5,0,0,0,1.8,2.1,11.7,11.7,0,0,1,1.7.7,1.6,1.6,0,0,1,1.1.1c1.1-.1,2.2-0.7,3.1-0.7a6.7,6.7,0,0,1,.4,1.3c-0.2,1-1.9,1.1-3,1.3H337l-2.5-1.2a8.3,8.3,0,0,1-2.2-2.9,8.7,8.7,0,0,0-.7-2.4c0-1.1,0-2.2.1-3.4a24.7,24.7,0,0,1,1.1-3.2,15.1,15.1,0,0,1,2.9-2.9,6.1,6.1,0,0,0,1.8-.4,20.2,20.2,0,0,1,3.2.1c0.7,0.6,1.9.5,2,1.7h0Z"/><path class="8f94f158-37d3-431c-aa24-0476b4f845ff" d="M352.6,152.1l0.2-.2c1.1,0.1,1.6.7,2.8,0.5s2.4,2.4,3.2,3.4,0.2,2,.9,2.8a2.6,2.6,0,0,0,.2,1.8,3.1,3.1,0,0,0,0,1.2c0,1-.7,1.7-0.7,2.8a9,9,0,0,0-1.3,2.1,10.8,10.8,0,0,1-2.5,1.7,7.9,7.9,0,0,1-4.6.1c-0.9-.4-1.7-0.9-2.6-1.4a2.3,2.3,0,0,0-.9-1.3c-0.1-.9-0.7-1.3-0.8-2.1s-0.2-1.4-.4-2.1,0.4-3,.3-4.5a4.9,4.9,0,0,0,1.3-2.1,4.1,4.1,0,0,0,1.2-1.5,25.1,25.1,0,0,1,3.8-1.2h0Zm-1.6,2.6a14.6,14.6,0,0,0-1.7,1.5c-0.9,1.8-.9,3.8-0.8,6.4a7.6,7.6,0,0,0,2.1,3.4,9.6,9.6,0,0,0,3.5.7,12.2,12.2,0,0,1,1.8-1.1l0.5-.8,0.3-.2c0.1-.2,0-0.5.1-0.9l0.4-.5a14.2,14.2,0,0,1,.4-2.5c-0.2-.8-0.1-1.8-0.3-2.7a15.3,15.3,0,0,1-1-2.3,16.1,16.1,0,0,0-2.5-1.3,13.2,13.2,0,0,0-1.5.1,5.8,5.8,0,0,0-1.4.2h0Z"/><path class="8f94f158-37d3-431c-aa24-0476b4f845ff" d="M366.9,145.7a37.6,37.6,0,0,0,0,4.4,4.8,4.8,0,0,0,.1,1.1c0.1,0.8-.2,2.1.2,2.7s1.3-.9,2.1-1.3a2.5,2.5,0,0,0,1.1-.3c1.4-.2,2.6.2,4.1,0.2a10.4,10.4,0,0,1,2.2,2.4,7,7,0,0,0,.5,1.9,48.3,48.3,0,0,1,0,11.4c-0.8.9-1.5,0.2-2.1-.1s0-3-.1-4.4a2.9,2.9,0,0,1,.2-0.7c0-1.8-.5-3.5-0.2-5.4a8.8,8.8,0,0,0-.4-1.7,4.7,4.7,0,0,0-2.4-1.4l-2.2.3c-0.8,0-.9.8-1.7,0.9a20.9,20.9,0,0,1-1,1.9c-0.9,3.9,0,7.3-.4,10.7a4.6,4.6,0,0,1-2.1,0,63.9,63.9,0,0,1,0-6.8,12,12,0,0,1-.2-2.2c0-1.9.4-4.1,0.1-5.5s0.2-2.8-.3-3.7,0.3-3.4.2-4.4a2.8,2.8,0,0,1,2.3,0h0Z"/><path class="8f94f158-37d3-431c-aa24-0476b4f845ff" d="M388.3,152.1l0.2-.2c1.1,0.1,1.6.7,2.8,0.5s2.4,2.4,3.2,3.4,0.2,2,.9,2.8a2.6,2.6,0,0,0,.2,1.8,3.1,3.1,0,0,0,0,1.2c0,1-.7,1.7-0.7,2.8a9,9,0,0,0-1.3,2.1,10.8,10.8,0,0,1-2.5,1.7,7.9,7.9,0,0,1-4.6.1c-0.9-.4-1.7-0.9-2.6-1.4a2.3,2.3,0,0,0-.9-1.3c-0.1-.9-0.7-1.3-0.8-2.1s-0.2-1.4-.4-2.1,0.4-3,.3-4.5a4.9,4.9,0,0,0,1.3-2.1,4.1,4.1,0,0,0,1.2-1.5,25.1,25.1,0,0,1,3.8-1.2h0Zm-1.6,2.6a14.5,14.5,0,0,0-1.7,1.5c-0.9,1.8-.9,3.8-0.8,6.4a7.5,7.5,0,0,0,2.1,3.4,9.6,9.6,0,0,0,3.5.7,12.1,12.1,0,0,1,1.8-1.1l0.5-.8,0.3-.2c0.1-.2,0-0.5.1-0.9l0.4-.5a14.4,14.4,0,0,1,.4-2.5c-0.2-.8-0.1-1.8-0.3-2.7a15.3,15.3,0,0,1-1-2.3,16,16,0,0,0-2.5-1.3,13.2,13.2,0,0,0-1.5.1,5.8,5.8,0,0,0-1.4.2h0Z"/><path class="8f94f158-37d3-431c-aa24-0476b4f845ff" d="M402.7,145.7c-0.1,7.3-.5,14.3.4,23.2-0.8-.3-2-0.2-2.3-0.7s-0.2-1-.4-1.7a11.9,11.9,0,0,1,0-1.7c-0.4-3.7.6-8.1,0.2-11.7a19.2,19.2,0,0,1,.2-7.6,2.8,2.8,0,0,1,1.8.1h0Z"/><path class="8f94f158-37d3-431c-aa24-0476b4f845ff" d="M141.8,184.5c-0.1,7.3-.5,14.3.4,23.2-0.8-.3-2-0.2-2.3-0.7s-0.2-1-.4-1.7a11.9,11.9,0,0,1,0-1.7c-0.4-3.7.6-8.1,0.2-11.7a19.2,19.2,0,0,1,.2-7.6,2.8,2.8,0,0,1,1.8.1h0Z"/><path class="8f94f158-37d3-431c-aa24-0476b4f845ff" d="M153.2,190.9l0.2-.2c1.1,0.1,1.6.7,2.8,0.5s2.4,2.4,3.2,3.4,0.2,2,.9,2.8a2.6,2.6,0,0,0,.2,1.8,3.1,3.1,0,0,0,0,1.2c0,1-.7,1.7-0.7,2.8a9,9,0,0,0-1.3,2.1A10.8,10.8,0,0,1,156,207a7.9,7.9,0,0,1-4.6.1c-0.9-.4-1.7-0.9-2.6-1.4a2.3,2.3,0,0,0-.9-1.3c-0.1-.9-0.7-1.3-0.8-2.1s-0.2-1.4-.4-2.1,0.4-3,.3-4.5a4.9,4.9,0,0,0,1.3-2.1,4.1,4.1,0,0,0,1.2-1.5,25.1,25.1,0,0,1,3.8-1.2h0Zm-1.6,2.6a14.5,14.5,0,0,0-1.7,1.5c-0.9,1.8-.9,3.8-0.8,6.4a7.5,7.5,0,0,0,2.1,3.4,9.6,9.6,0,0,0,3.5.7,12.1,12.1,0,0,1,1.8-1.1l0.5-.8,0.3-.2c0.1-.2,0-0.5.1-0.9l0.4-.5a14.4,14.4,0,0,1,.4-2.5c-0.2-.8-0.1-1.8-0.3-2.7a15.3,15.3,0,0,1-1-2.3,16,16,0,0,0-2.5-1.3,13.2,13.2,0,0,0-1.5.1,5.8,5.8,0,0,0-1.4.2h0Z"/><path class="8f94f158-37d3-431c-aa24-0476b4f845ff" d="M175.7,184.4a37.6,37.6,0,0,0,0,4.4,4.8,4.8,0,0,0,.1,1.1c0.1,0.8-.2,2.1.2,2.7s1.3-.9,2.1-1.3a2.5,2.5,0,0,0,1.1-.3c1.4-.2,2.6.2,4.1,0.2a10.4,10.4,0,0,1,2.2,2.4,7,7,0,0,0,.5,1.9,48.3,48.3,0,0,1,0,11.4c-0.8.9-1.5,0.2-2.1-.1s0-3-.1-4.4a2.9,2.9,0,0,1,.2-0.7c0-1.8-.5-3.5-0.2-5.4a8.8,8.8,0,0,0-.4-1.7,4.7,4.7,0,0,0-2.4-1.4l-2.2.3c-0.8,0-.9.8-1.7,0.9a20.9,20.9,0,0,1-1,1.9c-0.9,3.9,0,7.3-.4,10.7a4.6,4.6,0,0,1-2.1,0,63.9,63.9,0,0,1,0-6.8,12,12,0,0,1-.2-2.2c0-1.9.4-4.1,0.1-5.5s0.2-2.8-.3-3.7,0.3-3.4.2-4.4a2.8,2.8,0,0,1,2.3,0h0Z"/><path class="8f94f158-37d3-431c-aa24-0476b4f845ff" d="M201.3,207.2c-0.8,0-.8-0.9-1.5-1.1a9.7,9.7,0,0,0-1.8,1,15.6,15.6,0,0,1-4.4.2c-0.7-.8-1.7-1.2-2.3-1.9s-0.2-2.3-.7-3.2a14.4,14.4,0,0,1,.3-2.4c0.3-.4.6-1.1,0.9-1.5a0.5,0.5,0,0,0,.4-0.3c1.4-.7,2.6-0.7,4.6-1a7.2,7.2,0,0,0,2.5,1.4c1.2-.4.1-1.8,0.3-2.9a4.8,4.8,0,0,0-1.1-1.9c-0.7-.1-1.1-0.4-1.8-0.6s-3,.7-4.1.4a2,2,0,0,1-.6-1.6c0.4-.6,1.5-0.5,2.1-1a30.4,30.4,0,0,1,3.3,0,6,6,0,0,0,2.5.9c1.1,1.6,2.4,3.6,2,6.4,0,0.5.2,0.8,0.2,1.3s-0.2,3.2-.3,4.9a13.3,13.3,0,0,1,.3,2,1.8,1.8,0,0,1-1.1,1h0Zm-6.7-7.7-1.4,1.1c0.2,0.3-.2.3-0.3,0.6s0.3,3.1,1.1,3.4a3.3,3.3,0,0,0,2.9.4,3.1,3.1,0,0,1,1.1-.3c0.9-.8,2-1,2.2-2.6a11.8,11.8,0,0,0-1.7-2.3c-1-.2-1.6-0.5-2.5-0.7l-0.2.2h-1.2Z"/><path class="8f94f158-37d3-431c-aa24-0476b4f845ff" d="M218.3,192.9c-0.2,1.5-1.9.8-2.7,0.4a15.4,15.4,0,0,0-3.2.1c-0.8.4-1.3,1.2-2.1,1.7a10.7,10.7,0,0,1-.8,2.3,13.2,13.2,0,0,0,.4,5.2,4.5,4.5,0,0,0,1.8,2.1,11.7,11.7,0,0,1,1.7.7,1.6,1.6,0,0,1,1.1.1c1.1-.1,2.2-0.7,3.1-0.7a6.7,6.7,0,0,1,.4,1.3c-0.2,1-1.9,1.1-3,1.3h-2.6l-2.5-1.2a8.3,8.3,0,0,1-2.2-2.9,8.7,8.7,0,0,0-.7-2.4c0-1.1,0-2.2.1-3.4a24.7,24.7,0,0,1,1.1-3.2,15.1,15.1,0,0,1,2.9-2.9,6.1,6.1,0,0,0,1.8-.4,20.2,20.2,0,0,1,3.2.1c0.7,0.6,1.9.5,2,1.7h0Z"/><path class="8f94f158-37d3-431c-aa24-0476b4f845ff" d="M234.3,200.1c-2.6.4-5.9-.1-8.4,0.2-0.6.1-1.5,0-1.9,0.3,0.4,3.1,2,5.3,5.5,5,1.3-.4,2.2-1.5,3.2-0.7s-0.9,1.9-2.3,2.4-1.9.1-2.7,0-2.3-.7-3.3-1a14.2,14.2,0,0,0-1.8-1.8,8.2,8.2,0,0,0-.3-1.2,10,10,0,0,1-.6-2.2,37.1,37.1,0,0,1,.2-5.6c0.3-.8.4-1.3,0.7-2s1.1-1.1,1.5-1.8l1.8-.7c1-.2,2.8.3,3.8-0.2a9.2,9.2,0,0,0,2,.7,15.3,15.3,0,0,1,2.3,2.6,1.9,1.9,0,0,0,.3,1.5,2,2,0,0,0,.3,1.5c-0.3.8,0.4,2.3-.4,2.9h0Zm-2.5-4.8a6.7,6.7,0,0,0-1.4-1.8,7.1,7.1,0,0,0-4.1,0c-0.7,0-1,.7-1.6,1.1s-1.3,2.7-.1,3.7,0.3-.1.3,0a8.6,8.6,0,0,0,2.3-.4,2.6,2.6,0,0,0,2.3,0,2.6,2.6,0,0,0,2.8-.1,3.2,3.2,0,0,0-.3-2.6h-0.1Z"/><path class="8f94f158-37d3-431c-aa24-0476b4f845ff" d="M259.4,187.5c0,1,.1,2.4.2,3.3a37.4,37.4,0,0,1-.3,4,24.9,24.9,0,0,1,.2,3.2c-0.1,1.1,0,2.1-.1,3.2s0.1,1.3.1,1.9-0.1,1.2-.1,1.9,0.5,1.7-.5,2.5-1.2-.9-1.6-1.8a3.5,3.5,0,0,0-1.7.8c-0.1.5-1,.5-1.3,0.9a10.7,10.7,0,0,1-4.1-.2,12.6,12.6,0,0,1-2.1-1.2,3.2,3.2,0,0,0-.8-0.9c-1-1.6-1.1-4.2-1.3-6.6a8.3,8.3,0,0,0,.5-2.8c0.7-1.5,1.1-2.8,2.4-3.9a4.2,4.2,0,0,0,1.5-.8,2.7,2.7,0,0,0,1.5-.2l2.9,0.4c0.7,0.3,1.1,1.3,2.2.9s0-1.2.1-2,0.3-4.3.5-5.3a1.1,1.1,0,0,1,1.5-.5C259.8,185.4,259.2,186.3,259.4,187.5Zm-9.1,6.2a7.6,7.6,0,0,0-1.7,2.6c0.3,1.6-.4,2.6-0.2,4a11.3,11.3,0,0,1,.5,2.8c0.5,0.4.7,1.1,1,1.5s1,0.6,1.7.7a7.1,7.1,0,0,0,4.3-1.1,12,12,0,0,0,1.5-3.9c-0.3-1.1,0-2.3-.3-3.5a4.5,4.5,0,0,0-.8-2,4.8,4.8,0,0,0-2.8-1.5c-0.6-.2-1.1.2-1.7-0.1s-0.1,0-.1.2-0.7.4-1.3,0.4h0Z"/><path class="8f94f158-37d3-431c-aa24-0476b4f845ff" d="M277.1,200.1c-2.6.4-5.9-.1-8.4,0.2-0.6.1-1.5,0-1.9,0.3,0.4,3.1,2,5.3,5.5,5,1.3-.4,2.2-1.5,3.2-0.7s-0.9,1.9-2.3,2.4-1.9.1-2.7,0-2.3-.7-3.3-1a14.2,14.2,0,0,0-1.8-1.8,8.2,8.2,0,0,0-.3-1.2,10,10,0,0,1-.6-2.2,37.1,37.1,0,0,1,.2-5.6c0.3-.8.4-1.3,0.7-2s1.1-1.1,1.5-1.8l1.8-.7c1-.2,2.8.3,3.8-0.2a9.2,9.2,0,0,0,2,.7,15.3,15.3,0,0,1,2.3,2.6,1.9,1.9,0,0,0,.3,1.5,2,2,0,0,0,.3,1.5c-0.3.8,0.4,2.3-.4,2.9h0Zm-2.5-4.8a6.7,6.7,0,0,0-1.4-1.8,7.1,7.1,0,0,0-4.1,0c-0.7,0-1,.7-1.6,1.1s-1.3,2.7-.1,3.7,0.3-.1.3,0a8.6,8.6,0,0,0,2.3-.4,2.6,2.6,0,0,0,2.3,0,2.6,2.6,0,0,0,2.8-.1,3.2,3.2,0,0,0-.3-2.6h-0.1Z"/><path class="8f94f158-37d3-431c-aa24-0476b4f845ff" d="M291.8,184.5c0-6.2,2.9-9.9,7.7-9.9h0.4a8,8,0,0,1,4.4,1.4,1.5,1.5,0,0,1,.8,1,3.6,3.6,0,0,1-.2,1l-1.1,3.1a0.8,0.8,0,0,1-.8.5h-0.7a4.8,4.8,0,0,0-1.7-.2c-1.3,0-1.5,1.4-1.5,3.2v1.6h4.2a1.1,1.1,0,0,1,1.1,1.1v4.6a1,1,0,0,1-1.1,1.1h-4.2v13.2a1.1,1.1,0,0,1-1.1,1.1h-5.1a1,1,0,0,1-1.1-1.1V193h-2.7a1,1,0,0,1-1.1-1.1v-4.6a1.1,1.1,0,0,1,1.1-1.1h2.7v-1.6Z"/><path class="8f94f158-37d3-431c-aa24-0476b4f845ff" d="M306.9,197.1a10.9,10.9,0,1,1,21.8,0A10.9,10.9,0,0,1,306.9,197.1Zm14.5,0.1a3.8,3.8,0,0,0-3.7-4.1c-1.9,0-3.5,1.7-3.5,4.1a3.8,3.8,0,0,0,3.5,4.1A3.9,3.9,0,0,0,321.4,197.1Z"/><path class="8f94f158-37d3-431c-aa24-0476b4f845ff" d="M344.4,193c-2.6,0-3.4,1.6-3.4,3.2v10a1.1,1.1,0,0,1-1.1,1.1h-5.1a1,1,0,0,1-1.1-1.1V187.5a1,1,0,0,1,1.1-1.1h3.7a1.1,1.1,0,0,1,1.1,1.1v0.9a6.4,6.4,0,0,1,4.7-2.2h2a1.1,1.1,0,0,1,1.1,1.1v4.6a1,1,0,0,1-1.1,1.1h-1.8Z"/><path class="8f94f158-37d3-431c-aa24-0476b4f845ff" d="M372.5,195.4c0-1.7-1-2.3-1.9-2.3a2.1,2.1,0,0,0-1.9,1.3,8,8,0,0,1,.1,1.1v10.8a1.1,1.1,0,0,1-1.1,1.1h-4.4a1,1,0,0,1-1.1-1.1V196c0-1.8-.9-3-1.9-3s-2,1.2-2,3v10.2a1.1,1.1,0,0,1-1.1,1.1H352a1,1,0,0,1-1.1-1.1V187.5a1,1,0,0,1,1.1-1.1h3.7a1.1,1.1,0,0,1,1.1,1.1v0.9a5.7,5.7,0,0,1,4.9-2.2,6.1,6.1,0,0,1,4.9,2.4,7.6,7.6,0,0,1,5.7-2.4c5,0,7.6,3.9,7.6,9v11a1.1,1.1,0,0,1-1.1,1.1h-5.1a1,1,0,0,1-1.1-1.1V195.4Z"/><path class="8f94f158-37d3-431c-aa24-0476b4f845ff" d="M396.8,205.2a7.1,7.1,0,0,1-5.3,2.4c-1.5,0-6.9-.6-6.9-6.9,0-4.1,2.9-5.7,6.8-5.7a10,10,0,0,1,4.1.8c-0.5-2.1-1.4-2.6-3.3-2.6a13.4,13.4,0,0,0-3.2.3h-0.6a1.5,1.5,0,0,1-1.4-.7l-1.1-3.2a3.5,3.5,0,0,1-.1-0.8,1.3,1.3,0,0,1,.6-1.2,15.7,15.7,0,0,1,6.7-1.3c6.8,0,9.8,3.7,9.8,9.6v10.5a1.1,1.1,0,0,1-1.1,1.1h-3.1a1.3,1.3,0,0,1-1.5-1Zm-1.3-4.1v-1.3a2.9,2.9,0,0,0-1.9-.7c-1.5,0-2.3.4-2.3,1.3s0.9,1.4,2.3,1.4A3.4,3.4,0,0,0,395.5,201.1Z"/><path class="8f94f158-37d3-431c-aa24-0476b4f845ff" d="M30.8,231.8c-2.6,0-3.4,1.6-3.4,3.2v10a1.1,1.1,0,0,1-1.1,1.1H21.2a1,1,0,0,1-1.1-1.1V226.3a1,1,0,0,1,1.1-1.1h3.7a1.1,1.1,0,0,1,1.1,1.1v0.9a6.4,6.4,0,0,1,4.7-2.2h2a1.1,1.1,0,0,1,1.1,1.1v4.6a1,1,0,0,1-1.1,1.1H30.8Z"/><path class="8f94f158-37d3-431c-aa24-0476b4f845ff" d="M40.3,214.8a4.1,4.1,0,1,1-4.1,4.1A4.1,4.1,0,0,1,40.3,214.8ZM43.9,245a1.1,1.1,0,0,1-1.1,1.1H37.7a1,1,0,0,1-1.1-1.1V226.3a1,1,0,0,1,1.1-1.1h5.1a1.1,1.1,0,0,1,1.1,1.1V245Z"/><path class="8f94f158-37d3-431c-aa24-0476b4f845ff" d="M69.3,236.7a1.1,1.1,0,0,1-1.1,1.1H56.5c0.4,2.3,2.8,2.6,4.1,2.6a10.8,10.8,0,0,0,5-.9h0.3a0.9,0.9,0,0,1,.7.4l1.4,2.4a1.2,1.2,0,0,1,.3.7,1.6,1.6,0,0,1-.3.9c-1.4,1.9-4.6,2.6-7.3,2.6-5.9,0-11.6-2.9-11.6-10.9,0-5.8,3-10.5,10.2-10.5s10.1,3.3,10.1,10v1.7Zm-12.9-2.9H62a2.5,2.5,0,0,0-2.7-2.4A2.6,2.6,0,0,0,56.4,233.8Z"/><path class="8f94f158-37d3-431c-aa24-0476b4f845ff" d="M81.2,240.3c0.8,0,1.8-.1,1.8-0.7s-10-2-10-8.1c0-4.5,4.1-6.6,8.9-6.6a18.3,18.3,0,0,1,6.3,1.3,0.9,0.9,0,0,1,.6,1.2L88,231.1c-0.1.4-.3,0.6-1.1,0.6a21.1,21.1,0,0,0-3.9-.6c-1.9,0-2.5.1-2.5,0.8s9.9,2.8,9.9,7.8-4.9,6.6-9.1,6.6a14.2,14.2,0,0,1-7.8-2.2,1.2,1.2,0,0,1-.5-0.9,29.3,29.3,0,0,1,1-3.7,1.1,1.1,0,0,1,.9-0.7h0.5A15.3,15.3,0,0,0,81.2,240.3Z"/><path class="8f94f158-37d3-431c-aa24-0476b4f845ff" d="M104.8,250.1c2.6,0,3.2-1.2,3.2-3v-1.6a8.7,8.7,0,0,1-4.4.9c-5.5,0-9.7-5-9.7-10.8s4.2-10.6,10-10.6a10.3,10.3,0,0,1,6.1,1.8v-0.5a1.3,1.3,0,0,1,1.5-1h2.7a1.1,1.1,0,0,1,1.1,1.1v19.9c0,7.5-5.3,10.2-10,10.2s-6.4-.8-8.7-2.8a1.3,1.3,0,0,1-.4-0.9,1.6,1.6,0,0,1,.2-0.7l1.8-3.1a1,1,0,0,1,.8-0.4,1.5,1.5,0,0,1,.8.2A7.8,7.8,0,0,0,104.8,250.1Zm3.2-14.5a3.5,3.5,0,0,0-3.4-3.8c-1.9,0-3.3,1.5-3.3,3.8s1.5,4.4,3.3,4.4S107.9,238.4,107.9,235.6Z"/><path class="8f94f158-37d3-431c-aa24-0476b4f845ff" d="M120.2,235.8a10.9,10.9,0,1,1,21.8,0A10.9,10.9,0,0,1,120.2,235.8Zm14.5,0.1a3.8,3.8,0,0,0-3.7-4.1c-1.9,0-3.5,1.7-3.5,4.1A3.8,3.8,0,0,0,131,240,3.9,3.9,0,0,0,134.7,235.9Z"/><path class="8f94f158-37d3-431c-aa24-0476b4f845ff" d="M153.9,240.3c0.8,0,1.8-.1,1.8-0.7s-10-2-10-8.1c0-4.5,4.1-6.6,8.9-6.6a18.3,18.3,0,0,1,6.3,1.3,0.9,0.9,0,0,1,.6,1.2l-0.9,3.7c-0.1.4-.3,0.6-1.1,0.6a21.1,21.1,0,0,0-3.9-.6c-1.9,0-2.5.1-2.5,0.8s9.9,2.8,9.9,7.8-4.9,6.6-9.1,6.6a14.2,14.2,0,0,1-7.8-2.2,1.2,1.2,0,0,1-.5-0.9,29.3,29.3,0,0,1,1-3.7,1.1,1.1,0,0,1,.9-0.7h0.5A15.3,15.3,0,0,0,153.9,240.3Z"/><path class="8f94f158-37d3-431c-aa24-0476b4f845ff" d="M179.1,243.9a7.1,7.1,0,0,1-5.3,2.4c-1.5,0-6.9-.6-6.9-6.9,0-4.1,2.9-5.7,6.8-5.7a10,10,0,0,1,4.1.8c-0.5-2.1-1.4-2.6-3.3-2.6a13.4,13.4,0,0,0-3.2.3h-0.6a1.5,1.5,0,0,1-1.4-.7l-1.1-3.2a3.6,3.6,0,0,1-.1-0.8,1.3,1.3,0,0,1,.6-1.2,15.7,15.7,0,0,1,6.7-1.3c6.8,0,9.8,3.7,9.8,9.6V245a1.1,1.1,0,0,1-1.1,1.1h-3.1a1.3,1.3,0,0,1-1.5-1Zm-1.3-4.1v-1.3a2.9,2.9,0,0,0-1.9-.7c-1.5,0-2.3.4-2.3,1.3s0.9,1.4,2.3,1.4A3.4,3.4,0,0,0,177.7,239.8Z"/><path class="8f94f158-37d3-431c-aa24-0476b4f845ff" d="M211,246c-0.8,0-.8-0.9-1.5-1.1a9.7,9.7,0,0,0-1.8,1,15.5,15.5,0,0,1-4.4.2c-0.7-.8-1.7-1.2-2.3-1.9s-0.2-2.3-.7-3.2a14.4,14.4,0,0,1,.3-2.4c0.3-.4.6-1.1,0.9-1.5a0.5,0.5,0,0,0,.4-0.3c1.4-.7,2.6-0.7,4.6-1a7.2,7.2,0,0,0,2.5,1.4c1.2-.4.1-1.8,0.3-2.9a4.8,4.8,0,0,0-1.1-1.9c-0.7-.1-1.1-0.4-1.8-0.6s-3,.7-4.1.4a2,2,0,0,1-.6-1.6c0.4-.6,1.5-0.5,2.1-1a30.4,30.4,0,0,1,3.3,0,6,6,0,0,0,2.5.9c1.1,1.6,2.4,3.6,2,6.4,0,0.5.2,0.8,0.2,1.3s-0.2,3.2-.3,4.9a13.3,13.3,0,0,1,.3,2,1.8,1.8,0,0,1-1.1,1h0Zm-6.7-7.7-1.4,1.1c0.2,0.3-.2.3-0.3,0.6s0.3,3.1,1.1,3.4a3.3,3.3,0,0,0,2.9.4,3.1,3.1,0,0,1,1.1-.3c0.9-.8,2-1,2.2-2.6a11.8,11.8,0,0,0-1.7-2.3c-1-.2-1.6-0.5-2.5-0.7l-0.2.2h-1.2Z"/><path class="8f94f158-37d3-431c-aa24-0476b4f845ff" d="M220.4,223.2c-0.1,7.3-.5,14.3.4,23.2-0.8-.3-2-0.2-2.3-0.7s-0.2-1-.4-1.7a11.9,11.9,0,0,1,0-1.7c-0.4-3.7.6-8.1,0.2-11.7a19.2,19.2,0,0,1,.2-7.6,2.8,2.8,0,0,1,1.8.1h0Z"/><path class="8f94f158-37d3-431c-aa24-0476b4f845ff" d="M253,246c-0.5.3-1.1-.1-1.7-0.1s0.1-1-.2-1.1,0.1-.9.1-1.3,0.2-2.5-.3-3.1a3.4,3.4,0,0,0,.3-1.2,19.2,19.2,0,0,1,0-5.5,3.2,3.2,0,0,0-3.8-1.5,2.6,2.6,0,0,0-1.5,1.4,20.8,20.8,0,0,0-.4,3.3,43.2,43.2,0,0,1-.3,6.2c0.3,1.1.7,3-.9,3a1.4,1.4,0,0,1-1.1-1.2,4.4,4.4,0,0,1,.1-0.9,14.5,14.5,0,0,1,0-1.9,7,7,0,0,1-.2-0.9c0-.6.2-1.1,0.2-2.2a7.8,7.8,0,0,1-.1-3.2c-0.4-.6-0.2-1.6-0.5-2.4a1.9,1.9,0,0,1-.4-0.8,11.6,11.6,0,0,0-1.8-.8,16.6,16.6,0,0,1-2,.6,9.5,9.5,0,0,0-1.4,4,20.5,20.5,0,0,1,.2,6.7,6.8,6.8,0,0,1-.3,2.9,4.3,4.3,0,0,1-1.7-.2c-0.7-1-.1-2.1-0.3-3.4a3.3,3.3,0,0,0-.1-1.1c0.1-2.6-.1-6,0.6-8.9-0.7-.9-0.5-2.5.2-2.6s1,0.9,1.5,1.5,0.8-.8,1.3-1.1a4.5,4.5,0,0,1,1.4-.8l2.2,0.2a16.9,16.9,0,0,0,2.3,1.8,6.9,6.9,0,0,0,1.5-1.1l2.8-1H249c0.7,0.4,1.7.5,2.4,1a1.1,1.1,0,0,1,.7.8,2.8,2.8,0,0,1,.7.7c0.4,1.1.2,2.1,0.7,3.1-0.2,2.9.1,5.9,0,8.9a4.2,4.2,0,0,1-.4,2.2h0Z"/><path class="8f94f158-37d3-431c-aa24-0476b4f845ff" d="M270.5,238.9c-2.6.4-5.9-.1-8.4,0.2-0.6.1-1.5,0-1.9,0.3,0.4,3.1,2,5.3,5.5,5,1.3-.4,2.2-1.5,3.2-0.7s-0.9,1.9-2.3,2.4-1.9.1-2.7,0-2.3-.7-3.3-1a14.2,14.2,0,0,0-1.8-1.8,8.2,8.2,0,0,0-.3-1.2,10,10,0,0,1-.6-2.2,37.1,37.1,0,0,1,.2-5.6c0.3-.8.4-1.3,0.7-2s1.1-1.1,1.5-1.8l1.8-.7c1-.2,2.8.3,3.8-0.2a9.2,9.2,0,0,0,2,.7,15.3,15.3,0,0,1,2.3,2.6,1.9,1.9,0,0,0,.3,1.5,2,2,0,0,0,.3,1.5c-0.3.8,0.4,2.3-.4,2.9h0Zm-2.5-4.8a6.7,6.7,0,0,0-1.4-1.8,7.1,7.1,0,0,0-4.1,0c-0.7,0-1,.7-1.6,1.1s-1.3,2.7-.1,3.7,0.3-.1.3,0a8.6,8.6,0,0,0,2.3-.4,2.6,2.6,0,0,0,2.3,0,2.6,2.6,0,0,0,2.8-.1,3.2,3.2,0,0,0-.3-2.6H268Z"/><path class="8f94f158-37d3-431c-aa24-0476b4f845ff" d="M288.3,245.7a7.1,7.1,0,0,1-1.9.2c-0.4-1.3-.2-2.7,0-4.3s-0.4-3-.2-4.8a9.6,9.6,0,0,0-.4-3.1,2.6,2.6,0,0,0-.1-0.4c-0.7-1-1.7-1.1-2.6-1.7a5.8,5.8,0,0,0-4.3,2.1c-0.1.8-.6,1.4-0.7,2.4a9,9,0,0,1-.1,3.5l0.3,1.2c-0.2,1.4-.3,3.2-0.3,4.6a2,2,0,0,1-1.7.4,4.2,4.2,0,0,1-.3-3.1c-0.1-.6-0.1-1.1-0.2-1.7s0.2-2.3.2-3.6a0.4,0.4,0,0,0,0-.4c0.1-2.2-.1-3.8.2-6a1.1,1.1,0,0,1,.2-1.2c1.5-.4,1.2,1.1,2.1,1.5a14.6,14.6,0,0,0,2-1.5,4.9,4.9,0,0,0,1.9-.4c0.5,0.3,1-.1,1.5,0a5.1,5.1,0,0,1,3.8,2.1,2.2,2.2,0,0,0,.5,1.3c-0.2.6,0.3,1.1,0.2,1.8a9.1,9.1,0,0,1-.1,1,27.2,27.2,0,0,1,.2,3.5,10.3,10.3,0,0,0,.2,3.5c-0.3,1.3.4,2.1-.2,3.1h0Z"/><path class="8f94f158-37d3-431c-aa24-0476b4f845ff" d="M299.3,229.6l0.2-.2c1.1,0.1,1.6.7,2.8,0.5s2.4,2.4,3.2,3.4,0.2,2,.9,2.8a2.6,2.6,0,0,0,.2,1.8,3.1,3.1,0,0,0,0,1.2c0,1-.7,1.7-0.7,2.8a9,9,0,0,0-1.3,2.1,10.8,10.8,0,0,1-2.5,1.7,7.9,7.9,0,0,1-4.6.1c-0.9-.4-1.7-0.9-2.6-1.4a2.3,2.3,0,0,0-.9-1.3c-0.1-.9-0.7-1.3-0.8-2.1s-0.2-1.4-.4-2.1,0.4-3,.3-4.5a4.9,4.9,0,0,0,1.3-2.1,4.1,4.1,0,0,0,1.2-1.5,25.1,25.1,0,0,1,3.8-1.2h0Zm-1.6,2.6a14.5,14.5,0,0,0-1.7,1.5c-0.9,1.8-.9,3.8-0.8,6.4a7.5,7.5,0,0,0,2.1,3.4,9.6,9.6,0,0,0,3.5.7,12.1,12.1,0,0,1,1.8-1.1l0.5-.8,0.3-.2c0.1-.2,0-0.5.1-0.9l0.4-.5a14.4,14.4,0,0,1,.4-2.5c-0.2-.8-0.1-1.8-0.3-2.7a15.3,15.3,0,0,1-1-2.3,16,16,0,0,0-2.5-1.3,13.2,13.2,0,0,0-1.5.1,5.8,5.8,0,0,0-1.4.2h0Z"/><path class="8f94f158-37d3-431c-aa24-0476b4f845ff" d="M316.2,231.9a4.4,4.4,0,0,0-2.9.9,11.4,11.4,0,0,0-.3,1.5,3.3,3.3,0,0,0,1.8,1.9,15.7,15.7,0,0,0,2.5,1.1,3.8,3.8,0,0,0,2,1.1,3.7,3.7,0,0,0,.9,1.3c0.3,0.5.4,0.9,0.7,1.4a4.1,4.1,0,0,1-.7,3.3,5.2,5.2,0,0,1-1.3,1.2c-0.7.4-2,.4-2.9,0.7s-4.5-.1-5.3-1.8,0.5-.7.7-1.1,3.7,1.3,5.7.8a3.1,3.1,0,0,0,1.5-2.1c0-1.5-1.4-2.1-2.3-2.8a11.6,11.6,0,0,0-2.4-.9,10.2,10.2,0,0,1-2.5-1.9,10.5,10.5,0,0,1-.8-2c0-1,.3-1.5.2-2.6l1.2-1.5,1.8-.7a14.8,14.8,0,0,1,3.8.1c0.3,0.3,1.3,0,1.5.7S317.3,232,316.2,231.9Z"/><path class="8f94f158-37d3-431c-aa24-0476b4f845ff" d="M349.6,246.1a1.3,1.3,0,0,1-1.5-1l-0.3-1.1c-1.4,2-3.8,2.4-5.5,2.4-6,0-8.7-4.5-8.7-9.5V226.3a1,1,0,0,1,1.1-1.1h5.1a1.1,1.1,0,0,1,1.1,1.1v10.4c0,1.8.2,3.3,2.7,3.3s2.4-1.5,2.4-3.3V226.3a1,1,0,0,1,1.1-1.1h5.1a1.1,1.1,0,0,1,1.1,1.1V245a1.1,1.1,0,0,1-1.1,1.1h-2.7Z"/><path class="8f94f158-37d3-431c-aa24-0476b4f845ff" d="M363.9,225.2a1.3,1.3,0,0,1,1.5,1l0.3,1.1c1.4-2,4.1-2.4,5.9-2.4,6,0,8.3,4.5,8.3,9.5V245a1,1,0,0,1-1.1,1.1h-5.1a1.1,1.1,0,0,1-1.1-1.1v-9.9c0-1.8-.2-3.3-2.7-3.3s-2.4,1.5-2.4,3.3V245a1,1,0,0,1-1.1,1.1h-5.1a1.1,1.1,0,0,1-1.1-1.1V226.3a1.1,1.1,0,0,1,1.1-1.1h2.7Z"/><path class="8f94f158-37d3-431c-aa24-0476b4f845ff" d="M396.8,243.9a7.1,7.1,0,0,1-5.3,2.4c-1.5,0-6.9-.6-6.9-6.9,0-4.1,2.9-5.7,6.8-5.7a10,10,0,0,1,4.1.8c-0.5-2.1-1.4-2.6-3.3-2.6a13.4,13.4,0,0,0-3.2.3h-0.6a1.5,1.5,0,0,1-1.4-.7l-1.1-3.2a3.6,3.6,0,0,1-.1-0.8,1.3,1.3,0,0,1,.6-1.2,15.7,15.7,0,0,1,6.7-1.3c6.8,0,9.8,3.7,9.8,9.6V245a1.1,1.1,0,0,1-1.1,1.1h-3.1a1.3,1.3,0,0,1-1.5-1Zm-1.3-4.1v-1.3a2.9,2.9,0,0,0-1.9-.7c-1.5,0-2.3.4-2.3,1.3s0.9,1.4,2.3,1.4A3.4,3.4,0,0,0,395.5,239.8Z"/><path class="8f94f158-37d3-431c-aa24-0476b4f845ff" d="M209.2,284.3l-9.5-19a1.2,1.2,0,0,1,1.3-1.4h4.9a1.7,1.7,0,0,1,1.7,1.1l3.2,7.4,3.2-7.4a1.7,1.7,0,0,1,1.7-1.1h4.9a1.2,1.2,0,0,1,1.3,1.4l-9.5,19A1.9,1.9,0,0,1,209.2,284.3Z"/><path class="8f94f158-37d3-431c-aa24-0476b4f845ff" d="M244.1,275.4a1.1,1.1,0,0,1-1.1,1.1H231.2c0.4,2.3,2.8,2.6,4.1,2.6a10.8,10.8,0,0,0,5-.9h0.3a0.9,0.9,0,0,1,.7.4l1.4,2.4a1.2,1.2,0,0,1,.3.7,1.6,1.6,0,0,1-.3.9c-1.4,1.9-4.6,2.6-7.3,2.6-5.9,0-11.6-2.9-11.6-10.9,0-5.8,3-10.5,10.2-10.5s10.1,3.3,10.1,10v1.7Zm-12.9-2.9h5.6a2.5,2.5,0,0,0-2.7-2.4A2.6,2.6,0,0,0,231.1,272.5Z"/><path class="8f94f158-37d3-431c-aa24-0476b4f845ff" d="M254.7,270.7h-6.2a1,1,0,0,1-1.1-1.1V265a1.1,1.1,0,0,1,1.1-1.1h16.4a1,1,0,0,1,1,1,0.7,0.7,0,0,1-.1.5l-6.9,12.7h6a1.1,1.1,0,0,1,1.1,1.1v4.5a1,1,0,0,1-1.1,1.1H248.6a1,1,0,0,1-1-1,0.7,0.7,0,0,1,.1-0.5Z"/><path class="8f94f158-37d3-431c-aa24-0476b4f845ff" d="M292.3,282.7a7.1,7.1,0,0,1-5.3,2.4c-1.5,0-6.9-.6-6.9-6.9,0-4.1,2.9-5.7,6.8-5.7a10,10,0,0,1,4.1.8c-0.5-2.1-1.4-2.6-3.3-2.6a13.4,13.4,0,0,0-3.2.3h-0.6a1.5,1.5,0,0,1-1.4-.7l-1.1-3.2a3.5,3.5,0,0,1-.1-0.8,1.3,1.3,0,0,1,.6-1.2,15.7,15.7,0,0,1,6.7-1.3c6.8,0,9.8,3.7,9.8,9.6v10.5a1.1,1.1,0,0,1-1.1,1.1h-3.1a1.3,1.3,0,0,1-1.5-1Zm-1.3-4.1v-1.3a2.9,2.9,0,0,0-1.9-.7c-1.5,0-2.3.4-2.3,1.3s0.9,1.4,2.3,1.4A3.4,3.4,0,0,0,291,278.6Z"/><path class="8f94f158-37d3-431c-aa24-0476b4f845ff" d="M312.2,283.7a1.1,1.1,0,0,1-1.1,1.1H306a1,1,0,0,1-1.1-1.1V256.3a1,1,0,0,1,1.1-1.1h5.1a1.1,1.1,0,0,1,1.1,1.1v27.5Z"/><path class="8f94f158-37d3-431c-aa24-0476b4f845ff" d="M350.9,272.9c0-1.7-1-2.3-1.9-2.3a2.1,2.1,0,0,0-1.9,1.3,8.2,8.2,0,0,1,.1,1.1v10.8a1.1,1.1,0,0,1-1.1,1.1h-4.4a1,1,0,0,1-1.1-1.1V273.6c0-1.8-.9-3-1.9-3s-2,1.2-2,3v10.2a1.1,1.1,0,0,1-1.1,1.1h-5.1a1,1,0,0,1-1.1-1.1V265a1,1,0,0,1,1.1-1.1h3.7a1.1,1.1,0,0,1,1.1,1.1v0.9a5.7,5.7,0,0,1,4.9-2.2,6.1,6.1,0,0,1,4.9,2.4,7.6,7.6,0,0,1,5.7-2.4c5,0,7.6,3.9,7.6,9v11a1.1,1.1,0,0,1-1.1,1.1H352a1,1,0,0,1-1.1-1.1V272.9Z"/><path class="8f94f158-37d3-431c-aa24-0476b4f845ff" d="M383,275.4a1.1,1.1,0,0,1-1.1,1.1H370.2c0.4,2.3,2.8,2.6,4.1,2.6a10.8,10.8,0,0,0,5-.9h0.3a0.9,0.9,0,0,1,.7.4l1.4,2.4a1.2,1.2,0,0,1,.3.7,1.6,1.6,0,0,1-.3.9c-1.4,1.9-4.6,2.6-7.3,2.6-5.9,0-11.6-2.9-11.6-10.9,0-5.8,3-10.5,10.2-10.5s10.1,3.3,10.1,10v1.7Zm-12.9-2.9h5.6a2.5,2.5,0,0,0-2.7-2.4A2.6,2.6,0,0,0,370.1,272.5Z"/><path class="8f94f158-37d3-431c-aa24-0476b4f845ff" d="M394.9,279.1c0.8,0,1.8-.1,1.8-0.7s-10-2-10-8.1c0-4.5,4.1-6.6,8.9-6.6A18.3,18.3,0,0,1,402,265a1.6,1.6,0,0,1,.6.7,1.6,1.6,0,0,1-.1.5l-0.9,3.7c-0.1.4-.3,0.6-1.1,0.6a21.1,21.1,0,0,0-3.9-.6c-1.9,0-2.5.1-2.5,0.8s9.9,2.8,9.9,7.8-4.9,6.6-9.1,6.6a14.2,14.2,0,0,1-7.8-2.2,1.2,1.2,0,0,1-.5-0.9,29.3,29.3,0,0,1,1-3.7,1.1,1.1,0,0,1,.9-0.7h0.5A15.3,15.3,0,0,0,394.9,279.1Z"/><path class="8f94f158-37d3-431c-aa24-0476b4f845ff" d="M149.6,26c0.9,0.1.9-.9,1.5-1.1a5.4,5.4,0,0,0,1-1.7c0.5-.4.8-1,1.3-1.3a19.4,19.4,0,0,1,2.7-4,8.4,8.4,0,0,1,1.5-2c0.4-.7.5-1.7,1.7-1.7a10.4,10.4,0,0,1-.2,2.3,20.7,20.7,0,0,1,0,3.9,18.9,18.9,0,0,1,.1,4.2,21.7,21.7,0,0,1-.2,3.5,26.4,26.4,0,0,1,.2,3.1,20.6,20.6,0,0,1-.1,3.2c0,0.8.4,1.6-.3,2.2h-1.2c-0.9-.4-0.5-1.6-0.6-2.7s0.1-2.9.1-4.4a1.8,1.8,0,0,1,.2-1.3,2.7,2.7,0,0,1-.3-1.2c0-1,0-2.1,0-3.1a4.4,4.4,0,0,0-.3-2.4c-0.8.1-1.1,0.9-1.5,1.3a7.6,7.6,0,0,0-1.1,1.7c-1.1.9-1.3,2.2-2.4,3.2a11.6,11.6,0,0,1-2,2.5c-0.9-.4-1.2-1.5-2-2.1s-1.1-1.3-1.7-2.3-1.2-1.2-1.7-2.2a3.4,3.4,0,0,0-1.8-2c-0.8.8-.2,2-0.3,3.2s-0.7,5.1.2,7.7a1.5,1.5,0,0,0-.4,1c-0.2,1.1.4,2.2,0,2.9s-1.5.3-1.9,0.2-0.2-2.2,0-3.3a46,46,0,0,1-.1-9.5,1.9,1.9,0,0,1,0-1.5,77.2,77.2,0,0,0,.1-8.1c-0.3.1,0,.1,0-0.1h0.3c0.7,0,.4.9,0.9,1.3l1,1.1c0.1,0.7.7,0.7,0.8,1.4a10.6,10.6,0,0,1,.9,1.2,26.8,26.8,0,0,0,2.9,3.5c0.5,0.4.5,1.5,1.3,1.9s0.5,1.4,1.5,1.4h0Z"/><path class="8f94f158-37d3-431c-aa24-0476b4f845ff" d="M174.8,36.7c-0.8,0-.8-0.9-1.5-1.1a9.7,9.7,0,0,0-1.8,1,15.6,15.6,0,0,1-4.4.2c-0.7-.8-1.7-1.2-2.3-1.9s-0.2-2.3-.7-3.2a14.4,14.4,0,0,1,.3-2.4c0.3-.4.6-1.1,0.9-1.5a0.5,0.5,0,0,0,.4-0.3c1.4-.7,2.6-0.7,4.6-1A7.2,7.2,0,0,0,173,28c1.2-.4.1-1.8,0.3-2.9a4.8,4.8,0,0,0-1.1-1.9c-0.7-.1-1.1-0.4-1.8-0.6s-3,.7-4.1.4a2,2,0,0,1-.6-1.6c0.4-.6,1.5-0.5,2.1-1a30.4,30.4,0,0,1,3.3,0,6,6,0,0,0,2.5.9c1.1,1.6,2.4,3.6,2,6.4,0,0.5.2,0.8,0.2,1.3s-0.2,3.2-.3,4.9a13.3,13.3,0,0,1,.3,2,1.8,1.8,0,0,1-1.1,1h0Zm-6.7-7.7-1.4,1.1c0.2,0.3-.2.3-0.3,0.6s0.3,3.1,1.1,3.4a3.3,3.3,0,0,0,2.9.4,3.1,3.1,0,0,1,1.1-.3c0.9-.8,2-1,2.2-2.6a11.8,11.8,0,0,0-1.7-2.3c-1-.2-1.6-0.5-2.5-0.7l-0.2.2h-1.2Zm6.2-16.5c0,1.3-1.2,1.6-1.5,2.7s-0.9,1.8-1.7,2.2a1.3,1.3,0,0,1-1.2-.6c0.6-1.5,1.3-2.8,2-4.4s1.8,0,2.5.1h0Z"/><path class="8f94f158-37d3-431c-aa24-0476b4f845ff" d="M186.7,22.7a4.4,4.4,0,0,0-2.9.9,11.3,11.3,0,0,0-.3,1.5,3.3,3.3,0,0,0,1.8,1.9,15.8,15.8,0,0,0,2.5,1.1,3.8,3.8,0,0,0,2,1.1,3.7,3.7,0,0,0,.9,1.3c0.3,0.5.4,0.9,0.7,1.4a4.1,4.1,0,0,1-.7,3.3,5.1,5.1,0,0,1-1.3,1.2c-0.7.4-2,.4-2.9,0.7s-4.5-.1-5.3-1.8,0.5-.7.7-1.1,3.7,1.3,5.7.8a3.1,3.1,0,0,0,1.5-2.1c0-1.5-1.4-2.1-2.3-2.8a11.6,11.6,0,0,0-2.4-.9,10.2,10.2,0,0,1-2.5-1.9,10.4,10.4,0,0,1-.8-2c0-1,.3-1.5.2-2.6l1.2-1.5,1.8-.7a14.8,14.8,0,0,1,3.8.1c0.3,0.3,1.3,0,1.5.7S187.9,22.8,186.7,22.7Z"/><path class="8f94f158-37d3-431c-aa24-0476b4f845ff" d="M216.2,17c0,1,.1,2.4.2,3.3a37.4,37.4,0,0,1-.3,4,24.9,24.9,0,0,1,.2,3.2c-0.1,1.1,0,2.1-.1,3.2s0.1,1.3.1,1.9-0.1,1.2-.1,1.9,0.5,1.7-.5,2.5-1.2-.9-1.6-1.8a3.5,3.5,0,0,0-1.7.8c-0.1.5-1,.5-1.3,0.9a10.7,10.7,0,0,1-4.1-.2,12.7,12.7,0,0,1-2.1-1.2,3.2,3.2,0,0,0-.8-0.9c-1-1.6-1.1-4.2-1.3-6.6a8.3,8.3,0,0,0,.5-2.8c0.7-1.5,1.1-2.8,2.4-3.9a4.2,4.2,0,0,0,1.5-.8,2.7,2.7,0,0,0,1.5-.2l2.9,0.4c0.7,0.3,1.1,1.3,2.2.9s0-1.2.1-2,0.3-4.3.5-5.3a1.1,1.1,0,0,1,1.5-.5C216.6,14.9,216.1,15.8,216.2,17Zm-9.1,6.2a7.6,7.6,0,0,0-1.7,2.6c0.3,1.6-.4,2.6-0.2,4a11.3,11.3,0,0,1,.5,2.8c0.5,0.4.7,1.1,1,1.5s1,0.6,1.7.7a7.1,7.1,0,0,0,4.3-1.1,12,12,0,0,0,1.5-3.9c-0.3-1.1,0-2.3-.3-3.5a4.5,4.5,0,0,0-.8-2,4.8,4.8,0,0,0-2.8-1.5c-0.6-.2-1.1.2-1.7-0.1s-0.1,0-.1.2-0.7.4-1.3,0.4h0Z"/><path class="8f94f158-37d3-431c-aa24-0476b4f845ff" d="M234,29.6c-2.6.4-5.9-.1-8.4,0.2-0.6.1-1.5,0-1.9,0.3,0.4,3.1,2,5.3,5.5,5,1.3-.4,2.2-1.5,3.2-0.7s-0.9,1.9-2.3,2.4-1.9.1-2.7,0-2.3-.7-3.3-1a14.2,14.2,0,0,0-1.8-1.8,8.2,8.2,0,0,0-.3-1.2,10,10,0,0,1-.6-2.2,37.1,37.1,0,0,1,.2-5.6c0.3-.8.4-1.3,0.7-2s1.1-1.1,1.5-1.8l1.8-.7c1-.2,2.8.3,3.8-0.2a9.2,9.2,0,0,0,2,.7,15.3,15.3,0,0,1,2.3,2.6,1.9,1.9,0,0,0,.3,1.5,2,2,0,0,0,.3,1.5c-0.3.8,0.4,2.3-.4,2.9h0Zm-2.5-4.8a6.7,6.7,0,0,0-1.4-1.8,7.1,7.1,0,0,0-4.1,0c-0.7,0-1,.7-1.6,1.1s-1.3,2.7-.1,3.7,0.3-.1.3,0a8.6,8.6,0,0,0,2.3-.4,2.6,2.6,0,0,0,2.3,0,2.6,2.6,0,0,0,2.8-.1,3.2,3.2,0,0,0-.3-2.6h-0.1Z"/><path class="8f94f158-37d3-431c-aa24-0476b4f845ff" d="M241.4,14c-0.1,7.3-.5,14.3.4,23.2-0.8-.3-2-0.2-2.3-0.7s-0.2-1-.4-1.7a11.8,11.8,0,0,1,0-1.7c-0.4-3.7.6-8.1,0.2-11.7a19.2,19.2,0,0,1,.2-7.6,2.8,2.8,0,0,1,1.8.1h0Z"/></svg>