<svg id="14f5a16e-e460-4895-9c3d-19a648193bc3" data-name="Capa 1" xmlns="http://www.w3.org/2000/svg" viewBox="0 0 442.5 252"><defs><style>.c208ff35-a046-49a1-a56b-883ac0af9e5c{fill:#fff;}.\32 b4eed60-9f32-49d3-98b4-1511abf8dcf5{fill:#d18b2b;}</style></defs><title>img08</title><path class="c208ff35-a046-49a1-a56b-883ac0af9e5c" d="M45.1,196.2a6.7,6.7,0,0,1-5.7,2.4c-5.5,0-9.7-5-9.7-10.8s4.4-10.6,9.1-10.6a8,8,0,0,1,5,1.4v-8.8a1.1,1.1,0,0,1,1.1-1.1H50a1,1,0,0,1,1.1,1.1v27.5a1.1,1.1,0,0,1-1.1,1.1H46.9a1.3,1.3,0,0,1-1.5-1Zm-1.3-8.4a3.4,3.4,0,1,0-6.8,0c0,2.6,1.5,4.4,3.3,4.4S43.8,190.5,43.8,187.8Z"/><path class="c208ff35-a046-49a1-a56b-883ac0af9e5c" d="M76.4,188.9a1.1,1.1,0,0,1-1.1,1.1H63.5c0.4,2.3,2.8,2.6,4.1,2.6a10.8,10.8,0,0,0,5-.9h0.3a0.9,0.9,0,0,1,.7.4l1.4,2.4a1.3,1.3,0,0,1,.3.7,1.6,1.6,0,0,1-.3.9c-1.4,1.9-4.6,2.6-7.3,2.6-5.9,0-11.6-2.9-11.6-10.9,0-5.8,3-10.5,10.2-10.5s10.1,3.3,10.1,10v1.7ZM63.5,186h5.6a2.5,2.5,0,0,0-2.7-2.4A2.6,2.6,0,0,0,63.5,186Z"/><path class="c208ff35-a046-49a1-a56b-883ac0af9e5c" d="M91.7,185.1V169.8a1,1,0,0,1,1.1-1.1H98a1.1,1.1,0,0,1,1.1,1.1v15.6c0,4.9,1.5,6.8,5.4,6.8s5.4-1.9,5.4-6.8V169.8a1.1,1.1,0,0,1,1.1-1.1H116a1,1,0,0,1,1.1,1.1v15.4c0,8.2-4.2,13.5-12.7,13.5S91.7,193.3,91.7,185.1Z"/><path class="c208ff35-a046-49a1-a56b-883ac0af9e5c" d="M123.1,194.8a0.9,0.9,0,0,1,.1-0.5L125,191a1.1,1.1,0,0,1,1-.6h0.6a14.9,14.9,0,0,0,7.2,1.7c1.7,0,4.1-.7,4.1-2,0-3.6-14.5-3.1-14.5-13,0-5.5,3.9-8.9,10.8-8.9a25.7,25.7,0,0,1,8.9,2,1.5,1.5,0,0,1,.6.9,2.4,2.4,0,0,1-.1.6l-1.7,3.9a1.5,1.5,0,0,1-1.1.7l-0.6-.2a30.5,30.5,0,0,0-6-1.1c-3.4,0-3.7,1.7-3.7,2,0,3.6,14.5,3.8,14.5,13,0,5.4-6.3,8.4-10.7,8.4a20.3,20.3,0,0,1-10.8-2.8A1.5,1.5,0,0,1,123.1,194.8Z"/><path class="c208ff35-a046-49a1-a56b-883ac0af9e5c" d="M164.8,198.2v3.6a1.1,1.1,0,0,1-1.1,1.1h-4.4a1.1,1.1,0,0,1-1.1-1.1v-3.4a19.6,19.6,0,0,1-7.1-2.6,1.5,1.5,0,0,1-.6-1,0.9,0.9,0,0,1,.1-0.5l1.8-3.3a1.1,1.1,0,0,1,1-.6h0.6a14.9,14.9,0,0,0,7.2,1.7c1.7,0,4.1-.7,4.1-2,0-3.6-14.5-3.1-14.5-13,0-4.6,2.7-7.7,7.5-8.6v-3.3a1.1,1.1,0,0,1,1.1-1.1h4.4a1.1,1.1,0,0,1,1.1,1.1v3.4a27.1,27.1,0,0,1,5.6,1.7,1.5,1.5,0,0,1,.6.9,2.3,2.3,0,0,1-.1.6l-1.7,3.9a1.5,1.5,0,0,1-1.1.7l-0.6-.2a30.5,30.5,0,0,0-6-1.1c-3.4,0-3.7,1.7-3.7,2,0,3.6,14.5,3.8,14.5,13C172.5,194.4,168.6,197.2,164.8,198.2Z"/><path class="c208ff35-a046-49a1-a56b-883ac0af9e5c" d="M178,194.5a0.7,0.7,0,0,1,.2-0.6l2-3.4a1,1,0,0,1,.7-0.3h0.5a16.5,16.5,0,0,0,6.3,1.8c3,0,4.1-1.7,4.1-4.1s-2.4-2.9-4.4-2.9a15,15,0,0,0-2.6.2,1,1,0,0,1-.9-0.9l4.2-8.8h-8.9a1,1,0,0,1-1.1-1.1v-4.9a1.1,1.1,0,0,1,1.1-1.1H198a1,1,0,0,1,1,1,1.5,1.5,0,0,1-.1.5l-5,10.2c3.7,1.3,5.1,4.1,5.1,7.8,0,6.1-3.6,10.5-11.5,10.5-2.8,0-7.4-1.4-9.4-3.3A1.1,1.1,0,0,1,178,194.5Z"/><path class="c208ff35-a046-49a1-a56b-883ac0af9e5c" d="M209,190.8a3.9,3.9,0,1,1-3.9,3.9A3.9,3.9,0,0,1,209,190.8Z"/><path class="c208ff35-a046-49a1-a56b-883ac0af9e5c" d="M218.4,183.5c0-8.4,4.9-15.2,13.3-15.2s13.3,6.8,13.3,15.2-4.9,15.2-13.3,15.2S218.4,191.8,218.4,183.5Zm19.2,0.2c0-4.5-1.6-8.4-6-8.4s-5.9,3.9-5.9,8.4,1.6,8.6,5.9,8.6S237.6,188.2,237.6,183.6Z"/><path class="c208ff35-a046-49a1-a56b-883ac0af9e5c" d="M249.1,183.5c0-8.4,4.9-15.2,13.3-15.2s13.3,6.8,13.3,15.2-4.9,15.2-13.3,15.2S249.1,191.8,249.1,183.5Zm19.2,0.2c0-4.5-1.6-8.4-6-8.4s-5.9,3.9-5.9,8.4,1.6,8.6,5.9,8.6S268.3,188.2,268.3,183.6Z"/><path class="c208ff35-a046-49a1-a56b-883ac0af9e5c" d="M279.8,183.5c0-8.4,4.9-15.2,13.3-15.2s13.3,6.8,13.3,15.2-4.9,15.2-13.3,15.2S279.8,191.8,279.8,183.5Zm19.2,0.2c0-4.5-1.6-8.4-6-8.4s-5.9,3.9-5.9,8.4,1.6,8.6,5.9,8.6S299.1,188.2,299.1,183.6Z"/><path class="c208ff35-a046-49a1-a56b-883ac0af9e5c" d="M315.8,190.8a3.9,3.9,0,1,1-3.9,3.9A3.9,3.9,0,0,1,315.8,190.8Z"/><path class="c208ff35-a046-49a1-a56b-883ac0af9e5c" d="M325.2,183.5c0-8.4,4.9-15.2,13.3-15.2s13.3,6.8,13.3,15.2-4.9,15.2-13.3,15.2S325.2,191.8,325.2,183.5Zm19.2,0.2c0-4.5-1.6-8.4-6-8.4s-5.9,3.9-5.9,8.4,1.6,8.6,5.9,8.6S344.4,188.2,344.4,183.6Z"/><path class="c208ff35-a046-49a1-a56b-883ac0af9e5c" d="M355.9,183.5c0-8.4,4.9-15.2,13.3-15.2s13.3,6.8,13.3,15.2-4.9,15.2-13.3,15.2S355.9,191.8,355.9,183.5Zm19.2,0.2c0-4.5-1.6-8.4-6-8.4s-5.9,3.9-5.9,8.4,1.6,8.6,5.9,8.6S375.1,188.2,375.1,183.6Z"/><path class="c208ff35-a046-49a1-a56b-883ac0af9e5c" d="M386.6,183.5c0-8.4,4.9-15.2,13.3-15.2s13.3,6.8,13.3,15.2-4.9,15.2-13.3,15.2S386.6,191.8,386.6,183.5Zm19.2,0.2c0-4.5-1.6-8.4-6-8.4s-5.9,3.9-5.9,8.4,1.6,8.6,5.9,8.6S405.9,188.2,405.9,183.6Z"/><path class="c208ff35-a046-49a1-a56b-883ac0af9e5c" d="M318.1,231.9c-0.8,0-.8-0.9-1.5-1.1a9.7,9.7,0,0,0-1.8,1,15.6,15.6,0,0,1-4.4.2c-0.7-.8-1.7-1.2-2.3-1.9s-0.2-2.3-.7-3.2a14.4,14.4,0,0,1,.3-2.4c0.3-.4.6-1.1,0.9-1.5a0.5,0.5,0,0,0,.4-0.3c1.4-.7,2.6-0.7,4.6-1a7.2,7.2,0,0,0,2.5,1.4c1.2-.4.1-1.8,0.3-2.9a4.8,4.8,0,0,0-1.1-1.9c-0.7-.1-1.1-0.4-1.8-0.6s-3,.7-4.1.4a2,2,0,0,1-.6-1.6c0.4-.6,1.5-0.5,2.1-1a30.1,30.1,0,0,1,3.3,0,6,6,0,0,0,2.5.9c1.1,1.6,2.4,3.6,2,6.4,0,0.5.2,0.8,0.2,1.3s-0.2,3.2-.3,4.9a13.4,13.4,0,0,1,.3,2,1.8,1.8,0,0,1-1.1,1h0Zm-6.7-7.7-1.4,1.1c0.2,0.3-.2.3-0.3,0.6s0.3,3.1,1.1,3.4a3.3,3.3,0,0,0,2.9.4,3.1,3.1,0,0,1,1.1-.3c0.9-.8,2-1,2.2-2.6a11.7,11.7,0,0,0-1.7-2.3c-1-.2-1.6-0.5-2.5-0.7l-0.2.2h-1.2Z"/><path class="c208ff35-a046-49a1-a56b-883ac0af9e5c" d="M338,231.6a7.1,7.1,0,0,1-1.9.2c-0.4-1.3-.2-2.7,0-4.3s-0.4-3-.2-4.8a9.6,9.6,0,0,0-.4-3.1,2.6,2.6,0,0,0-.1-0.4c-0.7-1-1.7-1.1-2.6-1.7a5.8,5.8,0,0,0-4.3,2.1c-0.1.8-.6,1.4-0.7,2.4a9,9,0,0,1-.1,3.5l0.3,1.2c-0.2,1.4-.3,3.2-0.3,4.6a2,2,0,0,1-1.7.4,4.2,4.2,0,0,1-.3-3.1c-0.1-.6-0.1-1.1-0.2-1.7s0.2-2.3.2-3.6a0.4,0.4,0,0,0,0-.4c0.1-2.2-.1-3.8.2-6a1.1,1.1,0,0,1,.2-1.2c1.5-.4,1.2,1.1,2.1,1.5a14.7,14.7,0,0,0,2-1.5,4.9,4.9,0,0,0,1.9-.4c0.5,0.3,1-.1,1.5,0a5.1,5.1,0,0,1,3.8,2.1,2.2,2.2,0,0,0,.5,1.3c-0.2.6,0.3,1.1,0.2,1.8a9.1,9.1,0,0,1-.1,1,27.2,27.2,0,0,1,.2,3.5,10.3,10.3,0,0,0,.2,3.5c-0.3,1.3.4,2.1-.2,3.1h0Z"/><path class="c208ff35-a046-49a1-a56b-883ac0af9e5c" d="M345.7,216c0.1,3.3-.2,6.6.2,10.1a9.2,9.2,0,0,0,.4,2.1c0.7,1.3,2.2,1.7,3.5,2s1.8-1.1,2.8-1.4a16.6,16.6,0,0,0,1.1-3,2.7,2.7,0,0,1,.3-2.1c0.1-2.1-.3-5.4-0.1-7.7,0.8-.4,1.8-0.4,2.2.2a52.1,52.1,0,0,1,0,8,11.4,11.4,0,0,1,0,2.3,34.6,34.6,0,0,1-.1,3.5c0.1,0.6.4,1.2-.1,1.7a1.7,1.7,0,0,1-1.5-.2c-0.4-.3-0.2-0.9-0.7-1.1s-0.9.6-1.6,0.9a19.6,19.6,0,0,0-2,.7c-1.8-.2-3.5,0-4.7-0.9s-1.4-2.4-2-4,0.2-.7.1-1.2a17.3,17.3,0,0,1,0-4.1,8.5,8.5,0,0,0-.3-0.9,3.9,3.9,0,0,1,.3-1.1,5.7,5.7,0,0,1-.2-2.2,3.1,3.1,0,0,1,.4-1.3,0.6,0.6,0,0,1,.4-0.4,1.9,1.9,0,0,1,1.5.2h0Z"/><path class="c208ff35-a046-49a1-a56b-883ac0af9e5c" d="M371.7,231.9c-0.8,0-.8-0.9-1.5-1.1a9.7,9.7,0,0,0-1.8,1,15.6,15.6,0,0,1-4.4.2c-0.7-.8-1.7-1.2-2.3-1.9s-0.2-2.3-.7-3.2a14.4,14.4,0,0,1,.3-2.4c0.3-.4.6-1.1,0.9-1.5a0.5,0.5,0,0,0,.4-0.3c1.4-.7,2.6-0.7,4.6-1a7.2,7.2,0,0,0,2.5,1.4c1.2-.4.1-1.8,0.3-2.9a4.8,4.8,0,0,0-1.1-1.9c-0.7-.1-1.1-0.4-1.8-0.6s-3,.7-4.1.4a2,2,0,0,1-.6-1.6c0.4-.6,1.5-0.5,2.1-1a30.1,30.1,0,0,1,3.3,0,6,6,0,0,0,2.5.9c1.1,1.6,2.4,3.6,2,6.4,0,0.5.2,0.8,0.2,1.3s-0.2,3.2-.3,4.9a13.4,13.4,0,0,1,.3,2,1.8,1.8,0,0,1-1.1,1h0Zm-6.7-7.7-1.4,1.1c0.2,0.3-.2.3-0.3,0.6s0.3,3.1,1.1,3.4a3.3,3.3,0,0,0,2.9.4,3.1,3.1,0,0,1,1.1-.3c0.9-.8,2-1,2.2-2.6a11.7,11.7,0,0,0-1.7-2.3c-1-.2-1.6-0.5-2.5-0.7l-0.2.2H365Z"/><path class="c208ff35-a046-49a1-a56b-883ac0af9e5c" d="M381.1,209.1c-0.1,7.3-.5,14.3.4,23.2-0.8-.3-2-0.2-2.3-0.7s-0.2-1-.4-1.7a11.9,11.9,0,0,1,0-1.7c-0.4-3.7.6-8.1,0.2-11.7a19.2,19.2,0,0,1,.2-7.6,2.8,2.8,0,0,1,1.8.1h0Z"/><path class="c208ff35-a046-49a1-a56b-883ac0af9e5c" d="M398.9,224.8c-2.6.4-5.9-.1-8.4,0.2-0.6.1-1.5,0-1.9,0.3,0.4,3.1,2,5.3,5.5,5,1.3-.4,2.2-1.5,3.2-0.7s-0.9,1.9-2.3,2.4-1.9.1-2.7,0-2.3-.7-3.3-1a14.1,14.1,0,0,0-1.8-1.8,8.2,8.2,0,0,0-.3-1.2,10,10,0,0,1-.6-2.2,37.1,37.1,0,0,1,.2-5.6c0.3-.8.4-1.3,0.7-2s1.1-1.1,1.5-1.8l1.8-.7c1-.2,2.8.3,3.8-0.2a9.2,9.2,0,0,0,2,.7,15.3,15.3,0,0,1,2.3,2.6,1.9,1.9,0,0,0,.3,1.5,2,2,0,0,0,.3,1.5c-0.3.8,0.4,2.3-.4,2.9h0Zm-2.5-4.8a6.7,6.7,0,0,0-1.4-1.8,7.1,7.1,0,0,0-4.1,0c-0.7,0-1,.7-1.6,1.1s-1.3,2.7-.1,3.7,0.3-.1.3,0a8.6,8.6,0,0,0,2.3-.4,87.4,87.4,0,0,0,5.1-.1,3.2,3.2,0,0,0-.3-2.6h-0.1Z"/><path class="c208ff35-a046-49a1-a56b-883ac0af9e5c" d="M408.7,217.8a4.4,4.4,0,0,0-2.9.9,11.3,11.3,0,0,0-.3,1.5,3.3,3.3,0,0,0,1.8,1.9,15.8,15.8,0,0,0,2.5,1.1,3.8,3.8,0,0,0,2,1.1,3.7,3.7,0,0,0,.9,1.3c0.3,0.5.4,0.9,0.7,1.4a4.1,4.1,0,0,1-.7,3.3,5.1,5.1,0,0,1-1.3,1.2c-0.7.4-2,.4-2.9,0.7s-4.5-.1-5.3-1.8,0.5-.7.7-1.1,3.7,1.3,5.7.8a3.1,3.1,0,0,0,1.5-2.1c0-1.5-1.4-2.1-2.3-2.8a11.6,11.6,0,0,0-2.4-.9,10.2,10.2,0,0,1-2.5-1.9,10.5,10.5,0,0,1-.8-2c0-1,.3-1.5.2-2.6l1.2-1.5,1.8-.7a14.8,14.8,0,0,1,3.8.1c0.3,0.3,1.3,0,1.5.7S409.9,217.9,408.7,217.8Z"/><polygon class="2b4eed60-9f32-49d3-98b4-1511abf8dcf5" points="47.2 241.8 14.7 241.8 14.7 155.5 47.7 155.5 47.7 158.2 17.4 158.2 17.4 239.1 47.2 239.1 47.2 241.8"/><polygon class="2b4eed60-9f32-49d3-98b4-1511abf8dcf5" points="429.4 241.8 396.9 241.8 396.9 239.1 426.6 239.1 426.6 158.2 396.4 158.2 396.4 155.5 429.4 155.5 429.4 241.8"/><path class="c208ff35-a046-49a1-a56b-883ac0af9e5c" d="M143.8,17.1A20.7,20.7,0,0,1,144,20c0.1,1.1-.1,4.2,0,5.3a7.8,7.8,0,0,0-.2,2.3,35.5,35.5,0,0,1,0,3.6,2.3,2.3,0,0,1,0,.6A6.4,6.4,0,0,0,144,34c0.1,1.3-.3,2.4.2,3.5,2.6,0.3,4.7,0,7.1.5s2.1-.6,2.9-0.2a1.9,1.9,0,0,1-.3,2c-1.2,0-2.9.4-4.4,0.2l-1.2-.2c-2.2-.1-4.8.4-6.5-0.3s-0.2-1.7-.1-2.9,0-1.1-.2-1.6a4.6,4.6,0,0,1,.2-1.5c0-.4-0.2-0.5-0.2-1a70.5,70.5,0,0,0,.3-7.5c-0.1-.5-0.2-1-0.3-1.3s0.1-1.3.2-1.8a15,15,0,0,0-.2-2.8c0.3-.3-0.1-1.6.4-1.8s1.5-.3,2-0.1h0Z"/><path class="c208ff35-a046-49a1-a56b-883ac0af9e5c" d="M164.2,23.6l0.2-.2c1.1,0.1,1.6.7,2.8,0.5s2.4,2.4,3.2,3.4,0.2,2,.9,2.8a2.6,2.6,0,0,0,.2,1.8,3.1,3.1,0,0,0,0,1.2c0,1-.7,1.7-0.7,2.8a9,9,0,0,0-1.3,2.1,10.8,10.8,0,0,1-2.5,1.7,7.9,7.9,0,0,1-4.6.1c-0.9-.4-1.7-0.9-2.6-1.4a2.3,2.3,0,0,0-.9-1.3c-0.1-.9-0.7-1.3-0.8-2.1s-0.2-1.4-.4-2.1,0.4-3,.3-4.5a4.9,4.9,0,0,0,1.3-2.1,4.1,4.1,0,0,0,1.2-1.5,25.2,25.2,0,0,1,3.8-1.2h0Zm-1.6,2.6a14.6,14.6,0,0,0-1.7,1.5c-0.9,1.8-.9,3.8-0.8,6.4a7.6,7.6,0,0,0,2.1,3.4,9.5,9.5,0,0,0,3.5.7,12.2,12.2,0,0,1,1.8-1.1l0.5-.8,0.3-.2c0.1-.2,0-0.5.1-0.9l0.4-.5a14.3,14.3,0,0,1,.4-2.5c-0.2-.8-0.1-1.8-0.3-2.7a15.3,15.3,0,0,1-1-2.3,16.2,16.2,0,0,0-2.5-1.3,13.2,13.2,0,0,0-1.5.1,5.9,5.9,0,0,0-1.4.2h0Z"/><path class="c208ff35-a046-49a1-a56b-883ac0af9e5c" d="M181,25.9a4.4,4.4,0,0,0-2.9.9,11.3,11.3,0,0,0-.3,1.5,3.3,3.3,0,0,0,1.8,1.9,15.6,15.6,0,0,0,2.5,1.1,3.8,3.8,0,0,0,2,1.1,3.7,3.7,0,0,0,.9,1.3c0.3,0.5.4,0.9,0.7,1.4a4.1,4.1,0,0,1-.7,3.3,5.2,5.2,0,0,1-1.3,1.2c-0.7.4-2,.4-2.9,0.7s-4.5-.1-5.3-1.8,0.5-.7.7-1.1,3.7,1.3,5.7.8a3.1,3.1,0,0,0,1.5-2.1c0-1.5-1.4-2.1-2.3-2.8a11.6,11.6,0,0,0-2.4-.9,10.1,10.1,0,0,1-2.5-1.9,10.5,10.5,0,0,1-.8-2c0-1,.3-1.5.2-2.6l1.2-1.5,1.8-.7a14.8,14.8,0,0,1,3.8.1c0.3,0.3,1.3,0,1.5.7S182.2,26,181,25.9Z"/><path class="c208ff35-a046-49a1-a56b-883ac0af9e5c" d="M208.6,25.6c-0.2,1.5-1.9.8-2.7,0.4a15.3,15.3,0,0,0-3.2.1c-0.8.4-1.3,1.2-2.1,1.7a10.8,10.8,0,0,1-.8,2.3,13.2,13.2,0,0,0,.4,5.2,4.5,4.5,0,0,0,1.8,2.1,11.6,11.6,0,0,1,1.7.7,1.6,1.6,0,0,1,1.1.1c1.1-.1,2.2-0.7,3.1-0.7a6.7,6.7,0,0,1,.4,1.3c-0.2,1-1.9,1.1-3,1.3h-2.6l-2.5-1.2a8.3,8.3,0,0,1-2.2-2.9,8.7,8.7,0,0,0-.7-2.4c0-1.1,0-2.2.1-3.4a24.8,24.8,0,0,1,1.1-3.2,15.1,15.1,0,0,1,2.9-2.9,6.1,6.1,0,0,0,1.8-.4,20.2,20.2,0,0,1,3.2.1c0.7,0.6,1.9.5,2,1.7h0Z"/><path class="c208ff35-a046-49a1-a56b-883ac0af9e5c" d="M218.5,23.6l0.2-.2c1.1,0.1,1.6.7,2.8,0.5s2.4,2.4,3.2,3.4,0.2,2,.9,2.8a2.6,2.6,0,0,0,.2,1.8,3.1,3.1,0,0,0,0,1.2c0,1-.7,1.7-0.7,2.8a9,9,0,0,0-1.3,2.1,10.8,10.8,0,0,1-2.5,1.7,7.9,7.9,0,0,1-4.6.1c-0.9-.4-1.7-0.9-2.6-1.4a2.3,2.3,0,0,0-.9-1.3c-0.1-.9-0.7-1.3-0.8-2.1s-0.2-1.4-.4-2.1,0.4-3,.3-4.5a4.9,4.9,0,0,0,1.3-2.1,4.1,4.1,0,0,0,1.2-1.5,25.3,25.3,0,0,1,3.8-1.2h0Zm-1.6,2.6a14.5,14.5,0,0,0-1.7,1.5c-0.9,1.8-.9,3.8-0.8,6.4a7.6,7.6,0,0,0,2.1,3.4,9.5,9.5,0,0,0,3.5.7,12.2,12.2,0,0,1,1.8-1.1l0.5-.8,0.3-.2c0.1-.2,0-0.5.1-0.9l0.4-.5a14.3,14.3,0,0,1,.4-2.5c-0.2-.8-0.1-1.8-0.3-2.7a15.2,15.2,0,0,1-1-2.3,16.2,16.2,0,0,0-2.5-1.3,13.2,13.2,0,0,0-1.5.1,5.9,5.9,0,0,0-1.4.2h0Z"/><path class="c208ff35-a046-49a1-a56b-883ac0af9e5c" d="M235.3,25.9a4.4,4.4,0,0,0-2.9.9,11.3,11.3,0,0,0-.3,1.5,3.3,3.3,0,0,0,1.8,1.9,15.6,15.6,0,0,0,2.5,1.1,3.8,3.8,0,0,0,2,1.1,3.7,3.7,0,0,0,.9,1.3c0.3,0.5.4,0.9,0.7,1.4a4.1,4.1,0,0,1-.7,3.3,5.1,5.1,0,0,1-1.3,1.2c-0.7.4-2,.4-2.9,0.7s-4.5-.1-5.3-1.8,0.5-.7.7-1.1,3.7,1.3,5.7.8a3.1,3.1,0,0,0,1.5-2.1c0-1.5-1.4-2.1-2.3-2.8a11.6,11.6,0,0,0-2.4-.9,10.2,10.2,0,0,1-2.5-1.9,10.6,10.6,0,0,1-.8-2c0-1,.3-1.5.2-2.6l1.2-1.5,1.8-.7a14.8,14.8,0,0,1,3.8.1c0.3,0.3,1.3,0,1.5.7S236.4,26,235.3,25.9Z"/><path class="c208ff35-a046-49a1-a56b-883ac0af9e5c" d="M248.6,17.5c0.2,2.2-.9,4.6.5,6.3a7.3,7.3,0,0,1,2.3-.1,2,2,0,0,1,.3,2.2c-0.8.2-2.1-.4-2.9,0.2a1.2,1.2,0,0,1-.4.6c0.2,1.4-.1,3,0.4,4.3s-0.1,2.2-.4,3.2a21,21,0,0,1,.3,2.9l1.1,0.8c1.2,0.4,2.7.1,2.3,1.8s-1.6.4-2.5,0.4a8.8,8.8,0,0,0-1.8-.6,9.2,9.2,0,0,1-1.3-1.7,8.3,8.3,0,0,0-.3-2.4c-0.3-2.6.1-5.8-.3-9.2-0.4-.5-1.5-0.5-2.6-0.6a2.2,2.2,0,0,1,.1-2.1c0.9-.1,2.6.1,2.9-0.9a14.2,14.2,0,0,0-.2-1.5c0.1-1.9-.2-3.2.4-4.3a2,2,0,0,1,1.9.4h0Z"/><path class="c208ff35-a046-49a1-a56b-883ac0af9e5c" d="M262.4,23.6l0.2-.2c1.1,0.1,1.6.7,2.8,0.5s2.4,2.4,3.2,3.4,0.2,2,.9,2.8a2.6,2.6,0,0,0,.2,1.8,3.1,3.1,0,0,0,0,1.2c0,1-.7,1.7-0.7,2.8a9,9,0,0,0-1.3,2.1,10.8,10.8,0,0,1-2.5,1.7,7.9,7.9,0,0,1-4.6.1c-0.9-.4-1.7-0.9-2.6-1.4a2.3,2.3,0,0,0-.9-1.3c-0.1-.9-0.7-1.3-0.8-2.1s-0.2-1.4-.4-2.1,0.4-3,.3-4.5a4.9,4.9,0,0,0,1.3-2.1,4.1,4.1,0,0,0,1.2-1.5,25.2,25.2,0,0,1,3.8-1.2h0Zm-1.6,2.6a14.6,14.6,0,0,0-1.7,1.5c-0.9,1.8-.9,3.8-0.8,6.4a7.5,7.5,0,0,0,2.1,3.4,9.5,9.5,0,0,0,3.5.7,12.3,12.3,0,0,1,1.8-1.1l0.5-.8,0.3-.2c0.1-.2,0-0.5.1-0.9l0.4-.5a14.3,14.3,0,0,1,.4-2.5c-0.2-.8-0.1-1.8-0.3-2.7a15.4,15.4,0,0,1-1-2.3,16.1,16.1,0,0,0-2.5-1.3,13.2,13.2,0,0,0-1.5.1,5.9,5.9,0,0,0-1.4.2h0Z"/><path class="c208ff35-a046-49a1-a56b-883ac0af9e5c" d="M279.2,25.9a4.4,4.4,0,0,0-2.9.9,11.4,11.4,0,0,0-.3,1.5,3.3,3.3,0,0,0,1.8,1.9,15.7,15.7,0,0,0,2.5,1.1,3.8,3.8,0,0,0,2,1.1,3.7,3.7,0,0,0,.9,1.3c0.3,0.5.4,0.9,0.7,1.4a4.1,4.1,0,0,1-.7,3.3,5.2,5.2,0,0,1-1.3,1.2c-0.7.4-2,.4-2.9,0.7s-4.5-.1-5.3-1.8,0.5-.7.7-1.1,3.7,1.3,5.7.8a3.1,3.1,0,0,0,1.5-2.1c0-1.5-1.4-2.1-2.3-2.8a11.6,11.6,0,0,0-2.4-.9,10.2,10.2,0,0,1-2.5-1.9,10.4,10.4,0,0,1-.8-2c0-1,.3-1.5.2-2.6l1.2-1.5,1.8-.7a14.8,14.8,0,0,1,3.8.1c0.3,0.3,1.3,0,1.5.7S280.4,26,279.2,25.9Z"/><path class="c208ff35-a046-49a1-a56b-883ac0af9e5c" d="M301.7,25.9a4.4,4.4,0,0,0-2.9.9,11.3,11.3,0,0,0-.3,1.5,3.3,3.3,0,0,0,1.8,1.9,15.6,15.6,0,0,0,2.5,1.1,3.8,3.8,0,0,0,2,1.1,3.7,3.7,0,0,0,.9,1.3c0.3,0.5.4,0.9,0.7,1.4a4.1,4.1,0,0,1-.7,3.3,5.2,5.2,0,0,1-1.3,1.2c-0.7.4-2,.4-2.9,0.7s-4.5-.1-5.3-1.8,0.5-.7.7-1.1,3.7,1.3,5.7.8a3.1,3.1,0,0,0,1.5-2.1c0-1.5-1.4-2.1-2.3-2.8a11.6,11.6,0,0,0-2.4-.9,10.1,10.1,0,0,1-2.5-1.9,10.5,10.5,0,0,1-.8-2c0-1,.3-1.5.2-2.6l1.2-1.5,1.8-.7a14.8,14.8,0,0,1,3.8.1c0.3,0.3,1.3,0,1.5.7S302.8,26,301.7,25.9Z"/><path class="c208ff35-a046-49a1-a56b-883ac0af9e5c" d="M316.4,23.6l0.2-.2c1.1,0.1,1.6.7,2.8,0.5s2.4,2.4,3.2,3.4,0.2,2,.9,2.8a2.6,2.6,0,0,0,.2,1.8,3.1,3.1,0,0,0,0,1.2c0,1-.7,1.7-0.7,2.8a9,9,0,0,0-1.3,2.1,10.8,10.8,0,0,1-2.5,1.7,7.9,7.9,0,0,1-4.6.1c-0.9-.4-1.7-0.9-2.6-1.4a2.3,2.3,0,0,0-.9-1.3c-0.1-.9-0.7-1.3-0.8-2.1s-0.2-1.4-.4-2.1,0.4-3,.3-4.5a4.9,4.9,0,0,0,1.3-2.1,4.1,4.1,0,0,0,1.2-1.5,25.2,25.2,0,0,1,3.8-1.2h0Zm-1.6,2.6a14.6,14.6,0,0,0-1.7,1.5c-0.9,1.8-.9,3.8-0.8,6.4a7.6,7.6,0,0,0,2.1,3.4,9.5,9.5,0,0,0,3.5.7,12.2,12.2,0,0,1,1.8-1.1l0.5-.8,0.3-.2c0.1-.2,0-0.5.1-0.9l0.4-.5a14.3,14.3,0,0,1,.4-2.5c-0.2-.8-0.1-1.8-0.3-2.7a15.3,15.3,0,0,1-1-2.3,16.2,16.2,0,0,0-2.5-1.3,13.2,13.2,0,0,0-1.5.1,5.9,5.9,0,0,0-1.4.2h0Z"/><path class="c208ff35-a046-49a1-a56b-883ac0af9e5c" d="M338.4,25.6c-0.2,1.5-1.9.8-2.7,0.4a15.3,15.3,0,0,0-3.2.1c-0.8.4-1.3,1.2-2.1,1.7a10.8,10.8,0,0,1-.8,2.3,13.2,13.2,0,0,0,.4,5.2,4.5,4.5,0,0,0,1.8,2.1,11.5,11.5,0,0,1,1.7.7,1.6,1.6,0,0,1,1.1.1c1.1-.1,2.2-0.7,3.1-0.7a6.7,6.7,0,0,1,.4,1.3c-0.2,1-1.9,1.1-3,1.3h-2.6l-2.5-1.2A8.3,8.3,0,0,1,328,36a8.7,8.7,0,0,0-.7-2.4c0-1.1,0-2.2.1-3.4a24.6,24.6,0,0,1,1.1-3.2,15,15,0,0,1,2.9-2.9,6.1,6.1,0,0,0,1.8-.4,20.2,20.2,0,0,1,3.2.1c0.7,0.6,1.9.5,2,1.7h0Z"/><path class="c208ff35-a046-49a1-a56b-883ac0af9e5c" d="M346.1,19.5a2,2,0,0,1-.9,2.1c-1.5.2-2.5-.3-2.4-1.9a0.7,0.7,0,0,0,.2-0.4,2,2,0,0,1,3.1.4h0ZM345,40.1a4.9,4.9,0,0,1-1.7-.3c-0.1-2.8-.1-5.1-0.4-8.2a9.1,9.1,0,0,0,.5-2.2,11.3,11.3,0,0,1-.2-2.8c0-.8-0.3-1.7.3-2.4s0.8-.5,1.1-0.2,0.8,1.9.9,2.9a49.9,49.9,0,0,0,.3,7.8,12.6,12.6,0,0,0-.2,2.8c0,1.1.1,2-.7,2.6H345Z"/><path class="c208ff35-a046-49a1-a56b-883ac0af9e5c" d="M361.1,39.9c-0.8,0-.8-0.9-1.5-1.1a9.8,9.8,0,0,0-1.8,1,15.5,15.5,0,0,1-4.4.2c-0.7-.8-1.7-1.2-2.3-1.9s-0.2-2.3-.7-3.2a14.5,14.5,0,0,1,.3-2.4c0.3-.4.6-1.1,0.9-1.5a0.5,0.5,0,0,0,.4-0.3c1.4-.7,2.6-0.7,4.6-1a7.2,7.2,0,0,0,2.5,1.4c1.2-.4.1-1.8,0.3-2.9a4.8,4.8,0,0,0-1.1-1.9c-0.7-.1-1.1-0.4-1.8-0.6s-3,.7-4.1.4a2,2,0,0,1-.6-1.6c0.4-.6,1.5-0.5,2.1-1a30.6,30.6,0,0,1,3.3,0,6,6,0,0,0,2.5.9c1.1,1.6,2.4,3.6,2,6.4,0,0.5.2,0.8,0.2,1.3s-0.2,3.2-.3,4.9a13.5,13.5,0,0,1,.3,2,1.8,1.8,0,0,1-1.1,1h0Zm-6.7-7.7L353,33.4c0.2,0.3-.2.3-0.3,0.6s0.3,3.1,1.1,3.4a3.3,3.3,0,0,0,2.9.4,3.1,3.1,0,0,1,1.1-.3c0.9-.8,2-1,2.2-2.6a11.9,11.9,0,0,0-1.7-2.3c-1-.2-1.6-0.5-2.5-0.7l-0.2.2h-1.2Z"/><path class="c208ff35-a046-49a1-a56b-883ac0af9e5c" d="M370.5,17.2c-0.1,7.3-.5,14.3.4,23.2-0.8-.3-2-0.2-2.3-0.7s-0.2-1-.4-1.7a11.8,11.8,0,0,1,0-1.7c-0.4-3.7.6-8.1,0.2-11.7a19.2,19.2,0,0,1,.2-7.6,2.8,2.8,0,0,1,1.8.1h0Z"/><path class="c208ff35-a046-49a1-a56b-883ac0af9e5c" d="M388.2,32.9c-2.6.4-5.9-.1-8.4,0.2-0.6.1-1.5,0-1.9,0.3,0.4,3.1,2,5.3,5.5,5,1.3-.4,2.2-1.5,3.2-0.7s-0.9,1.9-2.3,2.4-1.9.1-2.7,0-2.3-.7-3.3-1a14.2,14.2,0,0,0-1.8-1.8,8.1,8.1,0,0,0-.3-1.2,10.1,10.1,0,0,1-.6-2.2,37.1,37.1,0,0,1,.2-5.6c0.3-.8.4-1.3,0.7-2s1.1-1.1,1.5-1.8l1.8-.7c1-.2,2.8.3,3.8-0.2a9.2,9.2,0,0,0,2,.7A15.4,15.4,0,0,1,388,27a1.9,1.9,0,0,0,.3,1.5,2,2,0,0,0,.3,1.5c-0.3.8,0.4,2.3-.4,2.9h0Zm-2.5-4.8a6.8,6.8,0,0,0-1.4-1.8,7.1,7.1,0,0,0-4.1,0c-0.7,0-1,.7-1.6,1.1s-1.3,2.7-.1,3.7,0.3-.1.3,0a8.7,8.7,0,0,0,2.3-.4,2.6,2.6,0,0,0,2.3,0,2.6,2.6,0,0,0,2.8-.1,3.2,3.2,0,0,0-.3-2.6h-0.1Z"/><path class="c208ff35-a046-49a1-a56b-883ac0af9e5c" d="M398.1,25.9a4.4,4.4,0,0,0-2.9.9,11.3,11.3,0,0,0-.3,1.5,3.3,3.3,0,0,0,1.8,1.9,15.6,15.6,0,0,0,2.5,1.1,3.8,3.8,0,0,0,2,1.1,3.7,3.7,0,0,0,.9,1.3c0.3,0.5.4,0.9,0.7,1.4a4.1,4.1,0,0,1-.7,3.3,5.1,5.1,0,0,1-1.3,1.2c-0.7.4-2,.4-2.9,0.7s-4.5-.1-5.3-1.8,0.5-.7.7-1.1,3.7,1.3,5.7.8a3.1,3.1,0,0,0,1.5-2.1c0-1.5-1.4-2.1-2.3-2.8a11.6,11.6,0,0,0-2.4-.9,10.2,10.2,0,0,1-2.5-1.9,10.6,10.6,0,0,1-.8-2c0-1,.3-1.5.2-2.6l1.2-1.5,1.8-.7a14.8,14.8,0,0,1,3.8.1c0.3,0.3,1.3,0,1.5.7S399.3,26,398.1,25.9Z"/><path class="c208ff35-a046-49a1-a56b-883ac0af9e5c" d="M420.6,32.9c0.8-.3,1.1-1.3,1.3-2.3s0.4-1,.9-1.4c0.3-2.2,1.5-3,1.7-4.8s1.8-.8,2.5,0a3.1,3.1,0,0,1-.8,1.7c-0.3,1.6-1.2,2.6-1.3,4.1a12.5,12.5,0,0,0-1.1,2.2,3,3,0,0,0-.4,1.1,1.8,1.8,0,0,0-.4.9,27.3,27.3,0,0,1-1.9,4.1,26.5,26.5,0,0,1-1.5,4.4c-0.3.6-.6,1.2-0.9,2a5.4,5.4,0,0,1-.8,2,3.1,3.1,0,0,1-2,.1,2.9,2.9,0,0,1,.7-2.4c0-.9.5-1.3,0.7-1.9a7.7,7.7,0,0,1,.7-1.9c0.3-1.1,1.2-2.3,1.4-3.8s-1.2-3.7-2-5.2-0.3-.5-0.2-1a29.2,29.2,0,0,0-1.5-3.3c-0.1-1.1-.9-2.1-1.1-3.3a1.9,1.9,0,0,1,2.1,0c0.4,0.9,1.1,1.4,1.1,2.8a4.1,4.1,0,0,1,.8,1.3c0.1,0.9.7,1.7,0.8,2.5s0.5,1.8,1.2,2.2h0Z"/><path class="c208ff35-a046-49a1-a56b-883ac0af9e5c" d="M62.4,66.5c-2.6.4-5.9-.1-8.4,0.2-0.6.1-1.5,0-1.9,0.3,0.4,3.1,2,5.3,5.5,5,1.3-.4,2.2-1.5,3.2-0.7s-0.9,1.9-2.3,2.4-1.9.1-2.7,0-2.3-.7-3.3-1A14.1,14.1,0,0,0,50.8,71a8,8,0,0,0-.3-1.2,10.1,10.1,0,0,1-.6-2.2A37.1,37.1,0,0,1,50,62c0.3-.8.4-1.3,0.7-2s1.1-1.1,1.5-1.8l1.8-.7c1-.2,2.8.3,3.8-0.2a9.2,9.2,0,0,0,2,.7,15.3,15.3,0,0,1,2.3,2.6,1.8,1.8,0,0,0,.3,1.5,2,2,0,0,0,.3,1.5c-0.3.8,0.4,2.3-.4,2.9h0Zm-2.5-4.8A6.7,6.7,0,0,0,58.5,60a7.1,7.1,0,0,0-4.1,0c-0.7,0-1,.7-1.6,1.1s-1.3,2.7-.1,3.7,0.3-.1.3,0a8.6,8.6,0,0,0,2.3-.4,2.6,2.6,0,0,0,2.3,0,2.6,2.6,0,0,0,2.8-.1,3.2,3.2,0,0,0-.3-2.6H59.9Z"/><path class="c208ff35-a046-49a1-a56b-883ac0af9e5c" d="M77.4,59.3c-0.2,1.5-1.9.8-2.7,0.4a15.5,15.5,0,0,0-3.2.1c-0.8.4-1.3,1.2-2.1,1.7a10.8,10.8,0,0,1-.8,2.3,13.2,13.2,0,0,0,.4,5.2,4.5,4.5,0,0,0,1.8,2.1,11.6,11.6,0,0,1,1.7.7,1.6,1.6,0,0,1,1.1.1c1.1-.1,2.2-0.7,3.1-0.7a6.7,6.7,0,0,1,.4,1.3c-0.2,1-1.9,1.1-3,1.3H71.7l-2.5-1.2A8.3,8.3,0,0,1,67,69.6a8.7,8.7,0,0,0-.7-2.4c0-1.1,0-2.2.1-3.4a24.7,24.7,0,0,1,1.1-3.2,15.1,15.1,0,0,1,2.9-2.9,6.1,6.1,0,0,0,1.8-.4,20.2,20.2,0,0,1,3.2.1c0.7,0.6,1.9.5,2,1.7h0Z"/><path class="c208ff35-a046-49a1-a56b-883ac0af9e5c" d="M87.3,57.3l0.2-.2c1.1,0.1,1.6.7,2.8,0.5S92.6,60,93.5,61s0.2,2,.9,2.8a2.6,2.6,0,0,0,.2,1.8,3.1,3.1,0,0,0,0,1.2c0,1-.7,1.7-0.7,2.8a9,9,0,0,0-1.3,2.1A10.8,10.8,0,0,1,90,73.4a7.9,7.9,0,0,1-4.6.1c-0.9-.4-1.7-0.9-2.6-1.4a2.3,2.3,0,0,0-.9-1.3c-0.1-.9-0.7-1.3-0.8-2.1s-0.2-1.4-.4-2.1,0.4-3,.3-4.5A4.9,4.9,0,0,0,82.3,60a4.1,4.1,0,0,0,1.2-1.5,25.1,25.1,0,0,1,3.8-1.2h0Zm-1.6,2.6a14.5,14.5,0,0,0-1.7,1.5c-0.9,1.8-.9,3.8-0.8,6.4a7.6,7.6,0,0,0,2.1,3.4,9.6,9.6,0,0,0,3.5.7,12.1,12.1,0,0,1,1.8-1.1l0.5-.8,0.3-.2c0.1-.2,0-0.5.1-0.9l0.4-.5a14.3,14.3,0,0,1,.4-2.5c-0.2-.8-0.1-1.8-0.3-2.7a15.3,15.3,0,0,1-1-2.3,16.1,16.1,0,0,0-2.5-1.3,13.2,13.2,0,0,0-1.5.1,5.8,5.8,0,0,0-1.4.2h0Z"/><path class="c208ff35-a046-49a1-a56b-883ac0af9e5c" d="M112,73.3a7.1,7.1,0,0,1-1.9.2c-0.4-1.3-.2-2.7,0-4.3s-0.4-3-.2-4.8a9.6,9.6,0,0,0-.4-3.1,2.7,2.7,0,0,0-.1-0.4c-0.7-1-1.7-1.1-2.6-1.7a5.8,5.8,0,0,0-4.3,2.1c-0.1.8-.6,1.4-0.7,2.4a9,9,0,0,1-.1,3.5l0.3,1.2c-0.2,1.4-.3,3.2-0.3,4.6a2,2,0,0,1-1.7.4,4.2,4.2,0,0,1-.3-3.1c-0.1-.6-0.1-1.1-0.2-1.7s0.2-2.3.2-3.6a0.4,0.4,0,0,0,0-.4c0.1-2.2-.1-3.8.2-6a1.1,1.1,0,0,1,.2-1.2c1.5-.4,1.2,1.1,2.1,1.5a14.7,14.7,0,0,0,2-1.5,4.9,4.9,0,0,0,1.9-.4c0.5,0.3,1-.1,1.5,0a5.1,5.1,0,0,1,3.8,2.1,2.2,2.2,0,0,0,.5,1.3c-0.2.6,0.3,1.1,0.2,1.8a9.1,9.1,0,0,1-.1,1,27,27,0,0,1,.2,3.5,10.3,10.3,0,0,0,.2,3.5c-0.3,1.3.4,2.1-.2,3.1h0Z"/><path class="c208ff35-a046-49a1-a56b-883ac0af9e5c" d="M123,57.3l0.2-.2c1.1,0.1,1.6.7,2.8,0.5s2.4,2.4,3.2,3.4,0.2,2,.9,2.8a2.6,2.6,0,0,0,.2,1.8,3.1,3.1,0,0,0,0,1.2c0,1-.7,1.7-0.7,2.8a9,9,0,0,0-1.3,2.1,10.8,10.8,0,0,1-2.5,1.7,7.9,7.9,0,0,1-4.6.1c-0.9-.4-1.7-0.9-2.6-1.4a2.3,2.3,0,0,0-.9-1.3c-0.1-.9-0.7-1.3-0.8-2.1s-0.2-1.4-.4-2.1,0.4-3,.3-4.5A4.9,4.9,0,0,0,118,60a4.1,4.1,0,0,0,1.2-1.5,25,25,0,0,1,3.8-1.2h0Zm-1.6,2.6a14.6,14.6,0,0,0-1.7,1.5c-0.9,1.8-.9,3.8-0.8,6.4a7.6,7.6,0,0,0,2.1,3.4,9.6,9.6,0,0,0,3.5.7,12.1,12.1,0,0,1,1.8-1.1l0.5-.8,0.3-.2c0.1-.2,0-0.5.1-0.9l0.4-.5a14.3,14.3,0,0,1,.4-2.5c-0.2-.8-0.1-1.8-0.3-2.7a15.4,15.4,0,0,1-1-2.3,16,16,0,0,0-2.5-1.3,13.2,13.2,0,0,0-1.5.1,5.8,5.8,0,0,0-1.4.2h0Zm5.7-10.5c0,1.3-1.2,1.6-1.5,2.7s-0.9,1.8-1.7,2.2a1.3,1.3,0,0,1-1.2-.6c0.6-1.5,1.3-2.8,2-4.4s1.8,0,2.5.1h0Z"/><path class="c208ff35-a046-49a1-a56b-883ac0af9e5c" d="M153.2,73.7c-0.5.3-1.1-.1-1.7-0.1s0.1-1-.2-1.1,0.1-.9.1-1.3,0.2-2.5-.3-3.1a3.4,3.4,0,0,0,.3-1.2,19.2,19.2,0,0,1,0-5.5,3.2,3.2,0,0,0-3.8-1.5,2.6,2.6,0,0,0-1.5,1.4,20.8,20.8,0,0,0-.4,3.3,43.3,43.3,0,0,1-.3,6.2c0.3,1.1.7,3-.9,3a1.4,1.4,0,0,1-1.1-1.2,4.5,4.5,0,0,1,.1-0.9,14.5,14.5,0,0,1,0-1.9,7,7,0,0,1-.2-0.9c0-.6.2-1.1,0.2-2.2a7.8,7.8,0,0,1-.1-3.2c-0.4-.6-0.2-1.6-0.5-2.4a1.9,1.9,0,0,1-.4-0.8,11.6,11.6,0,0,0-1.8-.8,16.5,16.5,0,0,1-2,.6,9.5,9.5,0,0,0-1.4,4,20.5,20.5,0,0,1,.2,6.7,6.8,6.8,0,0,1-.3,2.9,4.3,4.3,0,0,1-1.7-.2c-0.7-1-.1-2.1-0.3-3.4a3.3,3.3,0,0,0-.1-1.1c0.1-2.6-.1-6,0.6-8.9-0.7-.9-0.5-2.5.2-2.6s1,0.9,1.5,1.5,0.8-.8,1.3-1.1a4.6,4.6,0,0,1,1.4-.8l2.2,0.2a17,17,0,0,0,2.3,1.8,6.8,6.8,0,0,0,1.5-1.1l2.8-1h0.3c0.7,0.4,1.7.5,2.4,1a1.1,1.1,0,0,1,.7.8,2.8,2.8,0,0,1,.7.7c0.4,1.1.2,2.1,0.7,3.1-0.2,2.9.1,5.9,0,8.9a4.2,4.2,0,0,1-.4,2.2h0Z"/><path class="c208ff35-a046-49a1-a56b-883ac0af9e5c" d="M162.3,53.2a2,2,0,0,1-.9,2.1c-1.5.2-2.5-.3-2.4-1.9a0.7,0.7,0,0,0,.2-0.4,2,2,0,0,1,3.1.4h0Zm-1.1,20.5a4.9,4.9,0,0,1-1.7-.3c-0.1-2.8-.1-5.1-0.4-8.2a9.1,9.1,0,0,0,.5-2.2,11.3,11.3,0,0,1-.2-2.8c0-.8-0.3-1.7.3-2.4s0.8-.5,1.1-0.2,0.8,1.9.9,2.9a49.9,49.9,0,0,0,.3,7.8,12.7,12.7,0,0,0-.2,2.8c0,1.1.1,2-.7,2.6h0.1Z"/><path class="c208ff35-a046-49a1-a56b-883ac0af9e5c" d="M177.9,59.3c-0.2,1.5-1.9.8-2.7,0.4a15.5,15.5,0,0,0-3.2.1c-0.8.4-1.3,1.2-2.1,1.7a10.7,10.7,0,0,1-.8,2.3,13.2,13.2,0,0,0,.4,5.2,4.5,4.5,0,0,0,1.8,2.1,11.5,11.5,0,0,1,1.7.7,1.6,1.6,0,0,1,1.1.1c1.1-.1,2.2-0.7,3.1-0.7a6.7,6.7,0,0,1,.4,1.3c-0.2,1-1.9,1.1-3,1.3h-2.6l-2.5-1.2a8.3,8.3,0,0,1-2.2-2.9,8.7,8.7,0,0,0-.7-2.4c0-1.1,0-2.2.1-3.4a24.5,24.5,0,0,1,1.1-3.2,15,15,0,0,1,2.9-2.9,6.1,6.1,0,0,0,1.8-.4,20.2,20.2,0,0,1,3.2.1c0.7,0.6,1.9.5,2,1.7h0Z"/><path class="c208ff35-a046-49a1-a56b-883ac0af9e5c" d="M187.7,57.3l0.2-.2c1.1,0.1,1.6.7,2.8,0.5s2.4,2.4,3.2,3.4,0.2,2,.9,2.8a2.6,2.6,0,0,0,.2,1.8,3.1,3.1,0,0,0,0,1.2c0,1-.7,1.7-0.7,2.8a9,9,0,0,0-1.3,2.1,10.8,10.8,0,0,1-2.5,1.7,7.9,7.9,0,0,1-4.6.1c-0.9-.4-1.7-0.9-2.6-1.4a2.3,2.3,0,0,0-.9-1.3c-0.1-.9-0.7-1.3-0.8-2.1s-0.2-1.4-.4-2.1,0.4-3,.3-4.5a4.9,4.9,0,0,0,1.3-2.1,4.1,4.1,0,0,0,1.2-1.5,25,25,0,0,1,3.8-1.2h0Zm-1.6,2.6a14.6,14.6,0,0,0-1.7,1.5c-0.9,1.8-.9,3.8-0.8,6.4a7.6,7.6,0,0,0,2.1,3.4,9.6,9.6,0,0,0,3.5.7,12.1,12.1,0,0,1,1.8-1.1l0.5-.8,0.3-.2c0.1-.2,0-0.5.1-0.9l0.4-.5a14.3,14.3,0,0,1,.4-2.5c-0.2-.8-0.1-1.8-0.3-2.7a15.4,15.4,0,0,1-1-2.3,16,16,0,0,0-2.5-1.3,13.2,13.2,0,0,0-1.5.1,5.8,5.8,0,0,0-1.4.2h0Z"/><path class="c208ff35-a046-49a1-a56b-883ac0af9e5c" d="M204.5,59.5a4.4,4.4,0,0,0-2.9.9,11.3,11.3,0,0,0-.3,1.5,3.3,3.3,0,0,0,1.8,1.9,15.8,15.8,0,0,0,2.5,1.1,3.8,3.8,0,0,0,2,1.1,3.7,3.7,0,0,0,.9,1.3c0.3,0.5.4,0.9,0.7,1.4a4.1,4.1,0,0,1-.7,3.3,5.1,5.1,0,0,1-1.3,1.2c-0.7.4-2,.4-2.9,0.7s-4.5-.1-5.3-1.8,0.5-.7.7-1.1,3.7,1.3,5.7.8a3.1,3.1,0,0,0,1.5-2.1c0-1.5-1.4-2.1-2.3-2.8a11.6,11.6,0,0,0-2.4-.9,10.2,10.2,0,0,1-2.5-1.9,10.4,10.4,0,0,1-.8-2c0-1,.3-1.5.2-2.6l1.2-1.5,1.8-.7a14.8,14.8,0,0,1,3.8.1c0.3,0.3,1.3,0,1.5.7S205.7,59.7,204.5,59.5Z"/><path class="c208ff35-a046-49a1-a56b-883ac0af9e5c" d="M231.6,58.9c0.8-.1.6-1.5,1.7-1.3s0.8,2.4.9,3.3a27.1,27.1,0,0,1,0,3.1c0.2,0.9-.2,1.9-0.2,3.1a7.1,7.1,0,0,1,.2.7,7.1,7.1,0,0,0-.1.9c0.2,1.6.1,2.9,0.2,4.4a37.4,37.4,0,0,0-.1,5.3,15.4,15.4,0,0,0-.1,2.1,1.9,1.9,0,0,1-2.2-.2c0.2-1.3-.3-2.7-0.1-4.4a4.8,4.8,0,0,0-.2-3.1c-0.8-.3-1.3.4-1.9,0.8a3.9,3.9,0,0,0-2,.5,5.8,5.8,0,0,0-2.6-.3,1.6,1.6,0,0,0-1.2-.4l-1.9-1.7a12,12,0,0,0-.9-2.2,4.5,4.5,0,0,0-.3-1.8,31.7,31.7,0,0,1,.4-5.9,5.3,5.3,0,0,0,.4-1.4l1.6-1.9,1.3-.7,2.5-.6H229c0.9,0.4,2.1.8,2.6,1.4h0.1Zm-5.6.7a12.5,12.5,0,0,1-1.6.9c-0.3,1.1-.8,1.7-1.1,2.6a20.9,20.9,0,0,1-.1,3.7,11.7,11.7,0,0,0,.9,3.2,7,7,0,0,0,1.3,1.3,7.4,7.4,0,0,0,2.2.5l2.5-.7a2,2,0,0,1,.8-1,15.6,15.6,0,0,0,.9-3.3,20.2,20.2,0,0,0-.3-4.6,5,5,0,0,1-.7-1.5c-1.1-.4-2.1-1.5-3.4-1.2H226Z"/><path class="c208ff35-a046-49a1-a56b-883ac0af9e5c" d="M242.3,57.8c0.1,3.3-.2,6.6.2,10.1A9.2,9.2,0,0,0,243,70c0.7,1.3,2.2,1.7,3.5,2s1.8-1.1,2.8-1.4a16.4,16.4,0,0,0,1.1-3,2.7,2.7,0,0,1,.3-2.1c0.1-2.1-.3-5.4-0.1-7.7,0.8-.4,1.8-0.4,2.2.2a52,52,0,0,1,0,8,11.4,11.4,0,0,1,0,2.3,34.6,34.6,0,0,1-.1,3.5c0.1,0.6.4,1.2-.1,1.7a1.7,1.7,0,0,1-1.5-.2c-0.4-.3-0.2-0.9-0.7-1.1s-0.9.6-1.6,0.9a19.6,19.6,0,0,0-2,.7c-1.8-.2-3.5,0-4.7-0.9s-1.4-2.4-2-4,0.2-.7.1-1.2a17.3,17.3,0,0,1,0-4.1,8.5,8.5,0,0,0-.3-0.9,3.9,3.9,0,0,1,.3-1.1,5.7,5.7,0,0,1-.2-2.2,3.1,3.1,0,0,1,.4-1.3,0.6,0.6,0,0,1,.4-0.4,1.9,1.9,0,0,1,1.5.2h0Z"/><path class="c208ff35-a046-49a1-a56b-883ac0af9e5c" d="M270.4,66.5c-2.6.4-5.9-.1-8.4,0.2-0.6.1-1.5,0-1.9,0.3,0.4,3.1,2,5.3,5.5,5,1.3-.4,2.2-1.5,3.2-0.7s-0.9,1.9-2.3,2.4-1.9.1-2.7,0-2.3-.7-3.3-1a14.1,14.1,0,0,0-1.8-1.8,8,8,0,0,0-.3-1.2,10.1,10.1,0,0,1-.6-2.2A37.1,37.1,0,0,1,258,62c0.3-.8.4-1.3,0.7-2s1.1-1.1,1.5-1.8l1.8-.7c1-.2,2.8.3,3.8-0.2a9.2,9.2,0,0,0,2,.7,15.3,15.3,0,0,1,2.3,2.6,1.8,1.8,0,0,0,.3,1.5,2,2,0,0,0,.3,1.5c-0.3.8,0.4,2.3-.4,2.9h0Zm-2.5-4.8a6.7,6.7,0,0,0-1.4-1.8,7.1,7.1,0,0,0-4.1,0c-0.7,0-1,.7-1.6,1.1s-1.3,2.7-.1,3.7,0.3-.1.3,0a8.6,8.6,0,0,0,2.3-.4,2.6,2.6,0,0,0,2.3,0,2.6,2.6,0,0,0,2.8-.1,3.2,3.2,0,0,0-.3-2.6h-0.1Z"/><path class="c208ff35-a046-49a1-a56b-883ac0af9e5c" d="M286.4,72.5h-0.3c-0.7.2-.2,1-0.2,1.6a10.3,10.3,0,0,0,0,3.2c-0.2.9,0,2.3-.4,3.1a3.6,3.6,0,0,1-1.8,0c-0.6-.8-0.2-1.4-0.1-2.2a37.5,37.5,0,0,0-.2-6.8c0-.4.2-0.8,0.2-1.1s-0.2-.7-0.2-1a5.7,5.7,0,0,0,.2-0.8c0-.9-0.1-1.8,0-2.7V65c0-2.1-.3-3.9-0.2-6.1a1.1,1.1,0,0,1,.7-1.4,1.2,1.2,0,0,1,1.1.2c0.3,0.3.3,0.8,0.7,0.8a5.8,5.8,0,0,0,2.6-1.1,1.6,1.6,0,0,0,1.2-.2h1.1a8.8,8.8,0,0,1,2.6.7c0.8,0.4,1.1,1,1.8,1.3a35.9,35.9,0,0,1,1.5,4.2c0,1.8.2,3.5,0.1,5.4a5.2,5.2,0,0,0-.8,2,12,12,0,0,1-1.7,2.1,9.9,9.9,0,0,1-2.7.8c-1.3,0-1.8.2-3.1,0.1s-1-1.3-2.1-1.2h-0.1ZM288.2,60l-1.4,1.4c-1,1.3-.8,3-0.9,4.8a21.3,21.3,0,0,1,.3,2.5c0.7,1,.9,2.2,1.8,2.4a18.3,18.3,0,0,0,3.7.8,13,13,0,0,1,1.5-.9,19,19,0,0,0,1.5-2.9,12.3,12.3,0,0,0-.6-6.2,3.1,3.1,0,0,0-1.9-2.1,4,4,0,0,0-2.4-.2,3.8,3.8,0,0,0-1.5.3h0Z"/><path class="c208ff35-a046-49a1-a56b-883ac0af9e5c" d="M308.3,57.3a2.1,2.1,0,0,1,.4,2.1c-0.9.3-2.2,0.4-2.9,0.5s-1.2,2-1.8,3a68.9,68.9,0,0,1-.4,11l-1.6-.3c-0.6-.9-0.1-1.5-0.1-2.5s-0.2-1-.2-1.5,0.1-.8.1-1.1-0.2-3.7-.1-5.9a6.1,6.1,0,0,0-.1-2.8c0.3-.9,0-1.8.8-2.2a1.6,1.6,0,0,1,1.1.4c0.3,0.2.2,0.8,0.7,0.8s1.3-.8,2.2-1.1,1.3,0,1.6-.3h0.3Z"/><path class="c208ff35-a046-49a1-a56b-883ac0af9e5c" d="M317.9,57.3l0.2-.2c1.1,0.1,1.6.7,2.8,0.5s2.4,2.4,3.2,3.4,0.2,2,.9,2.8a2.6,2.6,0,0,0,.2,1.8,3.1,3.1,0,0,0,0,1.2c0,1-.7,1.7-0.7,2.8a9,9,0,0,0-1.3,2.1,10.8,10.8,0,0,1-2.5,1.7,7.9,7.9,0,0,1-4.6.1c-0.9-.4-1.7-0.9-2.6-1.4a2.3,2.3,0,0,0-.9-1.3c-0.1-.9-0.7-1.3-0.8-2.1s-0.2-1.4-.4-2.1,0.4-3,.3-4.5a4.9,4.9,0,0,0,1.3-2.1,4.1,4.1,0,0,0,1.2-1.5,25,25,0,0,1,3.8-1.2h0Zm-1.6,2.6a14.6,14.6,0,0,0-1.7,1.5c-0.9,1.8-.9,3.8-0.8,6.4a7.6,7.6,0,0,0,2.1,3.4,9.6,9.6,0,0,0,3.5.7,12.1,12.1,0,0,1,1.8-1.1l0.5-.8,0.3-.2c0.1-.2,0-0.5.1-0.9l0.4-.5a14.3,14.3,0,0,1,.4-2.5c-0.2-.8-0.1-1.8-0.3-2.7a15.4,15.4,0,0,1-1-2.3,16,16,0,0,0-2.5-1.3,13.2,13.2,0,0,0-1.5.1,5.8,5.8,0,0,0-1.4.2h0Z"/><path class="c208ff35-a046-49a1-a56b-883ac0af9e5c" d="M341.7,53.9c0,1,.1,2.4.2,3.3a37.1,37.1,0,0,1-.3,4,24.9,24.9,0,0,1,.2,3.2c-0.1,1.1,0,2.1-.1,3.2s0.1,1.3.1,1.9-0.1,1.2-.1,1.9,0.5,1.7-.5,2.5-1.2-.9-1.6-1.8a3.5,3.5,0,0,0-1.7.8c-0.1.5-1,.5-1.3,0.9a10.7,10.7,0,0,1-4.1-.2,12.6,12.6,0,0,1-2.1-1.2,3.1,3.1,0,0,0-.8-0.9c-1-1.6-1.1-4.2-1.3-6.6a8.3,8.3,0,0,0,.5-2.8c0.7-1.5,1.1-2.8,2.4-3.9a4.3,4.3,0,0,0,1.5-.8,2.7,2.7,0,0,0,1.5-.2l2.9,0.4c0.7,0.3,1.1,1.3,2.2.9s0-1.2.1-2,0.3-4.3.5-5.3a1.1,1.1,0,0,1,1.5-.5C342.2,51.8,341.6,52.7,341.7,53.9Zm-9.1,6.2a7.7,7.7,0,0,0-1.7,2.6c0.3,1.6-.4,2.6-0.2,4a11.4,11.4,0,0,1,.5,2.8c0.5,0.4.7,1.1,1,1.5s1,0.6,1.7.7a7.1,7.1,0,0,0,4.3-1.1,12,12,0,0,0,1.5-3.9c-0.3-1.1,0-2.3-.3-3.5a4.5,4.5,0,0,0-.8-2,4.8,4.8,0,0,0-2.8-1.5c-0.6-.2-1.1.2-1.7-0.1s-0.1,0-.1.2-0.7.4-1.3,0.4h0Z"/><path class="c208ff35-a046-49a1-a56b-883ac0af9e5c" d="M350.1,57.8c0.1,3.3-.2,6.6.2,10.1a9.1,9.1,0,0,0,.4,2.1c0.7,1.3,2.2,1.7,3.5,2s1.8-1.1,2.8-1.4a16.4,16.4,0,0,0,1.1-3,2.7,2.7,0,0,1,.3-2.1c0.1-2.1-.3-5.4-0.1-7.7,0.8-.4,1.8-0.4,2.2.2a52,52,0,0,1,0,8,11.3,11.3,0,0,1,0,2.3,34.3,34.3,0,0,1-.1,3.5c0.1,0.6.4,1.2-.1,1.7a1.7,1.7,0,0,1-1.5-.2c-0.4-.3-0.2-0.9-0.7-1.1s-0.9.6-1.6,0.9a19.4,19.4,0,0,0-2,.7c-1.8-.2-3.5,0-4.7-0.9s-1.4-2.4-2-4,0.2-.7.1-1.2a17.3,17.3,0,0,1,0-4.1,8.1,8.1,0,0,0-.3-0.9,4,4,0,0,1,.3-1.1,5.7,5.7,0,0,1-.2-2.2,3.1,3.1,0,0,1,.4-1.3,0.6,0.6,0,0,1,.4-0.4,1.9,1.9,0,0,1,1.5.2h0Z"/><path class="c208ff35-a046-49a1-a56b-883ac0af9e5c" d="M376.6,59.3c-0.2,1.5-1.9.8-2.7,0.4a15.5,15.5,0,0,0-3.2.1c-0.8.4-1.3,1.2-2.1,1.7a10.7,10.7,0,0,1-.8,2.3,13.2,13.2,0,0,0,.4,5.2,4.5,4.5,0,0,0,1.8,2.1,11.5,11.5,0,0,1,1.7.7,1.6,1.6,0,0,1,1.1.1c1.1-.1,2.2-0.7,3.1-0.7a6.7,6.7,0,0,1,.4,1.3c-0.2,1-1.9,1.1-3,1.3h-2.6l-2.5-1.2a8.3,8.3,0,0,1-2.2-2.9,8.7,8.7,0,0,0-.7-2.4c0-1.1,0-2.2.1-3.4a24.5,24.5,0,0,1,1.1-3.2,15,15,0,0,1,2.9-2.9,6.1,6.1,0,0,0,1.8-.4,20.2,20.2,0,0,1,3.2.1c0.7,0.6,1.9.5,2,1.7h0Z"/><path class="c208ff35-a046-49a1-a56b-883ac0af9e5c" d="M392.7,66.5c-2.6.4-5.9-.1-8.4,0.2-0.6.1-1.5,0-1.9,0.3,0.4,3.1,2,5.3,5.5,5,1.3-.4,2.2-1.5,3.2-0.7s-0.9,1.9-2.3,2.4-1.9.1-2.7,0-2.3-.7-3.3-1a14.2,14.2,0,0,0-1.8-1.8,8.2,8.2,0,0,0-.3-1.2,10,10,0,0,1-.6-2.2,37.1,37.1,0,0,1,.2-5.6c0.3-.8.4-1.3,0.7-2s1.1-1.1,1.5-1.8l1.8-.7c1-.2,2.8.3,3.8-0.2a9.2,9.2,0,0,0,2,.7,15.3,15.3,0,0,1,2.3,2.6,1.9,1.9,0,0,0,.3,1.5,2,2,0,0,0,.3,1.5c-0.3.8,0.4,2.3-.4,2.9h0Zm-2.5-4.8a6.7,6.7,0,0,0-1.4-1.8,7.1,7.1,0,0,0-4.1,0c-0.7,0-1,.7-1.6,1.1s-1.3,2.7-.1,3.7,0.3-.1.3,0a8.6,8.6,0,0,0,2.3-.4,87.4,87.4,0,0,0,5.1-.1,3.2,3.2,0,0,0-.3-2.6h-0.1Z"/><path class="c208ff35-a046-49a1-a56b-883ac0af9e5c" d="M417.3,66.5c-2.6.4-5.9-.1-8.4,0.2-0.6.1-1.5,0-1.9,0.3,0.4,3.1,2,5.3,5.5,5,1.3-.4,2.2-1.5,3.2-0.7s-0.9,1.9-2.3,2.4-1.9.1-2.7,0-2.3-.7-3.3-1a14.1,14.1,0,0,0-1.8-1.8,8,8,0,0,0-.3-1.2,10.1,10.1,0,0,1-.6-2.2,37.1,37.1,0,0,1,.2-5.6c0.3-.8.4-1.3,0.7-2s1.1-1.1,1.5-1.8l1.8-.7c1-.2,2.8.3,3.8-0.2a9.2,9.2,0,0,0,2,.7,15.3,15.3,0,0,1,2.3,2.6,1.8,1.8,0,0,0,.3,1.5,2,2,0,0,0,.3,1.5c-0.3.8,0.4,2.3-.4,2.9h0Zm-2.5-4.8a6.7,6.7,0,0,0-1.4-1.8,7.1,7.1,0,0,0-4.1,0c-0.7,0-1,.7-1.6,1.1s-1.3,2.7-.1,3.7,0.3-.1.3,0a8.6,8.6,0,0,0,2.3-.4,2.6,2.6,0,0,0,2.3,0,2.6,2.6,0,0,0,2.8-.1,3.2,3.2,0,0,0-.3-2.6h-0.1Z"/><path class="c208ff35-a046-49a1-a56b-883ac0af9e5c" d="M424.7,50.9c-0.1,7.3-.5,14.3.4,23.2-0.8-.3-2-0.2-2.3-0.7s-0.2-1-.4-1.7a11.9,11.9,0,0,1,0-1.7c-0.4-3.7.6-8.1,0.2-11.7a19.2,19.2,0,0,1,.2-7.6,2.8,2.8,0,0,1,1.8.1h0Z"/><path class="c208ff35-a046-49a1-a56b-883ac0af9e5c" d="M94.1,84.1a4.7,4.7,0,0,1-1.9,0l-1,.4a9.4,9.4,0,0,0-.9,6c0.4,0.7,2.7,0,3.3.5a2.6,2.6,0,0,1,0,1.8c-0.9.5-2.8-.2-3.3,0.8a16.3,16.3,0,0,1-.3,4.7c0.6,2.4.2,4.3,0.3,6.4s0,2.1-.5,2.4a1.7,1.7,0,0,1-1.7-.2,14.4,14.4,0,0,0-.3-3.1c0.3-1.4,0-2.9.1-4.8s0.2-1.5.2-2.6a1.5,1.5,0,0,1,0-1.1,11.2,11.2,0,0,0-.4-1.9c-0.5-.5-1.8,0-2.3-0.5a1.4,1.4,0,0,1-.3-1.7c0.4-.7,1.6-0.2,2.4-0.4s0.4-2,.7-2.9a31.6,31.6,0,0,1,.2-3.3,4,4,0,0,0,.7-1.5A4.5,4.5,0,0,1,92.6,82a5.8,5.8,0,0,1,1.8.6A3.5,3.5,0,0,1,94.1,84.1Z"/><path class="c208ff35-a046-49a1-a56b-883ac0af9e5c" d="M109.6,100.2c-2.6.4-5.9-.1-8.4,0.2-0.6.1-1.5,0-1.9,0.3,0.4,3.1,2,5.3,5.5,5,1.3-.4,2.2-1.5,3.2-0.7s-0.9,1.9-2.3,2.4-1.9.1-2.7,0-2.3-.7-3.3-1a14.3,14.3,0,0,0-1.8-1.8,8.5,8.5,0,0,0-.3-1.2,9.9,9.9,0,0,1-.6-2.2,37.1,37.1,0,0,1,.2-5.6c0.3-.8.4-1.3,0.7-2s1.1-1.1,1.5-1.8l1.8-.7c1-.2,2.8.3,3.8-0.2a9.2,9.2,0,0,0,2,.7,15.3,15.3,0,0,1,2.3,2.6,1.9,1.9,0,0,0,.3,1.5,2,2,0,0,0,.3,1.5c-0.3.8,0.4,2.3-.4,2.9h0Zm-2.5-4.8a6.7,6.7,0,0,0-1.4-1.8,7.1,7.1,0,0,0-4.1,0c-0.7,0-1,.7-1.6,1.1s-1.3,2.7-.1,3.7,0.3-.1.3,0a8.7,8.7,0,0,0,2.3-.4,2.6,2.6,0,0,0,2.3,0,2.6,2.6,0,0,0,2.8-.1,3.2,3.2,0,0,0-.3-2.6h-0.1Z"/><path class="c208ff35-a046-49a1-a56b-883ac0af9e5c" d="M127.5,107a7,7,0,0,1-1.9.2c-0.4-1.3-.2-2.7,0-4.3s-0.4-3-.2-4.8a9.6,9.6,0,0,0-.4-3.1,2.5,2.5,0,0,0-.1-0.4c-0.7-1-1.7-1.1-2.6-1.7a5.8,5.8,0,0,0-4.3,2.1c-0.1.8-.6,1.4-0.7,2.4a9,9,0,0,1-.1,3.5l0.3,1.2c-0.2,1.4-.3,3.2-0.3,4.6a2,2,0,0,1-1.7.4,4.2,4.2,0,0,1-.3-3.1c-0.1-.6-0.1-1.1-0.2-1.7s0.2-2.3.2-3.6a0.4,0.4,0,0,0,0-.4c0.1-2.2-.1-3.8.2-6a1.1,1.1,0,0,1,.2-1.2c1.5-.4,1.2,1.1,2.1,1.5a14.4,14.4,0,0,0,2-1.5,4.9,4.9,0,0,0,1.9-.4c0.5,0.3,1-.1,1.5,0a5.1,5.1,0,0,1,3.8,2.1,2.1,2.1,0,0,0,.5,1.3c-0.2.6,0.3,1.1,0.2,1.8a9.1,9.1,0,0,1-.1,1,27.4,27.4,0,0,1,.2,3.5,10.3,10.3,0,0,0,.2,3.5c-0.3,1.3.4,2.1-.2,3.1h0Z"/><path class="c208ff35-a046-49a1-a56b-883ac0af9e5c" d="M138.5,90.9l0.2-.2c1.1,0.1,1.6.7,2.8,0.5s2.4,2.4,3.2,3.4,0.2,2,.9,2.8a2.6,2.6,0,0,0,.2,1.8,3.1,3.1,0,0,0,0,1.2c0,1-.7,1.7-0.7,2.8a9,9,0,0,0-1.3,2.1,10.8,10.8,0,0,1-2.5,1.7,7.9,7.9,0,0,1-4.6.1c-0.9-.4-1.7-0.9-2.6-1.4a2.3,2.3,0,0,0-.9-1.3c-0.1-.9-0.7-1.3-0.8-2.1s-0.2-1.4-.4-2.1,0.4-3,.3-4.5a4.9,4.9,0,0,0,1.3-2.1,4.1,4.1,0,0,0,1.2-1.5,25.3,25.3,0,0,1,3.8-1.2h0Zm-1.6,2.6a14.6,14.6,0,0,0-1.7,1.5c-0.9,1.8-.9,3.8-0.8,6.4a7.5,7.5,0,0,0,2.1,3.4,9.5,9.5,0,0,0,3.5.7,12.3,12.3,0,0,1,1.8-1.1l0.5-.8,0.3-.2c0.1-.2,0-0.5.1-0.9l0.4-.5a14.3,14.3,0,0,1,.4-2.5c-0.2-.8-0.1-1.8-0.3-2.7a15.3,15.3,0,0,1-1-2.3,16.2,16.2,0,0,0-2.5-1.3,13.2,13.2,0,0,0-1.5.1,5.9,5.9,0,0,0-1.4.2h0Zm5.7-10.5c0,1.3-1.2,1.6-1.5,2.7s-0.9,1.8-1.7,2.2a1.3,1.3,0,0,1-1.2-.6c0.6-1.5,1.3-2.8,2-4.4s1.8,0,2.5.1h0Z"/><path class="c208ff35-a046-49a1-a56b-883ac0af9e5c" d="M168.6,107.3c-0.5.3-1.1-.1-1.7-0.1s0.1-1-.2-1.1,0.1-.9.1-1.3,0.2-2.5-.3-3.1a3.4,3.4,0,0,0,.3-1.2,19.2,19.2,0,0,1,0-5.5,3.2,3.2,0,0,0-3.8-1.5,2.6,2.6,0,0,0-1.5,1.4,20.8,20.8,0,0,0-.4,3.3,43.2,43.2,0,0,1-.3,6.2c0.3,1.1.7,3-.9,3a1.4,1.4,0,0,1-1.1-1.2,4.5,4.5,0,0,1,.1-0.9,14.3,14.3,0,0,1,0-1.9,6.8,6.8,0,0,1-.2-0.9c0-.6.2-1.1,0.2-2.2a7.9,7.9,0,0,1-.1-3.2c-0.4-.6-0.2-1.6-0.5-2.4a1.9,1.9,0,0,1-.4-0.8,11.8,11.8,0,0,0-1.8-.8,16.7,16.7,0,0,1-2,.6,9.5,9.5,0,0,0-1.4,4,20.5,20.5,0,0,1,.2,6.7,6.8,6.8,0,0,1-.3,2.9,4.3,4.3,0,0,1-1.7-.2c-0.7-1-.1-2.1-0.3-3.4a3.4,3.4,0,0,0-.1-1.1c0.1-2.6-.1-6,0.6-8.9-0.7-.9-0.5-2.5.2-2.6s1,0.9,1.5,1.5,0.8-.8,1.3-1.1a4.5,4.5,0,0,1,1.4-.8l2.2,0.2a16.8,16.8,0,0,0,2.3,1.8,6.9,6.9,0,0,0,1.5-1.1l2.8-1h0.3c0.7,0.4,1.7.5,2.4,1a1.1,1.1,0,0,1,.7.8,2.8,2.8,0,0,1,.7.7c0.4,1.1.2,2.1,0.7,3.1-0.2,2.9.1,5.9,0,8.9a4.2,4.2,0,0,1-.4,2.2h0Z"/><path class="c208ff35-a046-49a1-a56b-883ac0af9e5c" d="M186.1,100.2c-2.6.4-5.9-.1-8.4,0.2-0.6.1-1.5,0-1.9,0.3,0.4,3.1,2,5.3,5.5,5,1.3-.4,2.2-1.5,3.2-0.7s-0.9,1.9-2.3,2.4-1.9.1-2.7,0-2.3-.7-3.3-1a14.2,14.2,0,0,0-1.8-1.8,8.2,8.2,0,0,0-.3-1.2,10,10,0,0,1-.6-2.2,37.1,37.1,0,0,1,.2-5.6c0.3-.8.4-1.3,0.7-2s1.1-1.1,1.5-1.8l1.8-.7c1-.2,2.8.3,3.8-0.2a9.2,9.2,0,0,0,2,.7,15.3,15.3,0,0,1,2.3,2.6,1.9,1.9,0,0,0,.3,1.5,2,2,0,0,0,.3,1.5c-0.3.8,0.4,2.3-.4,2.9h0Zm-2.5-4.8a6.8,6.8,0,0,0-1.4-1.8,7.1,7.1,0,0,0-4.1,0c-0.7,0-1,.7-1.6,1.1s-1.3,2.7-.1,3.7,0.3-.1.3,0A8.7,8.7,0,0,0,179,98a2.6,2.6,0,0,0,2.3,0,2.6,2.6,0,0,0,2.8-.1,3.2,3.2,0,0,0-.3-2.6h-0.1Z"/><path class="c208ff35-a046-49a1-a56b-883ac0af9e5c" d="M204,107a7.1,7.1,0,0,1-1.9.2c-0.4-1.3-.2-2.7,0-4.3s-0.4-3-.2-4.8a9.6,9.6,0,0,0-.4-3.1,2.5,2.5,0,0,0-.1-0.4c-0.7-1-1.7-1.1-2.6-1.7a5.8,5.8,0,0,0-4.3,2.1c-0.1.8-.6,1.4-0.7,2.4a9,9,0,0,1-.1,3.5l0.3,1.2c-0.2,1.4-.3,3.2-0.3,4.6a2,2,0,0,1-1.7.4,4.2,4.2,0,0,1-.3-3.1c-0.1-.6-0.1-1.1-0.2-1.7s0.2-2.3.2-3.6a0.4,0.4,0,0,0,0-.4c0.1-2.2-.1-3.8.2-6a1.1,1.1,0,0,1,.2-1.2c1.5-.4,1.2,1.1,2.1,1.5a14.4,14.4,0,0,0,2-1.5,4.9,4.9,0,0,0,1.9-.4c0.5,0.3,1-.1,1.5,0a5.1,5.1,0,0,1,3.8,2.1,2.1,2.1,0,0,0,.5,1.3c-0.2.6,0.3,1.1,0.2,1.8a9.1,9.1,0,0,1-.1,1,27.2,27.2,0,0,1,.2,3.5,10.2,10.2,0,0,0,.2,3.5c-0.3,1.3.4,2.1-.2,3.1h0Z"/><path class="c208ff35-a046-49a1-a56b-883ac0af9e5c" d="M215,90.9l0.2-.2c1.1,0.1,1.6.7,2.8,0.5s2.4,2.4,3.2,3.4,0.2,2,.9,2.8a2.6,2.6,0,0,0,.2,1.8,3.1,3.1,0,0,0,0,1.2c0,1-.7,1.7-0.7,2.8a9,9,0,0,0-1.3,2.1,10.8,10.8,0,0,1-2.5,1.7,7.9,7.9,0,0,1-4.6.1c-0.9-.4-1.7-0.9-2.6-1.4a2.3,2.3,0,0,0-.9-1.3c-0.1-.9-0.7-1.3-0.8-2.1s-0.2-1.4-.4-2.1,0.4-3,.3-4.5a4.9,4.9,0,0,0,1.3-2.1,4.1,4.1,0,0,0,1.2-1.5,25.2,25.2,0,0,1,3.8-1.2h0Zm-1.6,2.6a14.6,14.6,0,0,0-1.7,1.5c-0.9,1.8-.9,3.8-0.8,6.4a7.5,7.5,0,0,0,2.1,3.4,9.5,9.5,0,0,0,3.5.7,12.3,12.3,0,0,1,1.8-1.1l0.5-.8,0.3-.2c0.1-.2,0-0.5.1-0.9l0.4-.5a14.3,14.3,0,0,1,.4-2.5c-0.2-.8-0.1-1.8-0.3-2.7a15.4,15.4,0,0,1-1-2.3,16.1,16.1,0,0,0-2.5-1.3,13.2,13.2,0,0,0-1.5.1,5.9,5.9,0,0,0-1.4.2h0Z"/><path class="c208ff35-a046-49a1-a56b-883ac0af9e5c" d="M246.9,87.5c0,1,.1,2.4.2,3.3a37.7,37.7,0,0,1-.3,4A25.1,25.1,0,0,1,247,98c-0.1,1.1,0,2.1-.1,3.2s0.1,1.3.1,1.9-0.1,1.2-.1,1.9,0.5,1.7-.5,2.5-1.2-.9-1.6-1.8a3.5,3.5,0,0,0-1.7.8c-0.1.5-1,.5-1.3,0.9a10.7,10.7,0,0,1-4.1-.2,12.7,12.7,0,0,1-2.1-1.2,3.2,3.2,0,0,0-.8-0.9c-1-1.6-1.1-4.2-1.3-6.6a8.3,8.3,0,0,0,.5-2.8c0.7-1.5,1.1-2.8,2.4-3.9a4.2,4.2,0,0,0,1.5-.8,2.7,2.7,0,0,0,1.5-.2l2.9,0.4c0.7,0.3,1.1,1.3,2.2.9s0-1.2.1-2,0.3-4.3.5-5.3a1.1,1.1,0,0,1,1.5-.5C247.3,85.4,246.8,86.4,246.9,87.5Zm-9.1,6.2a7.6,7.6,0,0,0-1.7,2.6c0.3,1.6-.4,2.6-0.2,4a11.3,11.3,0,0,1,.5,2.8c0.5,0.4.7,1.1,1,1.5s1,0.6,1.7.7a7.1,7.1,0,0,0,4.3-1.1,12,12,0,0,0,1.5-3.9c-0.3-1.1,0-2.3-.3-3.5a4.5,4.5,0,0,0-.8-2,4.8,4.8,0,0,0-2.8-1.5c-0.6-.2-1.1.2-1.7-0.1s-0.1,0-.1.2-0.7.4-1.3,0.4h0Z"/><path class="c208ff35-a046-49a1-a56b-883ac0af9e5c" d="M264.7,100.2c-2.6.4-5.9-.1-8.4,0.2-0.6.1-1.5,0-1.9,0.3,0.4,3.1,2,5.3,5.5,5,1.3-.4,2.2-1.5,3.2-0.7s-0.9,1.9-2.3,2.4-1.9.1-2.7,0-2.3-.7-3.3-1a14.2,14.2,0,0,0-1.8-1.8,8.1,8.1,0,0,0-.3-1.2,10.1,10.1,0,0,1-.6-2.2,37.1,37.1,0,0,1,.2-5.6c0.3-.8.4-1.3,0.7-2s1.1-1.1,1.5-1.8l1.8-.7c1-.2,2.8.3,3.8-0.2a9.2,9.2,0,0,0,2,.7,15.4,15.4,0,0,1,2.3,2.6,1.9,1.9,0,0,0,.3,1.5,2,2,0,0,0,.3,1.5c-0.3.8,0.4,2.3-.4,2.9h0Zm-2.5-4.8a6.8,6.8,0,0,0-1.4-1.8,7.1,7.1,0,0,0-4.1,0c-0.7,0-1,.7-1.6,1.1s-1.3,2.7-.1,3.7,0.3-.1.3,0a8.7,8.7,0,0,0,2.3-.4,2.6,2.6,0,0,0,2.3,0,2.6,2.6,0,0,0,2.8-.1,3.2,3.2,0,0,0-.3-2.6h-0.1Z"/><path class="c208ff35-a046-49a1-a56b-883ac0af9e5c" d="M272.1,84.5c-0.1,7.3-.5,14.3.4,23.2-0.8-.3-2-0.2-2.3-0.7s-0.2-1-.4-1.7a11.9,11.9,0,0,1,0-1.7c-0.4-3.7.6-8.1,0.2-11.7a19.2,19.2,0,0,1,.2-7.6,2.8,2.8,0,0,1,1.8.1h0Z"/><path class="c208ff35-a046-49a1-a56b-883ac0af9e5c" d="M295.9,107.3c-0.8,0-.8-0.9-1.5-1.1a9.8,9.8,0,0,0-1.8,1,15.5,15.5,0,0,1-4.4.2c-0.7-.8-1.7-1.2-2.3-1.9s-0.2-2.3-.7-3.2a14.3,14.3,0,0,1,.3-2.4c0.3-.4.6-1.1,0.9-1.5a0.5,0.5,0,0,0,.4-0.3c1.4-.7,2.6-0.7,4.6-1a7.2,7.2,0,0,0,2.5,1.4c1.2-.4.1-1.8,0.3-2.9a4.8,4.8,0,0,0-1.1-1.9c-0.7-.1-1.1-0.4-1.8-0.6s-3,.7-4.1.4a2,2,0,0,1-.6-1.6c0.4-.6,1.5-0.5,2.1-1a30.6,30.6,0,0,1,3.3,0,6,6,0,0,0,2.5.9c1.1,1.6,2.4,3.6,2,6.4,0,0.5.2,0.8,0.2,1.3s-0.2,3.2-.3,4.9a13.2,13.2,0,0,1,.3,2,1.8,1.8,0,0,1-1.1,1h0Zm-6.7-7.7-1.4,1.1c0.2,0.3-.2.3-0.3,0.6s0.3,3.1,1.1,3.4a3.3,3.3,0,0,0,2.9.4,3.2,3.2,0,0,1,1.1-.3c0.9-.8,2-1,2.2-2.6a11.9,11.9,0,0,0-1.7-2.3c-1-.2-1.6-0.5-2.5-0.7l-0.2.2h-1.2Z"/><path class="c208ff35-a046-49a1-a56b-883ac0af9e5c" d="M305.3,84.5c-0.1,7.3-.5,14.3.4,23.2-0.8-.3-2-0.2-2.3-0.7s-0.2-1-.4-1.7a11.9,11.9,0,0,1,0-1.7c-0.4-3.7.6-8.1,0.2-11.7a19.2,19.2,0,0,1,.2-7.6,2.8,2.8,0,0,1,1.8.1h0Z"/><path class="c208ff35-a046-49a1-a56b-883ac0af9e5c" d="M321.5,92.9c-0.2,1.5-1.9.8-2.7,0.4a15.3,15.3,0,0,0-3.2.1c-0.8.4-1.3,1.2-2.1,1.7a10.7,10.7,0,0,1-.8,2.3,13.2,13.2,0,0,0,.4,5.2,4.5,4.5,0,0,0,1.8,2.1,11.5,11.5,0,0,1,1.7.7,1.6,1.6,0,0,1,1.1.1c1.1-.1,2.2-0.7,3.1-0.7a6.7,6.7,0,0,1,.4,1.3c-0.2,1-1.9,1.1-3,1.3h-2.6l-2.5-1.2a8.3,8.3,0,0,1-2.2-2.9,8.7,8.7,0,0,0-.7-2.4c0-1.1,0-2.2.1-3.4a24.8,24.8,0,0,1,1.1-3.2,15.1,15.1,0,0,1,2.9-2.9,6.2,6.2,0,0,0,1.8-.4,20.2,20.2,0,0,1,3.2.1c0.7,0.6,1.9.5,2,1.7h0Z"/><path class="c208ff35-a046-49a1-a56b-883ac0af9e5c" d="M331.4,90.9l0.2-.2c1.1,0.1,1.6.7,2.8,0.5s2.4,2.4,3.2,3.4,0.2,2,.9,2.8a2.6,2.6,0,0,0,.2,1.8,3.1,3.1,0,0,0,0,1.2c0,1-.7,1.7-0.7,2.8a9,9,0,0,0-1.3,2.1,10.8,10.8,0,0,1-2.5,1.7,7.9,7.9,0,0,1-4.6.1c-0.9-.4-1.7-0.9-2.6-1.4a2.3,2.3,0,0,0-.9-1.3c-0.1-.9-0.7-1.3-0.8-2.1s-0.2-1.4-.4-2.1,0.4-3,.3-4.5a4.9,4.9,0,0,0,1.3-2.1,4.1,4.1,0,0,0,1.2-1.5,25.2,25.2,0,0,1,3.8-1.2h0Zm-1.6,2.6a14.6,14.6,0,0,0-1.7,1.5c-0.9,1.8-.9,3.8-0.8,6.4a7.5,7.5,0,0,0,2.1,3.4,9.5,9.5,0,0,0,3.5.7,12.3,12.3,0,0,1,1.8-1.1l0.5-.8,0.3-.2c0.1-.2,0-0.5.1-0.9l0.4-.5a14.3,14.3,0,0,1,.4-2.5c-0.2-.8-0.1-1.8-0.3-2.7a15.4,15.4,0,0,1-1-2.3,16.1,16.1,0,0,0-2.5-1.3,13.2,13.2,0,0,0-1.5.1,5.9,5.9,0,0,0-1.4.2h0Z"/><path class="c208ff35-a046-49a1-a56b-883ac0af9e5c" d="M345.8,84.5a37.8,37.8,0,0,0,0,4.4,4.8,4.8,0,0,0,.1,1.1c0.1,0.8-.2,2.1.2,2.7s1.3-.9,2.1-1.3a2.5,2.5,0,0,0,1.1-.3c1.4-.2,2.6.2,4.1,0.2a10.5,10.5,0,0,1,2.2,2.4,7.1,7.1,0,0,0,.5,1.9,48.4,48.4,0,0,1,0,11.4c-0.8.9-1.5,0.2-2.1-.1s0-3-.1-4.4a2.9,2.9,0,0,1,.2-0.7c0-1.8-.5-3.5-0.2-5.4a8.7,8.7,0,0,0-.4-1.7,4.7,4.7,0,0,0-2.4-1.4l-2.2.3c-0.8,0-.9.8-1.7,0.9a21.1,21.1,0,0,1-1,1.9c-0.9,3.9,0,7.3-.4,10.7a4.7,4.7,0,0,1-2.1,0,64,64,0,0,1,0-6.8,11.9,11.9,0,0,1-.2-2.2c0-1.9.4-4.1,0.1-5.5s0.2-2.8-.3-3.7,0.3-3.4.2-4.4a2.8,2.8,0,0,1,2.3,0h0Z"/><path class="c208ff35-a046-49a1-a56b-883ac0af9e5c" d="M367.2,90.9l0.2-.2c1.1,0.1,1.6.7,2.8,0.5s2.4,2.4,3.2,3.4,0.2,2,.9,2.8a2.6,2.6,0,0,0,.2,1.8,3.1,3.1,0,0,0,0,1.2c0,1-.7,1.7-0.7,2.8a9,9,0,0,0-1.3,2.1,10.8,10.8,0,0,1-2.5,1.7,7.9,7.9,0,0,1-4.6.1c-0.9-.4-1.7-0.9-2.6-1.4a2.3,2.3,0,0,0-.9-1.3c-0.1-.9-0.7-1.3-0.8-2.1s-0.2-1.4-.4-2.1,0.4-3,.3-4.5a4.9,4.9,0,0,0,1.3-2.1,4.1,4.1,0,0,0,1.2-1.5,25.3,25.3,0,0,1,3.8-1.2h0Zm-1.6,2.6a14.6,14.6,0,0,0-1.7,1.5c-0.9,1.8-.9,3.8-0.8,6.4a7.5,7.5,0,0,0,2.1,3.4,9.5,9.5,0,0,0,3.5.7,12.3,12.3,0,0,1,1.8-1.1l0.5-.8,0.3-.2c0.1-.2,0-0.5.1-0.9l0.4-.5a14.3,14.3,0,0,1,.4-2.5c-0.2-.8-0.1-1.8-0.3-2.7a15.3,15.3,0,0,1-1-2.3,16.2,16.2,0,0,0-2.5-1.3,13.2,13.2,0,0,0-1.5.1,5.9,5.9,0,0,0-1.4.2h0Z"/><path class="c208ff35-a046-49a1-a56b-883ac0af9e5c" d="M381.5,84.5c-0.1,7.3-.5,14.3.4,23.2-0.8-.3-2-0.2-2.3-0.7s-0.2-1-.4-1.7a11.6,11.6,0,0,1,0-1.7c-0.4-3.7.6-8.1,0.2-11.7a19.2,19.2,0,0,1,.2-7.6,2.8,2.8,0,0,1,1.8.1h0Z"/><path class="c208ff35-a046-49a1-a56b-883ac0af9e5c" d="M407.4,100.2c-2.6.4-5.9-.1-8.4,0.2-0.6.1-1.5,0-1.9,0.3,0.4,3.1,2,5.3,5.5,5,1.3-.4,2.2-1.5,3.2-0.7s-0.9,1.9-2.3,2.4-1.9.1-2.7,0-2.3-.7-3.3-1a14.3,14.3,0,0,0-1.8-1.8,8.5,8.5,0,0,0-.3-1.2,9.9,9.9,0,0,1-.6-2.2,37.1,37.1,0,0,1,.2-5.6c0.3-.8.4-1.3,0.7-2s1.1-1.1,1.5-1.8l1.8-.7c1-.2,2.8.3,3.8-0.2a9.2,9.2,0,0,0,2,.7,15.3,15.3,0,0,1,2.3,2.6,1.9,1.9,0,0,0,.3,1.5,2,2,0,0,0,.3,1.5c-0.3.8,0.4,2.3-.4,2.9h0Zm-2.5-4.8a6.7,6.7,0,0,0-1.4-1.8,7.1,7.1,0,0,0-4.1,0c-0.7,0-1,.7-1.6,1.1s-1.3,2.7-.1,3.7,0.3-.1.3,0a8.7,8.7,0,0,0,2.3-.4,2.6,2.6,0,0,0,2.3,0,2.6,2.6,0,0,0,2.8-.1,3.2,3.2,0,0,0-.3-2.6h-0.1Z"/><path class="c208ff35-a046-49a1-a56b-883ac0af9e5c" d="M425.2,107a7,7,0,0,1-1.9.2c-0.4-1.3-.2-2.7,0-4.3s-0.4-3-.2-4.8a9.6,9.6,0,0,0-.4-3.1,2.5,2.5,0,0,0-.1-0.4c-0.7-1-1.7-1.1-2.6-1.7a5.8,5.8,0,0,0-4.3,2.1c-0.1.8-.6,1.4-0.7,2.4a9,9,0,0,1-.1,3.5l0.3,1.2c-0.2,1.4-.3,3.2-0.3,4.6a2,2,0,0,1-1.7.4,4.2,4.2,0,0,1-.3-3.1c-0.1-.6-0.1-1.1-0.2-1.7s0.2-2.3.2-3.6a0.4,0.4,0,0,0,0-.4c0.1-2.2-.1-3.8.2-6a1.1,1.1,0,0,1,.2-1.2c1.5-.4,1.2,1.1,2.1,1.5a14.4,14.4,0,0,0,2-1.5,4.9,4.9,0,0,0,1.9-.4c0.5,0.3,1-.1,1.5,0a5.1,5.1,0,0,1,3.8,2.1,2.1,2.1,0,0,0,.5,1.3c-0.2.6,0.3,1.1,0.2,1.8a9.1,9.1,0,0,1-.1,1,27.4,27.4,0,0,1,.2,3.5,10.3,10.3,0,0,0,.2,3.5c-0.3,1.3.4,2.1-.2,3.1h0Z"/><path class="c208ff35-a046-49a1-a56b-883ac0af9e5c" d="M90.2,120.5a7.6,7.6,0,0,1-.9,1,10.1,10.1,0,0,1-3.7-1.7l-4.3.4a4.7,4.7,0,0,0-2.6,1.3c-1,.7-1.3,1.6-2.2,2.6s-0.8,4-1,6,0.4,2.9.8,4.2a5.2,5.2,0,0,1,1.2,2.3c1.7,0.9,3,2.4,5.1,2.2s1.6,0,2.5.1a13.2,13.2,0,0,0,3.3-1.3c0.9-.2,1.1-1.3,2.2-0.8s-0.9,2-1.3,2.7a15.5,15.5,0,0,1-6.4,1.8,6.1,6.1,0,0,0-2.8-.5c-0.4-.4-1.3-0.5-1.7-1.1l-1.8-1c-0.6-.9-1.3-1.6-2-2.6a26.2,26.2,0,0,1-1.2-3.1c0-1.8-.3-3.2-0.3-4.9a51,51,0,0,1,1.1-5.4,22.6,22.6,0,0,0,2-2.7,5.5,5.5,0,0,0,1.7-1.1c1.3-.4,2.4-1.1,3.7-1.3a15.2,15.2,0,0,0,2.1-.2c0.8,0.2,1.3.6,2.2,0.3s1.7,0.7,2.2,1.2a2.5,2.5,0,0,1,1.9,1.5H90.2Z"/><path class="c208ff35-a046-49a1-a56b-883ac0af9e5c" d="M98.4,118.1a37.6,37.6,0,0,0,0,4.4,4.8,4.8,0,0,0,.1,1.1c0.1,0.8-.2,2.1.2,2.7s1.3-.9,2.1-1.3a2.5,2.5,0,0,0,1.1-.3c1.4-.2,2.6.2,4.1,0.2a10.5,10.5,0,0,1,2.2,2.4,7.1,7.1,0,0,0,.5,1.9,48.4,48.4,0,0,1,0,11.4c-0.8.9-1.5,0.2-2.1-.1s0-3-.1-4.4a2.9,2.9,0,0,1,.2-0.7c0-1.8-.5-3.5-0.2-5.4a8.8,8.8,0,0,0-.4-1.7,4.7,4.7,0,0,0-2.4-1.4l-2.2.3c-0.8,0-.9.8-1.7,0.9a20.6,20.6,0,0,1-1,1.9c-0.9,3.9,0,7.3-.4,10.7a4.7,4.7,0,0,1-2.1,0,63.7,63.7,0,0,1,0-6.8,12.1,12.1,0,0,1-.2-2.2c0-1.9.4-4.1,0.1-5.5s0.2-2.8-.3-3.7,0.3-3.4.2-4.4a2.8,2.8,0,0,1,2.3,0h0Z"/><path class="c208ff35-a046-49a1-a56b-883ac0af9e5c" d="M117.7,120.5a2,2,0,0,1-.9,2.1c-1.5.2-2.5-.3-2.4-1.9a0.7,0.7,0,0,0,.2-0.4,2,2,0,0,1,3.1.4h0ZM116.6,141a4.9,4.9,0,0,1-1.7-.3c-0.1-2.8-.1-5.1-0.4-8.2a9.1,9.1,0,0,0,.5-2.2,11.3,11.3,0,0,1-.2-2.8c0-.8-0.3-1.7.3-2.4s0.8-.5,1.1-0.2,0.8,1.9.9,2.9a49.9,49.9,0,0,0,.3,7.8,12.6,12.6,0,0,0-.2,2.8c0,1.1.1,2-.7,2.6h0.1Z"/><path class="c208ff35-a046-49a1-a56b-883ac0af9e5c" d="M125.6,118.2c-0.1,7.3-.5,14.3.4,23.2-0.8-.3-2-0.2-2.3-0.7s-0.2-1-.4-1.7a12.1,12.1,0,0,1,0-1.7c-0.4-3.7.6-8.1,0.2-11.7a19.2,19.2,0,0,1,.2-7.6,2.8,2.8,0,0,1,1.8.1h0Z"/><path class="c208ff35-a046-49a1-a56b-883ac0af9e5c" d="M143.4,133.8c-2.6.4-5.9-.1-8.4,0.2-0.6.1-1.5,0-1.9,0.3,0.4,3.1,2,5.3,5.5,5,1.3-.4,2.2-1.5,3.2-0.7s-0.9,1.9-2.3,2.4-1.9.1-2.7,0-2.3-.7-3.3-1a14.3,14.3,0,0,0-1.8-1.8,8.4,8.4,0,0,0-.3-1.2,10.1,10.1,0,0,1-.6-2.2,37.1,37.1,0,0,1,.2-5.6c0.3-.8.4-1.3,0.7-2s1.1-1.1,1.5-1.8l1.8-.7c1-.2,2.8.3,3.8-0.2a9.2,9.2,0,0,0,2,.7,15.4,15.4,0,0,1,2.3,2.6,1.9,1.9,0,0,0,.3,1.5,2,2,0,0,0,.3,1.5c-0.3.8,0.4,2.3-.4,2.9h0Zm-2.5-4.8a6.7,6.7,0,0,0-1.4-1.8,7.1,7.1,0,0,0-4.1,0c-0.7,0-1,.7-1.6,1.1s-1.3,2.7-.1,3.7,0.3-.1.3,0a8.7,8.7,0,0,0,2.3-.4,2.6,2.6,0,0,0,2.3,0,2.6,2.6,0,0,0,2.8-.1,3.2,3.2,0,0,0-.3-2.6h-0.1Z"/><path class="c208ff35-a046-49a1-a56b-883ac0af9e5c" d="M161.4,126.8a4.4,4.4,0,0,0-2.9.9,11.3,11.3,0,0,0-.3,1.5,3.3,3.3,0,0,0,1.8,1.9,15.6,15.6,0,0,0,2.5,1.1,3.8,3.8,0,0,0,2,1.1,3.7,3.7,0,0,0,.9,1.3c0.3,0.5.4,0.9,0.7,1.4a4.1,4.1,0,0,1-.7,3.3,5.1,5.1,0,0,1-1.3,1.2c-0.7.4-2,.4-2.9,0.7s-4.5-.1-5.3-1.8,0.5-.7.7-1.1,3.7,1.3,5.7.8a3.1,3.1,0,0,0,1.5-2.1c0-1.5-1.4-2.1-2.3-2.8a11.6,11.6,0,0,0-2.4-.9,10.2,10.2,0,0,1-2.5-1.9,10.6,10.6,0,0,1-.8-2c0-1,.3-1.5.2-2.6l1.2-1.5,1.8-.7a14.8,14.8,0,0,1,3.8.1c0.3,0.3,1.3,0,1.5.7S162.5,127,161.4,126.8Z"/><path class="c208ff35-a046-49a1-a56b-883ac0af9e5c" d="M182.3,133.8c-2.6.4-5.9-.1-8.4,0.2-0.6.1-1.5,0-1.9,0.3,0.4,3.1,2,5.3,5.5,5,1.3-.4,2.2-1.5,3.2-0.7s-0.9,1.9-2.3,2.4-1.9.1-2.7,0-2.3-.7-3.3-1a14.3,14.3,0,0,0-1.8-1.8,8.5,8.5,0,0,0-.3-1.2,9.9,9.9,0,0,1-.6-2.2,37.1,37.1,0,0,1,.2-5.6c0.3-.8.4-1.3,0.7-2s1.1-1.1,1.5-1.8l1.8-.7c1-.2,2.8.3,3.8-0.2a9.2,9.2,0,0,0,2,.7,15.3,15.3,0,0,1,2.3,2.6,1.9,1.9,0,0,0,.3,1.5,2,2,0,0,0,.3,1.5c-0.3.8,0.4,2.3-.4,2.9h0Zm-2.5-4.8a6.7,6.7,0,0,0-1.4-1.8,7.1,7.1,0,0,0-4.1,0c-0.7,0-1,.7-1.6,1.1s-1.3,2.7-.1,3.7,0.3-.1.3,0a8.7,8.7,0,0,0,2.3-.4,2.6,2.6,0,0,0,2.3,0,2.6,2.6,0,0,0,2.8-.1,3.2,3.2,0,0,0-.3-2.6h-0.1Z"/><path class="c208ff35-a046-49a1-a56b-883ac0af9e5c" d="M207,133.8c-2.6.4-5.9-.1-8.4,0.2-0.6.1-1.5,0-1.9,0.3,0.4,3.1,2,5.3,5.5,5,1.3-.4,2.2-1.5,3.2-0.7s-0.9,1.9-2.3,2.4-1.9.1-2.7,0-2.3-.7-3.3-1a14.3,14.3,0,0,0-1.8-1.8,8.4,8.4,0,0,0-.3-1.2,10.1,10.1,0,0,1-.6-2.2,37.1,37.1,0,0,1,.2-5.6c0.3-.8.4-1.3,0.7-2s1.1-1.1,1.5-1.8l1.8-.7c1-.2,2.8.3,3.8-0.2a9.2,9.2,0,0,0,2,.7,15.4,15.4,0,0,1,2.3,2.6,1.9,1.9,0,0,0,.3,1.5,2,2,0,0,0,.3,1.5c-0.3.8,0.4,2.3-.4,2.9h0Zm-2.5-4.8a6.7,6.7,0,0,0-1.4-1.8,7.1,7.1,0,0,0-4.1,0c-0.7,0-1,.7-1.6,1.1s-1.3,2.7-.1,3.7,0.3-.1.3,0a8.7,8.7,0,0,0,2.3-.4,2.6,2.6,0,0,0,2.3,0,2.6,2.6,0,0,0,2.8-.1,3.2,3.2,0,0,0-.3-2.6h-0.1Z"/><path class="c208ff35-a046-49a1-a56b-883ac0af9e5c" d="M216.9,126.8a4.4,4.4,0,0,0-2.9.9,11.3,11.3,0,0,0-.3,1.5,3.3,3.3,0,0,0,1.8,1.9,15.6,15.6,0,0,0,2.5,1.1,3.8,3.8,0,0,0,2,1.1,3.7,3.7,0,0,0,.9,1.3c0.3,0.5.4,0.9,0.7,1.4a4.1,4.1,0,0,1-.7,3.3,5.2,5.2,0,0,1-1.3,1.2c-0.7.4-2,.4-2.9,0.7s-4.5-.1-5.3-1.8,0.5-.7.7-1.1,3.7,1.3,5.7.8a3.1,3.1,0,0,0,1.5-2.1c0-1.5-1.4-2.1-2.3-2.8a11.6,11.6,0,0,0-2.4-.9,10.2,10.2,0,0,1-2.5-1.9,10.5,10.5,0,0,1-.8-2c0-1,.3-1.5.2-2.6l1.2-1.5,1.8-.7a14.8,14.8,0,0,1,3.8.1c0.3,0.3,1.3,0,1.5.7S218,127,216.9,126.8Z"/><path class="c208ff35-a046-49a1-a56b-883ac0af9e5c" d="M230.2,118.5c0.2,2.2-.9,4.6.5,6.3a7.3,7.3,0,0,1,2.3-.1,2,2,0,0,1,.3,2.2c-0.8.2-2.1-.4-2.9,0.2a1.2,1.2,0,0,1-.4.6c0.2,1.4-.1,3,0.4,4.3s-0.1,2.2-.4,3.2a20.9,20.9,0,0,1,.3,2.9l1.1,0.8c1.2,0.4,2.7.1,2.3,1.8s-1.6.4-2.5,0.4a8.8,8.8,0,0,0-1.8-.6,9.3,9.3,0,0,1-1.3-1.7,8.3,8.3,0,0,0-.3-2.4c-0.3-2.6.1-5.8-.3-9.2-0.4-.5-1.5-0.5-2.6-0.6a2.2,2.2,0,0,1,.1-2.1c0.9-.1,2.6.1,2.9-0.9a14.2,14.2,0,0,0-.2-1.5c0.1-1.9-.2-3.2.4-4.3a2,2,0,0,1,1.9.4h0Z"/><path class="c208ff35-a046-49a1-a56b-883ac0af9e5c" d="M241.8,120.5a2,2,0,0,1-.9,2.1c-1.5.2-2.5-.3-2.4-1.9a0.7,0.7,0,0,0,.2-0.4,2,2,0,0,1,3.1.4h0ZM240.7,141a4.9,4.9,0,0,1-1.7-.3c-0.1-2.8-.1-5.1-0.4-8.2a9.1,9.1,0,0,0,.5-2.2,11.3,11.3,0,0,1-.2-2.8c0-.8-0.3-1.7.3-2.4s0.8-.5,1.1-0.2,0.8,1.9.9,2.9a49.9,49.9,0,0,0,.3,7.8,12.6,12.6,0,0,0-.2,2.8c0,1.1.1,2-.7,2.6h0.1Z"/><path class="c208ff35-a046-49a1-a56b-883ac0af9e5c" d="M265.6,141c-0.5.3-1.1-.1-1.7-0.1s0.1-1-.2-1.1,0.1-.9.1-1.3,0.2-2.5-.3-3.1a3.4,3.4,0,0,0,.3-1.2,19.2,19.2,0,0,1,0-5.5,3.2,3.2,0,0,0-3.8-1.5,2.6,2.6,0,0,0-1.5,1.4,20.8,20.8,0,0,0-.4,3.3,43.3,43.3,0,0,1-.3,6.2c0.3,1.1.7,3-.9,3a1.4,1.4,0,0,1-1.1-1.2,4.5,4.5,0,0,1,.1-0.9,14.5,14.5,0,0,1,0-1.9,7,7,0,0,1-.2-0.9c0-.6.2-1.1,0.2-2.2a7.8,7.8,0,0,1-.1-3.2c-0.4-.6-0.2-1.6-0.5-2.4a1.9,1.9,0,0,1-.4-0.8,11.7,11.7,0,0,0-1.8-.8,16.5,16.5,0,0,1-2,.6,9.5,9.5,0,0,0-1.4,4,20.5,20.5,0,0,1,.2,6.7,6.8,6.8,0,0,1-.3,2.9,4.3,4.3,0,0,1-1.7-.2c-0.7-1-.1-2.1-0.3-3.4a3.3,3.3,0,0,0-.1-1.1c0.1-2.6-.1-6,0.6-8.9-0.7-.9-0.5-2.5.2-2.6s1,0.9,1.5,1.5,0.8-.8,1.3-1.1a4.5,4.5,0,0,1,1.4-.8l2.2,0.2a16.8,16.8,0,0,0,2.3,1.8,6.9,6.9,0,0,0,1.5-1.1l2.8-1h0.3c0.7,0.4,1.7.5,2.4,1a1.1,1.1,0,0,1,.7.8,2.8,2.8,0,0,1,.7.7c0.4,1.1.2,2.1,0.7,3.1-0.2,2.9.1,5.9,0,8.9a4.2,4.2,0,0,1-.4,2.2h0Z"/><path class="c208ff35-a046-49a1-a56b-883ac0af9e5c" d="M281,140.9c-0.8,0-.8-0.9-1.5-1.1a9.8,9.8,0,0,0-1.8,1,15.5,15.5,0,0,1-4.4.2c-0.7-.8-1.7-1.2-2.3-1.9s-0.2-2.3-.7-3.2a14.3,14.3,0,0,1,.3-2.4c0.3-.4.6-1.1,0.9-1.5a0.5,0.5,0,0,0,.4-0.3c1.4-.7,2.6-0.7,4.6-1a7.2,7.2,0,0,0,2.5,1.4c1.2-.4.1-1.8,0.3-2.9a4.8,4.8,0,0,0-1.1-1.9c-0.7-.1-1.1-0.4-1.8-0.6s-3,.7-4.1.4a2,2,0,0,1-.6-1.6c0.4-.6,1.5-0.5,2.1-1a30.6,30.6,0,0,1,3.3,0,6,6,0,0,0,2.5.9c1.1,1.6,2.4,3.6,2,6.4,0,0.5.2,0.8,0.2,1.3s-0.2,3.2-.3,4.9a13.2,13.2,0,0,1,.3,2,1.8,1.8,0,0,1-1.1,1h0Zm-6.7-7.7-1.4,1.1c0.2,0.3-.2.3-0.3,0.6s0.3,3.1,1.1,3.4a3.3,3.3,0,0,0,2.9.4,3.2,3.2,0,0,1,1.1-.3c0.9-.8,2-1,2.2-2.6a11.9,11.9,0,0,0-1.7-2.3c-1-.2-1.6-0.5-2.5-0.7l-0.2.2h-1.2Z"/><path class="c208ff35-a046-49a1-a56b-883ac0af9e5c" d="M300.8,140.6a7,7,0,0,1-1.9.2c-0.4-1.3-.2-2.7,0-4.3s-0.4-3-.2-4.8a9.6,9.6,0,0,0-.4-3.1,2.6,2.6,0,0,0-.1-0.4c-0.7-1-1.7-1.1-2.6-1.7a5.8,5.8,0,0,0-4.3,2.1c-0.1.8-.6,1.4-0.7,2.4a9,9,0,0,1-.1,3.5l0.3,1.2c-0.2,1.4-.3,3.2-0.3,4.6a2,2,0,0,1-1.7.4,4.2,4.2,0,0,1-.3-3.1c-0.1-.6-0.1-1.1-0.2-1.7s0.2-2.3.2-3.6a0.4,0.4,0,0,0,0-.4c0.1-2.2-.1-3.8.2-6a1.1,1.1,0,0,1,.2-1.2c1.5-.4,1.2,1.1,2.1,1.5a14.4,14.4,0,0,0,2-1.5,4.9,4.9,0,0,0,1.9-.4c0.5,0.3,1-.1,1.5,0a5.1,5.1,0,0,1,3.8,2.1,2.2,2.2,0,0,0,.5,1.3c-0.2.6,0.3,1.1,0.2,1.8a9.1,9.1,0,0,1-.1,1,27,27,0,0,1,.2,3.5,10.3,10.3,0,0,0,.2,3.5c-0.3,1.3.4,2.1-.2,3.1h0Z"/><path class="c208ff35-a046-49a1-a56b-883ac0af9e5c" d="M326.2,133.8c-2.6.4-5.9-.1-8.4,0.2-0.6.1-1.5,0-1.9,0.3,0.4,3.1,2,5.3,5.5,5,1.3-.4,2.2-1.5,3.2-0.7s-0.9,1.9-2.3,2.4-1.9.1-2.7,0-2.3-.7-3.3-1a14.2,14.2,0,0,0-1.8-1.8,8.1,8.1,0,0,0-.3-1.2,10.1,10.1,0,0,1-.6-2.2,37.1,37.1,0,0,1,.2-5.6c0.3-.8.4-1.3,0.7-2s1.1-1.1,1.5-1.8l1.8-.7c1-.2,2.8.3,3.8-0.2a9.2,9.2,0,0,0,2,.7,15.4,15.4,0,0,1,2.3,2.6,1.9,1.9,0,0,0,.3,1.5,2,2,0,0,0,.3,1.5c-0.3.8,0.4,2.3-.4,2.9h0Zm-2.5-4.8a6.8,6.8,0,0,0-1.4-1.8,7.1,7.1,0,0,0-4.1,0c-0.7,0-1,.7-1.6,1.1s-1.3,2.7-.1,3.7,0.3-.1.3,0a8.7,8.7,0,0,0,2.3-.4,2.6,2.6,0,0,0,2.3,0,2.6,2.6,0,0,0,2.8-.1,3.2,3.2,0,0,0-.3-2.6h-0.1Z"/><path class="c208ff35-a046-49a1-a56b-883ac0af9e5c" d="M344,140.6a7,7,0,0,1-1.9.2c-0.4-1.3-.2-2.7,0-4.3s-0.4-3-.2-4.8a9.6,9.6,0,0,0-.4-3.1,2.6,2.6,0,0,0-.1-0.4c-0.7-1-1.7-1.1-2.6-1.7a5.8,5.8,0,0,0-4.3,2.1c-0.1.8-.6,1.4-0.7,2.4a9,9,0,0,1-.1,3.5l0.3,1.2c-0.2,1.4-.3,3.2-0.3,4.6a2,2,0,0,1-1.7.4,4.2,4.2,0,0,1-.3-3.1c-0.1-.6-0.1-1.1-0.2-1.7s0.2-2.3.2-3.6a0.4,0.4,0,0,0,0-.4c0.1-2.2-.1-3.8.2-6a1.1,1.1,0,0,1,.2-1.2c1.5-.4,1.2,1.1,2.1,1.5a14.4,14.4,0,0,0,2-1.5,4.9,4.9,0,0,0,1.9-.4c0.5,0.3,1-.1,1.5,0a5.1,5.1,0,0,1,3.8,2.1,2.2,2.2,0,0,0,.5,1.3c-0.2.6,0.3,1.1,0.2,1.8a9.1,9.1,0,0,1-.1,1,27,27,0,0,1,.2,3.5,10.3,10.3,0,0,0,.2,3.5c-0.3,1.3.4,2.1-.2,3.1h0Z"/><path class="c208ff35-a046-49a1-a56b-883ac0af9e5c" d="M367.9,126.6c-0.2,1.5-1.9.8-2.7,0.4a15.3,15.3,0,0,0-3.2.1c-0.8.4-1.3,1.2-2.1,1.7a10.8,10.8,0,0,1-.8,2.3,13.2,13.2,0,0,0,.4,5.2,4.5,4.5,0,0,0,1.8,2.1,11.6,11.6,0,0,1,1.7.7,1.6,1.6,0,0,1,1.1.1c1.1-.1,2.2-0.7,3.1-0.7a6.7,6.7,0,0,1,.4,1.3c-0.2,1-1.9,1.1-3,1.3h-2.6l-2.5-1.2a8.3,8.3,0,0,1-2.2-2.9,8.7,8.7,0,0,0-.7-2.4c0-1.1,0-2.2.1-3.4a24.8,24.8,0,0,1,1.1-3.2,15.1,15.1,0,0,1,2.9-2.9,6.1,6.1,0,0,0,1.8-.4,20.2,20.2,0,0,1,3.2.1c0.7,0.6,1.9.5,2,1.7h0Z"/><path class="c208ff35-a046-49a1-a56b-883ac0af9e5c" d="M383.9,133.8c-2.6.4-5.9-.1-8.4,0.2-0.6.1-1.5,0-1.9,0.3,0.4,3.1,2,5.3,5.5,5,1.3-.4,2.2-1.5,3.2-0.7s-0.9,1.9-2.3,2.4-1.9.1-2.7,0-2.3-.7-3.3-1a14.3,14.3,0,0,0-1.8-1.8,8.5,8.5,0,0,0-.3-1.2,9.9,9.9,0,0,1-.6-2.2,37.1,37.1,0,0,1,.2-5.6c0.3-.8.4-1.3,0.7-2s1.1-1.1,1.5-1.8l1.8-.7c1-.2,2.8.3,3.8-0.2a9.2,9.2,0,0,0,2,.7,15.3,15.3,0,0,1,2.3,2.6,1.9,1.9,0,0,0,.3,1.5,2,2,0,0,0,.3,1.5c-0.3.8,0.4,2.3-.4,2.9h0Zm-2.5-4.8a6.7,6.7,0,0,0-1.4-1.8,7.1,7.1,0,0,0-4.1,0c-0.7,0-1,.7-1.6,1.1s-1.3,2.7-.1,3.7,0.3-.1.3,0a8.7,8.7,0,0,0,2.3-.4,2.6,2.6,0,0,0,2.3,0,2.6,2.6,0,0,0,2.8-.1,3.2,3.2,0,0,0-.3-2.6h-0.1Z"/><path class="c208ff35-a046-49a1-a56b-883ac0af9e5c" d="M395.6,124.6a2.1,2.1,0,0,1,.4,2.1c-0.9.3-2.2,0.4-2.9,0.5s-1.2,2-1.8,3a68.9,68.9,0,0,1-.4,11l-1.6-.3c-0.6-.9-0.1-1.5-0.1-2.5s-0.2-1-.2-1.5,0.1-.8.1-1.1-0.2-3.7-.1-5.9a6.1,6.1,0,0,0-.1-2.8c0.3-.9,0-1.8.8-2.2a1.6,1.6,0,0,1,1.1.4c0.3,0.2.2,0.8,0.7,0.8s1.3-.8,2.2-1.1,1.3,0,1.6-.3h0.3Z"/><path class="c208ff35-a046-49a1-a56b-883ac0af9e5c" d="M409.9,126.6c-0.2,1.5-1.9.8-2.7,0.4a15.3,15.3,0,0,0-3.2.1c-0.8.4-1.3,1.2-2.1,1.7a10.8,10.8,0,0,1-.8,2.3,13.2,13.2,0,0,0,.4,5.2,4.5,4.5,0,0,0,1.8,2.1,11.6,11.6,0,0,1,1.7.7,1.6,1.6,0,0,1,1.1.1c1.1-.1,2.2-0.7,3.1-0.7a6.7,6.7,0,0,1,.4,1.3c-0.2,1-1.9,1.1-3,1.3h-2.6l-2.5-1.2a8.3,8.3,0,0,1-2.2-2.9,8.7,8.7,0,0,0-.7-2.4c0-1.1,0-2.2.1-3.4a24.9,24.9,0,0,1,1.1-3.2,15.1,15.1,0,0,1,2.9-2.9,6.2,6.2,0,0,0,1.8-.4,20.2,20.2,0,0,1,3.2.1c0.7,0.6,1.9.5,2,1.7h0Z"/><path class="c208ff35-a046-49a1-a56b-883ac0af9e5c" d="M424,140.9c-0.8,0-.8-0.9-1.5-1.1a9.8,9.8,0,0,0-1.8,1,15.5,15.5,0,0,1-4.4.2c-0.7-.8-1.7-1.2-2.3-1.9s-0.2-2.3-.7-3.2a14.5,14.5,0,0,1,.3-2.4c0.3-.4.6-1.1,0.9-1.5a0.5,0.5,0,0,0,.4-0.3c1.4-.7,2.6-0.7,4.6-1a7.2,7.2,0,0,0,2.5,1.4c1.2-.4.1-1.8,0.3-2.9a4.8,4.8,0,0,0-1.1-1.9c-0.7-.1-1.1-0.4-1.8-0.6s-3,.7-4.1.4a2,2,0,0,1-.6-1.6c0.4-.6,1.5-0.5,2.1-1a30.6,30.6,0,0,1,3.3,0,6,6,0,0,0,2.5.9c1.1,1.6,2.4,3.6,2,6.4,0,0.5.2,0.8,0.2,1.3s-0.2,3.2-.3,4.9a13.5,13.5,0,0,1,.3,2,1.8,1.8,0,0,1-1.1,1h0Zm-6.7-7.7-1.4,1.1c0.2,0.3-.2.3-0.3,0.6s0.3,3.1,1.1,3.4a3.3,3.3,0,0,0,2.9.4,3.1,3.1,0,0,1,1.1-.3c0.9-.8,2-1,2.2-2.6a11.9,11.9,0,0,0-1.7-2.3c-1-.2-1.6-0.5-2.5-0.7l-0.2.2h-1.2Z"/></svg>