<svg id="428e75e3-b48e-4f46-a256-584edb03f606" data-name="Capa 1" xmlns="http://www.w3.org/2000/svg" viewBox="0 0 340.7 254.5"><defs><style>.d458e874-4db6-4bd9-aef7-69a23cd3583f{fill:#fff;}.\34 6676680-b13e-4a10-85a5-6063372e2b3e{fill:#d18b2b;}</style></defs><title>img08</title><path class="d458e874-4db6-4bd9-aef7-69a23cd3583f" d="M38.2,102.2a7,7,0,0,1-1.9.2c-0.4-1.3-.2-2.7,0-4.3s-0.4-3-.2-4.8a9.6,9.6,0,0,0-.4-3.1,2.5,2.5,0,0,0-.1-0.4c-0.7-1-1.7-1.1-2.6-1.7a5.8,5.8,0,0,0-4.3,2.1c-0.1.8-.6,1.4-0.7,2.4a9,9,0,0,1-.1,3.5l0.3,1.2c-0.2,1.4-.3,3.2-0.3,4.6a2,2,0,0,1-1.7.4,4.2,4.2,0,0,1-.3-3.1c-0.1-.6-0.1-1.1-0.2-1.7s0.2-2.3.2-3.6a0.4,0.4,0,0,0,0-.4c0.1-2.2-.1-3.8.2-6a1.1,1.1,0,0,1,.2-1.2c1.5-.4,1.2,1.1,2.1,1.5a14.4,14.4,0,0,0,2-1.5A4.9,4.9,0,0,0,32,86c0.5,0.3,1-.1,1.5,0a5.1,5.1,0,0,1,3.8,2.1,2.2,2.2,0,0,0,.5,1.3c-0.2.6,0.3,1.1,0.2,1.8a9.1,9.1,0,0,1-.1,1,27.2,27.2,0,0,1,.2,3.5,10.3,10.3,0,0,0,.2,3.5c-0.3,1.3.4,2.1-.2,3.1h0Z"/><path class="d458e874-4db6-4bd9-aef7-69a23cd3583f" d="M49.2,86.1l0.2-.2c1.1,0.1,1.6.7,2.8,0.5s2.4,2.4,3.2,3.4,0.2,2,.9,2.8a2.6,2.6,0,0,0,.2,1.8,3.1,3.1,0,0,0,0,1.2c0,1-.7,1.7-0.7,2.8a9,9,0,0,0-1.3,2.1,10.8,10.8,0,0,1-2.5,1.7,7.9,7.9,0,0,1-4.6.1c-0.9-.4-1.7-0.9-2.6-1.4a2.3,2.3,0,0,0-.9-1.3c-0.1-.9-0.7-1.3-0.8-2.1s-0.2-1.4-.4-2.1,0.4-3,.3-4.5a4.9,4.9,0,0,0,1.3-2.1,4.1,4.1,0,0,0,1.2-1.5,25.2,25.2,0,0,1,3.8-1.2h0Zm-1.6,2.6a14.5,14.5,0,0,0-1.7,1.5c-0.9,1.8-.9,3.8-0.8,6.4a7.5,7.5,0,0,0,2.1,3.4,9.5,9.5,0,0,0,3.5.7,12.2,12.2,0,0,1,1.8-1.1l0.5-.8,0.3-.2c0.1-.2,0-0.5.1-0.9l0.4-.5a14.4,14.4,0,0,1,.4-2.5C54.1,94,54.2,92.9,54,92a15.3,15.3,0,0,1-1-2.3,16.1,16.1,0,0,0-2.5-1.3,13.2,13.2,0,0,0-1.5.1,5.9,5.9,0,0,0-1.4.2h0Z"/><path class="d458e874-4db6-4bd9-aef7-69a23cd3583f" d="M74.1,88.4a4.4,4.4,0,0,0-2.9.9,11.3,11.3,0,0,0-.3,1.5,3.3,3.3,0,0,0,1.8,1.9,15.7,15.7,0,0,0,2.5,1.1,3.8,3.8,0,0,0,2,1.1,3.7,3.7,0,0,0,.9,1.3c0.3,0.5.4,0.9,0.7,1.4a4.1,4.1,0,0,1-.7,3.3,5.1,5.1,0,0,1-1.3,1.2c-0.7.4-2,.4-2.9,0.7s-4.5-.1-5.3-1.8,0.5-.7.7-1.1,3.7,1.3,5.7.8a3.1,3.1,0,0,0,1.5-2.1c0-1.5-1.4-2.1-2.3-2.8a11.6,11.6,0,0,0-2.4-.9,10.2,10.2,0,0,1-2.5-1.9,10.5,10.5,0,0,1-.8-2c0-1,.3-1.5.2-2.6L70,86.9l1.8-.7a14.8,14.8,0,0,1,3.8.1c0.3,0.3,1.3,0,1.5.7S75.3,88.5,74.1,88.4Z"/><path class="d458e874-4db6-4bd9-aef7-69a23cd3583f" d="M88.9,86.1L89,86c1.1,0.1,1.6.7,2.8,0.5s2.4,2.4,3.2,3.4,0.2,2,.9,2.8a2.6,2.6,0,0,0,.2,1.8,3.1,3.1,0,0,0,0,1.2c0,1-.7,1.7-0.7,2.8a9,9,0,0,0-1.3,2.1,10.8,10.8,0,0,1-2.5,1.7,7.9,7.9,0,0,1-4.6.1c-0.9-.4-1.7-0.9-2.6-1.4a2.3,2.3,0,0,0-.9-1.3c-0.1-.9-0.7-1.3-0.8-2.1s-0.2-1.4-.4-2.1,0.4-3,.3-4.5a4.9,4.9,0,0,0,1.3-2.1,4.1,4.1,0,0,0,1.2-1.5,25.3,25.3,0,0,1,3.8-1.2h0Zm-1.6,2.6a14.6,14.6,0,0,0-1.7,1.5c-0.9,1.8-.9,3.8-0.8,6.4a7.5,7.5,0,0,0,2.1,3.4,9.5,9.5,0,0,0,3.5.7,12.3,12.3,0,0,1,1.8-1.1l0.5-.8,0.3-.2c0.1-.2,0-0.5.1-0.9l0.4-.5a14.2,14.2,0,0,1,.4-2.5c-0.2-.8-0.1-1.8-0.3-2.7a15.3,15.3,0,0,1-1-2.3,16.2,16.2,0,0,0-2.5-1.3,13.2,13.2,0,0,0-1.5.1,5.9,5.9,0,0,0-1.4.2h0Z"/><path class="d458e874-4db6-4bd9-aef7-69a23cd3583f" d="M103.3,79.7c-0.1,7.3-.5,14.3.4,23.2-0.8-.3-2-0.2-2.3-0.7s-0.2-1-.4-1.7a11.8,11.8,0,0,1,0-1.7c-0.4-3.7.6-8.1,0.2-11.7a19.2,19.2,0,0,1,.2-7.6,2.8,2.8,0,0,1,1.8.1h0Z"/><path class="d458e874-4db6-4bd9-aef7-69a23cd3583f" d="M114.7,86.1l0.2-.2c1.1,0.1,1.6.7,2.8,0.5s2.4,2.4,3.2,3.4,0.2,2,.9,2.8a2.6,2.6,0,0,0,.2,1.8,3.1,3.1,0,0,0,0,1.2c0,1-.7,1.7-0.7,2.8a9,9,0,0,0-1.3,2.1,10.8,10.8,0,0,1-2.5,1.7,7.9,7.9,0,0,1-4.6.1c-0.9-.4-1.7-0.9-2.6-1.4a2.3,2.3,0,0,0-.9-1.3c-0.1-.9-0.7-1.3-0.8-2.1s-0.2-1.4-.4-2.1,0.4-3,.3-4.5a4.9,4.9,0,0,0,1.3-2.1,4.1,4.1,0,0,0,1.2-1.5,25.3,25.3,0,0,1,3.8-1.2h0Zm-1.6,2.6a14.6,14.6,0,0,0-1.7,1.5c-0.9,1.8-.9,3.8-0.8,6.4a7.5,7.5,0,0,0,2.1,3.4,9.5,9.5,0,0,0,3.5.7,12.3,12.3,0,0,1,1.8-1.1l0.5-.8,0.3-.2c0.1-.2,0-0.5.1-0.9l0.4-.5a14.2,14.2,0,0,1,.4-2.5c-0.2-.8-0.1-1.8-0.3-2.7a15.3,15.3,0,0,1-1-2.3,16.2,16.2,0,0,0-2.5-1.3,13.2,13.2,0,0,0-1.5.1,5.9,5.9,0,0,0-1.4.2h0Z"/><path class="d458e874-4db6-4bd9-aef7-69a23cd3583f" d="M144.2,102.5c-0.8,0-.8-0.9-1.5-1.1a9.8,9.8,0,0,0-1.8,1,15.5,15.5,0,0,1-4.4.2c-0.7-.8-1.7-1.2-2.3-1.9s-0.2-2.3-.7-3.2a14.4,14.4,0,0,1,.3-2.4c0.3-.4.6-1.1,0.9-1.5a0.5,0.5,0,0,0,.4-0.3c1.4-.7,2.6-0.7,4.6-1a7.2,7.2,0,0,0,2.5,1.4c1.2-.4.1-1.8,0.3-2.9a4.8,4.8,0,0,0-1.1-1.9c-0.7-.1-1.1-0.4-1.8-0.6s-3,.7-4.1.4a2,2,0,0,1-.6-1.6c0.4-.6,1.5-0.5,2.1-1a30.6,30.6,0,0,1,3.3,0,6,6,0,0,0,2.5.9c1.1,1.6,2.4,3.6,2,6.4,0,0.5.2,0.8,0.2,1.3s-0.2,3.2-.3,4.9a13.3,13.3,0,0,1,.3,2,1.8,1.8,0,0,1-1.1,1h0Zm-6.7-7.7-1.4,1.1c0.2,0.3-.2.3-0.3,0.6s0.3,3.1,1.1,3.4a3.3,3.3,0,0,0,2.9.4,3.2,3.2,0,0,1,1.1-.3c0.9-.8,2-1,2.2-2.6a11.9,11.9,0,0,0-1.7-2.3c-1-.2-1.6-0.5-2.5-0.7l-0.2.2h-1.2Z"/><path class="d458e874-4db6-4bd9-aef7-69a23cd3583f" d="M158.5,79.3a4.7,4.7,0,0,1-1.9,0l-1,.4a9.4,9.4,0,0,0-.9,6c0.4,0.7,2.7,0,3.3.5a2.6,2.6,0,0,1,0,1.8c-0.9.5-2.8-.2-3.3,0.8a16.3,16.3,0,0,1-.3,4.7c0.6,2.4.2,4.3,0.3,6.4s0,2.1-.5,2.4a1.7,1.7,0,0,1-1.7-.2,14.4,14.4,0,0,0-.3-3.1c0.3-1.4,0-2.9.1-4.8s0.2-1.5.2-2.6a1.5,1.5,0,0,1,0-1.1,11.1,11.1,0,0,0-.4-1.9c-0.5-.5-1.8,0-2.3-0.5a1.4,1.4,0,0,1-.3-1.7c0.4-.7,1.6-0.2,2.4-0.4s0.4-2,.7-2.9a31.6,31.6,0,0,1,.2-3.3,4,4,0,0,0,.7-1.5,4.5,4.5,0,0,1,3.4-1.3,5.8,5.8,0,0,1,1.8.6A3.5,3.5,0,0,1,158.5,79.3Z"/><path class="d458e874-4db6-4bd9-aef7-69a23cd3583f" d="M174.1,95.4c-2.6.4-5.9-.1-8.4,0.2-0.6.1-1.5,0-1.9,0.3,0.4,3.1,2,5.3,5.5,5,1.3-.4,2.2-1.5,3.2-0.7s-0.9,1.9-2.3,2.4-1.9.1-2.7,0-2.3-.7-3.3-1a14.3,14.3,0,0,0-1.8-1.8,8.2,8.2,0,0,0-.3-1.2,10,10,0,0,1-.6-2.2,37.1,37.1,0,0,1,.2-5.6c0.3-.8.4-1.3,0.7-2s1.1-1.1,1.5-1.8l1.8-.7c1-.2,2.8.3,3.8-0.2a9.2,9.2,0,0,0,2,.7,15.3,15.3,0,0,1,2.3,2.6,1.9,1.9,0,0,0,.3,1.5,2,2,0,0,0,.3,1.5c-0.3.8,0.4,2.3-.4,2.9h0Zm-2.5-4.8a6.7,6.7,0,0,0-1.4-1.8,7.1,7.1,0,0,0-4.1,0c-0.7,0-1,.7-1.6,1.1s-1.3,2.7-.1,3.7,0.3-.1.3,0a8.7,8.7,0,0,0,2.3-.4,2.6,2.6,0,0,0,2.3,0,2.6,2.6,0,0,0,2.8-.1,3.2,3.2,0,0,0-.3-2.6h-0.1Z"/><path class="d458e874-4db6-4bd9-aef7-69a23cd3583f" d="M189,88.1c-0.2,1.5-1.9.8-2.7,0.4a15.3,15.3,0,0,0-3.2.1c-0.8.4-1.3,1.2-2.1,1.7a10.8,10.8,0,0,1-.8,2.3,13.2,13.2,0,0,0,.4,5.2,4.5,4.5,0,0,0,1.8,2.1,11.6,11.6,0,0,1,1.7.7,1.6,1.6,0,0,1,1.1.1c1.1-.1,2.2-0.7,3.1-0.7a6.7,6.7,0,0,1,.4,1.3c-0.2,1-1.9,1.1-3,1.3h-2.6l-2.5-1.2a8.3,8.3,0,0,1-2.2-2.9,8.7,8.7,0,0,0-.7-2.4c0-1.1,0-2.2.1-3.4a24.8,24.8,0,0,1,1.1-3.2,15.1,15.1,0,0,1,2.9-2.9,6.1,6.1,0,0,0,1.8-.4,20.2,20.2,0,0,1,3.2.1c0.7,0.6,1.9.5,2,1.7h0Z"/><path class="d458e874-4db6-4bd9-aef7-69a23cd3583f" d="M197.9,80.1c0.2,2.2-.9,4.6.5,6.3a7.3,7.3,0,0,1,2.3-.1,2,2,0,0,1,.3,2.2c-0.8.2-2.1-.4-2.9,0.2a1.2,1.2,0,0,1-.4.6c0.2,1.4-.1,3,0.4,4.3s-0.1,2.2-.4,3.2a21,21,0,0,1,.3,2.9l1.1,0.8c1.2,0.4,2.7.1,2.3,1.8s-1.6.4-2.5,0.4a8.8,8.8,0,0,0-1.8-.6,9.3,9.3,0,0,1-1.3-1.7,8.3,8.3,0,0,0-.3-2.4c-0.3-2.6.1-5.8-.3-9.2-0.4-.5-1.5-0.5-2.6-0.6a2.2,2.2,0,0,1,.1-2.1c0.9-.1,2.6.1,2.9-0.9a14.2,14.2,0,0,0-.2-1.5c0.1-1.9-.2-3.2.4-4.3a2,2,0,0,1,1.9.4h0Z"/><path class="d458e874-4db6-4bd9-aef7-69a23cd3583f" d="M215.8,102.5c-0.8,0-.8-0.9-1.5-1.1a9.8,9.8,0,0,0-1.8,1,15.5,15.5,0,0,1-4.4.2c-0.7-.8-1.7-1.2-2.3-1.9s-0.2-2.3-.7-3.2a14.4,14.4,0,0,1,.3-2.4c0.3-.4.6-1.1,0.9-1.5a0.5,0.5,0,0,0,.4-0.3c1.4-.7,2.6-0.7,4.6-1a7.2,7.2,0,0,0,2.5,1.4c1.2-.4.1-1.8,0.3-2.9a4.8,4.8,0,0,0-1.1-1.9c-0.7-.1-1.1-0.4-1.8-0.6s-3,.7-4.1.4a2,2,0,0,1-.6-1.6c0.4-.6,1.5-0.5,2.1-1a30.6,30.6,0,0,1,3.3,0,6,6,0,0,0,2.5.9c1.1,1.6,2.4,3.6,2,6.4,0,0.5.2,0.8,0.2,1.3s-0.2,3.2-.3,4.9a13.3,13.3,0,0,1,.3,2,1.8,1.8,0,0,1-1.1,1h0Zm-6.7-7.7-1.4,1.1c0.2,0.3-.2.3-0.3,0.6s0.3,3.1,1.1,3.4a3.3,3.3,0,0,0,2.9.4,3.1,3.1,0,0,1,1.1-.3c0.9-.8,2-1,2.2-2.6a11.9,11.9,0,0,0-1.7-2.3c-1-.2-1.6-0.5-2.5-0.7l-0.2.2h-1.2Z"/><path class="d458e874-4db6-4bd9-aef7-69a23cd3583f" d="M234.7,80.1c0.2,2.2-.9,4.6.5,6.3a7.3,7.3,0,0,1,2.3-.1,2,2,0,0,1,.3,2.2c-0.8.2-2.1-.4-2.9,0.2a1.2,1.2,0,0,1-.4.6c0.2,1.4-.1,3,0.4,4.3s-0.1,2.2-.4,3.2a21,21,0,0,1,.3,2.9l1.1,0.8c1.2,0.4,2.7.1,2.3,1.8s-1.6.4-2.5,0.4a8.8,8.8,0,0,0-1.8-.6,9.3,9.3,0,0,1-1.3-1.7,8.3,8.3,0,0,0-.3-2.4c-0.3-2.6.1-5.8-.3-9.2-0.4-.5-1.5-0.5-2.6-0.6a2.2,2.2,0,0,1,.1-2.1c0.9-.1,2.6.1,2.9-0.9a14.2,14.2,0,0,0-.2-1.5c0.1-1.9-.2-3.2.4-4.3a2,2,0,0,1,1.9.4h0Z"/><path class="d458e874-4db6-4bd9-aef7-69a23cd3583f" d="M245.3,86.6c0.1,3.3-.2,6.6.2,10.1a9.1,9.1,0,0,0,.4,2.1c0.7,1.3,2.2,1.7,3.5,2s1.8-1.1,2.8-1.4a16.5,16.5,0,0,0,1.1-3,2.7,2.7,0,0,1,.3-2.1c0.1-2.1-.3-5.4-0.1-7.7,0.8-.4,1.8-0.4,2.2.2a52,52,0,0,1,0,8,11.4,11.4,0,0,1,0,2.3,34.6,34.6,0,0,1-.1,3.5c0.1,0.6.4,1.2-.1,1.7a1.7,1.7,0,0,1-1.5-.2c-0.4-.3-0.2-0.9-0.7-1.1s-0.9.6-1.6,0.9a18.7,18.7,0,0,0-2,.7c-1.8-.2-3.5,0-4.7-0.9s-1.4-2.4-2-4,0.2-.7.1-1.2a17.3,17.3,0,0,1,0-4.1,8.5,8.5,0,0,0-.3-0.9,3.9,3.9,0,0,1,.3-1.1,5.7,5.7,0,0,1-.2-2.2,3.1,3.1,0,0,1,.4-1.3,0.6,0.6,0,0,1,.4-0.4,1.9,1.9,0,0,1,1.5.2h0Z"/><path class="d458e874-4db6-4bd9-aef7-69a23cd3583f" d="M22.1,122.1a4.4,4.4,0,0,0-2.9.9,11.4,11.4,0,0,0-.3,1.5,3.3,3.3,0,0,0,1.8,1.9,15.8,15.8,0,0,0,2.5,1.1,3.8,3.8,0,0,0,2,1.1,3.7,3.7,0,0,0,.9,1.3c0.3,0.5.4,0.9,0.7,1.4a4.1,4.1,0,0,1-.7,3.3,5.1,5.1,0,0,1-1.3,1.2c-0.7.4-2,.4-2.9,0.7s-4.5-.1-5.3-1.8,0.5-.7.7-1.1,3.7,1.3,5.7.8a3.1,3.1,0,0,0,1.5-2.1c0-1.5-1.4-2.1-2.3-2.8a11.6,11.6,0,0,0-2.4-.9,10.2,10.2,0,0,1-2.5-1.9,10.5,10.5,0,0,1-.8-2c0-1,.3-1.5.2-2.6l1.2-1.5,1.8-.7a14.8,14.8,0,0,1,3.8.1c0.3,0.3,1.3,0,1.5.7S23.3,122.2,22.1,122.1Z"/><path class="d458e874-4db6-4bd9-aef7-69a23cd3583f" d="M41.1,136.1c-0.8,0-.8-0.9-1.5-1.1a9.7,9.7,0,0,0-1.8,1,15.6,15.6,0,0,1-4.4.2c-0.7-.8-1.7-1.2-2.3-1.9s-0.2-2.3-.7-3.2a14.4,14.4,0,0,1,.3-2.4c0.3-.4.6-1.1,0.9-1.5A0.5,0.5,0,0,0,32,127c1.4-.7,2.6-0.7,4.6-1a7.2,7.2,0,0,0,2.5,1.4c1.2-.4.1-1.8,0.3-2.9a4.8,4.8,0,0,0-1.1-1.9c-0.7-.1-1.1-0.4-1.8-0.6s-3,.7-4.1.4a2,2,0,0,1-.6-1.6c0.4-.6,1.5-0.5,2.1-1a30.1,30.1,0,0,1,3.3,0,6,6,0,0,0,2.5.9c1.1,1.6,2.4,3.6,2,6.4,0,0.5.2,0.8,0.2,1.3s-0.2,3.2-.3,4.9a13.4,13.4,0,0,1,.3,2,1.8,1.8,0,0,1-1.1,1h0Zm-6.7-7.7L33,129.6c0.2,0.3-.2.3-0.3,0.6s0.3,3.1,1.1,3.4a3.3,3.3,0,0,0,2.9.4,3.1,3.1,0,0,1,1.1-.3c0.9-.8,2-1,2.2-2.6a11.7,11.7,0,0,0-1.7-2.3c-1-.2-1.6-0.5-2.5-0.7l-0.2.2H34.4Z"/><path class="d458e874-4db6-4bd9-aef7-69a23cd3583f" d="M50.5,113.4c-0.1,7.3-.5,14.3.4,23.2-0.8-.3-2-0.2-2.3-0.7s-0.2-1-.4-1.7a11.7,11.7,0,0,1,0-1.7c-0.4-3.7.6-8.1,0.2-11.7a19.2,19.2,0,0,1,.2-7.6,2.8,2.8,0,0,1,1.8.1h0Z"/><path class="d458e874-4db6-4bd9-aef7-69a23cd3583f" d="M58.8,120.3c0.1,3.3-.2,6.6.2,10.1a9.1,9.1,0,0,0,.4,2.1c0.7,1.3,2.2,1.7,3.5,2s1.8-1.1,2.8-1.4a16.4,16.4,0,0,0,1.1-3,2.7,2.7,0,0,1,.3-2.1c0.1-2.1-.3-5.4-0.1-7.7,0.8-.4,1.8-0.4,2.2.2a52,52,0,0,1,0,8,11.4,11.4,0,0,1,0,2.3,34.6,34.6,0,0,1-.1,3.5c0.1,0.6.4,1.2-.1,1.7a1.7,1.7,0,0,1-1.5-.2c-0.4-.3-0.2-0.9-0.7-1.1s-0.9.6-1.6,0.9a19.6,19.6,0,0,0-2,.7c-1.8-.2-3.5,0-4.7-0.9s-1.4-2.4-2-4,0.2-.7.1-1.2a17.3,17.3,0,0,1,0-4.1,8.5,8.5,0,0,0-.3-0.9,3.9,3.9,0,0,1,.3-1.1,5.7,5.7,0,0,1-.2-2.2,3.1,3.1,0,0,1,.4-1.3,0.6,0.6,0,0,1,.4-0.4,1.9,1.9,0,0,1,1.5.2h0Z"/><path class="d458e874-4db6-4bd9-aef7-69a23cd3583f" d="M87.2,116.4c0,1,.1,2.4.2,3.3a37.4,37.4,0,0,1-.3,4,24.9,24.9,0,0,1,.2,3.2c-0.1,1.1,0,2.1-.1,3.2s0.1,1.3.1,1.9-0.1,1.2-.1,1.9,0.5,1.7-.5,2.5-1.2-.9-1.6-1.8a3.5,3.5,0,0,0-1.7.8c-0.1.5-1,.5-1.3,0.9A10.7,10.7,0,0,1,78,136a12.5,12.5,0,0,1-2.1-1.2,3.2,3.2,0,0,0-.8-0.9c-1-1.6-1.1-4.2-1.3-6.6a8.3,8.3,0,0,0,.5-2.8c0.7-1.5,1.1-2.8,2.4-3.9a4.3,4.3,0,0,0,1.5-.8,2.7,2.7,0,0,0,1.5-.2l2.9,0.4c0.7,0.3,1.1,1.3,2.2.9s0-1.2.1-2,0.3-4.3.5-5.3a1.1,1.1,0,0,1,1.5-.5C87.6,114.3,87.1,115.2,87.2,116.4Zm-9.1,6.2a7.7,7.7,0,0,0-1.7,2.6c0.3,1.6-.4,2.6-0.2,4a11.4,11.4,0,0,1,.5,2.8c0.5,0.4.7,1.1,1,1.5s1,0.6,1.7.7a7.1,7.1,0,0,0,4.3-1.1,12,12,0,0,0,1.5-3.9c-0.3-1.1,0-2.3-.3-3.5a4.5,4.5,0,0,0-.8-2,4.8,4.8,0,0,0-2.8-1.5c-0.6-.2-1.1.2-1.7-0.1s-0.1,0-.1.2-0.7.4-1.3,0.4h0Z"/><path class="d458e874-4db6-4bd9-aef7-69a23cd3583f" d="M94,138.7c-0.4-.8.4-1.3,0.3-2.2s-0.7-1.1-.5-2.2,1.8-1.2,2.3-.4l0.2,0.2c0,1.4-.1,2.1-1,2.7s-0.4,2.1-1.3,1.8h0Z"/><path class="d458e874-4db6-4bd9-aef7-69a23cd3583f" d="M114.7,113.7c0.2,2.2-.9,4.6.5,6.3a7.3,7.3,0,0,1,2.3-.1,2,2,0,0,1,.3,2.2c-0.8.2-2.1-.4-2.9,0.2a1.2,1.2,0,0,1-.4.6c0.2,1.4-.1,3,0.4,4.3s-0.1,2.2-.4,3.2a21.1,21.1,0,0,1,.3,2.9l1.1,0.8c1.2,0.4,2.7.1,2.3,1.8s-1.6.4-2.5,0.4a8.7,8.7,0,0,0-1.8-.6,9.4,9.4,0,0,1-1.3-1.7,8.3,8.3,0,0,0-.3-2.4c-0.3-2.6.1-5.8-.3-9.2-0.4-.5-1.5-0.5-2.6-0.6a2.2,2.2,0,0,1,.1-2.1c0.9-.1,2.6.1,2.9-0.9a14.2,14.2,0,0,0-.2-1.5c0.1-1.9-.2-3.2.4-4.3a2,2,0,0,1,1.9.4h0Z"/><path class="d458e874-4db6-4bd9-aef7-69a23cd3583f" d="M132.6,136.1c-0.8,0-.8-0.9-1.5-1.1a9.7,9.7,0,0,0-1.8,1,15.6,15.6,0,0,1-4.4.2c-0.7-.8-1.7-1.2-2.3-1.9s-0.2-2.3-.7-3.2a14.4,14.4,0,0,1,.3-2.4c0.3-.4.6-1.1,0.9-1.5a0.5,0.5,0,0,0,.4-0.3c1.4-.7,2.6-0.7,4.6-1a7.2,7.2,0,0,0,2.5,1.4c1.2-.4.1-1.8,0.3-2.9a4.8,4.8,0,0,0-1.1-1.9c-0.7-.1-1.1-0.4-1.8-0.6s-3,.7-4.1.4a2,2,0,0,1-.6-1.6c0.4-.6,1.5-0.5,2.1-1a30.1,30.1,0,0,1,3.3,0,6,6,0,0,0,2.5.9c1.1,1.6,2.4,3.6,2,6.4,0,0.5.2,0.8,0.2,1.3s-0.2,3.2-.3,4.9a13.4,13.4,0,0,1,.3,2,1.8,1.8,0,0,1-1.1,1h0Zm-6.7-7.7-1.4,1.1c0.2,0.3-.2.3-0.3,0.6s0.3,3.1,1.1,3.4a3.3,3.3,0,0,0,2.9.4,3.1,3.1,0,0,1,1.1-.3c0.9-.8,2-1,2.2-2.6a11.7,11.7,0,0,0-1.7-2.3c-1-.2-1.6-0.5-2.5-0.7l-0.2.2h-1.2Z"/><path class="d458e874-4db6-4bd9-aef7-69a23cd3583f" d="M157.8,136.2c-0.5.3-1.1-.1-1.7-0.1s0.1-1-.2-1.1,0.1-.9.1-1.3,0.2-2.5-.3-3.1a3.4,3.4,0,0,0,.3-1.2,19.2,19.2,0,0,1,0-5.5,3.2,3.2,0,0,0-3.8-1.5,2.6,2.6,0,0,0-1.5,1.4,20.8,20.8,0,0,0-.4,3.3,43.3,43.3,0,0,1-.3,6.2c0.3,1.1.7,3-.9,3a1.4,1.4,0,0,1-1.1-1.2,4.6,4.6,0,0,1,.1-0.9,14.5,14.5,0,0,1,0-1.9,6.9,6.9,0,0,1-.2-0.9c0-.6.2-1.1,0.2-2.2a7.8,7.8,0,0,1-.1-3.2c-0.4-.6-0.2-1.6-0.5-2.4a1.9,1.9,0,0,1-.4-0.8,11.6,11.6,0,0,0-1.8-.8,16.6,16.6,0,0,1-2,.6,9.5,9.5,0,0,0-1.4,4,20.5,20.5,0,0,1,.2,6.7,6.8,6.8,0,0,1-.3,2.9,4.3,4.3,0,0,1-1.7-.2c-0.7-1-.1-2.1-0.3-3.4a3.3,3.3,0,0,0-.1-1.1c0.1-2.6-.1-6,0.6-8.9-0.7-.9-0.5-2.5.2-2.6s1,0.9,1.5,1.5,0.8-.8,1.3-1.1a4.6,4.6,0,0,1,1.4-.8l2.2,0.2a16.9,16.9,0,0,0,2.3,1.8,6.8,6.8,0,0,0,1.5-1.1l2.8-1h0.3c0.7,0.4,1.7.5,2.4,1a1.1,1.1,0,0,1,.7.8,2.8,2.8,0,0,1,.7.7c0.4,1.1.2,2.1,0.7,3.1-0.2,2.9.1,5.9,0,8.9a4.2,4.2,0,0,1-.4,2.2h0Z"/><path class="d458e874-4db6-4bd9-aef7-69a23cd3583f" d="M166.3,117a20.7,20.7,0,0,0,.3,4c0.9,0.5,1.3-.3,1.9-0.6l1.5-.4c1,0.2,3-.2,3.8.4s1.4,1.3,2.2,1.8a42.2,42.2,0,0,1,1.3,4.1c-0.1.9,0,1.7,0,2.7a8.1,8.1,0,0,1-1.4,5.3,8.7,8.7,0,0,1-2.2,1.9,19.7,19.7,0,0,1-4.4.2c-0.5-.2-0.9-0.6-1.5-0.8a5.3,5.3,0,0,0-1.2-1c-0.7,0-.4.8-0.7,1.1a1.4,1.4,0,0,1-1.3.5c-0.5-.2-0.4-0.9-0.7-1.4,0.1-5.5.2-9.2,0.5-15.1a9.2,9.2,0,0,1-.6-3.7c0-.9.2-1.8,0.2-2.4a2.7,2.7,0,0,1,1.8-.4C166.7,114.4,166.1,115.4,166.3,117Zm2.8,5.4a5.7,5.7,0,0,0-1.7,1.3,1,1,0,0,1-.5.7,12.2,12.2,0,0,1-.7,2.6c0.3,0.4,0,.7,0,1.2s0.4,2.1.6,3.2,0.9,2,1.8,2.4a4.2,4.2,0,0,0,1.9.5,5,5,0,0,0,3.2-.9,1.2,1.2,0,0,1,.6-0.8,26.9,26.9,0,0,0,.8-6.6,5.5,5.5,0,0,1-.7-2.1c-0.6-.4-1.2-1.2-2-1.8a7.1,7.1,0,0,0-3.2.3h-0.1Z"/><path class="d458e874-4db6-4bd9-aef7-69a23cd3583f" d="M185.1,115.7a2,2,0,0,1-.9,2.1c-1.5.2-2.5-.3-2.4-1.9a0.7,0.7,0,0,0,.2-0.4,2,2,0,0,1,3.1.4h0ZM184,136.2a4.9,4.9,0,0,1-1.7-.3c-0.1-2.8-.1-5.1-0.4-8.2a9.1,9.1,0,0,0,.5-2.2,11.3,11.3,0,0,1-.2-2.8c0-.8-0.3-1.7.3-2.4s0.8-.5,1.1-0.2,0.8,1.9.9,2.9a50,50,0,0,0,.3,7.8,12.7,12.7,0,0,0-.2,2.8c0,1.1.1,2-.7,2.6H184Z"/><path class="d458e874-4db6-4bd9-aef7-69a23cd3583f" d="M202.2,129c-2.6.4-5.9-.1-8.4,0.2-0.6.1-1.5,0-1.9,0.3,0.4,3.1,2,5.3,5.5,5,1.3-.4,2.2-1.5,3.2-0.7s-0.9,1.9-2.3,2.4-1.9.1-2.7,0-2.3-.7-3.3-1a14.1,14.1,0,0,0-1.8-1.8,8.1,8.1,0,0,0-.3-1.2,10,10,0,0,1-.6-2.2,37.1,37.1,0,0,1,.2-5.6c0.3-.8.4-1.3,0.7-2s1.1-1.1,1.5-1.8l1.8-.7c1-.2,2.8.3,3.8-0.2a9.2,9.2,0,0,0,2,.7,15.2,15.2,0,0,1,2.3,2.6,1.9,1.9,0,0,0,.3,1.5,2,2,0,0,0,.3,1.5c-0.3.8,0.4,2.3-.4,2.9h0Zm-2.5-4.8a6.7,6.7,0,0,0-1.4-1.8,7.1,7.1,0,0,0-4.1,0c-0.7,0-1,.7-1.6,1.1s-1.3,2.7-.1,3.7,0.3-.1.3,0a8.6,8.6,0,0,0,2.3-.4,2.6,2.6,0,0,0,2.3,0,2.6,2.6,0,0,0,2.8-.1,3.2,3.2,0,0,0-.3-2.6h-0.1Zm0-12.3c-0.1,1.1-.9,1.6-1.5,2.7s-0.9,1.6-1.7,2.1a1,1,0,0,1-1.1-.6,34.7,34.7,0,0,1,1.8-4.5,3.4,3.4,0,0,1,2.4.2h0.1Z"/><path class="d458e874-4db6-4bd9-aef7-69a23cd3583f" d="M220,135.8a7.1,7.1,0,0,1-1.9.2c-0.4-1.3-.2-2.7,0-4.3s-0.4-3-.2-4.8a9.6,9.6,0,0,0-.4-3.1,2.6,2.6,0,0,0-.1-0.4c-0.7-1-1.7-1.1-2.6-1.7a5.8,5.8,0,0,0-4.3,2.1c-0.1.8-.6,1.4-0.7,2.4a9,9,0,0,1-.1,3.5l0.3,1.2c-0.2,1.4-.3,3.2-0.3,4.6a2,2,0,0,1-1.7.4,4.2,4.2,0,0,1-.3-3.1c-0.1-.6-0.1-1.1-0.2-1.7s0.2-2.3.2-3.6a0.4,0.4,0,0,0,0-.4c0.1-2.2-.1-3.8.2-6a1.1,1.1,0,0,1,.2-1.2c1.5-.4,1.2,1.1,2.1,1.5a14.7,14.7,0,0,0,2-1.5,4.9,4.9,0,0,0,1.9-.4c0.5,0.3,1-.1,1.5,0a5.1,5.1,0,0,1,3.8,2.1,2.2,2.2,0,0,0,.5,1.3c-0.2.6,0.3,1.1,0.2,1.8a9.1,9.1,0,0,1-.1,1,27.2,27.2,0,0,1,.2,3.5,10.3,10.3,0,0,0,.2,3.5c-0.3,1.3.4,2.1-.2,3.1h0Z"/><path class="d458e874-4db6-4bd9-aef7-69a23cd3583f" d="M237.7,113.7c0.2,2.2-.9,4.6.5,6.3a7.3,7.3,0,0,1,2.3-.1,2,2,0,0,1,.3,2.2c-0.8.2-2.1-.4-2.9,0.2a1.2,1.2,0,0,1-.4.6c0.2,1.4-.1,3,0.4,4.3s-0.1,2.2-.4,3.2a21.1,21.1,0,0,1,.3,2.9l1.1,0.8c1.2,0.4,2.7.1,2.3,1.8s-1.6.4-2.5,0.4a8.7,8.7,0,0,0-1.8-.6,9.4,9.4,0,0,1-1.3-1.7,8.3,8.3,0,0,0-.3-2.4c-0.3-2.6.1-5.8-.3-9.2-0.4-.5-1.5-0.5-2.6-0.6a2.2,2.2,0,0,1,.1-2.1c0.9-.1,2.6.1,2.9-0.9a14.2,14.2,0,0,0-.2-1.5c0.1-1.9-.2-3.2.4-4.3a2,2,0,0,1,1.9.4h0Z"/><path class="d458e874-4db6-4bd9-aef7-69a23cd3583f" d="M257.7,129c-2.6.4-5.9-.1-8.4,0.2-0.6.1-1.5,0-1.9,0.3,0.4,3.1,2,5.3,5.5,5,1.3-.4,2.2-1.5,3.2-0.7s-0.9,1.9-2.3,2.4-1.9.1-2.7,0-2.3-.7-3.3-1a14.1,14.1,0,0,0-1.8-1.8,8.1,8.1,0,0,0-.3-1.2,10,10,0,0,1-.6-2.2,37.1,37.1,0,0,1,.2-5.6c0.3-.8.4-1.3,0.7-2s1.1-1.1,1.5-1.8l1.8-.7c1-.2,2.8.3,3.8-0.2a9.2,9.2,0,0,0,2,.7,15.2,15.2,0,0,1,2.3,2.6,1.9,1.9,0,0,0,.3,1.5,2,2,0,0,0,.3,1.5c-0.3.8,0.4,2.3-.4,2.9h0Zm-2.5-4.8a6.7,6.7,0,0,0-1.4-1.8,7.1,7.1,0,0,0-4.1,0c-0.7,0-1,.7-1.6,1.1s-1.3,2.7-.1,3.7,0.3-.1.3,0a8.6,8.6,0,0,0,2.3-.4,87.4,87.4,0,0,0,5.1-.1,3.2,3.2,0,0,0-.3-2.6h-0.1Z"/><path class="d458e874-4db6-4bd9-aef7-69a23cd3583f" d="M26.7,169.8c-0.8,0-.8-0.9-1.5-1.1a9.8,9.8,0,0,0-1.8,1,15.5,15.5,0,0,1-4.4.2c-0.7-.8-1.7-1.2-2.3-1.9s-0.2-2.3-.7-3.2a14.4,14.4,0,0,1,.3-2.4c0.3-.4.6-1.1,0.9-1.5a0.5,0.5,0,0,0,.4-0.3c1.4-.7,2.6-0.7,4.6-1a7.2,7.2,0,0,0,2.5,1.4c1.2-.4.1-1.8,0.3-2.9a4.8,4.8,0,0,0-1.1-1.9c-0.7-.1-1.1-0.4-1.8-0.6s-3,.7-4.1.4a2,2,0,0,1-.6-1.6c0.4-.6,1.5-0.5,2.1-1a30.6,30.6,0,0,1,3.3,0,6,6,0,0,0,2.5.9c1.1,1.6,2.4,3.6,2,6.4,0,0.5.2,0.8,0.2,1.3s-0.2,3.2-.3,4.9a13.3,13.3,0,0,1,.3,2,1.8,1.8,0,0,1-1.1,1h0ZM20,162.1l-1.4,1.1c0.2,0.3-.2.3-0.3,0.6s0.3,3.1,1.1,3.4a3.3,3.3,0,0,0,2.9.4,3.2,3.2,0,0,1,1.1-.3c0.9-.8,2-1,2.2-2.6a11.9,11.9,0,0,0-1.7-2.3c-1-.2-1.6-0.5-2.5-0.7l-0.2.2H20Z"/><path class="d458e874-4db6-4bd9-aef7-69a23cd3583f" d="M41,146.6a4.7,4.7,0,0,1-1.9,0l-1,.4a9.4,9.4,0,0,0-.9,6c0.4,0.7,2.7,0,3.3.5a2.6,2.6,0,0,1,0,1.8c-0.9.5-2.8-.2-3.3,0.8A16.3,16.3,0,0,1,37,161c0.6,2.4.2,4.3,0.3,6.4s0,2.1-.5,2.4a1.7,1.7,0,0,1-1.7-.2,14.4,14.4,0,0,0-.3-3.1c0.3-1.4,0-2.9.1-4.8s0.2-1.5.2-2.6a1.5,1.5,0,0,1,0-1.1,11.1,11.1,0,0,0-.4-1.9c-0.5-.5-1.8,0-2.3-0.5a1.4,1.4,0,0,1-.3-1.7c0.4-.7,1.6-0.2,2.4-0.4s0.4-2,.7-2.9a31.6,31.6,0,0,1,.2-3.3,4,4,0,0,0,.7-1.5,4.5,4.5,0,0,1,3.4-1.3,5.8,5.8,0,0,1,1.8.6A3.5,3.5,0,0,1,41,146.6Z"/><path class="d458e874-4db6-4bd9-aef7-69a23cd3583f" d="M56.5,162.7c-2.6.4-5.9-.1-8.4,0.2-0.6.1-1.5,0-1.9,0.3,0.4,3.1,2,5.3,5.5,5,1.3-.4,2.2-1.5,3.2-0.7s-0.9,1.9-2.3,2.4-1.9.1-2.7,0-2.3-.7-3.3-1a14.3,14.3,0,0,0-1.8-1.8,8.2,8.2,0,0,0-.3-1.2,10,10,0,0,1-.6-2.2,37.1,37.1,0,0,1,.2-5.6c0.3-.8.4-1.3,0.7-2s1.1-1.1,1.5-1.8l1.8-.7c1-.2,2.8.3,3.8-0.2a9.2,9.2,0,0,0,2,.7,15.3,15.3,0,0,1,2.3,2.6,1.9,1.9,0,0,0,.3,1.5,2,2,0,0,0,.3,1.5c-0.3.8,0.4,2.3-.4,2.9h0ZM54,157.9a6.7,6.7,0,0,0-1.4-1.8,7.1,7.1,0,0,0-4.1,0c-0.7,0-1,.7-1.6,1.1s-1.3,2.7-.1,3.7,0.3-.1.3,0a8.7,8.7,0,0,0,2.3-.4,2.6,2.6,0,0,0,2.3,0,2.6,2.6,0,0,0,2.8-.1,3.2,3.2,0,0,0-.3-2.6H54Z"/><path class="d458e874-4db6-4bd9-aef7-69a23cd3583f" d="M71.5,155.4c-0.2,1.5-1.9.8-2.7,0.4a15.3,15.3,0,0,0-3.2.1c-0.8.4-1.3,1.2-2.1,1.7a10.8,10.8,0,0,1-.8,2.3,13.2,13.2,0,0,0,.4,5.2,4.5,4.5,0,0,0,1.8,2.1,11.6,11.6,0,0,1,1.7.7,1.6,1.6,0,0,1,1.1.1c1.1-.1,2.2-0.7,3.1-0.7a6.7,6.7,0,0,1,.4,1.3c-0.2,1-1.9,1.1-3,1.3H65.8l-2.5-1.2a8.3,8.3,0,0,1-2.2-2.9,8.7,8.7,0,0,0-.7-2.4c0-1.1,0-2.2.1-3.4a24.8,24.8,0,0,1,1.1-3.2,15.1,15.1,0,0,1,2.9-2.9,6.1,6.1,0,0,0,1.8-.4,20.2,20.2,0,0,1,3.2.1c0.7,0.6,1.9.5,2,1.7h0Z"/><path class="d458e874-4db6-4bd9-aef7-69a23cd3583f" d="M80.4,147.4c0.2,2.2-.9,4.6.5,6.3a7.3,7.3,0,0,1,2.3-.1,2,2,0,0,1,.3,2.2c-0.8.2-2.1-.4-2.9,0.2a1.2,1.2,0,0,1-.4.6c0.2,1.4-.1,3,0.4,4.3s-0.1,2.2-.4,3.2a21,21,0,0,1,.3,2.9l1.1,0.8c1.2,0.4,2.7.1,2.3,1.8s-1.6.4-2.5,0.4a8.8,8.8,0,0,0-1.8-.6,9.3,9.3,0,0,1-1.3-1.7,8.3,8.3,0,0,0-.3-2.4c-0.3-2.6.1-5.8-.3-9.2-0.4-.5-1.5-0.5-2.6-0.6a2.2,2.2,0,0,1,.1-2.1c0.9-.1,2.6.1,2.9-0.9a14.2,14.2,0,0,0-.2-1.5c0.1-1.9-.2-3.2.4-4.3a2,2,0,0,1,1.9.4h0Z"/><path class="d458e874-4db6-4bd9-aef7-69a23cd3583f" d="M98.3,169.8c-0.8,0-.8-0.9-1.5-1.1a9.8,9.8,0,0,0-1.8,1,15.5,15.5,0,0,1-4.4.2c-0.7-.8-1.7-1.2-2.3-1.9s-0.2-2.3-.7-3.2a14.4,14.4,0,0,1,.3-2.4c0.3-.4.6-1.1,0.9-1.5a0.5,0.5,0,0,0,.4-0.3c1.4-.7,2.6-0.7,4.6-1a7.2,7.2,0,0,0,2.5,1.4c1.2-.4.1-1.8,0.3-2.9a4.8,4.8,0,0,0-1.1-1.9c-0.7-.1-1.1-0.4-1.8-0.6s-3,.7-4.1.4a2,2,0,0,1-.6-1.6c0.4-.6,1.5-0.5,2.1-1a30.6,30.6,0,0,1,3.3,0,6,6,0,0,0,2.5.9c1.1,1.6,2.4,3.6,2,6.4,0,0.5.2,0.8,0.2,1.3s-0.2,3.2-.3,4.9a13.3,13.3,0,0,1,.3,2,1.8,1.8,0,0,1-1.1,1h0Zm-6.7-7.7-1.4,1.1c0.2,0.3-.2.3-0.3,0.6s0.3,3.1,1.1,3.4a3.3,3.3,0,0,0,2.9.4,3.1,3.1,0,0,1,1.1-.3c0.9-.8,2-1,2.2-2.6a11.9,11.9,0,0,0-1.7-2.3c-1-.2-1.6-0.5-2.5-0.7l-0.2.2H91.6Z"/><path class="d458e874-4db6-4bd9-aef7-69a23cd3583f" d="M124.9,162.7c-2.6.4-5.9-.1-8.4,0.2-0.6.1-1.5,0-1.9,0.3,0.4,3.1,2,5.3,5.5,5,1.3-.4,2.2-1.5,3.2-0.7s-0.9,1.9-2.3,2.4-1.9.1-2.7,0-2.3-.7-3.3-1a14.3,14.3,0,0,0-1.8-1.8,8.2,8.2,0,0,0-.3-1.2,10,10,0,0,1-.6-2.2,37.1,37.1,0,0,1,.2-5.6c0.3-.8.4-1.3,0.7-2s1.1-1.1,1.5-1.8l1.8-.7c1-.2,2.8.3,3.8-0.2a9.2,9.2,0,0,0,2,.7,15.3,15.3,0,0,1,2.3,2.6,1.9,1.9,0,0,0,.3,1.5,2,2,0,0,0,.3,1.5c-0.3.8,0.4,2.3-.4,2.9h0Zm-2.5-4.8a6.7,6.7,0,0,0-1.4-1.8,7.1,7.1,0,0,0-4.1,0c-0.7,0-1,.7-1.6,1.1s-1.3,2.7-.1,3.7,0.3-.1.3,0a8.7,8.7,0,0,0,2.3-.4,2.6,2.6,0,0,0,2.3,0,2.6,2.6,0,0,0,2.8-.1,3.2,3.2,0,0,0-.3-2.6h-0.1Z"/><path class="d458e874-4db6-4bd9-aef7-69a23cd3583f" d="M142.7,169.5a7,7,0,0,1-1.9.2c-0.4-1.3-.2-2.7,0-4.3s-0.4-3-.2-4.8a9.6,9.6,0,0,0-.4-3.1,2.5,2.5,0,0,0-.1-0.4c-0.7-1-1.7-1.1-2.6-1.7a5.8,5.8,0,0,0-4.3,2.1c-0.1.8-.6,1.4-0.7,2.4a9,9,0,0,1-.1,3.5l0.3,1.2c-0.2,1.4-.3,3.2-0.3,4.6a2,2,0,0,1-1.7.4,4.2,4.2,0,0,1-.3-3.1c-0.1-.6-0.1-1.1-0.2-1.7s0.2-2.3.2-3.6a0.4,0.4,0,0,0,0-.4c0.1-2.2-.1-3.8.2-6a1.1,1.1,0,0,1,.2-1.2c1.5-.4,1.2,1.1,2.1,1.5a14.4,14.4,0,0,0,2-1.5,4.9,4.9,0,0,0,1.9-.4c0.5,0.3,1-.1,1.5,0a5.1,5.1,0,0,1,3.8,2.1,2.2,2.2,0,0,0,.5,1.3c-0.2.6,0.3,1.1,0.2,1.8a9.1,9.1,0,0,1-.1,1,27.2,27.2,0,0,1,.2,3.5,10.3,10.3,0,0,0,.2,3.5c-0.3,1.3.4,2.1-.2,3.1h0Z"/><path class="d458e874-4db6-4bd9-aef7-69a23cd3583f" d="M168.1,162.7c-2.6.4-5.9-.1-8.4,0.2-0.6.1-1.5,0-1.9,0.3,0.4,3.1,2,5.3,5.5,5,1.3-.4,2.2-1.5,3.2-0.7s-0.9,1.9-2.3,2.4-1.9.1-2.7,0-2.3-.7-3.3-1a14.3,14.3,0,0,0-1.8-1.8,8.2,8.2,0,0,0-.3-1.2,10,10,0,0,1-.6-2.2,37.1,37.1,0,0,1,.2-5.6c0.3-.8.4-1.3,0.7-2s1.1-1.1,1.5-1.8l1.8-.7c1-.2,2.8.3,3.8-0.2a9.2,9.2,0,0,0,2,.7,15.3,15.3,0,0,1,2.3,2.6,1.9,1.9,0,0,0,.3,1.5,2,2,0,0,0,.3,1.5c-0.3.8,0.4,2.3-.4,2.9h0Zm-2.5-4.8a6.7,6.7,0,0,0-1.4-1.8,7.1,7.1,0,0,0-4.1,0c-0.7,0-1,.7-1.6,1.1s-1.3,2.7-.1,3.7,0.3-.1.3,0a8.7,8.7,0,0,0,2.3-.4,2.6,2.6,0,0,0,2.3,0,2.6,2.6,0,0,0,2.8-.1,3.2,3.2,0,0,0-.3-2.6h-0.1Z"/><path class="d458e874-4db6-4bd9-aef7-69a23cd3583f" d="M175.5,147c-0.1,7.3-.5,14.3.4,23.2-0.8-.3-2-0.2-2.3-0.7s-0.2-1-.4-1.7a11.8,11.8,0,0,1,0-1.7c-0.4-3.7.6-8.1,0.2-11.7a19.2,19.2,0,0,1,.2-7.6,2.8,2.8,0,0,1,1.8.1h0Z"/><path class="d458e874-4db6-4bd9-aef7-69a23cd3583f" d="M199.3,169.8c-0.8,0-.8-0.9-1.5-1.1a9.8,9.8,0,0,0-1.8,1,15.5,15.5,0,0,1-4.4.2c-0.7-.8-1.7-1.2-2.3-1.9s-0.2-2.3-.7-3.2a14.4,14.4,0,0,1,.3-2.4c0.3-.4.6-1.1,0.9-1.5a0.5,0.5,0,0,0,.4-0.3c1.4-.7,2.6-0.7,4.6-1a7.2,7.2,0,0,0,2.5,1.4c1.2-.4.1-1.8,0.3-2.9a4.8,4.8,0,0,0-1.1-1.9c-0.7-.1-1.1-0.4-1.8-0.6s-3,.7-4.1.4a2,2,0,0,1-.6-1.6c0.4-.6,1.5-0.5,2.1-1a30.6,30.6,0,0,1,3.3,0,6,6,0,0,0,2.5.9c1.1,1.6,2.4,3.6,2,6.4,0,0.5.2,0.8,0.2,1.3s-0.2,3.2-.3,4.9a13.3,13.3,0,0,1,.3,2,1.8,1.8,0,0,1-1.1,1h0Zm-6.7-7.7-1.4,1.1c0.2,0.3-.2.3-0.3,0.6s0.3,3.1,1.1,3.4a3.3,3.3,0,0,0,2.9.4,3.2,3.2,0,0,1,1.1-.3c0.9-.8,2-1,2.2-2.6a11.9,11.9,0,0,0-1.7-2.3c-1-.2-1.6-0.5-2.5-0.7l-0.2.2h-1.2Zm6.2-16.5c0,1.3-1.2,1.6-1.5,2.7s-0.9,1.8-1.7,2.2a1.3,1.3,0,0,1-1.2-.6c0.6-1.5,1.3-2.8,2-4.4s1.8,0,2.5.1h0Z"/><path class="d458e874-4db6-4bd9-aef7-69a23cd3583f" d="M224.5,169.9c-0.5.3-1.1-.1-1.7-0.1s0.1-1-.2-1.1,0.1-.9.1-1.3,0.2-2.5-.3-3.1a3.4,3.4,0,0,0,.3-1.2,19.2,19.2,0,0,1,0-5.5,3.2,3.2,0,0,0-3.8-1.5,2.6,2.6,0,0,0-1.5,1.4,20.8,20.8,0,0,0-.4,3.3,43.2,43.2,0,0,1-.3,6.2c0.3,1.1.7,3-.9,3a1.4,1.4,0,0,1-1.1-1.2,4.4,4.4,0,0,1,.1-0.9,14.5,14.5,0,0,1,0-1.9,7,7,0,0,1-.2-0.9c0-.6.2-1.1,0.2-2.2a7.8,7.8,0,0,1-.1-3.2c-0.4-.6-0.2-1.6-0.5-2.4a1.9,1.9,0,0,1-.4-0.8,11.7,11.7,0,0,0-1.8-.8,16.6,16.6,0,0,1-2,.6,9.5,9.5,0,0,0-1.4,4,20.5,20.5,0,0,1,.2,6.7,6.8,6.8,0,0,1-.3,2.9,4.3,4.3,0,0,1-1.7-.2c-0.7-1-.1-2.1-0.3-3.4a3.3,3.3,0,0,0-.1-1.1c0.1-2.6-.1-6,0.6-8.9-0.7-.9-0.5-2.5.2-2.6s1,0.9,1.5,1.5,0.8-.8,1.3-1.1a4.5,4.5,0,0,1,1.4-.8l2.2,0.2a16.8,16.8,0,0,0,2.3,1.8,6.9,6.9,0,0,0,1.5-1.1l2.8-1h0.3c0.7,0.4,1.7.5,2.4,1a1.1,1.1,0,0,1,.7.8,2.8,2.8,0,0,1,.7.7c0.4,1.1.2,2.1,0.7,3.1-0.2,2.9.1,5.9,0,8.9a4.2,4.2,0,0,1-.4,2.2h0Z"/><path class="d458e874-4db6-4bd9-aef7-69a23cd3583f" d="M233,150.7a20.8,20.8,0,0,0,.3,4c0.9,0.5,1.3-.3,1.9-0.6l1.5-.4c1,0.2,3-.2,3.8.4s1.4,1.3,2.2,1.8a42,42,0,0,1,1.3,4.1c-0.1.9,0,1.7,0,2.7a8.1,8.1,0,0,1-1.4,5.3,8.7,8.7,0,0,1-2.2,1.9,19.4,19.4,0,0,1-4.4.2c-0.5-.2-0.9-0.6-1.5-0.8a5.3,5.3,0,0,0-1.2-1c-0.7,0-.4.8-0.7,1.1a1.4,1.4,0,0,1-1.3.5c-0.5-.2-0.4-0.9-0.7-1.4,0.1-5.5.2-9.2,0.5-15.1a9.3,9.3,0,0,1-.6-3.7c0-.9.2-1.8,0.2-2.4a2.7,2.7,0,0,1,1.8-.4C233.4,148,232.7,149.1,233,150.7Zm2.8,5.4a5.6,5.6,0,0,0-1.7,1.3,1,1,0,0,1-.5.7,12.2,12.2,0,0,1-.7,2.6c0.3,0.4,0,.7,0,1.2s0.4,2.1.6,3.2,0.9,2,1.8,2.4a4.2,4.2,0,0,0,1.9.5,5,5,0,0,0,3.2-.9,1.1,1.1,0,0,1,.6-0.8,26.9,26.9,0,0,0,.8-6.6,5.5,5.5,0,0,1-.7-2.1c-0.6-.4-1.2-1.2-2-1.8a7.1,7.1,0,0,0-3.2.3h-0.1Z"/><path class="d458e874-4db6-4bd9-aef7-69a23cd3583f" d="M251.8,149.4a2,2,0,0,1-.9,2.1c-1.5.2-2.5-.3-2.4-1.9a0.7,0.7,0,0,0,.2-0.4,2,2,0,0,1,3.1.4h0Zm-1.1,20.5a4.9,4.9,0,0,1-1.7-.3c-0.1-2.8-.1-5.1-0.4-8.2a9.1,9.1,0,0,0,.5-2.2,11.3,11.3,0,0,1-.2-2.8c0-.8-0.3-1.7.3-2.4s0.8-.5,1.1-0.2,0.8,1.9.9,2.9a50,50,0,0,0,.3,7.8,12.6,12.6,0,0,0-.2,2.8c0,1.1.1,2-.7,2.6h0.1Z"/><path class="d458e874-4db6-4bd9-aef7-69a23cd3583f" d="M261.2,147.4c0.2,2.2-.9,4.6.5,6.3a7.3,7.3,0,0,1,2.3-.1,2,2,0,0,1,.3,2.2c-0.8.2-2.1-.4-2.9,0.2a1.2,1.2,0,0,1-.4.6c0.2,1.4-.1,3,0.4,4.3s-0.1,2.2-.4,3.2a20.9,20.9,0,0,1,.3,2.9l1.1,0.8c1.2,0.4,2.7.1,2.3,1.8s-1.6.4-2.5,0.4a8.8,8.8,0,0,0-1.8-.6,9.2,9.2,0,0,1-1.3-1.7,8.3,8.3,0,0,0-.3-2.4c-0.3-2.6.1-5.8-.3-9.2-0.4-.5-1.5-0.5-2.6-0.6a2.2,2.2,0,0,1,.1-2.1c0.9-.1,2.6.1,2.9-0.9a14.2,14.2,0,0,0-.2-1.5c0.1-1.9-.2-3.2.4-4.3a2,2,0,0,1,1.9.4h0Z"/><path class="d458e874-4db6-4bd9-aef7-69a23cd3583f" d="M275,153.4l0.2-.2c1.1,0.1,1.6.7,2.8,0.5s2.4,2.4,3.2,3.4,0.2,2,.9,2.8a2.6,2.6,0,0,0,.2,1.8,3.1,3.1,0,0,0,0,1.2c0,1-.7,1.7-0.7,2.8a9,9,0,0,0-1.3,2.1,10.8,10.8,0,0,1-2.5,1.7,7.9,7.9,0,0,1-4.6.1c-0.9-.4-1.7-0.9-2.6-1.4a2.3,2.3,0,0,0-.9-1.3c-0.1-.9-0.7-1.3-0.8-2.1s-0.2-1.4-.4-2.1,0.4-3,.3-4.5a4.9,4.9,0,0,0,1.3-2.1,4.1,4.1,0,0,0,1.2-1.5,25.2,25.2,0,0,1,3.8-1.2h0Zm-1.6,2.6a14.5,14.5,0,0,0-1.7,1.5c-0.9,1.8-.9,3.8-0.8,6.4a7.5,7.5,0,0,0,2.1,3.4,9.5,9.5,0,0,0,3.5.7,12.2,12.2,0,0,1,1.8-1.1l0.5-.8,0.3-.2c0.1-.2,0-0.5.1-0.9l0.4-.5a14.4,14.4,0,0,1,.4-2.5c-0.2-.8-0.1-1.8-0.3-2.7a15.3,15.3,0,0,1-1-2.3,16.1,16.1,0,0,0-2.5-1.3,13.2,13.2,0,0,0-1.5.1,5.9,5.9,0,0,0-1.4.2h0Z"/><path class="d458e874-4db6-4bd9-aef7-69a23cd3583f" d="M28.7,196.3c-2.6.4-5.9-.1-8.4,0.2-0.6.1-1.5,0-1.9,0.3,0.4,3.1,2,5.3,5.5,5,1.3-.4,2.2-1.5,3.2-0.7s-0.9,1.9-2.3,2.4-1.9.1-2.7,0-2.3-.7-3.3-1a14.3,14.3,0,0,0-1.8-1.8,8.4,8.4,0,0,0-.3-1.2,10,10,0,0,1-.6-2.2,37.1,37.1,0,0,1,.2-5.6c0.3-.8.4-1.3,0.7-2s1.1-1.1,1.5-1.8l1.8-.7c1-.2,2.8.3,3.8-0.2a9.2,9.2,0,0,0,2,.7,15.4,15.4,0,0,1,2.3,2.6,1.9,1.9,0,0,0,.3,1.5,2,2,0,0,0,.3,1.5c-0.3.8,0.4,2.3-.4,2.9h0Zm-2.5-4.8a6.7,6.7,0,0,0-1.4-1.8,7.1,7.1,0,0,0-4.1,0c-0.7,0-1,.7-1.6,1.1s-1.3,2.7-.1,3.7,0.3-.1.3,0a8.7,8.7,0,0,0,2.3-.4,2.6,2.6,0,0,0,2.3,0,2.6,2.6,0,0,0,2.8-.1,3.2,3.2,0,0,0-.3-2.6H26.3Z"/><path class="d458e874-4db6-4bd9-aef7-69a23cd3583f" d="M38.6,189.4a4.4,4.4,0,0,0-2.9.9,11.4,11.4,0,0,0-.3,1.5,3.3,3.3,0,0,0,1.8,1.9,15.6,15.6,0,0,0,2.5,1.1,3.8,3.8,0,0,0,2,1.1,3.7,3.7,0,0,0,.9,1.3c0.3,0.5.4,0.9,0.7,1.4a4.1,4.1,0,0,1-.7,3.3,5.2,5.2,0,0,1-1.3,1.2c-0.7.4-2,.4-2.9,0.7s-4.5-.1-5.3-1.8,0.5-.7.7-1.1,3.7,1.3,5.7.8a3.1,3.1,0,0,0,1.5-2.1c0-1.5-1.4-2.1-2.3-2.8a11.6,11.6,0,0,0-2.4-.9,10.2,10.2,0,0,1-2.5-1.9,10.5,10.5,0,0,1-.8-2c0-1,.3-1.5.2-2.6l1.2-1.5,1.8-.7a14.8,14.8,0,0,1,3.8.1c0.3,0.3,1.3,0,1.5.7S39.8,189.5,38.6,189.4Z"/><path class="d458e874-4db6-4bd9-aef7-69a23cd3583f" d="M58.1,189.1c-0.2,1.5-1.9.8-2.7,0.4a15.3,15.3,0,0,0-3.2.1c-0.8.4-1.3,1.2-2.1,1.7a10.8,10.8,0,0,1-.8,2.3,13.2,13.2,0,0,0,.4,5.2,4.5,4.5,0,0,0,1.8,2.1,11.6,11.6,0,0,1,1.7.7,1.6,1.6,0,0,1,1.1.1c1.1-.1,2.2-0.7,3.1-0.7a6.7,6.7,0,0,1,.4,1.3c-0.2,1-1.9,1.1-3,1.3H52.4l-2.5-1.2a8.3,8.3,0,0,1-2.2-2.9A8.7,8.7,0,0,0,47,197c0-1.1,0-2.2.1-3.4a24.8,24.8,0,0,1,1.1-3.2,15.1,15.1,0,0,1,2.9-2.9,6.2,6.2,0,0,0,1.8-.4,20.2,20.2,0,0,1,3.2.1c0.7,0.6,1.9.5,2,1.7h0Z"/><path class="d458e874-4db6-4bd9-aef7-69a23cd3583f" d="M68,187.1l0.2-.2c1.1,0.1,1.6.7,2.8,0.5s2.4,2.4,3.2,3.4,0.2,2,.9,2.8a2.6,2.6,0,0,0,.2,1.8,3.1,3.1,0,0,0,0,1.2c0,1-.7,1.7-0.7,2.8a9,9,0,0,0-1.3,2.1,10.8,10.8,0,0,1-2.5,1.7,7.9,7.9,0,0,1-4.6.1c-0.9-.4-1.7-0.9-2.6-1.4a2.3,2.3,0,0,0-.9-1.3c-0.1-.9-0.7-1.3-0.8-2.1s-0.2-1.4-.4-2.1,0.4-3,.3-4.5a4.9,4.9,0,0,0,1.3-2.1,4.1,4.1,0,0,0,1.2-1.5,25.2,25.2,0,0,1,3.8-1.2h0Zm-1.6,2.6a14.5,14.5,0,0,0-1.7,1.5c-0.9,1.8-.9,3.8-0.8,6.4a7.5,7.5,0,0,0,2.1,3.4,9.5,9.5,0,0,0,3.5.7,12.2,12.2,0,0,1,1.8-1.1l0.5-.8,0.3-.2c0.1-.2,0-0.5.1-0.9l0.4-.5a14.4,14.4,0,0,1,.4-2.5c-0.2-.8-0.1-1.8-0.3-2.7a15.3,15.3,0,0,1-1-2.3,16.1,16.1,0,0,0-2.5-1.3,13.2,13.2,0,0,0-1.5.1,5.9,5.9,0,0,0-1.4.2h0Z"/><path class="d458e874-4db6-4bd9-aef7-69a23cd3583f" d="M82.4,180.7c-0.1,7.3-.5,14.3.4,23.2-0.8-.3-2-0.2-2.3-0.7s-0.2-1-.4-1.7a11.9,11.9,0,0,1,0-1.7c-0.4-3.7.6-8.1,0.2-11.7a19.2,19.2,0,0,1,.2-7.6,2.8,2.8,0,0,1,1.8.1h0Z"/><path class="d458e874-4db6-4bd9-aef7-69a23cd3583f" d="M98,203.4c-0.8,0-.8-0.9-1.5-1.1a9.8,9.8,0,0,0-1.8,1,15.5,15.5,0,0,1-4.4.2c-0.7-.8-1.7-1.2-2.3-1.9s-0.2-2.3-.7-3.2a14.4,14.4,0,0,1,.3-2.4c0.3-.4.6-1.1,0.9-1.5a0.5,0.5,0,0,0,.4-0.3c1.4-.7,2.6-0.7,4.6-1a7.2,7.2,0,0,0,2.5,1.4c1.2-.4.1-1.8,0.3-2.9a4.8,4.8,0,0,0-1.1-1.9c-0.7-.1-1.1-0.4-1.8-0.6s-3,.7-4.1.4a2,2,0,0,1-.6-1.6c0.4-.6,1.5-0.5,2.1-1a30.6,30.6,0,0,1,3.3,0,6,6,0,0,0,2.5.9c1.1,1.6,2.4,3.6,2,6.4,0,0.5.2,0.8,0.2,1.3s-0.2,3.2-.3,4.9a13.3,13.3,0,0,1,.3,2,1.8,1.8,0,0,1-1.1,1h0Zm-6.7-7.7-1.4,1.1c0.2,0.3-.2.3-0.3,0.6s0.3,3.1,1.1,3.4a3.3,3.3,0,0,0,2.9.4,3.2,3.2,0,0,1,1.1-.3c0.9-.8,2-1,2.2-2.6a11.9,11.9,0,0,0-1.7-2.3c-1-.2-1.6-0.5-2.5-0.7l-0.2.2H91.3Z"/><path class="d458e874-4db6-4bd9-aef7-69a23cd3583f" d="M111.6,187.1a2.1,2.1,0,0,1,.4,2.1c-0.9.3-2.2,0.4-2.9,0.5s-1.2,2-1.8,3a69.2,69.2,0,0,1-.4,11l-1.6-.3c-0.6-.9-0.1-1.5-0.1-2.5s-0.2-1-.2-1.5,0.1-.8.1-1.1-0.2-3.7-.1-5.9a6.2,6.2,0,0,0-.1-2.8c0.3-.9,0-1.8.8-2.2a1.6,1.6,0,0,1,1.1.4c0.3,0.2.2,0.8,0.7,0.8s1.3-.8,2.2-1.1,1.3,0,1.6-.3h0.3Z"/><path class="d458e874-4db6-4bd9-aef7-69a23cd3583f" d="M116.5,206c-0.4-.8.4-1.3,0.3-2.2s-0.7-1.1-.5-2.2,1.8-1.2,2.3-.4l0.2,0.2c0,1.4-.1,2.1-1,2.7s-0.4,2.1-1.3,1.8h0Z"/><path class="d458e874-4db6-4bd9-aef7-69a23cd3583f" d="M135.8,180.7c-0.1,7.3-.5,14.3.4,23.2-0.8-.3-2-0.2-2.3-0.7s-0.2-1-.4-1.7a11.9,11.9,0,0,1,0-1.7c-0.4-3.7.6-8.1,0.2-11.7a19.2,19.2,0,0,1,.2-7.6,2.8,2.8,0,0,1,1.8.1h0Z"/><path class="d458e874-4db6-4bd9-aef7-69a23cd3583f" d="M151.4,203.4c-0.8,0-.8-0.9-1.5-1.1a9.8,9.8,0,0,0-1.8,1,15.5,15.5,0,0,1-4.4.2c-0.7-.8-1.7-1.2-2.3-1.9s-0.2-2.3-.7-3.2a14.4,14.4,0,0,1,.3-2.4c0.3-.4.6-1.1,0.9-1.5a0.5,0.5,0,0,0,.4-0.3c1.4-.7,2.6-0.7,4.6-1a7.2,7.2,0,0,0,2.5,1.4c1.2-.4.1-1.8,0.3-2.9a4.8,4.8,0,0,0-1.1-1.9c-0.7-.1-1.1-0.4-1.8-0.6s-3,.7-4.1.4a2,2,0,0,1-.6-1.6c0.4-.6,1.5-0.5,2.1-1a30.6,30.6,0,0,1,3.3,0,6,6,0,0,0,2.5.9c1.1,1.6,2.4,3.6,2,6.4,0,0.5.2,0.8,0.2,1.3s-0.2,3.2-.3,4.9a13.3,13.3,0,0,1,.3,2,1.8,1.8,0,0,1-1.1,1h0Zm-6.7-7.7-1.4,1.1c0.2,0.3-.2.3-0.3,0.6s0.3,3.1,1.1,3.4a3.3,3.3,0,0,0,2.9.4,3.2,3.2,0,0,1,1.1-.3c0.9-.8,2-1,2.2-2.6a11.9,11.9,0,0,0-1.7-2.3c-1-.2-1.6-0.5-2.5-0.7l-0.2.2h-1.2Z"/><path class="d458e874-4db6-4bd9-aef7-69a23cd3583f" d="M160.9,184.3a20.8,20.8,0,0,0,.3,4c0.9,0.5,1.3-.3,1.9-0.6l1.5-.4c1,0.2,3-.2,3.8.4s1.4,1.3,2.2,1.8a42,42,0,0,1,1.3,4.1c-0.1.9,0,1.7,0,2.7a8.1,8.1,0,0,1-1.4,5.3,8.7,8.7,0,0,1-2.2,1.9,19.4,19.4,0,0,1-4.4.2c-0.5-.2-0.9-0.6-1.5-0.8a5.3,5.3,0,0,0-1.2-1c-0.7,0-.4.8-0.7,1.1a1.4,1.4,0,0,1-1.3.5c-0.5-.2-0.4-0.9-0.7-1.4,0.1-5.5.2-9.2,0.5-15.1a9.3,9.3,0,0,1-.6-3.7c0-.9.2-1.8,0.2-2.4a2.7,2.7,0,0,1,1.8-.4C161.3,181.7,160.7,182.7,160.9,184.3Zm2.8,5.4a5.6,5.6,0,0,0-1.7,1.3,1,1,0,0,1-.5.7,12.2,12.2,0,0,1-.7,2.6c0.3,0.4,0,.7,0,1.2s0.4,2.1.6,3.2,0.9,2,1.8,2.4a4.2,4.2,0,0,0,1.9.5,5,5,0,0,0,3.2-.9,1.1,1.1,0,0,1,.6-0.8,26.9,26.9,0,0,0,.8-6.6,5.5,5.5,0,0,1-.7-2.1c-0.6-.4-1.2-1.2-2-1.8a7.1,7.1,0,0,0-3.2.3h-0.1Z"/><path class="d458e874-4db6-4bd9-aef7-69a23cd3583f" d="M181.9,187.1l0.2-.2c1.1,0.1,1.6.7,2.8,0.5s2.4,2.4,3.2,3.4,0.2,2,.9,2.8a2.6,2.6,0,0,0,.2,1.8,3.1,3.1,0,0,0,0,1.2c0,1-.7,1.7-0.7,2.8a9,9,0,0,0-1.3,2.1,10.8,10.8,0,0,1-2.5,1.7,7.9,7.9,0,0,1-4.6.1c-0.9-.4-1.7-0.9-2.6-1.4a2.3,2.3,0,0,0-.9-1.3c-0.1-.9-0.7-1.3-0.8-2.1s-0.2-1.4-.4-2.1,0.4-3,.3-4.5a4.9,4.9,0,0,0,1.3-2.1,4.1,4.1,0,0,0,1.2-1.5,25.2,25.2,0,0,1,3.8-1.2h0Zm-1.6,2.6a14.5,14.5,0,0,0-1.7,1.5c-0.9,1.8-.9,3.8-0.8,6.4a7.5,7.5,0,0,0,2.1,3.4,9.5,9.5,0,0,0,3.5.7,12.2,12.2,0,0,1,1.8-1.1l0.5-.8,0.3-.2c0.1-.2,0-0.5.1-0.9l0.4-.5a14.4,14.4,0,0,1,.4-2.5c-0.2-.8-0.1-1.8-0.3-2.7a15.3,15.3,0,0,1-1-2.3,16.1,16.1,0,0,0-2.5-1.3,13.2,13.2,0,0,0-1.5.1,5.9,5.9,0,0,0-1.4.2h0Z"/><path class="d458e874-4db6-4bd9-aef7-69a23cd3583f" d="M200.4,187.1a2.1,2.1,0,0,1,.4,2.1c-0.9.3-2.2,0.4-2.9,0.5s-1.2,2-1.8,3a69,69,0,0,1-.4,11l-1.6-.3c-0.6-.9-0.1-1.5-0.1-2.5s-0.2-1-.2-1.5,0.1-.8.1-1.1-0.2-3.7-.1-5.9a6.1,6.1,0,0,0-.1-2.8c0.3-.9,0-1.8.8-2.2a1.6,1.6,0,0,1,1.1.4c0.3,0.2.2,0.8,0.7,0.8s1.3-.8,2.2-1.1,1.3,0,1.6-.3h0.3Z"/><path class="d458e874-4db6-4bd9-aef7-69a23cd3583f" d="M214.2,203.4c-0.8,0-.8-0.9-1.5-1.1a9.8,9.8,0,0,0-1.8,1,15.5,15.5,0,0,1-4.4.2c-0.7-.8-1.7-1.2-2.3-1.9s-0.2-2.3-.7-3.2a14.4,14.4,0,0,1,.3-2.4c0.3-.4.6-1.1,0.9-1.5a0.5,0.5,0,0,0,.4-0.3c1.4-.7,2.6-0.7,4.6-1a7.2,7.2,0,0,0,2.5,1.4c1.2-.4.1-1.8,0.3-2.9a4.8,4.8,0,0,0-1.1-1.9c-0.7-.1-1.1-0.4-1.8-0.6s-3,.7-4.1.4a2,2,0,0,1-.6-1.6c0.4-.6,1.5-0.5,2.1-1a30.6,30.6,0,0,1,3.3,0,6,6,0,0,0,2.5.9c1.1,1.6,2.4,3.6,2,6.4,0,0.5.2,0.8,0.2,1.3s-0.2,3.2-.3,4.9a13.3,13.3,0,0,1,.3,2,1.8,1.8,0,0,1-1.1,1h0Zm-6.7-7.7-1.4,1.1c0.2,0.3-.2.3-0.3,0.6s0.3,3.1,1.1,3.4a3.3,3.3,0,0,0,2.9.4,3.1,3.1,0,0,1,1.1-.3c0.9-.8,2-1,2.2-2.6a11.9,11.9,0,0,0-1.7-2.3c-1-.2-1.6-0.5-2.5-0.7l-0.2.2h-1.2Z"/><path class="d458e874-4db6-4bd9-aef7-69a23cd3583f" d="M223.7,180.7c-0.1,7.3-.5,14.3.4,23.2-0.8-.3-2-0.2-2.3-0.7s-0.2-1-.4-1.7a11.9,11.9,0,0,1,0-1.7c-0.4-3.7.6-8.1,0.2-11.7a19.2,19.2,0,0,1,.2-7.6,2.8,2.8,0,0,1,1.8.1h0Z"/><path class="d458e874-4db6-4bd9-aef7-69a23cd3583f" d="M230.4,206c-0.4-.8.4-1.3,0.3-2.2s-0.7-1.1-.5-2.2,1.8-1.2,2.3-.4l0.2,0.2c0,1.4-.1,2.1-1,2.7s-0.4,2.1-1.3,1.8h0Z"/><path class="d458e874-4db6-4bd9-aef7-69a23cd3583f" d="M27.2,222.7c-0.2,1.5-1.9.8-2.7,0.4a15.5,15.5,0,0,0-3.2.1c-0.8.4-1.3,1.2-2.1,1.7a10.7,10.7,0,0,1-.8,2.3,13.2,13.2,0,0,0,.4,5.2,4.5,4.5,0,0,0,1.8,2.1,11.6,11.6,0,0,1,1.7.7,1.6,1.6,0,0,1,1.1.1c1.1-.1,2.2-0.7,3.1-0.7A6.7,6.7,0,0,1,27,236c-0.2,1-1.9,1.1-3,1.3H21.5L19,236.1a8.3,8.3,0,0,1-2.2-2.9,8.7,8.7,0,0,0-.7-2.4c0-1.1,0-2.2.1-3.4a24.7,24.7,0,0,1,1.1-3.2,15.1,15.1,0,0,1,2.9-2.9,6.1,6.1,0,0,0,1.8-.4,20.2,20.2,0,0,1,3.2.1c0.7,0.6,1.9.5,2,1.7h0Z"/><path class="d458e874-4db6-4bd9-aef7-69a23cd3583f" d="M37.1,220.7l0.2-.2c1.1,0.1,1.6.7,2.8,0.5s2.4,2.4,3.2,3.4,0.2,2,.9,2.8a2.6,2.6,0,0,0,.2,1.8,3.1,3.1,0,0,0,0,1.2c0,1-.7,1.7-0.7,2.8a9,9,0,0,0-1.3,2.1,10.8,10.8,0,0,1-2.5,1.7,7.9,7.9,0,0,1-4.6.1c-0.9-.4-1.7-0.9-2.6-1.4a2.3,2.3,0,0,0-.9-1.3c-0.1-.9-0.7-1.3-0.8-2.1s-0.2-1.4-.4-2.1,0.4-3,.3-4.5a4.9,4.9,0,0,0,1.3-2.1,4.1,4.1,0,0,0,1.2-1.5,25,25,0,0,1,3.8-1.2h0Zm-1.6,2.6a14.5,14.5,0,0,0-1.7,1.5c-0.9,1.8-.9,3.8-0.8,6.4a7.5,7.5,0,0,0,2.1,3.4,9.6,9.6,0,0,0,3.5.7,12.1,12.1,0,0,1,1.8-1.1l0.5-.8,0.3-.2c0.1-.2,0-0.5.1-0.9l0.4-.5a14.4,14.4,0,0,1,.4-2.5c-0.2-.8-0.1-1.8-0.3-2.7a15.4,15.4,0,0,1-1-2.3,16,16,0,0,0-2.5-1.3,13.2,13.2,0,0,0-1.5.1,5.8,5.8,0,0,0-1.4.2h0Z"/><path class="d458e874-4db6-4bd9-aef7-69a23cd3583f" d="M67.2,237.2c-0.5.3-1.1-.1-1.7-0.1s0.1-1-.2-1.1,0.1-.9.1-1.3,0.2-2.5-.3-3.1a3.4,3.4,0,0,0,.3-1.2,19.2,19.2,0,0,1,0-5.5,3.2,3.2,0,0,0-3.8-1.5,2.6,2.6,0,0,0-1.5,1.4,20.8,20.8,0,0,0-.4,3.3,43.3,43.3,0,0,1-.3,6.2c0.3,1.1.7,3-.9,3a1.4,1.4,0,0,1-1.1-1.2,4.6,4.6,0,0,1,.1-0.9,14.5,14.5,0,0,1,0-1.9,6.9,6.9,0,0,1-.2-0.9c0-.6.2-1.1,0.2-2.2a7.8,7.8,0,0,1-.1-3.2c-0.4-.6-0.2-1.6-0.5-2.4a1.9,1.9,0,0,1-.4-0.8,11.6,11.6,0,0,0-1.8-.8,16.6,16.6,0,0,1-2,.6,9.5,9.5,0,0,0-1.4,4,20.5,20.5,0,0,1,.2,6.7,6.8,6.8,0,0,1-.3,2.9,4.3,4.3,0,0,1-1.7-.2c-0.7-1-.1-2.1-0.3-3.4a3.3,3.3,0,0,0-.1-1.1c0.1-2.6-.1-6,0.6-8.9-0.7-.9-0.5-2.5.2-2.6s1,0.9,1.5,1.5,0.8-.8,1.3-1.1a4.6,4.6,0,0,1,1.4-.8l2.2,0.2a16.9,16.9,0,0,0,2.3,1.8,6.8,6.8,0,0,0,1.5-1.1l2.8-1h0.3c0.7,0.4,1.7.5,2.4,1a1.1,1.1,0,0,1,.7.8,2.8,2.8,0,0,1,.7.7c0.4,1.1.2,2.1,0.7,3.1-0.2,2.9.1,5.9,0,8.9a4.2,4.2,0,0,1-.4,2.2h0Z"/><path class="d458e874-4db6-4bd9-aef7-69a23cd3583f" d="M75.3,221.2c0.1,3.3-.2,6.6.2,10.1a9.2,9.2,0,0,0,.4,2.1c0.7,1.3,2.2,1.7,3.5,2s1.8-1.1,2.8-1.4a16.6,16.6,0,0,0,1.1-3,2.7,2.7,0,0,1,.3-2.1c0.1-2.1-.3-5.4-0.1-7.7,0.8-.4,1.8-0.4,2.2.2a52.1,52.1,0,0,1,0,8,11.4,11.4,0,0,1,0,2.3,34.6,34.6,0,0,1-.1,3.5c0.1,0.6.4,1.2-.1,1.7a1.7,1.7,0,0,1-1.5-.2c-0.4-.3-0.2-0.9-0.7-1.1s-0.9.6-1.6,0.9a19.6,19.6,0,0,0-2,.7c-1.8-.2-3.5,0-4.7-0.9s-1.4-2.4-2-4,0.2-.7.1-1.2a17.3,17.3,0,0,1,0-4.1,8.5,8.5,0,0,0-.3-0.9,3.9,3.9,0,0,1,.3-1.1,5.7,5.7,0,0,1-.2-2.2,3.1,3.1,0,0,1,.4-1.3,0.6,0.6,0,0,1,.4-0.4,1.9,1.9,0,0,1,1.5.2h0Z"/><path class="d458e874-4db6-4bd9-aef7-69a23cd3583f" d="M104.7,236.8a7.1,7.1,0,0,1-1.9.2c-0.4-1.3-.2-2.7,0-4.3s-0.4-3-.2-4.8a9.6,9.6,0,0,0-.4-3.1,2.6,2.6,0,0,0-.1-0.4c-0.7-1-1.7-1.1-2.6-1.7a5.8,5.8,0,0,0-4.3,2.1c-0.1.8-.6,1.4-0.7,2.4a9,9,0,0,1-.1,3.5l0.3,1.2c-0.2,1.4-.3,3.2-0.3,4.6a2,2,0,0,1-1.7.4,4.2,4.2,0,0,1-.3-3.1c-0.1-.6-0.1-1.1-0.2-1.7s0.2-2.3.2-3.6a0.4,0.4,0,0,0,0-.4c0.1-2.2-.1-3.8.2-6a1.1,1.1,0,0,1,.2-1.2c1.5-.4,1.2,1.1,2.1,1.5a14.7,14.7,0,0,0,2-1.5,4.9,4.9,0,0,0,1.9-.4c0.5,0.3,1-.1,1.5,0a5.1,5.1,0,0,1,3.8,2.1,2.2,2.2,0,0,0,.5,1.3c-0.2.6,0.3,1.1,0.2,1.8a9.1,9.1,0,0,1-.1,1,27.2,27.2,0,0,1,.2,3.5,10.3,10.3,0,0,0,.2,3.5c-0.3,1.3.4,2.1-.2,3.1h0Z"/><path class="d458e874-4db6-4bd9-aef7-69a23cd3583f" d="M113.6,216.7a2,2,0,0,1-.9,2.1c-1.5.2-2.5-.3-2.4-1.9a0.7,0.7,0,0,0,.2-0.4,2,2,0,0,1,3.1.4h0Zm-1.1,20.5a4.9,4.9,0,0,1-1.7-.3c-0.1-2.8-.1-5.1-0.4-8.2a9.1,9.1,0,0,0,.5-2.2,11.2,11.2,0,0,1-.2-2.8c0-.8-0.3-1.7.3-2.4s0.8-.5,1.1-0.2,0.8,1.9.9,2.9a50,50,0,0,0,.3,7.8,12.7,12.7,0,0,0-.2,2.8c0,1.1.1,2-.7,2.6h0.1Z"/><path class="d458e874-4db6-4bd9-aef7-69a23cd3583f" d="M122.9,214.7c0.2,2.2-.9,4.6.5,6.3a7.3,7.3,0,0,1,2.3-.1,2,2,0,0,1,.3,2.2c-0.8.2-2.1-.4-2.9,0.2a1.2,1.2,0,0,1-.4.6c0.2,1.4-.1,3,0.4,4.3s-0.1,2.2-.4,3.2a21,21,0,0,1,.3,2.9l1.1,0.8c1.2,0.4,2.7.1,2.3,1.8s-1.6.4-2.5,0.4a8.7,8.7,0,0,0-1.8-.6,9.3,9.3,0,0,1-1.3-1.7,8.3,8.3,0,0,0-.3-2.4c-0.3-2.6.1-5.8-.3-9.2-0.4-.5-1.5-0.5-2.6-0.6a2.2,2.2,0,0,1,.1-2.1c0.9-.1,2.6.1,2.9-0.9a14.2,14.2,0,0,0-.2-1.5c0.1-1.9-.2-3.2.4-4.3a2,2,0,0,1,1.9.4h0Z"/><path class="d458e874-4db6-4bd9-aef7-69a23cd3583f" d="M140.9,237.1c-0.8,0-.8-0.9-1.5-1.1a9.7,9.7,0,0,0-1.8,1,15.6,15.6,0,0,1-4.4.2c-0.7-.8-1.7-1.2-2.3-1.9s-0.2-2.3-.7-3.2a14.4,14.4,0,0,1,.3-2.4c0.3-.4.6-1.1,0.9-1.5a0.5,0.5,0,0,0,.4-0.3c1.4-.7,2.6-0.7,4.6-1a7.2,7.2,0,0,0,2.5,1.4c1.2-.4.1-1.8,0.3-2.9a4.8,4.8,0,0,0-1.1-1.9c-0.7-.1-1.1-0.4-1.8-0.6s-3,.7-4.1.4a2,2,0,0,1-.6-1.6c0.4-.6,1.5-0.5,2.1-1a30.1,30.1,0,0,1,3.3,0,6,6,0,0,0,2.5.9c1.1,1.6,2.4,3.6,2,6.4,0,0.5.2,0.8,0.2,1.3s-0.2,3.2-.3,4.9a13.4,13.4,0,0,1,.3,2,1.8,1.8,0,0,1-1.1,1h0Zm-6.7-7.7-1.4,1.1c0.2,0.3-.2.3-0.3,0.6s0.3,3.1,1.1,3.4a3.3,3.3,0,0,0,2.9.4,3.1,3.1,0,0,1,1.1-.3c0.9-.8,2-1,2.2-2.6a11.7,11.7,0,0,0-1.7-2.3c-1-.2-1.6-0.5-2.5-0.7l-0.2.2h-1.2Z"/><path class="d458e874-4db6-4bd9-aef7-69a23cd3583f" d="M154.5,220.7a2.1,2.1,0,0,1,.4,2.1c-0.9.3-2.2,0.4-2.9,0.5s-1.2,2-1.8,3a69.2,69.2,0,0,1-.4,11l-1.6-.3c-0.6-.9-0.1-1.5-0.1-2.5s-0.2-1-.2-1.5,0.1-.8.1-1.1-0.2-3.7-.1-5.9a6.2,6.2,0,0,0-.1-2.8c0.3-.9,0-1.8.8-2.2a1.6,1.6,0,0,1,1.1.4c0.3,0.2.2,0.8,0.7,0.8s1.3-.8,2.2-1.1,1.3,0,1.6-.3h0.3Z"/><path class="d458e874-4db6-4bd9-aef7-69a23cd3583f" d="M162,216.7a2,2,0,0,1-.9,2.1c-1.5.2-2.5-.3-2.4-1.9a0.7,0.7,0,0,0,.2-0.4,2,2,0,0,1,3.1.4h0Zm-1.1,20.5a4.9,4.9,0,0,1-1.7-.3c-0.1-2.8-.1-5.1-0.4-8.2a9.1,9.1,0,0,0,.5-2.2,11.2,11.2,0,0,1-.2-2.8c0-.8-0.3-1.7.3-2.4s0.8-.5,1.1-0.2,0.8,1.9.9,2.9a50,50,0,0,0,.3,7.8,12.7,12.7,0,0,0-.2,2.8c0,1.1.1,2-.7,2.6h0.1Z"/><path class="d458e874-4db6-4bd9-aef7-69a23cd3583f" d="M172.8,220.7l0.2-.2c1.1,0.1,1.6.7,2.8,0.5s2.4,2.4,3.2,3.4,0.2,2,.9,2.8a2.6,2.6,0,0,0,.2,1.8,3.1,3.1,0,0,0,0,1.2c0,1-.7,1.7-0.7,2.8a9,9,0,0,0-1.3,2.1,10.8,10.8,0,0,1-2.5,1.7,7.9,7.9,0,0,1-4.6.1c-0.9-.4-1.7-0.9-2.6-1.4a2.3,2.3,0,0,0-.9-1.3c-0.1-.9-0.7-1.3-0.8-2.1s-0.2-1.4-.4-2.1,0.4-3,.3-4.5a4.9,4.9,0,0,0,1.3-2.1A4.1,4.1,0,0,0,169,222a25,25,0,0,1,3.8-1.2h0Zm-1.6,2.6a14.5,14.5,0,0,0-1.7,1.5c-0.9,1.8-.9,3.8-0.8,6.4a7.5,7.5,0,0,0,2.1,3.4,9.6,9.6,0,0,0,3.5.7,12.1,12.1,0,0,1,1.8-1.1l0.5-.8,0.3-.2c0.1-.2,0-0.5.1-0.9l0.4-.5a14.4,14.4,0,0,1,.4-2.5c-0.2-.8-0.1-1.8-0.3-2.7a15.4,15.4,0,0,1-1-2.3,16,16,0,0,0-2.5-1.3,13.2,13.2,0,0,0-1.5.1,5.8,5.8,0,0,0-1.4.2h0Z"/><path class="d458e874-4db6-4bd9-aef7-69a23cd3583f" d="M197.7,230c0.8-.3,1.1-1.3,1.3-2.3s0.4-1,.9-1.4c0.3-2.2,1.5-3,1.7-4.8s1.8-.8,2.5,0a3.1,3.1,0,0,1-.8,1.7c-0.3,1.6-1.2,2.6-1.3,4.1a12.5,12.5,0,0,0-1.1,2.2,3,3,0,0,0-.4,1.1,1.8,1.8,0,0,0-.4.9,27.4,27.4,0,0,1-1.9,4.1,26.7,26.7,0,0,1-1.5,4.4c-0.3.6-.6,1.2-0.9,2a5.4,5.4,0,0,1-.8,2,3.1,3.1,0,0,1-2,.1,2.9,2.9,0,0,1,.7-2.4c0-.9.5-1.3,0.7-1.9a7.8,7.8,0,0,1,.7-1.9c0.3-1.1,1.2-2.3,1.4-3.8s-1.2-3.7-2-5.2-0.3-.5-0.2-1a28.9,28.9,0,0,0-1.5-3.3c-0.1-1.1-.9-2.1-1.1-3.3a1.9,1.9,0,0,1,2.1,0c0.4,0.9,1.1,1.4,1.1,2.8a4.1,4.1,0,0,1,.8,1.3c0.1,0.9.7,1.7,0.8,2.5s0.5,1.8,1.2,2.2h0Z"/><path class="d458e874-4db6-4bd9-aef7-69a23cd3583f" d="M223.5,213.9a4.7,4.7,0,0,1-1.9,0l-1,.4a9.4,9.4,0,0,0-.9,6c0.4,0.7,2.7,0,3.3.5a2.6,2.6,0,0,1,0,1.8c-0.9.5-2.8-.2-3.3,0.8a16.3,16.3,0,0,1-.3,4.7c0.6,2.4.2,4.3,0.3,6.4s0,2.1-.5,2.4a1.7,1.7,0,0,1-1.7-.2,14.4,14.4,0,0,0-.3-3.1c0.3-1.4,0-2.9.1-4.8s0.2-1.5.2-2.6a1.5,1.5,0,0,1,0-1.1,11.2,11.2,0,0,0-.4-1.9c-0.5-.5-1.8,0-2.3-0.5a1.4,1.4,0,0,1-.3-1.7c0.4-.7,1.6-0.2,2.4-0.4s0.4-2,.7-2.9a31.6,31.6,0,0,1,.2-3.3,4,4,0,0,0,.7-1.5,4.5,4.5,0,0,1,3.4-1.3,5.7,5.7,0,0,1,1.8.6A3.5,3.5,0,0,1,223.5,213.9Z"/><path class="d458e874-4db6-4bd9-aef7-69a23cd3583f" d="M236.9,237.1c-0.8,0-.8-0.9-1.5-1.1a9.7,9.7,0,0,0-1.8,1,15.6,15.6,0,0,1-4.4.2c-0.7-.8-1.7-1.2-2.3-1.9s-0.2-2.3-.7-3.2a14.4,14.4,0,0,1,.3-2.4c0.3-.4.6-1.1,0.9-1.5a0.5,0.5,0,0,0,.4-0.3c1.4-.7,2.6-0.7,4.6-1a7.2,7.2,0,0,0,2.5,1.4c1.2-.4.1-1.8,0.3-2.9a4.8,4.8,0,0,0-1.1-1.9c-0.7-.1-1.1-0.4-1.8-0.6s-3,.7-4.1.4a2,2,0,0,1-.6-1.6c0.4-.6,1.5-0.5,2.1-1a30.1,30.1,0,0,1,3.3,0,6,6,0,0,0,2.5.9c1.1,1.6,2.4,3.6,2,6.4,0,0.5.2,0.8,0.2,1.3s-0.2,3.2-.3,4.9a13.4,13.4,0,0,1,.3,2,1.8,1.8,0,0,1-1.1,1h0Zm-6.7-7.7-1.4,1.1c0.2,0.3-.2.3-0.3,0.6s0.3,3.1,1.1,3.4a3.3,3.3,0,0,0,2.9.4,3.1,3.1,0,0,1,1.1-.3c0.9-.8,2-1,2.2-2.6a11.7,11.7,0,0,0-1.7-2.3c-1-.2-1.6-0.5-2.5-0.7l-0.2.2h-1.2Z"/><path class="d458e874-4db6-4bd9-aef7-69a23cd3583f" d="M262.2,237.2c-0.5.3-1.1-.1-1.7-0.1s0.1-1-.2-1.1,0.1-.9.1-1.3,0.2-2.5-.3-3.1a3.4,3.4,0,0,0,.3-1.2,19.2,19.2,0,0,1,0-5.5,3.2,3.2,0,0,0-3.8-1.5,2.6,2.6,0,0,0-1.5,1.4,20.8,20.8,0,0,0-.4,3.3,43.3,43.3,0,0,1-.3,6.2c0.3,1.1.7,3-.9,3a1.4,1.4,0,0,1-1.1-1.2,4.6,4.6,0,0,1,.1-0.9,14.5,14.5,0,0,1,0-1.9,6.9,6.9,0,0,1-.2-0.9c0-.6.2-1.1,0.2-2.2a7.8,7.8,0,0,1-.1-3.2c-0.4-.6-0.2-1.6-0.5-2.4a1.9,1.9,0,0,1-.4-0.8,11.6,11.6,0,0,0-1.8-.8,16.6,16.6,0,0,1-2,.6,9.5,9.5,0,0,0-1.4,4,20.5,20.5,0,0,1,.2,6.7,6.8,6.8,0,0,1-.3,2.9,4.3,4.3,0,0,1-1.7-.2c-0.7-1-.1-2.1-0.3-3.4a3.3,3.3,0,0,0-.1-1.1c0.1-2.6-.1-6,0.6-8.9-0.7-.9-0.5-2.5.2-2.6s1,0.9,1.5,1.5,0.8-.8,1.3-1.1a4.6,4.6,0,0,1,1.4-.8l2.2,0.2a16.9,16.9,0,0,0,2.3,1.8,6.8,6.8,0,0,0,1.5-1.1l2.8-1h0.3c0.7,0.4,1.7.5,2.4,1a1.1,1.1,0,0,1,.7.8,2.8,2.8,0,0,1,.7.7c0.4,1.1.2,2.1,0.7,3.1-0.2,2.9.1,5.9,0,8.9a4.2,4.2,0,0,1-.4,2.2h0Z"/><path class="d458e874-4db6-4bd9-aef7-69a23cd3583f" d="M271.3,216.7a2,2,0,0,1-.9,2.1c-1.5.2-2.5-.3-2.4-1.9a0.7,0.7,0,0,0,.2-0.4,2,2,0,0,1,3.1.4h0Zm-1.1,20.5a4.9,4.9,0,0,1-1.7-.3c-0.1-2.8-.1-5.1-0.4-8.2a9.1,9.1,0,0,0,.5-2.2,11.2,11.2,0,0,1-.2-2.8c0-.8-0.3-1.7.3-2.4s0.8-.5,1.1-0.2,0.8,1.9.9,2.9a50,50,0,0,0,.3,7.8,12.7,12.7,0,0,0-.2,2.8c0,1.1.1,2-.7,2.6h0.1Z"/><path class="d458e874-4db6-4bd9-aef7-69a23cd3583f" d="M279.3,214.3c-0.1,7.3-.5,14.3.4,23.2-0.8-.3-2-0.2-2.3-0.7s-0.2-1-.4-1.7a11.9,11.9,0,0,1,0-1.7c-0.4-3.7.6-8.1,0.2-11.7a19.2,19.2,0,0,1,.2-7.6,2.8,2.8,0,0,1,1.8.1h0Z"/><path class="d458e874-4db6-4bd9-aef7-69a23cd3583f" d="M288.7,216.7a2,2,0,0,1-.9,2.1c-1.5.2-2.5-.3-2.4-1.9a0.7,0.7,0,0,0,.2-0.4,2,2,0,0,1,3.1.4h0Zm-1.1,20.5a4.9,4.9,0,0,1-1.7-.3c-0.1-2.8-.1-5.1-0.4-8.2a9.1,9.1,0,0,0,.5-2.2,11.2,11.2,0,0,1-.2-2.8c0-.8-0.3-1.7.3-2.4s0.8-.5,1.1-0.2,0.8,1.9.9,2.9a50,50,0,0,0,.3,7.8,12.7,12.7,0,0,0-.2,2.8c0,1.1.1,2-.7,2.6h0.1Z"/><path class="d458e874-4db6-4bd9-aef7-69a23cd3583f" d="M303.6,237.1c-0.8,0-.8-0.9-1.5-1.1a9.7,9.7,0,0,0-1.8,1,15.6,15.6,0,0,1-4.4.2c-0.7-.8-1.7-1.2-2.3-1.9s-0.2-2.3-.7-3.2a14.4,14.4,0,0,1,.3-2.4c0.3-.4.6-1.1,0.9-1.5a0.5,0.5,0,0,0,.4-0.3c1.4-.7,2.6-0.7,4.6-1a7.2,7.2,0,0,0,2.5,1.4c1.2-.4.1-1.8,0.3-2.9a4.8,4.8,0,0,0-1.1-1.9c-0.7-.1-1.1-0.4-1.8-0.6s-3,.7-4.1.4a2,2,0,0,1-.6-1.6c0.4-.6,1.5-0.5,2.1-1a30.1,30.1,0,0,1,3.3,0,6,6,0,0,0,2.5.9c1.1,1.6,2.4,3.6,2,6.4,0,0.5.2,0.8,0.2,1.3s-0.2,3.2-.3,4.9a13.4,13.4,0,0,1,.3,2,1.8,1.8,0,0,1-1.1,1h0Zm-6.7-7.7-1.4,1.1c0.2,0.3-.2.3-0.3,0.6s0.3,3.1,1.1,3.4a3.3,3.3,0,0,0,2.9.4,3.1,3.1,0,0,1,1.1-.3c0.9-.8,2-1,2.2-2.6a11.7,11.7,0,0,0-1.7-2.3c-1-.2-1.6-0.5-2.5-0.7l-0.2.2h-1.2Z"/><path class="d458e874-4db6-4bd9-aef7-69a23cd3583f" d="M317.3,220.7a2.1,2.1,0,0,1,.4,2.1c-0.9.3-2.2,0.4-2.9,0.5s-1.2,2-1.8,3a69.2,69.2,0,0,1-.4,11L311,237c-0.6-.9-0.1-1.5-0.1-2.5s-0.2-1-.2-1.5,0.1-.8.1-1.1-0.2-3.7-.1-5.9a6.2,6.2,0,0,0-.1-2.8c0.3-.9,0-1.8.8-2.2a1.6,1.6,0,0,1,1.1.4c0.3,0.2.2,0.8,0.7,0.8s1.3-.8,2.2-1.1,1.3,0,1.6-.3h0.3Z"/><polygon class="46676680-b13e-4a10-85a5-6063372e2b3e" points="39.3 70.6 6.9 70.6 6.9 5.4 39.8 5.4 39.8 7.7 9.3 7.7 9.3 68.3 39.3 68.3 39.3 70.6"/><polygon class="46676680-b13e-4a10-85a5-6063372e2b3e" points="320.4 71.6 288.1 71.6 288.1 69.2 318 69.2 318 8.6 287.6 8.6 287.6 6.3 320.4 6.3 320.4 71.6"/><path class="d458e874-4db6-4bd9-aef7-69a23cd3583f" d="M44.5,35.8a1.1,1.1,0,0,1,1.1,1.1v4.7a1,1,0,0,1-1.1,1.1h-10V47H47.2a1.1,1.1,0,0,1,1.1,1.1v4.7a1,1,0,0,1-1.1,1.1h-19a1.1,1.1,0,0,1-1.1-1.1V25.3a1.1,1.1,0,0,1,1.1-1.1h19a1.1,1.1,0,0,1,1.1,1.1v4.9a1,1,0,0,1-1.1,1.1H34.5v4.5h10Z"/><path class="d458e874-4db6-4bd9-aef7-69a23cd3583f" d="M54.3,25.3a1,1,0,0,1,1.1-1.1h5.1a1.1,1.1,0,0,1,1.1,1.1V47.1H74.4a1.1,1.1,0,0,1,1.1,1.1v4.7a1,1,0,0,1-1.1,1.1h-19a1,1,0,0,1-1.1-1.1V25.3Z"/><path class="d458e874-4db6-4bd9-aef7-69a23cd3583f" d="M98.7,48.5L96.7,53a1.5,1.5,0,0,1-1.3.9H89.8a1.1,1.1,0,0,1-1.1-1.2l13.5-27.8a1.9,1.9,0,0,1,3,0l13.5,27.8a1.1,1.1,0,0,1-1.1,1.2H112a1.5,1.5,0,0,1-1.3-.9l-2.1-4.5H98.7Zm7.2-6.1-2.2-4.5-2.3,4.5h4.5Z"/><path class="d458e874-4db6-4bd9-aef7-69a23cd3583f" d="M122.9,25.3a1,1,0,0,1,1.1-1.1h5.1a1.1,1.1,0,0,1,1.1,1.1V47.1h12.7a1.1,1.1,0,0,1,1.1,1.1v4.7a1,1,0,0,1-1.1,1.1H124a1,1,0,0,1-1.1-1.1V25.3Z"/><path class="d458e874-4db6-4bd9-aef7-69a23cd3583f" d="M162,54.2A14.9,14.9,0,0,1,147.1,39a15.1,15.1,0,0,1,15.2-15.2,15.8,15.8,0,0,1,11.1,4.3,2.6,2.6,0,0,1,.3.8,1.2,1.2,0,0,1-.3.8l-3.2,2.8a1.2,1.2,0,0,1-.7.3,1.6,1.6,0,0,1-1-.3,9.5,9.5,0,0,0-6.2-1.9c-4.5,0-7.8,3.9-7.8,8.4s3.6,8.6,7.8,8.6,3.9,0,6.7-2.1a1.4,1.4,0,0,1,.9-0.4,1.1,1.1,0,0,1,.7.3l2.5,2.8a1.1,1.1,0,0,1,.4.8,1.6,1.6,0,0,1-.3.8C170.5,53.2,166.7,54.2,162,54.2Z"/><path class="d458e874-4db6-4bd9-aef7-69a23cd3583f" d="M176.7,39a15,15,0,1,1,15,15.2A15.1,15.1,0,0,1,176.7,39Zm22.8,0.2c0-4.5-3.2-8.4-7.8-8.4s-7.7,3.9-7.7,8.4,3.2,8.6,7.7,8.6S199.5,43.7,199.5,39.2Z"/><path class="d458e874-4db6-4bd9-aef7-69a23cd3583f" d="M236.2,52.8a1.1,1.1,0,0,1-1.1,1.1h-5.1a1,1,0,0,1-1.1-1.1V42.9h-9.2v9.9a1.1,1.1,0,0,1-1.1,1.1h-5.1a1,1,0,0,1-1.1-1.1V25.3a1,1,0,0,1,1.1-1.1h5.1a1.1,1.1,0,0,1,1.1,1.1V36h9.2V25.3a1,1,0,0,1,1.1-1.1h5.1a1.1,1.1,0,0,1,1.1,1.1V52.8Z"/><path class="d458e874-4db6-4bd9-aef7-69a23cd3583f" d="M241.6,39a15,15,0,1,1,15,15.2A15.1,15.1,0,0,1,241.6,39Zm22.8,0.2c0-4.5-3.2-8.4-7.8-8.4s-7.7,3.9-7.7,8.4,3.2,8.6,7.7,8.6S264.4,43.7,264.4,39.2Z"/><path class="d458e874-4db6-4bd9-aef7-69a23cd3583f" d="M277.2,25.3a1,1,0,0,1,1.1-1.1h5.1a1.1,1.1,0,0,1,1.1,1.1V47.1h12.7a1.1,1.1,0,0,1,1.1,1.1v4.7a1,1,0,0,1-1.1,1.1h-19a1,1,0,0,1-1.1-1.1V25.3Z"/></svg>