<?xml version="1.0" encoding="utf-8"?>
<!-- Generator: Adobe Illustrator 16.0.0, SVG Export Plug-In . SVG Version: 6.00 Build 0)  -->
<!DOCTYPE svg PUBLIC "-//W3C//DTD SVG 1.1//EN" "http://www.w3.org/Graphics/SVG/1.1/DTD/svg11.dtd">
<svg version="1.1" id="Capa_1" xmlns="http://www.w3.org/2000/svg" xmlns:xlink="http://www.w3.org/1999/xlink" x="0px" y="0px"
	 width="150px" height="208px" viewBox="0 0 150 208" enable-background="new 0 0 150 208" xml:space="preserve">
<g>
	<g>
		<path fill-rule="evenodd" clip-rule="evenodd" fill="#FFFFFF" d="M75,10.4c-34.8,0-63.6,28.9-64,63.5c-0.4,35.5,27.5,65.7,64,65.9
			c35.2,0.2,64-29,64.1-64.7C139,39.5,110.3,10.4,75,10.4z M87.5,128.6c-29.6,7.1-60.1-13-65.4-43c-5-28.4,11.1-55.2,38.2-63.1
			c14.2-4.1,27.9-2.6,40.9,4.4c1,0.6,1.7,1.1,1.7,2.5c-0.6,14.8-3.7,29.1-9.3,42.9c-0.3,0.8-0.7,1.6-1,2.3c0,0.1-0.2,0.2-0.5,0.3
			c-2.8-6.2-4.9-12.5-6.5-19.1c-0.4-1.8-1.1-2.6-3-2.4c-2.4,0.2-4.8,0.2-7.2,0c-1.9-0.2-2.4,0.5-2.5,2.3c-0.1,11.5-2.5,22.6-6,33.5
			c-1.2,3.8-2.6,7.5-4.4,11.4c-3.5-8-6-15.9-7.8-24.1c-1.5-7.1-2.6-14.3-2.6-21.6c0-1.4-0.5-1.6-1.7-1.6c-2.8,0.1-5.6,0.1-8.5,0
			c-1.5-0.1-1.7,0.5-1.7,1.8c0.1,8.7,1.4,17.2,3.5,25.7c3.2,13.2,8.1,25.8,15.4,37.3c0.7,1.1,1.6,2.1,2.4,3.2
			c0.9,1.4,1.6,1.1,2.4-0.1c4.6-6.8,8.4-14,11.5-21.6c2.6-6.3,4.6-12.8,6.3-20c2.9,5.8,5.5,11.1,9.2,15.7c1.6,2,1.6,2,3,0
			c8.4-12.5,13.9-26.3,17.4-41c1.2-5.1,2.2-10.3,2.6-15.6c0-0.5,0.2-1.1,0.4-1.9c5.2,5.4,9,11.4,11.6,18.2
			C137.9,86.5,119.9,120.9,87.5,128.6z"/>
	</g>
	<g>
		<path fill="#FFFFFF" stroke="#FFFFFF" stroke-width="0.551" stroke-miterlimit="10" d="M15,169.9c0,0.3-0.3,0.3-0.3,0.3h-1.2
			c0,0-0.3,0-0.3-0.3v-19.6h4.5c4.1,0,5.7,2.5,5.7,5.9c0,0.1,0,0.7,0,0.7c0,3.5-1.6,5.9-5.7,5.9H15V169.9z M15,161.3h2.7
			c2.4,0,4-1.1,4-4.3v-0.7c0-3.2-1.6-4.3-4-4.3H15V161.3z"/>
		<path fill="#FFFFFF" stroke="#FFFFFF" stroke-width="0.551" stroke-miterlimit="10" d="M30.9,169.9c0,0.3-0.3,0.3-0.3,0.3h-1.2
			c0,0-0.3,0-0.3-0.3v-19.6h4c4.7,0,6.3,2.4,6.3,5.4v0.6c0,2.8-1.1,4.7-3.7,5.4l2.5,5.1c0.6,1.1,1.3,1.8,2.1,1.8h0.3
			c0.3,0,0.3,0.3,0.3,0.3v1c0,0,0,0.3-0.3,0.3h-0.5c-1.5,0-2.4-0.9-3.6-2.9l-2.6-5.3h-3.2V169.9z M30.9,160.3h2.5
			c2.8,0,4.3-0.8,4.3-4v-0.6c0-2.6-1.6-3.7-4.5-3.7h-2.4V160.3z"/>
		<path fill="#FFFFFF" stroke="#FFFFFF" stroke-width="0.551" stroke-miterlimit="10" d="M57,156.3c0,0.1,0,7.8,0,7.8
			c0,3.5-1.6,6.2-5.7,6.2s-5.7-2.8-5.7-6.2c0,0,0-7.8,0-7.8c0-3.5,1.6-6.3,5.7-6.3S57,152.9,57,156.3z M47.4,156.3v7.8
			c0,3.2,1.5,4.6,3.9,4.6c2.4,0,3.9-1.4,3.9-4.6v-7.8c0-3.2-1.5-4.6-3.9-4.6C48.9,151.7,47.4,153.2,47.4,156.3z"/>
		<path fill="#FFFFFF" stroke="#FFFFFF" stroke-width="0.551" stroke-miterlimit="10" d="M61.1,150.6c-0.1-0.2,0-0.3,0.1-0.3h1.4
			c0.1,0,0.2,0,0.3,0.3l4.6,11.6h0.3l4.1-11.6c0.1-0.3,0.2-0.3,0.3-0.3h1.4c0.1,0,0.2,0.1,0.1,0.3l-7,19.3c-0.1,0.3-0.2,0.3-0.3,0.3
			h-1.3c-0.1,0-0.2-0.1-0.1-0.3l2.1-5.8h-0.3c0,0-0.2,0-0.3-0.3L61.1,150.6z"/>
		<path fill="#FFFFFF" stroke="#FFFFFF" stroke-width="0.551" stroke-miterlimit="10" d="M78.8,150.3h10c0.3,0,0.3,0.3,0.3,0.3v1.1
			c0,0,0,0.3-0.3,0.3c0,0,0,0-8.3,0v7.4h6.3c0.3,0,0.3,0.3,0.3,0.3v1.1c0,0,0,0.3-0.3,0.3c0,0,0,0-6.3,0v7.5h8.3
			c0.3,0,0.3,0.3,0.3,0.3v1.1c0,0,0,0.3-0.3,0.3c0,0,0,0-10.1,0V150.3z"/>
		<path fill="#FFFFFF" stroke="#FFFFFF" stroke-width="0.551" stroke-miterlimit="10" d="M104.8,155.1l-1.1,0.3
			c-0.2,0.1-0.4,0-0.4-0.2c-0.2-2.1-1.5-3.4-3.8-3.4c-2.7,0-4,1.4-4,4.6v7.8c0,3.2,1.3,4.6,4,4.6c2.4,0,3.9-1.4,3.9-4.6
			c0-0.3,0.3-0.3,0.3-0.3h1.2c0,0,0.3,0,0.3,0.3c0,3.5-1.5,6.2-5.6,6.2c-3.8,0-5.7-2.6-5.7-6.2v-7.8c0-3.6,1.9-6.3,5.7-6.3
			c3.5,0,5.1,2.1,5.5,4.6C105,154.8,104.9,155,104.8,155.1z"/>
		<path fill="#FFFFFF" stroke="#FFFFFF" stroke-width="0.551" stroke-miterlimit="10" d="M115.8,151.9v18c0,0.3-0.3,0.3-0.3,0.3
			h-1.2c0,0-0.3,0-0.3-0.3v-18h-4.5c-0.3,0-0.3-0.3-0.3-0.3v-1.1c0,0,0-0.3,0.3-0.3h10.8c0.3,0,0.3,0.3,0.3,0.3v1.1
			c0,0,0,0.3-0.3,0.3H115.8z"/>
		<path fill="#FFFFFF" stroke="#FFFFFF" stroke-width="0.551" stroke-miterlimit="10" d="M135.6,156.3c0,0.1,0,7.8,0,7.8
			c0,3.5-1.6,6.2-5.7,6.2c-4.1,0-5.7-2.8-5.7-6.2c0,0,0-7.8,0-7.8c0-3.5,1.6-6.3,5.7-6.3C134,150.1,135.6,152.9,135.6,156.3z
			 M126,156.3v7.8c0,3.2,1.5,4.6,3.9,4.6c2.4,0,3.9-1.4,3.9-4.6v-7.8c0-3.2-1.5-4.6-3.9-4.6C127.5,151.7,126,153.2,126,156.3z"/>
		<path fill="#FFFFFF" stroke="#FFFFFF" stroke-width="0.551" stroke-miterlimit="10" d="M20.6,177.5c0,0,0.3,0,0.3,0.3l5.4,19.4
			c0.1,0.2-0.2,0.2-0.2,0.2h-1.4c-0.1,0-0.2-0.1-0.3-0.3l-2-7.2h-6.3l-2.1,7.2c-0.1,0.2-0.2,0.3-0.3,0.3h-1.4c0,0-0.2,0-0.2-0.2
			l5.5-19.4c0.1-0.3,0.3-0.3,0.3-0.3H20.6z M16.7,188.2h5.4l-2.4-9.1h-0.5L16.7,188.2z"/>
		<path fill="#FFFFFF" stroke="#FFFFFF" stroke-width="0.551" stroke-miterlimit="10" d="M31.4,197.4v-19.6c0-0.3,0.3-0.3,0.3-0.3
			h1.2c0,0,0.3,0,0.3,0.3v18h6.6c0.3,0,0.3,0.3,0.3,0.3v1.1c0,0,0,0.3-0.3,0.3H31.4z"/>
		<path fill="#FFFFFF" stroke="#FFFFFF" stroke-width="0.551" stroke-miterlimit="10" d="M47,179.1v18c0,0.3-0.3,0.3-0.3,0.3h-1.2
			c0,0-0.3,0-0.3-0.3v-18h-4.5c-0.3,0-0.3-0.3-0.3-0.3v-1.1c0,0,0-0.3,0.3-0.3h10.8c0.3,0,0.3,0.3,0.3,0.3v1.1c0,0,0,0.3-0.3,0.3H47
			z"/>
		<path fill="#FFFFFF" stroke="#FFFFFF" stroke-width="0.551" stroke-miterlimit="10" d="M61.8,177.5c0,0,0.3,0,0.3,0.3l5.4,19.4
			c0.1,0.2-0.2,0.2-0.2,0.2H66c-0.1,0-0.2-0.1-0.3-0.3l-2-7.2h-6.3l-2.1,7.2c-0.1,0.2-0.2,0.3-0.3,0.3h-1.4c0,0-0.2,0-0.2-0.2
			l5.5-19.4c0.1-0.3,0.3-0.3,0.3-0.3H61.8z M57.8,188.2h5.4l-2.4-9.1h-0.5L57.8,188.2z"/>
		<path fill="#FFFFFF" stroke="#FFFFFF" stroke-width="0.551" stroke-miterlimit="10" d="M80.6,177.8c0.1-0.3,0.2-0.3,0.3-0.3h1.4
			c0,0,0.3,0,0.2,0.3l-4.8,19.3c-0.1,0.3-0.3,0.3-0.3,0.3h-2.5c0,0-0.3,0-0.3-0.3l-4.9-19.3c-0.1-0.3,0.2-0.3,0.2-0.3h1.3
			c0.1,0,0.2,0,0.3,0.3l4.5,18.1h0.3L80.6,177.8z"/>
		<path fill="#FFFFFF" stroke="#FFFFFF" stroke-width="0.551" stroke-miterlimit="10" d="M89.1,197.1c0,0.3-0.3,0.3-0.3,0.3h-1.2
			c0,0-0.3,0-0.3-0.3v-19.3c0-0.3,0.3-0.3,0.3-0.3h1.2c0,0,0.3,0,0.3,0.3V197.1z"/>
		<path fill="#FFFFFF" stroke="#FFFFFF" stroke-width="0.551" stroke-miterlimit="10" d="M102.7,187.8c1.7,0.9,2.6,2.5,2.6,4.4
			c0,3-2,5.4-5.7,5.4c-2.2,0-5.6-1.2-5.6-5.6c0-0.3,0.3-0.3,0.3-0.3h1.2c0,0,0.3,0,0.3,0.3c0,3.2,2.1,3.9,3.9,3.9c2.9,0,4-2.1,4-3.7
			c0-1.2-0.5-2.4-2.2-3.2l-4.3-2.2c-2.5-1.3-2.8-3.3-2.8-4.7c0-3.1,2.4-4.8,5.4-4.8c3.5,0,5.1,2,5.5,4.6c0,0.1,0,0.3-0.2,0.4
			l-1.1,0.3c-0.2,0.1-0.4,0-0.4-0.2c-0.2-2.1-1.5-3.3-3.8-3.3c-2.8,0-3.6,1.7-3.6,3.1c0,1.2,0.4,2.3,1.6,3L102.7,187.8z"/>
		<path fill="#FFFFFF" stroke="#FFFFFF" stroke-width="0.551" stroke-miterlimit="10" d="M115.3,179.1v18c0,0.3-0.3,0.3-0.3,0.3
			h-1.2c0,0-0.3,0-0.3-0.3v-18H109c-0.3,0-0.3-0.3-0.3-0.3v-1.1c0,0,0-0.3,0.3-0.3h10.8c0.3,0,0.3,0.3,0.3,0.3v1.1
			c0,0,0,0.3-0.3,0.3H115.3z"/>
		<path fill="#FFFFFF" stroke="#FFFFFF" stroke-width="0.551" stroke-miterlimit="10" d="M130,177.5c0,0,0.3,0,0.3,0.3l5.4,19.4
			c0.1,0.2-0.2,0.2-0.2,0.2h-1.4c-0.1,0-0.2-0.1-0.3-0.3l-2-7.2h-6.3l-2.1,7.2c-0.1,0.2-0.2,0.3-0.3,0.3h-1.4c0,0-0.2,0-0.2-0.2
			l5.5-19.4c0.1-0.3,0.3-0.3,0.3-0.3H130z M126.1,188.2h5.4l-2.4-9.1h-0.5L126.1,188.2z"/>
	</g>
</g>
</svg>
