<?xml version="1.0" encoding="UTF-8" standalone="no"?>
<svg width="107px" height="40px" viewBox="0 0 107 40" version="1.1" xmlns="http://www.w3.org/2000/svg" xmlns:xlink="http://www.w3.org/1999/xlink">
    <!-- Generator: Sketch 41.2 (35397) - http://www.bohemiancoding.com/sketch -->
    <title>Group 3</title>
    <desc>Created with Sketch.</desc>
    <defs></defs>
    <g id="Page-1" stroke="none" stroke-width="1" fill="none" fill-rule="evenodd">
        <g id="Propuesta-3-SELECCION" transform="translate(-170.000000, -4104.000000)" fill="#B21A1B">
            <g id="Group-3" transform="translate(170.000000, 4104.000000)">
                <path d="M48.4516129,18.5354167 C48.4516129,18.6791667 48.3064516,18.6791667 48.3064516,18.6791667 L47.7258065,18.6791667 C47.7258065,18.6791667 47.5806452,18.6791667 47.5806452,18.5354167 L47.5806452,9.14375 L49.7580645,9.14375 C51.7419355,9.14375 52.516129,10.3416667 52.516129,11.9708333 L52.516129,12.30625 C52.516129,13.9833333 51.7419355,15.1333333 49.7580645,15.1333333 L48.4516129,15.1333333 L48.4516129,18.5354167 Z M48.4516129,14.4145833 L49.7580645,14.4145833 C50.9193548,14.4145833 51.6935484,13.8875 51.6935484,12.3541667 L51.6935484,12.01875 C51.6935484,10.4854167 50.9193548,9.95833333 49.7580645,9.95833333 L48.4516129,9.95833333 L48.4516129,14.4145833 Z" id="Shape"></path>
                <path d="M56.1451613,18.5354167 C56.1451613,18.6791667 56,18.6791667 56,18.6791667 L55.4193548,18.6791667 C55.4193548,18.6791667 55.2741935,18.6791667 55.2741935,18.5354167 L55.2741935,9.14375 L57.2096774,9.14375 C59.483871,9.14375 60.2580645,10.29375 60.2580645,11.73125 L60.2580645,12.01875 C60.2580645,13.3604167 59.7258065,14.2708333 58.4677419,14.60625 L59.6774194,17.05 C59.9677419,17.5770833 60.3064516,17.9125 60.6935484,17.9125 L60.8387097,17.9125 C60.983871,17.9125 60.983871,18.05625 60.983871,18.05625 L60.983871,18.5354167 C60.983871,18.5354167 60.983871,18.6791667 60.8387097,18.6791667 L60.5967742,18.6791667 C59.8709677,18.6791667 59.4354839,18.2479167 58.8548387,17.2895833 L57.5967742,14.75 L56.0483871,14.75 L56.0483871,18.5354167 L56.1451613,18.5354167 Z M56.1451613,13.9354167 L57.3548387,13.9354167 C58.7096774,13.9354167 59.4354839,13.5520833 59.4354839,12.01875 L59.4354839,11.73125 C59.4354839,10.4854167 58.6612903,9.95833333 57.2580645,9.95833333 L56.0967742,9.95833333 L56.0967742,13.9354167 L56.1451613,13.9354167 Z" id="Shape"></path>
                <path d="M68.7741935,12.01875 L68.7741935,15.75625 C68.7741935,17.4333333 68,18.7270833 66.016129,18.7270833 C64.0322581,18.7270833 63.2580645,17.3854167 63.2580645,15.75625 L63.2580645,12.01875 C63.2580645,10.3416667 64.0322581,9 66.016129,9 C68,9 68.7741935,10.3895833 68.7741935,12.01875 Z M64.1290323,12.01875 L64.1290323,15.75625 C64.1290323,17.2895833 64.8548387,17.9604167 66.016129,17.9604167 C67.1774194,17.9604167 67.9032258,17.2895833 67.9032258,15.75625 L67.9032258,12.01875 C67.9032258,10.4854167 67.1774194,9.81458333 66.016129,9.81458333 C64.8548387,9.81458333 64.1290323,10.5333333 64.1290323,12.01875 Z" id="Shape"></path>
                <path d="M70.7580645,9.2875 C70.7096774,9.19166667 70.7580645,9.14375 70.8064516,9.14375 L71.483871,9.14375 C71.5322581,9.14375 71.5806452,9.14375 71.6290323,9.2875 L73.8548387,14.8458333 L74,14.8458333 L75.983871,9.2875 C76.0322581,9.14375 76.0806452,9.14375 76.1290323,9.14375 L76.8064516,9.14375 C76.8548387,9.14375 76.9032258,9.19166667 76.8548387,9.2875 L73.4677419,18.5354167 C73.4193548,18.6791667 73.3709677,18.6791667 73.3225806,18.6791667 L72.6935484,18.6791667 C72.6451613,18.6791667 72.5967742,18.63125 72.6451613,18.5354167 L73.6612903,15.75625 L73.516129,15.75625 C73.516129,15.75625 73.4193548,15.75625 73.3709677,15.6125 L70.7580645,9.2875 Z" id="Shape"></path>
                <path d="M79.3225806,9.14375 L84.1612903,9.14375 C84.3064516,9.14375 84.3064516,9.2875 84.3064516,9.2875 L84.3064516,9.81458333 C84.3064516,9.81458333 84.3064516,9.95833333 84.1612903,9.95833333 C84.1612903,9.95833333 84.1612903,9.95833333 80.1451613,9.95833333 L80.1451613,13.5041667 L83.1935484,13.5041667 C83.3387097,13.5041667 83.3387097,13.6479167 83.3387097,13.6479167 L83.3387097,14.175 C83.3387097,14.175 83.3387097,14.31875 83.1935484,14.31875 C83.1935484,14.31875 83.1935484,14.31875 80.1451613,14.31875 L80.1451613,17.9125 L84.1612903,17.9125 C84.3064516,17.9125 84.3064516,18.05625 84.3064516,18.05625 L84.3064516,18.5833333 C84.3064516,18.5833333 84.3064516,18.7270833 84.1612903,18.7270833 C84.1612903,18.7270833 84.1612903,18.7270833 79.2741935,18.7270833 L79.2741935,9.14375 L79.3225806,9.14375 Z" id="Shape"></path>
                <path d="M91.9032258,11.44375 L91.3709677,11.5875 C91.2741935,11.6354167 91.1774194,11.5875 91.1774194,11.4916667 C91.0806452,10.4854167 90.4516129,9.8625 89.3387097,9.8625 C88.0322581,9.8625 87.4032258,10.5333333 87.4032258,12.0666667 L87.4032258,15.8041667 C87.4032258,17.3375 88.0322581,18.0083333 89.3387097,18.0083333 C90.5,18.0083333 91.2258065,17.3375 91.2258065,15.8041667 C91.2258065,15.6604167 91.3709677,15.6604167 91.3709677,15.6604167 L91.9516129,15.6604167 C91.9516129,15.6604167 92.0967742,15.6604167 92.0967742,15.8041667 C92.0967742,17.48125 91.3709677,18.775 89.3870968,18.775 C87.5483871,18.775 86.6290323,17.5291667 86.6290323,15.8041667 L86.6290323,12.0666667 C86.6290323,10.3416667 87.5483871,9.04791667 89.3870968,9.04791667 C91.0806452,9.04791667 91.8548387,10.0541667 92.0483871,11.2520833 C92,11.3 91.9516129,11.3958333 91.9032258,11.44375 Z" id="Shape"></path>
                <path d="M97.2258065,9.91041667 L97.2258065,18.5354167 C97.2258065,18.6791667 97.0806452,18.6791667 97.0806452,18.6791667 L96.5,18.6791667 C96.5,18.6791667 96.3548387,18.6791667 96.3548387,18.5354167 L96.3548387,9.91041667 L94.1774194,9.91041667 C94.0322581,9.91041667 94.0322581,9.76666667 94.0322581,9.76666667 L94.0322581,9.23958333 C94.0322581,9.23958333 94.0322581,9.09583333 94.1774194,9.09583333 L99.4032258,9.09583333 C99.5483871,9.09583333 99.5483871,9.23958333 99.5483871,9.23958333 L99.5483871,9.76666667 C99.5483871,9.76666667 99.5483871,9.91041667 99.4032258,9.91041667 L97.2258065,9.91041667 Z" id="Shape"></path>
                <path d="M106.806452,12.01875 L106.806452,15.75625 C106.806452,17.4333333 106.032258,18.7270833 104.048387,18.7270833 C102.064516,18.7270833 101.290323,17.3854167 101.290323,15.75625 L101.290323,12.01875 C101.290323,10.3416667 102.064516,9 104.048387,9 C106.032258,9.04791667 106.806452,10.3895833 106.806452,12.01875 Z M102.16129,12.01875 L102.16129,15.75625 C102.16129,17.2895833 102.887097,17.9604167 104.048387,17.9604167 C105.209677,17.9604167 105.935484,17.2895833 105.935484,15.75625 L105.935484,12.01875 C105.935484,10.4854167 105.209677,9.81458333 104.048387,9.81458333 C102.887097,9.81458333 102.16129,10.5333333 102.16129,12.01875 Z" id="Shape"></path>
                <path d="M51.1612903,22.1770833 C51.1612903,22.1770833 51.3064516,22.1770833 51.3064516,22.3208333 L53.9193548,31.6166667 C53.9677419,31.7125 53.8225806,31.7125 53.8225806,31.7125 L53.1451613,31.7125 C53.0967742,31.7125 53.0483871,31.6645833 53,31.56875 L52.0322581,28.11875 L48.983871,28.11875 L47.9677419,31.56875 C47.9193548,31.6645833 47.8709677,31.7125 47.8225806,31.7125 L47.1451613,31.7125 C47.1451613,31.7125 47.0483871,31.7125 47.0483871,31.6166667 L49.7096774,22.3208333 C49.7580645,22.1770833 49.8548387,22.1770833 49.8548387,22.1770833 L51.1612903,22.1770833 Z M49.2741935,27.3041667 L51.8870968,27.3041667 L50.7258065,22.94375 L50.483871,22.94375 L49.2741935,27.3041667 Z" id="Shape"></path>
                <path d="M56.3870968,31.7125 L56.3870968,22.3208333 C56.3870968,22.1770833 56.5322581,22.1770833 56.5322581,22.1770833 L57.1129032,22.1770833 C57.1129032,22.1770833 57.2580645,22.1770833 57.2580645,22.3208333 L57.2580645,30.9458333 L60.4516129,30.9458333 C60.5967742,30.9458333 60.5967742,31.0895833 60.5967742,31.0895833 L60.5967742,31.6166667 C60.5967742,31.6166667 60.5967742,31.7604167 60.4516129,31.7604167 L56.3870968,31.7604167 L56.3870968,31.7125 Z" id="Shape"></path>
                <path d="M63.9354839,22.94375 L63.9354839,31.56875 C63.9354839,31.7125 63.7903226,31.7125 63.7903226,31.7125 L63.2096774,31.7125 C63.2096774,31.7125 63.0645161,31.7125 63.0645161,31.56875 L63.0645161,22.94375 L60.8870968,22.94375 C60.7419355,22.94375 60.7419355,22.8 60.7419355,22.8 L60.7419355,22.2729167 C60.7419355,22.2729167 60.7419355,22.1291667 60.8870968,22.1291667 L66.1129032,22.1291667 C66.2580645,22.1291667 66.2580645,22.2729167 66.2580645,22.2729167 L66.2580645,22.8 C66.2580645,22.8 66.2580645,22.94375 66.1129032,22.94375 L63.9354839,22.94375 Z" id="Shape"></path>
                <path d="M71.0967742,22.1770833 C71.0967742,22.1770833 71.2419355,22.1770833 71.2419355,22.3208333 L73.8548387,31.6166667 C73.9032258,31.7125 73.7580645,31.7125 73.7580645,31.7125 L73.1290323,31.7125 C73.0806452,31.7125 73.0322581,31.6645833 72.983871,31.56875 L72.016129,28.11875 L68.9677419,28.11875 L67.9516129,31.56875 C67.9032258,31.6645833 67.8548387,31.7125 67.8064516,31.7125 L67.1290323,31.7125 C67.1290323,31.7125 67.0322581,31.7125 67.0322581,31.6166667 L69.6935484,22.3208333 C69.7419355,22.1770833 69.8387097,22.1770833 69.8387097,22.1770833 L71.0967742,22.1770833 Z M69.1612903,27.3041667 L71.7741935,27.3041667 L70.6129032,22.94375 L70.3709677,22.94375 L69.1612903,27.3041667 Z" id="Shape"></path>
                <path d="M80.1935484,22.3208333 C80.2419355,22.1770833 80.2903226,22.1770833 80.3387097,22.1770833 L81.016129,22.1770833 C81.016129,22.1770833 81.1612903,22.1770833 81.1129032,22.3208333 L78.7903226,31.56875 C78.7419355,31.7125 78.6451613,31.7125 78.6451613,31.7125 L77.4354839,31.7125 C77.4354839,31.7125 77.2903226,31.7125 77.2903226,31.56875 L74.9193548,22.3208333 C74.8709677,22.1770833 75.016129,22.1770833 75.016129,22.1770833 L75.6451613,22.1770833 C75.6935484,22.1770833 75.7419355,22.1770833 75.7903226,22.3208333 L77.9677419,30.99375 L78.1129032,30.99375 L80.1935484,22.3208333 Z" id="Shape"></path>
                <path d="M84.3064516,31.56875 C84.3064516,31.7125 84.1612903,31.7125 84.1612903,31.7125 L83.5806452,31.7125 C83.5806452,31.7125 83.4354839,31.7125 83.4354839,31.56875 L83.4354839,22.3208333 C83.4354839,22.1770833 83.5806452,22.1770833 83.5806452,22.1770833 L84.1612903,22.1770833 C84.1612903,22.1770833 84.3064516,22.1770833 84.3064516,22.3208333 L84.3064516,31.56875 Z" id="Shape"></path>
                <path d="M90.8870968,27.1125 C91.7096774,27.54375 92.1451613,28.3104167 92.1451613,29.2208333 C92.1451613,30.6583333 91.1774194,31.8083333 89.3870968,31.8083333 C88.3225806,31.8083333 86.6774194,31.2333333 86.6774194,29.125 C86.6774194,28.98125 86.8225806,28.98125 86.8225806,28.98125 L87.4032258,28.98125 C87.4032258,28.98125 87.5483871,28.98125 87.5483871,29.125 C87.5483871,30.6583333 88.5645161,30.99375 89.4354839,30.99375 C90.8387097,30.99375 91.3709677,29.9875 91.3709677,29.2208333 C91.3709677,28.6458333 91.1290323,28.0708333 90.3064516,27.6875 L88.2258065,26.6333333 C87.016129,26.0104167 86.8709677,25.0520833 86.8709677,24.38125 C86.8709677,22.8958333 88.0322581,22.08125 89.483871,22.08125 C91.1774194,22.08125 91.9516129,23.0395833 92.1451613,24.2854167 C92.1451613,24.3333333 92.1451613,24.4291667 92.0483871,24.4770833 L91.516129,24.6208333 C91.4193548,24.66875 91.3225806,24.6208333 91.3225806,24.525 C91.2258065,23.51875 90.5967742,22.94375 89.483871,22.94375 C88.1290323,22.94375 87.7419355,23.7583333 87.7419355,24.4291667 C87.7419355,25.0041667 87.9354839,25.53125 88.516129,25.8666667 L90.8870968,27.1125 Z" id="Shape"></path>
                <path d="M96.983871,22.94375 L96.983871,31.56875 C96.983871,31.7125 96.8387097,31.7125 96.8387097,31.7125 L96.2580645,31.7125 C96.2580645,31.7125 96.1129032,31.7125 96.1129032,31.56875 L96.1129032,22.94375 L93.9354839,22.94375 C93.7903226,22.94375 93.7903226,22.8 93.7903226,22.8 L93.7903226,22.2729167 C93.7903226,22.2729167 93.7903226,22.1291667 93.9354839,22.1291667 L99.1612903,22.1291667 C99.3064516,22.1291667 99.3064516,22.2729167 99.3064516,22.2729167 L99.3064516,22.8 C99.3064516,22.8 99.3064516,22.94375 99.1612903,22.94375 L96.983871,22.94375 Z" id="Shape"></path>
                <path d="M104.096774,22.1770833 C104.096774,22.1770833 104.241935,22.1770833 104.241935,22.3208333 L106.854839,31.6166667 C106.903226,31.7125 106.758065,31.7125 106.758065,31.7125 L106.080645,31.7125 C106.032258,31.7125 105.983871,31.6645833 105.935484,31.56875 L104.967742,28.11875 L101.919355,28.11875 L100.903226,31.56875 C100.854839,31.6645833 100.806452,31.7125 100.758065,31.7125 L100.080645,31.7125 C100.080645,31.7125 99.983871,31.7125 99.983871,31.6166667 L102.645161,22.3208333 C102.693548,22.1770833 102.790323,22.1770833 102.790323,22.1770833 L104.096774,22.1770833 Z M102.209677,27.3041667 L104.822581,27.3041667 L103.66129,22.94375 L103.419355,22.94375 L102.209677,27.3041667 Z" id="Shape"></path>
                <path d="M19.9850508,0 C9.11890055,0 0.126224468,8.9334689 0.00132618924,19.6289023 C-0.12357209,30.6025405 8.58808286,39.937861 19.9850508,39.9996843 C30.9760994,40.0615076 39.9687754,31.0353037 40,19.9998421 C39.9687754,8.99529222 31.0073239,0 19.9850508,0 Z M23.888122,36.5375787 C14.6456494,38.7323064 5.12215562,32.5190633 3.46725343,23.2455661 C1.90602494,14.4666555 6.93318067,6.18233142 15.3950391,3.74031051 C19.828928,2.47293257 24.106694,2.93660743 28.1658881,5.10042342 C28.4781338,5.28589337 28.6967058,5.44045165 28.6967058,5.87321485 C28.5093583,10.4481401 27.5413967,14.8685071 25.7928208,19.1343157 C25.6991471,19.381609 25.5742488,19.6289023 25.4805751,19.8452839 C25.4805751,19.8761955 25.4181259,19.9071072 25.3244522,19.9380188 C24.4501643,18.0214961 23.7944483,16.0740617 23.2948552,14.0338923 C23.1699569,13.4774825 22.9513849,13.2301892 22.3581181,13.2920126 C21.6087284,13.3538359 20.8593388,13.3538359 20.1099491,13.2920126 C19.5166823,13.2301892 19.3605594,13.4465708 19.3293348,14.0029807 C19.2981103,17.5578212 18.5487206,20.9890152 17.4558607,24.3583858 C17.0811658,25.5330288 16.6440218,26.6767601 16.0819796,27.8823147 C14.9891197,25.4093821 14.2085054,22.9673612 13.6464632,20.4326053 C13.1780946,18.2378777 12.8346243,16.0122384 12.8346243,13.7556874 C12.8346243,13.3229242 12.6785015,13.2611009 12.3038067,13.2611009 C11.4295187,13.2920126 10.5552308,13.2920126 9.64971823,13.2611009 C9.18134969,13.2301892 9.11890055,13.4156592 9.11890055,13.8175107 C9.15012512,16.5068249 9.55604452,19.1343157 10.2117605,21.7618066 C11.2109467,25.8421453 12.7409506,29.7370141 15.0203442,33.2918547 C15.2389162,33.6318829 15.5199373,33.9409995 15.7697339,34.2810277 C16.050755,34.7137909 16.269327,34.621056 16.5191236,34.2501161 C17.9554538,32.1481234 19.1419874,29.9224841 20.1099491,27.5731981 C20.9217879,25.6257637 21.5462793,23.616506 22.077097,21.3908667 C22.9826095,23.1837428 23.7944483,24.8220607 24.9497574,26.2439969 C25.4493505,26.86223 25.4493505,26.86223 25.8864945,26.2439969 C28.5093583,22.3800397 30.2267097,18.1142311 31.3195696,13.5702175 C31.6942645,11.993723 32.0065102,10.3863168 32.1314084,8.74799896 C32.1314084,8.59344068 32.1938576,8.40797073 32.2563067,8.16067748 C33.8799843,9.82990696 35.066518,11.6846064 35.8783568,13.7865991 C39.6253052,23.5237711 34.0048826,34.1573811 23.888122,36.5375787 Z" id="Shape"></path>
            </g>
        </g>
    </g>
</svg>