<?xml version="1.0" encoding="utf-8"?>
<!-- Generator: Adobe Illustrator 19.2.0, SVG Export Plug-In . SVG Version: 6.00 Build 0)  -->
<svg version="1.1" id="Capa_1" xmlns="http://www.w3.org/2000/svg" xmlns:xlink="http://www.w3.org/1999/xlink" x="0px" y="0px"
	 viewBox="0 0 147.2 72.9" style="enable-background:new 0 0 147.2 72.9;" xml:space="preserve">
<style type="text/css">
	.st0{fill:#FFFFFF;}
	.st1{fill-rule:evenodd;clip-rule:evenodd;fill:#FFFFFF;}
</style>
<g>
	<g>
		<g>
			<path class="st0" d="M43.4,11.4h-1.8V2.6h4.6v1.6h-2.8v1.9h2.1v1.6h-2.1V11.4z"/>
			<path class="st0" d="M47,10.8c-0.4-0.5-0.7-1.1-0.7-1.8V5c0-0.7,0.2-1.3,0.7-1.7c0.5-0.5,1.1-0.7,2-0.7c0.9,0,1.6,0.2,2,0.7
				c0.5,0.5,0.7,1.1,0.7,1.7v4.1c0,0.7-0.2,1.3-0.7,1.8c-0.4,0.5-1.1,0.7-2,0.7C48.1,11.5,47.4,11.3,47,10.8z M49.9,9V5
				c0-0.5-0.2-0.9-0.8-0.9c-0.6,0-0.9,0.4-0.9,0.9v4c0,0.5,0.2,0.9,0.9,0.9C49.6,9.9,49.9,9.5,49.9,9z"/>
			<path class="st0" d="M53.9,11.4h-1.8V2.6h2.3L56,8.3c-0.1-0.8-0.1-1.9-0.1-3.2V2.6h1.8v8.8h-2.3l-1.5-5.6
				c0.1,0.8,0.1,1.9,0.1,3.2V11.4z"/>
			<path class="st0" d="M58.8,10.8c-0.4-0.5-0.7-1.1-0.7-1.8V5c0-0.7,0.2-1.3,0.7-1.7c0.5-0.5,1.1-0.7,2-0.7c0.9,0,1.6,0.2,2,0.7
				c0.5,0.5,0.7,1.1,0.7,1.7v4.1c0,0.7-0.2,1.3-0.7,1.8c-0.4,0.5-1.1,0.7-2,0.7C59.9,11.5,59.2,11.3,58.8,10.8z M61.6,9V5
				c0-0.5-0.2-0.9-0.8-0.9C60.2,4.1,60,4.5,60,5v4c0,0.5,0.2,0.9,0.9,0.9C61.4,9.9,61.6,9.5,61.6,9z"/>
			<path class="st0" d="M65.1,11.4V2.6h2.7c0.8,0,1.4,0.3,1.9,0.8c0.5,0.5,0.7,1.2,0.7,2v3.2c0,0.8-0.2,1.5-0.7,2
				c-0.5,0.5-1.1,0.8-1.9,0.8H65.1z M66.9,9.8h0.4c0.8,0,1.2-0.5,1.2-1.4V5.6c0-0.9-0.4-1.4-1.2-1.4h-0.4V9.8z"/>
			<path class="st0" d="M74.2,11.4c-0.1-0.4-0.1-0.8-0.2-1.3l0-1c0-0.9-0.3-1.2-1.1-1.2h-0.3v3.5h-1.8V2.6h2.7C75,2.6,76,3.5,76,4.9
				v0.3c0,1-0.4,1.7-1.3,2c0.6,0.2,1,0.9,1.1,1.8l0.1,1.3l0.1,1H74.2z M72.6,6.4h0.6c0.7,0,1-0.3,1-1V5.1c0-0.6-0.3-0.9-1-0.9h-0.6
				V6.4z"/>
			<path class="st0" d="M76.9,10.8c-0.4-0.5-0.7-1.1-0.7-1.8V5c0-0.7,0.2-1.3,0.7-1.7c0.5-0.5,1.1-0.7,2-0.7c0.9,0,1.6,0.2,2,0.7
				c0.5,0.5,0.7,1.1,0.7,1.7v4.1c0,0.7-0.2,1.3-0.7,1.8c-0.4,0.5-1.1,0.7-2,0.7C78,11.5,77.3,11.3,76.9,10.8z M79.8,9V5
				c0-0.5-0.2-0.9-0.8-0.9c-0.6,0-0.9,0.4-0.9,0.9v4c0,0.5,0.2,0.9,0.9,0.9C79.5,9.9,79.8,9.5,79.8,9z"/>
			<path class="st0" d="M85.9,10.8c-0.3,0.5-0.8,0.7-1.6,0.7c-0.8,0-1.4-0.2-1.8-0.7C82.2,10.4,82,9.8,82,9.1V5
				c0-0.7,0.2-1.3,0.7-1.7c0.5-0.5,1.1-0.7,2-0.7c0.9,0,1.5,0.2,2,0.7C87,3.7,87.2,4.3,87.2,5v0.9h-1.7V5c0-0.5-0.2-0.9-0.8-0.9
				c-0.6,0-0.9,0.5-0.9,0.9v4c0,0.5,0.3,0.9,0.9,0.9c0.6,0,0.9-0.4,0.9-0.9V8.2h-1V6.8h2.8v4.6h-1L85.9,10.8z"/>
			<path class="st0" d="M93,11.4h-1.9l-0.3-1.5h-1.6L89,11.4h-1.7l1.7-8.8h2.4L93,11.4z M90.1,5.2l-0.6,3.4h1.2L90.1,5.2z"/>
			<path class="st0" d="M98.1,5.7h-1.7V4.9c0-0.5-0.3-0.9-0.8-0.9c-0.5,0-0.7,0.3-0.7,0.7v0.1c0,0.3,0.2,0.6,0.5,0.8l1.5,0.9
				c0.9,0.5,1.4,1.3,1.4,2.3v0.3c0,0.7-0.2,1.2-0.7,1.7c-0.4,0.5-1.1,0.7-2,0.7c-0.9,0-1.5-0.2-2-0.7c-0.4-0.5-0.7-1-0.7-1.6V8h1.7
				v1.1c0,0.5,0.3,0.9,0.9,0.9c0.5,0,0.8-0.3,0.8-0.8V9.1c0-0.4-0.2-0.8-0.6-1l-1.3-0.7c-1-0.6-1.4-1.3-1.4-2.3V4.8
				c0-0.6,0.2-1.2,0.7-1.6s1.1-0.7,1.9-0.7c0.9,0,1.5,0.2,1.9,0.6c0.4,0.4,0.6,0.9,0.6,1.5V5.7z"/>
			<path class="st0" d="M103.1,11.4h-1.8V7.8l-2.1-5.2h2l1,2.8l1-2.8h1.9l-2.1,5.2V11.4z"/>
			<path class="st0" d="M111.6,11.4h-1.9l-0.3-1.5h-1.6l-0.3,1.5h-1.7l1.7-8.8h2.4L111.6,11.4z M108.7,5.2l-0.6,3.4h1.2L108.7,5.2z"
				/>
			<path class="st0" d="M116.2,11.4h-4.5V2.6h1.8v7.2h2.6V11.4z"/>
			<path class="st0" d="M119.8,8.3h1.7v0.8c0,0.7-0.2,1.3-0.6,1.8s-1.1,0.7-2,0.7c-0.9,0-1.6-0.2-2-0.7c-0.4-0.5-0.7-1.1-0.7-1.8V5
				c0-0.7,0.2-1.3,0.7-1.7c0.5-0.5,1.1-0.7,2-0.7c0.9,0,1.5,0.2,2,0.7c0.4,0.5,0.6,1.1,0.6,1.8v0.8h-1.7V5c0-0.5-0.2-0.9-0.8-0.9
				c-0.6,0-0.9,0.5-0.9,0.9v4c0,0.5,0.2,0.9,0.9,0.9c0.6,0,0.8-0.5,0.8-0.9V8.3z"/>
			<path class="st0" d="M122.4,10.8c-0.4-0.5-0.7-1.1-0.7-1.8V5c0-0.7,0.2-1.3,0.7-1.7c0.5-0.5,1.1-0.7,2-0.7c0.9,0,1.6,0.2,2,0.7
				c0.5,0.5,0.7,1.1,0.7,1.7v4.1c0,0.7-0.2,1.3-0.7,1.8c-0.4,0.5-1.1,0.7-2,0.7C123.5,11.5,122.9,11.3,122.4,10.8z M125.3,9V5
				c0-0.5-0.2-0.9-0.8-0.9c-0.6,0-0.9,0.4-0.9,0.9v4c0,0.5,0.2,0.9,0.9,0.9C125,9.9,125.3,9.5,125.3,9z"/>
			<path class="st0" d="M129.4,7.8v3.6h-1.8V2.6h1.8v3.5h1.7V2.6h1.8v8.8h-1.8V7.8H129.4z"/>
			<path class="st0" d="M134.1,10.8c-0.4-0.5-0.7-1.1-0.7-1.8V5c0-0.7,0.2-1.3,0.7-1.7c0.5-0.5,1.1-0.7,2-0.7c0.9,0,1.6,0.2,2,0.7
				c0.5,0.5,0.7,1.1,0.7,1.7v4.1c0,0.7-0.2,1.3-0.7,1.8c-0.4,0.5-1.1,0.7-2,0.7C135.2,11.5,134.5,11.3,134.1,10.8z M137,9V5
				c0-0.5-0.2-0.9-0.8-0.9c-0.6,0-0.9,0.4-0.9,0.9v4c0,0.5,0.2,0.9,0.9,0.9C136.7,9.9,137,9.5,137,9z"/>
			<path class="st0" d="M143.7,11.4h-4.5V2.6h1.8v7.2h2.6V11.4z"/>
		</g>
	</g>
	<g>
		<g>
			<path class="st0" d="M43.3,71.3v-6.7h2c0.6,0,1.1,0.2,1.4,0.6s0.5,0.9,0.5,1.5v2.5c0,0.6-0.2,1.1-0.5,1.5s-0.8,0.6-1.4,0.6H43.3z
				 M44.7,70.1h0.3c0.6,0,0.9-0.4,0.9-1v-2.2c0-0.6-0.3-1-0.9-1h-0.3V70.1z"/>
			<path class="st0" d="M48,71.3v-6.7h3.6v1.2h-2.2v1.3h1.4v1.2h-1.4v1.7h2.3v1.2H48z"/>
			<path class="st0" d="M55.9,66.9h-1.3v-0.5c0-0.4-0.2-0.7-0.6-0.7c-0.3,0-0.6,0.2-0.6,0.5v0.1c0,0.3,0.1,0.5,0.4,0.6l1.1,0.7
				c0.7,0.4,1,1,1,1.7v0.2c0,0.5-0.2,0.9-0.5,1.3c-0.3,0.4-0.8,0.5-1.5,0.5c-0.7,0-1.2-0.2-1.5-0.5c-0.3-0.3-0.5-0.8-0.5-1.2v-0.9
				h1.3v0.8c0,0.4,0.2,0.6,0.7,0.6c0.4,0,0.6-0.2,0.6-0.6v-0.1c0-0.3-0.2-0.6-0.5-0.8l-1-0.6c-0.8-0.4-1.1-1-1.1-1.7v-0.2
				c0-0.5,0.2-0.9,0.5-1.2c0.3-0.3,0.8-0.5,1.4-0.5c0.7,0,1.2,0.2,1.5,0.5c0.3,0.3,0.5,0.7,0.5,1.2V66.9z"/>
			<path class="st0" d="M56.7,71.3v-6.7h2c0.6,0,1.1,0.2,1.4,0.6s0.5,0.9,0.5,1.5v2.5c0,0.6-0.2,1.1-0.5,1.5s-0.8,0.6-1.4,0.6H56.7z
				 M58.1,70.1h0.3c0.6,0,0.9-0.4,0.9-1v-2.2c0-0.6-0.3-1-0.9-1h-0.3V70.1z"/>
			<path class="st0" d="M61.4,71.3v-6.7h3.6v1.2h-2.2v1.3h1.4v1.2h-1.4v1.7H65v1.2H61.4z"/>
			<path class="st0" d="M69.4,71.3c-0.1-0.3-0.1-0.6-0.1-1l0-0.7c0-0.6-0.3-0.9-0.8-0.9h-0.2v2.6h-1.4v-6.7h2c1.2,0,2,0.7,2,1.7v0.2
				c0,0.7-0.3,1.3-1,1.5c0.5,0.2,0.8,0.6,0.8,1.4l0.1,1l0.1,0.7H69.4z M68.2,67.5h0.4c0.5,0,0.8-0.3,0.8-0.7v-0.2
				c0-0.5-0.3-0.7-0.8-0.7h-0.4V67.5z"/>
			<path class="st0" d="M71.4,71.3v-6.7H75v1.2h-2.2v1.3h1.4v1.2h-1.4v1.7h2.3v1.2H71.4z"/>
			<path class="st0" d="M75.7,71.3v-6.7h2c0.6,0,1.1,0.2,1.4,0.6s0.5,0.9,0.5,1.5v2.5c0,0.6-0.2,1.1-0.5,1.5s-0.8,0.6-1.4,0.6H75.7z
				 M77.1,70.1h0.3c0.6,0,0.9-0.4,0.9-1v-2.2c0-0.6-0.3-1-0.9-1h-0.3V70.1z"/>
			<path class="st0" d="M83,71.3h-1.4v-6.7h3.5v1.2H83v1.4h1.6v1.2H83V71.3z"/>
			<path class="st0" d="M87.1,71.3h-1.4v-6.7h1.4V71.3z"/>
			<path class="st0" d="M88,70.9c-0.3-0.3-0.5-0.8-0.5-1.3v-0.9h1.3v0.9c0,0.3,0.2,0.5,0.5,0.5c0.3,0,0.5-0.2,0.5-0.5v-3.8h-1v-1.2
				h2.4v4.9c0,0.5-0.2,0.9-0.5,1.3s-0.8,0.5-1.4,0.5C88.8,71.4,88.3,71.2,88,70.9z"/>
			<path class="st0" d="M96.1,71.3h-1.4l-0.2-1.2h-1.2l-0.2,1.2h-1.3l1.3-6.7h1.8L96.1,71.3z M93.9,66.5l-0.5,2.6h0.9L93.9,66.5z"/>
			<path class="st0" d="M100.4,71.3H99v-2.7l-1.6-3.9H99l0.8,2.1l0.8-2.1h1.5l-1.6,3.9V71.3z"/>
			<path class="st0" d="M106.3,68.9h1.3v0.6c0,0.5-0.2,1-0.5,1.3c-0.3,0.4-0.8,0.5-1.5,0.5c-0.7,0-1.2-0.2-1.5-0.5
				c-0.3-0.4-0.5-0.8-0.5-1.3v-3.1c0-0.5,0.2-1,0.5-1.3c0.3-0.4,0.9-0.6,1.5-0.6c0.7,0,1.2,0.2,1.5,0.5c0.3,0.4,0.5,0.8,0.5,1.3V67
				h-1.3v-0.6c0-0.4-0.2-0.7-0.6-0.7c-0.5,0-0.6,0.4-0.6,0.7v3c0,0.4,0.2,0.7,0.6,0.7c0.5,0,0.6-0.4,0.6-0.7V68.9z"/>
			<path class="st0" d="M108.2,71.3v-6.7h3.6v1.2h-2.2v1.3h1.4v1.2h-1.4v1.7h2.3v1.2H108.2z"/>
			<path class="st0" d="M115.9,71.3h-3.4v-6.7h1.4v5.4h2V71.3z"/>
			<path class="st0" d="M116.9,70.8c-0.3-0.4-0.5-0.8-0.5-1.3v-4.9h1.4v4.8c0,0.4,0.2,0.7,0.7,0.7c0.5,0,0.6-0.4,0.6-0.7v-4.8h1.3
				v4.9c0,0.5-0.2,1-0.5,1.3c-0.3,0.4-0.8,0.5-1.5,0.5C117.7,71.4,117.2,71.2,116.9,70.8z"/>
			<path class="st0" d="M124.6,71.3h-3.4v-6.7h1.4v5.4h2V71.3z"/>
			<path class="st0" d="M129.1,71.3h-1.4l-0.2-1.2h-1.2l-0.2,1.2h-1.3l1.3-6.7h1.8L129.1,71.3z M126.9,66.5l-0.5,2.6h0.9L126.9,66.5
				z"/>
			<path class="st0" d="M132.2,71.3c-0.1-0.3-0.1-0.6-0.1-1l0-0.7c0-0.6-0.3-0.9-0.8-0.9H131v2.6h-1.4v-6.7h2c1.2,0,2,0.7,2,1.7v0.2
				c0,0.7-0.3,1.3-1,1.5c0.5,0.2,0.8,0.6,0.8,1.4l0.1,1l0.1,0.7H132.2z M131,67.5h0.4c0.5,0,0.8-0.3,0.8-0.7v-0.2
				c0-0.5-0.3-0.7-0.8-0.7H131V67.5z"/>
			<path class="st0" d="M134.2,71.3v-6.7h3.6v1.2h-2.2v1.3h1.4v1.2h-1.4v1.7h2.3v1.2H134.2z"/>
			<path class="st0" d="M142.2,66.9h-1.3v-0.5c0-0.4-0.2-0.7-0.6-0.7c-0.3,0-0.6,0.2-0.6,0.5v0.1c0,0.3,0.1,0.5,0.4,0.6l1.1,0.7
				c0.7,0.4,1,1,1,1.7v0.2c0,0.5-0.2,0.9-0.5,1.3c-0.3,0.4-0.8,0.5-1.5,0.5c-0.7,0-1.2-0.2-1.5-0.5c-0.3-0.3-0.5-0.8-0.5-1.2v-0.9
				h1.3v0.8c0,0.4,0.2,0.6,0.7,0.6c0.4,0,0.6-0.2,0.6-0.6v-0.1c0-0.3-0.2-0.6-0.5-0.8l-1-0.6c-0.8-0.4-1.1-1-1.1-1.7v-0.2
				c0-0.5,0.2-0.9,0.5-1.2c0.3-0.3,0.8-0.5,1.4-0.5c0.7,0,1.1,0.2,1.5,0.5c0.3,0.3,0.5,0.7,0.5,1.2V66.9z"/>
		</g>
	</g>
	<g>
		<g>
			<path class="st0" d="M59,60.3H45.9V28.2h-3.8v-9.7h2.2c3.2,0,5.4-1,6.6-3.2H59V60.3z"/>
			<path class="st0" d="M89.9,60.3H77.3v-7.1h-17V40.9l5.9-25.6h13.9l-8.6,27.8h5.8V30.4h12.6v12.7h3.3v10.1h-3.3V60.3z"/>
			<path class="st0" d="M109.5,60.3H96.3V28.2h-3.8v-9.7h2.3c3.2,0,5.4-1,6.6-3.2h8.2V60.3z"/>
			<path class="st0" d="M111.7,60.3V50.1l11.2-10.5c4.2-4.1,6-6.4,6-9.8v-1.4c0-2-0.8-3-2.6-3c-1.8,0-2.7,1-2.7,3v5.5h-12.7v-5.5
				c0-3.8,1.3-7,3.9-9.6c2.6-2.7,6.5-4.1,11.6-4.1c5.3,0,9.3,1.3,11.9,3.9c2.6,2.6,3.9,5.7,3.9,9.5V29c0,5.9-2.7,10-8.8,15.4
				l-5.4,4.8h14.2v11.1H111.7z"/>
		</g>
	</g>
	<g>
		<path class="st1" d="M31.1,70.1c0,0,6.1,0,6.1-6.1V9.4c0-6.1-6.1-6.1-6.1-6.1H9.9c0,0-6.1,0-6.1,6.1V64c0,6.1,6.1,6.1,6.1,6.1
			H31.1z M20.5,67.5c-1.7,0-3-1.4-3-3c0-1.7,1.3-3,3-3c1.7,0,3,1.4,3,3C23.6,66.2,22.2,67.5,20.5,67.5L20.5,67.5z M16,7
			c0-0.4,0.2-0.7,0.4-0.7h8.3c0.2,0,0.4,0.3,0.4,0.7v0.2c0,0.4-0.2,0.7-0.4,0.7h-8.3c-0.2,0-0.4-0.3-0.4-0.7V7z M6.9,10.9h27.3v48.5
			H6.9V10.9z M6.9,10.9"/>
	</g>
</g>
</svg>
