<?xml version="1.0" encoding="utf-8"?>
<!-- Generator: Adobe Illustrator 19.2.0, SVG Export Plug-In . SVG Version: 6.00 Build 0)  -->
<svg version="1.1" id="Capa_1" xmlns="http://www.w3.org/2000/svg" xmlns:xlink="http://www.w3.org/1999/xlink" x="0px" y="0px"
	 viewBox="0 0 143.7 130.5" style="enable-background:new 0 0 143.7 130.5;" xml:space="preserve">
<style type="text/css">
	.st0{fill:#C5363B;}
	.st1{fill:#3863A9;}
	.st2{fill:#FFFFFF;}
</style>
<g>
	<g>
		<g>
			<polygon class="st0" points="58.4,0 58.4,130.2 58.4,130.2 58.4,130.3 143.6,130.3 143.6,0 			"/>
			<polygon class="st1" points="58.4,0 58.4,0 -0.4,0 -0.4,130.2 58.4,130.2 58.4,130.2 			"/>
		</g>
		<path class="st2" d="M69.8,123.3c-0.9,0.4-1.5,0.6-2.3,0.6c-1.9,0-2.8-1.3-2.8-3.3c0-1.9,1-3.2,2.9-3.2c1,0,1.6,0.2,2.1,0.6
			l-0.5,1c-0.4-0.3-0.9-0.4-1.5-0.4c-1.2,0-1.7,0.8-1.7,2.1c0,1.5,0.6,2.3,1.6,2.3c0.4,0,0.8-0.1,1.1-0.2v-1.2h-0.9l-0.1-0.9h2.1
			V123.3z"/>
		<path class="st2" d="M73.6,121.5c0-1.1-0.3-1.5-0.9-1.5c-0.6,0-0.9,0.4-0.9,1.5c0,1.1,0.3,1.5,0.9,1.5
			C73.3,123,73.6,122.6,73.6,121.5 M74.9,121.5c0,1.6-0.8,2.4-2.1,2.4c-1.4,0-2.2-0.8-2.2-2.4c0-1.3,0.8-2.4,2.2-2.4
			C74.1,119.1,74.9,120.1,74.9,121.5"/>
		<path class="st2" d="M77,122.5c0.2,0.2,0.5,0.5,0.9,0.5c0.5,0,0.9-0.4,0.9-1.5c0-1.1-0.4-1.5-0.9-1.5c-0.3,0-0.6,0.2-0.9,0.4
			V122.5z M77,119.7c0.2-0.3,0.7-0.6,1.2-0.6c1.1,0,1.9,0.8,1.9,2.4c0,1.6-0.9,2.4-2,2.4c-0.7,0-1-0.3-1.3-0.7l-0.2,0.6h-0.6v-6.5
			H77v1.6L77,119.7z"/>
		<path class="st2" d="M81.3,117.3h1.2v1.1h-1.2V117.3z M81.3,123.8v-3.7l-0.5-0.1v-0.8h1.8v4.6H81.3z"/>
		<path class="st2" d="M85.6,120c-0.6,0-0.9,0.6-0.9,1.1h1.7C86.4,120.5,86.2,120,85.6,120 M84.7,121.8c0,0.7,0.4,1.1,1.2,1.1
			c0.4,0,0.9-0.2,1.3-0.4l0.2,0.9c-0.4,0.2-1,0.4-1.7,0.4c-1.4,0-2.3-0.9-2.3-2.4c0-1.4,0.7-2.4,2.2-2.4c1.4,0,1.9,1,1.9,2.2v0.5
			H84.7z"/>
		<path class="st2" d="M91.1,120.2c-0.1,0-0.4-0.1-0.6-0.1c-0.3,0-0.6,0.1-0.8,0.3v3.3h-1.2v-4.6h0.9l0.1,0.6h0
			c0.1-0.3,0.6-0.7,1.1-0.7c0.2,0,0.4,0,0.5,0.1L91.1,120.2z"/>
		<path class="st2" d="M94.7,123.8v-2.7c0-0.7-0.3-1-0.8-1c-0.3,0-0.6,0.1-0.8,0.3v3.5h-1.2v-4.6h0.9l0.2,0.5
			c0.3-0.3,0.8-0.6,1.5-0.6c1.2,0,1.6,0.7,1.6,1.8v2.9H94.7z"/>
		<path class="st2" d="M99.8,121.5c0-1.1-0.3-1.5-0.9-1.5c-0.6,0-0.9,0.4-0.9,1.5c0,1.1,0.3,1.5,0.9,1.5
			C99.6,123,99.8,122.6,99.8,121.5 M101.1,121.5c0,1.6-0.8,2.4-2.1,2.4c-1.4,0-2.2-0.8-2.2-2.4c0-1.3,0.8-2.4,2.2-2.4
			C100.3,119.1,101.1,120.1,101.1,121.5"/>
		<path class="st2" d="M107,120.3c-0.2-0.1-0.5-0.2-0.9-0.2c-0.6,0-0.9,0.4-0.9,1.5c0,1.1,0.3,1.5,0.9,1.5c0.3,0,0.6-0.2,0.9-0.4
			V120.3z M107.1,119.6c-0.1-0.3-0.1-0.5-0.1-0.8v-1.4h1.2v6.5h-1l-0.2-0.5c-0.2,0.3-0.6,0.6-1.2,0.6c-1,0-1.9-0.7-1.9-2.4
			c0-1.5,0.9-2.4,2-2.4C106.4,119.1,106.8,119.3,107.1,119.6"/>
		<path class="st2" d="M111.2,120c-0.6,0-0.9,0.6-0.9,1.1h1.7C112,120.5,111.8,120,111.2,120 M110.3,121.8c0,0.7,0.4,1.1,1.2,1.1
			c0.5,0,1-0.2,1.4-0.4l0.2,0.9c-0.4,0.2-1,0.4-1.7,0.4c-1.4,0-2.3-0.9-2.3-2.4c0-1.4,0.7-2.4,2.2-2.4c1.4,0,1.9,1,1.9,2.2v0.5
			H110.3z"/>
		<path class="st2" d="M118.8,123.9c-1.8,0-2.7-1.2-2.7-3.3c0-2,0.9-3.2,2.7-3.2c0.9,0,1.7,0.2,2.2,0.5l-0.5,1
			c-0.3-0.2-0.9-0.4-1.6-0.4c-1,0-1.6,0.7-1.6,2.1c0,1.5,0.5,2.2,1.5,2.2c0.6,0,1.2-0.2,1.7-0.6l0.4,1
			C120.3,123.7,119.6,123.9,118.8,123.9"/>
		<path class="st2" d="M121.8,123.8v-6.5h1.2v1.7c0,0.3-0.1,0.6-0.1,0.7c0.3-0.3,0.7-0.6,1.3-0.6c1.3,0,1.7,0.7,1.7,1.8v2.9h-1.2
			v-2.7c0-0.7-0.3-1-0.8-1c-0.3,0-0.6,0.1-0.8,0.3v3.5H121.8z"/>
		<path class="st2" d="M127.2,117.3h1.2v1.1h-1.2V117.3z M127.3,123.8v-3.7l-0.5-0.1v-0.8h1.8v4.6H127.3z"/>
		<path class="st2" d="M129.6,122.6v-5.3h1.2v5.2c0,0.4,0.2,0.4,0.8,0.4v0.9c0,0-0.4,0.1-0.7,0.1
			C129.9,123.9,129.6,123.4,129.6,122.6"/>
		<path class="st2" d="M134.3,120c-0.6,0-0.9,0.6-0.9,1.1h1.7C135.1,120.5,134.9,120,134.3,120 M133.4,121.8c0,0.7,0.4,1.1,1.2,1.1
			c0.4,0,0.9-0.2,1.3-0.4l0.2,0.9c-0.4,0.2-1,0.4-1.7,0.4c-1.4,0-2.3-0.9-2.3-2.4c0-1.4,0.7-2.4,2.2-2.4c1.4,0,1.9,1,1.9,2.2v0.5
			H133.4z"/>
		<path class="st2" d="M34.3,25.7v2C34.7,26.9,34.5,26.2,34.3,25.7"/>
		<path class="st2" d="M38.3,14.7c0.1,0,0-0.3,0.3-0.3c0.2,0,0.6,0.2,0.6,0.4c0.1,0.3-0.2,0.9,0.7,1c0,0,0,0.1,0,0.2
			c0,0.2,0,0.3-0.1,0.4h0.1c1.1,0,1.7,0,2.1-0.4c0,0,0.2-0.2,0.3-0.4c0.3-0.6,0.3-1.1,0.2-1.5c0,0,0-0.1,0-0.1c0,0,0-0.1-0.1-0.1
			c-0.2-0.4-0.9-1-1.7-1.3c0,0-0.1,0-0.2,0c0,0,0,0,0,0c0,0,0.2,0,0.2,0c0.6,0.1,1.6,0.7,1.8,1.3c0.2-0.1,0.4-0.4,0.4-0.7
			c0-0.1,0-0.4,0.1-0.7c0.1-0.1,0-0.2-0.1-0.2c-0.1,0-0.2,0-0.2,0.1c-0.2,0.3-0.5,0.1-0.3-0.2c0-0.1,0-0.2-0.1-0.2
			c-0.1,0-0.2,0-0.2,0.1c-0.1,0.3-0.5,0.1-0.4-0.2c0.1-0.1,0-0.2-0.1-0.2c-0.1,0-0.2,0-0.2,0.1c-0.2,0.3-0.5,0.1-0.3-0.2
			c0-0.1,0-0.2-0.1-0.2c-0.1,0-0.2,0-0.2,0.1c-0.1,0.2-0.2,0.4-0.3,0.5c0.6,0.1,1.4,0.5,1.8,1c0,0,0.2,0.2,0.2,0.2v0v0
			c0,0,0,0.1,0,0.1v0c-0.1-0.1-0.2-0.1-0.2-0.2c-0.7-0.6-1.4-0.9-1.9-0.9c-0.4,0-0.3,0.4-0.2,0.7c-0.6-0.1-1,0.3-1.1,0.7
			c0,0.1,0,0.3,0.1,0.5c0,0,0,0,0,0c0,0-0.1,0-0.2-0.2c0-0.1-0.1-0.2-0.1-0.3c-0.5,0-0.9,0.3-0.9,0.7C37.8,14.3,38.2,14.7,38.3,14.7
			 M40,14c0.1-0.1,0.2,0.5,0.7,0.3C40.3,14.7,39.8,14.3,40,14 M40,13.7c0.2-0.1,0.4-0.5,0.7-0.3c0.1,0.1,0.3,0.2,0.4,0.3
			c0.2,0.1,0.3,0.2,0.4,0.3c0.1,0.2-0.1,0.6-0.4,0.2c-0.2-0.3-0.4-0.8-0.8-0.6c-0.3,0.2-0.5,0.4-0.6,0.2
			C39.6,13.7,39.8,13.7,40,13.7 M38.6,13.8c-0.1,0.2-0.4,0.2-0.4,0.4C38,14,38.4,13.5,38.6,13.8"/>
		<path class="st2" d="M51.6,35.4c-0.3-0.4-1.2-0.2-1.2-0.2c0.5-1.4-0.8-1.8-0.8-1.8c-0.5-0.1-0.8,0-1,0.1h0v0c0,0-0.1,0-0.1,0.1
			c-0.1,0.1-0.2,0.3-0.2,0.5c0,0.4,0.3,0.7,0.7,0.7c0.1,0,0.3,0,0.4-0.1c0.1-0.1,0.2-0.2,0.3-0.4c0.2,0.1,0.2,0.3,0.2,0.3
			c0.4,1.2-1,1.7-1,1.7c-3,0.9-4.9-0.6-4.9-0.6l0.5-0.3c0.2-0.1,0.4-0.1,0.5-0.1v0.1c0,0.3,0.3,0.6,0.6,0.6c0.3,0,0.6-0.2,0.6-0.6
			c0-0.1,0-0.2-0.1-0.3h0c0-0.1-0.1-0.1-0.1-0.1c-0.4-0.5-1.6-0.2-1.6-0.2c0.4-1,0-1.7,0-1.7c-0.2-0.4-0.2-0.5-0.2-0.5
			c0-0.4-0.1-0.4-0.1-0.4c-0.2-0.3-0.5-0.1-0.5-0.1c-0.5,0.1-0.6-0.1-0.6-0.1c-0.4-0.3-0.6-0.1-0.6-0.1c-0.2,0.1,0.1,0.4,0.1,0.4
			c-0.4,0-0.6,0.6-0.6,0.6c-0.2,0.9,0.6,1,0.6,1c0.5,0,0.5-0.4,0.5-0.4c0.1-0.4-0.5-0.4-0.5-0.4c0.1-0.3,0.3-0.3,0.3-0.3
			c0.6-0.2,0.9,0.6,0.9,0.6c0.5,0.8-0.1,1.6-0.1,1.6c-0.1,0.1-0.2,0-0.2,0c-0.4-0.2-0.9-0.5-0.9-0.5c0,0,0,0-0.1,0h-0.2
			c-0.2,0-0.5,0.1-0.6,0.2c0.3,0.2,1.1,0.9,1.1,0.9c-0.6,0.5-1,0.2-1,0.2c-0.3-0.3-0.2-0.8-0.2-1.1c0,0,0,0-0.1,0
			c-0.3,0.1-0.6,0.2-0.8,0.4c0.3,0.5,0.7,1.2,0.7,1.2c-0.7,0.2-0.8-0.7-0.9-1.2c-0.2,0.1-0.3,0.1-0.4,0.2c0,0.1,0,0.2,0,0.2
			c0.1,0.5,0.5,1.1,0.5,1.1c-0.5-0.1-0.8,0.2-0.8,0.2c-0.3,0.3-0.3,0.6-0.3,0.8c0,0.2,0.2,0.3,0.3,0.3c0.2,0,0.4-0.2,0.4-0.4
			c0-0.2-0.1-0.3-0.3-0.3c0.2-0.4,0.5-0.1,0.5-0.1c0.5,0.5-0.3,1-0.3,1c-0.6,0.4-1.2-0.4-1.2-0.4c0.6-1.1,0.7-1.9,0.7-2.4
			c-0.2,0.1-0.5,0.1-0.7,0.2c0.3,1-0.4,1.6-0.4,1.6c-0.2-0.1-0.2-0.7-0.2-0.7c-0.1-0.2-0.1-0.5-0.2-0.7c-0.2,0-0.4,0.1-0.6,0.2
			c0.2,0.6,0.3,1.5,0.3,1.5c-0.1,0.2-0.5,0.2-0.5,0.2c-0.5,0-0.2-0.2-0.2-0.2c0.2-0.2,0.2-0.3,0.2-0.3c-0.1-0.4-0.7,0-0.7,0
			c-0.7,0.4-0.5,0.8-0.5,0.8c0.1,0.2,0.8,0.5,0.8,0.5c-0.4,0.3-1.2,0.2-1.2,0.2c0-0.2-0.2-0.4-0.4-0.4l0,0c-0.3,0-0.4,0.1-0.5,0.2
			c0,0-0.1,0.1-0.1,0.2l-0.5-0.1c-0.3,0-0.5-0.9-0.6-1.7c-0.1,0-0.2,0-0.4,0c0.1,0.8,0.3,1.6,0.3,1.6c-0.2,0-0.8-0.5-0.8-0.5
			c-0.8-0.5-1.4-0.3-1.4-0.3c-0.4,0.1-0.7,0.4-0.7,0.9c0,0.5,0.4,0.9,0.9,0.9c0.5,0,0.9-0.4,0.9-0.8c0.3,0.1,0.6,0.3,0.6,0.3
			C34,38.9,34.8,39,35,39c0,0.3,0.3,0.5,0.6,0.5c0.2,0,0.5-0.1,0.6-0.3c1.7,0,2.3-0.8,2.3-0.8c0.2-0.2,0.2-0.1,0.2-0.1
			c0.6,0.9,1.8,0.4,1.8,0.4c0.2-0.1,0.3,0,0.3,0c0.3,0.4,0.6,0.2,0.6,0.2c0.5-0.2,0.2-0.5,0.2-0.5c-0.2-0.2,0-0.2,0-0.2
			c0.6,0.1,0.7-0.2,0.7-0.2c0.1-0.2-0.3-0.5-0.3-0.5c-0.1-0.1,0.1-0.3,0.1-0.3c0.3-0.2,0.3-0.4,0.3-0.4c0.4,0,0.4-0.2,0.4-0.2
			c0-0.2-0.5-0.2-0.5-0.2c-0.4,0-0.3-0.2-0.3-0.2c0.6,0,1.5-0.3,1.5-0.3c1.4,1.1,3.3,1.4,3.3,1.4c0.1,0.2,0,0.5,0,0.5h0
			c-0.2,0-0.3,0.2-0.3,0.3c0,0.2,0.1,0.3,0.3,0.3c0,0,0.1,0,0.1,0c0.6-0.2,0.7-1.1,0.7-1.1c1.8,0.2,3.1-1.2,3.1-1.2
			c0.2-0.2,0.3-0.1,0.3-0.1v0c0.1,0.1,0.2,0.2,0.4,0.2c0.2,0,0.3-0.1,0.4-0.2c0-0.1,0.1-0.2,0.1-0.3C51.7,35.5,51.6,35.4,51.6,35.4"
			/>
		<path class="st2" d="M29.7,37.7c0.2-0.1,0.2-0.3,0.2-0.3c0-0.5-0.3-0.7-0.3-0.7c-0.2,0-0.4,0-0.6,0c-0.2,0-0.4,0-0.7,0
			c0,0-0.4,0.2-0.3,0.7c0,0,0,0.2,0.2,0.3c0,0-0.5,0.2-0.5,0.5c0,0-0.1,0.2,0.3,0.6c0,0,0.3,0.3,0.4,0.6c0,0,0,0.3,0.5,0.3
			c0.5,0,0.5-0.3,0.5-0.3c0.1-0.3,0.4-0.6,0.4-0.6c0.4-0.3,0.4-0.6,0.4-0.6C30.1,37.9,29.7,37.7,29.7,37.7"/>
		<polygon class="st2" points="33.1,35.7 33.3,35.6 33.2,35.4 		"/>
		<polygon class="st2" points="25,35.7 25.3,35.7 25.2,35.4 		"/>
		<path class="st2" d="M24.1,35L24.1,35L24,35.4c0.1,0,0.1,0,0.2,0c0,0,0.1,0,0.1,0c0,0,0.1-0.1,0.1-0.1c0-0.1,0-0.1,0-0.1
			C24.2,35.1,24.2,35.1,24.1,35"/>
		<path class="st2" d="M27.6,35.3c-0.1,0-0.1,0-0.2,0.1c0,0.1-0.1,0.2-0.1,0.3c0,0.2,0,0.3,0,0.3c0,0.1,0.1,0.1,0.2,0.1
			c0.1,0,0.1,0,0.2-0.1c0-0.1,0.1-0.2,0.1-0.3c0-0.2,0-0.3,0-0.3C27.7,35.4,27.6,35.3,27.6,35.3"/>
		<path class="st2" d="M30.6,35.3c-0.1,0-0.1,0-0.2,0.1c-0.1,0.1-0.1,0.2-0.1,0.3c0,0.2,0,0.3,0.1,0.3c0.1,0.1,0.1,0.1,0.2,0.1
			c0.1,0,0.2,0,0.2-0.1c0-0.1,0-0.2,0-0.3c0-0.1,0-0.2-0.1-0.3C30.7,35.4,30.7,35.3,30.6,35.3"/>
		<polygon class="st2" points="22.4,35.3 22.6,35.4 22.5,35 		"/>
		<path class="st2" d="M17.7,33.5l-0.1,0.4l0,0c0.1,0,0.1,0,0.2,0c0,0,0.1-0.1,0.1-0.1c0,0,0-0.1,0-0.1c0,0,0-0.1,0-0.1
			C17.9,33.5,17.8,33.5,17.7,33.5"/>
		<path class="st2" d="M18.7,33.9c-0.1,0-0.1,0.1-0.2,0.3c0,0.2-0.1,0.3,0,0.3c0,0.1,0.1,0.1,0.1,0.2c0.1,0,0.2,0,0.2,0
			c0.1,0,0.1-0.1,0.2-0.3c0-0.1,0.1-0.2,0-0.3c0-0.1-0.1-0.1-0.1-0.2C18.8,33.9,18.8,33.9,18.7,33.9"/>
		<path class="st2" d="M20,34.2C20,34.2,20,34.2,20,34.2l-0.1,0.4c0.1,0,0.1,0,0.2,0c0,0,0,0,0.1,0c0,0,0-0.1,0-0.1
			c0-0.1,0-0.1,0-0.2C20.1,34.3,20.1,34.2,20,34.2"/>
		<path class="st2" d="M38.1,34.2c0,0-0.1,0-0.2,0c0,0,0,0,0,0l0.1,0.4c0.1,0,0.1,0,0.2-0.1c0,0,0,0,0-0.1v-0.1
			C38.1,34.3,38.1,34.2,38.1,34.2"/>
		<polygon class="st2" points="40.1,34.1 40.3,34 40.1,33.8 		"/>
		<path class="st2" d="M40.7,32.8c-0.2,0-0.2,0.1-0.2,0.1c-0.4,0.1-4.6,1.9-11.5,2c-6.9,0-11-1.9-11.5-2c0,0-0.1-0.1-0.2-0.1
			c-0.1,0-0.2,0-0.3,0.1L15.4,34c0.4,0,0.9,0.2,0.9,0.2c3.7,1.6,7.9,2.3,12.6,2.3c4.7,0,8.9-0.7,12.6-2.3c0,0,0.5-0.2,0.9-0.2
			L41,32.9C40.9,32.8,40.8,32.8,40.7,32.8 M27.6,34.9l0.3,0l-0.4,0.2h-0.1L27.6,34.9z M18.2,33.8c0,0.1-0.1,0.1-0.1,0.1
			c-0.1,0-0.1,0-0.2,0c0,0-0.1,0-0.2-0.1l-0.1,0l-0.1,0.2c0,0,0,0.1,0,0.1c0,0,0,0,0.1,0.1l0,0l0,0.1l-0.5-0.2l0-0.1h0
			c0,0,0.1,0,0.1,0c0,0,0,0,0-0.1l0.2-0.5v-0.1c0,0,0,0-0.1,0v0l0-0.1l0.4,0.1c0.1,0.1,0.2,0.1,0.2,0.1c0,0,0.1,0,0.1,0.1
			c0,0,0.1,0.1,0.1,0.1C18.2,33.8,18.2,33.8,18.2,33.8 M19.3,34.4c0,0.1-0.1,0.2-0.2,0.3c-0.1,0.1-0.3,0.1-0.4,0
			c-0.1,0-0.2-0.1-0.3-0.2c-0.1-0.1-0.1-0.2-0.1-0.2c0-0.1,0-0.2,0-0.2c0-0.1,0.1-0.2,0.1-0.2c0.1-0.1,0.2-0.1,0.2-0.1
			c0.1,0,0.2,0,0.3,0c0.2,0,0.3,0.1,0.3,0.2C19.3,34.2,19.4,34.3,19.3,34.4 M20.3,34.9c0,0.1,0.1,0.2,0.1,0.2c0,0,0,0,0.1,0l0,0.1
			l-0.3-0.1c0,0-0.1-0.1-0.1-0.3c0-0.1,0-0.1,0-0.2c0,0,0,0,0-0.1c0,0-0.1,0-0.1,0l-0.1,0.2c0,0,0,0.1,0,0.1c0,0,0,0,0.1,0h0l0,0.1
			L19.4,35l0-0.1l0,0c0,0,0.1,0,0.1,0c0,0,0,0,0-0.1l0.1-0.6c0,0,0-0.1,0-0.1c0,0,0,0-0.1,0l0,0l0-0.1l0.4,0.1l0.1,0
			c0.1,0,0.1,0,0.2,0.1c0,0,0.1,0,0.1,0.1c0,0,0,0.1,0.1,0.1c0,0,0,0.1,0,0.1c0,0.1-0.1,0.2-0.2,0.2C20.2,34.7,20.3,34.8,20.3,34.9
			 M21.9,35.6L21,35.4l0-0.1h0c0,0,0.1,0,0.1,0c0,0,0,0,0-0.1l0.1-0.6v-0.1c0,0-0.1,0-0.1,0h0l0-0.1l0.5,0.1l0,0.1h0
			c-0.1,0-0.1,0-0.1,0c0,0,0,0,0,0.1l-0.1,0.5v0.1c0,0,0,0,0,0c0,0,0.1,0,0.1,0.1c0.1,0,0.1,0,0.2,0c0,0,0.1-0.1,0.1-0.2l0.1,0
			L21.9,35.6z M23,35.8l-0.5-0.1v-0.1h0.1c0,0,0,0,0,0v0l0,0v-0.1l-0.3-0.1l0,0.1c0,0,0,0,0,0.1c0,0,0,0,0,0.1c0,0,0,0,0.1,0v0.1
			L22,35.6l0-0.1c0.1,0,0.1,0,0.2-0.1l0.4-0.7l0.1,0l0.2,0.8c0,0.1,0,0.1,0,0.1C23,35.7,23,35.7,23,35.8L23,35.8z M24.6,36l-0.3,0
			c0,0-0.1-0.1-0.1-0.3c0-0.1,0-0.1,0-0.1c0,0,0,0,0,0c0,0-0.1,0-0.1,0v0.2c0,0,0,0.1,0,0.1c0,0,0,0,0.1,0h0l0,0.1l-0.5-0.1l0-0.1h0
			c0,0,0.1,0,0.1,0c0,0,0,0,0-0.1l0.1-0.6c0,0,0-0.1,0-0.1c0,0,0,0-0.1,0l0,0v-0.1l0.4,0.1h0.1c0.1,0,0.1,0,0.2,0c0,0,0.1,0,0.1,0.1
			c0,0,0.1,0.1,0.1,0.1c0,0,0,0.1,0,0.1c0,0.1-0.1,0.2-0.2,0.2c0,0,0.1,0.1,0.2,0.2c0,0.1,0.1,0.2,0.1,0.2
			C24.6,35.9,24.6,35.9,24.6,36L24.6,36z M25.7,36.1l-0.5,0V36h0.1c0,0,0,0,0,0c0,0,0,0,0-0.1v0v-0.1l-0.3,0l0,0c0,0,0,0.1,0,0.1
			s0,0,0,0c0,0,0,0,0.1,0v0.1l-0.3,0l0-0.1c0.1,0,0.1,0,0.2-0.1l0.4-0.7l0.1,0l0.2,0.8c0,0.1,0,0.1,0.1,0.1
			C25.7,36,25.7,36,25.7,36.1L25.7,36.1z M26.8,35.3l-0.6,0.8l0.2,0c0.1,0,0.1,0,0.1,0c0,0,0.1,0,0.1-0.1c0,0,0-0.1,0.1-0.1h0.1
			l-0.1,0.3l-0.9-0.1v-0.1l0.6-0.8h-0.2c-0.1,0-0.2,0-0.2,0c0,0-0.1,0.1-0.1,0.1h-0.1l0-0.2L26.8,35.3L26.8,35.3z M28,36.1
			c-0.1,0.1-0.2,0.1-0.4,0.1c-0.1,0-0.2,0-0.3-0.1c-0.1-0.1-0.2-0.1-0.2-0.2c0-0.1,0-0.2,0-0.2c0-0.1,0-0.2,0.1-0.2
			c0.1-0.1,0.1-0.2,0.2-0.2c0.1,0,0.2-0.1,0.3-0.1c0.2,0,0.3,0.1,0.4,0.2c0.1,0.1,0.1,0.2,0.1,0.4C28.1,35.9,28.1,36,28,36.1
			 M29.4,35.4C29.4,35.4,29.3,35.4,29.4,35.4c-0.1,0-0.1,0-0.1,0.1c0,0,0,0,0,0.1v0.8h-0.1l-0.6-0.7V36c0,0.1,0,0.1,0,0.1
			c0,0,0.1,0,0.1,0v0.1h-0.4v-0.1c0,0,0,0,0.1,0c0,0,0,0,0,0c0,0,0-0.1,0-0.1v-0.5c0-0.1-0.1-0.2-0.2-0.2v-0.1h0.3l0.5,0.6l0-0.3
			c0-0.1-0.1-0.2-0.1-0.2v-0.1L29.4,35.4L29.4,35.4z M31,36.1c-0.1,0.1-0.2,0.2-0.4,0.2c-0.1,0-0.2,0-0.3-0.1
			c-0.1,0-0.2-0.1-0.2-0.2c0-0.1-0.1-0.2-0.1-0.2c0-0.1,0-0.2,0.1-0.3c0-0.1,0.1-0.1,0.2-0.2c0.1,0,0.2-0.1,0.3-0.1
			c0.2,0,0.3,0,0.4,0.1c0.1,0.1,0.2,0.2,0.2,0.4C31.2,35.8,31.1,36,31,36.1 M31.8,36.2L31.8,36.2L31.8,36.2c0.1-0.1,0.1-0.1,0.1-0.1
			v-0.1l-0.1-0.6c0,0,0-0.1,0-0.1c0,0,0,0-0.1,0v-0.1l0.5,0l0,0.1h0c0,0-0.1,0-0.1,0c0,0,0,0,0,0.1l0,0.6c0,0,0,0.1,0,0.1
			c0,0,0,0,0,0c0,0,0.1,0,0.1,0c0.1,0,0.1,0,0.2-0.1c0,0,0.1-0.1,0.1-0.2h0.1l0,0.3L31.8,36.2z M33.4,36L33.4,36
			c0-0.1,0.1-0.1,0.1-0.1c0,0,0,0,0,0c0,0,0,0,0,0v0l0-0.1l-0.3,0v0c0,0,0,0.1,0,0.1c0,0,0,0,0,0c0,0,0,0,0.1,0l0,0.1l-0.3,0.1
			l0-0.1c0.1,0,0.1-0.1,0.1-0.2l0.2-0.8l0.1,0l0.4,0.7c0,0.1,0.1,0.1,0.1,0.1h0.1l0,0.1L33.4,36z M35.1,35c0,0-0.1-0.1-0.1-0.1
			c0,0-0.1,0-0.1,0c0,0,0,0-0.1,0l-0.2,0l0,0.3l0.1,0c0,0,0.1,0,0.1,0c0,0,0-0.1,0-0.1L35.1,35l0,0.4l-0.1,0c0-0.1,0-0.1,0-0.1
			c0,0,0,0-0.1,0l-0.1,0l0,0.3c0,0,0,0.1,0,0.1c0,0,0.1,0,0.1,0h0l0,0.1l-0.5,0.1l0-0.1h0c0,0,0.1,0,0.1,0v-0.1l-0.1-0.6
			c0,0,0-0.1,0-0.1c0,0-0.1,0-0.1,0h0l0-0.1l0.8-0.1L35.1,35L35.1,35z M36.2,34.8l0.1,0.3c0,0.1,0,0.1,0,0.2c0,0,0,0.1,0,0.1
			c0,0-0.1,0.1-0.1,0.1c-0.1,0-0.1,0.1-0.2,0.1c-0.1,0-0.1,0-0.2,0c-0.1,0-0.1,0-0.2-0.1c0,0-0.1-0.1-0.1-0.1c0,0,0-0.1,0-0.2
			l-0.1-0.4c0,0,0-0.1,0-0.1c0,0,0,0-0.1,0l0-0.1l0.5-0.1l0,0.1l0,0c-0.1,0-0.1,0-0.1,0c0,0,0,0.1,0,0.1l0.1,0.4
			c0,0.1,0,0.1,0.1,0.2c0,0.1,0.1,0.1,0.1,0.1c0,0,0.1,0,0.2,0c0.1,0,0.1,0,0.1-0.1c0,0,0-0.1,0-0.1c0,0,0-0.1,0-0.2L36.2,34.8
			c-0.1-0.1-0.2-0.1-0.3-0.1l0-0.1l0.4-0.1l0,0.1c0,0,0,0-0.1,0C36.2,34.7,36.2,34.7,36.2,34.8L36.2,34.8 M36.6,35.5L36.6,35.5v-0.1
			c0,0,0.1,0,0.1,0c0,0,0-0.1,0-0.1l-0.2-0.6c0,0,0-0.1,0-0.1c0,0-0.1,0-0.1,0h0v-0.1l0.8-0.2l0.1,0.2l-0.1,0c0,0-0.1-0.1-0.1-0.1
			c0,0-0.1,0-0.1,0c0,0-0.1,0-0.1,0l-0.2,0l0.1,0.3l0.1,0c0.1,0,0.1,0,0.1,0v-0.1l0.1,0l0.1,0.3l-0.1,0v0c0,0,0,0,0-0.1
			c0,0-0.1,0-0.1,0l-0.1,0l0.1,0.2c0,0,0,0.1,0,0.1c0,0,0,0,0,0h0.1c0.1,0,0.1,0,0.1-0.1c0,0,0,0,0.1-0.1c0,0,0-0.1,0-0.1l0.1,0
			l0.1,0.3L36.6,35.5z M38.5,35c0,0-0.1-0.1-0.2-0.2c0-0.1-0.1-0.1-0.1-0.1c0,0,0,0-0.1,0c0,0,0,0-0.1,0l0.1,0.2c0,0,0,0.1,0,0.1
			c0,0,0,0,0.1,0h0l0,0.1l-0.5,0.1l0-0.1h0c0,0,0.1,0,0.1-0.1c0,0,0,0,0-0.1l-0.2-0.6c0,0,0-0.1,0-0.1c0,0,0,0-0.1,0h0l0-0.1
			l0.4-0.1l0.1,0c0.1,0,0.2,0,0.2,0c0,0,0.1,0,0.1,0c0,0,0.1,0,0.1,0.1c0,0,0.1,0.1,0.1,0.1c0,0.1,0,0.2-0.1,0.3
			c0,0,0.1,0.1,0.2,0.2c0.1,0.1,0.1,0.1,0.2,0.1c0,0,0,0,0.1,0l0,0.1L38.5,35z M38.9,34.9L38.9,34.9l0.2-1l-0.2,0
			c-0.1,0-0.2,0.1-0.2,0.1c0,0,0,0.1,0,0.2l-0.1,0l-0.1-0.3l0.8-0.2l0,0.1l-0.3,1l0.2-0.1c0.1,0,0.1,0,0.1,0c0,0,0-0.1,0-0.1
			c0,0,0-0.1,0-0.1l0.1,0l0.1,0.3L38.9,34.9z M40.4,34.4L40.4,34.4c0-0.1,0-0.1,0-0.1v0c0,0,0,0,0,0v0l-0.1-0.1l-0.3,0.1v0v0.1
			c0,0,0,0,0,0c0,0,0,0,0.1,0l0,0.1l-0.3,0.1l0-0.1c0.1,0,0.1-0.1,0.1-0.2l0-0.8l0.1,0l0.6,0.6c0.1,0.1,0.1,0.1,0.1,0.1
			c0,0,0,0,0.1,0l0,0.1L40.4,34.4z"/>
		<path class="st2" d="M24,18.9c-0.1,0.1-0.3,0.2-0.5,0.3h1.1C24.3,19.1,24.1,19,24,18.9"/>
		<path class="st2" d="M30.9,19.2c-0.2-0.1-0.3-0.2-0.4-0.2c0,0-0.1,0-0.1,0c-0.2-0.1-0.4-0.1-0.6-0.2h-2.2c-0.2,0-0.4,0.1-0.6,0.2
			c0,0,0,0,0,0c-0.1,0-0.3,0.1-0.4,0.2c0,0,0,0-0.1,0L30.9,19.2C30.9,19.2,30.9,19.2,30.9,19.2"/>
		<path class="st2" d="M33.7,18.9L33.7,18.9C33.7,18.9,33.7,18.9,33.7,18.9c-0.1,0.1-0.3,0.2-0.5,0.3h0.9C34,19.1,33.8,19,33.7,18.9
			"/>
		<path class="st2" d="M23.4,27.7v-2.3C23.2,25.9,22.9,26.8,23.4,27.7"/>
		<path class="st2" d="M28.7,19.5h-5.7v0c0,0.1,0,0.1,0.1,0.2c0,0,0.1,0.1,0.2,0.3h5.2L28.7,19.5z"/>
		<path class="st2" d="M28.5,20.3h-4.9c0.1,0.1,0.1,0.3,0.2,0.4h4.6L28.5,20.3z"/>
		<path class="st2" d="M28.1,21.5l0.2-0.5h-4.4c0.1,0.1,0.1,0.3,0.2,0.5H28.1z"/>
		<path class="st2" d="M28,21.8h-3.9c0,0.1,0.1,0.3,0.1,0.4h3.7L28,21.8z"/>
		<path class="st2" d="M24.1,23.7h2.1l-0.6-0.5h-1.3C24.2,23.4,24.1,23.6,24.1,23.7"/>
		<path class="st2" d="M24.2,22.5L24.2,22.5c0,0.1,0,0.2,0,0.5h0.9l-0.6-0.5H24.2z"/>
		<path class="st2" d="M28.7,23.9l2.5,3.6v1.8c0.2,0,0.3,0,0.4,0c0,0,0.1,0,0.1,0v-4.7H32v4.7c0.1,0,0.3,0,0.5-0.1v-4.6h0.3V29
			c0.2-0.1,0.3-0.1,0.4-0.2v-4.4h0.3v4.2c0.2-0.1,0.3-0.2,0.4-0.3c0,0,0,0,0-0.1v-3.1c-0.1-0.3-0.3-0.5-0.3-0.7
			c-0.1-0.2-0.1-0.3-0.2-0.5h-2.6l-0.6,0.4L29.2,24L28.7,23.9l4.3-1.4h-3.3l-0.1-0.3h3.8c0-0.2,0-0.3,0.1-0.4h-4l-0.1-0.3h4.1
			c0.1-0.2,0.1-0.3,0.2-0.5h-4.4l-0.1-0.3h4.7c0.1-0.2,0.2-0.3,0.2-0.5H29l-0.1-0.3h5.3c0.1-0.2,0.3-0.4,0.3-0.4c0,0,0,0,0-0.1h-5.8
			l0-0.1v0.1v0.5v0.3v0.5V21v0.5v0.3v0.4V23.9L28.7,23.9z M31,24.5h0.3v2.8L31,26.4V24.5z"/>
		<path class="st2" d="M29.7,29.7c0.2-0.1,0.3-0.2,0.5-0.2v-2.8l-0.5-0.3V29.7z"/>
		<path class="st2" d="M29,30.7c0.1-0.1,0.1-0.2,0.2-0.3l0,0c0.1-0.1,0.2-0.2,0.3-0.4v-3.9L29,25.7V30.7z"/>
		<path class="st2" d="M28.2,29.9c0.1,0.1,0.3,0.3,0.4,0.5l0,0c0,0,0,0.1,0.1,0.1v-4.9l-0.5,0.3V29.9z"/>
		<path class="st2" d="M27.5,29.5c0.2,0,0.3,0.1,0.5,0.2v-3.5l-0.5,0.3V29.5z"/>
		<path class="st2" d="M30.5,29.4c0.2,0,0.3-0.1,0.4-0.1v-2l-0.4-0.4V29.4z"/>
		<path class="st2" d="M26.7,29.2c0.1,0,0.3,0,0.5,0.1v-2.6l-0.5,0.4V29.2z"/>
		<path class="st2" d="M24.1,28.6v-4.1h0.3v4.3c0.1,0.1,0.3,0.1,0.4,0.2v-4.5h0.3v4.6c0.1,0,0.3,0.1,0.4,0.1v-4.7h0.3v4.7h0.2
			c0,0,0.1,0,0.3,0v-1.9l-0.3,0.2l2.6-3.6h0l0,0h0h0l-0.9-1.4h-3.3l4.2,1.4l-1.5,0.6L26.6,24H24c-0.1,0.1-0.1,0.3-0.2,0.5
			c0,0.1-0.1,0.2-0.2,0.3v3.4C23.8,28.3,23.9,28.5,24.1,28.6 M26.4,24.5h0.3v1.3l-0.3,0.9V24.5z"/>
		<path class="st2" d="M31.3,23.7h2.1c0-0.2-0.1-0.3-0.1-0.5h-1.4L31.3,23.7z"/>
		<path class="st2" d="M33.3,22.5H33L32.3,23h0.9c0-0.2,0-0.2,0-0.3C33.3,22.6,33.3,22.6,33.3,22.5"/>
		<path class="st2" d="M21.5,13.9c0.8,0.4,1.9,0.4,2.3,0.3c0.2-0.1,0.4-0.1,0.7-0.3c0,0,0.1,0,0.1-0.1c0,0,0,0,0,0
			c0.3-0.3,0.5-0.7,0.5-1.3c0,0,0,0,0,0c0,0,0.1,0.1,0.1,0.3c0,0.2-0.1,0.5-0.2,0.7v0.1c0,0.1,0,0.2,0.1,0.2
			c0.1,0.2,0.6,0.2,0.9,0.1c0,0,0,0,0,0c0,0-0.2,0.3-0.6,0.3c-0.1,0-0.2,0-0.2,0c0.2,0.3,0.8,0.6,1.4,0.6c0,0,0.1,0,0.1,0
			c0,0.1-0.2,0.1-0.4,0.1c-0.3,0-0.6-0.1-0.8-0.2c0.3,0.4,0.8,0.7,1.6,0.8c0,0.1-0.6,0-0.8,0c0.4,1.6,1.2,1.4,1.2,1.5
			c-0.3,0.1-0.4,0.4-0.3,0.7c0.9-0.3,1.5-0.3,1.7-0.3c0.2,0,0.9,0,1.8,0.4c0.1-0.1,0.1-0.3,0-0.4c-0.1-0.4-1.3-0.7-2.4-0.4
			c0,0-0.1,0-0.2,0.1c0,0,0,0,0,0h0c0,0,0.1-0.1,0.1-0.1c0.5-0.3,1.5-0.4,2.1-0.1c0.5,0.2,0.9-0.4,0.7-0.7c0.4,0,0.6-0.2,0.6-0.5
			c-0.1,0-0.1,0.1-0.2,0.1c-0.1,0.1-0.2,0.1-0.3,0v0h0c0.1,0,0.1,0,0.2-0.1c0.6-0.4,1-1.1,0.9-1.3c-0.1,0.1-0.3,0.2-0.5,0.2
			c-0.1,0-0.2,0-0.2,0c0,0,0,0,0,0c0.1,0,0.1,0,0.2-0.1c0.2-0.2,0.4-0.5,0.5-0.7c-0.4-0.4-0.5-0.8-0.8-1.4c-0.1-0.2-0.3-0.5-0.6-0.5
			H31c0,0-0.1,0-0.1,0h0c0.3-0.3,0.6,0,0.9,0.1c0-0.6,0.2-0.7,0.2-0.7c0,0,0,0,0,0c-0.4,1.2,0.4,2.3,1,2.6c0.8,0.4,2.3,0.5,3.3-0.3
			c-0.2,0.1-0.4,0.1-0.6,0.1c-0.2,0-0.3,0-0.3-0.1c0,0,0,0,0,0c0.2,0,0.2,0,0.4,0c1.4-0.4,1.5-2.1,1.2-2.2c0,0,0,0,0,0
			c0,0.1-0.1,0.2-0.1,0.3c-0.1,0.2-0.2,0.3-0.3,0.3c0,0,0,0,0,0c0.3-0.5,0.3-1,0.1-1.5c-0.1-0.3-0.3-0.6-0.5-0.8
			c-0.7-0.5-2.2-0.6-2.9,0c-0.3-0.3-0.6-0.5-1-0.6c-0.1,0.4-0.6,1-1,1.3c-0.1,0-0.3,0.2-0.4,0.2c0,0-0.1,0,0-0.1
			c0.8-0.5,1.1-1,1.1-1.8c0-0.4-0.1-1-0.6-1.5c-0.7-0.7-2.5-0.9-3.4-0.2c-0.2,0.2-0.4,0.5-0.4,0.9c0.1-0.3,0.3-0.5,0.7-0.6
			c0.4-0.1,1.1,0,1.2,0.4c-0.6-0.7-1.8-0.2-2,0.9c0,0.1,0,0.1,0,0.1c0,0-0.1,0-0.1-0.5c0-0.3,0.1-0.7,0.3-1
			c-1.5-0.3-3.2,0.4-3.1,2.6c0,0.3,0.1,0.6,0.4,0.9c0.1,0.1,0,0.1,0,0.1c0,0-0.2-0.1-0.3-0.2c-0.2-0.2-0.3-0.5-0.3-0.7
			c-0.9-0.3-1.5-0.3-2-0.3c-0.5,0-1.2,0.5-1.5,0.8c-0.1,0.2-0.2,0.4-0.3,0.5c-0.2,0.3-0.3,0.8-0.3,1.3
			C20.4,12.9,20.9,13.6,21.5,13.9 M35.6,9.5c0.3,0.1,0.6,0.4,0.8,0.8c0.2,0.4,0.1,0.7,0,0.9c0,0,0,0,0,0v0c0-0.2,0-0.6-0.2-0.8
			c-0.1-0.2-0.2-0.4-0.4-0.5c0.1,0.2,0.2,0.3,0.3,0.5c0.1,0.2,0.1,0.3,0.1,0.4c0,0.4-0.2,0.9-0.4,1.1h0v0c0.2-0.5,0.2-0.9,0.1-1.3
			c0,0-0.1-0.1-0.1-0.1c-0.2-0.3-0.4-0.6-0.9-0.6c0.2,0.1,0.4,0.3,0.5,0.6c0.2,0.5,0.2,1.1-0.1,1.4h0v0c0-0.1,0-0.2,0-0.2
			c0-0.2,0-0.3,0-0.5c-0.2-0.9-1-1.3-1.5-0.7C33.7,10.2,34.3,9.1,35.6,9.5 M30,16.1c-0.1-0.1-0.1-0.3-0.1-0.4
			c0.1-0.3,0.4-0.4,0.6-0.6C30.5,15.1,30.5,15.6,30,16.1 M29.9,15.3c-0.2-0.3,0.3-0.7,0.4-1C30.9,14.2,30.2,15.2,29.9,15.3 M31.4,8
			c0,0.5-0.2,0.6-0.3,0.6c0,0,0,0,0,0c0.1-0.3,0.1-0.8-0.2-1.1c-0.2-0.2-0.5-0.3-0.5-0.4C30.4,7,31.3,7.2,31.4,8 M30.1,12.6
			c0.4,0.2-0.2,1-0.3,1.2c0.1,0,0.4-0.4,0.6-0.3c0.2,0.2-0.4,1-0.6,1.1C28.9,13.4,30.1,13,30.1,12.6 M29.5,14.6
			c0.1,0.6,0.2,1.3-0.1,1.8c-0.2,0-0.1-0.3-0.1-0.4c0-0.7,0-1.3-0.2-1.8c-0.1-0.3-0.3-1.1-0.9-2.2C28.5,12.3,29.4,13.6,29.5,14.6
			 M25.7,11.7c0.4,0.7,1.5,1.6,2.9,1.9c0.5,0.1,0.7,1.6,0.3,2.4c-0.4,0-0.5-0.3-0.6-0.6c0.2,0.2,0.4,0.4,0.4,0
			c-0.2-0.1-1.1-0.4-0.9-0.8c0.2-0.2,0.7,0.7,0.8,0.4c0.1-0.6-1.9-0.9-1.8-1.4c0-0.3,1.6,0.8,1.8,0.7c0-0.3-2.3-1.3-3-2.5
			C25.7,11.8,25.6,11.7,25.7,11.7C25.6,11.7,25.7,11.7,25.7,11.7 M22.2,13.5c0.5-0.1,1-0.4,0.9-0.9c0-0.1-0.2-0.2-0.4-0.3
			c-0.3,0-0.5,0.2-0.7,0.4c0-0.5,0.3-0.8,0.8-0.7c0.3,0,0.6,0.2,0.6,0.5C23.6,13.2,22.9,13.5,22.2,13.5 M22.2,10
			c0.6-0.2,1.3,0,1.6,0.4c1.1,1,0.5,2.5,0.2,2.6c0.2-0.6,0.3-1.5-0.6-1.8c-0.8-0.2-1.4,0.4-1.8,0.7c0.2-0.7,1-1.2,2-1
			c-0.2-0.6-0.9-0.8-1.8-0.3c-0.2,0.1-0.4,0.2-0.5,0.4C21.5,10.5,21.8,10.2,22.2,10"/>
		<path class="st2" d="M26.2,37.2c0,0-0.6-0.2-1.4,0.3c0,0-0.7,0.4-0.8,0.4c0,0,0.1-0.7,0.3-1.5c-0.1,0-0.2,0-0.4,0
			c-0.1,0.8-0.3,1.7-0.6,1.7l-0.4,0.1c0,0,0-0.1-0.1-0.1c-0.1-0.1-0.2-0.2-0.5-0.2h0c-0.2,0.1-0.3,0.2-0.4,0.4
			c-0.1,0-0.8,0.1-1.2-0.2c0,0,0.7-0.2,0.8-0.5c0,0,0.2-0.4-0.5-0.8c0,0-0.5-0.3-0.7,0c0,0-0.1,0.2,0.2,0.4c0,0,0.3,0.3-0.2,0.2
			c0,0-0.4,0-0.5-0.2c0,0,0.1-0.9,0.3-1.6c-0.2,0-0.4-0.1-0.6-0.2c-0.1,0.2-0.1,0.4-0.2,0.7c0,0,0,0.6-0.2,0.7c0,0-0.7-0.6-0.4-1.6
			c-0.2-0.1-0.4-0.1-0.6-0.2c0,0.5,0.1,1.2,0.7,2.4c0,0-0.6,0.8-1.2,0.4c0,0-0.8-0.5-0.3-1c0,0,0.4-0.3,0.5,0.1
			c-0.2,0-0.4,0.2-0.4,0.4c0,0.2,0.2,0.3,0.4,0.3c0.2,0,0.3-0.2,0.4-0.3c0-0.1,0-0.5-0.3-0.8c0,0-0.3-0.3-0.8-0.2
			c0,0,0.5-0.6,0.5-1.1c0,0,0-0.1,0-0.2c-0.1-0.1-0.3-0.1-0.4-0.2c0,0.5-0.2,1.4-0.9,1.2c0,0,0.4-0.7,0.7-1.2
			c-0.3-0.1-0.6-0.2-0.8-0.3c0,0,0,0-0.1,0c0,0.2,0.1,0.7-0.2,1c0,0-0.3,0.3-0.9-0.1c0,0,0.8-0.7,1.1-0.9c-0.2-0.1-0.4-0.2-0.6-0.2
			h-0.2c0,0,0,0,0,0c0,0-0.5,0.4-0.9,0.5c0,0-0.1,0.1-0.2,0c0,0-0.6-0.8-0.1-1.6c0,0,0.3-0.7,0.9-0.6c0,0,0.2,0,0.3,0.2
			c0,0-0.6,0-0.5,0.5c0,0,0,0.4,0.6,0.4c0,0,0.7-0.1,0.6-1c0,0-0.1-0.6-0.6-0.6c0,0,0.3-0.3,0.1-0.4c0,0-0.2-0.2-0.6,0.1
			c0,0-0.1,0.2-0.6,0.1c0,0-0.3-0.1-0.5,0.1c0,0-0.1,0-0.1,0.4c0,0,0,0.1-0.2,0.5c0,0-0.1,0.3-0.2,0.6c-0.2-0.1-0.3-0.2-0.5-0.2
			c-0.3-0.3-0.3-1.5-0.5-2.1c0-0.1,0.1-0.8,0.1-1.4c1.8-0.4,2.5-1.8,2.7-2.4c0.3-1-0.1-2-0.1-2.3c0,0,0,0,0,0
			c0.1,0.2,0.1,0.3,0.2,0.5c0.9,0.1,1.5-0.1,1.9-0.2c0,0,0,0,0.1,0c0,0,0.1,0,0.1,0c0.1,0,0.2-0.1,0.2-0.1c0,0,0.1,0,0.1,0
			c1.3-0.7,1.9-1.7,2.2-2.3c-0.2,0-0.7-0.2-0.9-0.5c0.5,0,0.8,0.2,1.3,0.2c0.7,0,1.1-0.4,1.9-0.3c0,0,0.1,0.4,0.6,0.6
			c0,0.4,0.1,0.8,0.2,1.2c0,0.1,0.1,0.1,0.1,0.1s-0.6,0.4-0.4,0.8c0.1,0.1,0.1,0.2,0.1,0.3c0,0-0.1,0-0.1,0c-0.1,0-0.2,0.1-0.3,0.3
			c-0.1,0.1-0.4,0.7-0.1,0.8c0,0,0.1,0,0.1,0C22,27,22,27.9,22.5,28.6v0c0,0,0.9,1.4,3.1,1.4c0.3,0,2.2,0,2.9,1.3
			c0,0.1,0.2,0.3,0.4,0.3c0.2,0,0.3-0.2,0.4-0.3c0.7-1.3,2.7-1.3,2.9-1.3h0c2.2,0,3.1-1.4,3.1-1.4v0c0.3-0.4,0.4-0.8,0.5-1.2
			c0.4-0.2,0.4-1.2,0.4-1.4c0.1,0.2,0.4,0.7,0.9,0.8c-0.1,0.5-0.1,1.2,0.5,1.3c0.1,0,0.2-0.2,0.2-0.4c0.4,1.2,0.1,2,0.4,2.1
			c0.4,0,0.5-0.7,0.5-0.7c0,0.1,0.2,0.3,0.2,0.6c0,0.4,0,0.8,0.1,0.8c0.6,0.1,0.3-1.6,0.7-1.4c-0.1,0.7,0,1.1,0.3,1.3
			c0,0.3,0,0.7-0.2,0.7c-0.9,0.2-1.6-0.5-2.3-0.3c-0.1,0-0.1,0-0.1,0c-1.3-0.7-2.2-0.2-2.3-0.2c-0.4-0.4-0.5,0.2-0.6,0.1
			c-0.7-0.4-1.1,0.3-1.3,0.3c-0.2,0-0.5-0.3-0.8,0.5c-0.1,0.3-0.9,0.5-1,0.5c-0.3,0-0.4-0.2-0.4-0.2c0-0.1-0.1-0.2-0.1-0.2
			c0,0-0.1-0.1-0.1-0.1c-0.1-0.1-0.2-0.1-0.3-0.1c-0.2,0-0.4,0.2-0.4,0.4c0,0.1,0,0.2,0.1,0.3c0,0,0.1-0.1,0.2-0.1
			c0.2,0,0.3,0.1,0.3,0.3c0,0.4-0.5,0.7-0.5,0.7c-0.3,0.3-0.7-0.1-0.7-0.1c-0.2-0.2-0.4-0.2-0.4-0.2c-0.2,0-0.3,0.2-0.3,0.2
			s-0.1-0.2-0.3-0.2c0,0-0.1,0-0.4,0.2c0,0-0.4,0.4-0.7,0.1c0,0-0.5-0.4-0.5-0.7c0-0.2,0.1-0.3,0.3-0.3c0.1,0,0.2,0.1,0.2,0.1
			c0.1-0.1,0.1-0.2,0.1-0.3c0-0.2-0.2-0.4-0.4-0.4c-0.1,0-0.2,0-0.3,0.1c-0.1,0-0.1,0.1-0.1,0.1c0,0.1-0.1,0.1-0.1,0.2
			c0,0-0.1,0.2-0.4,0.2c-0.1,0-0.8-0.2-1-0.5c-0.3-0.8-0.6-0.4-0.8-0.5c-0.2,0-0.6-0.7-1.3-0.3c-0.1,0.1-0.2-0.5-0.6-0.1
			c-0.1,0.1-0.7-0.4-1.8,0c-0.1-0.1-0.4-0.2-0.5-0.2c-0.2-0.1-0.4-0.2-0.6-0.3C19.5,29.9,19,30,18.6,30c-0.1,0-0.3-0.1-0.4-0.2
			c-0.4-0.3-1-0.6-1.2-1c0-0.1-0.2-0.2-0.2-0.2c-0.1-0.2-0.2-0.3-0.3-0.6c-0.2-0.5,0.1-1.1,0.2-1.7c0-0.2,0-0.4,0.1-0.5
			c-0.4,0.1-1,0.1-1.7-0.1c0.2,0.6,0.2,1.2,0.2,1.7c0.3,0.2,0.4,0.5,0.4,0.7c0,0.3-0.1,0.6,0.1,0.8c0.3,0.3,0.8,0.6,1.1,0.9
			c0.1,0.1,1.6,1.2,1.8,1.3c0.2,0,0.4-0.1,0.6-0.1c0.1,0,0.1,0,0.2,0.1c0,0,0.1,0.1,0.3,0.2c-0.5,0.3-1,0.6-1.4,0.8
			c0,0-0.7,0.4-0.4,0.4c0,0,0.5,0,0.5,0.1c0,0-0.2,0.1-0.5,0.2c0.7,0.3,1.4,0.5,2.2,0.7c0.5-0.4,1.1-0.9,1.7-1.2c0,0,0.9,0,1.1-0.6
			c0.1-0.2,0.4,0.3,1.2-0.1c0.1,0,0.2,0.2,0.4,0.2c0.1,0-0.3,0.1-0.2,0.4c0,0-0.6,0-0.8,0.4c-0.1,0.1-1.4,0.1-2.5,1.1
			c0.2,0,0.4,0.1,0.6,0.2c0.4-0.3,0.9-0.5,1.4-0.5c0,0,0.7,0,1,0.9c0.4,0.1,0.9,0.1,1.3,0.2c0.1,0,0.7-0.4,0.5-0.7
			c0,0-0.2-0.2-0.4,0.1c0,0-0.2,0.1-0.2-0.1c0,0,0-0.1-0.1-0.2c0,0-0.1-0.2,0.1-0.1c0,0,0.2,0.1,0.4,0c0.2,0,0.4-0.2,0.4-0.4
			c0-0.2-0.2-0.4-0.4-0.4c0,0-0.1,0-0.1,0c0,0,0.1,0.1,0.1,0.1c0,0.1-0.1,0.2-0.2,0.1c-0.3-0.1-0.2-0.6,0.2-0.6c0,0,0.3,0,0.6,0.3
			c0,0,0.6,0.9,1.1,1.1c0,0-0.1,0.3,0.2,0.4c0,0,0,0.3,0.4,0.2c0,0,0.1,0.1,0.2,0.3c0.3,0,0.6,0,0.9,0c0.3,0,0.6,0,1,0
			c0.1-0.2,0.1-0.3,0.2-0.3c0.3,0,0.3-0.2,0.3-0.2c0.4-0.1,0.2-0.4,0.3-0.4c0.5-0.2,1.1-1.1,1.1-1.1c0.3-0.3,0.6-0.3,0.6-0.3
			c0.4,0,0.4,0.5,0.2,0.6c-0.1,0-0.2-0.1-0.2-0.1c0-0.1,0-0.1,0.1-0.1c0,0-0.1,0-0.1,0c-0.2,0-0.4,0.2-0.4,0.4
			c0,0.2,0.2,0.4,0.4,0.4c0.2,0,0.4,0,0.4,0c0.2-0.1,0.1,0.1,0.1,0.1c-0.1,0.1-0.1,0.2-0.1,0.2c-0.1,0.2-0.2,0.1-0.2,0.1
			c-0.3-0.3-0.4-0.1-0.4-0.1c-0.3,0.4,0.3,0.7,0.5,0.7h0c0.5,0,0.9-0.1,1.4-0.2c0.3-0.8,1-0.9,1-0.9c0.5,0,1,0.2,1.4,0.5
			c0.2,0,0.5-0.1,0.7-0.2c-1.2-1-2.5-1-2.5-1.1c-0.2-0.4-0.8-0.3-0.8-0.4c0.1-0.3-0.3-0.4-0.2-0.4c0.2,0,0.3-0.3,0.4-0.2
			c0.7,0.4,1.1-0.1,1.2,0.1c0.3,0.6,1.1,0.6,1.1,0.6c0.6,0.2,1.2,0.7,1.7,1.2c0.7-0.2,1.3-0.4,2-0.6v0c0,0,0-0.1,0-0.1c0,0,0,0,0,0
			v0c0,0-0.1-0.1-0.1-0.2c-0.2-0.3-0.4-0.6-0.5-0.7c0,0,0,0,0,0s0.5-0.7,0.8-0.2c0,0.1,0,0.2-0.3,0.2c0,0,0.4,0.6,0.4,0.9h0
			c0.2-0.1,0.3-0.1,0.3-0.1c0,0,0,0,0.1,0c-0.2-0.4-0.5-0.6-0.4-0.7c0.1,0,0.4,0.1,0.5-0.1c0-0.1,0.1-0.3,0.1-0.6
			c0.2,0.1,0.4,0.1,0.5,0.1c0.5,0,0.7-0.8,0.6-1c0.1,0,0.4-0.3,0.4-0.2c0.1,0.4,1,0.7,0.9-0.1c0.2,0.4,0.2,0.8,0.7,0.8
			c0.3-0.1,0.1-0.6,0.2-0.6c0.1,0.2,0.2,0.8,0.7,0.6c0.1-0.1,0.3-0.2,0.3-0.4c0-0.6-1.8-3.9-1.9-5.3c0,0,0,0-0.1,0
			c-0.2-0.1-0.2-0.4-0.2-0.6c0,0,0,0,0,0c-0.2,0-0.6-0.2-0.6-0.8c0-0.5,0.2-0.8,0.3-0.8c0,0,0,0,0,0c-0.1,0.4-0.2,0.9,0.1,1.2
			c0.1,0,0.2,0.1,0.3,0.1C42.9,24.1,43,24,43,24c0,0,0,0,0,0c-0.2,0.3-0.2,0.7,0,0.9c0.1,0.1,0.2,0.1,0.3,0.1
			c0.5-0.2,0.8-1.1,0.8-1.4c0.3,0.1-0.5,2,0.2,2.4c0.3,0,0.4-0.4,0.5-0.6c0.2,0.6-0.7,1.7,0,2c0.4,0.1,0.5-0.9,0.5-0.8
			c0.1,1.6-0.7,2.3-0.2,2.6c0.5,0.2,0.6-1.1,0.6-0.9c0,1.7-0.9,2.2-0.5,2.4c0.4,0.2,0.7-0.9,0.7-0.6c0,1.5-0.8,1.9-0.4,2.4
			c0.4,0.5,1.1-1,1.1-0.7c0.1,0.3-0.8,2.1-0.3,2.2c0.4,0.1,0.6-0.5,0.6-0.6c1.3-4.3,1.3-8.5,1.3-10c-0.2-2.2-0.3-4.2-0.9-6
			c-0.3-1.1-0.9-3.4-2.4-3.7c-0.7-0.2-1.2,0.5-1.2,1.1c0,0.5,0.4,0.7,0.2,1.2c-0.2,0.3-0.4,0.7-0.5,1c-0.1,0.4,0.2,0.5,0.1,0.9
			c-0.4-0.1-0.7,0.3-1.4,0.2c-0.6,0.2-1.2,0.1-1.2,0.1c0,0,0,0,0,0c0.6,0,1.3-0.2,1.4-0.5c0.1-0.4,0-1.1-0.3-1.4
			c-0.4,0.1-0.6,0.4-1.9,0.3c-1.1-0.1-1.3,0.1-1.5,0.8c-0.1-0.1-0.1-0.2-0.1-0.3c0-0.4,0.4-0.6,0.8-0.6c0.1-0.2,0.1-0.3,0.1-0.5
			c-0.2,0-0.3,0-0.5,0c-0.5,0.1-1.2,0.4-1.4,0.9c0,0.1,0,0.2,0,0.3c0,0.1,0,0.2,0,0.2c0,0,0,0.1,0.1,0.2c0.2,0.4,0.6,0.6,1.5,0.6
			c0,0,0,0,0,0c0,0-0.2,0.1-0.4,0c0,0-0.8,0-1.2-0.4c0,0-0.1,0.1-0.1,0.1c-0.2,0.2-0.6,0.4-1,0.4c-0.4,0-0.8-0.2-1-0.4
			c-0.5-0.7,0.2-1.9,0.2-2.4c0-1.2-1.7-0.7-2.3-0.3c-0.7,0.4-1.3,1-1.8,1.6c-0.3,0.3-0.6,0.7-0.7,1c0.2,0.1,0.9,0.4,1.3,0.4h0h0.1
			c0.3,0,0.7,0,1.1-0.3c0,0,0.2-0.2,0.4-0.2c0.2,0,0.3,0.1,0.4,0.2c0.1,0.1,1.1,0.9,1.5,1.1c0,0,0.1,0.1,0.2,0.3
			c0,0.1,0,0.2-0.1,0.4c-0.1,0.1-0.6,0.7-0.9,1.5c0,0.1-0.1,0.2-0.1,0.4c-0.1,0.4-0.2,1.2,0.4,1.4c0,0,0.7,0.2,0.6-1
			c0,0,0.1,0.7,0.6,0.7c0.2,0,0.4-0.2,0.4-0.7c-0.1-0.5-0.1-1,0-1.6c0,0,0,0,0-0.1c0,0,0,0.1,0,0.3c0,0.3-0.2,2.9,2,4.7
			c0,0-0.9-0.4-1.5-1.6c-0.4,0.2-0.9,0.7-0.6,1.7c0.1,0.4,0.3,0.7,0.5,0.8c0,0,0,0,0,0c0,0-0.1,0.1-0.3-0.1c0,0-0.1-0.1-0.1-0.1
			c-0.1-0.1-0.1-0.2-0.2-0.3c-0.2-0.2-0.5-0.4-0.7-0.7c-0.2-0.4-0.1-1.4-1.1-1.4h-0.1c-0.1,0-0.1,0-0.2,0h0
			c-0.3-0.9-0.2-1.5-0.2-1.6c0.2-1.3,1.1-2.4,1.3-2.6c0,0,0.1-0.1,0.1-0.2c0-0.1-0.1-0.1-0.1-0.1c-0.4-0.2-1.4-1.1-1.5-1.2v0
			C34.2,18.1,34.1,18,34,18c-0.1,0-0.2,0.1-0.2,0.1c-0.4,0.3-0.9,0.4-1.2,0.4c-0.1,0-0.2,0-0.2,0c-0.6,0-1.4-0.4-1.5-0.4
			c-1-0.4-1.8-0.4-1.9-0.4c-0.1,0-0.9,0-1.9,0.4c-0.2,0.1-0.9,0.4-1.5,0.4h0c0,0-0.1,0-0.2,0c-0.2,0-0.8-0.1-1.2-0.4
			c0,0-0.1-0.1-0.2-0.1c-0.1,0-0.2,0-0.3,0.1v0c-0.1,0.1-1.2,0.9-1.5,1.2c0,0,0,0-0.1,0.1c0,0.1,0,0.1,0.1,0.2
			c0.1,0.1,1,1.2,1.3,2.6c0,0,0,0.2,0,0.6c-0.1-0.3-0.2-0.5-0.2-0.7c0-0.1-0.1-0.3-0.2-0.4c-0.1-0.2-0.4-0.4-0.6-0.5
			c-0.2-0.1-0.4-0.1-0.6-0.3c-0.3-0.2-0.6-0.4-0.7-0.7c0-0.7-0.4-1.2-0.4-1.2c0.1,0,0.5,0.3,0.5,1c0.5-0.5,0.7-1.3,0.9-2.1
			c0.4-0.5,1.4-0.3,1.8-0.3c0.1,0,0.3,0.1,0.4,0.1c0.1,0.1,0.1,0.3,0.3,0.3c0.2,0.1,0.4,0,0.6,0c0.1,0.1,0.1,0.2,0.2,0.2h0.1h0
			c0.6,0,1.3-0.4,1.4-0.4l0,0c0,0,0,0,0.1,0c-0.2-0.3-0.6-0.4-0.9-0.4c-0.4-0.1-0.6-0.4-1-0.5c-0.1,0-0.4-0.1-0.5,0
			c-0.8,0.1-1.4-0.2-2.2-0.3c-0.7,0-0.7,0.4-1,0.9c-0.1,0.1-0.2,0.3-0.3,0.5c-0.2,0.2-0.5,0.2-0.7,0.4c0,0,0,0,0,0
			c-0.1-0.2-0.2-0.7-0.4-0.9v0c0,0,0-0.1,0-0.1c-0.4-0.6-0.9-1.1-1.7-1.3c-0.2-0.1-0.2-0.1-0.3-0.2c-0.1-0.1,0-0.3,0-0.3
			c0.3-0.1,0.7-0.1,1-0.2c0.7-0.3,0.4-0.9,0.2-1c-0.4-0.1-1-0.2-1.1-0.3c-0.2-0.1-0.3-0.4-0.5-0.5c-0.2-0.1-0.4-0.1-0.6,0
			c-0.2,0-0.3,0.2-0.4,0.1c0.2-0.2,0.4-0.3,0.8-0.4c-0.3-0.1-0.2-0.6-0.5-0.7c-0.1,0-0.3,0-0.5,0.1c0-0.2-0.1-0.7-0.4-0.9
			c-0.2-0.1-0.3,0.1-0.3,0.2c0,0.1,0.4,0.2,0.4,0.8c-0.1,0-0.1,0.1-0.2,0.1c0-0.2-0.1-0.6-0.4-0.7c-0.2-0.1-0.3,0.1-0.3,0.2
			c0,0.1,0.3,0.3,0.4,0.7c-0.1,0.1-0.2,0.1-0.2,0.2c-0.5-0.1-0.6-0.5-0.7-0.5c-0.1,0-0.3,0-0.2,0.3c0.1,0.2,0.5,0.4,0.7,0.4
			c0,0-0.1,0.1-0.1,0.2c-0.6-0.1-0.7-0.5-0.8-0.5c-0.2,0-0.4,0-0.3,0.3c0.2,0.3,0.7,0.5,0.8,0.5c-0.1,0.2-0.1,0.3-0.1,0.4
			c-0.4,0-1.2,0.2-1,0.7c0.1,0.1,0.6-0.3,1.1-0.1c0.3,0.5,0.8,0.5,0.9,0.6c0.2,0.1,0.2,0.4,0.3,0.6c0.1,0.4,0.4,0.7,0.6,1.1
			c0.3,0.4,0.5,0.8,0.8,1.2c0,0.1,0.1,0.2,0.1,0.3c-0.3,0.5-1.2,1.1-1.6,1.4c-0.4,0.4-4,3.1-4.5,4.3c-0.1,0.3-0.1,0.6-0.1,1
			c-0.2,0.1-0.6,0-0.7-0.1c-0.3-0.3,0.2-0.6,0.1-0.9c-0.1-0.1-0.3-0.2-0.4-0.1c-0.2,0.1-0.3,0.6-0.2,0.9c0,0.1,0.2,0.2,0.1,0.3
			c-0.2,0.1-0.2-0.1-0.2-0.3c-0.1,0-0.1,0.2-0.1,0.3C9.7,26,10,26,10.1,26.1c0,0.1-0.2,0.2-0.3,0.1c-0.2,0.3,0,0.4,0.1,0.4
			c0.2,0,0.5-0.2,0.6-0.2c0.1,0.2-0.1,0.2-0.3,0.3c0.4,0.4,0.7-0.3,1.1-0.2c0.1,0,1.3,1.1,1.1,1.9c0,0.1,0,0.2-0.1,0.2
			c-0.3,0.3-0.7,0.6-1,0.9c-0.6,0.4,0.6,2.8,0.5,4c-0.1,0.5,0.4,0.4,0.7,1.2c-0.3,0-0.6,0.1-0.7,0.3c0,0,0,0,0,0.1
			c0,0.1-0.1,0.2-0.1,0.3c0,0.3,0.3,0.6,0.6,0.6c0.3,0,0.6-0.3,0.6-0.6v-0.1c0.1,0,0.3,0,0.5,0.1l0.6,0.3c0,0-1.9,1.6-4.9,0.7
			c0,0-1.4-0.4-1-1.6c0,0,0.1-0.2,0.3-0.3c0,0.2,0.1,0.3,0.3,0.4c0.1,0.1,0.2,0.1,0.4,0.1c0.4,0,0.7-0.3,0.7-0.7
			c0-0.2-0.1-0.4-0.2-0.5c0,0-0.1,0-0.1-0.1v0c-0.2-0.1-0.5-0.2-1-0.1c0,0-1.3,0.4-0.8,1.8c0,0-0.9-0.2-1.2,0.2c0,0-0.1,0.1-0.1,0.4
			v0c0,0.1,0,0.2,0.1,0.3c0.1,0.1,0.2,0.2,0.4,0.2c0.2,0,0.3-0.1,0.4-0.2c0,0,0.1-0.1,0.3,0.1c0,0,1.2,1.4,3.1,1.2
			c0,0,0,0.9,0.7,1.1c0,0,0.1,0,0.1,0c0.2,0,0.3-0.1,0.3-0.3c0-0.2-0.1-0.3-0.3-0.3l0,0c0,0-0.1-0.3,0-0.5c0,0,2-0.2,3.4-1.3
			c0,0,0.9,0.3,1.5,0.3c0,0,0.1,0.2-0.3,0.3c0,0-0.5,0-0.5,0.2c0,0,0,0.2,0.4,0.2c0,0,0,0.2,0.3,0.4c0,0,0.2,0.1,0.1,0.2
			c0,0-0.4,0.2-0.3,0.5c0,0,0.1,0.3,0.7,0.2c0,0,0.2,0,0,0.2c0,0-0.3,0.3,0.2,0.5c0,0,0.4,0.2,0.6-0.2c0,0,0.1-0.1,0.3,0
			c0,0,1.2,0.5,1.8-0.3c0,0,0.1-0.2,0.2,0.1c0,0,0.6,0.7,2.3,0.8c0.1,0.2,0.3,0.3,0.6,0.3c0.3,0,0.6-0.2,0.6-0.5
			c0.2,0,0.9-0.1,1.7-0.6c0,0,0.3-0.2,0.6-0.3c0,0.5,0.4,0.8,0.9,0.8c0.5,0,0.9-0.4,0.9-0.9C26.9,37.6,26.6,37.3,26.2,37.2
			 M20.6,30.7C20.6,30.7,20.6,30.7,20.6,30.7C20.6,30.7,20.6,30.7,20.6,30.7C20.6,30.7,20.6,30.7,20.6,30.7
			c-0.1,0.1-0.2,0.1-0.2,0.1c-0.1,0-0.3,0-0.3,0c0,0.1,0,0.1,0.1,0.2c0,0,0.1,0,0.1,0c0,0,0.1,0.1,0.1,0.1c0,0.1-0.2,0.2-0.3,0.2
			c-0.2,0-0.3-0.2-0.4-0.3c0,0,0,0-0.1,0c0,0,0,0,0,0c-0.2-0.1-0.4-0.1-0.7-0.1c0-0.4,1.2-0.1,1.3-0.1
			C20.4,30.6,20.5,30.6,20.6,30.7L20.6,30.7 M38.9,31.7L38.9,31.7C38.9,31.7,38.9,31.8,38.9,31.7c-0.3,0.1-0.7-0.3-0.7-0.3
			c-0.1,0-0.3-0.2-0.5-0.1h0c-0.2,0.1-0.3,0.3-0.4,0.4c0,0,0-0.1,0-0.1v0v-0.1v0v-0.1c0,0,0,0,0,0c0,0,0-0.1,0-0.1c0,0,0,0,0,0
			c0,0,0,0,0,0c0,0,0,0,0.1,0c0,0,0,0,0,0c0.1,0,0.3-0.1,0.4-0.1c0.2,0,0.4,0.1,0.5,0.2c0.2,0.1,0.5,0.2,0.7,0.2
			C39.1,31.5,39,31.6,38.9,31.7 M43.9,16.8c0.1-0.4,0.6-0.8,0.6-1c0-0.2-0.2-0.5-0.3-0.8c0-0.5,0.3-0.9,0.8-0.8
			c0.3,0.1,0.5,0.3,0.7,0.5c0.1,0.1,0.2,0.2,0.2,0.2c0.5,0.7,1,1.9,1.2,2.8c0.8,2.8,1.1,7.2,0.2,12.1c-0.1,0.4-0.3,1.5-0.3,1.4
			c0.9-8,0.4-10,0.3-10c-0.1,0-0.3,1-0.7,0.7c-0.4-0.3,1-2.1,0.4-3c-0.1-0.2-0.3,0.2-0.5,0.2c-0.6-0.2,0.3-1.7,0.1-1.9
			c-0.1-0.1-0.6-0.2-0.6-0.8c0-0.2,0.2-0.4,0-0.7c-0.2-0.2-0.1,0.2-0.3,0.1c-0.3-0.3,0-0.6-0.2-0.8c-0.1-0.1-0.3,0.2-0.4,0
			c-0.2-0.1,0.1-0.4-0.1-0.5c-0.3,0-0.6,0.3-0.6,0.7c0,0.2,0.3,0.4,0.3,0.6c0,0.2-0.3,0.5-0.3,0.6c-0.4,0.9,0.2,1.1,0.2,1.4
			c0,0.1-0.3,0.2-0.5,0.2C43.8,17.9,43.8,17.1,43.9,16.8 M42.7,18.5c0.1,0,0.3-0.1,0.4-0.1c0.1,0,0.2-0.2,0.4-0.2
			c0,0-0.1,0.1-0.1,0.1c-0.1,0.1-0.4,0.3-0.7,0.3c-0.4,0.1-0.8,0-1-0.3C42,18.3,42.3,18.6,42.7,18.5 M35.3,15.5
			C35.3,15.5,35.3,15.5,35.3,15.5c-0.4-0.2-1.1-0.2-1.5,0.1c-0.3,0.2-0.6,0.5-0.7,0.5c-0.1,0,0.6-0.9,1.6-1
			C35.3,15.1,35.4,15.4,35.3,15.5 M37.5,18.3c-0.2,0.3-0.4,0.5-0.6,0.6c-0.6,0.1-1.2-0.3-1.2-0.4c0-0.1,0.5,0.2,0.9,0.2
			C37,18.7,37.3,18.4,37.5,18.3C37.5,18.2,37.6,18.2,37.5,18.3 M38.4,27.3c0.5,0.2,1.1,0.1,1.5-0.2c0,0,0,0,0.1,0
			c0.1,0,0,0.4-0.6,0.5c-1,0.1-1.7-0.9-1.6-0.8C37.8,26.8,38.1,27.2,38.4,27.3 M35.8,25.5C35.8,25.5,35.8,25.5,35.8,25.5L35.8,25.5
			C35.9,25.5,35.9,25.5,35.8,25.5l0.1,0.1v0.1v0V26v0.1c0,0.1,0,0.2,0,0.2c0,0.2,0,0.4-0.1,0.6c0,0,0,0-0.1,0.1c0,0,0,0-0.1,0.1v0
			l0,0c0,0,0,0,0,0s0,0,0,0h0h-0.1h0c0,0,0,0-0.1,0h0c0,0,0,0,0,0c0,0,0,0,0,0c0,0,0-0.1-0.1-0.1c0,0,0,0,0,0c0,0-0.1-0.2,0.1-0.2
			c0,0,0.1,0.1,0.1,0.1h0c0,0,0,0,0,0v0h0.1v0c0,0,0,0,0,0h0c0,0,0,0,0,0v0c0,0,0,0,0-0.1v0v-0.1v0v0c0-0.4,0-0.8,0.1-1
			C35.7,25.5,35.7,25.5,35.8,25.5C35.7,25.4,35.7,25.4,35.8,25.5C35.8,25.4,35.8,25.4,35.8,25.5L35.8,25.5 M34.6,24.1L34.6,24.1
			c0.1-0.1,0.2-0.1,0.3-0.1h0.2c0.1,0,0.1,0,0.2,0c0,0,0.1,0.2,0.2,0.4c0,0.1,0.1,0.4,0.2,0.5c0.1,0.1,0.1,0.3-0.2,0.3
			c-0.3,0-0.6-0.5-0.5-1c-0.1,0-0.2,0-0.2,0c0,0-0.1,0-0.1,0c0,0,0,0,0,0c0,0,0,0-0.1,0c0,0,0,0,0,0c-0.1,0.1-0.1,0.2-0.2,0.2
			C34.4,24.3,34.5,24.2,34.6,24.1 M23.3,25.1c0.8-1.4,0.7-2.3,0.7-2.5c0-1.5-1-2.7-1.1-2.8c-0.1-0.1-0.1-0.2-0.1-0.3
			c0-0.1,0.1-0.2,0.2-0.2c0.2-0.2,0.7-0.4,0.9-0.6l0.1,0c0,0,0,0,0.1,0c0,0,0.1,0,0.2,0.1c0.2,0.1,0.5,0.4,1.2,0.4
			c0.1,0,0.2,0,0.3,0c0.3,0,0.9-0.3,0.9-0.3c0.2-0.1,0.4-0.2,0.5-0.2l0,0c0.9-0.4,1.6-0.4,1.8-0.4c0.2,0,0.9,0,1.8,0.4l0.1,0
			c0.1,0,0.3,0.1,0.4,0.2c0,0,0.6,0.3,0.9,0.3c0.1,0,0.2,0,0.3,0c0.6,0,1-0.3,1.1-0.4c0.1-0.1,0.1-0.1,0.2-0.1c0,0,0.1,0,0.1,0
			c0,0,0,0,0.1,0.1c0.2,0.1,0.6,0.4,0.9,0.6c0,0,0.1,0.1,0.1,0.2c0,0.1,0,0.2-0.1,0.3c-0.1,0.1-1.1,1.3-1.1,2.8
			c0,0.2-0.1,1.1,0.7,2.5c0,0.1,0.9,1.7-0.1,3c-0.1,0.1-0.8,1.3-2.8,1.3c-0.2,0-1.8,0-2.3,1c0,0,0,0,0,0c-0.1,0.1-0.3,0.4-0.4,0.6
			c0,0-0.1,0.1-0.1,0.1c0,0-0.1,0-0.1-0.1c-0.1-0.2-0.3-0.5-0.4-0.6c0,0,0,0,0,0c-0.5-1-2.1-1-2.3-1c-1.9,0-2.7-1.2-2.8-1.3
			C22.4,26.7,23.3,25.1,23.3,25.1 M22.8,23.4c0.1,0.1,0.2,0.3,0.2,0.7v0.1v0.1v0.1v0.1v0.1v0.1v0.1v0.1v0.1c0,0,0,0.1,0,0.1V25
			c0,0,0,0.1,0,0.1v0.1c0,0,0,0,0,0.1c0,0,0,0.1,0,0.1c0,0,0,0,0,0.1c0,0,0,0,0,0.1c0,0,0,0,0,0.1c0,0,0,0.1,0,0.1c0,0,0,0,0,0.1
			c0,0,0,0,0,0.1c0,0,0,0,0,0c0,0,0,0.1-0.1,0.1c0,0,0,0,0,0c0,0-0.1,0-0.1,0.1c0,0,0,0,0,0c0,0-0.1,0.1-0.1,0.1h0c0,0-0.1,0-0.1,0
			c0,0,0,0,0,0c0,0-0.1,0-0.1,0c0,0,0,0,0-0.1c0-0.1,0.1-0.2,0.2-0.4c0-0.1,0-0.2,0.1-0.3c0.1,0,0.3,0,0.3-0.1
			c-0.2-0.2-0.2-0.5,0-0.7C23.1,24.2,22.8,23.5,22.8,23.4 M22.7,22.2c-0.2,0-0.2-0.7-1-0.5c-0.5,0.2-0.8,0.1-1.1,0
			C21.8,21,22.8,21.6,22.7,22.2 M15.8,15.3c-0.2-0.4,0.5-1,0.7-1.1c0.4-0.1,0.7,0.1,1.1,0.2c0.2,0,0.5,0,0.7,0
			c0.5,0.1,0.3,0.4,0.2,0.4c-0.4,0.1-0.6-0.2-0.9-0.2c-0.2,0-0.5,0.1-0.7,0.1c-0.2,0-0.4-0.2-0.6,0c0,0-0.3,0.2-0.2,0.5
			C16.1,15.4,15.9,15.5,15.8,15.3 M16.3,15.3c0.5,0.2,0.6-0.5,0.7-0.3C17.1,15.3,16.6,15.7,16.3,15.3 M17.2,16.7
			c0.8,0.1,1.6,0.1,2.1,0.4c0,0,0,0,0.1,0c0.1,0.1,0.6,0.4,0.7,1.1c-0.7-0.4-0.9-0.5-1.5-0.7C18.1,17.2,17.5,17.1,17.2,16.7
			 M13.2,34.3L13.2,34.3c-0.1-0.1-0.2-0.1-0.3-0.2c-0.1,0.1,0.1,0.3,0.2,0.4c0,0,0,0.1-0.1,0.1v0c-0.1,0-0.1,0-0.2,0h0
			c-0.2-0.1-0.2-0.3-0.2-0.5c0-0.1-0.1-0.3-0.3-0.5c0.3-0.2,0.8,0.3,0.9,0.4c0.1,0.1,0.2,0.1,0.2,0.2c0,0,0.1,0,0.1,0.1
			C13.4,34.3,13.3,34.3,13.2,34.3"/>
		<path class="st2" d="M34.3,25.7v2C34.7,26.9,34.5,26.2,34.3,25.7"/>
		<path class="st2" d="M38.6,13.8c-0.1,0.2-0.3,0.2-0.4,0.4C38,14,38.4,13.5,38.6,13.8 M39.9,13.7c0.2-0.1,0.4-0.5,0.7-0.3
			c0.1,0.1,0.3,0.2,0.4,0.3c0.2,0.1,0.3,0.2,0.4,0.4c0.1,0.2-0.2,0.6-0.4,0.2c-0.2-0.3-0.4-0.8-0.8-0.6c-0.3,0.2-0.5,0.4-0.6,0.2
			C39.6,13.7,39.9,13.7,39.9,13.7 M40,14c0.2-0.2,0.2,0.5,0.7,0.3C40.3,14.7,39.8,14.3,40,14 M38.3,14.7c0.1,0,0-0.3,0.3-0.3
			c0.2,0,0.6,0.2,0.6,0.4c0,0.3-0.2,0.9,0.6,1V16h0c0,0.1,0,0.3-0.1,0.4h0.2c1.1,0.1,1.7,0,2-0.4c0,0,0.2-0.2,0.3-0.4
			c0.3-0.6,0.3-1.1,0.2-1.5c0,0,0-0.1,0-0.1c0-0.1,0-0.1-0.1-0.2c-0.2-0.4-0.9-1-1.7-1.3c0,0-0.1,0-0.2,0h0c0,0,0,0,0,0v0l0.2,0
			c0.6,0.1,1.6,0.6,1.8,1.3c0.2-0.1,0.3-0.4,0.4-0.7c0,0,0-0.4,0.1-0.7c0-0.1,0-0.2-0.1-0.2c-0.1,0-0.2,0-0.2,0.1
			c-0.2,0.3-0.5,0.1-0.4-0.2c0-0.1,0-0.2-0.1-0.3c-0.1,0-0.2,0-0.2,0.1c-0.1,0.3-0.5,0.1-0.3-0.2c0-0.1,0-0.2-0.1-0.2
			c-0.1,0-0.2,0-0.3,0.1c-0.2,0.3-0.5,0.1-0.4-0.2c0-0.1,0-0.2-0.1-0.3c-0.1,0-0.2,0-0.3,0.1c-0.1,0.2-0.2,0.4-0.3,0.5
			c0.7,0.1,1.3,0.5,1.8,1c0,0,0.2,0.2,0.2,0.2c0,0,0,0.1,0,0.1c0,0,0,0,0,0c-0.1-0.1-0.1-0.2-0.2-0.2c-0.7-0.6-1.4-0.9-1.9-1
			c-0.3,0-0.2,0.4-0.2,0.7c-0.6-0.1-1,0.3-1.1,0.7c0,0.2,0,0.3,0.1,0.5v0c0,0-0.1-0.1-0.2-0.2c0-0.1-0.1-0.2-0.1-0.3
			c-0.5,0-0.9,0.3-0.9,0.7C37.8,14.3,38.2,14.7,38.3,14.7"/>
		<path class="st2" d="M51.6,35.4c-0.3-0.4-1.2-0.2-1.2-0.2c0.5-1.4-0.8-1.8-0.8-1.8c-0.5-0.1-0.8,0-1,0.1c0,0,0,0,0,0
			c0,0-0.1,0-0.1,0.1c-0.1,0.1-0.2,0.3-0.2,0.5c0,0.4,0.3,0.7,0.7,0.7c0.1,0,0.3,0,0.4-0.1c0.1-0.1,0.2-0.2,0.3-0.4
			c0.2,0.1,0.3,0.3,0.3,0.3c0.4,1.2-1,1.7-1,1.7c-3,0.9-4.9-0.6-4.9-0.6l0.5-0.3c0.2-0.1,0.4-0.1,0.5-0.1v0.1c0,0.3,0.3,0.6,0.6,0.6
			c0.3,0,0.6-0.3,0.6-0.6c0-0.1,0-0.2-0.1-0.3h0c0-0.1-0.1-0.1-0.1-0.1c-0.4-0.5-1.6-0.2-1.6-0.2c0.4-1,0-1.7,0-1.7
			c-0.2-0.4-0.2-0.5-0.2-0.5c0-0.4-0.1-0.4-0.1-0.4c-0.2-0.3-0.5-0.1-0.5-0.1c-0.5,0.1-0.6-0.1-0.6-0.1c-0.4-0.3-0.6-0.1-0.6-0.1
			c-0.2,0.1,0.1,0.4,0.1,0.4c-0.4,0-0.6,0.6-0.6,0.6c-0.2,0.9,0.6,1,0.6,1c0.5,0,0.5-0.4,0.5-0.4c0.1-0.4-0.5-0.4-0.5-0.4
			c0.1-0.3,0.3-0.3,0.3-0.3c0.6-0.2,0.9,0.6,0.9,0.6c0.5,0.8-0.2,1.6-0.2,1.6c-0.1,0.1-0.2,0-0.2,0c-0.4-0.2-0.9-0.5-0.9-0.5
			c0,0,0,0-0.1,0h-0.2c-0.2,0-0.5,0.1-0.6,0.2c0.3,0.2,1.1,0.9,1.1,0.9c-0.6,0.5-1,0.2-1,0.2c-0.3-0.3-0.2-0.9-0.2-1.1
			c0,0,0,0-0.1,0c-0.3,0.1-0.6,0.2-0.8,0.4c0.3,0.5,0.7,1.2,0.7,1.2c-0.7,0.2-0.8-0.7-0.9-1.2c-0.2,0.1-0.3,0.1-0.4,0.2
			c0,0.1,0,0.2,0,0.2c0.1,0.5,0.5,1.1,0.5,1.1c-0.5-0.1-0.8,0.2-0.8,0.2c-0.3,0.3-0.3,0.6-0.3,0.8c0,0.2,0.2,0.3,0.3,0.3
			c0.2,0,0.4-0.2,0.4-0.4c0-0.2-0.1-0.3-0.3-0.3c0.2-0.4,0.5-0.1,0.5-0.1c0.5,0.5-0.3,1-0.3,1c-0.6,0.4-1.2-0.4-1.2-0.4
			c0.6-1.1,0.7-1.9,0.7-2.4c-0.2,0.1-0.5,0.1-0.7,0.2c0.3,1-0.4,1.6-0.4,1.6c-0.2-0.1-0.2-0.7-0.2-0.7c-0.1-0.2-0.1-0.5-0.2-0.7
			c-0.2,0-0.4,0.1-0.6,0.2c0.2,0.6,0.3,1.5,0.3,1.5c-0.1,0.2-0.5,0.2-0.5,0.2c-0.5,0-0.2-0.2-0.2-0.2c0.2-0.2,0.2-0.4,0.2-0.4
			c-0.1-0.3-0.7,0-0.7,0c-0.7,0.4-0.5,0.8-0.5,0.8c0.1,0.2,0.8,0.5,0.8,0.5c-0.4,0.3-1.2,0.2-1.2,0.2c0-0.2-0.2-0.4-0.4-0.4l0,0
			c-0.3,0-0.4,0.1-0.5,0.2c0,0-0.1,0.1-0.1,0.2l-0.5-0.1c-0.3,0-0.5-0.9-0.6-1.7c-0.1,0-0.2,0-0.4,0c0.1,0.8,0.3,1.6,0.3,1.6
			c-0.2,0-0.8-0.5-0.8-0.5c-0.8-0.5-1.4-0.3-1.4-0.3c-0.4,0.1-0.7,0.4-0.7,0.9c0,0.5,0.4,0.9,0.9,0.9c0.5,0,0.9-0.4,0.9-0.8
			c0.3,0.1,0.6,0.3,0.6,0.3C34,38.9,34.8,39,35,39c0,0.3,0.3,0.5,0.6,0.5c0.2,0,0.5-0.1,0.6-0.3c1.7,0,2.3-0.8,2.3-0.8
			c0.2-0.2,0.2-0.1,0.2-0.1c0.6,0.9,1.8,0.4,1.8,0.4c0.2-0.1,0.3,0,0.3,0c0.3,0.4,0.6,0.2,0.6,0.2c0.5-0.2,0.2-0.5,0.2-0.5
			c-0.2-0.2,0-0.2,0-0.2c0.6,0.1,0.7-0.2,0.7-0.2c0.1-0.2-0.3-0.5-0.3-0.5c-0.1-0.1,0.1-0.3,0.1-0.3c0.3-0.2,0.3-0.4,0.3-0.4
			c0.4,0,0.4-0.2,0.4-0.2c0-0.2-0.5-0.2-0.5-0.2c-0.4,0-0.3-0.2-0.3-0.2c0.6,0,1.5-0.3,1.5-0.3c1.4,1.1,3.3,1.4,3.3,1.4
			c0.1,0.2,0,0.5,0,0.5h0c-0.2,0-0.3,0.2-0.3,0.3c0,0.2,0.1,0.3,0.3,0.3c0,0,0.1,0,0.1,0c0.6-0.2,0.7-1.1,0.7-1.1
			c1.8,0.2,3.1-1.2,3.1-1.2c0.2-0.2,0.3-0.1,0.3-0.1v0c0.1,0.1,0.2,0.2,0.4,0.2c0.2,0,0.3-0.1,0.4-0.2c0-0.1,0.1-0.2,0.1-0.3
			C51.7,35.5,51.6,35.4,51.6,35.4"/>
		<path class="st2" d="M29.7,37.7c0.2-0.1,0.2-0.3,0.2-0.3c0-0.5-0.3-0.7-0.3-0.7c-0.2,0-0.4,0-0.6,0c-0.2,0-0.4,0-0.7,0
			c0,0-0.4,0.2-0.3,0.7c0,0,0,0.2,0.2,0.3c0,0-0.5,0.2-0.5,0.5c0,0-0.1,0.2,0.3,0.6c0,0,0.3,0.3,0.4,0.6c0,0,0,0.4,0.5,0.4
			c0.5,0,0.5-0.4,0.5-0.4c0.1-0.2,0.4-0.6,0.4-0.6c0.4-0.3,0.4-0.6,0.4-0.6C30.1,37.9,29.7,37.7,29.7,37.7"/>
		<polygon class="st2" points="33.1,35.7 33.3,35.6 33.2,35.4 		"/>
		<polygon class="st2" points="25,35.7 25.3,35.7 25.2,35.4 		"/>
		<path class="st2" d="M24.1,35L24.1,35L24,35.4c0.1,0,0.1,0,0.2,0c0,0,0.1,0,0.1,0c0,0,0-0.1,0-0.1c0-0.1,0-0.1,0-0.1
			C24.2,35.1,24.2,35.1,24.1,35"/>
		<path class="st2" d="M27.6,35.3c-0.1,0-0.1,0-0.2,0.1c0,0.1-0.1,0.2-0.1,0.3c0,0.2,0,0.3,0,0.3c0,0.1,0.1,0.1,0.2,0.1
			c0.1,0,0.1,0,0.2-0.1c0-0.1,0.1-0.2,0.1-0.3c0-0.2,0-0.3,0-0.3C27.7,35.4,27.6,35.3,27.6,35.3"/>
		<path class="st2" d="M30.6,35.3c-0.1,0-0.1,0-0.2,0.1c0,0.1,0,0.2,0,0.3c0,0.2,0,0.3,0.1,0.3c0.1,0.1,0.1,0.1,0.2,0.1
			c0.1,0,0.2,0,0.2-0.1c0-0.1,0-0.2,0-0.3c0-0.1,0-0.2-0.1-0.3C30.7,35.4,30.7,35.3,30.6,35.3"/>
		<polygon class="st2" points="22.4,35.3 22.6,35.4 22.5,35 		"/>
		<path class="st2" d="M17.7,33.5l-0.1,0.4l0,0c0.1,0,0.1,0,0.2,0c0,0,0.1-0.1,0.1-0.1c0,0,0-0.1,0-0.1c0,0,0-0.1,0-0.1
			C17.9,33.5,17.8,33.5,17.7,33.5"/>
		<path class="st2" d="M18.9,33.9c-0.1,0-0.1,0-0.2,0c-0.1,0.1-0.1,0.2-0.2,0.3c0,0.1,0,0.2,0,0.3c0,0.1,0.1,0.1,0.1,0.2
			c0.1,0,0.2,0,0.2,0c0.1-0.1,0.1-0.2,0.2-0.3c0-0.1,0.1-0.2,0-0.3C19,33.9,19,33.9,18.9,33.9"/>
		<path class="st2" d="M20,34.2C20,34.2,20,34.2,20,34.2l-0.1,0.4c0.1,0,0.1,0,0.2,0c0,0,0,0,0.1,0c0,0,0-0.1,0-0.1
			c0-0.1,0-0.1,0-0.2C20.1,34.3,20.1,34.2,20,34.2"/>
		<path class="st2" d="M38.1,34.2c0,0-0.1,0-0.2,0c0,0,0,0,0,0l0.1,0.4c0.1,0,0.1,0,0.2-0.1c0,0,0,0,0-0.1c0,0,0-0.1,0-0.1
			C38.1,34.3,38.1,34.2,38.1,34.2"/>
		<polygon class="st2" points="40.1,34.1 40.3,34 40.1,33.8 		"/>
		<path class="st2" d="M40.4,34.4L40.4,34.4c0-0.1,0-0.1,0-0.1v0c0,0,0,0,0,0v0l-0.1-0.1l-0.3,0.1v0v0.1c0,0,0,0,0,0c0,0,0,0,0.1,0
			l0,0.1l-0.3,0.1l0-0.1c0.1,0,0.1-0.1,0.1-0.2v-0.8l0.1,0l0.6,0.6c0.1,0.1,0.1,0.1,0.1,0.1h0.1l0,0.1L40.4,34.4z M38.9,34.9
			L38.9,34.9l0.3-1l-0.2,0c-0.1,0-0.2,0.1-0.2,0.1c0,0,0,0.1,0,0.2l-0.1,0l-0.1-0.3l0.8-0.3l0,0.1l-0.3,1l0.2-0.1c0,0,0.1,0,0.1,0
			c0,0,0-0.1,0-0.1c0,0,0-0.1,0-0.1l0.1,0l0.1,0.3L38.9,34.9z M38.5,35c0,0-0.1-0.1-0.2-0.2c-0.1-0.1-0.1-0.1-0.1-0.1c0,0,0,0-0.1,0
			c0,0,0,0-0.1,0l0.1,0.2c0,0.1,0,0.1,0,0.1c0,0,0,0,0.1,0h0l0,0.1l-0.5,0.1l0-0.1h0c0,0,0.1,0,0.1,0c0,0,0-0.1,0-0.1l-0.2-0.6
			c0,0,0-0.1,0-0.1c0,0,0,0-0.1,0h0l0-0.1l0.4-0.1l0.1,0c0.1,0,0.2,0,0.2,0c0,0,0.1,0,0.1,0c0,0,0.1,0,0.1,0.1c0,0,0.1,0.1,0.1,0.1
			c0,0.1,0,0.2-0.1,0.3c0,0,0.1,0.1,0.2,0.2c0.1,0.1,0.1,0.1,0.2,0.1c0,0,0.1,0,0.1,0l0,0.1L38.5,35z M36.6,35.5L36.6,35.5
			L36.6,35.5c0-0.1,0.1-0.1,0.1-0.1c0,0,0,0,0-0.1l-0.1-0.6c0,0,0-0.1-0.1-0.1h-0.1h0v-0.1l0.8-0.2l0.1,0.2l-0.1,0
			c0,0-0.1-0.1-0.1-0.1c0,0-0.1,0-0.1,0c0,0-0.1,0-0.1,0l-0.2,0l0.1,0.3l0.1,0c0.1,0,0.1,0,0.1,0v-0.1l0.1,0l0.1,0.3l-0.1,0v0
			c0,0,0-0.1,0-0.1c0,0,0,0-0.1,0l-0.1,0l0,0.2c0,0,0,0.1,0,0.1c0,0,0,0,0,0c0,0,0.1,0,0.1,0c0.1,0,0.1,0,0.1-0.1c0,0,0,0,0.1-0.1
			c0,0,0-0.1,0-0.1l0.1,0l0.1,0.3L36.6,35.5z M36.2,34.8l0.1,0.3c0,0.1,0,0.1,0,0.2c0,0,0,0.1,0,0.1c0,0-0.1,0.1-0.1,0.1
			c-0.1,0-0.1,0.1-0.2,0.1c-0.1,0-0.1,0-0.2,0c-0.1,0-0.1,0-0.2-0.1c0,0-0.1-0.1-0.1-0.1c0,0,0-0.1,0-0.1l-0.1-0.4
			c0,0,0-0.1-0.1-0.1c0,0,0,0-0.1,0l0-0.1l0.5-0.1l0,0.1h0c0,0-0.1,0-0.1,0c0,0,0,0.1,0,0.1l0.1,0.4c0,0.1,0,0.1,0,0.2
			c0,0,0.1,0.1,0.1,0.1c0.1,0,0.1,0,0.2,0c0.1,0,0.1,0,0.1-0.1c0,0,0-0.1,0-0.1c0,0,0-0.1,0-0.2L36.2,34.8c-0.1-0.1-0.2-0.1-0.3-0.1
			v-0.1l0.3-0.1l0,0.1c0,0,0,0-0.1,0C36.2,34.7,36.2,34.7,36.2,34.8L36.2,34.8 M35.1,35c0,0,0-0.1-0.1-0.1c0,0,0,0-0.1,0h-0.1
			l-0.2,0l0.1,0.3l0.1,0c0,0,0.1,0,0.1,0c0,0,0,0,0-0.1L35.1,35l0,0.4l-0.1,0c0-0.1,0-0.1,0-0.1c0,0,0,0-0.1,0l-0.1,0l0,0.2
			c0,0.1,0,0.1,0,0.1c0,0,0.1,0,0.1,0h0l0,0.1l-0.5,0.1l0-0.1h0c0,0,0.1,0,0.1,0v-0.1l-0.1-0.6c0,0,0-0.1,0-0.1c0,0-0.1,0-0.1,0h0
			l0-0.1l0.8-0.1L35.1,35L35.1,35z M33.4,36L33.4,36C33.4,35.9,33.4,35.9,33.4,36c0.1-0.1,0.1-0.1,0.1-0.1c0,0,0,0,0,0v0l0-0.1
			l-0.3,0v0.1c0,0,0,0.1,0,0.1c0,0,0,0,0,0c0,0,0,0,0.1,0V36l-0.3,0V36c0,0,0.1-0.1,0.1-0.2l0.2-0.8l0.1,0l0.4,0.7
			c0,0.1,0.1,0.1,0.1,0.1c0,0,0.1,0,0.1,0V36L33.4,36z M31.8,36.2L31.8,36.2L31.8,36.2c0.1-0.1,0.1-0.1,0.1-0.1v-0.1l0-0.6
			c0,0,0-0.1,0-0.1c0,0-0.1,0-0.1,0l0,0v-0.1l0.5,0l0,0.1h0c-0.1,0-0.1,0-0.1,0c0,0,0,0,0,0.1l0,0.6c0,0,0,0.1,0,0.1c0,0,0,0,0,0
			h0.1c0.1,0,0.2,0,0.2-0.1c0,0,0.1-0.1,0.1-0.2h0.1l0,0.3L31.8,36.2z M31,36.1c-0.1,0.1-0.2,0.1-0.4,0.2c-0.1,0-0.2,0-0.3-0.1
			c-0.1,0-0.2-0.1-0.2-0.2c0-0.1-0.1-0.2-0.1-0.2c0-0.1,0-0.2,0.1-0.3c0-0.1,0.1-0.1,0.2-0.2c0.1,0,0.2-0.1,0.3-0.1
			c0.2,0,0.3,0,0.4,0.1c0.1,0.1,0.2,0.2,0.2,0.4C31.2,35.9,31.1,36,31,36.1 M29.4,35.4C29.4,35.4,29.3,35.4,29.4,35.4
			C29.3,35.4,29.3,35.4,29.4,35.4c-0.1,0.1-0.1,0.1-0.1,0.2v0.8h-0.1l-0.6-0.7V36c0,0.1,0,0.1,0,0.1c0,0,0.1,0,0.1,0v0.1h-0.4v-0.1
			c0,0,0,0,0.1,0c0,0,0,0,0,0V36v-0.5c0-0.1,0-0.1-0.1-0.1v-0.1l0.3,0l0.6,0.6v-0.4c0-0.1-0.1-0.2-0.1-0.2v-0.1L29.4,35.4L29.4,35.4
			z M28,36.1c-0.1,0.1-0.2,0.1-0.4,0.1c-0.1,0-0.2,0-0.3-0.1c-0.1,0-0.2-0.1-0.2-0.2c0-0.1,0-0.2,0-0.2c0-0.1,0-0.2,0.1-0.3
			c0-0.1,0.1-0.1,0.2-0.2c0.1,0,0.2,0,0.3,0c0.2,0,0.3,0.1,0.4,0.2c0.1,0.1,0.1,0.2,0.1,0.4C28.1,35.9,28,36,28,36.1 M26.8,35.3
			l-0.6,0.8l0.2,0c0.1,0,0.1,0,0.1,0c0,0,0.1,0,0.1,0c0,0,0-0.1,0.1-0.1h0.1l-0.1,0.3l-0.9-0.1v-0.1l0.6-0.8l-0.2,0
			c-0.1,0-0.2,0-0.2,0c0,0-0.1,0.1-0.1,0.1l-0.1,0l0-0.2L26.8,35.3L26.8,35.3z M25.7,36.1l-0.5,0V36h0.1c0,0,0,0,0,0c0,0,0,0,0,0v0
			v-0.1l-0.3,0l0,0c0,0,0,0,0,0.1c0,0,0,0,0,0c0,0,0,0,0.1,0l0,0.1l-0.3,0v-0.1c0.1,0,0.1,0,0.2-0.1l0.4-0.7h0.1l0.2,0.8
			c0,0.1,0,0.1,0.1,0.1C25.7,36,25.7,36,25.7,36.1L25.7,36.1z M24.6,36l-0.3,0c0,0-0.1-0.1-0.1-0.3c0-0.1-0.1-0.1-0.1-0.2
			c0,0,0,0,0,0c0,0-0.1,0-0.1,0v0.2c0,0,0,0.1,0,0.1c0,0,0,0,0.1,0v0.1l-0.5-0.1l0-0.1h0c0,0,0.1,0,0.1,0c0,0,0,0,0-0.1l0.1-0.6
			c0,0,0-0.1,0-0.1c0,0,0,0-0.1,0h0v-0.1l0.4,0h0.1c0.1,0,0.1,0,0.2,0.1c0,0,0.1,0,0.1,0c0,0,0.1,0.1,0.1,0.1c0,0,0,0.1,0,0.1
			c0,0.1-0.1,0.2-0.2,0.2c0,0,0.1,0.1,0.1,0.2c0,0.1,0.1,0.2,0.1,0.2C24.6,35.9,24.6,35.9,24.6,36L24.6,36z M23,35.8l-0.5-0.1v-0.1
			h0.1c0,0,0,0,0,0v0l0,0v-0.1l-0.3,0l0,0c0,0,0,0.1,0,0.1c0,0,0,0,0,0c0,0,0,0,0.1,0v0.1L22,35.6l0-0.1c0.1,0,0.1,0,0.2-0.1
			l0.4-0.7l0.1,0l0.2,0.8c0,0.1,0,0.1,0.1,0.1C23,35.7,23,35.7,23,35.8L23,35.8z M21.9,35.6L21,35.4l0-0.1h0c0,0,0.1,0,0.1,0
			c0,0,0,0,0-0.1l0.1-0.6v-0.1c0,0-0.1,0-0.1,0h0l0-0.1l0.5,0.1l0,0.1h0c0,0-0.1,0-0.1,0c0,0,0,0,0,0.1l-0.1,0.6v0.1v0
			c0,0,0.1,0,0.1,0c0.1,0,0.2,0,0.2,0c0,0,0.1-0.1,0.1-0.2l0.1,0L21.9,35.6z M20.3,34.9c0,0.1,0.1,0.2,0.1,0.2c0,0,0,0,0.1,0l0,0.1
			l-0.3-0.1c0,0-0.1-0.1-0.1-0.3c0-0.1,0-0.1,0-0.1c0,0,0,0,0,0c0,0-0.1,0-0.1,0l-0.1,0.2c0,0.1,0,0.1,0,0.1c0,0,0,0,0.1,0h0l0,0.1
			L19.4,35l0-0.1h0c0,0,0.1,0,0.1,0c0,0,0,0,0-0.1l0.2-0.6v-0.1c0,0,0,0-0.1,0l0,0l0-0.1l0.4,0.1l0.1,0c0.1,0,0.1,0,0.2,0.1
			c0,0,0.1,0,0.1,0.1c0,0,0.1,0.1,0.1,0.1c0,0,0,0.1,0,0.1c0,0.1-0.1,0.2-0.2,0.2C20.2,34.7,20.3,34.8,20.3,34.9 M19.3,34.4
			c0,0.1-0.1,0.2-0.2,0.3c-0.1,0.1-0.3,0.1-0.4,0c-0.1,0-0.2-0.1-0.3-0.2c-0.1-0.1-0.1-0.2-0.1-0.2c0-0.1,0-0.2,0-0.3
			c0-0.1,0.1-0.2,0.2-0.2c0.1-0.1,0.1-0.1,0.2-0.1c0.1,0,0.2,0,0.3,0c0.2,0,0.3,0.1,0.3,0.3C19.3,34.2,19.4,34.3,19.3,34.4
			 M18.2,33.8c0,0.1,0,0.1-0.1,0.1c-0.1,0-0.1,0-0.2,0c0,0-0.1,0-0.2-0.1l-0.1,0l-0.1,0.2c0,0,0,0.1,0,0.1c0,0,0,0,0.1,0.1l0,0
			l0,0.1l-0.5-0.2l0-0.1h0c0,0,0.1,0,0.1,0c0,0,0,0,0-0.1l0.2-0.6v-0.1c0,0,0,0-0.1,0l0,0l0-0.1l0.4,0.1c0.1,0,0.2,0.1,0.2,0.1
			c0,0,0.1,0.1,0.1,0.1c0,0,0.1,0.1,0.1,0.1C18.2,33.8,18.2,33.8,18.2,33.8 M27.6,34.9l0.3,0l-0.4,0.2h-0.1L27.6,34.9z M41,32.9
			c-0.1-0.1-0.2-0.1-0.3-0.1c-0.1,0-0.2,0-0.2,0c-0.4,0.1-4.6,2-11.5,2c-6.9,0-11.1-1.8-11.5-2c0,0-0.1,0-0.2,0
			c-0.1,0-0.2,0-0.3,0.1L15.4,34c0.4,0,0.9,0.2,0.9,0.2c3.7,1.6,7.9,2.3,12.6,2.3c4.7,0,8.9-0.7,12.6-2.3c0,0,0.5-0.2,0.9-0.2
			L41,32.9z"/>
		<path class="st2" d="M24.5,19.2c-0.2-0.1-0.4-0.2-0.6-0.3c-0.1,0.1-0.3,0.2-0.5,0.3H24.5z"/>
		<path class="st2" d="M27,19c-0.1,0-0.3,0.1-0.4,0.2c0,0,0,0-0.1,0H31c0,0-0.1,0-0.1,0c-0.2-0.1-0.3-0.2-0.4-0.2c0,0-0.1,0-0.1,0
			c-0.2-0.1-0.4-0.1-0.6-0.2h-2.2C27.5,18.8,27.3,18.8,27,19C27.1,18.9,27,18.9,27,19"/>
		<path class="st2" d="M33.7,18.9C33.7,18.9,33.7,18.9,33.7,18.9c-0.1,0.1-0.3,0.2-0.5,0.3h0.9C34,19.1,33.8,19,33.7,18.9
			C33.7,18.9,33.7,18.9,33.7,18.9"/>
		<path class="st2" d="M23.4,27.7v-2.3C23.2,25.9,22.9,26.8,23.4,27.7"/>
		<polygon class="st2" points="28.7,23.9 24.5,22.5 27.8,22.5 		"/>
		<path class="st2" d="M28.7,19.5H23v0c0,0.1,0,0.1,0.1,0.2c0,0,0.1,0.1,0.2,0.3h5.2L28.7,19.5z"/>
		<path class="st2" d="M28.5,20.3h-4.9c0.1,0.1,0.1,0.3,0.2,0.4h4.6L28.5,20.3z"/>
		<path class="st2" d="M28.3,21h-4.4c0.1,0.2,0.1,0.3,0.2,0.5h4.1L28.3,21z"/>
		<path class="st2" d="M28,21.8h-3.9c0,0.1,0.1,0.3,0.1,0.4h3.7L28,21.8z"/>
		<path class="st2" d="M25.5,23.3h-1.3c0,0.2,0,0.3-0.1,0.5h2.1L25.5,23.3z"/>
		<path class="st2" d="M25.1,23l-0.6-0.5h-0.3v0c0,0,0,0.2,0,0.4H25.1z"/>
		<path class="st2" d="M28.8,19.5L28.8,19.5L28.8,19.5l0,0.5v0.3v0.4V21v0.4v0.3v0.5v1.6l4.3-1.4h-3.3l-0.1-0.3h3.8
			c0-0.2,0-0.3,0.1-0.5h-4l-0.1-0.3h4.1c0-0.2,0.1-0.3,0.2-0.4h-4.4l-0.1-0.3h4.7c0.1-0.2,0.2-0.3,0.3-0.4H29l-0.1-0.3h5.3
			c0.1-0.2,0.3-0.4,0.3-0.4c0,0,0-0.1,0-0.1H28.8z"/>
		<path class="st2" d="M29.7,26.3v3.4c0.2-0.1,0.3-0.2,0.5-0.2v-2.8L29.7,26.3z"/>
		<path class="st2" d="M29,25.7v4.9c0.1-0.1,0.2-0.2,0.2-0.3l0-0.1c0.1-0.1,0.2-0.2,0.3-0.3v-3.9L29,25.7z"/>
		<path class="st2" d="M28.2,25.9v4c0.1,0.1,0.3,0.3,0.4,0.4l0,0c0,0,0,0.1,0.1,0.1v-4.9L28.2,25.9z"/>
		<path class="st2" d="M27.5,26.5v3c0.2,0,0.3,0.1,0.5,0.2v-3.5L27.5,26.5z"/>
		<path class="st2" d="M30.5,29.4c0.2,0,0.3-0.1,0.4-0.1v-2l-0.4-0.4V29.4z"/>
		<path class="st2" d="M26.7,29.2c0.1,0,0.3,0,0.5,0.1v-2.6l-0.5,0.4V29.2z"/>
		<path class="st2" d="M26.4,24.5h0.3v1.3l-0.3,0.9V24.5z M28.7,23.9l-1.5,0.6L26.6,24H24c-0.1,0.2-0.1,0.3-0.2,0.5
			c0,0.1-0.1,0.2-0.2,0.4v3.4c0.1,0.1,0.2,0.3,0.5,0.4v-4.1h0.3v4.3c0.1,0.1,0.3,0.1,0.4,0.2v-4.5h0.3v4.6c0.2,0,0.3,0.1,0.4,0.1
			v-4.7H26v4.7h0.2c0,0,0.1,0,0.2,0v-1.9l-0.2,0.2L28.7,23.9z"/>
		<path class="st2" d="M31.3,27.3L31,26.4v-2h0.3V27.3z M33.6,24.5L33.6,24.5c-0.1-0.2-0.1-0.3-0.2-0.5h-2.6l-0.6,0.4L29.2,24
			l-0.4-0.2l2.5,3.6v1.8c0.2,0,0.3,0,0.4,0h0.1v-4.7H32v4.7c0.1,0,0.3,0,0.5-0.1v-4.6h0.3V29c0.2-0.1,0.3-0.1,0.4-0.2v-4.4h0.3v4.2
			c0.2-0.1,0.3-0.2,0.4-0.3c0,0,0,0,0-0.1v-3.1C33.9,24.9,33.7,24.7,33.6,24.5"/>
		<path class="st2" d="M31.3,23.7h2.1c0-0.2-0.1-0.3-0.1-0.5h-1.4L31.3,23.7z"/>
		<path class="st2" d="M33,22.5L32.3,23h0.9c0-0.2,0-0.3,0-0.3v-0.1H33z"/>
		<path class="st2" d="M35.3,11.7L35.3,11.7L35.3,11.7c0-0.1,0-0.2,0-0.2c0-0.2,0-0.4,0-0.6c-0.2-0.9-1-1.3-1.5-0.7
			c0,0,0.6-1.1,1.9-0.7c0.3,0.1,0.6,0.4,0.8,0.8c0.2,0.4,0.1,0.7,0,0.9h0v0c0-0.2,0-0.6-0.2-0.9c-0.1-0.2-0.2-0.4-0.4-0.5
			c0.1,0.2,0.2,0.4,0.3,0.5c0.1,0.2,0.1,0.3,0.1,0.4c0,0.4-0.2,0.9-0.4,1.1h0v0c0.2-0.5,0.2-0.9,0.1-1.3c0,0-0.1-0.1-0.1-0.1
			c-0.2-0.3-0.4-0.6-0.8-0.6c0.2,0.1,0.4,0.3,0.5,0.6C35.6,10.9,35.6,11.5,35.3,11.7 M30.4,7c0,0,0.8,0.2,1,0.9
			c0,0.5-0.2,0.6-0.3,0.6c0,0,0-0.1,0-0.1c0.1-0.3,0.1-0.8-0.2-1.1C30.8,7.2,30.5,7.1,30.4,7 M29.9,15.3c-0.2-0.3,0.3-0.7,0.4-1
			C30.9,14.2,30.2,15.2,29.9,15.3 M30,16.1c-0.1-0.1-0.1-0.3-0.1-0.4c0-0.3,0.4-0.4,0.5-0.6C30.5,15.1,30.5,15.6,30,16.1 M30.1,12.6
			c0.4,0.2-0.2,1-0.3,1.2c0.1,0,0.4-0.4,0.6-0.3c0.2,0.2-0.4,1-0.6,1.1C28.9,13.4,30.1,13,30.1,12.6 M29.4,16.5
			c-0.1,0-0.1-0.3-0.1-0.4c0-0.7,0-1.3-0.2-1.8c-0.1-0.3-0.3-1.1-0.9-2.2c0.2,0.2,1.1,1.6,1.2,2.6C29.6,15.2,29.7,16,29.4,16.5
			 M28.9,16.1c-0.4,0-0.5-0.3-0.6-0.6c0.2,0.1,0.4,0.4,0.4,0c-0.2-0.1-1.1-0.4-0.9-0.8c0.2-0.2,0.7,0.7,0.9,0.4
			c0.1-0.6-1.9-0.8-1.8-1.4c0-0.3,1.6,0.7,1.8,0.7c0-0.3-2.3-1.3-3-2.5c-0.1-0.1-0.1-0.2-0.1-0.2c0,0,0,0,0,0c0.4,0.7,1.5,1.6,2.9,2
			C29.1,13.8,29.3,15.3,28.9,16.1 M24,13c0.2-0.6,0.3-1.5-0.6-1.8c-0.7-0.2-1.4,0.4-1.8,0.7c0.2-0.7,1-1.2,2-1
			c-0.2-0.6-0.9-0.8-1.8-0.3c-0.2,0.1-0.3,0.2-0.5,0.4c0.2-0.4,0.5-0.7,0.9-0.9c0.6-0.2,1.3,0,1.6,0.3C24.9,11.4,24.4,12.9,24,13
			 M22.2,13.5c0.5-0.1,1-0.4,0.9-0.9c-0.1-0.2-0.2-0.3-0.4-0.3c-0.3,0-0.5,0.2-0.6,0.4c0-0.5,0.3-0.8,0.8-0.7c0.2,0,0.6,0.3,0.6,0.5
			C23.6,13.2,22.9,13.5,22.2,13.5 M35.5,13.5c0.2,0,0.2,0,0.4,0c1.4-0.4,1.5-2.1,1.2-2.2c0,0,0,0,0,0c0,0.1-0.1,0.2-0.1,0.3
			c-0.1,0.2-0.2,0.3-0.2,0.3c0,0,0,0,0-0.1c0.3-0.5,0.3-1,0.1-1.5c-0.1-0.3-0.3-0.6-0.5-0.8c-0.7-0.5-2.2-0.6-2.9,0
			c-0.3-0.3-0.6-0.5-1-0.6c-0.1,0.4-0.6,1-1,1.3c-0.1,0.1-0.3,0.2-0.4,0.2c0,0-0.1,0,0-0.1c0.7-0.5,1.1-1,1.1-1.7v0
			c0-0.4-0.1-1-0.6-1.5c-0.7-0.7-2.5-0.9-3.4-0.1c-0.2,0.2-0.4,0.5-0.4,0.9c0.1-0.3,0.3-0.5,0.7-0.7c0.4-0.1,1.1,0,1.2,0.4
			c-0.6-0.6-1.8-0.2-2,0.9v0c0,0.1,0,0.1,0,0.1c0,0-0.1,0-0.1-0.5c0-0.3,0.1-0.7,0.3-1c-1.5-0.3-3.2,0.4-3.1,2.6
			c0,0.3,0.1,0.6,0.4,0.9c0.1,0.1,0,0.1,0,0.1c0,0-0.2-0.1-0.3-0.2c-0.1-0.2-0.3-0.4-0.3-0.7c-0.9-0.3-1.5-0.3-1.9-0.3
			c-0.5,0-1.2,0.5-1.5,0.8c-0.1,0.1-0.2,0.4-0.3,0.5c-0.2,0.3-0.3,0.8-0.2,1.3c0.1,0.8,0.5,1.5,1.1,1.9c0.8,0.4,1.9,0.4,2.3,0.3
			c0.2,0,0.4-0.1,0.6-0.3c0,0,0.1,0,0.1-0.1c0,0,0,0,0,0c0.3-0.3,0.5-0.7,0.5-1.3l0,0c0,0,0.1,0.1,0.1,0.3c0,0.2-0.1,0.5-0.2,0.7
			v0.1c0,0.1,0.1,0.2,0.1,0.2c0.2,0.2,0.6,0.2,0.9,0.1h0c0,0-0.2,0.3-0.6,0.3c-0.1,0-0.2,0-0.2,0c0.2,0.4,0.8,0.6,1.4,0.6
			c0,0,0,0,0,0c0,0-0.1,0.1-0.3,0.1c-0.3,0-0.6-0.1-0.9-0.2c0.3,0.3,0.8,0.7,1.6,0.8c0,0.1-0.7,0-0.8,0c0.4,1.5,1.2,1.4,1.2,1.5
			c-0.3,0.1-0.4,0.4-0.3,0.7c0.9-0.3,1.5-0.3,1.7-0.3c0.2,0,0.9,0,1.8,0.4c0.1-0.1,0.1-0.3,0-0.4c-0.1-0.4-1.3-0.7-2.4-0.4
			c0,0-0.1,0-0.1,0.1c0,0,0,0,0,0v0v0c0,0,0.2-0.1,0.2-0.1c0.5-0.2,1.5-0.3,2-0.1c0.5,0.2,0.9-0.4,0.7-0.7c0.4,0,0.6-0.2,0.6-0.5
			c-0.1,0-0.1,0.1-0.2,0.1c-0.1,0.1-0.2,0.1-0.3,0.1v0v0h0c0.1,0,0.1,0,0.2-0.1c0.6-0.4,1-1.1,0.9-1.3c-0.1,0.1-0.3,0.2-0.5,0.2
			c-0.1,0-0.2,0-0.2,0c0,0,0,0,0,0c0.1,0,0.1-0.1,0.2-0.1c0.2-0.2,0.4-0.4,0.5-0.7c-0.4-0.4-0.5-0.8-0.8-1.4
			c-0.1-0.2-0.3-0.5-0.6-0.5H31c0,0-0.1,0-0.1,0h0c0.3-0.2,0.6,0,0.9,0.2c0-0.6,0.2-0.7,0.2-0.7c0,0,0,0,0,0c-0.4,1.2,0.4,2.3,1,2.6
			c0.8,0.4,2.3,0.5,3.3-0.3c-0.2,0-0.4,0.1-0.6,0.1C35.6,13.6,35.4,13.6,35.5,13.5C35.4,13.6,35.5,13.5,35.5,13.5"/>
		<path class="st2" d="M47.3,29.8c-0.1,0.4-0.3,1.5-0.3,1.4c0.9-8,0.4-10,0.3-10c-0.1,0-0.3,1-0.7,0.7c-0.4-0.3,1-2.1,0.4-3
			c-0.1-0.2-0.2,0.2-0.5,0.2c-0.6-0.2,0.3-1.7,0.2-1.9c-0.1-0.1-0.6-0.2-0.6-0.8c0-0.3,0.2-0.5,0-0.7c-0.2-0.2-0.2,0.2-0.3,0.1
			c-0.3-0.3,0-0.6-0.2-0.9c-0.1,0-0.3,0.2-0.4,0.1c-0.2-0.1,0.1-0.4-0.1-0.5c-0.3,0-0.6,0.3-0.6,0.7c0,0.2,0.3,0.4,0.3,0.6
			c0,0.2-0.3,0.5-0.3,0.6c-0.4,0.9,0.3,1,0.2,1.4c0,0.1-0.3,0.2-0.5,0.2c-0.2-0.1-0.3-0.9-0.2-1.2c0.1-0.4,0.6-0.8,0.6-1
			c0-0.2-0.2-0.5-0.3-0.8c0-0.5,0.3-0.9,0.8-0.8c0.3,0.1,0.5,0.3,0.7,0.5c0.1,0.1,0.2,0.2,0.2,0.2c0.5,0.7,1,1.8,1.2,2.8
			C47.9,20.5,48.2,25,47.3,29.8 M43.4,18.4c-0.1,0.1-0.5,0.3-0.7,0.3c-0.4,0.1-0.8,0-1-0.3c0.3-0.1,0.6,0.1,1,0.1
			c0.1,0,0.3,0,0.4-0.1c0.1,0,0.2-0.2,0.4-0.2C43.5,18.3,43.4,18.4,43.4,18.4 M38.9,31.7L38.9,31.7C38.9,31.7,38.9,31.8,38.9,31.7
			c-0.3,0-0.7-0.3-0.7-0.3c-0.1,0-0.3-0.2-0.4-0.1c-0.2,0.1-0.3,0.3-0.4,0.4c0,0,0-0.1,0-0.1c0,0,0,0,0,0v-0.1v0v-0.1c0,0,0,0,0,0
			c0,0,0-0.1,0-0.1c0,0,0,0,0,0c0,0,0,0,0,0c0,0,0,0,0.1,0c0,0,0,0,0,0c0.1-0.1,0.3-0.1,0.4-0.1c0.2,0,0.4,0.1,0.5,0.2
			c0.2,0.1,0.5,0.2,0.7,0.2C39.1,31.5,38.9,31.6,38.9,31.7 M20.6,30.7C20.6,30.7,20.6,30.7,20.6,30.7C20.6,30.7,20.6,30.7,20.6,30.7
			L20.6,30.7c-0.1,0.1-0.2,0.1-0.2,0.1c-0.1,0-0.2,0-0.3,0c0,0.1,0,0.1,0.1,0.2c0,0,0,0,0,0c0,0,0,0,0.1,0c0,0,0.1,0,0.1,0.1
			c0,0.1-0.2,0.2-0.3,0.2c-0.2,0-0.3-0.2-0.4-0.3c0,0,0,0,0-0.1c0,0,0,0,0,0c-0.2-0.1-0.4-0.1-0.7-0.1c0-0.4,1.2-0.1,1.3-0.1
			C20.4,30.6,20.5,30.6,20.6,30.7L20.6,30.7 M39.4,27.7c-1,0.1-1.7-0.9-1.6-0.9c0.1,0,0.4,0.4,0.7,0.5c0.5,0.2,1.1,0.1,1.5-0.2
			c0,0,0.1,0,0.1,0C40,27.2,40,27.5,39.4,27.7 M35.8,27L35.8,27C35.7,27,35.7,27,35.8,27c-0.1,0.1-0.1,0.1-0.1,0.1h0c0,0,0,0,0,0h0
			c0,0,0,0,0,0c0,0,0,0,0,0c0,0,0,0-0.1,0h0c0,0,0,0-0.1,0h0c0,0,0,0,0,0c0,0,0,0,0,0c0,0-0.1,0-0.1,0c0,0,0,0,0,0
			c0,0-0.1-0.2,0.1-0.2c0,0,0,0,0.1,0.1c0,0,0,0,0,0c0,0,0,0,0,0h0c0,0,0,0,0,0c0,0,0,0,0,0c0,0,0,0,0,0c0,0,0,0,0,0c0,0,0,0,0,0
			c0,0,0,0,0-0.1v0c0,0,0,0,0-0.1v0v-0.1c0-0.3,0-0.8,0.1-1c0,0,0,0,0,0l0,0h0c0,0,0.1,0,0.1,0l0,0v0v0c0,0,0,0,0,0v0v0.1v0V26v0.1
			c0,0.1,0,0.2,0,0.2C35.9,26.5,35.9,26.8,35.8,27 M34.4,28.1c-0.1,0.1-0.8,1.3-2.8,1.3c-0.2,0-1.7,0-2.3,1c0,0,0,0,0,0
			c-0.1,0.1-0.2,0.4-0.3,0.6c0,0,0,0-0.1,0c0,0-0.1,0-0.1,0c-0.1-0.2-0.3-0.5-0.4-0.6c0,0,0,0,0,0c-0.5-1-2.1-1-2.3-1
			c-1.9,0-2.7-1.1-2.8-1.3c-1-1.4-0.1-3,0-3c0.8-1.4,0.7-2.3,0.7-2.5c0-1.5-1-2.7-1.1-2.8c-0.1-0.1-0.1-0.2-0.1-0.3
			c0-0.1,0.1-0.2,0.2-0.2c0.2-0.2,0.7-0.4,0.9-0.6l0.1,0c0,0,0.1,0,0.1,0c0.1,0,0.1,0,0.2,0.1c0.2,0.1,0.5,0.4,1.1,0.4
			c0.1,0,0.2,0,0.3,0c0.3,0,0.9-0.3,0.9-0.3c0.2-0.1,0.4-0.2,0.4-0.2l0,0c0.9-0.4,1.6-0.4,1.8-0.4c0.2,0,0.9,0,1.8,0.4l0,0
			c0.1,0,0.3,0.1,0.5,0.2c0,0,0.5,0.3,0.8,0.3c0.1,0,0.2,0,0.3,0c0.6,0,1-0.3,1.2-0.4c0.1-0.1,0.1-0.1,0.2-0.1c0,0,0.1,0,0.1,0
			c0,0,0.1,0,0.1,0.1c0.2,0.1,0.6,0.4,0.9,0.6c0,0,0.1,0.1,0.1,0.2c0,0.1,0,0.2-0.1,0.3c-0.1,0.1-1.1,1.3-1.1,2.8
			c0,0.2-0.1,1.1,0.7,2.5C34.5,25.1,35.3,26.7,34.4,28.1 M22.9,25.5C22.9,25.5,22.9,25.6,22.9,25.5c0,0.1-0.1,0.2-0.1,0.2
			c0,0,0,0,0,0c0,0,0,0,0,0.1c0,0,0,0,0,0c0,0-0.1,0.1-0.1,0.1c0,0,0,0,0,0c0,0,0,0-0.1,0.1l0,0c0,0-0.1,0.1-0.1,0.1h0
			c0,0-0.1,0-0.1,0c0,0,0,0,0,0h-0.1c0,0,0-0.1,0-0.1c0-0.1,0.1-0.2,0.2-0.4c0-0.1,0-0.2,0.1-0.3c0.2,0,0.2,0,0.3-0.1
			c-0.2-0.1-0.2-0.5,0-0.7c0.4-0.4,0-1.1,0.1-1.2c0.1,0.1,0.2,0.3,0.2,0.6v0.1c0,0,0,0.1,0,0.1v0.1v0.1v0.1v0.1v0.1c0,0,0,0.1,0,0.1
			v0.1c0,0,0,0.1,0,0.1c0,0,0,0.1,0,0.1c0,0,0,0,0,0.1c0,0,0,0,0,0.1c0,0,0,0,0,0.1c0,0,0,0.1,0,0.1C22.9,25.4,22.9,25.4,22.9,25.5
			C22.9,25.5,22.9,25.5,22.9,25.5 M35,23.9c0,0,0.1,0,0.2,0c0.1,0,0.1,0,0.2,0c0,0,0.2,0.2,0.2,0.4c0,0,0.1,0.4,0.2,0.5
			c0.1,0.1,0.1,0.3-0.2,0.3h0c-0.3-0.1-0.6-0.5-0.5-1c-0.1,0-0.2,0-0.2,0h0c0,0-0.1,0-0.1,0h0c0,0-0.1,0-0.1,0c0,0,0,0-0.1,0
			c-0.1,0.1-0.1,0.2-0.2,0.2c0-0.2,0.1-0.3,0.3-0.4C34.7,24,34.8,24,35,23.9 M22.7,22.2c-0.2,0-0.2-0.7-1-0.5
			c-0.4,0.2-0.8,0.1-1.1,0C21.8,21,22.8,21.6,22.7,22.2 M18.6,17.4c-0.6-0.2-1.2-0.3-1.4-0.7c0.8,0.1,1.6,0.1,2.1,0.4c0,0,0,0,0.1,0
			c0.2,0.1,0.6,0.4,0.7,1C19.4,17.7,19.2,17.6,18.6,17.4 M16.9,14.7c-0.2,0-0.3-0.1-0.5,0c0,0-0.3,0.2-0.2,0.5
			c0,0.2-0.2,0.2-0.3,0.1c-0.2-0.4,0.5-1,0.6-1.1c0.4-0.1,0.7,0.1,1.1,0.2c0.3,0,0.5,0,0.7,0c0.5,0,0.3,0.4,0.2,0.4
			c-0.4,0.1-0.6-0.2-0.9-0.2C17.4,14.6,17.1,14.8,16.9,14.7 M16.2,15.3c0.5,0.2,0.6-0.5,0.7-0.3C17.1,15.3,16.6,15.7,16.2,15.3
			 M13.2,34L13.2,34L13.2,34c0.1,0.1,0.2,0.1,0.3,0.2c0,0,0,0,0.1,0.1c-0.1,0.1-0.2,0.1-0.3,0c0,0,0,0,0,0c-0.1,0-0.2-0.1-0.3-0.2
			c-0.1,0.1,0.1,0.3,0.2,0.4c0,0-0.1,0.1-0.1,0.1c-0.1,0-0.2,0-0.2,0h0c-0.2-0.1-0.2-0.3-0.2-0.5c0-0.1-0.1-0.3-0.3-0.4
			C12.6,33.4,13.1,33.9,13.2,34 M37.5,18.3c-0.1,0.2-0.3,0.5-0.6,0.6c-0.6,0.2-1.2-0.3-1.2-0.4c0-0.1,0.5,0.2,0.9,0.2
			C37,18.7,37.3,18.4,37.5,18.3C37.5,18.2,37.6,18.2,37.5,18.3 M35.3,15.5C35.3,15.5,35.3,15.5,35.3,15.5c-0.4-0.2-1.1-0.2-1.5,0.1
			c-0.3,0.2-0.6,0.5-0.7,0.5c0,0,0.6-0.9,1.6-1C35.3,15.1,35.4,15.4,35.3,15.5 M48.2,23.4c-0.1-2.2-0.3-4.2-0.8-6
			c-0.3-1.1-1-3.4-2.5-3.7c-0.7-0.1-1.2,0.5-1.2,1.1c0,0.5,0.4,0.7,0.2,1.2c-0.2,0.3-0.4,0.7-0.5,1.1c-0.1,0.3,0.2,0.5,0.1,0.9
			c-0.5-0.1-0.7,0.3-1.4,0.2c-0.6,0.2-1.2,0.1-1.2,0.1c0,0,0,0,0,0c0.7,0,1.3-0.2,1.4-0.5c0.1-0.4,0-1.1-0.3-1.4
			c-0.4,0.1-0.6,0.4-1.9,0.3c-1.1-0.1-1.4,0.1-1.5,0.8c-0.1-0.1-0.1-0.2,0-0.3c0-0.4,0.4-0.6,0.8-0.6c0.1-0.2,0.1-0.3,0.1-0.5
			c-0.2,0-0.3,0-0.5,0c-0.5,0.1-1.2,0.4-1.4,0.9c0,0.1,0,0.2,0,0.3c0,0.1,0,0.2,0,0.2c0,0.1,0.1,0.1,0.1,0.2
			c0.2,0.4,0.6,0.6,1.5,0.6c0,0,0,0,0,0c0,0-0.2,0.1-0.4,0c0,0-0.8,0-1.2-0.4c0,0,0,0.1-0.1,0.1c-0.2,0.2-0.6,0.4-1,0.5
			c-0.4,0-0.8-0.2-1-0.4c-0.5-0.7,0.2-1.9,0.2-2.4c0-1.2-1.7-0.7-2.3-0.3c-0.7,0.4-1.3,1-1.8,1.6c-0.2,0.3-0.6,0.7-0.7,1.1
			c0.2,0.1,0.9,0.4,1.3,0.4l0,0h0.1c0.3,0,0.7-0.1,1.1-0.3c0,0,0.2-0.1,0.4-0.1c0.2,0,0.3,0.1,0.4,0.2c0.1,0.1,1.1,0.9,1.5,1.1
			c0.1,0,0.2,0.1,0.2,0.2c0,0.1,0,0.2-0.1,0.4c-0.1,0.1-0.6,0.7-1,1.5c0,0.1-0.1,0.2-0.1,0.4c-0.1,0.4-0.2,1.1,0.4,1.4
			c0,0,0.7,0.2,0.6-1c0,0,0.1,0.7,0.7,0.7c0.2,0,0.4-0.2,0.4-0.7c0-0.5,0-1,0-1.6c0,0,0,0,0-0.1c0,0,0,0.1,0,0.3
			c0,0.3-0.2,2.9,2,4.7c0,0-0.9-0.4-1.5-1.6c-0.4,0.2-0.9,0.7-0.6,1.7c0.1,0.4,0.3,0.6,0.5,0.8c0,0,0,0,0,0.1c0,0-0.1,0.1-0.3-0.1h0
			c0,0,0-0.1-0.1-0.1c-0.1-0.1-0.1-0.2-0.2-0.3c-0.3-0.2-0.5-0.4-0.7-0.7c-0.2-0.4-0.1-1.4-1.1-1.4h-0.1c0,0-0.1,0-0.2,0l0,0
			c-0.3-0.9-0.2-1.5-0.2-1.6c0.2-1.3,1.1-2.4,1.3-2.6c0,0,0.1-0.1,0.1-0.2c0,0,0-0.1-0.1-0.1v0c-0.4-0.2-1.4-1-1.5-1.1v0
			C34.2,18.1,34.1,18,34,18c-0.1,0-0.2,0.1-0.2,0.1c-0.4,0.4-0.9,0.4-1.2,0.4h-0.2h0c-0.6,0-1.3-0.4-1.5-0.4c-1-0.4-1.8-0.5-1.9-0.5
			c-0.1,0-0.9,0-1.9,0.5c-0.1,0.1-0.9,0.4-1.5,0.4h-0.2c-0.3,0-0.8,0-1.2-0.4v0c0,0-0.1-0.1-0.2-0.1c-0.1,0-0.2,0-0.3,0.1v0
			c-0.1,0.1-1.1,0.9-1.5,1.1v0c0,0-0.1,0-0.1,0.1c0,0.1,0,0.1,0.1,0.2c0.1,0.1,1,1.2,1.3,2.6c0,0,0,0.3,0,0.6
			c-0.1-0.3-0.2-0.5-0.2-0.7c0-0.1-0.1-0.3-0.1-0.4c-0.2-0.2-0.4-0.4-0.6-0.5c-0.2-0.1-0.4-0.1-0.6-0.3c-0.3-0.2-0.5-0.4-0.7-0.7
			c0-0.7-0.4-1.2-0.4-1.2c0.1,0,0.5,0.3,0.6,1c0.5-0.5,0.7-1.3,0.9-2.1c0.4-0.5,1.4-0.3,1.8-0.2c0.1,0,0.3,0,0.4,0.1
			c0.1,0.1,0.1,0.2,0.3,0.3c0.2,0.1,0.4,0,0.6,0c0.1,0.1,0.1,0.2,0.2,0.3h0.1v0h0c0.6,0,1.3-0.4,1.4-0.4h0c0,0,0,0,0.1,0
			c-0.2-0.3-0.6-0.4-0.9-0.4c-0.4-0.1-0.6-0.4-1-0.5c-0.1,0-0.4-0.1-0.5,0c-0.8,0.1-1.4-0.2-2.2-0.2c-0.7,0-0.7,0.4-1,0.9
			c-0.1,0.1-0.2,0.3-0.3,0.4c-0.2,0.2-0.5,0.2-0.7,0.4c0,0,0,0,0,0c0-0.3-0.2-0.7-0.3-0.9l0,0c0,0,0-0.1,0-0.1
			c-0.4-0.6-0.9-1.1-1.7-1.3c-0.2-0.1-0.2-0.1-0.3-0.2c-0.1-0.1,0-0.3,0-0.3c0.2-0.1,0.7-0.1,1-0.2c0.7-0.3,0.4-0.9,0.2-1
			c-0.3-0.1-1-0.2-1.1-0.3c-0.2-0.1-0.3-0.4-0.6-0.5c-0.2-0.1-0.4,0-0.6,0c-0.2,0-0.3,0.2-0.4,0.1c0.2-0.2,0.4-0.3,0.8-0.4
			c-0.3-0.1-0.2-0.6-0.5-0.7c-0.1,0-0.3,0-0.5,0.1c0-0.2-0.1-0.7-0.4-0.8c-0.2-0.2-0.3,0.1-0.3,0.2c0,0.1,0.4,0.3,0.4,0.8
			c-0.1,0-0.1,0.1-0.2,0.1c0-0.2-0.1-0.5-0.4-0.7c-0.2-0.1-0.3,0.1-0.3,0.2c0,0.1,0.3,0.2,0.4,0.7c-0.1,0.1-0.2,0.1-0.2,0.2
			c-0.5-0.1-0.6-0.5-0.7-0.5c-0.1,0-0.4,0-0.2,0.3c0.1,0.2,0.5,0.4,0.7,0.4c0,0.1-0.1,0.1-0.1,0.2c-0.6-0.1-0.6-0.5-0.8-0.5
			c-0.1,0-0.4,0-0.2,0.3c0.2,0.3,0.7,0.5,0.8,0.5c-0.1,0.1-0.2,0.3-0.1,0.4c-0.4,0-1.2,0.2-1,0.7c0.2,0.1,0.6-0.3,1.1-0.1
			c0.3,0.4,0.8,0.5,0.9,0.6c0.2,0.2,0.2,0.4,0.3,0.6c0.1,0.4,0.4,0.7,0.7,1.1c0.3,0.4,0.5,0.8,0.8,1.2c0,0.1,0.1,0.2,0.1,0.3
			c-0.3,0.5-1.2,1.1-1.6,1.4c-0.4,0.4-4,3.1-4.5,4.3c-0.1,0.3-0.2,0.6-0.2,1c-0.2,0.1-0.6,0-0.7-0.1c-0.3-0.3,0.2-0.5,0.1-0.9
			c-0.1-0.2-0.3-0.2-0.4-0.2c-0.3,0.1-0.3,0.7-0.2,1c0,0.1,0.2,0.2,0.1,0.3c-0.1,0-0.2-0.1-0.2-0.3c-0.1,0-0.1,0.2-0.1,0.3
			C9.7,26,10,26,10.1,26.1c0,0.1-0.2,0.2-0.3,0.1c-0.2,0.3,0,0.4,0.1,0.4c0.2,0,0.5-0.2,0.6-0.2c0.1,0.2,0,0.2-0.3,0.3
			c0.4,0.4,0.7-0.3,1.1-0.2c0.1,0,1.3,1.1,1.1,1.9c0,0-0.1,0.2-0.1,0.2c-0.2,0.3-0.7,0.6-1,0.9c-0.6,0.4,0.6,2.8,0.5,4
			c-0.1,0.5,0.4,0.4,0.7,1.2c-0.3,0-0.6,0.1-0.7,0.3c0,0,0,0,0,0.1h0c0,0.1-0.1,0.2-0.1,0.3c0,0.3,0.3,0.6,0.6,0.6
			c0.3,0,0.6-0.3,0.6-0.6v-0.1c0.1,0,0.3,0,0.5,0.1l0.5,0.3c0,0-1.9,1.6-4.9,0.6c0,0-1.4-0.4-1-1.7c0,0,0.1-0.2,0.2-0.3
			c0.1,0.2,0.2,0.3,0.3,0.4c0.1,0.1,0.2,0.1,0.4,0.1c0.4,0,0.7-0.3,0.7-0.7c0-0.2-0.1-0.3-0.2-0.5c0,0-0.1-0.1-0.1-0.1h0v0
			c-0.2-0.1-0.5-0.2-1-0.1c0,0-1.3,0.4-0.8,1.8c0,0-0.9-0.2-1.2,0.2c0,0-0.1,0.1-0.1,0.4v0c0,0.1,0,0.2,0.1,0.3
			c0.1,0.1,0.2,0.2,0.4,0.2c0.2,0,0.3-0.1,0.4-0.2c0,0,0.1-0.1,0.3,0c0,0,1.2,1.4,3.1,1.2c0,0,0,1,0.7,1.1c0,0,0.1,0,0.1,0
			c0.2,0,0.3-0.1,0.3-0.3c0-0.2-0.1-0.3-0.3-0.3h0c0,0-0.1-0.3,0-0.5c0,0,2-0.2,3.3-1.4c0,0,0.9,0.3,1.5,0.3c0,0,0.1,0.2-0.3,0.2
			c0,0-0.5,0-0.5,0.2c0,0,0,0.2,0.4,0.2c0,0-0.1,0.2,0.3,0.4c0,0,0.2,0.1,0.1,0.2c0,0-0.4,0.2-0.3,0.5c0,0,0.1,0.3,0.7,0.2
			c0,0,0.2,0,0,0.2c0,0-0.3,0.3,0.2,0.5c0,0,0.4,0.2,0.6-0.2c0,0,0-0.2,0.3,0c0,0,1.2,0.6,1.8-0.3c0,0,0-0.1,0.2,0.1
			c0,0,0.6,0.7,2.3,0.8c0.1,0.2,0.3,0.3,0.6,0.3c0.3,0,0.6-0.2,0.6-0.5c0.2,0,0.9-0.1,1.7-0.6c0,0,0.3-0.2,0.6-0.3
			c0,0.5,0.4,0.9,0.9,0.9c0.5,0,0.9-0.4,0.9-0.9c0-0.4-0.3-0.8-0.7-0.8c0,0-0.6-0.2-1.4,0.3c0,0-0.7,0.4-0.8,0.4
			c0,0,0.2-0.7,0.3-1.6c-0.1,0-0.3,0-0.4,0c-0.1,0.8-0.3,1.6-0.6,1.7l-0.5,0.1c0,0,0-0.1-0.1-0.2c-0.1-0.1-0.2-0.2-0.5-0.2h0
			c-0.2,0.1-0.3,0.2-0.4,0.4c-0.1,0-0.9,0.1-1.2-0.2c0,0,0.7-0.3,0.8-0.5c0,0,0.2-0.4-0.5-0.8c0,0-0.5-0.3-0.7,0
			c0,0-0.1,0.1,0.2,0.3c0,0,0.2,0.3-0.2,0.2c0,0-0.3,0-0.5-0.2c0,0,0.1-0.9,0.3-1.6c-0.2,0-0.4-0.1-0.6-0.2
			c-0.1,0.2-0.2,0.4-0.2,0.7c0,0,0,0.5-0.2,0.7c0,0-0.7-0.6-0.4-1.6c-0.2-0.1-0.4-0.1-0.6-0.2c0,0.5,0.1,1.3,0.7,2.4
			c0,0-0.6,0.8-1.2,0.4c0,0-0.8-0.5-0.3-1c0,0,0.4-0.3,0.5,0.1c-0.2,0-0.3,0.2-0.3,0.3c0,0.2,0.2,0.4,0.3,0.4c0.2,0,0.3-0.2,0.3-0.3
			c0-0.1,0-0.5-0.3-0.8c0,0-0.3-0.3-0.8-0.2c0,0,0.4-0.6,0.5-1.1c0,0,0-0.1,0-0.2c-0.2,0-0.3-0.1-0.4-0.2c0,0.5-0.2,1.4-0.9,1.2
			c0,0,0.5-0.7,0.7-1.2c-0.3-0.1-0.6-0.2-0.9-0.3c0,0,0,0-0.1,0c0,0.2,0.1,0.7-0.2,1c0,0-0.3,0.3-0.9-0.2c0,0,0.8-0.7,1-0.9
			c-0.2-0.1-0.4-0.1-0.6-0.1h-0.2c0,0,0,0,0,0c0,0-0.5,0.4-0.9,0.5c0,0-0.1,0.1-0.2,0c0,0-0.6-0.8-0.2-1.6c0,0,0.3-0.7,0.9-0.6
			c0,0,0.2,0,0.3,0.2c0,0-0.6,0-0.5,0.5c0,0,0,0.4,0.5,0.4c0,0,0.8-0.1,0.6-1c0,0-0.1-0.6-0.6-0.6c0,0,0.3-0.3,0.1-0.4
			c0,0-0.2-0.2-0.6,0.1c0,0-0.1,0.2-0.6,0.1c0,0-0.3-0.1-0.5,0.1c0,0-0.1,0-0.1,0.4c0,0,0,0.1-0.2,0.5c0,0-0.1,0.3-0.1,0.6
			c-0.2-0.1-0.3-0.2-0.5-0.2c-0.3-0.2-0.3-1.5-0.5-2.1c-0.1-0.1,0.1-0.8,0.1-1.4c1.9-0.4,2.5-1.8,2.7-2.4c0.3-1-0.1-2.1-0.1-2.3
			c0,0,0,0,0,0c0.1,0.2,0.2,0.3,0.2,0.5c0.9,0.1,1.5-0.1,1.9-0.2c0,0,0,0,0.1,0c0,0,0.1,0,0.1,0c0.1,0,0.2-0.1,0.2-0.1
			c0,0,0.1,0,0.1,0c1.3-0.7,1.9-1.7,2.2-2.3c-0.2,0-0.7-0.2-0.9-0.5c0.4,0,0.8,0.2,1.3,0.2c0.7,0,1.1-0.4,1.9-0.3
			c0,0.1,0.1,0.4,0.6,0.6c0,0.4,0.1,0.8,0.2,1.2c0,0.1,0.1,0.1,0.1,0.1s-0.6,0.4-0.4,0.8c0,0.1,0.1,0.2,0.1,0.3c0,0-0.1,0-0.1,0
			c-0.1,0-0.2,0.1-0.3,0.3c-0.1,0.1-0.4,0.7-0.1,0.8c0,0,0.1,0,0.1,0C22,27,22,27.9,22.5,28.6c0,0.1,0.9,1.4,3.1,1.4h0
			c0.2,0,2.2,0,2.9,1.3c0,0.1,0.2,0.3,0.4,0.3c0.2,0,0.3-0.2,0.4-0.3c0.7-1.3,2.7-1.3,2.9-1.3h0c2.2,0,3.1-1.4,3.1-1.4
			c0.3-0.4,0.4-0.8,0.5-1.2c0.4-0.2,0.4-1.2,0.4-1.4c0.1,0.2,0.4,0.7,0.9,0.8c-0.1,0.5-0.1,1.2,0.4,1.3c0.2,0,0.3-0.2,0.2-0.4
			c0.4,1.2,0.1,2,0.4,2.1c0.4,0,0.4-0.7,0.5-0.8c0,0.1,0.2,0.3,0.2,0.6c0,0.4,0,0.8,0.1,0.8c0.6,0.1,0.3-1.6,0.7-1.4
			c-0.1,0.7,0,1.2,0.3,1.3c0,0.3,0,0.7-0.2,0.7c-0.8,0.2-1.6-0.5-2.3-0.3c0,0-0.1,0-0.1,0c-1.3-0.7-2.2-0.2-2.3-0.2
			c-0.4-0.3-0.5,0.2-0.6,0.1c-0.7-0.4-1.1,0.3-1.3,0.3c-0.2,0-0.5-0.4-0.8,0.4c-0.1,0.4-0.9,0.5-1,0.5c-0.3,0-0.4-0.2-0.4-0.2
			c0-0.1-0.1-0.1-0.1-0.2c0-0.1-0.1-0.1-0.1-0.2c-0.1-0.1-0.2-0.1-0.3-0.1c-0.2,0-0.4,0.2-0.4,0.4c0,0.1,0,0.2,0.1,0.2
			c0,0,0.1-0.1,0.2-0.1c0.2,0,0.3,0.1,0.3,0.3v0c0,0.3-0.5,0.7-0.5,0.7c-0.3,0.3-0.7-0.1-0.7-0.1c-0.2-0.2-0.4-0.2-0.4-0.2
			c-0.2,0-0.3,0.3-0.3,0.3s-0.1-0.2-0.4-0.3c0,0-0.1,0-0.4,0.2c0,0-0.4,0.4-0.7,0.1c0,0-0.5-0.4-0.5-0.7v0c0-0.2,0.1-0.3,0.3-0.3
			c0.1,0,0.2,0.1,0.2,0.1c0-0.1,0.1-0.2,0.1-0.2c0-0.2-0.2-0.4-0.4-0.4c-0.1,0-0.2,0-0.3,0.1c-0.1,0.1-0.1,0.1-0.1,0.2
			c0,0.1-0.1,0.2-0.1,0.2c0,0-0.1,0.2-0.4,0.2c-0.1,0-0.8-0.2-1-0.5c-0.3-0.8-0.6-0.4-0.8-0.4c-0.2,0-0.5-0.7-1.3-0.3
			c-0.1,0-0.2-0.5-0.6-0.1c-0.1,0.1-0.7-0.3-1.8,0c-0.1-0.1-0.4-0.2-0.5-0.2c-0.2-0.1-0.4-0.2-0.5-0.3C19.5,29.9,19,30,18.6,30
			c-0.1,0-0.3-0.1-0.4-0.2c-0.4-0.3-0.9-0.6-1.2-1c0-0.1-0.2-0.2-0.2-0.2c-0.1-0.2-0.2-0.3-0.3-0.6c-0.2-0.5,0.1-1.1,0.2-1.7
			c0-0.3,0.1-0.4,0.1-0.5c-0.4,0.1-1,0.1-1.7-0.1c0.2,0.6,0.2,1.2,0.1,1.7c0.3,0.2,0.4,0.5,0.4,0.7c0,0.3-0.1,0.6,0.1,0.8
			c0.3,0.3,0.8,0.6,1.1,0.9c0.1,0.1,1.6,1.2,1.8,1.3c0.2,0,0.3-0.1,0.5-0.1c0.1,0,0.1,0.1,0.2,0.1c0,0,0.1,0.1,0.3,0.2
			c-0.5,0.3-1,0.6-1.5,0.8c0,0-0.7,0.4-0.3,0.4c0,0,0.5,0,0.5,0.1c0,0-0.2,0.1-0.5,0.2c0.7,0.3,1.5,0.5,2.2,0.7
			c0.5-0.4,1.1-1,1.7-1.2c0,0,0.8,0,1.1-0.6c0.1-0.2,0.4,0.3,1.2,0c0.1,0,0.2,0.2,0.4,0.2c0.1,0-0.3,0.1-0.2,0.4c0,0-0.6,0-0.8,0.3
			c0,0.1-1.4,0.1-2.5,1.1c0.2,0,0.4,0.1,0.7,0.1c0.4-0.3,0.8-0.5,1.4-0.4c0,0,0.7,0,1,0.9c0.4,0.1,0.9,0.1,1.3,0.2h0
			c0.1-0.1,0.8-0.4,0.5-0.7c0,0-0.2-0.2-0.4,0.1c0,0-0.2,0.1-0.3-0.1c0,0,0-0.1-0.1-0.2c0,0-0.1-0.2,0.1-0.1c0,0,0.2,0.1,0.4,0
			c0.2,0,0.4-0.2,0.4-0.4c0-0.2-0.2-0.5-0.4-0.5c0,0,0,0,0,0c0,0,0,0.1,0,0.1c0,0.1-0.1,0.2-0.1,0.2c-0.3-0.1-0.2-0.6,0.2-0.6
			c0,0,0.3,0,0.6,0.3c0,0,0.6,0.9,1.1,1.1c0,0-0.1,0.3,0.2,0.4c0,0,0,0.3,0.4,0.3c0,0,0.1,0.1,0.2,0.3c0.3,0,0.6,0,0.9,0
			c0.3,0,0.6,0,0.9,0c0.1-0.2,0.1-0.3,0.2-0.3c0.4,0,0.3-0.3,0.3-0.3c0.3-0.1,0.2-0.4,0.2-0.4c0.6-0.2,1.1-1.1,1.1-1.1
			c0.2-0.3,0.6-0.3,0.6-0.3c0.4,0,0.4,0.5,0.2,0.6c-0.1,0-0.2-0.1-0.2-0.2c0,0,0-0.1,0.1-0.1c0,0,0,0,0,0c-0.3,0-0.4,0.2-0.4,0.5
			c0,0.2,0.2,0.4,0.4,0.4c0.2,0,0.4,0,0.4,0c0.3-0.1,0.1,0.1,0.1,0.1c-0.1,0.1-0.1,0.2-0.1,0.2c-0.1,0.2-0.2,0.1-0.2,0.1
			c-0.3-0.3-0.4-0.1-0.4-0.1c-0.3,0.4,0.4,0.7,0.5,0.7c0.4,0,0.9-0.1,1.4-0.2c0.3-0.9,1-0.9,1-0.9c0.5,0,1,0.2,1.4,0.4
			c0.2,0,0.4-0.1,0.7-0.1c-1.2-1-2.5-1-2.5-1.1c-0.2-0.3-0.8-0.3-0.8-0.3c0.1-0.3-0.3-0.4-0.2-0.4c0.2,0,0.3-0.3,0.4-0.2
			c0.7,0.4,1.1-0.2,1.2,0c0.3,0.6,1.1,0.6,1.1,0.6c0.6,0.2,1.2,0.7,1.7,1.2c0.7-0.2,1.3-0.4,2-0.6v0c0,0,0-0.1,0-0.1c0,0,0,0,0,0
			c0,0-0.1-0.1-0.1-0.2c-0.2-0.3-0.4-0.6-0.5-0.7c0,0,0,0,0,0s0.5-0.7,0.8-0.2c0,0.1,0,0.2-0.3,0.2c0,0,0.3,0.6,0.4,0.9
			c0.2,0,0.3-0.1,0.3-0.1c0,0,0.1,0,0.1,0c-0.2-0.4-0.5-0.6-0.4-0.7c0.1,0,0.4,0.1,0.5-0.1c0-0.1,0.1-0.3,0.1-0.6
			c0.2,0.1,0.4,0.1,0.5,0.1c0.5,0,0.7-0.8,0.5-1c0.1,0,0.4-0.3,0.4-0.2c0.2,0.4,1,0.7,0.9-0.1c0.1,0.4,0.2,0.8,0.7,0.8
			c0.3-0.1,0.1-0.6,0.2-0.6c0.1,0.2,0.2,0.8,0.7,0.6c0.2-0.1,0.3-0.2,0.3-0.4c0-0.6-1.7-3.9-1.9-5.3c0,0-0.1,0-0.1,0
			c-0.2-0.1-0.2-0.4-0.2-0.6c0,0,0,0,0,0c-0.2,0-0.6-0.2-0.6-0.8c0-0.5,0.2-0.8,0.3-0.8v0c-0.1,0.4-0.2,0.9,0.1,1.2
			c0.1,0,0.2,0.1,0.3,0.1C42.9,24.1,43,24,43,24c0,0,0,0,0,0c-0.2,0.3-0.2,0.7,0,0.8c0.1,0.1,0.2,0.2,0.3,0.2
			c0.5-0.2,0.7-1.1,0.8-1.4c0.3,0.1-0.5,2,0.1,2.4c0.2,0,0.4-0.3,0.5-0.6c0.2,0.6-0.7,1.7,0,2c0.4,0.1,0.5-0.9,0.6-0.8
			c0.1,1.6-0.7,2.3-0.2,2.6c0.5,0.2,0.6-1.1,0.6-0.9c0,1.7-0.9,2.2-0.5,2.4c0.4,0.2,0.7-0.9,0.7-0.6c0,1.5-0.8,1.9-0.4,2.4
			c0.4,0.5,1.1-1,1.1-0.7c0,0.3-0.8,2.1-0.3,2.2c0.4,0.1,0.5-0.5,0.6-0.6C48.3,29,48.3,24.8,48.2,23.4"/>
		<g>
			<path class="st2" d="M69.6,24.8l-0.1-4.3h0c-0.1,0.5-0.2,0.9-0.3,1.2l-0.7,3.1H67l-0.7-3.1c-0.1-0.3-0.2-0.7-0.3-1.2h0l-0.1,4.3
				H65l0.2-5.1h1.7c0,0,0.6,2.6,0.9,4.2h0c0.3-1.7,1-4.2,1-4.2h1.7l0.2,5.1H69.6z"/>
			<path class="st2" d="M71.8,24.8v-3l-0.4-0.1v-0.6h1.4v3.7H71.8z M71.8,19.6h1v0.9h-1V19.6z"/>
			<path class="st2" d="M75.9,24.8v-2.2c0-0.6-0.2-0.8-0.7-0.8c-0.3,0-0.5,0.1-0.7,0.2v2.8h-1v-3.7h0.7l0.2,0.4
				c0.2-0.3,0.6-0.5,1.2-0.5c0.9,0,1.3,0.6,1.3,1.5v2.3H75.9z"/>
			<path class="st2" d="M78,24.8v-3l-0.4-0.1v-0.6H79v3.7H78z M78,19.6h1v0.9h-1V19.6z"/>
			<path class="st2" d="M80.7,22.1c0,0.6,1.6,0.4,1.6,1.6c0,0.7-0.5,1.2-1.5,1.2c-0.4,0-0.9-0.1-1.1-0.3l0.2-0.7
				c0.2,0.1,0.5,0.3,0.9,0.3c0.3,0,0.5-0.2,0.5-0.4c0-0.7-1.6-0.4-1.6-1.7c0-0.5,0.4-1,1.4-1c0.4,0,0.8,0.1,1.1,0.2l-0.1,0.7
				c-0.3-0.1-0.6-0.2-0.9-0.2C80.8,21.8,80.7,21.9,80.7,22.1z"/>
			<path class="st2" d="M84.4,24.9c-0.7,0-1.1-0.3-1.1-1.2v-1.9h-0.6v-0.7h0.6v-0.6l1-0.3v1h1v0.7h-1v1.8c0,0.3,0.1,0.4,0.4,0.4
				c0.2,0,0.4-0.1,0.6-0.1l0.2,0.7C85.2,24.8,84.8,24.9,84.4,24.9z"/>
			<path class="st2" d="M86.6,23.2c0,0.6,0.3,0.9,1,0.9c0.4,0,0.8-0.1,1.1-0.3l0.2,0.7c-0.3,0.2-0.8,0.4-1.4,0.4
				c-1.1,0-1.8-0.7-1.8-1.9c0-1.1,0.6-1.9,1.8-1.9c1.1,0,1.6,0.8,1.6,1.8v0.4H86.6z M87.3,21.8c-0.5,0-0.7,0.4-0.7,0.9H88
				C88,22.2,87.8,21.8,87.3,21.8z"/>
			<path class="st2" d="M91.7,21.9c-0.1,0-0.3-0.1-0.5-0.1c-0.3,0-0.5,0.1-0.7,0.3v2.7h-1v-3.7h0.7l0.1,0.5h0
				c0.1-0.3,0.4-0.6,0.9-0.6c0.2,0,0.3,0,0.4,0.1L91.7,21.9z"/>
			<path class="st2" d="M92.6,24.8v-3l-0.4-0.1v-0.6h1.4v3.7H92.6z M92.5,19.6h1v0.9h-1V19.6z"/>
			<path class="st2" d="M97.7,23c0,1.3-0.6,1.9-1.8,1.9c-1.1,0-1.8-0.7-1.8-1.9c0-1.1,0.6-1.9,1.8-1.9C97.1,21,97.7,21.9,97.7,23z
				 M96.7,23c0-0.9-0.3-1.2-0.7-1.2c-0.5,0-0.7,0.3-0.7,1.2c0,0.9,0.2,1.2,0.7,1.2C96.5,24.2,96.7,23.9,96.7,23z"/>
			<path class="st2" d="M102.4,21.4c-0.1-0.2-0.1-0.4-0.1-0.7v-1.1h1v5.3h-0.8l-0.1-0.4c-0.2,0.2-0.5,0.5-1,0.5
				c-0.8,0-1.5-0.6-1.5-1.9c0-1.2,0.7-1.9,1.6-1.9C101.9,21,102.2,21.2,102.4,21.4z M102.3,22c-0.2-0.1-0.4-0.2-0.7-0.2
				c-0.5,0-0.8,0.3-0.8,1.2c0,0.9,0.3,1.2,0.8,1.2c0.3,0,0.5-0.1,0.7-0.3V22z"/>
			<path class="st2" d="M105,23.2c0,0.6,0.3,0.9,1,0.9c0.4,0,0.8-0.1,1.1-0.3l0.2,0.7c-0.3,0.2-0.8,0.4-1.4,0.4
				c-1.1,0-1.8-0.7-1.8-1.9c0-1.1,0.6-1.9,1.8-1.9c1.1,0,1.6,0.8,1.6,1.8v0.4H105z M105.7,21.8c-0.5,0-0.7,0.4-0.7,0.9h1.4
				C106.4,22.2,106.2,21.8,105.7,21.8z"/>
			<path class="st2" d="M108,23.9v-4.3h1v4.2c0,0.3,0.2,0.4,0.6,0.4v0.7c0,0-0.3,0.1-0.5,0.1C108.3,24.9,108,24.5,108,23.9z"/>
			<path class="st2" d="M111.9,24.8v-5.1h1v5.1H111.9z"/>
			<path class="st2" d="M116.2,24.8v-2.2c0-0.6-0.2-0.8-0.7-0.8c-0.3,0-0.5,0.1-0.7,0.2v2.8h-1v-3.7h0.7l0.2,0.4
				c0.2-0.3,0.6-0.5,1.2-0.5c0.9,0,1.3,0.6,1.3,1.5v2.3H116.2z"/>
			<path class="st2" d="M119.4,24.9c-0.7,0-1.1-0.3-1.1-1.2v-1.9h-0.6v-0.7h0.6v-0.6l1-0.3v1h1v0.7h-1v1.8c0,0.3,0.1,0.4,0.4,0.4
				c0.2,0,0.4-0.1,0.6-0.1l0.2,0.7C120.1,24.8,119.8,24.9,119.4,24.9z"/>
			<path class="st2" d="M121.6,23.2c0,0.6,0.3,0.9,1,0.9c0.4,0,0.8-0.1,1.1-0.3l0.2,0.7c-0.3,0.2-0.8,0.4-1.4,0.4
				c-1.1,0-1.8-0.7-1.8-1.9c0-1.1,0.6-1.9,1.8-1.9c1.1,0,1.6,0.8,1.6,1.8v0.4H121.6z M122.3,21.8c-0.5,0-0.7,0.4-0.7,0.9h1.4
				C123,22.2,122.8,21.8,122.3,21.8z"/>
			<path class="st2" d="M126.7,21.9c-0.1,0-0.3-0.1-0.5-0.1c-0.3,0-0.5,0.1-0.7,0.3v2.7h-1v-3.7h0.7l0.1,0.5h0
				c0.1-0.3,0.4-0.6,0.9-0.6c0.2,0,0.3,0,0.4,0.1L126.7,21.9z"/>
			<path class="st2" d="M127.5,24.8v-3l-0.4-0.1v-0.6h1.4v3.7H127.5z M127.5,19.6h1v0.9h-1V19.6z"/>
			<path class="st2" d="M132.7,23c0,1.3-0.6,1.9-1.8,1.9c-1.1,0-1.8-0.7-1.8-1.9c0-1.1,0.6-1.9,1.8-1.9
				C132.1,21,132.7,21.9,132.7,23z M131.7,23c0-0.9-0.3-1.2-0.7-1.2c-0.5,0-0.7,0.3-0.7,1.2c0,0.9,0.2,1.2,0.7,1.2
				C131.4,24.2,131.7,23.9,131.7,23z"/>
			<path class="st2" d="M135.5,21.9c-0.1,0-0.3-0.1-0.5-0.1c-0.3,0-0.5,0.1-0.7,0.3v2.7h-1v-3.7h0.7l0.1,0.5h0
				c0.1-0.3,0.4-0.6,0.9-0.6c0.2,0,0.3,0,0.4,0.1L135.5,21.9z"/>
			<path class="st2" d="M66.5,33.9L65.8,34l-1.1-3.8h1.1l0.8,3.1h0l0.8-3.1h1l-1.1,3.8c-0.3,1.1-0.9,1.5-1.6,1.5
				c-0.4,0-0.9-0.2-1.1-0.4l0.3-0.7H65c0,0,0.3,0.3,0.7,0.3c0.4,0,0.7-0.3,0.8-0.8L66.5,33.9z"/>
			<path class="st2" d="M72,34.1c-0.7,0-1.3-0.2-1.7-0.5l0.4-0.8c0.3,0.3,0.8,0.5,1.3,0.5c0.5,0,0.8-0.3,0.8-0.7
				c0-1.1-2.4-0.5-2.4-2.4c0-0.8,0.6-1.4,1.8-1.4c0.6,0,1.1,0.1,1.5,0.4l-0.3,0.8c-0.3-0.2-0.7-0.3-1.2-0.3c-0.5,0-0.8,0.2-0.8,0.5
				c0,0.9,2.4,0.6,2.4,2.3C73.8,33.3,73.2,34.1,72,34.1z"/>
			<path class="st2" d="M75.4,32.4c0,0.6,0.3,0.9,1,0.9c0.4,0,0.8-0.1,1.1-0.3l0.2,0.7c-0.3,0.2-0.8,0.4-1.4,0.4
				c-1.1,0-1.8-0.7-1.8-1.9c0-1.1,0.6-1.9,1.8-1.9c1.1,0,1.6,0.8,1.6,1.8v0.4H75.4z M76.1,30.9c-0.5,0-0.7,0.4-0.7,0.9h1.4
				C76.7,31.3,76.6,30.9,76.1,30.9z"/>
			<path class="st2" d="M81.8,30.3l0,0.7c-0.2,0-0.4,0-0.7-0.1c0.2,0.2,0.3,0.3,0.4,0.6c0,0.9-0.9,1.3-1.5,1.3c-0.1,0-0.3,0-0.5-0.1
				c-0.1,0-0.2,0.1-0.2,0.2c0,0.4,2.4-0.1,2.4,1.3c0,0.9-0.8,1.4-1.8,1.4c-0.8,0-1.6-0.3-1.6-1c0-0.5,0.4-0.7,1-0.8
				c-0.5-0.1-0.9-0.2-0.9-0.6c0-0.3,0.3-0.5,0.7-0.6c-0.4-0.2-0.7-0.5-0.7-1.1c0-1,0.9-1.3,1.5-1.3C80.3,30.2,81.1,30.3,81.8,30.3z
				 M79.7,33.8c-0.4,0-0.6,0.2-0.6,0.5c0,0.3,0.3,0.6,0.7,0.6c0.4,0,0.7-0.2,0.7-0.6C80.6,33.9,80.3,33.8,79.7,33.8z M80.5,31.4
				c0-0.4-0.4-0.6-0.7-0.6c-0.3,0-0.7,0.1-0.7,0.6c0,0.5,0.4,0.6,0.7,0.6C80.2,32,80.5,31.9,80.5,31.4z"/>
			<path class="st2" d="M84.9,34l-0.2-0.5c-0.2,0.2-0.6,0.5-1.2,0.5c-0.9,0-1.4-0.5-1.4-1.5v-2.3h1v2.3c0,0.6,0.2,0.8,0.7,0.8
				c0.3,0,0.5-0.1,0.7-0.2v-2.8h1V34H84.9z"/>
			<path class="st2" d="M88.5,31.1c-0.1,0-0.3-0.1-0.5-0.1c-0.3,0-0.5,0.1-0.7,0.3V34h-1v-3.7H87l0.1,0.5h0c0.1-0.3,0.4-0.6,0.9-0.6
				c0.2,0,0.4,0,0.4,0.1L88.5,31.1z"/>
			<path class="st2" d="M89.3,34v-3l-0.4-0.1v-0.6h1.4V34H89.3z M89.3,28.7h1v0.9h-1V28.7z"/>
			<path class="st2" d="M93.5,30.5c-0.1-0.2-0.1-0.4-0.1-0.7v-1.1h1V34h-0.8l-0.1-0.4c-0.2,0.2-0.5,0.5-1,0.5
				c-0.8,0-1.5-0.6-1.5-1.9c0-1.2,0.7-1.9,1.6-1.9C93,30.2,93.3,30.3,93.5,30.5z M93.4,31.1c-0.2-0.1-0.4-0.2-0.7-0.2
				c-0.5,0-0.8,0.3-0.8,1.2c0,0.9,0.3,1.2,0.8,1.2c0.3,0,0.5-0.1,0.7-0.3V31.1z"/>
			<path class="st2" d="M97.6,34l-0.1-0.4c-0.2,0.3-0.6,0.5-1.1,0.5c-0.7,0-1.2-0.5-1.2-1.2c0-0.7,0.5-1.1,1.4-1.1h0.8v-0.2
				c0-0.5-0.3-0.6-0.7-0.6c-0.4,0-0.8,0.1-1.1,0.3l-0.3-0.7c0.4-0.2,0.9-0.3,1.5-0.3c1.1,0,1.5,0.5,1.5,1.4V34H97.6z M97.3,32.4
				h-0.6c-0.4,0-0.6,0.2-0.6,0.5c0,0.3,0.2,0.5,0.6,0.5c0.2,0,0.5-0.1,0.7-0.3V32.4z"/>
			<path class="st2" d="M101.4,30.5c-0.1-0.2-0.1-0.4-0.1-0.7v-1.1h1V34h-0.8l-0.1-0.4c-0.2,0.2-0.5,0.5-1,0.5
				c-0.8,0-1.5-0.6-1.5-1.9c0-1.2,0.7-1.9,1.6-1.9C100.9,30.2,101.2,30.3,101.4,30.5z M101.4,31.1c-0.2-0.1-0.4-0.2-0.7-0.2
				c-0.5,0-0.8,0.3-0.8,1.2c0,0.9,0.3,1.2,0.8,1.2c0.3,0,0.5-0.1,0.7-0.3V31.1z"/>
			<path class="st2" d="M106.3,32.2h-0.6V34h-1v-5.1h1.6c1.1,0,2,0.5,2,1.6C108.3,31.4,107.6,32.2,106.3,32.2z M106.3,29.7h-0.5v1.7
				h0.5c0.6,0,0.9-0.4,0.9-0.9C107.2,30,106.9,29.7,106.3,29.7z"/>
			<path class="st2" d="M111.4,34l-0.2-0.5c-0.2,0.2-0.6,0.5-1.2,0.5c-0.9,0-1.4-0.5-1.4-1.5v-2.3h1v2.3c0,0.6,0.2,0.8,0.7,0.8
				c0.3,0,0.5-0.1,0.7-0.2v-2.8h1V34H111.4z M109.4,29.7l-0.1-0.6l1.9-0.5l0.1,0.7L109.4,29.7z"/>
			<path class="st2" d="M113.7,30.6c0.2-0.2,0.6-0.5,1-0.5c0.9,0,1.5,0.6,1.5,1.9c0,1.3-0.8,1.9-1.6,1.9c-0.5,0-0.8-0.2-1.1-0.5
				l-0.2,0.4h-0.5v-5.3h1V30L113.7,30.6z M113.8,33c0.2,0.2,0.4,0.4,0.7,0.4c0.4,0,0.8-0.3,0.8-1.2c0-0.9-0.3-1.2-0.7-1.2
				c-0.3,0-0.5,0.1-0.7,0.3V33z"/>
			<path class="st2" d="M116.9,33v-4.3h1v4.2c0,0.3,0.2,0.4,0.6,0.4V34c0,0-0.3,0.1-0.5,0.1C117.1,34.1,116.9,33.7,116.9,33z"/>
			<path class="st2" d="M119.3,34v-3l-0.4-0.1v-0.6h1.4V34H119.3z M119.3,28.7h1v0.9h-1V28.7z"/>
			<path class="st2" d="M124.1,33.7c-0.2,0.1-0.7,0.3-1.3,0.3c-1.1,0-1.8-0.6-1.8-1.9c0-1.2,0.7-1.9,1.8-1.9c0.5,0,0.9,0.1,1.3,0.3
				l-0.3,0.7c-0.3-0.2-0.6-0.2-0.9-0.2c-0.5,0-0.8,0.4-0.8,1.2c0,0.8,0.3,1.2,0.9,1.2c0.4,0,0.8-0.1,1-0.3L124.1,33.7z"/>
			<path class="st2" d="M127,34l-0.1-0.4c-0.2,0.3-0.6,0.5-1.1,0.5c-0.7,0-1.2-0.5-1.2-1.2c0-0.7,0.5-1.1,1.4-1.1h0.8v-0.2
				c0-0.5-0.3-0.6-0.7-0.6c-0.4,0-0.8,0.1-1.1,0.3l-0.3-0.7c0.4-0.2,0.9-0.3,1.5-0.3c1.1,0,1.5,0.5,1.5,1.4V34H127z M126.7,32.4
				h-0.6c-0.4,0-0.6,0.2-0.6,0.5c0,0.3,0.2,0.5,0.6,0.5c0.2,0,0.5-0.1,0.7-0.3V32.4z"/>
		</g>
	</g>
	<g>
		<path class="st2" d="M68.2,14.6c-1.1,0-2-0.4-2.6-0.9l0.6-1.2c0.5,0.4,1.3,0.8,2.1,0.8c0.7,0,1.2-0.5,1.2-1.1
			c0-1.7-3.7-0.9-3.7-3.7c0-1.2,1-2.2,2.8-2.2c0.9,0,1.7,0.2,2.4,0.5l-0.5,1.3c-0.4-0.3-1.2-0.4-1.9-0.4c-0.7,0-1.2,0.2-1.2,0.8
			c0,1.4,3.7,0.9,3.7,3.6C71.1,13.4,70,14.6,68.2,14.6z"/>
		<path class="st2" d="M72.3,14.5V6.4h5v1.3h-3.4v2h2.6l-0.1,1.4h-2.5v2.1h3.4v1.3H72.3z"/>
		<path class="st2" d="M82.2,14.5l-2.5-6.3h0l0.1,6.3h-1.4V6.4h2.4l2.5,6.5h0l-0.1-6.5h1.4v8.1H82.2z"/>
		<path class="st2" d="M89,14.6c-1.2,0-2.1-0.2-2.9-0.4V6.4h2.7c2.3,0,3.8,1,3.8,3.9C92.7,13,91.5,14.6,89,14.6z M88.8,7.7h-1.1v5.4
			c0.3,0.1,0.8,0.2,1.4,0.2c1,0,1.9-0.6,1.9-2.9C91,8.4,90.4,7.7,88.8,7.7z"/>
		<path class="st2" d="M94.5,14.5h-1.5l2.2-8.1h2.6l2.1,8.1h-1.8l-0.4-1.8h-2.8L94.5,14.5z M96.1,7.8l-0.9,3.6h2.2l-0.8-3.6H96.1z"
			/>
	</g>
</g>
</svg>
